<svg viewBox="0 0 361 361" xmlns="http://www.w3.org/2000/svg" xml:space="preserve" style="fill-rule:evenodd;clip-rule:evenodd;stroke-linejoin:round;stroke-miterlimit:2"><path d="M822.738 59.539c-99.558 0-180.388 80.829-180.388 180.388 0 99.559 80.83 180.388 180.388 180.388 99.559 0 180.392-80.829 180.392-180.388 0-99.559-80.833-180.388-180.392-180.388Zm-80.161 320.463 106.806-106.805 47.403 47.402 8.001-161.771-161.771 8.001 47.402 47.403L683.36 321.29c-13.991-23.899-22.01-51.702-22.01-81.363 0-89.072 72.316-161.388 161.388-161.388 89.073 0 161.388 72.316 161.388 161.388 0 89.073-72.315 161.388-161.388 161.388-29.171 0-56.545-7.756-80.161-21.313Z" style="fill:#768293" transform="translate(-642.35 -59.54)"/></svg>