<svg clip-rule="evenodd" fill-rule="evenodd" stroke-linejoin="round" stroke-miterlimit="2" viewBox="0 0 183 198" xmlns="http://www.w3.org/2000/svg"><path d="m0 0h183v198h-183z" fill="none"/><path d="m222.629 149.541-15.625 10.882 26.5-160.423 155.619 33.589-108.645 75.664 78.737 61.711-139.309 26.59zm93.785-119.021c7.384 0 13.379 5.995 13.379 13.379s-5.995 13.379-13.379 13.379-13.379-5.995-13.379-13.379 5.995-13.379 13.379-13.379z" fill="#61676f" transform="translate(-207.004)"/><path d="m133.053 106.553 1.176 1.056-1.752 1.284-.66-1.452-.636 1.464-1.764-1.284 1.152-1.068-1.572-.156.684-2.04 1.368.768-.312-1.56h2.16l-.312 1.572 1.356-.792.672 2.028z" fill="#d77524" fill-rule="nonzero" transform="matrix(10.9286 0 0 10.9286 -1297.72 -1050.739)"/></svg>