<svg style="opacity: .2;" xmlns="http://www.w3.org/2000/svg" width="256" height="256" xml:space="preserve"><g fill="none" stroke="#768293" stroke-width="1.501" stroke-miterlimit="10"><ellipse cx="29.063" cy="12.844" rx="7.182" ry="6.846"/><ellipse cx="127.467" cy="12.844" rx="7.182" ry="6.846"/><path d="M35.534 13.357h85.193M134.725 13.357h85.193"/></g><g fill="none" stroke="#D77526" stroke-width="1.501" stroke-miterlimit="10"><ellipse cx="12.233" cy="28.781" rx="6.846" ry="7.182"/><ellipse cx="12.233" cy="127.185" rx="6.846" ry="7.182"/><path d="M11.72 35.251v85.194M11.72 134.442v85.194"/></g><g fill="none" stroke="#D77526" stroke-width="1.501" stroke-miterlimit="10"><ellipse cx="214.414" cy="229.797" rx="7.182" ry="6.846"/><ellipse cx="116.01" cy="229.797" rx="7.182" ry="6.846"/><path d="M207.943 229.284H122.75M108.752 229.284H23.559"/></g><g fill="none" stroke="#768293" stroke-width="1.501" stroke-miterlimit="10"><ellipse cx="198.342" cy="243.066" rx="7.182" ry="6.846"/><ellipse cx="99.938" cy="243.066" rx="7.182" ry="6.846"/><path d="M191.872 242.554h-85.194M92.681 242.554H7.487"/></g><g fill="none" stroke="#768293" stroke-width="1.501" stroke-miterlimit="10"><ellipse cx="231.242" cy="213.86" rx="6.846" ry="7.182"/><ellipse cx="231.242" cy="115.456" rx="6.846" ry="7.182"/><path d="M231.755 207.39v-85.194M231.755 108.198V23.005"/></g><g fill="none" stroke="#C1C8D3" stroke-width="1.501" stroke-miterlimit="10"><ellipse cx="244.513" cy="197.789" rx="6.846" ry="7.182"/><ellipse cx="244.513" cy="99.385" rx="6.846" ry="7.182"/><path d="M245.025 191.318v-85.193M245.025 92.127V6.934"/></g><path fill="none" stroke="#D77526" stroke-width="1.218" stroke-linecap="round" stroke-linejoin="round" stroke-miterlimit="10" d="M21.094 127.272h101.877"/><circle fill="#D77526" cx="120.505" cy="127.272" r="19.479"/><g fill="none" stroke="#D77526" stroke-width="1.341" stroke-miterlimit="10"><path d="M50.086 112.667c2.217.442 3.667 2.539 3.394 4.706-.277 2.166-2.212 3.832-4.464 3.706-2.256-.126-3.962-2.256-3.646-4.738.316-2.484 2.506-4.116 4.716-3.674zM81.868 65.962c1.184 1.926.632 4.417-1.144 5.689a4.271 4.271 0 0 1-5.752-.754c-1.438-1.737-1.039-4.438.996-5.895 2.034-1.455 4.72-.96 5.9.96z"/><path d="M50.313 113.134a70.615 70.615 0 0 1 8.724-23.344 69.836 69.836 0 0 1 16.331-18.818M82.068 66.199c7.07-4.445 14.929-7.636 23.107-9.331a70.339 70.339 0 0 1 24.91-.66"/></g><path fill="#D77526" d="m119.757 45.715 7.684 10.217-11.366 5.852 29.512-1.695z"/><path fill="#FFF" d="m123.141 48.948 19.4 10.443-13.642-3.125z"/><g><g fill="none" stroke="#768293" stroke-width=".654" stroke-miterlimit="10"><path d="M137.343 197.613c-.263-1.072.393-2.154 1.454-2.455 1.062-.293 2.185.277 2.521 1.331.335 1.045-.302 2.195-1.438 2.51-1.135.321-2.276-.317-2.537-1.386zM109.25 198.856c.177-1.089 1.203-1.825 2.297-1.688 1.095.138 1.902 1.116 1.801 2.211-.102 1.1-1.135 1.895-2.305 1.748-1.169-.147-1.97-1.184-1.793-2.271z"/><path d="M137.504 197.417a70.455 70.455 0 0 1-24.268 1.802M109.252 198.705a70.784 70.784 0 0 1-23.033-7.855"/></g><g fill="none" stroke="#768293" stroke-width=".654" stroke-miterlimit="10"><path d="M82.297 188.708c.599-.934 1.828-1.192 2.78-.636.946.566 1.304 1.776.771 2.747-.527.962-1.797 1.289-2.809.684-1.018-.596-1.334-1.874-.742-2.795zM62.048 169.197c.915-.624 2.155-.386 2.809.503.647.894.504 2.145-.365 2.828-.863.679-2.162.484-2.854-.47-.698-.949-.496-2.244.41-2.861z"/><path d="M82.55 188.689a69.932 69.932 0 0 1-18.017-16.354M62.159 169.094c-4.624-6.715-8.094-14.225-10.167-22.11"/></g><path fill="#768293" d="m48.118 156.988 4.443-8.176 7.31 5.757-10.042-19.028z"/><path fill="#FFF" d="m49.236 153.771 1.052-16.002 2.053 9.977z"/></g><g><g fill="none" stroke="#404751" stroke-width=".399" stroke-miterlimit="10"><path d="M150.438 62.804c-.272.614-.967.909-1.552.657-.59-.241-.867-.942-.62-1.567s.946-.928 1.561-.677c.609.262.882.972.611 1.587zM164.341 70.909c-.405.539-1.143.659-1.66.288-.519-.369-.627-1.119-.247-1.668a1.19 1.19 0 0 1 1.672-.304c.539.387.638 1.15.235 1.684z"/><path d="M150.294 62.842a70.638 70.638 0 0 1 12.147 6.803M164.296 70.99a69.814 69.814 0 0 1 10.262 9.41"/></g><g fill="none" stroke="#404751" stroke-width=".399" stroke-miterlimit="10"><path d="M176.287 82.269c-.52.429-1.262.372-1.682-.106-.414-.484-.35-1.234.149-1.68a1.184 1.184 0 0 1 1.696.095c.439.498.354 1.265-.163 1.691zM185.108 95.732c-.6.3-1.32.083-1.615-.481-.298-.563-.066-1.28.521-1.603a1.19 1.19 0 0 1 1.634.471 1.19 1.19 0 0 1-.54 1.613z"/><path d="M176.143 82.238a71.363 71.363 0 0 1 7.826 11.517M185.032 95.784a70.222 70.222 0 0 1 5.008 12.991"/></g><g fill="none" stroke="#404751" stroke-width=".399" stroke-miterlimit="10"><path d="M190.76 111.219c-.653.152-1.304-.226-1.46-.844-.156-.617.231-1.26.879-1.438.648-.178 1.316.196 1.479.839a1.19 1.19 0 0 1-.898 1.443zM192.643 127.202c-.673 0-1.216-.517-1.23-1.153-.01-.637.512-1.174 1.185-1.201.669-.026 1.238.49 1.249 1.153a1.19 1.19 0 0 1-1.204 1.201z"/><path d="M190.645 111.126a70.155 70.155 0 0 1 1.863 13.798M192.552 127.215a70.859 70.859 0 0 1-1.336 13.859"/></g><g fill="none" stroke="#404751" stroke-width=".399" stroke-miterlimit="10"><path d="M190.769 143.582c-.652-.155-1.064-.784-.929-1.406.134-.622.771-1.023 1.428-.895a1.19 1.19 0 0 1 .95 1.41 1.19 1.19 0 0 1-1.449.891zM185.344 158.734c-.601-.298-.86-1.004-.588-1.579.271-.576.981-.824 1.593-.55.614.275.89.988.607 1.589a1.189 1.189 0 0 1-1.612.54z"/><path d="M190.706 143.448a70.88 70.88 0 0 1-4.471 13.186M185.256 158.705a70.201 70.201 0 0 1-7.358 11.819"/></g><g fill="none" stroke="#404751" stroke-width=".399" stroke-miterlimit="10"><path d="M176.379 172.57c-.517-.432-.603-1.176-.205-1.674.398-.496 1.146-.573 1.679-.163a1.19 1.19 0 0 1 .22 1.686c-.415.519-1.178.581-1.694.151zM164.751 183.697c-.405-.537-.32-1.283.181-1.677.502-.393 1.245-.299 1.671.222.425.52.354 1.283-.169 1.692-.522.41-1.279.298-1.683-.237z"/><path d="M176.383 172.422a70.144 70.144 0 0 1-9.895 9.795M164.687 183.632a71.867 71.867 0 0 1-11.862 7.293"/></g><path fill="#404751" d="m162.022 192.474-7.742-2.35 3.621-7.235-14.443 11.889z"/><path fill="#FFF" d="m159.086 192.086-13.812 1.911 8.137-3.499z"/></g></svg>