<svg viewBox="0 0 512 512" xmlns="http://www.w3.org/2000/svg" xml:space="preserve" style="fill-rule:evenodd;clip-rule:evenodd;stroke-linejoin:round;stroke-miterlimit:2"><path style="fill:none" d="M0 0h144v144H0z" transform="scale(3.55556)"/><path d="M104.392 257.635V42.571l.001-.178C104.488 27.258 116.805 15 131.963 15a27.45 27.45 0 0 1 17.426 6.211l335.359 212.954c9.093 3.927 15.523 13.007 15.523 23.47H104.392Z" style="fill:#e8457c;fill-rule:nonzero"/><path d="M500.271 257.635a25.53 25.53 0 0 1-1.02 7.11c-1.482 5.051-4.558 9.579-8.672 12.859a26.01 26.01 0 0 1-5.804 3.49l-.027.012L149.389 494.06a27.45 27.45 0 0 1-17.426 6.211c-15.217 0-27.571-12.355-27.571-27.571V257.635h395.879Z" style="fill:#bc1948;fill-rule:nonzero"/><path d="M15 133.125c0-8.81 7.153-15.963 15.963-15.963a15.9 15.9 0 0 1 10.522 3.963l171.696 125.616a13.04 13.04 0 0 1 1.694 1.239l.35.256-.029.032c2.533 2.34 4.128 5.682 4.128 9.367v.082c-.023 3.653-1.614 6.963-4.128 9.286l.029.031-.35.257a13.04 13.04 0 0 1-1.694 1.239L41.485 394.146a15.898 15.898 0 0 1-10.522 3.962c-8.81 0-15.963-7.152-15.963-15.962V133.125Z" style="fill:#8c193f"/></svg>