<svg viewBox="0 0 512 512" xmlns="http://www.w3.org/2000/svg" xml:space="preserve" style="fill-rule:evenodd;clip-rule:evenodd;stroke-linejoin:round;stroke-miterlimit:2"><path style="fill:none" d="M0 0h800v800H0z" transform="scale(.64)"/><path d="M513.24 333.333h148.093c13.992 0 25.334 11.342 25.334 25.333V493.56c0 51.421-41.686 93.106-93.107 93.106h-.44c-51.422.008-93.113-41.672-93.12-93.093v-147c0-7.312 5.928-13.24 13.24-13.24Z" style="fill:#5059c9;fill-rule:nonzero" transform="translate(-95.628 -95.628) scale(.87907)"/><circle cx="613.333" cy="246.666" r="60" style="fill:#5059c9" transform="translate(-95.628 -95.628) scale(.87907)"/><circle cx="426.667" cy="220" r="86.667" style="fill:#7b83eb" transform="translate(-95.628 -95.628) scale(.87907)"/><path d="M542.227 333.333H297.773c-13.824.342-24.76 11.815-24.44 25.64v153.854c-1.93 82.963 63.706 151.809 146.667 153.84 82.961-2.031 148.597-70.877 146.667-153.84V358.973c.32-13.825-10.616-25.298-24.44-25.64Z" style="fill:#7b83eb;fill-rule:nonzero" transform="translate(-95.628 -95.628) scale(.87907)"/><path d="M433.333 333.333v215.6a24.544 24.544 0 0 1-15.2 22.533 23.621 23.621 0 0 1-9.2 1.867H285.067c-1.734-4.4-3.334-8.8-4.667-13.333a162.398 162.398 0 0 1-7.067-47.2V358.933c-.32-13.803 10.598-25.258 24.4-25.6h135.6Z" style="fill-opacity:.1;fill-rule:nonzero" transform="translate(-95.628 -95.628) scale(.87907)"/><path d="M420 333.333v228.933a23.6 23.6 0 0 1-1.867 9.2 24.544 24.544 0 0 1-22.533 15.2H291.333c-2.266-4.4-4.4-8.8-6.266-13.333-1.867-4.533-3.334-8.8-4.667-13.333a162.398 162.398 0 0 1-7.067-47.2V358.933c-.32-13.803 10.598-25.258 24.4-25.6H420Z" style="fill-opacity:.2;fill-rule:nonzero" transform="translate(-95.628 -95.628) scale(.87907)"/><path d="M420 333.333V535.6c-.101 13.433-10.966 24.298-24.4 24.4H280.4a162.398 162.398 0 0 1-7.067-47.2V358.933c-.32-13.803 10.598-25.258 24.4-25.6H420Z" style="fill-opacity:.2;fill-rule:nonzero" transform="translate(-95.628 -95.628) scale(.87907)"/><path d="M406.667 333.333V535.6c-.102 13.433-10.967 24.298-24.4 24.4H280.4a162.398 162.398 0 0 1-7.067-47.2V358.933c-.32-13.803 10.598-25.258 24.4-25.6h108.934Z" style="fill-opacity:.2;fill-rule:nonzero" transform="translate(-95.628 -95.628) scale(.87907)"/><path d="M433.333 264.4v42c-2.266.133-4.4.267-6.666.267-2.267 0-4.4-.134-6.667-.267a73.24 73.24 0 0 1-13.333-2.133 86.666 86.666 0 0 1-60-50.934A74.044 74.044 0 0 1 342.4 240h66.533c13.455.051 24.349 10.945 24.4 24.4Z" style="fill-opacity:.1;fill-rule:nonzero" transform="translate(-95.628 -95.628) scale(.87907)"/><path d="M420 277.733V306.4a73.24 73.24 0 0 1-13.333-2.133 86.666 86.666 0 0 1-60-50.934H395.6c13.455.051 24.349 10.946 24.4 24.4Z" style="fill-opacity:.2;fill-rule:nonzero" transform="translate(-95.628 -95.628) scale(.87907)"/><path d="M420 277.733V306.4a73.24 73.24 0 0 1-13.333-2.133 86.666 86.666 0 0 1-60-50.934H395.6c13.455.051 24.349 10.946 24.4 24.4Z" style="fill-opacity:.2;fill-rule:nonzero" transform="translate(-95.628 -95.628) scale(.87907)"/><path d="M406.667 277.733v26.533a86.664 86.664 0 0 1-60-50.933h35.6c13.454.051 24.348 10.946 24.4 24.4Z" style="fill-opacity:.2;fill-rule:nonzero" transform="translate(-95.628 -95.628) scale(.87907)"/><path d="M137.773 253.333h244.454c13.497 0 24.439 10.942 24.439 24.44v244.453c0 13.498-10.942 24.44-24.439 24.44H137.773c-13.498 0-24.44-10.942-24.44-24.44V277.773c0-13.498 10.943-24.44 24.44-24.44Z" style="fill:url(#a);fill-rule:nonzero" transform="translate(-95.628 -95.628) scale(.87907)"/><path d="M324.32 346.373h-48.867V479.44H244.32V346.373h-48.64V320.56h128.64v25.813Z" style="fill:#fff;fill-rule:nonzero" transform="translate(-95.628 -95.628) scale(.87907)"/><defs><linearGradient id="a" x1="0" y1="0" x2="1" y2="0" gradientUnits="userSpaceOnUse" gradientTransform="scale(382.82) rotate(59.999 .288 .33)"><stop offset="0" style="stop-color:#5a62c3;stop-opacity:1"/><stop offset=".5" style="stop-color:#4d55bd;stop-opacity:1"/><stop offset="1" style="stop-color:#3940ab;stop-opacity:1"/></linearGradient></defs></svg>