<svg viewBox="0 0 200 200" xmlns="http://www.w3.org/2000/svg" xml:space="preserve" style="fill-rule:evenodd;clip-rule:evenodd;stroke-linejoin:round;stroke-miterlimit:2"><path style="fill:none" d="M0 0h183v198H0z" transform="scale(1.0929 1.0101)"/><path d="m222.629 149.541-15.625 10.882L233.504 0l155.619 33.589-108.645 75.664 78.737 61.711-139.309 26.59 2.723-48.013ZM316.414 30.52c7.384 0 13.379 5.995 13.379 13.379 0 7.384-5.995 13.379-13.379 13.379-7.384 0-13.379-5.995-13.379-13.379 0-7.384 5.995-13.379 13.379-13.379Z" style="fill:#61676f" transform="translate(-207.005)"/><path d="M-103.178 395.691c-17.031 0-30.857 13.826-30.857 30.857 0 17.03 13.826 30.856 30.857 30.856-12.773-2.571-23.143-15.512-23.143-30.856 0-15.345 10.37-28.286 23.143-30.857Z" style="fill:#d77524" transform="matrix(-1 0 0 1 28.922 -317.015)"/><path d="M-103.178 395.691c-17.031 0-30.857 13.826-30.857 30.857 0 17.03 13.826 30.856 30.857 30.856-12.773-2.571-23.143-15.512-23.143-30.856 0-15.345 10.37-28.286 23.143-30.857Z" style="fill:#d77524" transform="matrix(-1.27715 0 0 1.20706 14.129 -405.337)"/></svg>