<svg xmlns="http://www.w3.org/2000/svg" xml:space="preserve" style="fill-rule:evenodd;clip-rule:evenodd;stroke-linejoin:round;stroke-miterlimit:2" viewBox="0 0 129 129"><path d="M0 0h128v128H0z" style="fill:none" transform="translate(.677 .402)"/><path d="M175.34 61.819c.277 0 .489.228.635.684.277.862.476 1.293.598 1.293.098 0 .196-.073.293-.219 2.002-2.938 3.854-5.03 5.554-6.275.725-.529 1.429-.793 2.112-.793.904 0 1.445.028 1.624.085.081.017.122.106.122.269 0 .122-.082.281-.244.476-4.582 5.249-7.308 8.667-8.179 10.254-.301.545-.993.818-2.075.818-.358 0-.733-.094-1.123-.281-.163-.09-.448-.635-.855-1.636-.512-1.269-.769-2.38-.769-3.332 0-.35.248-.639.745-.867.7-.317 1.221-.476 1.562-.476Z" style="fill:#d77524;fill-rule:nonzero" transform="translate(-1617.313 -520.364) scale(9.36229)"/></svg>