<?xml version="1.0" encoding="UTF-8" standalone="no"?>
<!DOCTYPE svg PUBLIC "-//W3C//DTD SVG 1.1//EN" "http://www.w3.org/Graphics/SVG/1.1/DTD/svg11.dtd">
<svg width="100%" height="100%" viewBox="0 0 325 483" version="1.1" xmlns="http://www.w3.org/2000/svg" xmlns:xlink="http://www.w3.org/1999/xlink" xml:space="preserve" xmlns:serif="http://www.serif.com/" style="fill-rule:evenodd;clip-rule:evenodd;stroke-linejoin:round;stroke-miterlimit:2;">
    <g transform="matrix(1,0,0,1,-754.446,-14.5488)">
        <g transform="matrix(1,0,0,1,657.746,0)">
            <g transform="matrix(1,0,0,1,-1464.65,-10.3624)">
                <g transform="matrix(3.3151,0,0,3.3151,1767.68,280.607)">
                    <path d="M0,6.798C-1.07,12.823 -4.39,18.386 -9.792,22.175C-15.202,25.956 -21.561,27.173 -27.592,26.117C-33.614,25.046 -39.174,21.728 -42.964,16.323C-46.746,10.912 -47.962,4.555 -46.907,-1.472C-45.837,-7.5 -42.519,-13.06 -37.113,-16.848C-31.705,-20.629 -25.346,-21.848 -19.317,-20.793C-13.29,-19.721 -7.731,-16.402 -3.943,-10.996C-0.159,-5.588 1.055,0.771 0,6.798M-8.07,-47.874C-7.676,-48.133 -7.152,-48.035 -6.9,-47.654C-6.649,-47.272 -6.765,-46.753 -7.158,-46.492C-7.554,-46.232 -8.076,-46.331 -8.328,-46.712C-8.58,-47.093 -8.463,-47.612 -8.07,-47.874M-1.856,-52.51C-1.266,-52.898 -0.485,-52.753 -0.109,-52.183C0.268,-51.614 0.095,-50.837 -0.495,-50.447C-1.083,-50.058 -1.865,-50.204 -2.241,-50.774C-2.617,-51.343 -2.445,-52.121 -1.856,-52.51M4.359,-57.145C5.143,-57.663 6.184,-57.471 6.684,-56.711C7.186,-55.953 6.953,-54.918 6.171,-54.403C5.388,-53.886 4.348,-54.08 3.846,-54.836C3.346,-55.596 3.575,-56.629 4.359,-57.145M-12.355,-34.491L0.03,-43.164L4.579,-36.667L8.337,-57.983L-12.978,-61.739L-8.428,-55.245L-46.289,-28.739L-46.243,-28.708C-63.325,-16.299 -67.38,7.541 -55.228,24.91C-50.064,32.28 -42.803,37.296 -34.817,39.737L-49.42,49.961L-53.967,43.465L-57.726,64.779L-36.408,68.537L-40.96,62.042L-4.398,36.445C-3.314,35.834 -2.247,35.167 -1.205,34.439C16.34,22.144 20.604,-2.03 8.32,-19.583C3.1,-27.036 -4.268,-32.081 -12.355,-34.491" style="fill:rgb(98,103,111);fill-rule:nonzero;"/>
                </g>
                <g transform="matrix(3.3151,0,0,3.3151,1842.14,70.2783)">
                    <path d="M0,-13.685L2.572,-9.83C4.222,-10.929 6.45,-10.485 7.551,-8.835C8.65,-7.186 8.204,-4.957 6.557,-3.858L9.129,0L11.406,-11.406L0,-13.685Z" style="fill:rgb(98,103,111);fill-rule:nonzero;"/>
                </g>
                <g transform="matrix(-2.76594,1.82741,1.82741,2.76594,1857.93,56.7209)">
                    <path d="M1.582,-5.265C3.22,-5.267 4.551,-3.982 4.551,-2.395C4.551,-0.81 3.221,0.475 1.582,0.474C-0.057,0.476 -1.387,-0.808 -1.385,-2.393C-1.386,-3.978 -0.058,-5.264 1.582,-5.265" style="fill:rgb(98,103,111);fill-rule:nonzero;"/>
                </g>
                <g transform="matrix(-2.76576,1.82768,1.82768,2.76576,1835.33,70.433)">
                    <path d="M1.356,-4.516C2.761,-4.517 3.901,-3.415 3.902,-2.056C3.903,-0.696 2.763,0.407 1.356,0.407C-0.049,0.407 -1.189,-0.694 -1.189,-2.055C-1.188,-3.412 -0.05,-4.515 1.356,-4.516" style="fill:rgb(98,103,111);fill-rule:nonzero;"/>
                </g>
                <g transform="matrix(2.76662,-1.82639,-1.82639,-2.76662,1812.74,84.1475)">
                    <path d="M-1.132,-0.339C0.041,-0.34 0.991,0.58 0.994,1.715C0.993,2.848 0.041,3.767 -1.132,3.768C-2.305,3.768 -3.254,2.848 -3.253,1.714C-3.253,0.582 -2.303,-0.338 -1.132,-0.339" style="fill:rgb(98,103,111);fill-rule:nonzero;"/>
                </g>
            </g>
        </g>
        <g transform="matrix(1,0,0,1,657.746,0)">
            <g transform="matrix(1.27278,0,0,1.27278,-1633.96,-344.622)">
                <path d="M1554.76,454.862C1566.4,430.045 1589.69,430.045 1601.33,440.319C1612.97,450.592 1612.97,471.139 1601.33,491.685C1593.18,507.095 1572.23,522.505 1554.76,532.779C1537.3,522.505 1516.34,507.095 1508.19,491.685C1496.55,471.139 1496.55,450.592 1508.19,440.319C1519.84,430.045 1543.12,430.045 1554.76,454.862Z" style="fill:rgb(98,103,111);"/>
                <path d="M1554.76,445.377C1550.07,438.578 1544.39,434.202 1538.53,431.722C1526.39,426.585 1513.28,429.546 1505.07,436.784C1492.11,448.225 1491.12,471.091 1504.07,493.973C1512.57,509.976 1534.21,526.158 1552.37,536.842C1553.85,537.71 1555.68,537.71 1557.15,536.842C1575.32,526.154 1596.97,509.964 1605.47,493.933C1618.4,471.077 1617.41,448.221 1604.45,436.784C1596.25,429.546 1583.13,426.585 1570.99,431.722C1565.13,434.202 1559.45,438.578 1554.76,445.377L1554.76,445.377ZM1554.76,454.862C1566.4,430.045 1589.69,430.045 1601.33,440.319C1612.97,450.592 1612.97,471.139 1601.33,491.685C1593.18,507.095 1572.23,522.505 1554.76,532.779C1537.3,522.505 1516.34,507.095 1508.19,491.685C1496.55,471.139 1496.55,450.592 1508.19,440.319C1519.84,430.045 1543.12,430.045 1554.76,454.862Z" style="fill:white;"/>
            </g>
        </g>
    </g>
</svg>
