<svg viewBox="0 0 513 512" xmlns="http://www.w3.org/2000/svg" xml:space="preserve" style="fill-rule:evenodd;clip-rule:evenodd;stroke-linejoin:round;stroke-miterlimit:2"><path style="fill:none" d="M993.866 0h196.617v201.428H993.866z" transform="matrix(2.60405 0 0 2.54186 -2587.99 0)"/><path d="M48.543 66.398H3.021l12.842-1.972c.492-12.929 5.806-24.624 14.192-33.335l2.755 3.753 1.015 1.384c-6.677 7.278-10.973 16.769-11.658 27.231L41.458 60.5l-15.89-11.157 20.521 3.592 4.186 5.705a18.205 18.205 0 0 0-1.732 7.758Zm31.07-12.871a18.135 18.135 0 0 1 3.842 5.661l8.572 1.313 15.891-11.157-20.519 3.592L99.667 36.22c6.68 7.281 10.979 16.778 11.661 27.243l6.294.966c-.49-12.93-5.8-24.626-14.19-33.338l3.809-5.189-27.628 27.625ZM33.004 32.656l2.166 2.17L53.875 53.53v-.003a18.17 18.17 0 0 1 5.658-3.839l1.314-8.571-11.16-15.895 3.593 20.522-16.706-12.262c7.28-6.679 16.766-10.986 27.232-11.669l.967-6.294c-12.93.493-24.62 5.809-33.334 14.195l-5.193-3.808 6.758 6.75Zm47.204 13.088 3.59-20.522L72.64 41.117l-2.959-19.294c10.464.683 19.96 4.974 27.239 11.654l1.378-1.01 3.753-2.757c-8.712-8.389-20.407-13.698-33.339-14.191L66.743 2.675v45.52c2.656 0 5.312.578 7.763 1.736l5.702-4.187ZM53.875 79.27a18.127 18.127 0 0 1-3.842-5.659l-8.573-1.314-15.892 11.157 20.521-3.591L33.82 96.577c-6.679-7.281-10.977-16.776-11.663-27.241l-6.292-.969c.491 12.935 5.805 24.627 14.191 33.343l-3.808 5.186L53.875 79.27Zm31.07-12.872c0 2.656-.578 5.311-1.732 7.76l4.186 5.703 20.521 3.593-15.893-11.158 19.292-2.96c-.684 10.465-4.976 19.96-11.654 27.238l1.012 1.382 2.756 3.753c8.387-8.716 13.7-20.408 14.193-33.343l12.845-1.969H84.945v.001ZM79.613 79.27a18.158 18.158 0 0 1-5.659 3.843L72.64 91.68l11.16 15.893-3.592-20.517L96.92 99.322c-7.279 6.677-16.775 10.979-27.239 11.662l-.965 6.293c12.929-.491 24.624-5.8 33.338-14.19l5.188 3.808L79.613 79.27Zm-26.334 7.787-3.593 20.517 11.158-15.89 2.962 19.292C53.34 110.289 43.848 106 36.567 99.322l-1.378 1.009-3.754 2.756c8.715 8.39 20.408 13.699 33.339 14.19l1.969 12.844v-45.52a18.262 18.262 0 0 1-7.757-1.735l-5.707 4.191Zm12.967-13.675h.994v7.883h-.994v-7.883Zm-4.731 6.941-.918-.38 3.014-7.283.918.38-3.014 7.283Zm-4.933-3.065-.702-.702 5.572-5.577.703.702-5.573 5.577Zm-3.387-4.708-.38-.919 7.281-3.018.381.919-7.282 3.018Zm-1.32-6.648h7.883v.993h-7.883v-.993Zm.94-4.741.38-.917 7.282 3.02-.38.917-7.282-3.02Zm3.068-4.924.703-.703 5.575 5.571-.702.704-5.576-5.572Zm4.71-3.379.918-.381 3.021 7.281-.918.381-3.021-7.281Zm5.653-1.328h.994v7.883h-.994V51.53Zm5.734.944.918.381-3.022 7.283-.918-.381 3.022-7.283Zm4.925 3.066.703.703-5.577 5.573-.702-.703 5.576-5.573Zm3.379 4.711.38.918-7.283 3.017-.38-.918 7.283-3.017Zm-6.557 5.651h7.884v.993h-7.884v-.993Zm6.941 5.724-.38.917-7.283-3.014.38-.918 7.283 3.015ZM77.6 76.561l-.702.702-5.573-5.576.702-.702 5.573 5.576Zm-4.711 3.384-.918.38-3.014-7.285.917-.38 3.015 7.285Z" style="fill:rgba(255,255,255,.5);fill-rule:nonzero" transform="matrix(3.76619 0 0 3.7662 4.709 5.933)"/></svg>