<svg xmlns="http://www.w3.org/2000/svg" width="512" height="512" xml:space="preserve"><path fill="#FFF" d="M390.081 37.641c-23.927 8.485-45.946 21.606-64.445 38.366a189.175 189.175 0 0 0-44.021 59.229c-10.526 22.193-16.567 46.272-17.749 70.384-1.215 24.119 2.465 48.219 10.502 70.596 2.547 7.093-1.138 14.907-8.23 17.455-7.092 2.547-14.907-1.138-17.454-8.23-.123-.341-.23-.684-.325-1.027l-.031-.119c-7.109-26.334-8.977-53.932-5.443-80.616 3.495-26.692 12.312-52.435 25.565-75.374 13.24-22.951 30.914-43.099 51.633-58.974 20.697-15.906 44.439-27.47 69.245-34.064l.017-.004a1.247 1.247 0 0 1 1.525.884 1.253 1.253 0 0 1-.789 1.494z"/><g fill="none" stroke="#C1C8D3" stroke-width=".837" stroke-miterlimit="10"><path d="M269.858 210.354c1.31.533 1.983 1.914 1.611 3.116-.38 1.199-1.71 1.953-3.088 1.655-1.377-.296-2.236-1.735-1.785-3.169.447-1.436 1.963-2.132 3.262-1.602zM292.927 185.921c.691 1.229.316 2.75-.808 3.447-1.124.694-2.65.348-3.443-.819a2.49 2.49 0 0 1 .761-3.522 2.492 2.492 0 0 1 3.49.894z"/><path d="M269.95 210.654c1.759-4.595 4.499-8.777 7.767-12.449 3.281-3.672 7.097-6.85 11.194-9.581M293.045 186.075c8.57-4.876 18.064-8.082 27.795-9.638M326.176 175.583c.119 1.404-.857 2.634-2.177 2.796-1.319.16-2.563-.801-2.784-2.192a2.496 2.496 0 0 1 2.168-2.873 2.493 2.493 0 0 1 2.793 2.269zM359.551 181.009c-.643 1.255-2.095 1.793-3.283 1.28-1.188-.519-1.782-1.956-1.295-3.28a2.477 2.477 0 0 1 3.335-1.397 2.474 2.474 0 0 1 1.243 3.397z"/><path d="M325.947 175.795c9.793-.901 19.872-.056 29.101 3.448M359.489 181.193c4.399 2.198 8.448 5.118 11.832 8.69 3.393 3.564 6.092 7.766 8.028 12.287"/><g><path d="M381.371 207.174c-1.353.395-2.746-.296-3.185-1.514-.433-1.219.206-2.633 1.499-3.189 1.296-.558 2.814.088 3.306 1.471a2.472 2.472 0 0 1-1.62 3.232zM381.949 241.031c-1.366-.366-2.194-1.68-1.929-2.958.268-1.278 1.566-2.15 2.954-1.933a2.482 2.482 0 0 1 2.04 2.98 2.48 2.48 0 0 1-3.065 1.911z"/><path d="M381.118 206.993c1.439 4.71 2.192 9.616 2.429 14.536.233 4.921.027 9.874-.786 14.732M381.758 241.009c-1.236 4.764-3.149 9.359-5.774 13.525-2.61 4.175-5.889 7.913-9.57 11.181"/></g><g><path d="M362.352 269.277c-.841-1.131-.659-2.688.363-3.521 1.025-.827 2.581-.681 3.518.371a2.485 2.485 0 0 1-.305 3.593 2.487 2.487 0 0 1-3.576-.443zM332.224 285.375c-.555-1.296.021-2.783 1.278-3.33 1.257-.545 2.734.05 3.306 1.338s.002 2.789-1.273 3.343c-1.275.553-2.758-.056-3.311-1.351z"/><path d="M362.434 268.976c-7.883 5.952-16.832 10.298-25.845 14.294M332.123 285.209c-9.079 3.888-18.267 7.563-27.133 11.959"/></g><g><path d="M300.269 299.819c-.671-1.236-.211-2.787 1.039-3.432 1.248-.646 2.774-.129 3.4 1.135.626 1.262.146 2.775-1.056 3.397-1.204.621-2.711.141-3.383-1.1zM273.578 320.892a2.486 2.486 0 0 1-.331-3.589 2.485 2.485 0 0 1 3.602-.188c1.021.967 1.118 2.53.259 3.526-.865.992-2.417 1.127-3.53.251z"/><path d="M300.396 299.533c-8.706 4.659-17.031 10.284-23.793 17.562M273.411 320.793a61.63 61.63 0 0 0-7.782 12.627c-2.067 4.506-3.601 9.248-4.653 14.087"/></g></g><g fill="none" stroke="#D77526" stroke-width="2" stroke-miterlimit="10"><path d="M256.362 198.988c1.619.471 2.895 1.523 3.725 2.751.827 1.236 1.218 2.647.996 4.073-.22 1.427-1.019 2.646-2.177 3.572-1.161.916-2.692 1.538-4.376 1.506-1.681-.032-3.201-.763-4.23-2.028-1.033-1.256-1.556-3.046-1.267-4.916.29-1.87 1.328-3.41 2.688-4.293 1.361-.892 3.028-1.135 4.641-.665zM317.324 148.168c.832 3.267-.942 6.537-3.904 7.507-2.965.961-6.325-.642-7.574-3.771-1.247-3.125.42-6.725 3.801-7.823 3.378-1.104 6.848.828 7.677 4.087z"/><path d="M256.642 199.685c1.567-5.706 4.2-11.096 7.523-15.997 3.329-4.905 7.341-9.335 11.768-13.287 8.877-7.901 19.342-13.938 30.425-18.205M317.503 148.594c11.483-3.031 23.508-4.225 35.324-2.962 11.785 1.248 23.401 5.11 33.104 11.966"/><g><path d="M396.015 165.807c-1.236 1.143-2.8 1.69-4.297 1.739-1.502.043-2.943-.407-4.063-1.405-1.123-.994-1.738-2.372-1.873-3.868-.129-1.492.23-3.109 1.219-4.474.987-1.362 2.447-2.193 4.05-2.352 1.598-.163 3.329.36 4.702 1.577 1.371 1.22 2.094 2.878 2.12 4.483.031 1.61-.622 3.158-1.858 4.3zM413.356 243.44a6.623 6.623 0 0 1-3.678-2.826c-.799-1.276-1.134-2.755-.833-4.239.299-1.484 1.186-2.724 2.42-3.591a6.575 6.575 0 0 1 4.491-1.163c1.671.187 3.115 1.043 4.05 2.347.934 1.296 1.351 3.041.99 4.826-.361 1.785-1.427 3.237-2.795 4.07-1.369.84-3.037 1.061-4.645.576z"/><path d="M395.274 165.684c8.18 8.624 13.66 19.543 16.8 30.973 1.586 5.724 2.632 11.6 3.247 17.509.594 5.908.638 11.879-.062 17.771M412.899 243.369a65.196 65.196 0 0 1-7.386 16.115c-3.167 5.017-6.979 9.612-11.175 13.814-8.419 8.411-18.266 15.265-28.41 21.488"/></g><g><path d="M354.892 301.779c-1.649-2.938-.656-6.622 2.172-8.27 2.825-1.643 6.499-.688 8.259 2.184 1.759 2.87.816 6.644-2.122 8.354a6.035 6.035 0 0 1-8.309-2.268zM284.8 345.369c-2.277-2.477-2.006-6.423.709-8.648 2.709-2.226 6.604-1.721 8.613.979 2.014 2.701 1.568 6.436-.876 8.445-2.445 2.001-6.167 1.706-8.446-.776z"/><path d="M355.187 301.087c-10.383 5.87-20.974 11.383-31.395 17.227-10.412 5.846-20.695 12.01-30.244 19.245M284.445 345.072c-8.893 7.998-16.627 17.496-21.7 28.414-5.128 10.887-7.419 22.972-7.388 34.949"/></g></g><g fill="none" stroke="#62676F" stroke-width=".837" stroke-miterlimit="10"><path d="M235.26 246.474a2.472 2.472 0 0 1 3.577.209 2.469 2.469 0 0 1-.396 3.563c-1.119.858-2.664.718-3.503-.271-.837-.992-.714-2.541.322-3.501zM207.265 228.11c.464-1.33 1.928-2.029 3.248-1.505 1.32.521 1.912 2.031 1.342 3.317-.571 1.291-2.002 1.908-3.217 1.429-1.215-.482-1.838-1.91-1.373-3.241z"/><path d="M235.565 246.527c-6.582-7.254-14.801-12.957-23.774-16.84M207.304 227.921c-9.211-3.273-19.119-4.711-28.876-3.827M173.155 225.005a2.468 2.468 0 0 1 2.083-2.918 2.47 2.47 0 0 1 2.803 2.235c.127 1.406-.817 2.639-2.098 2.819-1.28.176-2.524-.75-2.788-2.136zM144.007 240.907a2.462 2.462 0 0 1-.1-3.592 2.464 2.464 0 0 1 3.592.106c.934 1.052.922 2.602.013 3.505-.909.904-2.452.921-3.505-.019z"/><path d="M173.362 224.773c-9.634 1.687-18.871 5.975-26.106 12.608M143.848 240.798c-6.619 7.26-10.963 16.357-13.399 25.807"/><g><path d="M129.49 271.867a2.468 2.468 0 0 1-2.021-2.964c.308-1.401 1.7-2.21 3.063-1.859 1.366.351 2.2 1.683 1.923 2.943-.276 1.263-1.572 2.108-2.965 1.88zM136.811 303.868a2.456 2.456 0 0 1-3.543-.614 2.457 2.457 0 0 1 .826-3.503c1.227-.697 2.728-.37 3.431.689.701 1.063.412 2.581-.714 3.428z"/><path d="M129.344 271.593c-.855 4.816-1.046 9.78-.29 14.63.744 4.85 2.459 9.538 4.951 13.757M136.673 304.003c2.918 3.939 6.411 7.417 10.162 10.55 3.756 3.134 7.773 5.936 11.904 8.541"/></g><g><path d="M163.404 325.705c-.711 1.217-2.255 1.636-3.441.918-1.187-.718-1.53-2.285-.779-3.477.752-1.192 2.278-1.58 3.423-.888 1.146.694 1.508 2.231.797 3.447zM193.346 341.399c-.635 1.258-2.133 1.782-3.35 1.172-1.217-.611-1.693-2.127-1.061-3.387.631-1.26 2.131-1.786 3.351-1.174s1.694 2.131 1.06 3.389z"/><path d="M163.096 325.746c8.422 4.953 17.171 9.301 25.889 13.678M193.283 341.582c8.708 4.393 17.387 8.868 25.672 14.01"/></g><g><path d="M223.545 358.321c-.787 1.169-2.323 1.514-3.446.788-1.123-.725-1.443-2.269-.699-3.466.743-1.197 2.301-1.574 3.467-.82 1.167.753 1.466 2.329.678 3.498zM247.804 381.529c-1.196.75-2.717.472-3.462-.584-.743-1.057-.484-2.59.627-3.455s2.724-.65 3.548.523a2.465 2.465 0 0 1-.713 3.516z"/><path d="M223.236 358.345c8.085 5.399 15.751 11.634 21.674 19.383M247.657 381.654c2.619 4.095 4.67 8.557 6.005 13.23 1.343 4.673 1.962 9.541 1.961 14.402"/></g></g><g fill="none" stroke="#768293" stroke-width="1.5" stroke-miterlimit="10"><path d="M257.849 255.958a4.22 4.22 0 0 1 3.447.718c.979.719 1.697 1.895 1.86 3.287.164 1.392-.259 2.706-1.045 3.634a4.204 4.204 0 0 1-3.187 1.498c-2.531-.004-4.581-1.829-4.85-4.06-.257-2.232 1.313-4.491 3.775-5.077zM217.298 210.188c1.12-2.258 3.973-3.13 6.307-1.815 2.336 1.313 3.076 4.205 1.721 6.335-1.356 2.131-4.103 2.815-6.206 1.635-2.1-1.185-2.946-3.889-1.822-6.155z"/><path d="M258.28 256.334c-1.878-9.011-6.402-17.298-12.242-24.318-5.861-7.043-13.015-12.931-20.772-17.75M217.41 209.86a109.409 109.409 0 0 0-25.765-9.16c-8.924-1.954-18.115-2.79-27.247-2.222"/><g><path d="M154.527 200.025c-.484-2.479 1.292-4.903 3.982-5.241 2.688-.34 5.001 1.57 5.156 4.086.156 2.525-1.653 4.688-4.014 4.988-2.361.294-4.641-1.354-5.124-3.833zM106.098 236.604c-2.287-1.066-3.207-3.934-1.87-6.323 1.337-2.391 4.272-3.114 6.372-1.711 2.101 1.402 2.756 4.123 1.609 6.176-1.151 2.054-3.82 2.927-6.111 1.858z"/><path d="M154.915 199.605c-9 1.595-17.771 4.784-25.497 9.724-7.736 4.915-14.324 11.584-19.262 19.293M105.768 236.5c-3.958 8.262-6.399 17.181-7.757 26.207-1.385 9.02-1.64 18.288-.058 27.319"/></g><g><path d="M100.717 299.63c-2.386.828-5.045-.616-5.729-3.282-.688-2.664.954-5.208 3.436-5.637 2.495-.432 4.834 1.098 5.422 3.361.578 2.267-.743 4.731-3.129 5.558zM141.284 346.482c-1.414 2.09-4.307 2.606-6.434 1.091-2.13-1.514-2.592-4.43-1.069-6.441 1.526-2.015 4.355-2.441 6.374-1.007 2.018 1.437 2.545 4.264 1.129 6.357z"/><path d="M100.247 299.303c2.813 8.729 7.545 16.768 13.432 23.756 5.884 7.016 12.821 13.059 20.124 18.519M141.131 346.793c15.108 10.249 31.189 18.888 46.667 28.473"/></g><g><path d="M196.396 380.318a4.615 4.615 0 0 1-6.326 1.361 4.613 4.613 0 0 1-1.449-6.309c1.327-2.147 4.179-2.793 6.356-1.408 2.179 1.385 2.807 4.248 1.419 6.356zM241.84 423.394c-2.166 1.306-4.925.697-6.284-1.287-1.354-1.988-.917-4.786 1.09-6.322 2.004-1.533 4.95-1.053 6.462 1.166 1.517 2.216.892 5.142-1.268 6.443z"/><path d="M195.826 380.356c7.617 4.974 15.035 10.271 21.954 16.172 6.915 5.894 13.321 12.414 18.762 19.688M241.573 423.615a91.247 91.247 0 0 1 10.62 24.961c2.284 8.79 3.284 17.89 3.279 26.971"/></g></g><g fill="none" stroke="#D77526" stroke-miterlimit="10"><path d="M41.376 276.383c1.624-.438 3.316.58 3.831 2.258.521 1.675-.301 3.469-1.891 4.025-1.588.556-3.377-.433-3.935-2.227-.55-1.795.367-3.619 1.995-4.056zM38.854 231.731c1.661.269 2.787 1.893 2.564 3.633-.212 1.743-1.701 3.04-3.378 2.893-1.678-.147-2.899-1.783-2.672-3.647.238-1.863 1.824-3.148 3.486-2.879z"/><path d="M41.684 276.635a106.22 106.22 0 0 1-3.396-38.558M39.086 231.732c2-12.82 6.374-25.269 12.865-36.505"/></g><g fill="none" stroke="#D77526" stroke-miterlimit="10"><path d="M55.512 189.072c1.392.945 1.726 2.892.796 4.379-.933 1.485-2.83 2.034-4.288 1.194-1.46-.841-1.877-2.84-.879-4.431.997-1.592 2.978-2.089 4.371-1.142zM87.682 157.999c.884 1.436.388 3.344-1.072 4.319-1.461.972-3.413.698-4.398-.668-.984-1.364-.548-3.363 1.016-4.403 1.561-1.044 3.573-.68 4.454.752z"/><path d="M55.52 189.468c7.196-10.799 16.41-20.239 26.989-27.75M87.832 158.175a105.298 105.298 0 0 1 36.058-14.066"/></g><g fill="none" stroke="#D77526" stroke-miterlimit="10"><path d="M130.878 142.794c.193 1.672-1.064 3.195-2.799 3.458-1.734.261-3.387-.812-3.702-2.468-.314-1.652.927-3.279 2.784-3.559 1.857-.281 3.525.897 3.717 2.569zM175.418 146.862c-.511 1.606-2.281 2.477-3.972 2.006-1.689-.474-2.756-2.129-2.364-3.77.392-1.635 2.191-2.611 3.999-2.104 1.81.505 2.847 2.265 2.337 3.868z"/><path d="M130.583 143.061a106.522 106.522 0 0 1 38.641 2.309M175.383 147.091a105.352 105.352 0 0 1 34.197 18.126"/></g><path fill="#D77526" d="m191.193 162.834 15.726.517-2.142-15.588 19.161 30.926z"/><path fill="#FFF" d="m196.837 163.963 24.244 12.152-12.794-11.532z"/><g><g fill="none" stroke="#C1C8D3" stroke-miterlimit="10"><path d="M473.446 199.293c-1.672.183-3.162-.847-3.35-2.297-.185-1.45.985-2.824 2.653-3.074 1.662-.249 3.2.774 3.394 2.291.196 1.517-1.022 2.897-2.697 3.08zM473.192 236.309c-1.671-.217-2.871-1.568-2.712-3.02.156-1.453 1.625-2.512 3.299-2.364 1.68.148 2.926 1.504 2.762 3.025-.166 1.522-1.681 2.576-3.349 2.359z"/><path d="M473.189 199.052a156.03 156.03 0 0 1 .348 32.018M472.961 236.308a154.933 154.933 0 0 1-7.301 31.174"/></g><g fill="none" stroke="#C1C8D3" stroke-miterlimit="10"><path d="M463.852 273.057c-1.565-.615-2.405-2.218-1.898-3.588.508-1.37 2.183-2.044 3.775-1.492 1.589.551 2.475 2.17 1.943 3.604-.531 1.436-2.252 2.092-3.82 1.476zM446.431 305.719c-1.38-.968-1.815-2.721-1.003-3.935.814-1.214 2.605-1.472 4.021-.562 1.419.91 1.895 2.689 1.042 3.96-.852 1.271-2.683 1.502-4.06.537z"/><path d="M463.735 272.725a156.232 156.232 0 0 1-14.569 28.513M446.227 305.611a156.542 156.542 0 0 1-20.896 24.263"/></g><g fill="none" stroke="#C1C8D3" stroke-miterlimit="10"><path d="M421.156 333.986c-1.107-1.271-1.109-3.077-.028-4.061 1.081-.982 2.882-.803 4.038.419 1.158 1.225 1.192 3.066.061 4.096-1.133 1.03-2.966.814-4.071-.454zM390.62 354.908c-.776-1.499-.351-3.252.931-3.954 1.284-.696 2.989-.1 3.825 1.363.835 1.461.436 3.262-.91 3.991-1.343.736-3.073.091-3.846-1.4z"/><path d="M421.206 333.637a155.307 155.307 0 0 1-26.088 18.564M390.488 354.718a155.191 155.191 0 0 1-29.768 11.793"/></g><path fill="#C1C8D3" d="m373.148 352.898-9.35 12.656 14.05 7.083-36.338-1.778z"/><path fill="#FFF" d="m369.015 356.904-23.765 13.065 16.757-3.99z"/></g></svg>