<svg xmlns="http://www.w3.org/2000/svg" width="512" height="512" xml:space="preserve"><g fill="none" stroke="#404751" stroke-width=".8" stroke-miterlimit="10"><ellipse cx="282.05" cy="35.626" rx="2.439" ry="2.19"/><ellipse cx="282.05" cy="65.631" rx="2.439" ry="2.19"/><path d="M281.866 37.6v25.976M281.866 67.844v25.977"/><g><ellipse cx="282.05" cy="96.37" rx="2.439" ry="2.19"/><ellipse cx="282.05" cy="126.375" rx="2.439" ry="2.19"/><path d="M281.866 98.343v25.976M281.866 128.587v25.977"/></g><g><ellipse cx="282.05" cy="157.113" rx="2.439" ry="2.19"/><ellipse cx="282.05" cy="187.118" rx="2.439" ry="2.19"/><path d="M281.866 159.086v25.977M281.866 189.331v25.977"/></g></g><g fill="none" stroke="#404751" stroke-width=".8" stroke-miterlimit="10"><ellipse cx="273.367" cy="65.368" rx="2.439" ry="2.19"/><ellipse cx="273.367" cy="95.373" rx="2.439" ry="2.19"/><path d="M273.184 67.341v25.977M273.184 97.585v25.977"/><g><ellipse cx="273.367" cy="126.111" rx="2.439" ry="2.19"/><ellipse cx="273.367" cy="156.116" rx="2.439" ry="2.19"/><path d="M273.184 128.084v25.977M273.184 158.328v25.977"/></g><g><ellipse cx="273.367" cy="186.854" rx="2.439" ry="2.19"/><ellipse cx="273.367" cy="216.858" rx="2.439" ry="2.19"/><path d="M273.184 188.827v25.977M273.184 219.071v25.977"/></g></g><g fill="none" stroke="#404751" stroke-width=".8" stroke-miterlimit="10"><ellipse cx="264.684" cy="95.368" rx="2.439" ry="2.19"/><ellipse cx="264.684" cy="125.373" rx="2.439" ry="2.19"/><path d="M264.5 97.341v25.977M264.5 127.585v25.977"/><g><ellipse cx="264.684" cy="156.111" rx="2.439" ry="2.19"/><ellipse cx="264.684" cy="186.116" rx="2.439" ry="2.19"/><path d="M264.5 158.084v25.977M264.5 188.328v25.977"/></g><g><ellipse cx="264.684" cy="216.854" rx="2.439" ry="2.19"/><ellipse cx="264.684" cy="246.858" rx="2.439" ry="2.19"/><path d="M264.5 218.827v25.977M264.5 249.071v25.977"/></g></g><g fill="none" stroke="#404751" stroke-width=".8" stroke-miterlimit="10"><ellipse cx="256" cy="125.872" rx="2.438" ry="2.174"/><ellipse cx="256" cy="155.663" rx="2.438" ry="2.174"/><path d="M255.816 127.831v25.791M255.816 157.859v25.792"/></g><g fill="none" stroke="#404751" stroke-width=".8" stroke-miterlimit="10"><ellipse cx="256" cy="186.182" rx="2.438" ry="2.174"/><ellipse cx="256" cy="215.973" rx="2.438" ry="2.174"/><path d="M255.816 188.141v25.792M255.816 218.17v25.791"/></g><g fill="none" stroke="#404751" stroke-width=".8" stroke-miterlimit="10"><ellipse cx="256" cy="246.493" rx="2.438" ry="2.174"/><ellipse cx="256" cy="276.284" rx="2.438" ry="2.174"/><path d="M255.816 248.452v25.791M255.816 278.48v25.791"/></g><path fill="#404751" d="m246.58 290.129 9.42 11.167 9.42-11.167-9.42 32.44z"/><path fill="#FFF" d="m249.31 294.724 6.69 24.275v-15.994z"/><g><g fill="none" stroke="#404751" stroke-width=".8" stroke-miterlimit="10"><ellipse cx="247.316" cy="95.368" rx="2.438" ry="2.19"/><ellipse cx="247.316" cy="125.373" rx="2.438" ry="2.19"/><path d="M247.133 97.341v25.977M247.133 127.585v25.977"/><g><ellipse cx="247.316" cy="156.111" rx="2.438" ry="2.19"/><ellipse cx="247.316" cy="186.116" rx="2.438" ry="2.19"/><path d="M247.133 158.084v25.977M247.133 188.328v25.977"/></g><g><ellipse cx="247.316" cy="216.854" rx="2.438" ry="2.19"/><ellipse cx="247.316" cy="246.858" rx="2.438" ry="2.19"/><path d="M247.133 218.827v25.977M247.133 249.071v25.977"/></g></g></g><g><g fill="none" stroke="#404751" stroke-width=".8" stroke-miterlimit="10"><ellipse cx="238.633" cy="65.368" rx="2.438" ry="2.19"/><ellipse cx="238.633" cy="95.373" rx="2.438" ry="2.19"/><path d="M238.45 67.341v25.977M238.45 97.585v25.977"/><g><ellipse cx="238.633" cy="126.111" rx="2.438" ry="2.19"/><ellipse cx="238.633" cy="156.116" rx="2.438" ry="2.19"/><path d="M238.45 128.084v25.977M238.45 158.328v25.977"/></g><g><ellipse cx="238.633" cy="186.854" rx="2.438" ry="2.19"/><ellipse cx="238.633" cy="216.858" rx="2.438" ry="2.19"/><path d="M238.45 188.827v25.977M238.45 219.071v25.977"/></g></g></g><g><g fill="none" stroke="#404751" stroke-width=".8" stroke-miterlimit="10"><ellipse cx="229.95" cy="35.626" rx="2.438" ry="2.19"/><ellipse cx="229.95" cy="65.631" rx="2.438" ry="2.19"/><path d="M229.767 37.6v25.976M229.767 67.844v25.977"/><g><ellipse cx="229.95" cy="96.37" rx="2.438" ry="2.19"/><ellipse cx="229.95" cy="126.375" rx="2.438" ry="2.19"/><path d="M229.767 98.343v25.976M229.767 128.587v25.977"/></g><g><ellipse cx="229.95" cy="157.113" rx="2.438" ry="2.19"/><ellipse cx="229.95" cy="187.118" rx="2.438" ry="2.19"/><path d="M229.767 159.086v25.977M229.767 189.331v25.977"/></g></g></g><g><g fill="none" stroke="#768293" stroke-width="1.168" stroke-miterlimit="10"><path d="M106.458 280.523c1.966-.027 3.58 1.363 3.659 3.104.076 1.74-1.407 3.269-3.368 3.416-1.96.147-3.664-1.239-3.746-3.1-.084-1.86 1.49-3.392 3.455-3.42zM113.502 236.61c1.854.66 2.883 2.526 2.35 4.185-.534 1.658-2.46 2.572-4.349 2.028-1.889-.544-3-2.437-2.429-4.21.57-1.774 2.577-2.662 4.428-2.003z"/><path d="M106.732 280.841a125.344 125.344 0 0 1 5.084-38.136M113.766 236.667c4.266-12.15 10.424-23.627 18.145-33.931"/><g><path d="M136.085 197.043c1.499 1.271 1.803 3.38.718 4.744-1.087 1.361-3.211 1.537-4.785.36-1.574-1.178-1.946-3.343-.784-4.797 1.16-1.457 3.351-1.579 4.851-.307zM170.27 168.595c.961 1.714.509 3.795-.982 4.696-1.493.897-3.545.321-4.61-1.332-1.064-1.652-.658-3.81.938-4.769 1.595-.962 3.693-.31 4.654 1.405z"/><path d="M136.083 197.463a124.974 124.974 0 0 1 28.909-25.386M170.432 168.811a126.3 126.3 0 0 1 35.98-13.634"/></g></g></g><g><g fill="none" stroke="#C1C8D3" stroke-width="1.268" stroke-miterlimit="10"><path d="M33.424 278.982c2.132.042 3.835 1.639 3.834 3.566.003 1.928-1.697 3.527-3.83 3.572-2.134.045-3.896-1.553-3.9-3.566.002-2.015 1.761-3.614 3.896-3.572zM40.007 230.641c2.061.543 3.34 2.497 2.888 4.369-.457 1.873-2.478 3.028-4.566 2.569-2.08-.458-3.424-2.426-2.947-4.384.472-1.959 2.559-3.099 4.625-2.554z"/><path d="M33.709 279.34a205.482 205.482 0 0 1 4.952-41.912M40.297 230.678a203.684 203.684 0 0 1 14.799-39.523"/><g><path d="M58.408 184.177c1.868 1.027 2.636 3.232 1.743 4.94-.897 1.706-3.141 2.335-5.054 1.384-1.908-.95-2.732-3.185-1.795-4.968.934-1.786 3.234-2.386 5.106-1.356zM86.663 144.399c1.583 1.439 1.807 3.757.543 5.212-1.274 1.447-3.597 1.541-5.237.166-1.631-1.367-1.917-3.738-.586-5.25 1.322-1.519 3.705-1.56 5.28-.128z"/><path d="M58.493 184.625a207.699 207.699 0 0 1 23.841-34.828M86.903 144.566a205.402 205.402 0 0 1 31.372-28.231"/></g><g><path d="M124.433 111.673c1.183 1.773.848 4.086-.733 5.188-1.584 1.098-3.862.625-5.121-1.103-1.254-1.722-.957-4.089.699-5.237 1.653-1.152 3.969-.625 5.155 1.152zM167.887 89.493c.73 2.001-.144 4.169-1.941 4.864-1.797.697-3.901-.309-4.713-2.282-.813-1.973.039-4.196 1.917-4.924 1.879-.726 4.004.333 4.737 2.342z"/><path d="M124.302 112.111a204.434 204.434 0 0 1 37.244-19.849M168.022 89.753a206.517 206.517 0 0 1 40.893-10.447"/></g></g></g><g><path fill="#FFF" d="M360.41 156.597c10.158 20.57 16.347 43.346 17.822 66.631 1.51 23.279-1.647 47.025-9.299 69.438a182.38 182.38 0 0 1-35.669 61.547c-15.874 18.078-35.54 33.061-57.44 43.771l-.076.037c-6.051 2.959-13.355.451-16.314-5.6-2.959-6.049-.453-13.354 5.598-16.312.291-.143.609-.281.906-.398 19.784-7.76 38.163-19.463 53.676-34.471 15.527-14.982 28.174-33.215 36.911-53.354a169.105 169.105 0 0 0 13.948-64.467c.392-22.307-3.735-44.842-12.104-65.932a1.114 1.114 0 0 1 2.033-.908l.008.018z"/></g><g><g fill="none" stroke="#D77526" stroke-width="3.1" stroke-miterlimit="10"><path d="M144.456 419.917c-1.493 2.136-3.854 3.377-6.505 3.561-2.645.189-5.572-.69-8.027-2.664-2.453-1.975-3.94-4.645-4.322-7.27-.389-2.629.317-5.201 2.084-7.117 1.771-1.92 4.241-2.848 6.771-2.894 2.534-.038 5.135.799 7.314 2.553 2.181 1.753 3.556 4.114 4.061 6.598.498 2.48.12 5.092-1.376 7.233zM285.194 442.48c.762 2.493.282 5.116-1.207 7.317-1.481 2.199-3.978 3.96-7.044 4.677-3.067.717-6.087.24-8.389-1.077-2.31-1.313-3.899-3.455-4.319-6.027-.42-2.577.371-5.095 1.895-7.115 1.531-2.02 3.794-3.551 6.519-4.188 2.724-.637 5.432-.263 7.699.871 2.26 1.137 4.085 3.045 4.846 5.542z"/><path d="M143.173 419.882a164.434 164.434 0 0 0 58.132 26.144c20.83 4.836 42.619 5.506 63.704 1.936M285.509 443.127c20.456-6.217 39.702-16.438 56.227-30.02 16.539-13.56 30.338-30.429 40.412-49.289"/></g><path fill="#D77526" d="m354.108 379.48 24.086-11.515 7.29 25.682 8.707-61.111z"/><path fill="#FFF" d="m362.124 373.887 29.383-35.405-12.028 26.636z"/></g><g><g fill="none" stroke="#768293" stroke-width="1.394" stroke-miterlimit="10"><path d="M132.799 152.333c-1.452-1.842-.887-4.705 1.316-6.32 2.202-1.616 5.105-1.289 6.424.65 1.321 1.942.669 4.687-1.4 6.206-2.071 1.518-4.887 1.308-6.34-.536zM90.438 202.019c-2.058-1.121-2.671-3.979-1.279-6.328 1.39-2.351 4.182-3.196 6.159-1.933 1.979 1.263 2.466 4.045 1.159 6.257-1.31 2.208-3.975 3.128-6.039 2.004z"/><path d="M132.979 151.79c-15.034 11.637-27.977 25.952-38.089 42.048M90.135 201.908a163.795 163.795 0 0 0-18.39 53.675"/></g><g fill="none" stroke="#768293" stroke-width="1.394" stroke-miterlimit="10"><path d="M70.781 265.935c-2.337-.202-4.039-2.572-3.708-5.284.33-2.712 2.551-4.605 4.869-4.24 2.318.365 3.878 2.719 3.568 5.268-.312 2.548-2.391 4.458-4.729 4.256zM78.043 330.818c-2.225.734-4.727-.772-5.491-3.394-.769-2.621.531-5.237 2.801-5.816 2.277-.581 4.634.967 5.357 3.433.719 2.466-.434 5.041-2.667 5.777z"/><path d="M70.506 265.432a162.093 162.093 0 0 0 4.614 56.544M77.755 330.964c5.859 18.081 14.856 35.153 26.563 50.135"/></g><path fill="#768293" d="m102.239 357.567.216 19.819-19.572-3.129 38.417 24.986z"/><path fill="#FFF" d="m103.497 364.714 14.64 30.861-14.168-16.432z"/></g></svg>