<svg xmlns="http://www.w3.org/2000/svg" width="512" height="512" xml:space="preserve"><path fill="#FFF" d="M202.617 232.995c-9.029 17.666-14.486 36.94-15.99 56.391a147.88 147.88 0 0 0 6.808 57.27c5.94 18.255 15.44 35.171 27.717 49.497 12.261 14.348 27.292 26.055 43.872 34.446 5.255 2.659 7.359 9.075 4.699 14.33-2.658 5.255-9.074 7.358-14.33 4.7a11.883 11.883 0 0 1-.736-.41l-.082-.051c-18.178-11.135-34.058-25.803-46.38-42.852a159.502 159.502 0 0 1-25.958-56.527c-4.806-20.141-5.59-41.072-2.35-61.212 3.211-20.146 10.482-39.461 21.026-56.526l.007-.012a.974.974 0 0 1 1.697.956z"/><g fill="none" stroke="#404751" stroke-width=".8" stroke-miterlimit="10"><ellipse cx="111.722" cy="38.158" rx="2.438" ry="2.19"/><ellipse cx="111.722" cy="68.163" rx="2.438" ry="2.19"/><path d="M111.539 40.132v25.976M111.539 70.375v25.978"/><g><ellipse cx="111.722" cy="98.902" rx="2.438" ry="2.19"/><ellipse cx="111.722" cy="128.906" rx="2.438" ry="2.19"/><path d="M111.539 100.875v25.976M111.539 131.119v25.977"/></g><g><ellipse cx="111.722" cy="159.645" rx="2.438" ry="2.19"/><ellipse cx="111.722" cy="189.649" rx="2.438" ry="2.19"/><path d="M111.539 161.618v25.976M111.539 191.862v25.977"/></g></g><g fill="none" stroke="#404751" stroke-width=".8" stroke-miterlimit="10"><ellipse cx="103.039" cy="67.9" rx="2.438" ry="2.19"/><ellipse cx="103.039" cy="97.904" rx="2.438" ry="2.19"/><path d="M102.856 69.873v25.976M102.856 100.117v25.977"/><g><ellipse cx="103.039" cy="128.643" rx="2.438" ry="2.19"/><ellipse cx="103.039" cy="158.647" rx="2.438" ry="2.19"/><path d="M102.856 130.616v25.976M102.856 160.86v25.977"/></g><g><ellipse cx="103.039" cy="189.386" rx="2.438" ry="2.19"/><ellipse cx="103.039" cy="219.391" rx="2.438" ry="2.19"/><path d="M102.856 191.359v25.976M102.856 221.603v25.977"/></g></g><g fill="none" stroke="#404751" stroke-width=".8" stroke-miterlimit="10"><ellipse cx="94.355" cy="97.9" rx="2.438" ry="2.19"/><ellipse cx="94.355" cy="127.904" rx="2.438" ry="2.19"/><path d="M94.172 99.873v25.976M94.172 130.117v25.977"/><g><ellipse cx="94.355" cy="158.643" rx="2.438" ry="2.19"/><ellipse cx="94.355" cy="188.647" rx="2.438" ry="2.19"/><path d="M94.172 160.616v25.976M94.172 190.86v25.977"/></g><g><ellipse cx="94.355" cy="219.386" rx="2.438" ry="2.19"/><ellipse cx="94.355" cy="249.391" rx="2.438" ry="2.19"/><path d="M94.172 221.359v25.976M94.172 251.603v25.977"/></g></g><g fill="none" stroke="#404751" stroke-width=".8" stroke-miterlimit="10"><ellipse cx="85.672" cy="128.404" rx="2.438" ry="2.174"/><ellipse cx="85.672" cy="158.195" rx="2.438" ry="2.174"/><path d="M85.489 130.363v25.791M85.489 160.392v25.792"/></g><g fill="none" stroke="#404751" stroke-width=".8" stroke-miterlimit="10"><ellipse cx="85.672" cy="188.714" rx="2.438" ry="2.174"/><ellipse cx="85.672" cy="218.505" rx="2.438" ry="2.174"/><path d="M85.489 190.673v25.792M85.489 220.702v25.792"/></g><g fill="none" stroke="#404751" stroke-width=".8" stroke-miterlimit="10"><ellipse cx="85.672" cy="249.025" rx="2.438" ry="2.174"/><ellipse cx="85.672" cy="278.816" rx="2.438" ry="2.174"/><path d="M85.489 250.984v25.791M85.489 281.013v25.792"/></g><path fill="#404751" d="m76.253 292.661 9.42 11.167 9.42-11.167-9.42 32.441z"/><path fill="#FFF" d="m78.983 297.256 6.69 24.275v-15.994z"/><g fill="none" stroke="#404751" stroke-width=".8" stroke-miterlimit="10"><ellipse cx="76.989" cy="97.9" rx="2.438" ry="2.19"/><ellipse cx="76.989" cy="127.904" rx="2.438" ry="2.19"/><path d="M76.806 99.873v25.976M76.806 130.117v25.977"/><g><ellipse cx="76.989" cy="158.643" rx="2.438" ry="2.19"/><ellipse cx="76.989" cy="188.647" rx="2.438" ry="2.19"/><path d="M76.806 160.616v25.976M76.806 190.86v25.977"/></g><g><ellipse cx="76.989" cy="219.386" rx="2.438" ry="2.19"/><ellipse cx="76.989" cy="249.391" rx="2.438" ry="2.19"/><path d="M76.806 221.359v25.976M76.806 251.603v25.977"/></g></g><g fill="none" stroke="#404751" stroke-width=".8" stroke-miterlimit="10"><ellipse cx="68.306" cy="67.9" rx="2.438" ry="2.19"/><ellipse cx="68.306" cy="97.904" rx="2.438" ry="2.19"/><path d="M68.123 69.873v25.976M68.123 100.117v25.977"/><g><ellipse cx="68.306" cy="128.643" rx="2.438" ry="2.19"/><ellipse cx="68.306" cy="158.647" rx="2.438" ry="2.19"/><path d="M68.123 130.616v25.976M68.123 160.86v25.977"/></g><g><ellipse cx="68.306" cy="189.386" rx="2.438" ry="2.19"/><ellipse cx="68.306" cy="219.391" rx="2.438" ry="2.19"/><path d="M68.123 191.359v25.976M68.123 221.603v25.977"/></g></g><g fill="none" stroke="#404751" stroke-width=".8" stroke-miterlimit="10"><ellipse cx="59.623" cy="38.158" rx="2.438" ry="2.19"/><ellipse cx="59.623" cy="68.163" rx="2.438" ry="2.19"/><path d="M59.439 40.132v25.976M59.439 70.375v25.978"/><g><ellipse cx="59.623" cy="98.902" rx="2.438" ry="2.19"/><ellipse cx="59.623" cy="128.906" rx="2.438" ry="2.19"/><path d="M59.439 100.875v25.976M59.439 131.119v25.977"/></g><g><ellipse cx="59.623" cy="159.645" rx="2.438" ry="2.19"/><ellipse cx="59.623" cy="189.649" rx="2.438" ry="2.19"/><path d="M59.439 161.618v25.976M59.439 191.862v25.977"/></g></g><g fill="none" stroke="#768293" stroke-width="1.27" stroke-miterlimit="10"><path d="M286.77 446.04c2.094-.43 4.108.767 4.533 2.666.421 1.899-.898 3.839-2.977 4.336-2.079.499-4.146-.687-4.582-2.654-.439-1.969.93-3.919 3.026-4.348zM282.079 397.226c2.137.06 3.825 1.675 3.817 3.607-.01 1.934-1.722 3.531-3.857 3.566-2.139.035-3.896-1.58-3.887-3.608s1.789-3.625 3.927-3.565z"/><path d="M287.126 446.328c-2.899-13.863-4.63-27.989-4.8-42.153M282.37 397.195c.341-14.153 2.331-28.282 6.153-41.918"/><g><path d="M290.516 347.777c2.026.684 3.17 2.716 2.604 4.556-.568 1.839-2.658 2.875-4.718 2.3-2.058-.576-3.283-2.634-2.683-4.581.6-1.948 2.772-2.958 4.797-2.275zM312.91 304.244c1.728 1.258 2.211 3.544 1.116 5.129-1.097 1.585-3.402 1.943-5.192.773-1.789-1.17-2.338-3.5-1.18-5.174 1.158-1.673 3.528-1.988 5.256-.728z"/><path d="M290.681 348.206c4.434-13.447 10.704-26.278 18.518-38.084M313.168 304.384c8.296-11.479 18.036-21.89 28.761-31.134"/></g><g><path d="M347.716 268.077c1.327 1.676 1.173 4.011-.319 5.245-1.492 1.232-3.815.942-5.211-.675-1.396-1.62-1.282-4.005.278-5.295 1.561-1.29 3.925-.951 5.252.725zM389.308 242.087c.921 1.929.248 4.173-1.487 5.042-1.736.869-3.936.062-4.928-1.831-.993-1.894-.346-4.189 1.462-5.094 1.806-.903 4.032-.046 4.953 1.883z"/><path d="M347.62 268.526c11.063-8.844 23.034-16.542 35.603-23.072M389.467 242.333c12.77-6.115 26.102-11.136 39.866-14.466"/></g></g><g fill="none" stroke="#C1C8D3" stroke-width="2.312" stroke-miterlimit="10"><path d="M290.022 444.095c3.528 1.629 5.037 5.898 3.279 9.488-1.753 3.591-6.039 5.029-9.498 3.251-3.462-1.779-4.849-5.99-3.167-9.434 1.686-3.441 5.848-4.938 9.386-3.305zM317.076 351.284c3.871.384 6.684 3.968 6.14 7.98-.541 4.013-4.202 6.718-8.033 6.066-3.841-.652-6.438-4.206-5.934-7.952.508-3.744 3.954-6.479 7.827-6.094z"/><path d="M290.204 444.955c11.884-25.398 21.049-52.224 25.571-79.971M317.61 351.266c1.462-13.967 1.659-28.08.402-42.075-1.249-13.994-3.957-27.861-8.118-41.283"/><g><path d="M304.284 253.603c3.604-1.458 7.768.425 9.136 4.269 1.371 3.842-.665 7.936-4.379 9.083-3.721 1.15-7.637-.822-8.897-4.354-1.257-3.534.53-7.538 4.14-8.998zM249.47 174.361c2.662-2.834 7.209-2.892 10.063-.031 2.856 2.86 2.791 7.41-.051 10.063-2.846 2.659-7.247 2.572-9.925-.106-2.673-2.682-2.753-7.088-.087-9.926z"/><path d="M305.035 254.062c-10.26-26.195-26.152-49.993-45.469-70.349M249.781 173.926c-20.4-19.321-43.781-35.369-68.733-48.203"/></g></g><g fill="none" stroke="#C1C8D3" stroke-width="1.156" stroke-miterlimit="10"><path d="M281.762 449.876c1.857-.569 3.799.368 4.337 2.094.539 1.726-.519 3.602-2.373 4.191-1.854.591-3.808-.344-4.353-2.089-.545-1.747.525-3.626 2.389-4.196zM270.043 406.319c1.896-.432 3.764.644 4.175 2.401.415 1.757-.778 3.552-2.666 4.009-1.895.459-3.772-.613-4.194-2.396-.417-1.782.787-3.581 2.685-4.014z"/><path d="M282.109 450.109c-3.827-12.438-7.299-24.987-10.349-37.639M270.293 406.227c-2.903-12.685-5.369-25.472-7.305-38.34M261.723 360.872c1.931-.258 3.683.982 3.939 2.767.25 1.784-1.089 3.464-3.014 3.753-1.923.29-3.709-.946-3.963-2.763-.261-1.817 1.111-3.5 3.038-3.757zM258.086 315.927c1.946-.044 3.557 1.379 3.616 3.177.056 1.797-1.455 3.321-3.4 3.405-1.942.083-3.586-1.338-3.643-3.176-.061-1.838 1.483-3.363 3.427-3.406z"/><path d="M262.028 361.159c-1.744-12.894-2.94-25.864-3.47-38.864M258.351 315.886c-.305-13.006.068-26.032 1.265-38.986"/><g><path d="M260.087 269.788c1.935.228 3.328 1.855 3.145 3.64-.187 1.783-1.895 3.088-3.83 2.91-1.939-.179-3.371-1.812-3.179-3.644.189-1.834 1.934-3.133 3.864-2.906zM268.812 225.576c1.871.541 2.982 2.373 2.513 4.099-.471 1.726-2.361 2.738-4.244 2.255-1.887-.484-3.041-2.327-2.554-4.109.484-1.784 2.417-2.785 4.285-2.245z"/><path d="M260.313 270.142c1.481-12.922 3.802-25.753 7.073-38.342M269.075 225.616c3.585-12.501 8.137-24.729 13.697-36.487"/></g><g><path d="M285.68 182.623c1.729.89 2.47 2.899 1.681 4.501-.791 1.6-2.837 2.235-4.595 1.404-1.761-.832-2.545-2.863-1.725-4.522.818-1.662 2.908-2.274 4.639-1.383zM310.131 144.801c1.514 1.221 1.836 3.34.74 4.747-1.097 1.408-3.227 1.618-4.783.452-1.557-1.167-1.918-3.316-.78-4.778 1.138-1.462 3.308-1.643 4.823-.421z"/><path d="M285.767 183.033a222.017 222.017 0 0 1 20.654-33.037M310.358 144.94a221.805 221.805 0 0 1 26.969-28.121"/></g><g><path d="M342.589 112.015c1.23 1.507 1.106 3.644-.256 4.797-1.363 1.152-3.493.917-4.773-.547-1.282-1.465-1.189-3.64.225-4.835 1.412-1.197 3.574-.923 4.804.585zM380.051 87.006c.912 1.718.374 3.792-1.188 4.656-1.562.863-3.605.215-4.574-1.47-.971-1.688-.455-3.802 1.166-4.698 1.619-.895 3.684-.207 4.596 1.512z"/><path d="M342.505 112.426a229.33 229.33 0 0 1 32.09-22.105M380.206 87.223c11.474-6.117 23.462-11.293 35.849-15.25"/></g></g><circle fill="#F9F8F7" stroke="#D77526" stroke-width="2" stroke-miterlimit="10" cx="287.339" cy="450.764" r="8.396"/><circle fill="#F9F8F7" stroke="#D77526" stroke-width="1.264" stroke-miterlimit="10" cx="429.266" cy="227.584" r="5.308"/><circle fill="#F9F8F7" stroke="#D77526" stroke-width=".919" stroke-miterlimit="10" cx="415.974" cy="71.72" r="3.858"/><circle fill="#F9F8F7" stroke="#D77526" stroke-width="1.997" stroke-miterlimit="10" cx="179.932" cy="125.584" r="8.386"/><g><g fill="none" stroke="#C1C8D3" stroke-miterlimit="10"><path d="M436.762 262.829c-1.652.307-3.216-.608-3.511-2.04-.292-1.432.772-2.89 2.416-3.264 1.639-.373 3.249.533 3.556 2.031.307 1.499-.803 2.966-2.461 3.273zM439.273 299.761c-1.681-.092-2.979-1.35-2.93-2.81.048-1.46 1.434-2.626 3.113-2.604 1.687.022 3.03 1.281 2.98 2.811-.051 1.53-1.482 2.695-3.163 2.603z"/><path d="M436.488 262.608a155.97 155.97 0 0 1 2.737 31.902M439.044 299.777a154.94 154.94 0 0 1-4.953 31.633"/></g><g fill="none" stroke="#C1C8D3" stroke-miterlimit="10"><path d="M432.703 337.104c-1.605-.496-2.563-2.032-2.16-3.437.403-1.403 2.024-2.2 3.653-1.77 1.626.431 2.63 1.979 2.207 3.45-.422 1.471-2.089 2.255-3.7 1.757zM417.771 370.976c-1.448-.862-2.014-2.577-1.294-3.849.721-1.271 2.489-1.661 3.967-.861 1.483.802 2.09 2.541 1.335 3.871-.754 1.331-2.562 1.698-4.008.839z"/><path d="M432.563 336.781a156.271 156.271 0 0 1-12.399 29.521M417.56 370.883a156.505 156.505 0 0 1-19.024 25.756"/></g><g fill="none" stroke="#C1C8D3" stroke-miterlimit="10"><path d="M394.679 401.051c-1.198-1.184-1.336-2.984-.332-4.046 1.005-1.061 2.815-1.016 4.058.116 1.247 1.135 1.419 2.969.367 4.079-1.053 1.112-2.897 1.033-4.093-.149zM365.79 424.195c-.886-1.436-.592-3.217.633-4.012 1.229-.791 2.975-.322 3.917 1.073.941 1.395.678 3.22-.609 4.049-1.284.834-3.059.32-3.941-1.11z"/><path d="M394.702 400.699a155.344 155.344 0 0 1-24.628 20.461M365.646 424.016a155.149 155.149 0 0 1-28.804 13.983"/></g><path fill="#C1C8D3" d="m348.218 423.497-8.38 13.317 14.54 6.015-36.369.942z"/><path fill="#FFF" d="m344.395 427.801-22.722 14.803 16.411-5.231z"/></g><g><g fill="none" stroke="#D77526" stroke-width="1.466" stroke-miterlimit="10"><path d="M89.51 349.683c-2.465.06-4.516-1.875-4.47-4.32.039-2.444 2.151-4.309 4.613-4.166 2.465.143 4.358 2.075 4.324 4.317-.043 2.244-1.998 4.11-4.467 4.169zM103.938 405.47c-2.169 1.171-4.875.377-5.943-1.821-1.072-2.197-.037-4.816 2.22-5.806 2.263-.993 4.828-.132 5.812 1.885.979 2.018.084 4.569-2.089 5.742z"/><path d="M89.166 349.268a124.012 124.012 0 0 0 10.85 48.951M103.662 405.666c7.894 14.865 18.886 28.075 32.083 38.523"/></g><g fill="none" stroke="#D77526" stroke-width="1.466" stroke-miterlimit="10"><path d="M143.357 449.359c-1.371 2.049-4.13 2.609-6.104 1.167-1.974-1.441-2.284-4.24-.751-6.171 1.536-1.935 4.207-2.372 6.019-1.05 1.812 1.326 2.21 4.002.836 6.054zM197.26 469.716c-.289 2.449-2.493 4.199-4.907 3.814-2.416-.387-3.963-2.737-3.474-5.155.489-2.419 2.669-4.025 4.884-3.671 2.215.354 3.787 2.561 3.497 5.012z"/><path d="M142.82 449.401c13.891 9.498 29.721 16.171 46.252 19.354M197.263 470.054c16.704 2.08 33.825.667 49.973-4.075"/></g><path fill="#D77526" d="m233.086 461.61 11.551 4.536-6.419 10.622 23.535-16.416z"/><path fill="#FFF" d="m237.529 462.562 21.351-1.238-12.867 4.358z"/></g></svg>