<svg xmlns="http://www.w3.org/2000/svg" width="512" height="512" xml:space="preserve"><ellipse fill="none" stroke="#768293" stroke-width="1.114" stroke-linecap="round" stroke-linejoin="round" stroke-miterlimit="10" cx="271.976" cy="390.88" rx="46.781" ry="11.109"/><ellipse fill="none" stroke="#C1C8D3" stroke-width="1.114" stroke-linecap="round" stroke-linejoin="round" stroke-miterlimit="10" cx="271.976" cy="390.88" rx="67.604" ry="16.055"/><ellipse fill="none" stroke="#768293" stroke-width="1.114" stroke-linecap="round" stroke-linejoin="round" stroke-miterlimit="10" cx="271.976" cy="390.88" rx="97.696" ry="23.201"/><ellipse fill="none" stroke="#C1C8D3" stroke-width="1.114" stroke-linecap="round" stroke-linejoin="round" stroke-miterlimit="10" cx="271.977" cy="390.88" rx="141.182" ry="33.528"/><ellipse fill="none" stroke="#E2E6ED" stroke-width="2.228" stroke-linecap="round" stroke-linejoin="round" stroke-miterlimit="10" cx="271.978" cy="390.88" rx="204.023" ry="48.453"/><g fill="none" stroke="#768293" stroke-width="1.56" stroke-miterlimit="10"><path d="M98.433 209.961c.191-2.617-2.04-4.914-4.997-5.026-2.958-.115-5.368 2.011-5.366 4.635.001 2.626 2.238 4.758 5.002 4.866 2.768.104 5.17-1.854 5.361-4.475zM167.142 226.709c1.05-2.403-.286-5.309-3.017-6.404-2.73-1.097-5.702.079-6.607 2.542-.906 2.466.481 5.243 3.066 6.282 2.585 1.036 5.506-.011 6.558-2.42z"/><path d="M97.943 209.571c20.499 1.391 40.755 5.889 59.999 13.053M167.333 226.403c18.848 8.126 36.523 19.191 51.524 33.263"/><g><path d="M226.523 267.884c1.938-1.771 1.882-4.98-.204-7.091-2.085-2.107-5.293-2.199-7.087-.283-1.794 1.917-1.615 5.006.327 6.969s5.026 2.176 6.964.405zM261.39 329.093c2.514-.755 3.86-3.662 2.908-6.463-.95-2.803-3.792-4.289-6.244-3.355-2.455.936-3.647 3.79-2.758 6.413.892 2.622 3.578 4.162 6.094 3.405z"/><path d="M226.436 267.264c14.042 15.018 24.934 32.918 32.064 52.186M261.747 329.041c6.023 19.664 8.515 40.283 8.513 60.798"/></g></g><g fill="none" stroke="#C1C8D3" stroke-width="2.228" stroke-miterlimit="10"><path d="M269.62 374.052c3.744-.157 6.916 2.839 6.99 6.69.078 3.85-2.96 6.971-6.711 6.97s-6.793-3.001-6.868-6.692c-.071-3.694 2.838-6.81 6.589-6.968zM251.943 282.572c3.489-1.376 7.476.458 8.778 4.139 1.304 3.679-.643 7.608-4.215 8.738-3.579 1.132-7.371-.771-8.588-4.205-1.215-3.434.536-7.296 4.025-8.672z"/><path d="M270.154 374.709c-.996-27.007-4.951-54.039-13.293-79.817M252.393 282.32c-4.897-12.617-10.943-24.802-18.184-36.247-7.233-11.446-15.661-22.142-25.139-31.816"/><g><path d="M197.962 204.465c2.449-2.838 6.846-3.057 9.711-.364 2.867 2.689 2.926 7.094.246 9.715-2.683 2.624-6.908 2.657-9.544.186-2.633-2.476-2.865-6.696-.413-9.537zM116.075 160.67c1.035-3.604 4.906-5.654 8.613-4.458 3.709 1.193 5.657 5.121 4.389 8.649-1.269 3.531-5.081 5.396-8.556 4.278-3.474-1.12-5.481-4.863-4.446-8.469z"/><path d="M198.808 204.528c-20.331-17.938-44.435-31.342-69.959-40.287M116.148 160.16c-25.996-7.58-53.106-11.042-80.149-11.056"/></g></g><g fill="none" stroke="#768293" stroke-width="1.114" stroke-miterlimit="10"><path d="M269.866 380.673c1.877-.021 3.409 1.392 3.421 3.154.009 1.763-1.512 3.192-3.386 3.192-1.877 0-3.396-1.413-3.406-3.155-.011-1.741 1.497-3.171 3.371-3.191zM267.887 337.246c1.869-.157 3.5 1.141 3.64 2.901.134 1.76-1.277 3.295-3.15 3.427-1.868.133-3.488-1.167-3.621-2.902-.138-1.734 1.263-3.268 3.131-3.426z"/><path d="M270.125 380.984c-.124-12.552-.607-25.102-1.508-37.623M268.138 337.191c-1.046-12.51-2.522-24.985-4.512-37.383M262.233 293.077c1.843-.327 3.596.817 3.887 2.562.299 1.743-.98 3.4-2.83 3.697-1.854.297-3.573-.854-3.866-2.565-.285-1.714.96-3.365 2.809-3.694zM252.425 250.74c1.798-.529 3.662.42 4.144 2.125.485 1.704-.609 3.49-2.416 3.981-1.812.493-3.644-.465-4.119-2.132-.472-1.668.591-3.444 2.391-3.974z"/><path d="M262.538 293.343c-2.172-12.365-4.871-24.642-8.192-36.752M252.66 250.636c-3.53-12.049-7.689-23.921-12.586-35.486"/><g><path d="M237.092 208.955c1.705-.773 3.688-.09 4.397 1.539.712 1.627-.125 3.545-1.853 4.275-1.727.73-3.675.032-4.369-1.551-.689-1.585.113-3.488 1.825-4.263zM216.147 170.906c1.556-1.042 3.625-.688 4.591.808.969 1.495.448 3.524-1.143 4.521-1.588.995-3.62.618-4.558-.83-.935-1.448-.451-3.454 1.11-4.499z"/><path d="M237.453 209.137c-5.15-11.454-11.045-22.579-17.746-33.204M216.34 170.737c-6.964-10.453-14.738-20.373-23.303-29.564"/></g><g><path d="M188.092 136.396c1.328-1.324 3.426-1.373 4.664-.087 1.239 1.284 1.113 3.379-.26 4.657-1.372 1.278-3.436 1.293-4.63.055-1.194-1.24-1.102-3.301.226-4.625zM154.575 108.816c1.033-1.564 3.078-2.033 4.551-1.024 1.473 1.01 1.77 3.088.682 4.615-1.088 1.528-3.106 1.957-4.524.984-1.419-.971-1.743-3.01-.709-4.575z"/><path d="M188.495 136.44a214.5 214.5 0 0 0-28.699-24.354M154.688 108.585a214.188 214.188 0 0 0-33.07-17.977"/></g><g><path d="M115.177 88.202c.688-1.743 2.593-2.627 4.242-1.942 1.648.685 2.369 2.655 1.621 4.375-.749 1.719-2.635 2.558-4.224 1.898-1.589-.66-2.329-2.586-1.639-4.331zM73.459 76.195c.335-1.845 2.029-3.081 3.779-2.732 1.75.348 2.842 2.139 2.445 3.972-.397 1.833-2.083 3.024-3.771 2.688-1.687-.336-2.787-2.083-2.453-3.928z"/><path d="M115.563 88.082a221.593 221.593 0 0 0-36.018-10.938M73.473 75.938c-12.354-2.267-24.906-3.516-37.474-3.526"/></g></g><circle fill="#F9F8F7" stroke="#D77526" stroke-width="2" stroke-miterlimit="10" cx="269.265" cy="380.993" r="8.396"/><path fill="#FFF" d="M280.519 394.319c-2.596-26.917.105-54.606 8.213-80.885 8.069-26.288 21.475-51.138 39.276-72.639a214.977 214.977 0 0 1 65.041-52.92c25.052-13.287 52.989-21.577 81.604-24.225l.099-.009c7.905-.731 14.907 5.084 15.64 12.989.731 7.906-5.084 14.908-12.989 15.639a15.28 15.28 0 0 1-1.165.061c-25.048.28-50.196 5.495-73.566 15.551-23.375 10.021-44.935 24.827-62.984 43.37-18.06 18.528-32.598 40.785-42.321 65.217-9.758 24.421-14.63 50.981-14.225 77.723a1.312 1.312 0 0 1-2.619.151l-.004-.023z"/><path fill="#FFF" d="M284.733 389.358c1.583-20.423 7.219-40.731 16.704-59.279 9.458-18.561 22.71-35.35 38.804-49.065a162.854 162.854 0 0 1 55.452-30.984c20.43-6.639 42.359-9.171 64.057-7.407l.075.006c5.995.487 10.459 5.742 9.972 11.737-.487 5.995-5.742 10.459-11.737 9.972a11.387 11.387 0 0 1-.876-.107c-18.728-3.066-38.174-2.463-56.927 1.984-18.753 4.421-36.775 12.65-52.668 24.127a150.976 150.976 0 0 0-40.106 43.129c-10.474 16.946-17.583 36.128-20.776 56.136a.994.994 0 0 1-1.975-.231l.001-.018zM257.139 385.996c-5.394-15.209-13.735-29.206-24.389-40.966a120.26 120.26 0 0 0-37.65-27.983c-14.108-6.691-29.415-10.531-44.742-11.283-15.332-.771-30.651 1.567-44.876 6.676a8.674 8.674 0 1 1-5.211-16.533l.076-.02c16.74-4.52 34.284-5.706 51.246-3.46a129.718 129.718 0 0 1 47.914 16.251c14.59 8.416 27.397 19.651 37.489 32.822 10.111 13.156 17.462 28.249 21.654 44.018l.003.01a.794.794 0 0 1-1.514.468z"/></svg>