<?xml version="1.0" encoding="utf-8"?>
<!-- Generator: Adobe Illustrator 15.1.0, SVG Export Plug-In . SVG Version: 6.00 Build 0)  -->
<!DOCTYPE svg PUBLIC "-//W3C//DTD SVG 1.1//EN" "http://www.w3.org/Graphics/SVG/1.1/DTD/svg11.dtd">
<svg version="1.1" id="Layer_1" xmlns="http://www.w3.org/2000/svg" xmlns:xlink="http://www.w3.org/1999/xlink" x="0px" y="0px"
	 width="256px" height="256px" viewBox="0 0 256 256" enable-background="new 0 0 256 256" xml:space="preserve">
<g>
	<g>
		<g>
			<g>
				
					<ellipse fill="none" stroke="#768293" stroke-width="1.5008" stroke-miterlimit="10" cx="29.063" cy="12.844" rx="7.182" ry="6.846"/>
				
					<ellipse fill="none" stroke="#768293" stroke-width="1.5008" stroke-miterlimit="10" cx="127.467" cy="12.844" rx="7.182" ry="6.846"/>
				
					<line fill="none" stroke="#768293" stroke-width="1.5008" stroke-miterlimit="10" x1="35.534" y1="13.357" x2="120.727" y2="13.357"/>
				
					<line fill="none" stroke="#768293" stroke-width="1.5008" stroke-miterlimit="10" x1="134.725" y1="13.357" x2="219.918" y2="13.357"/>
			</g>
		</g>
	</g>
	<g>
		<g>
			<g>
				
					<ellipse fill="none" stroke="#D77526" stroke-width="1.5008" stroke-miterlimit="10" cx="12.233" cy="28.781" rx="6.846" ry="7.182"/>
				
					<ellipse fill="none" stroke="#D77526" stroke-width="1.5008" stroke-miterlimit="10" cx="12.233" cy="127.185" rx="6.846" ry="7.182"/>
				
					<line fill="none" stroke="#D77526" stroke-width="1.5008" stroke-miterlimit="10" x1="11.72" y1="35.251" x2="11.72" y2="120.445"/>
				
					<line fill="none" stroke="#D77526" stroke-width="1.5008" stroke-miterlimit="10" x1="11.72" y1="134.442" x2="11.72" y2="219.636"/>
			</g>
		</g>
	</g>
	<g>
		<g>
			<g>
				
					<ellipse fill="none" stroke="#D77526" stroke-width="1.5008" stroke-miterlimit="10" cx="214.414" cy="229.797" rx="7.182" ry="6.846"/>
				
					<ellipse fill="none" stroke="#D77526" stroke-width="1.5008" stroke-miterlimit="10" cx="116.01" cy="229.797" rx="7.182" ry="6.846"/>
				
					<line fill="none" stroke="#D77526" stroke-width="1.5008" stroke-miterlimit="10" x1="207.943" y1="229.284" x2="122.75" y2="229.284"/>
				
					<line fill="none" stroke="#D77526" stroke-width="1.5008" stroke-miterlimit="10" x1="108.752" y1="229.284" x2="23.559" y2="229.284"/>
			</g>
		</g>
	</g>
	<g>
		<g>
			<g>
				
					<ellipse fill="none" stroke="#768293" stroke-width="1.5008" stroke-miterlimit="10" cx="198.342" cy="243.066" rx="7.182" ry="6.846"/>
				
					<ellipse fill="none" stroke="#768293" stroke-width="1.5008" stroke-miterlimit="10" cx="99.938" cy="243.066" rx="7.182" ry="6.846"/>
				
					<line fill="none" stroke="#768293" stroke-width="1.5008" stroke-miterlimit="10" x1="191.872" y1="242.554" x2="106.678" y2="242.554"/>
				
					<line fill="none" stroke="#768293" stroke-width="1.5008" stroke-miterlimit="10" x1="92.681" y1="242.554" x2="7.487" y2="242.554"/>
			</g>
		</g>
	</g>
	<g>
		<g>
			<g>
				
					<ellipse fill="none" stroke="#768293" stroke-width="1.5008" stroke-miterlimit="10" cx="231.242" cy="213.86" rx="6.846" ry="7.182"/>
				
					<ellipse fill="none" stroke="#768293" stroke-width="1.5008" stroke-miterlimit="10" cx="231.242" cy="115.456" rx="6.846" ry="7.182"/>
				
					<line fill="none" stroke="#768293" stroke-width="1.5008" stroke-miterlimit="10" x1="231.755" y1="207.39" x2="231.755" y2="122.196"/>
				
					<line fill="none" stroke="#768293" stroke-width="1.5008" stroke-miterlimit="10" x1="231.755" y1="108.198" x2="231.755" y2="23.005"/>
			</g>
		</g>
	</g>
	<g>
		<g>
			<g>
				
					<ellipse fill="none" stroke="#C1C8D3" stroke-width="1.5008" stroke-miterlimit="10" cx="244.513" cy="197.789" rx="6.846" ry="7.182"/>
				
					<ellipse fill="none" stroke="#C1C8D3" stroke-width="1.5008" stroke-miterlimit="10" cx="244.513" cy="99.385" rx="6.846" ry="7.182"/>
				
					<line fill="none" stroke="#C1C8D3" stroke-width="1.5008" stroke-miterlimit="10" x1="245.025" y1="191.318" x2="245.025" y2="106.125"/>
				
					<line fill="none" stroke="#C1C8D3" stroke-width="1.5008" stroke-miterlimit="10" x1="245.025" y1="92.127" x2="245.025" y2="6.934"/>
			</g>
		</g>
	</g>
	
		<line fill="none" stroke="#D77526" stroke-width="1.2175" stroke-linecap="round" stroke-linejoin="round" stroke-miterlimit="10" x1="21.094" y1="127.272" x2="122.971" y2="127.272"/>
	<circle fill="#D77526" cx="120.505" cy="127.272" r="19.479"/>
	<g>
		<g>
			<g>
				<path fill="none" stroke="#D77526" stroke-width="1.3409" stroke-miterlimit="10" d="M50.086,112.667
					c2.217,0.442,3.667,2.539,3.394,4.706c-0.277,2.166-2.212,3.832-4.464,3.706c-2.256-0.126-3.962-2.256-3.646-4.738
					C45.686,113.857,47.876,112.225,50.086,112.667z"/>
				<path fill="none" stroke="#D77526" stroke-width="1.3409" stroke-miterlimit="10" d="M81.868,65.962
					c1.184,1.926,0.632,4.417-1.144,5.689c-1.777,1.271-4.312,0.986-5.752-0.754c-1.438-1.737-1.039-4.438,0.996-5.895
					C78.002,63.547,80.688,64.042,81.868,65.962z"/>
				<path fill="none" stroke="#D77526" stroke-width="1.3409" stroke-miterlimit="10" d="M50.313,113.134
					c1.496-8.215,4.46-16.163,8.724-23.344c4.257-7.185,9.818-13.591,16.331-18.818"/>
				<path fill="none" stroke="#D77526" stroke-width="1.3409" stroke-miterlimit="10" d="M82.068,66.199
					c7.07-4.445,14.929-7.636,23.107-9.331c8.175-1.704,16.655-1.921,24.91-0.66"/>
			</g>
			<g>
				<polygon fill="#D77526" points="119.757,45.715 127.441,55.932 116.075,61.784 145.587,60.089 				"/>
				<polygon fill="#FFFFFF" points="123.141,48.948 142.541,59.391 128.899,56.266 				"/>
			</g>
		</g>
	</g>
	<g>
		<g>
			<g>
				<path fill="none" stroke="#768293" stroke-width="0.6545" stroke-miterlimit="10" d="M137.343,197.613
					c-0.263-1.072,0.393-2.154,1.454-2.455c1.062-0.293,2.185,0.277,2.521,1.331c0.335,1.045-0.302,2.195-1.438,2.51
					C138.745,199.32,137.604,198.682,137.343,197.613z"/>
				<path fill="none" stroke="#768293" stroke-width="0.6545" stroke-miterlimit="10" d="M109.25,198.856
					c0.177-1.089,1.203-1.825,2.297-1.688c1.095,0.138,1.902,1.116,1.801,2.211c-0.102,1.1-1.135,1.895-2.305,1.748
					C109.874,200.98,109.073,199.943,109.25,198.856z"/>
				<path fill="none" stroke="#768293" stroke-width="0.6545" stroke-miterlimit="10" d="M137.504,197.417
					c-7.902,2.009-16.155,2.608-24.268,1.802"/>
				<path fill="none" stroke="#768293" stroke-width="0.6545" stroke-miterlimit="10" d="M109.252,198.705
					c-8.056-1.259-15.885-3.937-23.033-7.855"/>
			</g>
			<g>
				<path fill="none" stroke="#768293" stroke-width="0.6545" stroke-miterlimit="10" d="M82.297,188.708
					c0.599-0.934,1.828-1.192,2.78-0.636c0.946,0.566,1.304,1.776,0.771,2.747c-0.527,0.962-1.797,1.289-2.809,0.684
					C82.021,190.907,81.705,189.629,82.297,188.708z"/>
				<path fill="none" stroke="#768293" stroke-width="0.6545" stroke-miterlimit="10" d="M62.048,169.197
					c0.915-0.624,2.155-0.386,2.809,0.503c0.647,0.894,0.504,2.145-0.365,2.828c-0.863,0.679-2.162,0.484-2.854-0.47
					C60.94,171.109,61.142,169.814,62.048,169.197z"/>
				<path fill="none" stroke="#768293" stroke-width="0.6545" stroke-miterlimit="10" d="M82.55,188.689
					c-6.903-4.339-13.025-9.909-18.017-16.354"/>
				<path fill="none" stroke="#768293" stroke-width="0.6545" stroke-miterlimit="10" d="M62.159,169.094
					c-4.624-6.715-8.094-14.225-10.167-22.11"/>
			</g>
			<g>
				<polygon fill="#768293" points="48.118,156.988 52.561,148.812 59.871,154.569 49.829,135.541 				"/>
				<polygon fill="#FFFFFF" points="49.236,153.771 50.288,137.769 52.341,147.746 				"/>
			</g>
		</g>
	</g>
	<g>
		<g>
			<g>
				<path fill="none" stroke="#404751" stroke-width="0.3991" stroke-miterlimit="10" d="M150.438,62.804
					c-0.272,0.614-0.967,0.909-1.552,0.657c-0.59-0.241-0.867-0.942-0.62-1.567s0.946-0.928,1.561-0.677
					C150.436,61.479,150.709,62.189,150.438,62.804z"/>
				<path fill="none" stroke="#404751" stroke-width="0.3991" stroke-miterlimit="10" d="M164.341,70.909
					c-0.405,0.539-1.143,0.659-1.66,0.288c-0.519-0.369-0.627-1.119-0.247-1.668c0.385-0.555,1.132-0.689,1.672-0.304
					C164.645,69.612,164.744,70.375,164.341,70.909z"/>
				<path fill="none" stroke="#404751" stroke-width="0.3991" stroke-miterlimit="10" d="M150.294,62.842
					c4.261,1.859,8.334,4.144,12.147,6.803"/>
				<path fill="none" stroke="#404751" stroke-width="0.3991" stroke-miterlimit="10" d="M164.296,70.99
					c3.723,2.784,7.166,5.942,10.262,9.41"/>
			</g>
			<g>
				<path fill="none" stroke="#404751" stroke-width="0.3991" stroke-miterlimit="10" d="M176.287,82.269
					c-0.52,0.429-1.262,0.372-1.682-0.106c-0.414-0.484-0.35-1.234,0.149-1.68c0.503-0.45,1.265-0.41,1.696,0.095
					C176.889,81.076,176.804,81.843,176.287,82.269z"/>
				<path fill="none" stroke="#404751" stroke-width="0.3991" stroke-miterlimit="10" d="M185.108,95.732
					c-0.6,0.3-1.32,0.083-1.615-0.481c-0.298-0.563-0.066-1.28,0.521-1.603c0.59-0.325,1.323-0.115,1.634,0.471
					C185.955,94.707,185.711,95.43,185.108,95.732z"/>
				<path fill="none" stroke="#404751" stroke-width="0.3991" stroke-miterlimit="10" d="M176.143,82.238
					c2.976,3.571,5.601,7.436,7.826,11.517"/>
				<path fill="none" stroke="#404751" stroke-width="0.3991" stroke-miterlimit="10" d="M185.032,95.784
					c2.094,4.151,3.775,8.509,5.008,12.991"/>
			</g>
			<g>
				<path fill="none" stroke="#404751" stroke-width="0.3991" stroke-miterlimit="10" d="M190.76,111.219
					c-0.653,0.152-1.304-0.226-1.46-0.844c-0.156-0.617,0.231-1.26,0.879-1.438c0.648-0.178,1.316,0.196,1.479,0.839
					C191.82,110.419,191.415,111.066,190.76,111.219z"/>
				<path fill="none" stroke="#404751" stroke-width="0.3991" stroke-miterlimit="10" d="M192.643,127.202
					c-0.673,0-1.216-0.517-1.23-1.153c-0.01-0.637,0.512-1.174,1.185-1.201c0.669-0.026,1.238,0.49,1.249,1.153
					C193.859,126.665,193.313,127.203,192.643,127.202z"/>
				<path fill="none" stroke="#404751" stroke-width="0.3991" stroke-miterlimit="10" d="M190.645,111.126
					c1.077,4.522,1.701,9.152,1.863,13.798"/>
				<path fill="none" stroke="#404751" stroke-width="0.3991" stroke-miterlimit="10" d="M192.552,127.215
					c0.012,4.648-0.438,9.298-1.336,13.859"/>
			</g>
			<g>
				<path fill="none" stroke="#404751" stroke-width="0.3991" stroke-miterlimit="10" d="M190.769,143.582
					c-0.652-0.155-1.064-0.784-0.929-1.406c0.134-0.622,0.771-1.023,1.428-0.895c0.661,0.13,1.089,0.762,0.95,1.41
					C192.076,143.34,191.424,143.737,190.769,143.582z"/>
				<path fill="none" stroke="#404751" stroke-width="0.3991" stroke-miterlimit="10" d="M185.344,158.734
					c-0.601-0.298-0.86-1.004-0.588-1.579c0.271-0.576,0.981-0.824,1.593-0.55c0.614,0.275,0.89,0.988,0.607,1.589
					C186.672,158.793,185.947,159.034,185.344,158.734z"/>
				<path fill="none" stroke="#404751" stroke-width="0.3991" stroke-miterlimit="10" d="M190.706,143.448
					c-1.053,4.527-2.552,8.951-4.471,13.186"/>
				<path fill="none" stroke="#404751" stroke-width="0.3991" stroke-miterlimit="10" d="M185.256,158.705
					c-2.054,4.17-4.521,8.137-7.358,11.819"/>
			</g>
			<g>
				<path fill="none" stroke="#404751" stroke-width="0.3991" stroke-miterlimit="10" d="M176.379,172.57
					c-0.517-0.432-0.603-1.176-0.205-1.674c0.398-0.496,1.146-0.573,1.679-0.163c0.532,0.41,0.635,1.168,0.22,1.686
					C177.658,172.938,176.895,173,176.379,172.57z"/>
				<path fill="none" stroke="#404751" stroke-width="0.3991" stroke-miterlimit="10" d="M164.751,183.697
					c-0.405-0.537-0.32-1.283,0.181-1.677c0.502-0.393,1.245-0.299,1.671,0.222c0.425,0.52,0.354,1.283-0.169,1.692
					C165.912,184.344,165.155,184.232,164.751,183.697z"/>
				<path fill="none" stroke="#404751" stroke-width="0.3991" stroke-miterlimit="10" d="M176.383,172.422
					c-2.962,3.583-6.283,6.868-9.895,9.795"/>
				<path fill="none" stroke="#404751" stroke-width="0.3991" stroke-miterlimit="10" d="M164.687,183.632
					c-3.705,2.808-7.685,5.253-11.862,7.293"/>
			</g>
			<g>
				<polygon fill="#404751" points="162.022,192.474 154.28,190.124 157.901,182.889 143.458,194.778 				"/>
				<polygon fill="#FFFFFF" points="159.086,192.086 145.274,193.997 153.411,190.498 				"/>
			</g>
		</g>
	</g>
</g>
</svg>
