<svg xmlns="http://www.w3.org/2000/svg" width="512" height="512" xml:space="preserve"><g fill="none" stroke="#768293" stroke-width=".738" stroke-miterlimit="10"><ellipse transform="rotate(45.001 80.933 118.685)" cx="80.932" cy="118.685" rx="3.553" ry="3.367"/><ellipse transform="rotate(45.001 115.355 153.105)" cx="115.353" cy="153.106" rx="3.553" ry="3.367"/><path d="m83.016 121.127 29.8 29.8M117.712 155.823l29.801 29.8"/><g><ellipse transform="rotate(45.001 150.482 188.231)" cx="150.479" cy="188.232" rx="3.553" ry="3.367"/><ellipse transform="rotate(45.001 184.903 222.652)" cx="184.9" cy="222.653" rx="3.553" ry="3.367"/><path d="m152.563 190.674 29.801 29.8M187.26 225.37l29.8 29.8"/></g></g><g fill="none" stroke="#768293" stroke-width=".949" stroke-miterlimit="10"><ellipse transform="rotate(45.001 65.417 70.558)" cx="65.416" cy="70.558" rx="4.708" ry="4.33"/><ellipse transform="rotate(45.001 111.03 116.17)" cx="111.028" cy="116.171" rx="4.708" ry="4.33"/><path d="m68.186 73.787 39.489 39.489M114.163 119.765l39.489 39.488"/><g><ellipse transform="rotate(45.001 157.578 162.717)" cx="157.576" cy="162.718" rx="4.708" ry="4.33"/><ellipse transform="rotate(45.001 203.191 208.329)" cx="203.188" cy="208.33" rx="4.708" ry="4.33"/><path d="m160.345 165.947 39.489 39.489M206.323 211.924l39.489 39.489"/></g><g><ellipse transform="rotate(45.001 249.733 254.86)" cx="249.735" cy="254.877" rx="4.708" ry="4.33"/><ellipse transform="rotate(44.996 295.33 300.47)" cx="295.348" cy="300.49" rx="4.708" ry="4.329"/><path d="m252.505 258.106 39.489 39.49M298.482 304.084l39.49 39.488"/></g></g><g fill="none" stroke="#768293" stroke-width="1.06" stroke-miterlimit="10"><ellipse transform="rotate(45.001 83.636 73.163)" cx="83.637" cy="73.168" rx="4.719" ry="4.836"/><ellipse transform="rotate(45.001 129.357 118.889)" cx="129.351" cy="118.882" rx="4.719" ry="4.836"/><path d="m86.386 76.431 39.577 39.577M132.466 122.51l39.577 39.577"/><g><ellipse transform="rotate(45.001 176.004 165.531)" cx="176.001" cy="165.533" rx="4.718" ry="4.836"/><ellipse transform="rotate(45.001 221.725 211.259)" cx="221.715" cy="211.247" rx="4.719" ry="4.836"/><path d="m178.751 168.795 39.577 39.578M224.831 214.875l39.576 39.577"/></g></g><g fill="none" stroke="#C1C8D3" stroke-width="1.06" stroke-miterlimit="10"><ellipse transform="rotate(45.001 101.847 75.763)" cx="101.849" cy="75.77" rx="4.719" ry="4.836"/><ellipse transform="rotate(45.001 147.57 121.49)" cx="147.563" cy="121.484" rx="4.719" ry="4.836"/><path d="m104.598 79.032 39.577 39.577M150.678 125.112l39.577 39.577"/><g><ellipse transform="rotate(45.001 194.217 168.133)" cx="194.214" cy="168.134" rx="4.718" ry="4.836"/><ellipse transform="rotate(45.001 239.939 213.86)" cx="239.928" cy="213.848" rx="4.719" ry="4.836"/><path d="m196.963 171.397 39.578 39.577M243.043 217.477l39.577 39.577"/></g></g><g fill="none" stroke="#E2E6ED" stroke-width="1.06" stroke-miterlimit="10"><ellipse cx="102.335" cy="76.033" rx="4.719" ry="4.836"/><ellipse cx="166.984" cy="76.033" rx="4.719" ry="4.836"/><path d="M106.586 76.396h55.97M171.752 76.396h55.971"/><g><ellipse cx="232.958" cy="76.033" rx="4.719" ry="4.836"/><ellipse cx="297.607" cy="76.033" rx="4.719" ry="4.836"/><path d="M237.209 76.396h55.971M302.375 76.396h55.971"/></g></g><g fill="none" stroke="#D77526" stroke-width="1.233" stroke-miterlimit="10"><path d="M298.823 433.102c-.373-3.088-3.237-5.278-6.415-5.1-3.177.191-5.771 2.698-5.781 5.808-.013 3.103 2.871 5.633 6.433 5.42 3.563-.203 6.135-3.05 5.763-6.128zM371.62 395.599c-2.33-2.054-5.931-1.787-8.181.465-2.248 2.251-2.507 5.855-.451 8.181 2.058 2.329 5.887 2.29 8.41-.234 2.522-2.528 2.552-6.36.222-8.412z"/><path d="M298.177 432.747a113.979 113.979 0 0 0 34.718-9.369 114.887 114.887 0 0 0 30.09-19.698M371.349 395.27a114.801 114.801 0 0 0 19.54-30.192 114.074 114.074 0 0 0 9.186-34.768"/><g><path d="M401.071 317.479c-3.11.061-5.579 2.693-5.716 5.874-.128 3.181 2.112 6.01 5.202 6.332 3.087.322 5.89-2.297 6.035-5.861.151-3.565-2.421-6.407-5.521-6.345zM371.143 241.259c-2.278 2.112-2.374 5.72-.363 8.186 2.017 2.461 5.573 3.084 8.095 1.272 2.523-1.812 2.874-5.628.613-8.39-2.259-2.765-6.069-3.18-8.345-1.068z"/><path d="M400.652 318.087c-.057-12.038-2.002-24.067-5.793-35.493a114.385 114.385 0 0 0-16.547-31.929M370.787 241.495a115.163 115.163 0 0 0-28.065-22.49 113.955 113.955 0 0 0-33.65-12.681"/></g></g><path fill="#FFF" d="M450.067 117.399c-18.413-3.651-37.368-3.635-55.46.023a139.902 139.902 0 0 0-50.367 21.002c-15.079 10.125-28.021 23.146-37.886 38.023-9.89 14.87-16.661 31.577-20.012 48.837-1.062 5.47-6.358 9.044-11.828 7.982-5.471-1.062-9.045-6.358-7.982-11.828.051-.263.112-.522.182-.776l.025-.088c5.437-19.424 14.682-37.669 27.015-53.292a150.912 150.912 0 0 1 44.739-38.24c17.091-9.582 35.939-15.706 55.108-17.964 19.167-2.286 38.627-.66 56.886 4.525l.012.003a.923.923 0 0 1-.432 1.793z"/><path fill="#FFF" d="M383.188 75.336c-16.82 1.807-33.352 6.309-47.736 14.46-7.185 4.054-13.785 9.002-19.576 14.704-5.792 5.703-10.77 12.151-14.87 19.1-8.23 13.915-12.951 29.675-15.167 45.727-2.214 16.089-2.006 32.525-.226 48.784.607 5.54-3.393 10.523-8.933 11.13s-10.523-3.393-11.13-8.933a10.65 10.65 0 0 1-.059-.887v-.045c-.34-17.68 1.021-35.516 5.03-52.908 4.001-17.34 10.786-34.329 21.288-48.909 5.229-7.278 11.37-13.895 18.252-19.547a100.68 100.68 0 0 1 22.49-13.946c16.04-7.263 33.434-10.263 50.509-10.568h.012a.922.922 0 0 1 .116 1.838z"/><g fill="none" stroke="#D77526" stroke-width="2.412" stroke-miterlimit="10"><path d="M104.727 394.33c1.642-1.189 3.615-1.6 5.456-1.368 1.846.233 3.562 1.106 4.805 2.592 1.234 1.492 1.775 3.341 1.669 5.197-.111 1.853-.873 3.716-2.343 5.113a6.9 6.9 0 0 1-5.338 1.896c-1.939-.148-3.891-1.105-5.298-2.807-1.417-1.694-1.997-3.79-1.791-5.722a6.895 6.895 0 0 1 2.84-4.901zM86.833 296.539c1.958.541 3.503 1.823 4.478 3.406.964 1.586 1.367 3.475.974 5.371-.397 1.896-1.493 3.475-3.015 4.55-1.512 1.071-3.444 1.64-5.458 1.364a6.904 6.904 0 0 1-4.813-2.984c-1.088-1.605-1.569-3.729-1.118-5.891.448-2.162 1.708-3.928 3.352-4.972a6.901 6.901 0 0 1 5.6-.844z"/><path d="M105.608 394.604c-8.752-11.893-15.189-25.485-18.813-39.802-3.638-14.311-4.463-29.333-2.371-43.951M87.386 296.609c3.907-14.24 10.566-27.727 19.574-39.43 8.992-11.714 20.301-21.633 33.066-29.057"/></g><path fill="#D77526" d="m116.233 225.341 20.142 5.083-8.406 18.996 35.595-32.248z"/><path fill="#FFF" d="M123.812 225.978 159 219.396l-20.441 9.963z"/><g><g fill="none" stroke="#768293" stroke-width="1.063" stroke-miterlimit="10"><path d="M293.43 399.507c-1.424-1.087-1.698-3.124-.661-4.585 1.038-1.461 3.049-1.876 4.545-.892 1.495.984 1.853 3.08.742 4.643-1.109 1.563-3.203 1.92-4.626.834zM259.172 429.741c-.886-1.555-.343-3.539 1.184-4.479s3.542-.533 4.532.958c.991 1.49.499 3.558-1.133 4.562-1.631 1.005-3.697.516-4.583-1.041z"/><path d="M293.435 399.095a114.277 114.277 0 0 1-28.853 27.036M259.02 429.548a115.048 115.048 0 0 1-37.146 13.562"/></g><g fill="none" stroke="#768293" stroke-width="1.063" stroke-miterlimit="10"><path d="M214.729 444.4c-.194-1.782 1.095-3.379 2.868-3.637 1.773-.255 3.461.918 3.777 2.683.316 1.76-.958 3.462-2.854 3.734-1.896.276-3.598-1.002-3.791-2.78zM169.217 440.381c.519-1.716 2.331-2.684 4.064-2.225 1.732.462 2.825 2.202 2.424 3.947-.4 1.745-2.238 2.812-4.089 2.318-1.851-.49-2.917-2.328-2.399-4.04z"/><path d="M215.031 444.12a113.782 113.782 0 0 1-39.471-2.301M169.252 440.138c-12.698-3.774-24.748-9.732-35.415-17.592"/></g><path fill="#768293" d="m139.148 439.153-2.722-14.872 15.118-.177-32.111-13.821z"/><path fill="#FFF" d="m137.279 433.943-14.994-21.31 12.776 10.523z"/></g></svg>