<svg xmlns="http://www.w3.org/2000/svg" width="512" height="512" xml:space="preserve"><path fill="#FFF" d="M437.989 125.314c19.083 24.309 33.544 52.625 41.933 82.913 8.431 30.274 10.839 62.452 6.952 94.116-3.864 31.662-14.025 62.807-29.995 91.012-15.926 28.225-37.708 53.418-63.617 73.598l-.09.07c-7.158 5.574-17.481 4.291-23.057-2.867s-4.292-17.48 2.866-23.057c.344-.268.726-.537 1.083-.775 23.937-15.703 44.929-36.217 61.228-60.295 16.325-24.049 27.953-51.584 33.9-80.553 5.966-28.963 6.246-59.342.552-88.85-5.655-29.517-17.332-58.084-34.2-83.573a1.5 1.5 0 0 1 2.429-1.76l.016.021zM46.289 281.641c-7.352-23.592-10.11-48.866-7.768-73.887 2.305-25.022 9.653-49.757 21.559-72.316a196.464 196.464 0 0 1 48.291-59.493c19.926-16.567 43.368-29.203 68.468-36.919l.087-.027c6.935-2.132 14.285 1.762 16.417 8.697s-1.762 14.285-8.696 16.417c-.333.103-.696.196-1.03.271-22.354 4.931-43.875 14.296-62.9 27.658-19.037 13.332-35.556 30.605-48.236 50.565a182.142 182.142 0 0 0-25.67 66.247c-4.165 23.668-3.56 48.338 1.801 72.182a1.2 1.2 0 0 1-2.315.625l-.008-.02z"/><g><g fill="none" stroke="#D77526" stroke-width="3.421" stroke-miterlimit="10"><path d="M347.424 392.552c-1.654-2.358-2.189-5.16-1.824-7.767.374-2.609 1.642-5.032 3.781-6.756 2.139-1.723 4.774-2.448 7.403-2.258 2.624.196 5.249 1.314 7.202 3.433a9.778 9.778 0 0 1 2.572 7.609c-.252 2.747-1.653 5.49-4.092 7.455s-5.416 2.752-8.153 2.414a9.784 9.784 0 0 1-6.889-4.13zM208.37 415.838c.808-2.766 2.662-4.935 4.925-6.277 2.272-1.342 4.955-1.857 7.638-1.268 2.681.598 4.895 2.197 6.388 4.372 1.485 2.172 2.251 4.919 1.818 7.769a9.79 9.79 0 0 1-4.335 6.762c-2.302 1.517-5.321 2.141-8.378 1.46-3.059-.672-5.531-2.514-6.979-4.857a9.804 9.804 0 0 1-1.077-7.961z"/><path d="M347.829 391.306a162.94 162.94 0 0 1-56.841 25.827c-20.37 4.861-41.691 5.698-62.375 2.425M208.481 415.055c-20.106-5.855-39.091-15.579-55.492-28.605-16.418-13.001-30.242-29.251-40.496-47.511"/></g><path fill="#D77526" d="m108.04 372.619 7.638-28.452 26.757 12.325-44.968-51.164z"/><path fill="#FFF" d="m109.105 361.886-8.582-50.039 13.691 29.199z"/><g><g fill="none" stroke="#768293" stroke-width="1.508" stroke-miterlimit="10"><path d="M358.797 125.076c-1.571 1.996-4.466 2.341-6.517.84-2.048-1.503-2.595-4.364-1.166-6.465 1.427-2.098 4.407-2.561 6.599-.953 2.192 1.606 2.653 4.584 1.084 6.578zM400.938 174.301c-2.224 1.223-5.026.411-6.326-1.774s-.681-5.034 1.455-6.407 5.056-.631 6.445 1.704c1.388 2.334.651 5.253-1.574 6.477z"/><path d="M358.213 125.061c14.861 11.494 27.679 25.613 37.72 41.492M400.66 174.513c9.136 16.415 15.414 34.419 18.435 52.962"/></g><g fill="none" stroke="#768293" stroke-width="1.508" stroke-miterlimit="10"><path d="M420.773 237.634c-2.531.236-4.768-1.625-5.096-4.145-.323-2.521 1.375-4.888 3.884-5.299 2.503-.41 4.89 1.432 5.235 4.127.351 2.695-1.498 5.081-4.023 5.317zM414.101 302.086c-2.422-.773-3.756-3.364-3.067-5.812.691-2.447 3.183-3.958 5.649-3.354 2.465.604 3.938 3.233 3.199 5.849-.736 2.616-3.366 4.087-5.781 3.317z"/><path d="M420.383 237.2c1.914 18.69.505 37.709-4.106 55.921M413.757 302.03c-5.621 17.926-14.323 34.89-25.702 49.842"/></g><path fill="#768293" d="m411.717 344.695-21.148 3.543.074-21.442-20.286 45.239z"/><path fill="#FFF" d="m404.288 347.234-30.538 20.807 15.195-17.891z"/></g><g><g fill="none" stroke="#404751" stroke-width=".92" stroke-miterlimit="10"><path d="M95.506 292.676c1.501-.379 3.011.467 3.396 1.883.389 1.415-.48 2.912-1.965 3.35s-3.037-.397-3.442-1.87c-.402-1.477.51-2.984 2.011-3.363zM90.479 255.932c1.547-.028 2.825 1.138 2.882 2.605.054 1.466-1.13 2.727-2.676 2.816-1.545.089-2.869-1.075-2.926-2.604-.059-1.526 1.172-2.789 2.72-2.817z"/><path d="M95.777 292.883a162.259 162.259 0 0 1-4.891-31.708M90.689 255.899a161.428 161.428 0 0 1 2.516-31.983"/></g><g fill="none" stroke="#404751" stroke-width=".92" stroke-miterlimit="10"><path d="M94.141 218.121c1.515.334 2.481 1.766 2.195 3.205-.288 1.439-1.736 2.388-3.258 2.115-1.525-.274-2.539-1.716-2.239-3.214.298-1.5 1.793-2.439 3.302-2.106zM106.063 183c1.396.662 2.025 2.278 1.418 3.615-.598 1.34-2.228 1.938-3.648 1.331-1.427-.61-2.086-2.239-1.463-3.635.631-1.392 2.291-1.976 3.693-1.311z"/><path d="M94.291 218.427a164.67 164.67 0 0 1 9.802-30.551M106.266 183.064a161.825 161.825 0 0 1 16.472-27.531"/></g><g fill="none" stroke="#404751" stroke-width=".92" stroke-miterlimit="10"><path d="M126.152 150.758c1.204.97 1.44 2.688.541 3.847-.898 1.16-2.615 1.368-3.858.446-1.244-.923-1.513-2.667-.577-3.875.937-1.208 2.686-1.39 3.894-.418zM152.491 124.65c.956 1.223.789 2.941-.347 3.871-1.142.922-2.856.74-3.86-.445-.998-1.177-.869-2.942.321-3.903 1.183-.968 2.935-.739 3.886.477z"/><path d="M126.148 151.099a161.693 161.693 0 0 1 22.399-22.969M152.643 124.798a163.25 163.25 0 0 1 27.052-17.25"/></g><g fill="none" stroke="#404751" stroke-width=".92" stroke-miterlimit="10"><path d="M184.882 104.799c.645 1.404.089 3.045-1.234 3.682-1.32.642-2.952.056-3.651-1.322-.703-1.384-.162-3.058 1.212-3.726 1.377-.663 3.025-.044 3.673 1.366zM220.086 93.135c.312 1.513-.6 2.987-2.032 3.309-1.431.328-2.889-.611-3.259-2.11-.373-1.506.531-3.016 2.021-3.357 1.492-.336 2.957.638 3.27 2.158z"/><path d="M184.727 105.103a163.474 163.474 0 0 1 30.281-10.605M220.157 93.335a161.923 161.923 0 0 1 31.9-3.421"/></g><g fill="none" stroke="#404751" stroke-width=".92" stroke-miterlimit="10"><path d="M257.925 89.766c-.049 1.55-1.278 2.762-2.746 2.748-1.467-.018-2.667-1.265-2.679-2.815-.012-1.546 1.218-2.809 2.747-2.791 1.529.015 2.728 1.314 2.678 2.858zM294.629 95.078c-.401 1.499-1.875 2.404-3.3 2.054-1.425-.354-2.31-1.837-1.969-3.349.34-1.508 1.826-2.464 3.31-2.095 1.484.365 2.357 1.897 1.959 3.39z"/><path d="M257.651 89.97a161.622 161.622 0 0 1 31.825 4.056M294.603 95.289a165.514 165.514 0 0 1 30.074 11.182"/></g><path fill="#404751" d="m314.43 87.575 6.728 17.387-18.273 3.701 42.085 9.335z"/><path fill="#FFF" d="m317.896 93.456 23.078 22.354-17.903-9.8z"/></g><g><g fill="none" stroke="#D77526" stroke-width="2.412" stroke-miterlimit="10"><path d="M139.505 263.989c2.019-.183 3.925.474 5.388 1.612 1.468 1.145 2.496 2.772 2.805 4.685.298 1.913-.181 3.779-1.221 5.319-1.042 1.536-2.649 2.748-4.627 3.198a6.902 6.902 0 0 1-5.558-1.1c-1.591-1.118-2.779-2.939-3.12-5.12-.351-2.181.221-4.278 1.386-5.833a6.907 6.907 0 0 1 4.947-2.761zM174.109 170.792c1.407 1.465 2.079 3.357 2.108 5.215.018 1.856-.601 3.686-1.909 5.115-1.31 1.427-3.059 2.224-4.917 2.37-1.847.148-3.798-.351-5.389-1.617a6.91 6.91 0 0 1-2.611-5.025c-.115-1.936.558-4.008 2.05-5.635 1.49-1.629 3.476-2.503 5.422-2.56a6.906 6.906 0 0 1 5.246 2.137z"/><path d="M140.123 264.675c-1.443-14.695-.029-29.668 4.174-43.825 4.188-14.16 11.156-27.493 20.427-38.988M174.549 171.136c10.636-10.243 23.254-18.431 36.978-23.885 13.716-5.473 28.506-8.217 43.272-8.074"/></g><path fill="#D77526" d="m235.77 124.625 14.714 14.664-16.934 12.031 47.077-9.524z"/><path fill="#FFF" d="m241.958 129.046 33.609 12.329-22.661-1.885z"/><g><g fill="none" stroke="#768293" stroke-width="1.063" stroke-miterlimit="10"><path d="M299.052 364.892c-.669-1.662.137-3.554 1.774-4.279 1.639-.725 3.58-.055 4.362 1.557.782 1.61.018 3.595-1.734 4.37-1.753.775-3.735.012-4.402-1.648zM254.152 373.368c.034-1.789 1.514-3.218 3.307-3.245 1.793-.027 3.317 1.352 3.406 3.141.09 1.787-1.39 3.312-3.306 3.342-1.915.029-3.44-1.447-3.407-3.238z"/><path d="M299.266 364.539a114.241 114.241 0 0 1-38.617 8.49M254.12 373.124a115.028 115.028 0 0 1-38.858-7.33"/></g><g fill="none" stroke="#768293" stroke-width="1.063" stroke-miterlimit="10"><path d="M208.461 363.252c.745-1.631 2.668-2.345 4.324-1.66 1.655.688 2.506 2.558 1.875 4.236-.628 1.674-2.593 2.486-4.362 1.751-1.771-.732-2.58-2.701-1.837-4.327zM171.396 336.534c1.324-1.21 3.376-1.115 4.631.165 1.253 1.282 1.302 3.337.066 4.632-1.236 1.296-3.361 1.272-4.7-.098-1.34-1.368-1.316-3.493.003-4.699z"/><path d="M208.864 363.165a113.833 113.833 0 0 1-32.75-22.152M171.552 336.343c-8.985-9.734-16.297-21.015-21.448-33.222"/></g><path fill="#768293" d="m146.181 320.109 5.261-14.173 13.085 7.576-20.536-28.293z"/><path fill="#FFF" d="m147.237 314.676-1.995-25.981 5.602 15.576z"/></g><g><g fill="none" stroke="#404751" stroke-width=".648" stroke-miterlimit="10"><path d="M289.052 145.042c-.296 1.051-1.343 1.677-2.345 1.415-1.001-.259-1.611-1.316-1.357-2.378s1.31-1.718 2.353-1.448c1.042.272 1.645 1.36 1.349 2.411zM313.283 154.873c-.525.956-1.688 1.327-2.604.847-.916-.482-1.271-1.649-.782-2.626.488-.976 1.666-1.376 2.619-.875.955.501 1.295 1.697.767 2.654z"/><path d="M288.83 145.134a114.378 114.378 0 0 1 21.105 8.146M313.23 155.013a113.796 113.796 0 0 1 18.672 12.772"/></g><g fill="none" stroke="#404751" stroke-width=".648" stroke-miterlimit="10"><path d="M335.117 170.392c-.736.809-1.951.897-2.731.216-.778-.682-.851-1.9-.148-2.735.703-.836 1.941-.95 2.752-.24.812.709.861 1.953.127 2.759zM352.402 190.017c-.895.621-2.104.438-2.708-.402-.609-.836-.402-2.043.467-2.698.875-.658 2.103-.489 2.736.382.63.874.405 2.095-.495 2.718z"/><path d="M334.877 170.376a116.04 116.04 0 0 1 15.236 16.724M352.292 190.119a114.127 114.127 0 0 1 11.048 19.741"/></g><g fill="none" stroke="#404751" stroke-width=".648" stroke-miterlimit="10"><path d="M365.061 213.625c-1.016.396-2.149-.063-2.542-1.021-.395-.957.082-2.079 1.082-2.515 1.001-.437 2.162.011 2.572 1.008.409.997-.094 2.131-1.112 2.528zM371.772 238.898c-1.083.155-2.075-.55-2.244-1.571-.163-1.022.551-2.006 1.628-2.204 1.07-.197 2.104.502 2.273 1.567.176 1.064-.578 2.055-1.657 2.208z"/><path d="M364.854 213.502a114.075 114.075 0 0 1 6.177 21.763M371.629 238.94a115.123 115.123 0 0 1 1.046 22.599"/></g><g fill="none" stroke="#404751" stroke-width=".648" stroke-miterlimit="10"><path d="M372.533 265.676c-1.085-.099-1.894-1.015-1.817-2.047.071-1.032 1.003-1.825 2.091-1.769 1.093.057 1.927.975 1.853 2.05-.08 1.075-1.037 1.865-2.127 1.766zM367.301 291.298c-1.035-.341-1.616-1.416-1.31-2.404.302-.99 1.388-1.552 2.435-1.252 1.052.302 1.657 1.384 1.343 2.415-.319 1.029-1.43 1.584-2.468 1.241z"/><path d="M372.402 265.475a115.228 115.228 0 0 1-4.151 22.239M367.153 291.271a114.286 114.286 0 0 1-9.112 20.706"/></g><g fill="none" stroke="#404751" stroke-width=".648" stroke-miterlimit="10"><path d="M356.069 315.617c-.93-.575-1.239-1.752-.715-2.645.526-.891 1.71-1.186 2.662-.648.949.535 1.29 1.731.741 2.659-.545.93-1.76 1.206-2.688.634zM339.931 336.193c-.775-.771-.812-1.991-.097-2.739.717-.746 1.935-.768 2.739-.027.803.737.864 1.981.118 2.76-.744.779-1.988.774-2.76.006z"/><path d="M356.042 315.378a113.976 113.976 0 0 1-13.658 18.034M339.811 336.103a116.692 116.692 0 0 1-17.399 14.462"/></g><path fill="#404751" d="m337.563 350.936-12.994-1.994 4.156-12.472-20.49 22.453z"/><path fill="#FFF" d="m332.751 350.989-21.774 6.259 12.28-7.504z"/></g></g></g></svg>