<svg viewBox="0 0 512 512" xmlns="http://www.w3.org/2000/svg" xml:space="preserve" style="fill-rule:evenodd;clip-rule:evenodd;stroke-miterlimit:10"><path style="fill:none" d="M0 0h512v512H0z"/><path d="M0-11.984c1.643-1.189 3.615-1.6 5.456-1.368 1.847.233 3.562 1.106 4.805 2.592 1.234 1.492 1.775 3.34 1.669 5.197-.111 1.852-.872 3.716-2.342 5.113a6.9 6.9 0 0 1-5.339 1.896C2.31 1.297.358.34-1.05-1.361c-1.416-1.694-1.997-3.79-1.79-5.722A6.902 6.902 0 0 1 0-11.984Z" style="fill:none;fill-rule:nonzero;stroke:#d77526;stroke-width:2.41px" transform="translate(106.602 410.897)"/><path d="M0-14.428c1.958.541 3.503 1.823 4.478 3.406.963 1.586 1.367 3.475.973 5.371-.396 1.897-1.492 3.475-3.014 4.55C.925-.03-1.008.539-3.022.263a6.904 6.904 0 0 1-4.813-2.984C-8.923-4.326-9.404-6.45-8.953-8.612c.447-2.162 1.708-3.927 3.352-4.971A6.902 6.902 0 0 1 0-14.428Z" style="fill:none;fill-rule:nonzero;stroke:#d77526;stroke-width:2.41px" transform="translate(88.708 315.55)"/><path d="M0 83.753C-8.752 71.86-15.189 58.268-18.813 43.951-22.451 29.641-23.276 14.618-21.184 0" style="fill:none;fill-rule:nonzero;stroke:#d77526;stroke-width:2.41px" transform="translate(107.483 315.434)"/><path d="M0 68.486c3.906-14.24 10.566-27.727 19.574-39.43C28.566 17.342 39.875 7.423 52.641 0" style="fill:none;fill-rule:nonzero;stroke:#d77526;stroke-width:2.41px" transform="translate(89.262 232.706)"/><path d="M-1.227-6.032h20.773l-3.503-20.476L42.666 13.47-1.227-6.032Z" style="fill:#d77526;fill-rule:nonzero" transform="scale(1 -1) rotate(-14.163 -842.664 -598.271)"/><path d="m0 3.201 35.188-6.582-20.441 9.963L0 3.201Z" style="fill:#fff;fill-rule:nonzero" transform="translate(125.688 227.361)"/><path d="M1.927-.673C.137-.61-1.264.893-1.264 2.685-1.263 4.477.137 5.98 1.927 6.042 3.716 6.103 5.22 4.6 5.219 2.684c0-1.916-1.502-3.419-3.292-3.357Z" style="fill:none;fill-rule:nonzero;stroke:#768293;stroke-width:1.06px" transform="scale(1 -1) rotate(-35.349 -484.39 -662.721)"/><path d="M2.82-1.676C1.031-1.615-.374-.112-.373 1.681-.372 3.473 1.03 4.977 2.82 5.037c1.789.062 3.291-1.441 3.29-3.356 0-1.917-1.5-3.419-3.29-3.357Z" style="fill:none;fill-rule:nonzero;stroke:#768293;stroke-width:1.06px" transform="scale(1 -1) rotate(-58.367 -255.392 -449.176)"/><path d="M-34.197-13.518c13.046 2.304 26.493 2.292 39.541 0" style="fill:none;fill-rule:nonzero;stroke:#768293;stroke-width:1.06px" transform="scale(-1 1) rotate(43.138 -692.446 -135.19)"/><path d="M-38.345-6.781a115.038 115.038 0 0 0 39.544 0" style="fill:none;fill-rule:nonzero;stroke:#768293;stroke-width:1.06px" transform="scale(-1 1) rotate(20.057 -1396.252 -415.562)"/><path d="M3.317-2.992C1.526-2.929.128-1.428.125.364c-.001 1.792 1.4 3.296 3.192 3.359 1.786.062 3.291-1.442 3.291-3.356.004-1.917-1.504-3.42-3.291-3.359Z" style="fill:none;fill-rule:nonzero;stroke:#768293;stroke-width:1.06px" transform="scale(1 -1) rotate(-81.831 -147.331 -349.032)"/><path d="M3.11-4.242C1.318-4.179-.083-2.677-.084-.885-.082.909 1.32 2.412 3.11 2.472c1.789.061 3.291-1.441 3.29-3.358 0-1.915-1.504-3.417-3.29-3.356Z" style="fill:none;fill-rule:nonzero;stroke:#768293;stroke-width:1.06px" transform="scale(-1 1) rotate(75.13 -376.014 107.115)"/><path d="M-39.459-.396a113.825 113.825 0 0 0 39.538 0" style="fill:none;fill-rule:nonzero;stroke:#768293;stroke-width:1.06px" transform="scale(-1 1) rotate(-3.336 7582.128 3270.637)"/><path d="M-37.478 8.796c13.05 2.268 26.494 2.293 39.542-.001" style="fill:none;fill-rule:nonzero;stroke:#768293;stroke-width:1.06px" transform="scale(-1 1) rotate(-26.415 824.45 511.5)"/><path d="M-18.517 13.434h15.119L-5.946-1.469 13.43 27.629l-31.947-14.195Z" style="fill:#768293;fill-rule:nonzero" transform="scale(-1 1) rotate(-79.628 178.334 302.067)"/><path d="M0 21.311-14.995 0l12.776 10.524L0 21.311Z" style="fill:#fff;fill-rule:nonzero" transform="translate(139.155 417.215)"/><g><path d="M0-108.326c-18.412-3.652-37.367-3.636-55.459.023a139.914 139.914 0 0 0-50.368 21.002c-15.08 10.126-28.022 23.146-37.887 38.024-9.888 14.87-16.658 31.577-20.01 48.837-1.062 5.47-6.357 9.045-11.828 7.982-5.47-1.061-9.045-6.357-7.982-11.828.051-.263.111-.521.181-.775l.026-.088c5.436-19.425 14.681-37.67 27.013-53.293a150.9 150.9 0 0 1 44.739-38.24c17.093-9.581 35.94-15.706 55.11-17.963 19.166-2.286 38.627-.66 56.885 4.524l.012.004A.921.921 0 0 1 0-108.326" style="fill:#fff;fill-rule:nonzero" transform="matrix(.65137 0 0 .65137 336.428 337.259)"/></g><g><path d="M0-108.326c-18.412-3.652-37.367-3.636-55.459.023a139.914 139.914 0 0 0-50.368 21.002c-15.08 10.126-28.022 23.146-37.887 38.024-9.888 14.87-16.658 31.577-20.01 48.837-1.062 5.47-6.357 9.045-11.828 7.982-5.47-1.061-9.045-6.357-7.982-11.828.051-.263.111-.521.181-.775l.026-.088c5.436-19.425 14.681-37.67 27.013-53.293a150.9 150.9 0 0 1 44.739-38.24c17.093-9.581 35.94-15.706 55.11-17.963 19.166-2.286 38.627-.66 56.885 4.524l.012.004A.921.921 0 0 1 0-108.326" style="fill:#fff;fill-rule:nonzero" transform="matrix(-.65137 0 0 .65137 92.59 419.604)"/></g><g><path d="M0-152.664c-16.82 1.807-33.353 6.31-47.737 14.461-7.186 4.054-13.785 9.002-19.576 14.704-5.791 5.703-10.77 12.151-14.871 19.1-8.228 13.915-12.948 29.675-15.165 45.727-2.213 16.089-2.005 32.525-.224 48.783.605 5.54-3.393 10.524-8.934 11.13-5.54.607-10.523-3.392-11.13-8.932a10.674 10.674 0 0 1-.058-.887v-.045c-.34-17.68 1.021-35.516 5.03-52.908 4.002-17.34 10.787-34.329 21.288-48.909 5.227-7.278 11.368-13.895 18.249-19.547a100.67 100.67 0 0 1 22.49-13.947c16.041-7.262 33.435-10.263 50.511-10.568h.012A.921.921 0 0 1 0-152.664" style="fill:#fff;fill-rule:nonzero" transform="matrix(.65137 0 0 .65137 292.866 338.741)"/></g><g><path d="M0-152.664c-16.82 1.807-33.353 6.31-47.737 14.461-7.186 4.054-13.785 9.002-19.576 14.704-5.791 5.703-10.77 12.151-14.871 19.1-8.228 13.915-12.948 29.675-15.165 45.727-2.213 16.089-2.005 32.525-.224 48.783.605 5.54-3.393 10.524-8.934 11.13-5.54.607-10.523-3.392-11.13-8.932a10.674 10.674 0 0 1-.058-.887v-.045c-.34-17.68 1.021-35.516 5.03-52.908 4.002-17.34 10.787-34.329 21.288-48.909 5.227-7.278 11.368-13.895 18.249-19.547a100.67 100.67 0 0 1 22.49-13.947c16.041-7.262 33.435-10.263 50.511-10.568h.012A.921.921 0 0 1 0-152.664" style="fill:#fff;fill-rule:nonzero" transform="matrix(-.65137 0 0 .65137 136.153 421.086)"/></g><g><path d="M0 4.381c-1.346 0-2.438-.98-2.438-2.191C-2.438.981-1.346 0 0 0c1.347 0 2.439.981 2.439 2.19 0 1.211-1.092 2.191-2.439 2.191Z" style="fill:none;fill-rule:nonzero;stroke:#404751;stroke-width:.8px" transform="translate(223.7 40.628)"/><path d="M0 4.381c-1.346 0-2.438-.98-2.438-2.189C-2.438.981-1.346 0 0 0c1.347 0 2.439.981 2.439 2.192 0 1.209-1.092 2.189-2.439 2.189Z" style="fill:none;fill-rule:nonzero;stroke:#404751;stroke-width:.8px" transform="translate(223.7 70.631)"/><path d="M-12.989-12.989h25.978" style="fill:none;fill-rule:nonzero;stroke:#404751;stroke-width:.8px" transform="matrix(0 1 1 0 236.506 57.78)"/><path d="M-12.989-12.989h25.978" style="fill:none;fill-rule:nonzero;stroke:#404751;stroke-width:.8px" transform="matrix(0 1 1 0 236.506 88.024)"/><path d="M0 4.379c-1.346 0-2.438-.98-2.438-2.189S-1.346 0 0 0c1.347 0 2.439.981 2.439 2.19S1.347 4.379 0 4.379Z" style="fill:none;fill-rule:nonzero;stroke:#404751;stroke-width:.8px" transform="translate(223.7 101.372)"/><path d="M0 4.379c-1.346 0-2.438-.98-2.438-2.189S-1.346 0 0 0c1.347 0 2.439.981 2.439 2.19S1.347 4.379 0 4.379Z" style="fill:none;fill-rule:nonzero;stroke:#404751;stroke-width:.8px" transform="translate(223.7 131.376)"/><path d="M-12.989-12.989h25.978" style="fill:none;fill-rule:nonzero;stroke:#404751;stroke-width:.8px" transform="matrix(0 1 1 0 236.506 118.522)"/><path d="M-12.989-12.989h25.978" style="fill:none;fill-rule:nonzero;stroke:#404751;stroke-width:.8px" transform="matrix(0 1 1 0 236.506 148.766)"/><path d="M0 4.381c-1.346 0-2.438-.98-2.438-2.191C-2.438.981-1.346 0 0 0c1.347 0 2.439.981 2.439 2.19 0 1.211-1.092 2.191-2.439 2.191Z" style="fill:none;fill-rule:nonzero;stroke:#404751;stroke-width:.8px" transform="translate(223.7 162.114)"/><path d="M0 4.381c-1.346 0-2.438-.98-2.438-2.189C-2.438.981-1.346 0 0 0c1.347 0 2.439.981 2.439 2.192 0 1.209-1.092 2.189-2.439 2.189Z" style="fill:none;fill-rule:nonzero;stroke:#404751;stroke-width:.8px" transform="translate(223.7 192.118)"/><path d="M-12.989-12.989h25.978" style="fill:none;fill-rule:nonzero;stroke:#404751;stroke-width:.8px" transform="matrix(0 1 1 0 236.506 179.266)"/><path d="M-12.989-12.989h25.978" style="fill:none;fill-rule:nonzero;stroke:#404751;stroke-width:.8px" transform="matrix(0 1 1 0 236.506 209.511)"/><path d="M0 4.379c-1.346 0-2.438-.98-2.438-2.189S-1.346 0 0 0c1.348 0 2.439.981 2.439 2.19S1.348 4.379 0 4.379Z" style="fill:none;fill-rule:nonzero;stroke:#404751;stroke-width:.8px" transform="translate(215.017 70.37)"/><path d="M0 4.379c-1.346 0-2.438-.98-2.438-2.189S-1.346 0 0 0c1.348 0 2.439.981 2.439 2.19S1.348 4.379 0 4.379Z" style="fill:none;fill-rule:nonzero;stroke:#404751;stroke-width:.8px" transform="translate(215.017 100.374)"/><path d="M-12.989-12.989h25.978" style="fill:none;fill-rule:nonzero;stroke:#404751;stroke-width:.8px" transform="matrix(0 1 1 0 227.823 87.52)"/><path d="M-12.989-12.989h25.978" style="fill:none;fill-rule:nonzero;stroke:#404751;stroke-width:.8px" transform="matrix(0 1 1 0 227.823 117.765)"/><path d="M0 4.381c-1.346 0-2.438-.98-2.438-2.191C-2.438.981-1.346 0 0 0c1.348 0 2.439.981 2.439 2.19 0 1.211-1.091 2.191-2.439 2.191Z" style="fill:none;fill-rule:nonzero;stroke:#404751;stroke-width:.8px" transform="translate(215.017 131.112)"/><path d="M0 4.381c-1.346 0-2.438-.98-2.438-2.189C-2.438.981-1.346 0 0 0c1.348 0 2.439.981 2.439 2.192 0 1.209-1.091 2.189-2.439 2.189Z" style="fill:none;fill-rule:nonzero;stroke:#404751;stroke-width:.8px" transform="translate(215.017 161.116)"/><path d="M-12.989-12.989h25.978" style="fill:none;fill-rule:nonzero;stroke:#404751;stroke-width:.8px" transform="matrix(0 1 1 0 227.823 148.265)"/><path d="M-12.989-12.989h25.978" style="fill:none;fill-rule:nonzero;stroke:#404751;stroke-width:.8px" transform="matrix(0 1 1 0 227.823 178.51)"/><path d="M0 4.379c-1.346 0-2.438-.98-2.438-2.189S-1.346 0 0 0c1.348 0 2.439.981 2.439 2.19S1.348 4.379 0 4.379Z" style="fill:none;fill-rule:nonzero;stroke:#404751;stroke-width:.8px" transform="translate(215.017 191.856)"/><path d="M0 4.379c-1.346 0-2.438-.98-2.438-2.189S-1.346 0 0 0c1.348 0 2.439.981 2.439 2.19S1.348 4.379 0 4.379Z" style="fill:none;fill-rule:nonzero;stroke:#404751;stroke-width:.8px" transform="translate(215.017 221.86)"/><path d="M-12.989-12.989h25.978" style="fill:none;fill-rule:nonzero;stroke:#404751;stroke-width:.8px" transform="matrix(0 1 1 0 227.823 209.007)"/><path d="M-12.989-12.989h25.978" style="fill:none;fill-rule:nonzero;stroke:#404751;stroke-width:.8px" transform="matrix(0 1 1 0 227.823 239.251)"/><path d="M0 4.379c-1.346 0-2.438-.98-2.438-2.189S-1.346 0 0 0c1.348 0 2.439.981 2.439 2.19S1.348 4.379 0 4.379Z" style="fill:none;fill-rule:nonzero;stroke:#404751;stroke-width:.8px" transform="translate(206.334 100.37)"/><path d="M0 4.379c-1.346 0-2.438-.98-2.438-2.189S-1.346 0 0 0c1.348 0 2.439.981 2.439 2.19S1.348 4.379 0 4.379Z" style="fill:none;fill-rule:nonzero;stroke:#404751;stroke-width:.8px" transform="translate(206.334 130.374)"/><path d="M-12.989-12.989h25.978" style="fill:none;fill-rule:nonzero;stroke:#404751;stroke-width:.8px" transform="matrix(0 1 1 0 219.139 117.52)"/><path d="M-12.989-12.989h25.978" style="fill:none;fill-rule:nonzero;stroke:#404751;stroke-width:.8px" transform="matrix(0 1 1 0 219.139 147.765)"/><path d="M0 4.381c-1.346 0-2.438-.98-2.438-2.191C-2.438.981-1.346 0 0 0c1.348 0 2.439.981 2.439 2.19 0 1.211-1.091 2.191-2.439 2.191Z" style="fill:none;fill-rule:nonzero;stroke:#404751;stroke-width:.8px" transform="translate(206.334 161.112)"/><path d="M0 4.381c-1.346 0-2.438-.98-2.438-2.189C-2.438.981-1.346 0 0 0c1.348 0 2.439.981 2.439 2.192 0 1.209-1.091 2.189-2.439 2.189Z" style="fill:none;fill-rule:nonzero;stroke:#404751;stroke-width:.8px" transform="translate(206.334 191.116)"/><path d="M-12.989-12.989h25.978" style="fill:none;fill-rule:nonzero;stroke:#404751;stroke-width:.8px" transform="matrix(0 1 1 0 219.139 178.265)"/><path d="M-12.989-12.989h25.978" style="fill:none;fill-rule:nonzero;stroke:#404751;stroke-width:.8px" transform="matrix(0 1 1 0 219.139 208.51)"/><path d="M0 4.379c-1.346 0-2.438-.98-2.438-2.189S-1.346 0 0 0c1.348 0 2.439.981 2.439 2.19S1.348 4.379 0 4.379Z" style="fill:none;fill-rule:nonzero;stroke:#404751;stroke-width:.8px" transform="translate(206.334 221.856)"/><path d="M0 4.379c-1.346 0-2.438-.98-2.438-2.189S-1.346 0 0 0c1.348 0 2.439.981 2.439 2.19S1.348 4.379 0 4.379Z" style="fill:none;fill-rule:nonzero;stroke:#404751;stroke-width:.8px" transform="translate(206.334 251.86)"/><path d="M-12.989-12.989h25.978" style="fill:none;fill-rule:nonzero;stroke:#404751;stroke-width:.8px" transform="matrix(0 1 1 0 219.139 239.007)"/><path d="M-12.989-12.989h25.978" style="fill:none;fill-rule:nonzero;stroke:#404751;stroke-width:.8px" transform="matrix(0 1 1 0 219.139 269.251)"/><path d="M0 4.348c-1.346 0-2.438-.973-2.438-2.174S-1.346 0 0 0c1.347 0 2.439.973 2.439 2.174S1.347 4.348 0 4.348Z" style="fill:none;fill-rule:nonzero;stroke:#404751;stroke-width:.8px" transform="translate(197.65 130.89)"/><path d="M0 4.348c-1.346 0-2.438-.973-2.438-2.174S-1.346 0 0 0c1.347 0 2.439.973 2.439 2.174S1.347 4.348 0 4.348Z" style="fill:none;fill-rule:nonzero;stroke:#404751;stroke-width:.8px" transform="translate(197.65 160.68)"/><path d="M-12.896-12.896h25.792" style="fill:none;fill-rule:nonzero;stroke:#404751;stroke-width:.8px" transform="matrix(0 1 1 0 210.363 147.918)"/><path d="M-12.896-12.896h25.792" style="fill:none;fill-rule:nonzero;stroke:#404751;stroke-width:.8px" transform="matrix(0 1 1 0 210.363 177.947)"/><path d="M0 4.348c-1.346 0-2.438-.973-2.438-2.174S-1.346 0 0 0c1.347 0 2.439.973 2.439 2.174S1.347 4.348 0 4.348Z" style="fill:none;fill-rule:nonzero;stroke:#404751;stroke-width:.8px" transform="translate(197.65 191.2)"/><path d="M0 4.348c-1.346 0-2.438-.973-2.438-2.174S-1.346 0 0 0c1.347 0 2.439.973 2.439 2.174S1.347 4.348 0 4.348Z" style="fill:none;fill-rule:nonzero;stroke:#404751;stroke-width:.8px" transform="translate(197.65 220.99)"/><path d="M-12.896-12.896h25.792" style="fill:none;fill-rule:nonzero;stroke:#404751;stroke-width:.8px" transform="matrix(0 1 1 0 210.363 208.228)"/><path d="M-12.896-12.896h25.792" style="fill:none;fill-rule:nonzero;stroke:#404751;stroke-width:.8px" transform="matrix(0 1 1 0 210.363 238.257)"/><path d="M0 4.348c-1.346 0-2.438-.973-2.438-2.174S-1.346 0 0 0c1.347 0 2.439.973 2.439 2.174S1.347 4.348 0 4.348Z" style="fill:none;fill-rule:nonzero;stroke:#404751;stroke-width:.8px" transform="translate(197.65 251.51)"/><path d="M0 4.348c-1.346 0-2.438-.975-2.438-2.174C-2.438.973-1.346 0 0 0c1.347 0 2.439.973 2.439 2.174 0 1.199-1.092 2.174-2.439 2.174Z" style="fill:none;fill-rule:nonzero;stroke:#404751;stroke-width:.8px" transform="translate(197.65 281.301)"/><path d="M-12.896-12.896h25.792" style="fill:none;fill-rule:nonzero;stroke:#404751;stroke-width:.8px" transform="matrix(0 1 1 0 210.363 268.54)"/><path d="M-12.896-12.896h25.792" style="fill:none;fill-rule:nonzero;stroke:#404751;stroke-width:.8px" transform="matrix(0 1 1 0 210.363 298.568)"/><path d="M-9.051-12.961H5.557l-2.46 14.4 18.72-28.117-30.868 13.717Z" style="fill:#404751;fill-rule:nonzero" transform="scale(1 -1) rotate(-49.848 -216.376 -367.413)"/><path d="M0-24.275 6.69 0v-15.994L0-24.275Z" style="fill:#fff;fill-rule:nonzero" transform="translate(190.96 326.19)"/><path d="M0 4.379c-1.346 0-2.438-.98-2.438-2.189S-1.346 0 0 0c1.348 0 2.439.981 2.439 2.19S1.348 4.379 0 4.379Z" style="fill:none;fill-rule:nonzero;stroke:#404751;stroke-width:.8px" transform="translate(188.967 100.37)"/><path d="M0 4.379c-1.346 0-2.438-.98-2.438-2.189S-1.346 0 0 0c1.348 0 2.439.981 2.439 2.19S1.348 4.379 0 4.379Z" style="fill:none;fill-rule:nonzero;stroke:#404751;stroke-width:.8px" transform="translate(188.967 130.374)"/><path d="M-12.989-12.989h25.978" style="fill:none;fill-rule:nonzero;stroke:#404751;stroke-width:.8px" transform="matrix(0 1 1 0 201.773 117.52)"/><path d="M-12.989-12.989h25.978" style="fill:none;fill-rule:nonzero;stroke:#404751;stroke-width:.8px" transform="matrix(0 1 1 0 201.773 147.765)"/><path d="M0 4.381c-1.346 0-2.438-.98-2.438-2.191C-2.438.981-1.346 0 0 0c1.348 0 2.439.981 2.439 2.19 0 1.211-1.091 2.191-2.439 2.191Z" style="fill:none;fill-rule:nonzero;stroke:#404751;stroke-width:.8px" transform="translate(188.967 161.112)"/><path d="M0 4.381c-1.346 0-2.438-.98-2.438-2.189C-2.438.981-1.346 0 0 0c1.348 0 2.439.981 2.439 2.192 0 1.209-1.091 2.189-2.439 2.189Z" style="fill:none;fill-rule:nonzero;stroke:#404751;stroke-width:.8px" transform="translate(188.967 191.116)"/><path d="M-12.989-12.989h25.978" style="fill:none;fill-rule:nonzero;stroke:#404751;stroke-width:.8px" transform="matrix(0 1 1 0 201.773 178.265)"/><path d="M-12.989-12.989h25.978" style="fill:none;fill-rule:nonzero;stroke:#404751;stroke-width:.8px" transform="matrix(0 1 1 0 201.773 208.51)"/><path d="M0 4.379c-1.346 0-2.438-.98-2.438-2.189S-1.346 0 0 0c1.348 0 2.439.981 2.439 2.19S1.348 4.379 0 4.379Z" style="fill:none;fill-rule:nonzero;stroke:#404751;stroke-width:.8px" transform="translate(188.967 221.856)"/><path d="M0 4.379c-1.346 0-2.438-.98-2.438-2.189S-1.346 0 0 0c1.348 0 2.439.981 2.439 2.19S1.348 4.379 0 4.379Z" style="fill:none;fill-rule:nonzero;stroke:#404751;stroke-width:.8px" transform="translate(188.967 251.86)"/><path d="M-12.989-12.989h25.978" style="fill:none;fill-rule:nonzero;stroke:#404751;stroke-width:.8px" transform="matrix(0 1 1 0 201.773 239.007)"/><path d="M-12.989-12.989h25.978" style="fill:none;fill-rule:nonzero;stroke:#404751;stroke-width:.8px" transform="matrix(0 1 1 0 201.773 269.251)"/><path d="M0 4.379c-1.346 0-2.438-.98-2.438-2.189S-1.346 0 0 0c1.348 0 2.439.981 2.439 2.19S1.348 4.379 0 4.379Z" style="fill:none;fill-rule:nonzero;stroke:#404751;stroke-width:.8px" transform="translate(180.284 70.37)"/><path d="M0 4.379c-1.346 0-2.438-.98-2.438-2.189S-1.346 0 0 0c1.348 0 2.439.981 2.439 2.19S1.348 4.379 0 4.379Z" style="fill:none;fill-rule:nonzero;stroke:#404751;stroke-width:.8px" transform="translate(180.284 100.374)"/><path d="M-12.989-12.989h25.978" style="fill:none;fill-rule:nonzero;stroke:#404751;stroke-width:.8px" transform="matrix(0 1 1 0 193.089 87.52)"/><path d="M-12.989-12.989h25.978" style="fill:none;fill-rule:nonzero;stroke:#404751;stroke-width:.8px" transform="matrix(0 1 1 0 193.089 117.765)"/><path d="M0 4.381c-1.346 0-2.438-.98-2.438-2.191C-2.438.981-1.346 0 0 0c1.348 0 2.439.981 2.439 2.19 0 1.211-1.091 2.191-2.439 2.191Z" style="fill:none;fill-rule:nonzero;stroke:#404751;stroke-width:.8px" transform="translate(180.284 131.112)"/><path d="M0 4.381c-1.346 0-2.438-.98-2.438-2.189C-2.438.981-1.346 0 0 0c1.348 0 2.439.981 2.439 2.192 0 1.209-1.091 2.189-2.439 2.189Z" style="fill:none;fill-rule:nonzero;stroke:#404751;stroke-width:.8px" transform="translate(180.284 161.116)"/><path d="M-12.989-12.989h25.978" style="fill:none;fill-rule:nonzero;stroke:#404751;stroke-width:.8px" transform="matrix(0 1 1 0 193.089 148.265)"/><path d="M-12.989-12.989h25.978" style="fill:none;fill-rule:nonzero;stroke:#404751;stroke-width:.8px" transform="matrix(0 1 1 0 193.089 178.51)"/><path d="M0 4.379c-1.346 0-2.438-.98-2.438-2.189S-1.346 0 0 0c1.348 0 2.439.981 2.439 2.19S1.348 4.379 0 4.379Z" style="fill:none;fill-rule:nonzero;stroke:#404751;stroke-width:.8px" transform="translate(180.284 191.856)"/><path d="M0 4.379c-1.346 0-2.438-.98-2.438-2.189S-1.346 0 0 0c1.348 0 2.439.981 2.439 2.19S1.348 4.379 0 4.379Z" style="fill:none;fill-rule:nonzero;stroke:#404751;stroke-width:.8px" transform="translate(180.284 221.86)"/><path d="M-12.989-12.989h25.978" style="fill:none;fill-rule:nonzero;stroke:#404751;stroke-width:.8px" transform="matrix(0 1 1 0 193.089 209.007)"/><path d="M-12.989-12.989h25.978" style="fill:none;fill-rule:nonzero;stroke:#404751;stroke-width:.8px" transform="matrix(0 1 1 0 193.089 239.251)"/><path d="M0 4.381c-1.346 0-2.438-.98-2.438-2.191C-2.438.981-1.346 0 0 0c1.347 0 2.439.981 2.439 2.19 0 1.211-1.092 2.191-2.439 2.191Z" style="fill:none;fill-rule:nonzero;stroke:#404751;stroke-width:.8px" transform="translate(171.6 40.628)"/><path d="M0 4.381c-1.346 0-2.438-.98-2.438-2.189C-2.438.981-1.346 0 0 0c1.347 0 2.439.981 2.439 2.192 0 1.209-1.092 2.189-2.439 2.189Z" style="fill:none;fill-rule:nonzero;stroke:#404751;stroke-width:.8px" transform="translate(171.6 70.631)"/><path d="M-12.989-12.989h25.978" style="fill:none;fill-rule:nonzero;stroke:#404751;stroke-width:.8px" transform="matrix(0 1 1 0 184.406 57.78)"/><path d="M-12.989-12.989h25.978" style="fill:none;fill-rule:nonzero;stroke:#404751;stroke-width:.8px" transform="matrix(0 1 1 0 184.406 88.024)"/><path d="M0 4.379c-1.346 0-2.438-.98-2.438-2.189S-1.346 0 0 0c1.347 0 2.439.981 2.439 2.19S1.347 4.379 0 4.379Z" style="fill:none;fill-rule:nonzero;stroke:#404751;stroke-width:.8px" transform="translate(171.6 101.372)"/><path d="M0 4.379c-1.346 0-2.438-.98-2.438-2.189S-1.346 0 0 0c1.347 0 2.439.981 2.439 2.19S1.347 4.379 0 4.379Z" style="fill:none;fill-rule:nonzero;stroke:#404751;stroke-width:.8px" transform="translate(171.6 131.376)"/><path d="M-12.989-12.989h25.978" style="fill:none;fill-rule:nonzero;stroke:#404751;stroke-width:.8px" transform="matrix(0 1 1 0 184.406 118.522)"/><path d="M-12.989-12.989h25.978" style="fill:none;fill-rule:nonzero;stroke:#404751;stroke-width:.8px" transform="matrix(0 1 1 0 184.406 148.766)"/><path d="M0 4.381c-1.346 0-2.438-.98-2.438-2.191C-2.438.981-1.346 0 0 0c1.347 0 2.439.981 2.439 2.19 0 1.211-1.092 2.191-2.439 2.191Z" style="fill:none;fill-rule:nonzero;stroke:#404751;stroke-width:.8px" transform="translate(171.6 162.114)"/><path d="M0 4.381c-1.346 0-2.438-.98-2.438-2.189C-2.438.981-1.346 0 0 0c1.347 0 2.439.981 2.439 2.192 0 1.209-1.092 2.189-2.439 2.189Z" style="fill:none;fill-rule:nonzero;stroke:#404751;stroke-width:.8px" transform="translate(171.6 192.118)"/><path d="M-12.989-12.989h25.978" style="fill:none;fill-rule:nonzero;stroke:#404751;stroke-width:.8px" transform="matrix(0 1 1 0 184.406 179.266)"/><path d="M-12.989-12.989h25.978" style="fill:none;fill-rule:nonzero;stroke:#404751;stroke-width:.8px" transform="matrix(0 1 1 0 184.406 209.511)"/></g><g><ellipse cx="-2.512" cy="2.512" rx="3.367" ry="3.553" style="fill:none;stroke:#768293;stroke-width:.74px" transform="rotate(-135 272.341 14.955)"/><ellipse cx="-2.513" cy="2.513" rx="3.367" ry="3.553" style="fill:none;stroke:#768293;stroke-width:.74px" transform="rotate(-135 262.26 39.295)"/><path d="M-6.172-14.9h42.144" style="fill:none;fill-rule:nonzero;stroke:#768293;stroke-width:.74px" transform="rotate(135 176.056 198.503)"/><path d="M-6.172-14.9h42.145" style="fill:none;fill-rule:nonzero;stroke:#768293;stroke-width:.74px" transform="rotate(135.001 151.523 208.663)"/><ellipse cx="-2.512" cy="2.512" rx="3.367" ry="3.553" style="fill:none;stroke:#768293;stroke-width:.74px" transform="rotate(-135 251.972 64.132)"/><ellipse cx="-2.513" cy="2.512" rx="3.367" ry="3.553" style="fill:none;stroke:#768293;stroke-width:.74px" transform="rotate(-135 241.89 88.471)"/><path d="M-6.172-14.9h42.144" style="fill:none;fill-rule:nonzero;stroke:#768293;stroke-width:.74px" transform="rotate(135 126.879 218.872)"/><path d="M-6.172-14.9h42.144" style="fill:none;fill-rule:nonzero;stroke:#768293;stroke-width:.74px" transform="rotate(135 102.345 229.034)"/><ellipse cx="-3.329" cy="3.33" rx="4.33" ry="4.708" style="fill:none;stroke:#768293;stroke-width:.95px" transform="rotate(-135 269.554 -12.082)"/><ellipse cx="-3.329" cy="3.33" rx="4.331" ry="4.708" style="fill:none;stroke:#768293;stroke-width:.95px" transform="rotate(-135.004 256.19 20.18)"/><path d="M-8.178-19.745h55.845" style="fill:none;fill-rule:nonzero;stroke:#768293;stroke-width:.95px" transform="rotate(135 191.27 175.898)"/><path d="M-8.178-19.745h55.845" style="fill:none;fill-rule:nonzero;stroke:#768293;stroke-width:.95px" transform="rotate(135 158.758 189.364)"/><ellipse cx="-3.33" cy="3.329" rx="4.33" ry="4.709" style="fill:none;stroke:#768293;stroke-width:.95px" transform="rotate(-135 242.56 53.084)"/><ellipse cx="-3.33" cy="3.329" rx="4.33" ry="4.708" style="fill:none;stroke:#768293;stroke-width:.95px" transform="rotate(-135 229.202 85.337)"/><path d="M-8.178-19.745h55.845" style="fill:none;fill-rule:nonzero;stroke:#768293;stroke-width:.95px" transform="rotate(135 126.103 202.89)"/><path d="M-8.178-19.745h55.845" style="fill:none;fill-rule:nonzero;stroke:#768293;stroke-width:.95px" transform="rotate(135 93.592 216.357)"/><ellipse cx="-3.329" cy="3.329" rx="4.33" ry="4.708" style="fill:none;stroke:#768293;stroke-width:.95px" transform="rotate(-135 215.569 118.25)"/><ellipse cx="-3.329" cy="3.33" rx="4.33" ry="4.708" style="fill:none;stroke:#768293;stroke-width:.95px" transform="rotate(-135 202.209 150.504)"/><path d="M-8.179-19.745h55.846" style="fill:none;fill-rule:nonzero;stroke:#768293;stroke-width:.95px" transform="rotate(134.999 60.934 229.885)"/><path d="M-8.178-19.745h55.845" style="fill:none;fill-rule:nonzero;stroke:#768293;stroke-width:.95px" transform="rotate(135 28.426 243.35)"/><ellipse cx="-3.335" cy="3.337" rx="4.837" ry="4.719" style="fill:none;stroke:#768293;stroke-width:1.06px" transform="rotate(-135 260.98 -7.001)"/><ellipse cx="-3.336" cy="3.337" rx="4.837" ry="4.719" style="fill:none;stroke:#768293;stroke-width:1.06px" transform="rotate(-134.996 247.594 25.314)"/><path d="M-8.197-19.789h55.971" style="fill:none;fill-rule:nonzero;stroke:#768293;stroke-width:1.06px" transform="rotate(135 181.603 173.432)"/><path d="M-8.196-19.788h55.969" style="fill:none;fill-rule:nonzero;stroke:#768293;stroke-width:1.06px" transform="rotate(135.001 149.02 186.927)"/><ellipse cx="-3.337" cy="3.337" rx="4.837" ry="4.719" style="fill:none;stroke:#768293;stroke-width:1.06px" transform="rotate(-135 233.926 58.31)"/><ellipse cx="-3.336" cy="3.337" rx="4.836" ry="4.719" style="fill:none;stroke:#768293;stroke-width:1.06px" transform="rotate(-135 220.536 90.635)"/><path d="M-8.197-19.789h55.97" style="fill:none;fill-rule:nonzero;stroke:#768293;stroke-width:1.06px" transform="rotate(134.999 116.29 200.486)"/><path d="M-8.197-19.789h55.971" style="fill:none;fill-rule:nonzero;stroke:#768293;stroke-width:1.06px" transform="rotate(135 83.708 213.98)"/><ellipse cx="-3.335" cy="3.337" rx="4.837" ry="4.719" style="fill:none;stroke:#c1c8d3;stroke-width:1.06px" transform="rotate(-135 252.412 -1.928)"/><ellipse cx="-3.336" cy="3.337" rx="4.836" ry="4.719" style="fill:none;stroke:#c1c8d3;stroke-width:1.06px" transform="rotate(-135 239.023 30.396)"/><path d="M-8.197-19.789h55.971" style="fill:none;fill-rule:nonzero;stroke:#c1c8d3;stroke-width:1.06px" transform="rotate(135 171.958 170.96)"/><path d="M-8.196-19.788h55.969" style="fill:none;fill-rule:nonzero;stroke:#c1c8d3;stroke-width:1.06px" transform="rotate(135.001 139.376 184.456)"/><ellipse cx="-3.336" cy="3.337" rx="4.836" ry="4.719" style="fill:none;stroke:#c1c8d3;stroke-width:1.06px" transform="rotate(-135 225.359 63.383)"/><ellipse cx="-3.336" cy="3.337" rx="4.836" ry="4.719" style="fill:none;stroke:#c1c8d3;stroke-width:1.06px" transform="rotate(-135 211.969 95.708)"/><path d="M-8.197-19.789h55.971" style="fill:none;fill-rule:nonzero;stroke:#c1c8d3;stroke-width:1.06px" transform="rotate(135 106.647 198.014)"/><path d="M-8.197-19.789h55.971" style="fill:none;fill-rule:nonzero;stroke:#c1c8d3;stroke-width:1.06px" transform="rotate(135 74.063 211.51)"/><ellipse cx="-4.719" rx="4.836" ry="4.719" style="fill:none;stroke:#e2e6ed;stroke-width:1.06px" transform="rotate(-90 303.613 -132.878)"/><ellipse cx="-4.719" rx="4.836" ry="4.719" style="fill:none;stroke:#e2e6ed;stroke-width:1.06px" transform="rotate(-90 271.288 -100.554)"/><path d="M0 0h55.971" style="fill:none;fill-rule:nonzero;stroke:#e2e6ed;stroke-width:1.06px" transform="matrix(-1 0 0 1 432.24 175.816)"/><path d="M0 0h55.971" style="fill:none;fill-rule:nonzero;stroke:#e2e6ed;stroke-width:1.06px" transform="matrix(-1 0 0 1 367.074 175.816)"/><ellipse cx="-4.719" rx="4.836" ry="4.719" style="fill:none;stroke:#e2e6ed;stroke-width:1.06px" transform="rotate(-90 238.301 -67.567)"/><ellipse cx="-4.719" rx="4.836" ry="4.719" style="fill:none;stroke:#e2e6ed;stroke-width:1.06px" transform="rotate(-90 205.977 -35.243)"/><path d="M0 0h55.97" style="fill:none;fill-rule:nonzero;stroke:#e2e6ed;stroke-width:1.06px" transform="matrix(-1 0 0 1 301.617 175.816)"/><path d="M0 0h55.971" style="fill:none;fill-rule:nonzero;stroke:#e2e6ed;stroke-width:1.06px" transform="matrix(-1 0 0 1 236.452 175.816)"/></g><g><path d="M-5.729-6.469c3.104.192 5.457 2.925 5.463 6.108-.007 3.181-2.36 5.915-5.463 6.107-3.097.192-5.79-2.54-5.784-6.107-.004-3.569 2.69-6.302 5.784-6.108Z" style="fill:none;fill-rule:nonzero;stroke:#768293;stroke-width:1.76px" transform="scale(-.69875 .69875) rotate(-70.259 174.894 462.088)"/><path d="M-3.984-10.571c3.099.194 5.46 2.927 5.461 6.111 0 3.181-2.364 5.914-5.461 6.108-3.103.193-5.784-2.54-5.785-6.109 0-3.57 2.685-6.302 5.785-6.11Z" style="fill:none;fill-rule:nonzero;stroke:#768293;stroke-width:1.76px" transform="scale(-.69875 .69875) rotate(-28.539 645.964 955.096)"/><path d="M0 29.067a113.975 113.975 0 0 0 34.716-9.369A114.876 114.876 0 0 0 64.807 0" style="fill:none;fill-rule:nonzero;stroke:#768293;stroke-width:1.76px" transform="rotate(-16.417 1190.803 -614.889) scale(.69875)"/><path d="M0 64.96a114.773 114.773 0 0 0 19.539-30.192A114.045 114.045 0 0 0 28.725 0" style="fill:none;fill-rule:nonzero;stroke:#768293;stroke-width:1.76px" transform="rotate(-16.417 987.548 -766.464) scale(.69875)"/><path d="M.09-12.465c3.106.192 5.462 2.925 5.465 6.11C5.548-3.172 3.192-.44.09-.248c-3.097.193-5.787-2.543-5.782-6.11-.002-3.568 2.688-6.299 5.782-6.107Z" style="fill:none;fill-rule:nonzero;stroke:#768293;stroke-width:1.76px" transform="matrix(-.67798 .16912 .16912 .67798 276.454 241.837)"/><path d="M4.404-10.731c3.1.194 5.458 2.928 5.461 6.11-.003 3.18-2.362 5.914-5.461 6.107-3.101.195-5.786-2.539-5.786-6.108-.001-3.569 2.687-6.302 5.786-6.109Z" style="fill:none;fill-rule:nonzero;stroke:#768293;stroke-width:1.76px" transform="matrix(-.39395 .5771 .5771 .39395 247.1 189.91)"/><path d="M0 67.422c-.057-12.037-2.002-24.066-5.793-35.493A114.386 114.386 0 0 0-22.34 0" style="fill:none;fill-rule:nonzero;stroke:#768293;stroke-width:1.76px" transform="rotate(-16.417 784.423 -809.6) scale(.69875)"/></g><g><path d="M0 4.381c-1.346 0-2.438-.98-2.438-2.191C-2.438.981-1.346 0 0 0c1.347 0 2.439.981 2.439 2.19 0 1.211-1.092 2.191-2.439 2.191Z" style="fill:none;fill-rule:nonzero;stroke:#404751;stroke-width:1.04px" transform="rotate(-90 325.565 28.84) scale(.7721)"/><path d="M0 4.381c-1.346 0-2.438-.98-2.438-2.189C-2.438.981-1.346 0 0 0c1.347 0 2.439.981 2.439 2.192 0 1.209-1.092 2.189-2.439 2.189Z" style="fill:none;fill-rule:nonzero;stroke:#404751;stroke-width:1.04px" transform="rotate(-90 337.146 17.258) scale(.7721)"/><path d="M-12.989-12.989h25.978" style="fill:none;fill-rule:nonzero;stroke:#404751;stroke-width:1.04px" transform="matrix(.7721 0 0 -.7721 309.967 344.516)"/><path d="M-12.989-12.989h25.978" style="fill:none;fill-rule:nonzero;stroke:#404751;stroke-width:1.04px" transform="matrix(.7721 0 0 -.7721 333.315 344.516)"/><path d="M0 4.379c-1.346 0-2.438-.98-2.438-2.189S-1.346 0 0 0c1.347 0 2.439.981 2.439 2.19S1.347 4.379 0 4.379Z" style="fill:none;fill-rule:nonzero;stroke:#404751;stroke-width:1.04px" transform="rotate(-90 349.013 5.39) scale(.7721)"/><path d="M0 4.379c-1.346 0-2.438-.98-2.438-2.189S-1.346 0 0 0c1.347 0 2.439.981 2.439 2.19S1.347 4.379 0 4.379Z" style="fill:none;fill-rule:nonzero;stroke:#404751;stroke-width:1.04px" transform="rotate(-90 360.599 -6.195) scale(.7721)"/><path d="M-12.989-12.989h25.978" style="fill:none;fill-rule:nonzero;stroke:#404751;stroke-width:1.04px" transform="matrix(.7721 0 0 -.7721 356.864 344.516)"/><path d="M-12.989-12.989h25.978" style="fill:none;fill-rule:nonzero;stroke:#404751;stroke-width:1.04px" transform="matrix(.7721 0 0 -.7721 380.722 344.516)"/><path d="M0 4.379c-1.346 0-2.438-.98-2.438-2.189S-1.346 0 0 0c1.348 0 2.439.981 2.439 2.19S1.348 4.379 0 4.379Z" style="fill:none;fill-rule:nonzero;stroke:#404751;stroke-width:1.04px" transform="rotate(-90 340.398 20.71) scale(.7721)"/><path d="M0 4.379c-1.346 0-2.438-.98-2.438-2.189S-1.346 0 0 0c1.348 0 2.439.981 2.439 2.19S1.348 4.379 0 4.379Z" style="fill:none;fill-rule:nonzero;stroke:#404751;stroke-width:1.04px" transform="rotate(-90 351.98 9.129) scale(.7721)"/><path d="M-12.989-12.989h25.978" style="fill:none;fill-rule:nonzero;stroke:#404751;stroke-width:1.04px" transform="matrix(.7721 0 0 -.7721 332.929 351.22)"/><path d="M-12.989-12.989h25.978" style="fill:none;fill-rule:nonzero;stroke:#404751;stroke-width:1.04px" transform="matrix(.7721 0 0 -.7721 356.277 351.22)"/><path d="M0 4.381c-1.346 0-2.438-.98-2.438-2.191C-2.438.981-1.346 0 0 0c1.348 0 2.439.981 2.439 2.19 0 1.211-1.091 2.191-2.439 2.191Z" style="fill:none;fill-rule:nonzero;stroke:#404751;stroke-width:1.04px" transform="rotate(-90 363.846 -2.738) scale(.7721)"/><path d="M0 4.379c-1.346 0-2.438-.98-2.438-2.189S-1.346 0 0 0c1.348 0 2.439.981 2.439 2.19S1.348 4.379 0 4.379Z" style="fill:none;fill-rule:nonzero;stroke:#404751;stroke-width:1.04px" transform="rotate(-90 375.683 -14.575) scale(.7721)"/><path d="M-12.989-12.989h25.978" style="fill:none;fill-rule:nonzero;stroke:#404751;stroke-width:1.04px" transform="matrix(.7721 0 0 -.7721 380.336 351.22)"/><path d="M-12.989-12.989h25.978" style="fill:none;fill-rule:nonzero;stroke:#404751;stroke-width:1.04px" transform="matrix(.7721 0 0 -.7721 403.684 351.22)"/><path d="M0 4.379c-1.346 0-2.438-.98-2.438-2.189S-1.346 0 0 0c1.348 0 2.439.981 2.439 2.19S1.348 4.379 0 4.379Z" style="fill:none;fill-rule:nonzero;stroke:#404751;stroke-width:1.04px" transform="rotate(-90 355.331 12.48) scale(.7721)"/><path d="M0 4.379c-1.346 0-2.438-.98-2.438-2.189S-1.346 0 0 0c1.348 0 2.439.981 2.439 2.19S1.348 4.379 0 4.379Z" style="fill:none;fill-rule:nonzero;stroke:#404751;stroke-width:1.04px" transform="rotate(-90 366.913 .9) scale(.7721)"/><path d="M-12.989-12.989h25.978" style="fill:none;fill-rule:nonzero;stroke:#404751;stroke-width:1.04px" transform="matrix(.7721 0 0 -.7721 356.092 357.926)"/><path d="M-12.989-12.989h25.978" style="fill:none;fill-rule:nonzero;stroke:#404751;stroke-width:1.04px" transform="matrix(.7721 0 0 -.7721 379.95 357.926)"/><path d="M0 4.379c-1.346 0-2.438-.98-2.438-2.189S-1.346 0 0 0c1.348 0 2.439.981 2.439 2.19S1.348 4.379 0 4.379Z" style="fill:none;fill-rule:nonzero;stroke:#404751;stroke-width:1.04px" transform="rotate(-90 379.035 -11.223) scale(.7721)"/><path d="M0 4.379c-1.346 0-2.438-.98-2.438-2.189S-1.346 0 0 0c1.348 0 2.439.981 2.439 2.19S1.348 4.379 0 4.379Z" style="fill:none;fill-rule:nonzero;stroke:#404751;stroke-width:1.04px" transform="matrix(0 -.7721 .7721 0 413.42 367.812)"/><path d="M-12.989-12.989h25.978" style="fill:none;fill-rule:nonzero;stroke:#404751;stroke-width:1.04px" transform="matrix(.7721 0 0 -.7721 403.499 357.926)"/><path d="M-12.989-12.989h25.978" style="fill:none;fill-rule:nonzero;stroke:#404751;stroke-width:1.04px" transform="matrix(.7721 0 0 -.7721 426.847 357.926)"/><path d="M0 4.348c-1.346 0-2.438-.973-2.438-2.174S-1.346 0 0 0c1.347 0 2.439.973 2.439 2.174S1.347 4.348 0 4.348Z" style="fill:none;fill-rule:nonzero;stroke:#404751;stroke-width:1.04px" transform="rotate(-90 370.466 4.051) scale(.7721)"/><path d="M0 4.348c-1.346 0-2.438-.973-2.438-2.174S-1.346 0 0 0c1.347 0 2.439.973 2.439 2.174S1.347 4.348 0 4.348Z" style="fill:none;fill-rule:nonzero;stroke:#404751;stroke-width:1.04px" transform="rotate(-90 382.051 -7.534) scale(.7721)"/><path d="M-12.896-12.896h25.792" style="fill:none;fill-rule:nonzero;stroke:#404751;stroke-width:1.04px" transform="matrix(.7721 0 0 -.7721 379.734 364.701)"/><path d="M-12.896-12.896h25.792" style="fill:none;fill-rule:nonzero;stroke:#404751;stroke-width:1.04px" transform="matrix(.7721 0 0 -.7721 402.92 364.701)"/><path d="M0 4.348c-1.346 0-2.438-.973-2.438-2.174S-1.346 0 0 0c1.347 0 2.439.973 2.439 2.174S1.347 4.348 0 4.348Z" style="fill:none;fill-rule:nonzero;stroke:#404751;stroke-width:1.04px" transform="matrix(0 -.7721 .7721 0 413.15 374.517)"/><path d="M0 4.348c-1.346 0-2.438-.975-2.438-2.174C-2.438.973-1.346 0 0 0c1.347 0 2.439.973 2.439 2.174 0 1.199-1.092 2.174-2.439 2.174Z" style="fill:none;fill-rule:nonzero;stroke:#404751;stroke-width:1.04px" transform="rotate(-90 405.334 -30.817) scale(.7721)"/><path d="M-12.896-12.896h25.792" style="fill:none;fill-rule:nonzero;stroke:#404751;stroke-width:1.04px" transform="matrix(.7721 0 0 -.7721 426.299 364.701)"/><path d="M-12.896-12.896h25.792" style="fill:none;fill-rule:nonzero;stroke:#404751;stroke-width:1.04px" transform="matrix(.7721 0 0 -.7721 449.485 364.701)"/><path d="M-9.051-12.961H5.557l-2.46 14.4 18.72-28.117-30.868 13.717Z" style="fill:#404751;fill-rule:nonzero" transform="scale(.7721 -.7721) rotate(40.152 944.692 553.396)"/><path d="M0-24.275 6.69 0v-15.994L0-24.275Z" style="fill:#fff;fill-rule:nonzero" transform="matrix(0 -.7721 .7721 0 470.81 379.682)"/><path d="M0 4.379c-1.346 0-2.438-.98-2.438-2.189S-1.346 0 0 0c1.348 0 2.439.981 2.439 2.19S1.348 4.379 0 4.379Z" style="fill:none;fill-rule:nonzero;stroke:#404751;stroke-width:1.04px" transform="rotate(-90 362.036 19.185) scale(.7721)"/><path d="M0 4.379c-1.346 0-2.438-.98-2.438-2.189S-1.346 0 0 0c1.348 0 2.439.981 2.439 2.19S1.348 4.379 0 4.379Z" style="fill:none;fill-rule:nonzero;stroke:#404751;stroke-width:1.04px" transform="rotate(-90 373.617 7.604) scale(.7721)"/><path d="M-12.989-12.989h25.978" style="fill:none;fill-rule:nonzero;stroke:#404751;stroke-width:1.04px" transform="matrix(.7721 0 0 -.7721 356.092 371.334)"/><path d="M-12.989-12.989h25.978" style="fill:none;fill-rule:nonzero;stroke:#404751;stroke-width:1.04px" transform="matrix(.7721 0 0 -.7721 379.95 371.334)"/><path d="M0 4.379c-1.346 0-2.438-.98-2.438-2.189S-1.346 0 0 0c1.348 0 2.439.981 2.439 2.19S1.348 4.379 0 4.379Z" style="fill:none;fill-rule:nonzero;stroke:#404751;stroke-width:1.04px" transform="rotate(-90 385.74 -4.518) scale(.7721)"/><path d="M0 4.379c-1.346 0-2.438-.98-2.438-2.189S-1.346 0 0 0c1.348 0 2.439.981 2.439 2.19S1.348 4.379 0 4.379Z" style="fill:none;fill-rule:nonzero;stroke:#404751;stroke-width:1.04px" transform="rotate(-90 397.32 -16.1) scale(.7721)"/><path d="M-12.989-12.989h25.978" style="fill:none;fill-rule:nonzero;stroke:#404751;stroke-width:1.04px" transform="matrix(.7721 0 0 -.7721 403.499 371.334)"/><path d="M-12.989-12.989h25.978" style="fill:none;fill-rule:nonzero;stroke:#404751;stroke-width:1.04px" transform="matrix(.7721 0 0 -.7721 426.847 371.334)"/><path d="M0 4.379c-1.346 0-2.438-.98-2.438-2.189S-1.346 0 0 0c1.348 0 2.439.981 2.439 2.19S1.348 4.379 0 4.379Z" style="fill:none;fill-rule:nonzero;stroke:#404751;stroke-width:1.04px" transform="rotate(-90 353.806 34.119) scale(.7721)"/><path d="M0 4.379c-1.346 0-2.438-.98-2.438-2.189S-1.346 0 0 0c1.348 0 2.439.981 2.439 2.19S1.348 4.379 0 4.379Z" style="fill:none;fill-rule:nonzero;stroke:#404751;stroke-width:1.04px" transform="rotate(-90 365.388 22.538) scale(.7721)"/><path d="M-12.989-12.989h25.978" style="fill:none;fill-rule:nonzero;stroke:#404751;stroke-width:1.04px" transform="matrix(.7721 0 0 -.7721 332.929 378.039)"/><path d="M-12.989-12.989h25.978" style="fill:none;fill-rule:nonzero;stroke:#404751;stroke-width:1.04px" transform="matrix(.7721 0 0 -.7721 356.277 378.039)"/><path d="M0 4.381c-1.346 0-2.438-.98-2.438-2.191C-2.438.981-1.346 0 0 0c1.348 0 2.439.981 2.439 2.19 0 1.211-1.091 2.191-2.439 2.191Z" style="fill:none;fill-rule:nonzero;stroke:#404751;stroke-width:1.04px" transform="rotate(-90 377.255 10.67) scale(.7721)"/><path d="M0 4.379c-1.346 0-2.438-.98-2.438-2.189S-1.346 0 0 0c1.348 0 2.439.981 2.439 2.19S1.348 4.379 0 4.379Z" style="fill:none;fill-rule:nonzero;stroke:#404751;stroke-width:1.04px" transform="rotate(-90 389.091 -1.166) scale(.7721)"/><path d="M-12.989-12.989h25.978" style="fill:none;fill-rule:nonzero;stroke:#404751;stroke-width:1.04px" transform="matrix(.7721 0 0 -.7721 380.336 378.039)"/><path d="M-12.989-12.989h25.978" style="fill:none;fill-rule:nonzero;stroke:#404751;stroke-width:1.04px" transform="matrix(.7721 0 0 -.7721 403.684 378.039)"/><path d="M0 4.381c-1.346 0-2.438-.98-2.438-2.191C-2.438.981-1.346 0 0 0c1.347 0 2.439.981 2.439 2.19 0 1.211-1.092 2.191-2.439 2.191Z" style="fill:none;fill-rule:nonzero;stroke:#404751;stroke-width:1.04px" transform="rotate(-90 345.677 48.952) scale(.7721)"/><path d="M0 4.381c-1.346 0-2.438-.98-2.438-2.189C-2.438.981-1.346 0 0 0c1.347 0 2.439.981 2.439 2.192 0 1.209-1.092 2.189-2.439 2.189Z" style="fill:none;fill-rule:nonzero;stroke:#404751;stroke-width:1.04px" transform="rotate(-90 357.259 37.37) scale(.7721)"/><path d="M-12.989-12.989h25.978" style="fill:none;fill-rule:nonzero;stroke:#404751;stroke-width:1.04px" transform="matrix(.7721 0 0 -.7721 309.967 384.743)"/><path d="M-12.989-12.989h25.978" style="fill:none;fill-rule:nonzero;stroke:#404751;stroke-width:1.04px" transform="matrix(.7721 0 0 -.7721 333.315 384.743)"/><path d="M0 4.379c-1.346 0-2.438-.98-2.438-2.189S-1.346 0 0 0c1.347 0 2.439.981 2.439 2.19S1.347 4.379 0 4.379Z" style="fill:none;fill-rule:nonzero;stroke:#404751;stroke-width:1.04px" transform="rotate(-90 369.126 25.504) scale(.7721)"/><path d="M0 4.379c-1.346 0-2.438-.98-2.438-2.189S-1.346 0 0 0c1.347 0 2.439.981 2.439 2.19S1.347 4.379 0 4.379Z" style="fill:none;fill-rule:nonzero;stroke:#404751;stroke-width:1.04px" transform="rotate(-90 380.711 13.918) scale(.7721)"/><path d="M-12.989-12.989h25.978" style="fill:none;fill-rule:nonzero;stroke:#404751;stroke-width:1.04px" transform="matrix(.7721 0 0 -.7721 356.864 384.743)"/><path d="M-12.989-12.989h25.978" style="fill:none;fill-rule:nonzero;stroke:#404751;stroke-width:1.04px" transform="matrix(.7721 0 0 -.7721 380.722 384.743)"/></g></svg>