<svg viewBox="0 0 512 513" xmlns="http://www.w3.org/2000/svg" xml:space="preserve" style="fill-rule:evenodd;clip-rule:evenodd;stroke-linejoin:round;stroke-miterlimit:2"><path style="fill:none" d="M0 0h512v512H0z" transform="translate(0 .047)"/><path d="M273 374.358c18.271 0 34.132 2.494 42.006 6.095 2.181.998 3.778 2.098 4.718 3.233.751.907 1.118 1.855 1.118 2.814 0 .959-.367 1.907-1.118 2.814-.94 1.135-2.537 2.235-4.718 3.233-7.874 3.601-23.735 6.095-42.006 6.095s-34.132-2.494-42.006-6.095c-2.181-.998-3.778-2.098-4.718-3.233-.751-.907-1.118-1.855-1.118-2.814 0-.959.367-1.907 1.118-2.814.94-1.135 2.537-2.235 4.718-3.233 7.874-3.601 23.735-6.095 42.006-6.095Zm0 2.084c-17.89 0-33.429 2.38-41.14 5.906-1.542.705-2.756 1.448-3.577 2.237-.648.622-1.041 1.246-1.041 1.915s.393 1.293 1.041 1.915c.821.789 2.035 1.532 3.577 2.237 7.711 3.526 23.25 5.906 41.14 5.906s33.429-2.38 41.14-5.906c1.542-.705 2.756-1.448 3.577-2.237.648-.622 1.041-1.246 1.041-1.915s-.393-1.293-1.041-1.915c-.821-.789-2.035-1.532-3.577-2.237-7.711-3.526-23.25-5.906-41.14-5.906Z" style="fill:#768293" transform="translate(0 .047)"/><path d="M273 369.358c26.308 0 49.146 3.593 60.485 8.799 3.071 1.41 5.326 2.958 6.65 4.563 1.006 1.22 1.507 2.491 1.507 3.78 0 1.289-.501 2.56-1.507 3.78-1.324 1.605-3.579 3.153-6.65 4.563-11.339 5.206-34.177 8.799-60.485 8.799s-49.146-3.593-60.485-8.799c-3.071-1.41-5.326-2.958-6.65-4.563-1.006-1.22-1.507-2.491-1.507-3.78 0-1.289.501-2.56 1.507-3.78 1.324-1.605 3.579-3.153 6.65-4.563 11.339-5.206 34.177-8.799 60.485-8.799Zm0 2.084c-25.926 0-48.442 3.477-59.615 8.608-2.285 1.049-4.079 2.159-5.296 3.333-1.044 1.007-1.647 2.034-1.647 3.117 0 1.083.603 2.11 1.647 3.117 1.217 1.174 3.011 2.284 5.296 3.333 11.173 5.131 33.689 8.608 59.615 8.608 25.926 0 48.442-3.477 59.615-8.608 2.285-1.049 4.079-2.159 5.296-3.333 1.044-1.007 1.647-2.034 1.647-3.117 0-1.083-.603-2.11-1.647-3.117-1.217-1.174-3.011-2.284-5.296-3.333-11.173-5.131-33.689-8.608-59.615-8.608Z" style="fill:#d77526" transform="translate(0 .047)"/><path d="M371.742 386.5c0 1.759-.694 3.49-2.069 5.154-1.878 2.272-5.081 4.453-9.436 6.449-16.332 7.486-49.246 12.639-87.237 12.639-37.991 0-70.905-5.153-87.237-12.639-4.355-1.996-7.558-4.177-9.436-6.449-1.375-1.664-2.069-3.395-2.069-5.154s.694-3.49 2.069-5.154c1.878-2.272 5.081-4.453 9.436-6.449 16.332-7.486 49.246-12.639 87.237-12.639 37.92 0 70.862 5.153 87.217 12.639 4.362 1.996 7.57 4.176 9.451 6.448 1.379 1.665 2.074 3.396 2.074 5.155Zm-2.084 0c0-1.67-.907-3.267-2.523-4.82-1.789-1.72-4.425-3.351-7.785-4.889-16.19-7.41-48.81-12.449-86.35-12.449-37.609 0-70.201 5.039-86.369 12.449-3.354 1.538-5.986 3.169-7.771 4.888-1.613 1.553-2.518 3.151-2.518 4.821s.905 3.268 2.518 4.821c1.785 1.719 4.417 3.35 7.771 4.888 16.168 7.41 48.76 12.449 86.369 12.449s70.201-5.039 86.369-12.449c3.354-1.538 5.986-3.169 7.771-4.888 1.613-1.553 2.518-3.151 2.518-4.821Z" style="fill:#768293" transform="translate(0 .047)"/><path d="M415.242 386.5c0 2.443-.975 4.842-2.886 7.153-2.681 3.241-7.261 6.342-13.48 9.189-23.576 10.793-71.085 18.2-125.876 18.2-54.791 0-102.3-7.407-125.876-18.2-6.219-2.847-10.799-5.948-13.48-9.189-1.911-2.311-2.886-4.71-2.886-7.153 0-2.443.975-4.842 2.886-7.153 2.681-3.241 7.261-6.342 13.48-9.189 23.576-10.793 71.085-18.2 125.876-18.2 54.791 0 102.3 7.407 125.876 18.2 6.219 2.847 10.799 5.948 13.48 9.189 1.911 2.311 2.886 4.71 2.886 7.153Zm-2.084 0c0-2.525-1.344-4.953-3.783-7.299-2.613-2.514-6.459-4.902-11.366-7.148-23.413-10.718-70.6-18.011-125.009-18.011-54.409 0-101.596 7.293-125.009 18.011-4.907 2.246-8.753 4.634-11.366 7.148-2.439 2.346-3.783 4.774-3.783 7.299 0 2.525 1.344 4.953 3.783 7.299 2.613 2.514 6.459 4.902 11.366 7.148 23.413 10.718 70.6 18.011 125.009 18.011 54.409 0 101.596-7.293 125.009-18.011 4.907-2.246 8.753-4.634 11.366-7.148 2.439-2.346 3.783-4.774 3.783-7.299Z" style="fill:#c1c8d3" transform="translate(0 .047)"/><path d="M478.042 386.5c0 3.439-1.379 6.811-4.062 10.062-3.839 4.653-10.404 9.094-19.309 13.18-34.025 15.609-102.59 26.3-181.671 26.3-79.081 0-147.646-10.691-181.671-26.3-8.905-4.086-15.47-8.527-19.309-13.18-2.683-3.251-4.062-6.623-4.062-10.062 0-3.439 1.379-6.811 4.062-10.062 3.839-4.653 10.404-9.094 19.309-13.18 34.025-15.609 102.59-26.3 181.671-26.3 79.081.071 147.646 10.732 181.67 26.319 8.905 4.08 15.47 8.515 19.31 13.165 2.683 3.249 4.062 6.619 4.062 10.058Zm-2.084 0c0-3.77-1.976-7.405-5.608-10.904-3.804-3.665-9.402-7.151-16.548-10.425-33.86-15.511-102.103-26.059-180.802-26.129-78.699 0-146.942 10.576-180.802 26.11-7.146 3.278-12.743 6.769-16.548 10.438-3.632 3.503-5.608 7.14-5.608 10.91 0 3.77 1.976 7.407 5.608 10.91 3.805 3.669 9.402 7.16 16.548 10.438 33.86 15.535 102.103 26.11 180.802 26.11s146.942-10.575 180.802-26.11c7.146-3.278 12.743-6.769 16.548-10.438 3.632-3.503 5.608-7.14 5.608-10.91Z" style="fill:#e2e6ed" transform="translate(0 .047)"/><path d="M99.467 206.278a7.248 7.248 0 0 1-7.277 5.121 7.245 7.245 0 0 1-6.882-7.583 7.244 7.244 0 0 1 7.583-6.881 7.245 7.245 0 0 1 6.89 7.275c10.07.639 19.956 2.219 29.842 4.373a218.391 218.391 0 0 1 27.81 8.064 7.24 7.24 0 0 1 13.391 4.158c-.02.408-.073.806-.157 1.192 17.663 7.829 34.382 18.233 48.586 31.457a7.206 7.206 0 0 1 4.292-1.159 7.243 7.243 0 0 1 5.753 11.126c6.582 7.212 12.45 15.05 17.69 23.434l.004.008c5.017 8.329 9.233 17.104 12.814 26.157a7.244 7.244 0 0 1 7.743 7.573 7.232 7.232 0 0 1-3.289 5.721c5.532 19.216 7.982 39.248 7.982 59.186h-2.084c0-19.639-2.396-39.37-7.813-58.305a7.244 7.244 0 0 1-9.26-7.303 7.246 7.246 0 0 1 4.66-6.419c-3.511-8.832-7.635-17.395-12.533-25.528-5.124-8.198-10.859-15.871-17.287-22.938a7.22 7.22 0 0 1-5.081 1.752 7.245 7.245 0 0 1-6.882-7.583 7.212 7.212 0 0 1 1.718-4.34c-13.972-12.971-30.399-23.184-47.747-30.885a7.246 7.246 0 0 1-6.692 3.735 7.243 7.243 0 0 1-6.639-9.124 216.41 216.41 0 0 0-27.425-7.944c-9.841-2.144-19.682-3.716-29.71-4.34Zm68.545 16.832a5.398 5.398 0 0 0 .731-2.406 5.16 5.16 0 0 0-4.902-5.401 5.16 5.16 0 0 0-4.965 3.062l-.212.563a5.158 5.158 0 0 0 4.678 6.677c1.962.095 3.793-1.008 4.67-2.495Zm95.098 101.467a5.152 5.152 0 0 0 2.358-4.085 5.159 5.159 0 0 0-6.216-5.296l-.724.279-.023-.061a5.158 5.158 0 0 0 3.256 9.781l-.059-.196 1.408-.422ZM92.79 199.015a5.16 5.16 0 0 0-5.401 4.902 5.16 5.16 0 0 0 4.902 5.401 5.16 5.16 0 0 0 5.4-4.902 5.16 5.16 0 0 0-4.901-5.401Zm130.654 55.361a5.16 5.16 0 0 0-5.401 4.901 5.158 5.158 0 1 0 5.401-4.901Z" style="fill:#768293" transform="rotate(-2.774 241.918 409.085)"/><path d="M113.829 156.489c-24.99-6.997-50.956-10.226-76.829-10.226v-3.125c26.22 0 52.534 3.284 77.855 10.394.906-1.713 2.308-3.097 4.079-4.093l.068-.034c2.317-1.158 5.067-1.439 7.673-.574 4.753 1.547 7.533 6.052 6.849 10.704 23.391 8.544 45.518 20.962 64.535 37.093a9.808 9.808 0 0 1 5.368-1.948c2.667-.148 5.462.78 7.394 2.821 3.498 3.419 3.999 8.666 1.53 12.474 9.111 9.465 17.195 19.848 24.165 30.882 3.726 5.741 6.95 11.783 10.086 17.853l4.317 9.236.514 1.13.52 1.249.903 2.408.813 2.012a9.447 9.447 0 0 1 5.829.86c1.163.582 2.302 1.343 3.175 2.361.859 1.003 1.562 2.157 1.996 3.458l.004.012c1.531 4.723-.375 9.623-4.388 11.858 3.662 11.882 6.611 24.09 8.459 36.467l.796 4.976.212 1.163.103 1.347.296 2.468 1.201 10.102c.203 1.73.306 3.461.408 5.191l.599 10.184.201 2.514.101 2.532-3.122.124-.099-2.468-.199-2.486-.601-10.216c-.098-1.67-.195-3.339-.392-5.009l-1.199-10.098-.304-2.532-.097-1.253-.188-1.037-.804-5.024-.001-.008c-1.818-12.176-4.716-24.185-8.314-35.876-4.886.937-9.765-1.817-11.397-6.441l-.009-.026c-.455-1.365-.587-2.733-.439-3.949.137-1.225.325-2.309.834-3.383.791-2.001 2.297-3.702 4.382-4.79l-.768-1.899-.897-2.392-.48-1.151-.486-1.07-4.283-9.164c-3.072-5.945-6.242-11.891-9.914-17.547l-.005-.009c-6.822-10.802-14.731-20.97-23.639-30.245-3.954 3.148-9.716 2.955-13.15-.479-1.871-1.871-2.866-4.18-3.01-6.626-.126-2.145.483-4.303 1.827-6.283-18.672-15.81-40.381-27.986-63.325-36.383-2.206 4.397-7.311 6.643-12.071 5.147l-.051-.018c-2.43-.858-4.428-2.57-5.587-4.818-1.003-1.693-1.487-4.016-1.044-6.34Zm3.271-.189c-.6 1.8-.3 3.7.5 5 .8 1.6 2.2 2.8 3.9 3.4 3.5 1.1 7.3-.8 8.6-4.3 1.3-3.6-.7-7.4-4.4-8.6-1.8-.6-3.7-.4-5.3.4-1.6.9-2.8 2.3-3.3 4.1Zm81.8 43.8c-1.2 1.5-1.8 3.2-1.7 4.9.1 1.7.8 3.3 2.1 4.6 2.5 2.5 6.8 2.4 9.5-.2s2.6-7-.2-9.7c-1.3-1.4-3.2-2-5-1.9-1.8.1-3.5.9-4.7 2.3Zm54 78.1c-1.8.7-3.1 2-3.7 3.6-.4.8-.5 1.6-.6 2.5-.1.8 0 1.7.3 2.6 1.2 3.4 5 5.3 8.6 4.2 3.6-1.1 5.4-5 4.2-8.7-.3-.9-.8-1.7-1.4-2.4-.6-.7-1.4-1.2-2.2-1.6-1.6-.8-3.5-.9-5.2-.2Z" style="fill:#c1c8d3" transform="translate(0 .72)"/><path d="M72.324 72.265a213.455 213.455 0 0 0-35.332-3.223l.016-2.084a215.61 215.61 0 0 1 35.762 3.271 4.969 4.969 0 0 1 4.435-2.906 4.952 4.952 0 0 1 5.03 4.763c11.4 2.492 22.544 5.922 33.429 10.131a4.952 4.952 0 0 1 3.769-1.834 4.95 4.95 0 0 1 5.004 5.497c10.49 4.734 20.641 10.217 30.3 16.45a4.951 4.951 0 0 1 7.841 5.403l2.64 1.828 7.437 5.829 1.825 1.52 1.809 1.608 7.12 6.218 5.719 5.634a4.952 4.952 0 0 1 6.485 6.937l.015-.012c1.892 2.213 3.867 4.321 5.771 6.547l5.423 6.87 2.768 3.401 2.508 3.63 4.68 6.704a4.952 4.952 0 0 1 5.585 7.898c1.369 2.251 2.788 4.454 4.143 6.741l4.506 8.311 2.316 4.128 2.016 4.334 3.342 7.102a4.95 4.95 0 0 1 5.718 4.82 4.958 4.958 0 0 1-1.993 4.047l3.052 7.376.909 2.221 2.409 6.626 3.105 8.913.002.007c.817 2.45 1.501 4.901 2.215 7.352a4.952 4.952 0 0 1 5.38 4.861 4.968 4.968 0 0 1-2.681 4.479c.675 2.461 1.243 4.962 1.812 7.398l2.196 9.184c.804 3.019 1.309 6.138 1.913 9.257l1.494 7.721a4.951 4.951 0 0 1 4.757 4.876 4.97 4.97 0 0 1-3.13 4.685l2.39 17.192 1.698 16.709a4.953 4.953 0 0 1 4.327 4.84 4.971 4.971 0 0 1-3.635 4.855l1.017 17.373v.013c.2 6.206.3 12.512.401 18.817l-2.084.034c-.099-6.29-.199-12.58-.399-18.77l-1.014-17.343a4.953 4.953 0 0 1-4.199-4.823 4.97 4.97 0 0 1 3.51-4.819l-1.69-16.638-2.377-17.095a4.95 4.95 0 0 1-4.728-4.874 4.972 4.972 0 0 1 3.103-4.674l-1.487-7.683c-.595-3.076-1.09-6.153-1.887-9.143l-2.204-9.216v-.002c-.563-2.412-1.125-4.889-1.793-7.325a4.95 4.95 0 0 1-5.223-4.872 4.965 4.965 0 0 1 2.542-4.405c-.709-2.433-1.387-4.866-2.198-7.299l-3.095-8.887-2.391-6.574-.891-2.179-3.02-7.297a4.952 4.952 0 0 1-6.026-4.762 4.96 4.96 0 0 1 2.246-4.224l-3.281-6.972-1.984-4.266-2.284-4.072-4.496-8.292c-1.312-2.213-2.691-4.359-4.026-6.548a4.952 4.952 0 0 1-5.532-7.988l-4.723-6.767-2.469-3.574-2.731-3.355-5.411-6.854c-1.81-2.115-3.694-4.135-5.51-6.243a4.952 4.952 0 0 1-6.798-7.099l-5.501-5.419-7.08-6.182-1.791-1.592-1.775-1.48-7.363-5.771-2.472-1.712a4.952 4.952 0 0 1-8.076-5.559c-9.461-6.092-19.397-11.46-29.663-16.102a4.966 4.966 0 0 1-4.186 2.43 4.95 4.95 0 0 1-4.871-6.212c-10.696-4.125-21.642-7.491-32.84-9.944a4.97 4.97 0 0 1-4.517 3.097 4.952 4.952 0 0 1-5.033-4.879v-.093Zm2.093-.216a2.869 2.869 0 0 0 2.906 3.105 2.883 2.883 0 0 0 2.831-2.922 2.868 2.868 0 0 0-2.915-2.826 2.885 2.885 0 0 0-2.716 2.07l-.106.573Zm194.003 260.82a2.885 2.885 0 0 0-1.991 2.782 2.868 2.868 0 0 0 2.915 2.826 2.884 2.884 0 0 0 2.832-2.922 2.868 2.868 0 0 0-2.55-2.808l-1.206.122ZM119.468 82.466a2.882 2.882 0 0 0-2.832 2.921 2.868 2.868 0 0 0 2.915 2.826 2.882 2.882 0 0 0 2.832-2.921 2.867 2.867 0 0 0-2.915-2.826Zm38.368 20.82a2.884 2.884 0 0 0-2.832 2.922 2.868 2.868 0 0 0 2.915 2.826 2.884 2.884 0 0 0 2.832-2.922 2.868 2.868 0 0 0-2.915-2.826Zm33.459 28.646a2.884 2.884 0 0 0-2.832 2.922 2.868 2.868 0 0 0 2.915 2.826 2.884 2.884 0 0 0 2.832-2.922 2.868 2.868 0 0 0-2.915-2.826Zm27.359 34.21a2.883 2.883 0 0 0-2.831 2.922 2.868 2.868 0 0 0 2.915 2.826 2.884 2.884 0 0 0 2.832-2.922 2.869 2.869 0 0 0-2.916-2.826Zm20.752 38.844a2.882 2.882 0 0 0-2.832 2.921 2.868 2.868 0 0 0 2.915 2.826 2.882 2.882 0 0 0 2.832-2.921 2.867 2.867 0 0 0-2.915-2.826Zm15.079 41.402a2.883 2.883 0 0 0-2.832 2.922 2.867 2.867 0 0 0 2.915 2.825 2.882 2.882 0 0 0 2.832-2.921 2.868 2.868 0 0 0-2.915-2.826Zm9.491 42.915a2.883 2.883 0 0 0-2.832 2.922 2.867 2.867 0 0 0 2.915 2.825 2.882 2.882 0 0 0 2.832-2.921 2.868 2.868 0 0 0-2.915-2.826Z" style="fill:#768293" transform="rotate(.952 233.594 525.437)"/><path d="M278.4 374.6c1.1 4.5-1.7 9-6.2 10.2-4.5 1.1-9-1.7-10.2-6.2-1.1-4.5 1.7-9 6.2-10.2 4.6-1 9.1 1.7 10.2 6.2Z" style="fill:#f9f8f7;fill-rule:nonzero" transform="translate(0 .047)"/><path d="M280.343 374.125c1.358 5.555-2.073 11.126-7.648 12.613l-.02.005c-5.555 1.358-11.126-2.073-12.613-7.648l-.005-.02c-1.358-5.555 2.073-11.126 7.673-12.619l.045-.01c5.676-1.234 11.211 2.127 12.568 7.679Zm-1.943.475c-1.1-4.5-5.6-7.2-10.2-6.2-4.5 1.2-7.3 5.7-6.2 10.2 1.2 4.5 5.7 7.3 10.2 6.2 4.5-1.2 7.3-5.7 6.2-10.2Z" style="fill:#d77526" transform="translate(0 .047)"/><path d="M281.5 389.9c-2.6-26.9.1-54.6 8.2-80.9 8.1-26.3 21.5-51.1 39.3-72.6 17.8-21.5 40-39.7 65-52.9 25.1-13.3 53-21.6 81.6-24.2h.1c7.9-.7 14.9 5.1 15.6 13 .7 7.9-5.1 14.9-13 15.6-.4 0-.8.1-1.2.1-25 .3-50.2 5.5-73.6 15.6-23.4 10-44.9 24.8-63 43.4-18.1 18.5-32.6 40.8-42.3 65.2-9.8 24.4-14.6 51-14.2 77.7 0 .7-.6 1.3-1.3 1.3-.5 0-1.1-.6-1.2-1.3Z" style="fill:#fff;fill-rule:nonzero" transform="translate(0 .047)"/><path d="M285.7 385c1.6-20.4 7.2-40.7 16.7-59.3 9.5-18.6 22.7-35.3 38.8-49.1 16.1-13.7 35-24.4 55.5-31 20.4-6.6 42.4-9.2 64.1-7.4h.1c6 .5 10.5 5.7 10 11.7-.5 6-5.7 10.5-11.7 10-.3 0-.6-.1-.9-.1-18.7-3.1-38.2-2.5-56.9 2-18.8 4.4-36.8 12.6-52.7 24.1-15.9 11.5-29.7 26.2-40.1 43.1-10.5 16.9-17.6 36.1-20.8 56.1-.1.5-.6.9-1.1.8-.6.1-1-.4-1-.9ZM258.1 381.6c-5.4-15.2-13.7-29.2-24.4-41-10.6-11.8-23.5-21.3-37.7-28-14.1-6.7-29.4-10.5-44.7-11.3-15.3-.8-30.7 1.6-44.9 6.7-4.5 1.6-9.5-.7-11.1-5.2-1.6-4.5.7-9.5 5.2-11.1.2-.1.4-.1.7-.2h.1c16.7-4.5 34.3-5.7 51.2-3.5 17 2.2 33.3 7.8 47.9 16.3 14.6 8.4 27.4 19.7 37.5 32.8 10.1 13.2 17.5 28.2 21.7 44 .1.4-.1.9-.6 1-.3.1-.7-.1-.9-.5Z" style="fill:#fff;fill-rule:nonzero" transform="translate(0 .047)"/></svg>