<svg viewBox="0 0 512 512" xmlns="http://www.w3.org/2000/svg" xml:space="preserve" style="fill-rule:evenodd;clip-rule:evenodd;stroke-linejoin:round;stroke-miterlimit:2"><path style="fill:none" d="M0 0h512v512H0z"/><path d="M385.6 37.6c-23.9 8.5-45.9 21.6-64.4 38.4-18.5 16.7-33.5 37-44 59.2-10.5 22.2-16.6 46.3-17.8 70.4-1.2 24.1 2.5 48.2 10.5 70.6 2.5 7.1-1.1 14.9-8.2 17.5-7.1 2.5-14.9-1.1-17.5-8.2-.1-.3-.2-.7-.3-1v-.1c-7.1-26.3-9-53.9-5.4-80.6 3.5-26.7 12.3-52.4 25.6-75.4 13.2-23 30.9-43.1 51.6-59 20.7-15.9 44.4-27.5 69.2-34.1.7-.2 1.3.2 1.5.9.1.5-.2 1.2-.8 1.4Z" style="fill:#fff;fill-rule:nonzero"/><path d="M268.495 322.998c-5.501 7.258-9.05 15.82-10.977 24.722l-2.036-.44c2.002-9.25 5.71-18.14 11.449-25.667-1.218-1.678-1.213-4 .291-5.673 1.389-1.658 3.77-2.049 5.595-1.09 6.076-6.138 13.207-11.116 20.697-15.245-.439-1.982.522-4.152 2.354-5.068 1.825-.913 4.151-.414 5.518 1.062 7.84-3.841 15.975-7.17 24.056-10.61a4.48 4.48 0 0 1 2.81-4.933c1.944-.748 4.016-.131 5.28 1.361 7.665-3.465 15.212-7.276 22.071-12.134-.689-1.851-.199-4.027 1.431-5.238 1.493-1.168 3.696-1.273 5.345-.195 3.151-2.957 5.967-6.234 8.243-9.911l.008-.012c2.301-3.494 3.93-7.362 5.151-11.406-1.781-1.025-2.665-3.024-2.211-4.989.447-1.936 1.99-3.369 3.907-3.56.532-4.092.651-8.297.482-12.43a58.554 58.554 0 0 0-1.804-12.254c-1.956-.013-3.839-1.253-4.431-3.029-.588-1.763-.018-3.792 1.495-5.053a40.261 40.261 0 0 0-7.182-10.596l-.005-.006c-2.792-3.046-6.175-5.576-9.824-7.592-1.315 1.397-3.448 1.945-5.209 1.211-1.813-.755-2.927-2.743-2.732-4.75-7.846-2.623-16.279-3.348-24.559-2.802-.369 1.955-1.949 3.489-3.891 3.788-1.99.306-4.014-.876-4.84-2.769-8.442 1.472-16.7 4.254-24.297 8.348.487 1.97-.371 4.129-2.016 5.054-1.648 1.011-3.883.732-5.349-.487-3.355 2.423-6.475 5.091-9.238 8.188-2.734 3.066-5.119 6.481-6.789 10.191 1.591 1.188 2.29 3.271 1.688 5.075-.714 2.143-3.012 3.614-5.513 3.078-2.55-.546-4.105-3.041-3.371-5.792l.005-.017c.658-2.304 3.073-3.602 5.286-3.189 1.758-3.905 4.262-7.505 7.14-10.732 2.856-3.203 6.079-5.965 9.546-8.472-.936-2.1-.228-4.58 1.898-5.744a4.527 4.527 0 0 1 5.763.992c7.775-4.184 16.223-7.031 24.86-8.541.068-2.192 1.619-4.081 4.027-4.406 2.277-.319 4.421 1.212 5.012 3.352 8.53-.556 17.216.208 25.3 2.909 1.16-1.888 3.587-2.767 5.716-1.801 2.286.993 3.245 3.308 2.597 5.507 3.834 2.122 7.385 4.786 10.321 7.987a42.323 42.323 0 0 1 7.504 11.052c2.212-.583 4.565.632 5.395 2.957.831 2.327-.29 4.652-2.275 5.625a60.759 60.759 0 0 1 1.854 12.634c.173 4.241.05 8.555-.494 12.755 2.152.707 3.488 3.001 2.99 5.324-.492 2.298-2.617 3.805-4.773 3.624-1.278 4.219-2.985 8.25-5.379 11.889-2.361 3.813-5.285 7.223-8.56 10.3 1.117 1.856.788 4.495-1.04 5.99l-.035.027c-1.947 1.46-4.459 1.266-6.026-.325-6.916 4.886-14.515 8.735-22.236 12.229.526 2.134-.551 4.348-2.583 5.209-1.974 1.048-4.389.288-5.672-1.564-8.012 3.41-16.077 6.71-23.852 10.516.561 2.124-.409 4.343-2.307 5.31-1.811.971-4.236.44-5.638-1.267-7.249 4.005-14.155 8.818-20.048 14.749.589.796.895 1.696.895 2.576l-.028-.342.041.971a4.168 4.168 0 0 1-.187.943 4.195 4.195 0 0 1-.995 1.66c-1.451 1.579-3.736 2.012-5.619.966ZM355.1 181c.6-1.3.1-2.8-1.3-3.4-1.3-.6-2.8.1-3.3 1.4-.5 1.3.1 2.8 1.3 3.3s2.7-.1 3.3-1.3Zm-86 139.9c1.1.9 2.6.7 3.5-.3.5-.5.7-1.2.6-1.8 0-.6-.3-1.2-.8-1.7-1-1-2.7-.9-3.6.2-1 1.1-.8 2.7.3 3.6Zm58.6-35.6c.6 1.3 2.1 2 3.3 1.3 1.3-.5 1.9-2 1.3-3.3-.6-1.2-2-1.8-3.3-1.3-1.3.5-1.9 2-1.3 3.3Zm-6-109.7c-.1-1.4-1.4-2.5-2.8-2.3-1.5.2-2.4 1.5-2.2 2.9.2 1.4 1.5 2.4 2.8 2.2 1.3-.2 2.3-1.4 2.2-2.8Zm-33.3 10.3c-.7-1.2-2.2-1.6-3.4-.9-1.3.7-1.6 2.3-.8 3.5.7 1.1 2.3 1.5 3.4.8 1.1-.6 1.5-2.2.8-3.4Zm-23 24.4c-1.3-.5-2.9.2-3.3 1.6-.4 1.5.4 2.9 1.8 3.2 1.4.3 2.7-.5 3.1-1.7.4-1.2-.3-2.6-1.6-3.1Zm30.4 89.5c.7 1.2 2.2 1.7 3.3 1.1 1.2-.6 1.7-2.1 1.1-3.4-.6-1.2-2.2-1.7-3.4-1.1-1.2.6-1.7 2.2-1 3.4Zm81.7-58.8c1.3.4 2.7-.5 3-1.9.3-1.4-.6-2.8-2-3-1.4-.3-2.6.6-2.9 1.9-.3 1.3.5 2.6 1.9 3Zm-.6-33.9c1.3-.4 2.1-1.8 1.6-3.2-.5-1.4-2-2.1-3.3-1.5-1.3.6-1.9 2-1.5 3.2.4 1.2 1.9 1.9 3.2 1.5Zm-19 62.1c.8 1.2 2.4 1.4 3.6.5 1.1-.9 1.2-2.6.3-3.6-.9-1.1-2.5-1.2-3.5-.4-1.1.8-1.2 2.4-.4 3.5Z" style="fill:#c1c8d3"/><path d="M254.786 196.856a9.48 9.48 0 0 1 3.437 3.245c.565.856.998 1.846 1.282 2.84.324 1.134.351 2.267.189 3.401-.148 1.031-.557 2.072-.999 2.956l-.087.174-.108.161c-.563.846-1.254 1.563-2.11 2.277l-.011.009c-1.597 1.306-3.911 2.206-6.379 2.206-2.669 0-5.031-1.241-6.601-3.124-.783-.94-1.417-2.19-1.731-3.443-.306-1.225-.425-2.758-.119-4.136.271-1.217.697-2.426 1.238-3.372l.078-.138.092-.128a10.735 10.735 0 0 1 2.417-2.447c1.856-1.522 4.18-2.01 6.466-1.57a49.74 49.74 0 0 1 2.098-5.084c1.345-2.793 2.796-5.481 4.555-7.964 1.744-2.463 3.593-4.925 5.646-7.182a95.746 95.746 0 0 1 6.443-6.443l.007-.006c8.202-7.28 17.649-12.982 27.745-17.251-1.185-4.505 1.243-9.421 6.134-11.004l.041-.012c2.505-.736 5.009-.435 7.069.584 2.022.953 3.495 2.574 4.275 4.703 4.899-1.157 9.916-2.006 14.933-2.432 6.025-.51 12.153-.509 18.178.103a75.41 75.41 0 0 1 17.712 3.988c2.879.927 5.658 2.259 8.466 3.611l.032.017c2.022 1.089 4.044 2.238 5.976 3.49 1.534-1.702 3.591-2.664 5.634-2.822 2.447-.281 5.177.488 7.162 2.427 2.033 1.788 3.064 4.277 3.115 6.628.226 2.211-.441 4.316-1.989 6.085 7.023 8.41 11.971 18.448 14.836 29.071 1.631 5.811 2.652 11.827 3.264 17.842.495 4.869.59 9.805.234 14.7 2.128.477 3.897 1.628 5.214 3.341 1.502 1.951 2.058 4.478 1.628 7.164-.174 1.42-.769 2.702-1.561 3.81-.749 1.048-1.661 1.931-2.683 2.537-1.757 1.172-4.057 1.602-6.247 1.213a65.725 65.725 0 0 1-6.673 13.661c-3.276 5.119-7.166 9.83-11.467 14.131-8.012 8.012-17.364 14.685-26.97 20.683 2.002 4.235.455 9.286-3.688 11.857l-.054.031c-4.186 2.372-9.38 1.233-12.09-2.493-9.429 5.264-18.989 10.261-28.386 15.502-9.389 5.236-18.698 10.797-27.407 17.202 2.213 3.95 1.351 8.874-2.08 11.661-3.384 2.925-8.445 2.853-11.951-.174-7.841 7.453-14.597 16.133-19.202 25.974-5.027 10.745-7.288 22.675-7.288 34.504h-3.14c0-12.287 2.362-24.675 7.584-35.835 4.799-10.257 11.844-19.307 20.031-27.059-2.152-3.727-1.4-8.609 2.192-11.668l.026-.021c3.608-2.941 8.615-2.697 11.861.167 8.846-6.516 18.303-12.172 27.844-17.493 9.438-5.264 19.04-10.281 28.51-15.571-1.249-4.03.312-8.551 4.144-10.797l.015-.009c3.65-2.085 8.32-1.397 11.284 1.641 9.451-5.893 18.664-12.442 26.545-20.323 4.14-4.14 7.888-8.674 11.042-13.603a62.576 62.576 0 0 0 6.362-13.028c-1.423-.789-2.58-1.899-3.517-3.252l-.015-.023c-.66-.99-1.135-2.153-1.3-3.308a11.177 11.177 0 0 1-.007-3.044l.014-.114.023-.113c.456-2.284 1.779-4.143 3.606-5.513 1.299-.974 2.907-1.586 4.662-1.781.351-4.741.26-9.522-.22-14.239-.593-5.839-1.581-11.678-3.167-17.327l-.002-.008c-2.749-10.197-7.491-19.838-14.236-27.907-1.449.831-3.082 1.277-4.642 1.296-2.276.125-4.411-.614-6.288-2.178l-.05-.045c-1.651-1.502-2.609-3.576-2.909-5.828l-.014-.103-.007-.103c-.103-1.544.101-3.157.743-4.69-1.861-1.208-3.81-2.315-5.759-3.365-2.637-1.269-5.272-2.542-8.031-3.429l-.024-.008a72.317 72.317 0 0 0-17.015-3.836c-5.832-.593-11.763-.592-17.595-.098-4.901.416-9.802 1.25-14.586 2.385.072 1.732-.304 3.433-1.046 4.83-1.083 2.139-2.913 3.683-5.212 4.45-3.905 1.301-8.192-.222-10.565-3.777-9.811 4.139-18.994 9.667-26.961 16.737a92.119 92.119 0 0 0-6.218 6.219c-1.967 2.163-3.736 4.525-5.408 6.885-1.658 2.341-3.02 4.878-4.288 7.511a46.91 46.91 0 0 0-1.981 4.811Zm96.129 105.345c1.608 3.015 5.427 4.02 8.441 2.311 2.914-1.808 3.919-5.526 2.111-8.441-1.809-2.914-5.527-3.818-8.341-2.21-2.914 1.708-3.818 5.426-2.211 8.34ZM251.9 199c-1.6-.5-3.3-.3-4.6.8-.7.5-1.3 1.1-1.8 1.8-.4.7-.7 1.6-.9 2.5-.2.9-.1 1.9.1 2.7.2.8.6 1.6 1.1 2.2 1 1.2 2.5 2 4.2 2 1.7 0 3.3-.6 4.4-1.5.6-.5 1.1-1 1.5-1.6.3-.6.6-1.3.7-2 .1-.7.1-1.4-.1-2.1-.2-.7-.5-1.4-.9-2-.8-1.3-2.1-2.3-3.7-2.8Zm61.232-51.046c-.401-1.708-1.406-3.015-2.914-3.718-1.406-.703-3.115-.904-4.823-.402-3.417 1.105-5.024 4.723-3.818 7.838 1.306 3.216 4.622 4.823 7.636 3.819 1.508-.503 2.714-1.508 3.417-2.915.703-1.306.904-3.014.502-4.622Zm79.084 17.686c1.306-1.206 1.909-2.713 1.708-4.321 0-1.608-.704-3.316-2.11-4.522-1.307-1.306-3.116-1.809-4.723-1.608-1.508.101-3.015.904-4.02 2.311-1.005 1.407-1.306 3.015-1.206 4.522.201 1.507.804 2.914 1.91 3.919 1.205 1.005 2.612 1.507 4.12 1.407 1.507 0 3.115-.603 4.321-1.708Zm17.384 77.977c1.608.503 3.416.302 4.723-.603.703-.402 1.306-1.004 1.808-1.708.503-.703.905-1.507 1.005-2.412.302-1.808 0-3.517-1.005-4.823-1.005-1.306-2.411-2.11-4.12-2.311-1.708-.101-3.316.301-4.521 1.206-1.206.904-2.111 2.11-2.412 3.617a8.095 8.095 0 0 0 0 2.211c.1.703.402 1.407.804 2.01.904 1.306 2.11 2.311 3.718 2.813ZM280.474 346.013c2.311 2.513 6.029 2.814 8.441.704 2.512-2.01 2.914-5.728.905-8.441-2.01-2.713-5.929-3.216-8.642-1.005-2.713 2.311-3.015 6.23-.704 8.742Z" style="fill:#d77526" transform="matrix(.99516 0 0 .99516 1.184 .963)"/><path d="M123.532 273.524c-1.902-.852-3.033-2.993-2.569-5.161.479-2.234 2.477-3.672 4.68-3.608.562-3.426 3.244-14.748 11.713-23.142-1.191-1.745-.986-4.229.606-5.821l.037-.034c1.67-1.518 3.973-1.597 5.661-.502a50.463 50.463 0 0 1 10.795-6.998l.004-.002c3.912-1.825 7.971-3.132 12.115-4.045.144-2.142 1.829-4 3.998-4.182 2.146-.276 4.137.985 4.845 2.906 8.789-.585 17.624.63 25.945 3.369a4.659 4.659 0 0 1 1.806-1.567 4.182 4.182 0 0 1 3.66-.05c1.973.803 3.066 2.868 2.786 4.911 7.73 3.6 14.82 8.469 20.762 14.604 1.827-.905 4.175-.485 5.536 1.179 1.662 2.031 1.265 4.973-.728 6.46-2.026 1.625-4.945 1.193-6.411-.64-1.309-1.636-1.321-4.003-.01-5.669-5.711-5.865-12.508-10.527-19.911-13.99-1.227 1.765-3.421 2.464-5.311 1.834l-.877-.415a4.21 4.21 0 0 1-1.325-1.325l-.415-.877.061.162c-.404-.943-.564-1.787-.398-2.679-7.997-2.615-16.479-3.783-24.921-3.236-.217 2.179-1.847 3.968-3.925 4.164a4.562 4.562 0 0 1-4.852-2.895c-3.949.879-7.816 2.128-11.544 3.867a48.349 48.349 0 0 0-10.253 6.631c1.08 1.863.823 4.124-.575 5.556-1.3 1.413-3.697 1.741-5.608.678-8.346 8.208-10.817 19.421-11.244 22.29 1.842.987 2.698 2.998 2.382 4.893l-.01.047c-.472 2.201-2.322 3.697-4.46 3.706a43.718 43.718 0 0 0 .052 12.097l.298 1.789c.092.547.179 1.095.361 1.642.388 1.164.575 2.331 1.06 3.398l.02.044.016.045c.545 1.568 1.235 3.087 2 4.56 2.036-.703 4.363.05 5.369 1.752 1.228 1.781 1.004 4.099-.533 5.638 2.6 3.226 5.613 6.168 8.845 8.89 3.327 2.713 6.808 5.195 10.376 7.513 1.456-1.612 3.954-2.005 5.732-.897 1.907 1.129 2.624 3.495 1.901 5.53 7.177 4.155 14.616 7.849 22.009 11.574 1.28-1.756 3.619-2.365 5.69-1.41l.063.03.062.033c1.787.975 2.77 3.247 2.154 5.402 7.653 3.886 15.286 7.876 22.626 12.307 1.448-1.68 4.005-2.129 5.978-.813l.075.05.07.056c1.601 1.28 2.217 3.57 1.401 5.565 6.855 4.731 13.282 10.09 18.616 16.56 1.921-1.017 4.357-.474 5.794 1.283l.089.108.073.119c1.261 2.049.896 4.485-.651 5.919 4.718 7.969 7.124 17.012 7.124 26.252h-2.083c0-8.865-2.306-17.541-6.832-25.186-1.907.658-3.979.004-5.189-1.63-1.195-1.532-1.127-3.834.102-5.498-5.226-6.349-11.537-11.598-18.262-16.237a4.508 4.508 0 0 1-5.401.43c-1.645-1.047-2.38-3.19-1.87-5.128-7.347-4.441-14.99-8.435-22.654-12.325a4.504 4.504 0 0 1-5.39 1.058c-1.839-.919-2.818-2.99-2.418-5.032-7.489-3.774-15.027-7.516-22.297-11.729-1.477 1.431-3.829 1.742-5.526.684-1.819-1.076-2.555-3.278-1.992-5.244-3.678-2.385-7.267-4.939-10.7-7.74l-.006-.005c-3.39-2.855-6.544-5.946-9.257-9.34-1.898.73-4.168.154-5.405-1.701-1.243-1.864-.911-4.25.547-5.729-.836-1.593-1.588-3.24-2.179-4.933-.503-1.123-.716-2.343-1.123-3.565-.218-.653-.331-1.305-.439-1.958l-.302-1.81-.002-.011a45.803 45.803 0 0 1-.037-12.826Zm65.353 67.908.015-.032c.6-1.3.1-2.8-1-3.4-1.3-.6-2.8-.1-3.4 1.2-.6 1.3-.1 2.8 1.1 3.4 1.156.578 2.591.135 3.231-1.062l.054-.106ZM125 271.8c1.4.3 2.7-.6 3-2 .2-1.2-.5-2.5-1.9-2.9-1.4-.3-2.8.5-3.1 1.9-.3 1.4.6 2.8 2 3Zm14.5-30.9c1.1.9 2.7.9 3.5 0 .9-.9.9-2.4 0-3.5-.9-1-2.5-1.1-3.6-.1-1 1-1 2.7.1 3.6Zm29.2-15.9c.2 1.4 1.5 2.3 2.8 2.1 1.3-.1 2.2-1.4 2.1-2.8-.1-1.4-1.4-2.4-2.8-2.2-1.4.1-2.4 1.5-2.1 2.9Zm34.1 3.1c-.3.7-.2 1.3.1 2 .2.6.7 1.1 1.3 1.3 1.2.4 2.6-.2 3.2-1.5.5-1.3-.1-2.8-1.4-3.3-.6-.3-1.3-.3-1.9 0-.6.3-1.1.8-1.3 1.5Zm27.9 18.4c-1 .9-1.1 2.4-.3 3.4s2.4 1.2 3.5.3c1.1-.8 1.3-2.4.4-3.5s-2.6-1.2-3.6-.2Zm-98.4 57.3c1.2-.8 1.5-2.3.7-3.4-.6-1.1-2.2-1.4-3.4-.7-1.2.7-1.6 2.3-.8 3.5.8 1.2 2.4 1.4 3.5.6Zm26.6 21.9c.7-1.2.4-2.8-.8-3.5-1.1-.7-2.7-.3-3.4.9-.7 1.2-.4 2.8.8 3.5 1.1.7 2.7.3 3.4-.9Zm60.2 32.6c.7-1.2.4-2.7-.6-3.5-1.2-.8-2.8-.4-3.5.8-.7 1.2-.4 2.8.7 3.5 1.1.7 2.6.4 3.4-.8Zm24.2 23.2c1.2-.7 1.5-2.3.7-3.6-.9-1.1-2.5-1.4-3.6-.5-1.1.9-1.4 2.5-.6 3.5.8 1.1 2.3 1.4 3.5.6Z" style="fill:#404751" transform="translate(-.986 -.554)"/><path d="M95.421 302.94c-1.455.133-2.893-.174-4.274-.927l-.055-.033c-1.663-.998-3.136-2.676-3.642-4.999-.487-2.133-.235-4.253.95-6.117l.04-.056c.824-1.178 1.923-2.151 3.2-2.746-1.171-8.502-.901-17.225.414-25.688.303-2.218.806-4.536 1.209-6.754l.012-.066.018-.065c.602-2.211 1.007-4.42 1.705-6.619.61-2.235 1.321-4.369 2.138-6.615l.004-.011c.48-1.261.996-2.557 1.547-3.826-1.062-.897-1.871-2.106-2.339-3.491-.647-1.823-.433-4.144.557-6.125 1.013-2.027 3.015-3.41 4.905-3.926l.032-.008c1.449-.362 2.901-.305 4.29.187 4.858-6.756 10.954-12.635 17.929-17.073 6.921-4.404 14.709-7.468 22.742-9.256.207-3.527 2.95-6.598 6.905-7.038l.052-.004c2.172-.167 4.312.444 5.816 1.78a7.995 7.995 0 0 1 2.222 3.269c8.589-.365 17.24.548 25.635 2.34l.006.002c8.209 1.824 16.091 4.551 23.643 8.106 2.293-2.608 6.272-3.357 9.556-1.502l.071.041.069.044c1.799 1.145 3.063 2.815 3.554 4.778a7.666 7.666 0 0 1-.094 4.098c6.913 4.565 13.217 10.018 18.561 16.358l.004.005c5.242 6.327 9.443 13.691 11.707 21.666 1.515.059 2.985.591 4.109 1.464 1.453 1.131 2.752 3.064 3.075 5.325l.015.109.008.11c.165 2.309-.462 4.415-1.781 5.899-1.38 1.552-3.294 2.549-5.536 2.549-2.051 0-3.799-.754-5.219-1.858l-.071-.056-.068-.059c-1.361-1.191-2.478-2.932-2.654-4.972-.289-3.12 1.736-6.57 5.035-7.941-2.163-7.447-6.118-14.318-11.022-20.237-5.085-6.032-11.079-11.23-17.647-15.597-1.118 1.315-2.546 2.14-4.051 2.441-1.817.466-3.789.285-5.627-.717l-.026-.016c-3.151-1.8-4.583-5.752-3.496-9.197-7.282-3.411-14.878-6.031-22.787-7.789-8.034-1.715-16.316-2.605-24.543-2.284-.111 1.674-.751 3.126-1.82 4.356-1.167 1.453-2.948 2.449-4.745 2.776l-.077.014-.078.01c-3.443.449-6.951-1.71-8.227-5.176-7.607 1.714-14.981 4.623-21.538 8.795-6.565 4.178-12.308 9.698-16.908 16.037 1.241 1.098 2.03 2.494 2.322 4.068.448 1.798.156 3.747-.658 5.375l-.054.107-.061.103c-.975 1.625-2.425 2.779-4.212 3.429-1.477.537-3.066.578-4.698.119a88.64 88.64 0 0 0-1.406 3.489c-.783 2.155-1.469 4.211-2.065 6.398l-.01.031c-.686 2.157-1.079 4.315-1.663 6.468-.394 2.159-.884 4.412-1.18 6.584l-.002.014c-1.259 8.096-1.534 16.44-.438 24.577 1.584.017 3.158.503 4.327 1.283 1.504 1.002 2.798 2.537 3.299 4.542.491 1.966.207 3.776-.713 5.424-.607 1.432-1.748 2.608-3.198 3.373 2.794 7.288 6.938 14.08 11.974 20.054 5.102 6.053 10.963 11.422 17.183 16.244 2.601-2.55 6.702-2.939 9.885-.817l.029.02c3.069 2.148 4.087 6.247 2.457 9.632 13.744 9.151 28.235 17.03 42.288 25.638 2.401-2.775 6.686-3.57 10.025-1.457 3.205 1.997 4.381 6.184 2.838 9.599 6.618 4.459 13.053 9.177 19.106 14.353a110.442 110.442 0 0 1 10.033 9.425c2.413 2.569 4.766 5.199 6.968 7.98 1.509-.855 3.203-1.076 4.907-.792a7.517 7.517 0 0 1 5.069 3.321 7.366 7.366 0 0 1 1.172 6.023c-.299 1.513-1.111 2.937-2.406 4.054 4.107 7.142 7.171 14.889 9.26 22.88.312 1.141.621 2.283.828 3.424.2 1.1.5 2.2.7 3.3.407 2.235.811 4.57 1.014 6.793.606 4.551.71 9.202.811 13.752l-3.124.07c-.099-4.443-.194-8.985-.791-13.461l-.003-.033c-.196-2.154-.59-4.407-.981-6.561-.2-1.1-.5-2.2-.7-3.3-.192-1.057-.482-2.113-.773-3.177l-.002-.008c-2.02-7.731-4.982-15.228-8.957-22.137-1.303.418-2.634.445-3.89.217-1.873-.341-3.61-1.481-4.801-3.183-1.199-1.713-1.557-3.766-1.215-5.651a8.13 8.13 0 0 1 1.535-3.461c-2.177-2.76-4.508-5.365-6.899-7.91a107.388 107.388 0 0 0-9.767-9.175l-.009-.007c-5.995-5.127-12.371-9.795-18.927-14.208a7.802 7.802 0 0 1-9.348.849l-.043-.029c-2.951-1.967-4.197-5.589-3.173-8.77-14.171-8.687-28.788-16.63-42.644-25.868-2.586 2.224-6.496 2.502-9.466.381-2.98-2.129-4-5.936-2.746-9.101-6.457-4.991-12.541-10.557-17.833-16.835-5.309-6.3-9.666-13.472-12.584-21.167ZM136.8 346.4c1.4-2.1.9-4.9-1.1-6.3-2.1-1.4-4.9-1-6.4 1s-1 4.9 1.1 6.4 5 1 6.4-1.1Zm55.1 33.9c1.4-2.1.8-5-1.3-6.3-2.2-1.4-5.1-.7-6.4 1.4-1.4 2.1-.7 4.9 1.4 6.3 2.1 1.3 4.9.7 6.3-1.4Zm45.4 43.1c1.1-.7 1.8-1.7 2-2.8.3-1.2.1-2.5-.7-3.6-.7-1.1-1.8-1.8-3-2-1.2-.2-2.4 0-3.4.8s-1.6 1.9-1.8 3c-.2 1.1 0 2.3.7 3.3s1.7 1.7 2.8 1.9c1.1.2 2.3.1 3.4-.6ZM96.2 299.6c1.2-.4 2.2-1.2 2.6-2.3.6-1 .8-2.1.5-3.3-.3-1.2-1.1-2.1-2-2.7-.9-.6-2.2-.9-3.4-.7-1.2.2-2.2 1-2.9 2-.7 1.1-.8 2.4-.5 3.7.3 1.4 1.2 2.4 2.2 3 1.1.6 2.3.7 3.5.3Zm5.4-63c1.2.5 2.4.6 3.5.2 1.1-.4 2-1.1 2.6-2.1.5-1 .7-2.2.4-3.3-.2-1.2-.9-2.2-2-2.9-1.1-.7-2.3-.9-3.5-.6-1.1.3-2.3 1.1-2.9 2.3-.6 1.2-.8 2.6-.4 3.7.4 1.2 1.2 2.2 2.3 2.7ZM150 200c.5 2.5 2.8 4.2 5.1 3.9 1.1-.2 2.2-.8 2.9-1.7.8-.9 1.2-2 1.1-3.3-.1-1.2-.7-2.3-1.6-3.1-.9-.8-2.2-1.1-3.5-1-2.7.3-4.5 2.7-4 5.2Zm62.8 10.2c-1.1 2.2-.3 5 1.8 6.2 1.1.6 2.3.7 3.4.4 1.1-.2 2.1-.9 2.8-2 .6-1.1.8-2.3.5-3.5-.3-1.2-1.1-2.2-2.2-2.9-2.3-1.3-5.2-.5-6.3 1.8Zm40.5 45.7c-2.4.6-4 2.9-3.8 5 .1 1.2.8 2.2 1.6 2.9.9.7 2 1.2 3.3 1.2 1.3 0 2.4-.6 3.2-1.5.8-.9 1.1-2.2 1-3.6-.2-1.4-1-2.6-1.9-3.3-.9-.7-2.2-1-3.4-.7Z" style="fill:#768293"/><path d="m32.926 239.468-.014-.004c-2.521-.639-4.209-3.325-3.613-6.056l.003-.012a4.804 4.804 0 0 1 4.662-3.706c1.987-11.808 6.153-23.248 12.035-33.777a5.206 5.206 0 0 1-1.715-5.074l.003-.013c.612-2.637 3.345-4.314 6.097-3.498.259.074.507.166.743.274 6.86-9.976 15.344-18.806 25.133-25.935a5.19 5.19 0 0 1-.301-3.158l.002-.012c.612-2.638 3.345-4.315 6.097-3.499a5.095 5.095 0 0 1 2.303 1.388 105.562 105.562 0 0 1 33.285-13.002 5.09 5.09 0 0 1 .12-1.068l.002-.012c.612-2.638 3.345-4.315 6.097-3.499a5.085 5.085 0 0 1 3.383 3.111 107.76 107.76 0 0 1 35.85 2.034 4.826 4.826 0 0 1 5.811-2.644 5.093 5.093 0 0 1 3.696 5.248c11.998 3.951 23.225 9.955 33.143 17.83l-1.296 1.632c-9.708-7.71-20.697-13.589-32.439-17.463-1.073 1.943-3.375 2.882-5.59 2.32-2.157-.547-3.704-2.59-3.733-4.879a105.655 105.655 0 0 0-35.124-2.017 4.904 4.904 0 0 1-.184 1.08c-.755 2.603-3.438 3.966-6.003 3.315-1.519-.385-2.735-1.512-3.332-2.944a103.513 103.513 0 0 0-32.589 12.729 4.98 4.98 0 0 1 .117 3.093c-.755 2.603-3.438 3.966-6.003 3.315a4.796 4.796 0 0 1-2.126-1.185c-9.6 6.999-17.919 15.669-24.643 25.462 1.137 1.279 1.578 3.079 1.097 4.737-.754 2.603-3.437 3.967-6.002 3.316l-.054-.014c-5.791 10.356-9.893 21.612-11.839 33.231 2.408 1.021 3.595 3.673 2.91 6.037-.547 1.888-2.11 3.124-3.906 3.412-.953 11.998.063 24.11 3.255 35.626a4.922 4.922 0 0 1 1.769.194c2.81.805 4.257 3.696 3.516 6.252-.754 2.603-3.437 3.966-6.002 3.315-2.522-.64-4.21-3.325-3.614-6.056l.003-.012a4.778 4.778 0 0 1 2.333-3.094c-3.261-11.739-4.306-24.086-3.343-36.318Zm131.769-94.048c-.261 1.605.721 3.17 2.211 3.548 1.543.391 3.177-.392 3.631-1.958.454-1.565-.454-3.327-2.179-3.816-1.542-.462-3.084.384-3.557 1.797l-.106.429Zm-39.202-.911c.454-1.566-.454-3.327-2.178-3.816-1.634-.489-3.268.489-3.631 2.055-.363 1.663.635 3.327 2.178 3.718 1.543.392 3.177-.391 3.631-1.957ZM41.661 281.085c.454-1.566-.454-3.327-2.179-3.816-1.633-.49-3.267.489-3.63 2.055-.363 1.663.635 3.327 2.178 3.718 1.543.392 3.177-.391 3.631-1.957Zm-4.634-45.484c.453-1.565-.454-3.327-2.179-3.816-1.634-.489-3.268.489-3.631 2.055-.363 1.663.636 3.327 2.179 3.718 1.543.392 3.177-.391 3.631-1.957Zm14.985-42.569c.454-1.566-.454-3.327-2.179-3.817-1.633-.489-3.267.49-3.63 2.055-.363 1.664.635 3.328 2.178 3.719s3.177-.391 3.631-1.957Zm31.674-32.33c.454-1.566-.454-3.327-2.178-3.816-1.634-.49-3.268.489-3.631 2.055-.363 1.663.635 3.327 2.178 3.718 1.543.392 3.177-.391 3.631-1.957Z" style="fill:#d77526"/><path d="m186.7 162.8 15.7.5-2.1-15.6 19.1 31-32.7-15.9Z" style="fill:#d77526;fill-rule:nonzero"/><path d="m192.3 163.9 24.3 12.2-12.8-11.5-11.5-.7Z" style="fill:#fff;fill-rule:nonzero"/><path d="m349.7 423.5-8.4 13.3 14.5 6-36.3 1 30.2-20.3Z" style="fill:#c2c9d4;fill-rule:nonzero" transform="translate(22.646 -68.449)"/><path d="M365.805 426.004c-8.61 5.147-17.659 9.499-27.147 12.974l-.716-1.956c9.36-3.429 18.288-7.723 26.784-12.801a5.085 5.085 0 0 1 8.264-5.399 158.764 158.764 0 0 0 20.81-17.296 5.085 5.085 0 0 1 6.857-7.261 560.595 560.595 0 0 0 3.749-4.34c1.686-1.983 3.174-4.164 4.855-6.243 1.491-2.186 3.081-4.373 4.572-6.559l3.213-4.966a5.072 5.072 0 0 1-1.717-3.808 5.086 5.086 0 0 1 6.586-4.857c4.222-8.086 7.774-16.526 10.529-25.195a5.085 5.085 0 0 1-2.874-4.578 5.085 5.085 0 0 1 5.553-5.062c2.172-8.803 3.665-17.814 4.228-26.906a5.087 5.087 0 0 1-4.052-4.978 5.087 5.087 0 0 1 4.46-5.046c.182-9.655-.855-18.008-2.606-27.461a5.086 5.086 0 0 1-5.312-5.079 5.086 5.086 0 0 1 5.083-5.083 5.086 5.086 0 0 1 5.084 5.083 5.088 5.088 0 0 1-2.832 4.559c1.801 9.7 2.861 18.248 2.663 28.155a5.089 5.089 0 0 1 3.627 4.872 5.088 5.088 0 0 1-4.028 4.973c-.566 9.303-2.093 18.522-4.321 27.526a5.085 5.085 0 0 1-2.647 9.527c-2.802 8.846-6.423 17.457-10.734 25.705a5.072 5.072 0 0 1 1.76 3.845 5.086 5.086 0 0 1-6.637 4.841l-3.291 5.086-.007.011c-1.5 2.2-3.1 4.4-4.6 6.6l-.024.035-.027.033c-1.706 2.107-3.211 4.313-4.916 6.32a584.85 584.85 0 0 1-3.847 4.452 5.085 5.085 0 0 1-6.804 7.203 160.876 160.876 0 0 1-21.151 17.594 5.085 5.085 0 0 1-8.387 5.48Zm53.743-54.782a3.001 3.001 0 1 0 .864-5.873 3.001 3.001 0 0 0-2.087 5.154l1.223.719Zm15.106-40.503a3.001 3.001 0 0 0 0 6c1.655 0 3-1.344 3-3s-1.345-3-3-3Zm5.729-36.946a3.001 3.001 0 0 0 0 6c1.655 0 3-1.345 3-3 0-1.656-1.345-3-3-3Zm-3.459-37.586c-1.655 0-3 1.345-3 3a3.001 3.001 0 1 0 3-3ZM369.525 419.54a3.001 3.001 0 0 0 0 6c1.655 0 3-1.344 3-3s-1.345-3-3-3Zm28.392-23.994a3.001 3.001 0 0 0 0 6 3.001 3.001 0 0 0 0-6Z" style="fill:#c2c9d4" transform="translate(22.646 -68.449)"/><path d="m345.9 427.8-22.8 14.8 16.4-5.2 6.4-9.6Z" style="fill:#fff;fill-rule:nonzero" transform="translate(22.646 -68.449)"/></svg>