<svg viewBox="0 0 512 512" xmlns="http://www.w3.org/2000/svg" xml:space="preserve" style="fill-rule:evenodd;clip-rule:evenodd;stroke-linejoin:round;stroke-miterlimit:2"><path style="fill:none" d="M0 0h512v512H0z"/><path d="m349.7 423.5-8.4 13.3 14.5 6-36.3 1 30.2-20.3Z" style="fill:#c2c9d4;fill-rule:nonzero"/><path d="M365.805 426.004c-8.61 5.147-17.659 9.499-27.147 12.974l-.716-1.956c9.36-3.429 18.288-7.723 26.784-12.801a5.085 5.085 0 0 1 8.264-5.399 158.764 158.764 0 0 0 20.81-17.296 5.085 5.085 0 0 1 6.857-7.261 560.595 560.595 0 0 0 3.749-4.34c1.686-1.983 3.174-4.164 4.855-6.243 1.491-2.186 3.081-4.373 4.572-6.559l3.213-4.966a5.072 5.072 0 0 1-1.717-3.808 5.086 5.086 0 0 1 6.586-4.857c4.222-8.086 7.774-16.526 10.529-25.195a5.085 5.085 0 0 1-2.874-4.578 5.085 5.085 0 0 1 5.553-5.062c2.172-8.803 3.665-17.814 4.228-26.906a5.087 5.087 0 0 1-4.052-4.978 5.087 5.087 0 0 1 4.46-5.046c.182-9.655-.855-18.008-2.606-27.461a5.086 5.086 0 0 1-5.312-5.079 5.086 5.086 0 0 1 5.083-5.083 5.086 5.086 0 0 1 5.084 5.083 5.088 5.088 0 0 1-2.832 4.559c1.801 9.7 2.861 18.248 2.663 28.155a5.089 5.089 0 0 1 3.627 4.872 5.088 5.088 0 0 1-4.028 4.973c-.566 9.303-2.093 18.522-4.321 27.526a5.085 5.085 0 0 1-2.647 9.527c-2.802 8.846-6.423 17.457-10.734 25.705a5.072 5.072 0 0 1 1.76 3.845 5.086 5.086 0 0 1-6.637 4.841l-3.291 5.086-.007.011c-1.5 2.2-3.1 4.4-4.6 6.6l-.024.035-.027.033c-1.706 2.107-3.211 4.313-4.916 6.32a584.85 584.85 0 0 1-3.847 4.452 5.085 5.085 0 0 1-6.804 7.203 160.876 160.876 0 0 1-21.151 17.594 5.085 5.085 0 0 1-8.387 5.48Zm53.743-54.782a3.001 3.001 0 1 0 .864-5.873 3.001 3.001 0 0 0-2.087 5.154l1.223.719Zm15.106-40.503a3.001 3.001 0 0 0 0 6c1.655 0 3-1.344 3-3s-1.345-3-3-3Zm5.729-36.946a3.001 3.001 0 0 0 0 6c1.655 0 3-1.345 3-3 0-1.656-1.345-3-3-3Zm-3.459-37.586c-1.655 0-3 1.345-3 3a3.001 3.001 0 1 0 3-3ZM369.525 419.54a3.001 3.001 0 0 0 0 6c1.655 0 3-1.344 3-3s-1.345-3-3-3Zm28.392-23.994a3.001 3.001 0 0 0 0 6 3.001 3.001 0 0 0 0-6Z" style="fill:#c2c9d4"/><path d="m345.9 427.8-22.8 14.8 16.4-5.2 6.4-9.6ZM204.1 233c-9 17.7-14.5 36.9-16 56.4-1.5 19.4.9 39 6.8 57.3 5.9 18.3 15.4 35.2 27.7 49.5 12.3 14.3 27.3 26.1 43.9 34.4 5.3 2.7 7.4 9.1 4.7 14.3-2.7 5.3-9.1 7.4-14.3 4.7-.3-.1-.5-.3-.7-.4l-.1-.1c-18.2-11.1-34.1-25.8-46.4-42.9-12.3-17-21.2-36.4-26-56.5-4.8-20.1-5.6-41.1-2.4-61.2 3.2-20.1 10.5-39.5 21-56.5.3-.5.9-.6 1.3-.3.6.3.7.8.5 1.3Z" style="fill:#fff;fill-rule:nonzero"/><path d="m77.7 292.7 9.4 11.1 9.5-11.1-9.5 32.4-9.4-32.4Z" style="fill:#404851;fill-rule:nonzero" transform="translate(1.599 16.1)"/><path d="m80.4 297.3 6.7 24.2v-16l-6.7-8.2Z" style="fill:#fff;fill-rule:nonzero" transform="translate(1.599 16.1)"/><path d="M60.694 41.277c-1.708-.19-3.084-1.558-3.084-3.177 0-1.745 1.6-3.199 3.49-3.199 1.89 0 3.49 1.454 3.49 3.199 0 1.679-1.262 2.899-2.869 3.151v23.206c1.607.276 2.869 1.596 2.869 3.146 0 1.679-1.262 2.899-2.869 3.151v23.112c1.607.275 2.869 1.596 2.869 3.146 0 1.679-1.262 2.899-2.869 3.151v23.193c1.607.276 2.869 1.596 2.869 3.146 0 1.679-1.262 2.9-2.869 3.151v22.846c1.607.276 2.869 1.596 2.869 3.146 0 1.679-1.262 2.899-2.869 3.151v22.911c1.607.276 2.869 1.597 2.869 3.147 0 1.679-1.262 2.899-2.869 3.151v23.582h-1.027v-23.556c-1.708-.19-3.084-1.559-3.084-3.177 0-1.619 1.376-2.987 3.084-3.177v-22.855c-1.708-.19-3.084-1.558-3.084-3.177s1.376-2.987 3.084-3.177v-22.789c-1.708-.19-3.084-1.558-3.084-3.177 0-1.618 1.376-2.987 3.084-3.176v-23.137c-1.708-.19-3.084-1.559-3.084-3.177 0-1.619 1.376-2.987 3.084-3.177V70.78c-1.708-.19-3.084-1.558-3.084-3.177 0-1.618 1.376-2.987 3.084-3.177V41.277Zm.406-.977c1.3 0 2.4-.9 2.4-2.2 0-1.2-1.1-2.2-2.4-2.2-1.3 0-2.4 1-2.4 2.2 0 1.2 1.1 2.2 2.4 2.2Zm0 146.754c1.3 0 2.4-.9 2.4-2.2 0-1.2-1.1-2.2-2.4-2.2-1.3 0-2.4 1-2.4 2.2 0 1.2 1.1 2.2 2.4 2.2Zm0-29.209c1.3 0 2.4-.9 2.4-2.2 0-1.2-1.1-2.2-2.4-2.2-1.3 0-2.4 1-2.4 2.2 0 1.2 1.1 2.2 2.4 2.2Zm0-58.633c1.3 0 2.4-.9 2.4-2.2 0-1.2-1.1-2.2-2.4-2.2-1.3 0-2.4 1-2.4 2.2 0 1.2 1.1 2.2 2.4 2.2Zm0-29.409c1.3 0 2.4-.9 2.4-2.2 0-1.2-1.1-2.2-2.4-2.2-1.3 0-2.4 1-2.4 2.2 0 1.2 1.1 2.2 2.4 2.2Zm0 58.899c1.3 0 2.4-.9 2.4-2.2 0-1.2-1.1-2.2-2.4-2.2-1.3 0-2.4 1-2.4 2.2 0 1.2 1.1 2.2 2.4 2.2Z" style="fill:#404851" transform="matrix(1.04167 0 0 1.13636 -4.32 -20.468)"/><path d="M60.694 41.277c-1.708-.19-3.084-1.558-3.084-3.177 0-1.745 1.6-3.199 3.49-3.199 1.89 0 3.49 1.454 3.49 3.199 0 1.679-1.262 2.899-2.869 3.151v23.206c1.607.276 2.869 1.596 2.869 3.146 0 1.679-1.262 2.899-2.869 3.151v23.112c1.607.275 2.869 1.596 2.869 3.146 0 1.679-1.262 2.899-2.869 3.151v23.193c1.607.276 2.869 1.596 2.869 3.146 0 1.679-1.262 2.9-2.869 3.151v22.846c1.607.276 2.869 1.596 2.869 3.146 0 1.679-1.262 2.899-2.869 3.151v22.911c1.607.276 2.869 1.597 2.869 3.147 0 1.679-1.262 2.899-2.869 3.151v23.582h-1.027v-23.556c-1.708-.19-3.084-1.559-3.084-3.177 0-1.619 1.376-2.987 3.084-3.177v-22.855c-1.708-.19-3.084-1.558-3.084-3.177s1.376-2.987 3.084-3.177v-22.789c-1.708-.19-3.084-1.558-3.084-3.177 0-1.618 1.376-2.987 3.084-3.176v-23.137c-1.708-.19-3.084-1.559-3.084-3.177 0-1.619 1.376-2.987 3.084-3.177V70.78c-1.708-.19-3.084-1.558-3.084-3.177 0-1.618 1.376-2.987 3.084-3.177V41.277Zm.406-.977c1.3 0 2.4-.9 2.4-2.2 0-1.2-1.1-2.2-2.4-2.2-1.3 0-2.4 1-2.4 2.2 0 1.2 1.1 2.2 2.4 2.2Zm0 146.754c1.3 0 2.4-.9 2.4-2.2 0-1.2-1.1-2.2-2.4-2.2-1.3 0-2.4 1-2.4 2.2 0 1.2 1.1 2.2 2.4 2.2Zm0-29.209c1.3 0 2.4-.9 2.4-2.2 0-1.2-1.1-2.2-2.4-2.2-1.3 0-2.4 1-2.4 2.2 0 1.2 1.1 2.2 2.4 2.2Zm0-58.633c1.3 0 2.4-.9 2.4-2.2 0-1.2-1.1-2.2-2.4-2.2-1.3 0-2.4 1-2.4 2.2 0 1.2 1.1 2.2 2.4 2.2Zm0-29.409c1.3 0 2.4-.9 2.4-2.2 0-1.2-1.1-2.2-2.4-2.2-1.3 0-2.4 1-2.4 2.2 0 1.2 1.1 2.2 2.4 2.2Zm0 58.899c1.3 0 2.4-.9 2.4-2.2 0-1.2-1.1-2.2-2.4-2.2-1.3 0-2.4 1-2.4 2.2 0 1.2 1.1 2.2 2.4 2.2Z" style="fill:#404851" transform="matrix(1.04167 0 0 1.13636 5.463 13.23)"/><path d="M60.694 41.277c-1.708-.19-3.084-1.558-3.084-3.177 0-1.745 1.6-3.199 3.49-3.199 1.89 0 3.49 1.454 3.49 3.199 0 1.679-1.262 2.899-2.869 3.151v23.206c1.607.276 2.869 1.596 2.869 3.146 0 1.679-1.262 2.899-2.869 3.151v23.112c1.607.275 2.869 1.596 2.869 3.146 0 1.679-1.262 2.899-2.869 3.151v23.193c1.607.276 2.869 1.596 2.869 3.146 0 1.679-1.262 2.9-2.869 3.151v22.846c1.607.276 2.869 1.596 2.869 3.146 0 1.679-1.262 2.899-2.869 3.151v22.911c1.607.276 2.869 1.597 2.869 3.147 0 1.679-1.262 2.899-2.869 3.151v23.582h-1.027v-23.556c-1.708-.19-3.084-1.559-3.084-3.177 0-1.619 1.376-2.987 3.084-3.177v-22.855c-1.708-.19-3.084-1.558-3.084-3.177s1.376-2.987 3.084-3.177v-22.789c-1.708-.19-3.084-1.558-3.084-3.177 0-1.618 1.376-2.987 3.084-3.176v-23.137c-1.708-.19-3.084-1.559-3.084-3.177 0-1.619 1.376-2.987 3.084-3.177V70.78c-1.708-.19-3.084-1.558-3.084-3.177 0-1.618 1.376-2.987 3.084-3.177V41.277Zm.406-.977c1.3 0 2.4-.9 2.4-2.2 0-1.2-1.1-2.2-2.4-2.2-1.3 0-2.4 1-2.4 2.2 0 1.2 1.1 2.2 2.4 2.2Zm0 146.754c1.3 0 2.4-.9 2.4-2.2 0-1.2-1.1-2.2-2.4-2.2-1.3 0-2.4 1-2.4 2.2 0 1.2 1.1 2.2 2.4 2.2Zm0-29.209c1.3 0 2.4-.9 2.4-2.2 0-1.2-1.1-2.2-2.4-2.2-1.3 0-2.4 1-2.4 2.2 0 1.2 1.1 2.2 2.4 2.2Zm0-58.633c1.3 0 2.4-.9 2.4-2.2 0-1.2-1.1-2.2-2.4-2.2-1.3 0-2.4 1-2.4 2.2 0 1.2 1.1 2.2 2.4 2.2Zm0-29.409c1.3 0 2.4-.9 2.4-2.2 0-1.2-1.1-2.2-2.4-2.2-1.3 0-2.4 1-2.4 2.2 0 1.2 1.1 2.2 2.4 2.2Zm0 58.899c1.3 0 2.4-.9 2.4-2.2 0-1.2-1.1-2.2-2.4-2.2-1.3 0-2.4 1-2.4 2.2 0 1.2 1.1 2.2 2.4 2.2Z" style="fill:#404851" transform="matrix(1.04167 0 0 1.13636 15.246 46.447)"/><path d="M60.694 41.277c-1.708-.19-3.084-1.558-3.084-3.177 0-1.745 1.6-3.199 3.49-3.199 1.89 0 3.49 1.454 3.49 3.199 0 1.679-1.262 2.899-2.869 3.151v23.206c1.607.276 2.869 1.596 2.869 3.146 0 1.679-1.262 2.899-2.869 3.151v23.112c1.607.275 2.869 1.596 2.869 3.146 0 1.679-1.262 2.899-2.869 3.151v23.193c1.607.276 2.869 1.596 2.869 3.146 0 1.679-1.262 2.9-2.869 3.151v22.846c1.607.276 2.869 1.596 2.869 3.146 0 1.679-1.262 2.899-2.869 3.151v22.911c1.607.276 2.869 1.597 2.869 3.147 0 1.679-1.262 2.899-2.869 3.151v23.582h-1.027v-23.556c-1.708-.19-3.084-1.559-3.084-3.177 0-1.619 1.376-2.987 3.084-3.177v-22.855c-1.708-.19-3.084-1.558-3.084-3.177s1.376-2.987 3.084-3.177v-22.789c-1.708-.19-3.084-1.558-3.084-3.177 0-1.618 1.376-2.987 3.084-3.176v-23.137c-1.708-.19-3.084-1.559-3.084-3.177 0-1.619 1.376-2.987 3.084-3.177V70.78c-1.708-.19-3.084-1.558-3.084-3.177 0-1.618 1.376-2.987 3.084-3.177V41.277Zm.406-.977c1.3 0 2.4-.9 2.4-2.2 0-1.2-1.1-2.2-2.4-2.2-1.3 0-2.4 1-2.4 2.2 0 1.2 1.1 2.2 2.4 2.2Zm0 146.754c1.3 0 2.4-.9 2.4-2.2 0-1.2-1.1-2.2-2.4-2.2-1.3 0-2.4 1-2.4 2.2 0 1.2 1.1 2.2 2.4 2.2Zm0-29.209c1.3 0 2.4-.9 2.4-2.2 0-1.2-1.1-2.2-2.4-2.2-1.3 0-2.4 1-2.4 2.2 0 1.2 1.1 2.2 2.4 2.2Zm0-58.633c1.3 0 2.4-.9 2.4-2.2 0-1.2-1.1-2.2-2.4-2.2-1.3 0-2.4 1-2.4 2.2 0 1.2 1.1 2.2 2.4 2.2Zm0-29.409c1.3 0 2.4-.9 2.4-2.2 0-1.2-1.1-2.2-2.4-2.2-1.3 0-2.4 1-2.4 2.2 0 1.2 1.1 2.2 2.4 2.2Zm0 58.899c1.3 0 2.4-.9 2.4-2.2 0-1.2-1.1-2.2-2.4-2.2-1.3 0-2.4 1-2.4 2.2 0 1.2 1.1 2.2 2.4 2.2Z" style="fill:#404851" transform="matrix(-1.04167 0 0 1.13636 181.67 -20.733)"/><path d="M60.694 41.277c-1.708-.19-3.084-1.558-3.084-3.177 0-1.745 1.6-3.199 3.49-3.199 1.89 0 3.49 1.454 3.49 3.199 0 1.679-1.262 2.899-2.869 3.151v23.206c1.607.276 2.869 1.596 2.869 3.146 0 1.679-1.262 2.899-2.869 3.151v23.112c1.607.275 2.869 1.596 2.869 3.146 0 1.679-1.262 2.899-2.869 3.151v23.193c1.607.276 2.869 1.596 2.869 3.146 0 1.679-1.262 2.9-2.869 3.151v22.846c1.607.276 2.869 1.596 2.869 3.146 0 1.679-1.262 2.899-2.869 3.151v22.911c1.607.276 2.869 1.597 2.869 3.147 0 1.679-1.262 2.899-2.869 3.151v23.582h-1.027v-23.556c-1.708-.19-3.084-1.559-3.084-3.177 0-1.619 1.376-2.987 3.084-3.177v-22.855c-1.708-.19-3.084-1.558-3.084-3.177s1.376-2.987 3.084-3.177v-22.789c-1.708-.19-3.084-1.558-3.084-3.177 0-1.618 1.376-2.987 3.084-3.176v-23.137c-1.708-.19-3.084-1.559-3.084-3.177 0-1.619 1.376-2.987 3.084-3.177V70.78c-1.708-.19-3.084-1.558-3.084-3.177 0-1.618 1.376-2.987 3.084-3.177V41.277Zm.406-.977c1.3 0 2.4-.9 2.4-2.2 0-1.2-1.1-2.2-2.4-2.2-1.3 0-2.4 1-2.4 2.2 0 1.2 1.1 2.2 2.4 2.2Zm0 146.754c1.3 0 2.4-.9 2.4-2.2 0-1.2-1.1-2.2-2.4-2.2-1.3 0-2.4 1-2.4 2.2 0 1.2 1.1 2.2 2.4 2.2Zm0-29.209c1.3 0 2.4-.9 2.4-2.2 0-1.2-1.1-2.2-2.4-2.2-1.3 0-2.4 1-2.4 2.2 0 1.2 1.1 2.2 2.4 2.2Zm0-58.633c1.3 0 2.4-.9 2.4-2.2 0-1.2-1.1-2.2-2.4-2.2-1.3 0-2.4 1-2.4 2.2 0 1.2 1.1 2.2 2.4 2.2Zm0-29.409c1.3 0 2.4-.9 2.4-2.2 0-1.2-1.1-2.2-2.4-2.2-1.3 0-2.4 1-2.4 2.2 0 1.2 1.1 2.2 2.4 2.2Zm0 58.899c1.3 0 2.4-.9 2.4-2.2 0-1.2-1.1-2.2-2.4-2.2-1.3 0-2.4 1-2.4 2.2 0 1.2 1.1 2.2 2.4 2.2Z" style="fill:#404851" transform="matrix(-1.04167 0 0 1.13636 171.887 12.72)"/><path d="M60.694 41.277c-1.708-.19-3.084-1.558-3.084-3.177 0-1.745 1.6-3.199 3.49-3.199 1.89 0 3.49 1.454 3.49 3.199 0 1.679-1.262 2.899-2.869 3.151v23.206c1.607.276 2.869 1.596 2.869 3.146 0 1.679-1.262 2.899-2.869 3.151v23.112c1.607.275 2.869 1.596 2.869 3.146 0 1.679-1.262 2.899-2.869 3.151v23.193c1.607.276 2.869 1.596 2.869 3.146 0 1.679-1.262 2.9-2.869 3.151v22.846c1.607.276 2.869 1.596 2.869 3.146 0 1.679-1.262 2.899-2.869 3.151v22.911c1.607.276 2.869 1.597 2.869 3.147 0 1.679-1.262 2.899-2.869 3.151v23.582h-1.027v-23.556c-1.708-.19-3.084-1.559-3.084-3.177 0-1.619 1.376-2.987 3.084-3.177v-22.855c-1.708-.19-3.084-1.558-3.084-3.177s1.376-2.987 3.084-3.177v-22.789c-1.708-.19-3.084-1.558-3.084-3.177 0-1.618 1.376-2.987 3.084-3.176v-23.137c-1.708-.19-3.084-1.559-3.084-3.177 0-1.619 1.376-2.987 3.084-3.177V70.78c-1.708-.19-3.084-1.558-3.084-3.177 0-1.618 1.376-2.987 3.084-3.177V41.277Zm.406-.977c1.3 0 2.4-.9 2.4-2.2 0-1.2-1.1-2.2-2.4-2.2-1.3 0-2.4 1-2.4 2.2 0 1.2 1.1 2.2 2.4 2.2Zm0 146.754c1.3 0 2.4-.9 2.4-2.2 0-1.2-1.1-2.2-2.4-2.2-1.3 0-2.4 1-2.4 2.2 0 1.2 1.1 2.2 2.4 2.2Zm0-29.209c1.3 0 2.4-.9 2.4-2.2 0-1.2-1.1-2.2-2.4-2.2-1.3 0-2.4 1-2.4 2.2 0 1.2 1.1 2.2 2.4 2.2Zm0-58.633c1.3 0 2.4-.9 2.4-2.2 0-1.2-1.1-2.2-2.4-2.2-1.3 0-2.4 1-2.4 2.2 0 1.2 1.1 2.2 2.4 2.2Zm0-29.409c1.3 0 2.4-.9 2.4-2.2 0-1.2-1.1-2.2-2.4-2.2-1.3 0-2.4 1-2.4 2.2 0 1.2 1.1 2.2 2.4 2.2Zm0 58.899c1.3 0 2.4-.9 2.4-2.2 0-1.2-1.1-2.2-2.4-2.2-1.3 0-2.4 1-2.4 2.2 0 1.2 1.1 2.2 2.4 2.2Z" style="fill:#404851" transform="matrix(-1.04167 0 0 1.13636 162.104 46.232)"/><path d="M60.694 41.277c-1.708-.19-3.084-1.558-3.084-3.177 0-1.745 1.6-3.199 3.49-3.199 1.89 0 3.49 1.454 3.49 3.199 0 1.679-1.262 2.899-2.869 3.151v23.206c1.607.276 2.869 1.596 2.869 3.146 0 1.679-1.262 2.899-2.869 3.151v23.112c1.607.275 2.869 1.596 2.869 3.146 0 1.679-1.262 2.899-2.869 3.151v23.193c1.607.276 2.869 1.596 2.869 3.146 0 1.679-1.262 2.9-2.869 3.151v22.846c1.607.276 2.869 1.596 2.869 3.146 0 1.679-1.262 2.899-2.869 3.151v22.911c1.607.276 2.869 1.597 2.869 3.147 0 1.679-1.262 2.899-2.869 3.151v23.582h-1.027v-23.556c-1.708-.19-3.084-1.559-3.084-3.177 0-1.619 1.376-2.987 3.084-3.177v-22.855c-1.708-.19-3.084-1.558-3.084-3.177s1.376-2.987 3.084-3.177v-22.789c-1.708-.19-3.084-1.558-3.084-3.177 0-1.618 1.376-2.987 3.084-3.176v-23.137c-1.708-.19-3.084-1.559-3.084-3.177 0-1.619 1.376-2.987 3.084-3.177V70.78c-1.708-.19-3.084-1.558-3.084-3.177 0-1.618 1.376-2.987 3.084-3.177V41.277Zm.406-.977c1.3 0 2.4-.9 2.4-2.2 0-1.2-1.1-2.2-2.4-2.2-1.3 0-2.4 1-2.4 2.2 0 1.2 1.1 2.2 2.4 2.2Zm0 146.754c1.3 0 2.4-.9 2.4-2.2 0-1.2-1.1-2.2-2.4-2.2-1.3 0-2.4 1-2.4 2.2 0 1.2 1.1 2.2 2.4 2.2Zm0-29.209c1.3 0 2.4-.9 2.4-2.2 0-1.2-1.1-2.2-2.4-2.2-1.3 0-2.4 1-2.4 2.2 0 1.2 1.1 2.2 2.4 2.2Zm0-58.633c1.3 0 2.4-.9 2.4-2.2 0-1.2-1.1-2.2-2.4-2.2-1.3 0-2.4 1-2.4 2.2 0 1.2 1.1 2.2 2.4 2.2Zm0-29.409c1.3 0 2.4-.9 2.4-2.2 0-1.2-1.1-2.2-2.4-2.2-1.3 0-2.4 1-2.4 2.2 0 1.2 1.1 2.2 2.4 2.2Zm0 58.899c1.3 0 2.4-.9 2.4-2.2 0-1.2-1.1-2.2-2.4-2.2-1.3 0-2.4 1-2.4 2.2 0 1.2 1.1 2.2 2.4 2.2Z" style="fill:#404851" transform="matrix(1.04167 0 0 1.13636 25.029 79.979)"/><path d="M287.715 442.93c3.851-.733 7.41 1.643 8.143 5.126.735 3.492-1.727 7.233-5.367 7.992-3.882.906-7.505-1.425-8.252-5.12-.73-3.512 1.595-7.259 5.476-7.998Zm.585 3.07c-2.1.4-3.4 2.4-3 4.3.4 2 2.4 3.2 4.5 2.7 2-.4 3.4-2.4 3-4.3-.4-1.9-2.4-3.1-4.5-2.7Z" style="fill:#778394"/><path d="M282.372 407.532a7.141 7.141 0 0 1-5.575-5.341 7.142 7.142 0 0 1 5.265-8.658c.131-.033.263-.062.394-.086.496-11.723 2.161-23.472 5.049-34.854a7.123 7.123 0 0 1-3.619-4.651 7.141 7.141 0 0 1 5.264-8.659 6.9 6.9 0 0 1 2.457-.157c4.103-11.598 9.479-22.792 16.129-33.196a7.132 7.132 0 0 1-1.86-3.348 7.142 7.142 0 0 1 5.264-8.659 7.025 7.025 0 0 1 4.603.44c7.294-9.622 15.619-18.447 24.553-26.413a7.182 7.182 0 0 1-.922-2.173 7.14 7.14 0 0 1 5.265-8.658c2.417-.6 4.893.168 6.613 1.787 9.349-7.229 19.414-13.58 29.794-19.221l-.007-.028a7.142 7.142 0 0 1 5.265-8.658c2.727-.677 5.531.388 7.236 2.453 5.378-2.468 10.836-4.818 16.433-6.823 6.757-2.42 13.515-4.637 20.474-6.251l.706 3.044c-6.841 1.586-13.483 3.769-20.126 6.149-5.473 1.961-10.812 4.258-16.071 6.67l.003.011a7.142 7.142 0 0 1-5.262 8.669 7.146 7.146 0 0 1-7.263-2.434c-10.252 5.578-20.193 11.856-29.422 19.008.112.283.206.576.282.877a7.142 7.142 0 0 1-5.262 8.669 7.127 7.127 0 0 1-5.514-.886c-8.831 7.86-17.062 16.57-24.267 26.073a7.1 7.1 0 0 1 1.544 2.949 7.14 7.14 0 0 1-5.261 8.668 7.092 7.092 0 0 1-4.169-.226c-6.516 10.196-11.784 21.167-15.806 32.532 1.564.958 2.775 2.502 3.246 4.386a7.141 7.141 0 0 1-5.261 8.668 7.089 7.089 0 0 1-2.022.204c-2.828 11.16-4.458 22.678-4.944 34.171 2.443.667 4.491 2.614 5.139 5.206a7.141 7.141 0 0 1-5.221 8.659c.265 12.91 2.078 25.807 4.734 38.536l-3.06.638c-2.693-12.91-4.528-25.992-4.798-39.087Zm68.343-138.515c-.595-2.382-3.062-3.912-5.443-3.317a4.486 4.486 0 0 0-3.317 5.443 4.486 4.486 0 0 0 5.443 3.317 4.486 4.486 0 0 0 3.317-5.443Zm41.665-26.12c-.595-2.381-3.062-3.912-5.443-3.317a4.486 4.486 0 0 0-3.317 5.443 4.486 4.486 0 0 0 5.443 3.317 4.485 4.485 0 0 0 3.317-5.443ZM288.138 399.431c-.595-2.382-3.061-3.913-5.443-3.317a4.486 4.486 0 0 0-3.317 5.443 4.487 4.487 0 0 0 5.444 3.317 4.485 4.485 0 0 0 3.316-5.443Zm7.089-48.25c-.596-2.381-3.062-3.912-5.443-3.317a4.485 4.485 0 0 0-3.317 5.443 4.484 4.484 0 0 0 5.443 3.317 4.486 4.486 0 0 0 3.317-5.443Zm21.99-45.36c-.596-2.381-3.062-3.912-5.443-3.317a4.486 4.486 0 0 0-3.317 5.444 4.485 4.485 0 0 0 5.443 3.316 4.486 4.486 0 0 0 3.317-5.443Z" style="fill:#778394"/><path d="m292.716 441.265.017.008c5.035 2.325 7.255 8.497 4.687 13.674-2.472 5.217-8.729 7.324-13.665 4.724-5.014-2.589-7.004-8.616-4.566-13.636 2.446-5.037 8.484-7.186 13.527-4.77ZM291.4 444.1c-3.5-1.7-7.7-.2-9.4 3.3-1.7 3.5-.3 7.7 3.2 9.5 3.4 1.8 7.7.3 9.4-3.3 1.8-3.6.3-7.9-3.2-9.5Z" style="fill:#c2c9d4" transform="rotate(2.039 251.882 455.982)"/><path d="M247.976 173.023c-19.781-18.308-42.292-33.648-66.19-45.933l1.428-2.78c24.21 12.446 47.008 27.996 67.032 46.556 1.604-1.092 3.503-1.682 5.49-1.787l.082-.004h.082c2.575 0 5.164.969 7.31 3.115 3.689 3.69 4.079 9.053 1.277 12.958 17.555 19.082 32.152 41.009 42.014 64.999 1.973-.344 3.978-.082 5.86.693l.07.032c2.464 1.16 4.465 3.213 5.341 5.962 1.633 4.934-.454 9.948-4.629 12.263 3.967 13.046 6.448 26.546 7.71 40.127.805 6.951.809 14.103.909 21.154l.001.041-.4 10.511v1.33l-.306 3.975-.229 2.381c1.893.609 3.571 1.764 4.845 3.25.855.999 1.464 2.262 1.892 3.546l.051.153.035.157c.284 1.278.398 2.696.131 4.094-.787 5.082-4.977 8.643-9.747 8.784-2.261 12.763-5.309 25.344-9.451 37.588l-1.593 4.98-.42 1.363-.514 1.234-.89 2.473-3.695 9.887c-.613 1.735-1.326 3.368-2.041 5.001l-4.194 9.588-1.015 2.437-1.224 2.448-2.796-1.398 1.176-2.352.985-2.363 4.206-9.612c.684-1.566 1.371-3.131 1.962-4.808l3.702-9.904.91-2.527.486-1.166.38-1.237 1.607-5.021.004-.012c4.08-12.059 7.084-24.449 9.315-37.019-4.804-1.476-7.991-6.192-7.234-11.085.16-1.329.711-2.671 1.449-3.851.682-1.091 1.403-2.02 2.316-2.725 1.582-1.489 3.78-2.379 6.268-2.382l.209-2.172.295-3.825v-1.27l.399-10.489c-.099-6.934-.097-13.966-.891-20.819l-.002-.018c-1.238-13.337-3.665-26.583-7.545-39.386-4.988.925-10.056-1.847-11.664-6.67-.846-2.539-.712-5.079.275-7.478l.06-.144.073-.137c.965-1.81 2.56-3.508 4.594-4.573-9.7-23.53-24.027-45.038-41.24-63.774-4.029 3.014-9.893 2.742-13.507-.872-1.867-1.868-2.893-4.442-2.914-7.016-.107-2.286.64-4.578 2.1-6.471Zm2.924 1.377c-1.3 1.4-2 3.2-1.9 5 0 1.8.7 3.6 2 4.9 2.7 2.7 7.2 2.7 10 .1 2.9-2.7 2.9-7.1 0-10-1.5-1.5-3.3-2.2-5.1-2.2-1.9.1-3.7.8-5 2.2Zm54.8 79.2c-1.8.7-3.2 2.1-4 3.6-.7 1.7-.8 3.5-.2 5.3 1.2 3.6 5.2 5.5 8.9 4.4 3.7-1.2 5.7-5.2 4.4-9.1-.6-1.9-2-3.3-3.7-4.1-1.7-.7-3.6-.8-5.4-.1Zm12.8 97.7c-2-.2-3.8.4-5 1.6-.7.5-1.2 1.2-1.7 2s-.9 1.7-1 2.6c-.6 3.7 2.1 7.2 5.9 7.9 3.8.6 7.4-2.1 8-6.1.2-1 .1-2-.1-2.9-.3-.9-.7-1.8-1.3-2.5-1.2-1.4-2.9-2.4-4.8-2.6Z" style="fill:#c2c9d4" transform="rotate(2.039 251.882 455.982)"/><path d="M282.673 447.813c3.081-.973 6.115.743 6.926 3.499.799 2.716-.864 5.806-3.756 6.77l-.016.005c-3.081.973-6.115-.743-6.926-3.499-.801-2.725.726-5.813 3.772-6.775Zm.627 1.987c-1.9.6-2.9 2.5-2.4 4.2.5 1.7 2.4 2.7 4.3 2.1 1.8-.6 2.9-2.5 2.4-4.2-.5-1.7-2.4-2.7-4.3-2.1Z" style="fill:#c2c9d4"/><path d="M259.128 329.53c-2.272-.243-4.212-1.812-4.729-4.045-.776-2.893 1.268-5.804 4.321-6.447l.074-.015a235.543 235.543 0 0 1-.136-7.262l.301-9.254.1-4.628.101-2.295.202-2.284.658-7.531c-1.96-.461-3.562-1.927-4.025-3.926-.775-2.893 1.268-5.804 4.321-6.447.271-.057.54-.095.807-.115l.945-6.656.704-4.553.905-4.552 1.903-9.071.002-.009c.49-2.113 1.077-4.179 1.66-6.264-1.487-.66-2.639-1.944-3.02-3.588-.775-2.892 1.268-5.804 4.321-6.446a6.114 6.114 0 0 1 1.487-.129l2.479-7.249 1.507-4.359 1.712-4.369.005-.012c1.2-2.83 2.3-5.754 3.508-8.603l3.286-6.897c-1.091-.719-1.906-1.815-2.215-3.148-.775-2.892 1.268-5.803 4.321-6.446a5.99 5.99 0 0 1 2.822.076 217.383 217.383 0 0 1 18.573-27.642 5.085 5.085 0 0 1-1.289-2.378c-.775-2.892 1.268-5.804 4.321-6.446a5.904 5.904 0 0 1 3.839.462 225.25 225.25 0 0 1 23.765-23.228 5.077 5.077 0 0 1-.599-1.477c-.775-2.893 1.268-5.804 4.321-6.447 1.791-.377 3.522.073 4.789 1.056a245.65 245.65 0 0 1 28.845-18.693 5.144 5.144 0 0 1-.096-.355c-.775-2.892 1.268-5.803 4.321-6.446 2.202-.464 4.312.322 5.582 1.811 9.106-4.425 18.512-8.315 28.119-11.531-.584-2.802 1.426-5.555 4.385-6.178 3.096-.652 6.012 1.167 6.663 3.937.638 2.71-1.09 5.593-4.118 6.39-2.488.655-4.975-.368-6.206-2.306-9.523 3.187-18.844 7.04-27.87 11.426.041.127.077.257.108.389.638 2.709-1.09 5.592-4.119 6.389-2.249.592-4.497-.187-5.817-1.774a243.414 243.414 0 0 0-28.467 18.454c.244.421.43.88.545 1.369.637 2.71-1.091 5.593-4.119 6.39-1.794.472-3.586.072-4.909-.914a223.282 223.282 0 0 0-23.492 22.961c.573.63.992 1.396 1.193 2.252.638 2.71-1.091 5.593-4.119 6.39a5.806 5.806 0 0 1-3.911-.322 215.52 215.52 0 0 0-18.383 27.356c.98.721 1.701 1.752 1.987 2.967.637 2.709-1.091 5.592-4.119 6.389a5.866 5.866 0 0 1-2.748.066l-3.272 6.869c-1.195 2.819-2.291 5.731-3.486 8.549l-1.688 4.31-1.493 4.319-2.425 7.09c1.558.653 2.752 1.967 3.141 3.619.637 2.71-1.091 5.593-4.119 6.39a5.947 5.947 0 0 1-1.826.19c-.577 2.06-1.158 4.103-1.642 6.192l-1.897 9.041-.895 4.503-.696 4.502-.937 6.592c1.867.533 3.344 1.972 3.784 3.845.638 2.71-1.09 5.593-4.118 6.39a6.048 6.048 0 0 1-.759.148l-.664 7.591-.198 2.244-.099 2.233-.1 4.617-.299 9.234c0 2.421.061 4.786.135 7.182 2.201.336 4.01 1.894 4.506 4.003.638 2.71-1.091 5.593-4.119 6.39l-.058.015c.121 2.284.383 4.596.533 6.855l.701 9.165.001.02c.099 2.989.597 6.071.993 9.06l.923 7.038c2.41.172 4.443 1.798 4.974 4.055.591 2.512-.851 5.173-3.477 6.183l2.87 16.243 3.684 16.191c2.588.005 4.827 1.685 5.388 4.07.544 2.312-.634 4.75-2.873 5.911l4.373 16.042c1.67 5.677 3.635 11.445 5.403 17.121l-1.998.554c-1.773-5.689-3.742-11.469-5.418-17.167l-4.34-15.926c-2.837.38-5.51-1.344-6.132-4.026-.707-2.64.933-5.296 3.546-6.228l-3.681-16.174-2.863-16.208c-2.579.052-4.893-1.606-5.466-4.077-.742-2.77 1.1-5.557 3.938-6.353l-.919-7.006c-.403-3.042-.904-6.178-1.006-9.22l-.699-9.136-.001-.005c-.149-2.251-.408-4.555-.532-6.833Zm-.07-8.485c-1.829.452-3.059 2.211-2.571 3.97.4 1.8 2.3 2.9 4.2 2.4 1.9-.5 3-2.3 2.6-4-.293-1.245-1.337-2.169-2.622-2.416l-1.607.046ZM414.775 92.842c.811.947 2.167 1.405 3.524 1.048 1.9-.5 3-2.3 2.6-4-.4-1.7-2.2-2.8-4.1-2.4-1.732.365-2.966 1.893-2.792 3.523a223.81 223.81 0 0 1 3.171-.999l.644 1.869c-1.018.312-2.033.632-3.047.959ZM263.136 363.613c-1.9.4-3.2 2.2-2.7 4 .4 1.8 2.3 2.9 4.2 2.4 1.9-.5 3-2.3 2.6-4-.4-1.7-2.2-2.8-4.1-2.4ZM271.6 406.3c-1.9.4-3.2 2.2-2.7 4 .4 1.8 2.3 2.9 4.2 2.4 1.9-.5 3-2.3 2.6-4-.4-1.7-2.2-2.8-4.1-2.4Zm-2.589-170.182c-1.9.4-3.2 2.2-2.7 4 .4 1.8 2.3 2.9 4.2 2.4 1.9-.5 3-2.3 2.6-4-.4-1.7-2.2-2.8-4.1-2.4Zm16.09-41.211c-1.9.4-3.2 2.2-2.7 4 .4 1.8 2.3 2.9 4.2 2.4 1.9-.5 3-2.3 2.6-4-.4-1.7-2.2-2.8-4.1-2.4Zm93.612-91.519c-1.9.4-3.2 2.2-2.7 4 .4 1.8 2.3 2.9 4.2 2.4 1.9-.5 3-2.3 2.6-4-.4-1.7-2.2-2.8-4.1-2.4ZM260.784 277.373c-1.9.4-3.2 2.2-2.7 4 .4 1.8 2.3 2.9 4.2 2.4 1.9-.5 3-2.3 2.6-4-.4-1.7-2.2-2.8-4.1-2.4Zm48.743-118.857c-1.9.4-3.2 2.2-2.7 4 .4 1.8 2.3 2.9 4.2 2.4 1.9-.5 3-2.3 2.6-4-.4-1.7-2.2-2.8-4.1-2.4Zm31.327-30.689c-1.9.4-3.2 2.2-2.7 4 .4 1.8 2.3 2.9 4.2 2.4 1.9-.5 3-2.3 2.6-4-.4-1.7-2.2-2.8-4.1-2.4Z" style="fill:#c2c9d4" transform="matrix(1 0 0 1.0601 0 -24.414)"/><path d="M297 448.8c1.1 4.5-1.7 9-6.2 10.2-4.5 1.1-9-1.7-10.2-6.2-1.1-4.5 1.7-9 6.2-10.2 4.5-1.1 9.1 1.7 10.2 6.2Z" style="fill:#faf9f8;fill-rule:nonzero"/><path d="M300.036 448.058c1.503 6.149-2.282 12.322-8.462 13.97l-.032.008c-6.149 1.503-12.322-2.282-13.97-8.462l-.008-.032c-1.503-6.149 2.282-12.322 8.462-13.97l.032-.008c6.166-1.507 12.47 2.328 13.978 8.494ZM297 448.8c-1.1-4.5-5.7-7.3-10.2-6.2-4.5 1.2-7.3 5.7-6.2 10.2 1.2 4.5 5.7 7.3 10.2 6.2 4.5-1.2 7.3-5.7 6.2-10.2Z" style="fill:#d77425"/><path d="M435.9 226.3c.7 2.8-1 5.7-3.9 6.4-2.8.7-5.7-1-6.4-3.9-.7-2.8 1-5.7 3.9-6.4 2.8-.7 5.7 1.1 6.4 3.9Z" style="fill:#faf9f8;fill-rule:nonzero"/><path d="M438.932 225.542a8.398 8.398 0 0 1-6.186 10.193 8.398 8.398 0 0 1-10.181-6.189 8.398 8.398 0 0 1 6.19-10.181c4.447-1.104 9.065 1.73 10.177 6.177Zm-3.032.758c-.7-2.8-3.6-4.6-6.4-3.9-2.9.7-4.6 3.6-3.9 6.4.7 2.9 3.6 4.6 6.4 3.9 2.9-.7 4.6-3.6 3.9-6.4Z" style="fill:#d77425"/><path d="M421.2 70.8c.5 2.1-.8 4.2-2.8 4.7-2.1.5-4.2-.8-4.7-2.8-.5-2.1.8-4.2 2.8-4.7 2.1-.5 4.2.7 4.7 2.8Z" style="fill:#faf9f8;fill-rule:nonzero" transform="translate(-231.318 -39.919) scale(1.55497)"/><path d="M421.852 70.645c.586 2.461-.945 4.919-3.293 5.506l-.004.001c-2.461.586-4.919-.945-5.506-3.293l-.001-.004c-.586-2.461.945-4.919 3.293-5.506l.004-.001c2.463-.586 4.92.833 5.507 3.297Zm-1.304.31c-.413-1.735-2.154-2.715-3.889-2.304-1.653.415-2.719 2.154-2.308 3.89.415 1.653 2.154 2.719 3.89 2.308 1.654-.415 2.721-2.157 2.307-3.894Z" style="fill:#d77425" transform="translate(-231.318 -39.919) scale(1.55497)"/><path d="M189.5 123.6c1.1 4.5-1.7 9-6.2 10.1-4.5 1.1-9-1.7-10.1-6.2-1.1-4.5 1.7-9 6.2-10.1 4.5-1.1 9 1.7 10.1 6.2Z" style="fill:#faf9f8;fill-rule:nonzero" transform="rotate(2.039 251.882 455.982)"/><path d="M192.536 122.858c1.51 6.178-2.316 12.367-8.494 13.878-6.178 1.51-12.367-2.316-13.878-8.494-1.51-6.178 2.316-12.367 8.494-13.878 6.178-1.51 12.367 2.316 13.878 8.494Zm-3.036.742c-1.1-4.5-5.6-7.3-10.1-6.2-4.5 1.1-7.3 5.6-6.2 10.1 1.1 4.5 5.6 7.3 10.1 6.2 4.5-1.1 7.3-5.6 6.2-10.1Z" style="fill:#d77425" transform="rotate(2.039 251.882 455.982)"/><path d="M89.111 352.607c-1.346-.315-2.587-.963-3.521-1.897-1.419-1.419-2.267-3.382-2.11-5.489.196-4.079 3.59-7.314 7.845-7.144 4.259.171 7.4 3.675 7.4 7.423 0 1.916-.922 3.716-2.315 5.11l-.065.065-.069.061c-1.162 1.033-2.539 1.733-4.032 1.985.317 7.479 1.27 14.942 2.785 22.254 1.636 7.056 3.872 13.963 6.577 20.654 3.581-.974 7.281.605 8.817 3.83l.001.003c1.375 2.903.339 6.846-2.506 9.095a132.411 132.411 0 0 0 12.385 18.045c4.843 5.74 10.257 11.071 16.017 15.923 2.618-2.391 6.582-2.763 9.477-.782l.033.024c2.958 2.136 3.89 6.465 1.812 9.981 12.134 7.541 25.664 13.05 39.846 16.001 1.194-3.563 4.737-5.732 8.196-5.137 3.364.491 6.03 3.474 6.171 7.172a121.057 121.057 0 0 0 46.401-4.382l.888 2.996a124.197 124.197 0 0 1-47.793 4.476c-1.234 3.189-4.543 5.295-8.065 4.708-3.426-.57-5.923-3.499-6.18-6.838-14.782-3.046-28.878-8.804-41.484-16.709-2.534 1.923-6.02 2.021-8.757-.005-2.915-2.072-3.773-5.86-2.385-8.97-5.964-5.007-11.567-10.518-16.583-16.462l-.008-.011a135.494 135.494 0 0 1-12.771-18.633c-3.335.876-6.802-.633-8.413-3.856-1.613-3.227-.66-6.966 2.089-9.086-2.807-6.917-5.125-14.062-6.82-21.377l-.004-.018a142.016 142.016 0 0 1-2.859-23.01Zm11.572 46.9c-1.553 1.229-2.104 3.351-1.183 5.193 1.1 2.2 3.7 3 5.9 1.8 2.1-1.2 3.1-3.8 2.2-5.7-.839-1.763-2.806-2.609-4.776-2.245l.012.03-2.153.922ZM198.7 470.7c.3-2.5-1.3-4.7-3.5-5-2.2-.4-4.4 1.2-4.9 3.6-.5 2.4 1.1 4.8 3.5 5.2 2.4.4 4.6-1.4 4.9-3.8Zm-53.9-20.3c1.4-2.1 1-4.8-.8-6.1-1.9-1.3-4.6-.8-6.1 1.1-1.5 1.9-1.2 4.7.8 6.1 2 1.5 4.7 1 6.1-1.1ZM91 349.7c1.2 0 2.3-.5 3.2-1.3.8-.8 1.4-1.8 1.4-2.9 0-2.2-1.9-4.2-4.4-4.3-2.5-.1-4.5 1.8-4.6 4.2-.1 1.2.4 2.3 1.2 3.1.8.8 2 1.2 3.2 1.2Z" style="fill:#d77425" transform="translate(-.607 8.628)"/><path d="m239 462.6 21.3-1.3-12.8 4.4-8.5-3.1Z" style="fill:#fff;fill-rule:nonzero" transform="translate(-83.677 -146.798) scale(1.33381)"/><path d="m234.5 461.6 11.6 4.5-6.4 10.7 23.5-16.4-28.7 1.2Z" style="fill:#d77425;fill-rule:nonzero" transform="translate(-83.677 -146.798) scale(1.33381)"/><path d="m80.4 297.3 6.7 24.2v-16l-6.7-8.2Z" style="fill:#fff;fill-rule:nonzero" transform="scale(1 -1) rotate(-72.351 -365.885 -193.482)"/></svg>