<svg viewBox="0 0 512 513" xmlns="http://www.w3.org/2000/svg" xml:space="preserve" style="fill-rule:evenodd;clip-rule:evenodd;stroke-linejoin:round;stroke-miterlimit:2"><path style="fill:none" d="M0 0h512v512H0z" transform="translate(0 .05)"/><path d="M87.318 123.091c-2.082 1.227-4.895.978-6.791-.918-2.242-2.241-2.182-5.765-.1-7.846 2.081-2.082 5.605-2.142 7.846.1 1.902 1.902 2.184 5.017.585 7.258l26.544 26.544c2.111-1.576 5.227-1.446 7.298.625l.027.028c1.884 2.03 2.089 5.119.543 7.214l27.232 27.233c2.111-1.577 5.225-1.448 7.271.598 2.038 2.038 2.174 5.136.616 7.246l26.538 26.538c2.11-1.558 5.208-1.422 7.246.616 2.03 2.03 2.27 5.105.655 7.227l28.409 28.409-1.474 1.474-28.483-28.484c-2.088 1.27-4.938 1.035-6.853-.88-1.926-1.926-2.153-4.798-.859-6.888l-26.653-26.653c-2.09 1.294-4.962 1.067-6.888-.859-1.896-1.896-2.145-4.709-.918-6.791l-27.391-27.391c-2.082 1.227-4.895.978-6.791-.918-1.896-1.896-2.145-4.709-.918-6.791l-26.691-26.691ZM121.3 155.2c1.3-1.3 1.2-3.5-.1-4.9-1.4-1.4-3.6-1.4-4.9-.1-1.3 1.3-1.3 3.5.1 4.9 1.4 1.4 3.6 1.4 4.9.1Zm-34.4-34.4c1.3-1.4 1.2-3.6-.1-4.9-1.4-1.4-3.6-1.4-4.9-.1-1.3 1.3-1.3 3.5.1 4.9 1.4 1.4 3.6 1.4 4.9.1Zm69.5 69.5c1.3-1.3 1.3-3.5-.1-4.9-1.4-1.4-3.6-1.4-4.9-.1-1.3 1.3-1.3 3.5.1 4.9 1.4 1.4 3.6 1.4 4.9.1Zm34.4 34.4c1.4-1.3 1.3-3.5-.1-4.9-1.4-1.4-3.6-1.4-4.9-.1-1.3 1.3-1.3 3.5.1 4.9 1.4 1.4 3.6 1.4 4.9.1Z" style="fill:#404751" transform="translate(-7.14 -2.261)"/><path d="M87.318 123.091c-2.082 1.227-4.895.978-6.791-.918-2.242-2.241-2.182-5.765-.1-7.846 2.081-2.082 5.605-2.142 7.846.1 1.902 1.902 2.184 5.017.585 7.258l26.544 26.544c2.111-1.576 5.227-1.446 7.298.625l.027.028c1.884 2.03 2.089 5.119.543 7.214l27.232 27.233c2.111-1.577 5.225-1.448 7.271.598 2.038 2.038 2.174 5.136.616 7.246l26.538 26.538c2.11-1.558 5.208-1.422 7.246.616 2.03 2.03 2.27 5.105.655 7.227l28.409 28.409-1.474 1.474-28.483-28.484c-2.088 1.27-4.938 1.035-6.853-.88-1.926-1.926-2.153-4.798-.859-6.888l-26.653-26.653c-2.09 1.294-4.962 1.067-6.888-.859-1.896-1.896-2.145-4.709-.918-6.791l-27.391-27.391c-2.082 1.227-4.895.978-6.791-.918-1.896-1.896-2.145-4.709-.918-6.791l-26.691-26.691ZM121.3 155.2c1.3-1.3 1.2-3.5-.1-4.9-1.4-1.4-3.6-1.4-4.9-.1-1.3 1.3-1.3 3.5.1 4.9 1.4 1.4 3.6 1.4 4.9.1Zm-34.4-34.4c1.3-1.4 1.2-3.6-.1-4.9-1.4-1.4-3.6-1.4-4.9-.1-1.3 1.3-1.3 3.5.1 4.9 1.4 1.4 3.6 1.4 4.9.1Zm69.5 69.5c1.3-1.3 1.3-3.5-.1-4.9-1.4-1.4-3.6-1.4-4.9-.1-1.3 1.3-1.3 3.5.1 4.9 1.4 1.4 3.6 1.4 4.9.1Zm34.4 34.4c1.4-1.3 1.3-3.5-.1-4.9-1.4-1.4-3.6-1.4-4.9-.1-1.3 1.3-1.3 3.5.1 4.9 1.4 1.4 3.6 1.4 4.9.1Z" style="fill:#404751" transform="translate(6.893 -41.468)"/><path d="M680.782 1334.84a10.15 10.15 0 0 1-5.959 1.93c-5.618 0-10.179-4.56-10.179-10.18s4.561-10.18 10.179-10.18 10.179 4.56 10.179 10.18c0 2.35-.797 4.51-2.136 6.24l53.998 53.99a10.138 10.138 0 0 1 6.026-1.97c5.618 0 10.179 4.56 10.179 10.18 0 2.25-.732 4.33-1.97 6.01l51.921 51.92a10.117 10.117 0 0 1 6.016-1.97c5.618 0 10.178 4.56 10.178 10.18 0 2.25-.73 4.33-1.967 6.01l52.52 52.53a10.11 10.11 0 0 1 6.014-1.97c5.618 0 10.178 4.56 10.178 10.18 0 2.3-.766 4.43-2.057 6.13l51.239 51.24a10.142 10.142 0 0 1 6.134-2.06c5.618 0 10.179 4.56 10.179 10.18 0 2.27-.746 4.37-2.007 6.07l52.873 52.73c1.68-1.22 3.75-1.95 5.99-1.95 5.61 0 10.18 4.56 10.18 10.18 0 2.24-.73 4.31-1.95 5.99l55.1 55.11-2.11 2.11-55.09-55.08a10.135 10.135 0 0 1-6.13 2.05c-5.62 0-10.182-4.56-10.182-10.18 0-2.3.764-4.42 2.052-6.13l-52.852-52.72c-1.692 1.26-3.786 2-6.053 2-5.617 0-10.178-4.56-10.178-10.18 0-2.29.76-4.41 2.042-6.11l-51.244-51.25a10.086 10.086 0 0 1-6.114 2.05c-5.618 0-10.179-4.57-10.179-10.18 0-2.32.773-4.45 2.076-6.16l-52.484-52.48a10.141 10.141 0 0 1-6.158 2.07c-5.618 0-10.179-4.56-10.179-10.18 0-2.31.774-4.45 2.077-6.16l-51.884-51.88a10.147 10.147 0 0 1-6.16 2.07c-5.618 0-10.179-4.56-10.179-10.17 0-2.32.777-4.46 2.085-6.17l-54.014-54.02Zm321.778 321.29a7.18 7.18 0 0 0-1.44 4.31c0 3.97 3.22 7.19 7.19 7.19 3.96 0 7.18-3.22 7.18-7.19 0-3.96-3.22-7.18-7.18-7.18-1.63 0-3.13.54-4.33 1.45l-1.42 1.42ZM674.823 1319.4a7.19 7.19 0 0 0 0 14.38 7.19 7.19 0 0 0 7.185-7.19 7.19 7.19 0 0 0-7.185-7.19Zm134.213 134.59c-3.966 0-7.185 3.22-7.185 7.18a7.19 7.19 0 0 0 7.185 7.19 7.19 7.19 0 0 0 7.185-7.19c0-3.96-3.22-7.18-7.185-7.18Zm66.745 66.74a7.19 7.19 0 0 0-7.185 7.19c0 3.96 3.219 7.18 7.185 7.18 3.965 0 7.185-3.22 7.185-7.18a7.19 7.19 0 0 0-7.185-7.19ZM742.89 1387.84a7.19 7.19 0 0 0-7.185 7.19c0 3.96 3.219 7.18 7.185 7.18 3.965 0 7.185-3.22 7.185-7.18a7.19 7.19 0 0 0-7.185-7.19Zm198.385 198.39c-3.965 0-7.185 3.22-7.185 7.18a7.19 7.19 0 0 0 7.185 7.19 7.19 7.19 0 0 0 7.185-7.19c0-3.96-3.219-7.18-7.185-7.18Z" style="fill:#778394" transform="matrix(.6959 0 0 .6959 -413.712 -853.926)"/><path d="M680.782 1334.84a10.15 10.15 0 0 1-5.959 1.93c-5.618 0-10.179-4.56-10.179-10.18s4.561-10.18 10.179-10.18 10.179 4.56 10.179 10.18c0 2.35-.797 4.51-2.136 6.24l53.998 53.99a10.138 10.138 0 0 1 6.026-1.97c5.618 0 10.179 4.56 10.179 10.18 0 2.25-.732 4.33-1.97 6.01l51.921 51.92a10.117 10.117 0 0 1 6.016-1.97c5.618 0 10.178 4.56 10.178 10.18 0 2.25-.73 4.33-1.967 6.01l52.52 52.53a10.11 10.11 0 0 1 6.014-1.97c5.618 0 10.178 4.56 10.178 10.18 0 2.3-.766 4.43-2.057 6.13l51.239 51.24a10.142 10.142 0 0 1 6.134-2.06c5.618 0 10.179 4.56 10.179 10.18 0 2.27-.746 4.37-2.007 6.07l52.873 52.73c1.68-1.22 3.75-1.95 5.99-1.95 5.61 0 10.18 4.56 10.18 10.18 0 2.24-.73 4.31-1.95 5.99l55.1 55.11-2.11 2.11-55.09-55.08a10.135 10.135 0 0 1-6.13 2.05c-5.62 0-10.182-4.56-10.182-10.18 0-2.3.764-4.42 2.052-6.13l-52.852-52.72c-1.692 1.26-3.786 2-6.053 2-5.617 0-10.178-4.56-10.178-10.18 0-2.29.76-4.41 2.042-6.11l-51.244-51.25a10.086 10.086 0 0 1-6.114 2.05c-5.618 0-10.179-4.57-10.179-10.18 0-2.32.773-4.45 2.076-6.16l-52.484-52.48a10.141 10.141 0 0 1-6.158 2.07c-5.618 0-10.179-4.56-10.179-10.18 0-2.31.774-4.45 2.077-6.16l-51.884-51.88a10.147 10.147 0 0 1-6.16 2.07c-5.618 0-10.179-4.56-10.179-10.17 0-2.32.777-4.46 2.085-6.17l-54.014-54.02Zm321.778 321.29a7.18 7.18 0 0 0-1.44 4.31c0 3.97 3.22 7.19 7.19 7.19 3.96 0 7.18-3.22 7.18-7.19 0-3.96-3.22-7.18-7.18-7.18-1.63 0-3.13.54-4.33 1.45l-1.42 1.42ZM674.823 1319.4a7.19 7.19 0 0 0 0 14.38 7.19 7.19 0 0 0 7.185-7.19 7.19 7.19 0 0 0-7.185-7.19Zm134.213 134.59c-3.966 0-7.185 3.22-7.185 7.18a7.19 7.19 0 0 0 7.185 7.19 7.19 7.19 0 0 0 7.185-7.19c0-3.96-3.22-7.18-7.185-7.18Zm66.745 66.74a7.19 7.19 0 0 0-7.185 7.19c0 3.96 3.219 7.18 7.185 7.18 3.965 0 7.185-3.22 7.185-7.18a7.19 7.19 0 0 0-7.185-7.19ZM742.89 1387.84a7.19 7.19 0 0 0-7.185 7.19c0 3.96 3.219 7.18 7.185 7.18 3.965 0 7.185-3.22 7.185-7.18a7.19 7.19 0 0 0-7.185-7.19Zm198.385 198.39c-3.965 0-7.185 3.22-7.185 7.18a7.19 7.19 0 0 0 7.185 7.19 7.19 7.19 0 0 0 7.185-7.19c0-3.96-3.219-7.18-7.185-7.18Z" style="fill:#778394" transform="matrix(.6959 0 0 .6959 -356.315 -847.226)"/><path d="M303.255 433.683c-.537 4.246-4.166 7.534-8.557 7.534-4.76 0-8.625-3.864-8.625-8.625 0-4.76 3.865-8.625 8.625-8.625 4.059 0 7.467 2.81 8.383 6.589 11.257-1.38 22.229-4.377 32.578-9.081l.005-.002c10.133-4.514 19.49-10.577 27.914-17.866a8.581 8.581 0 0 1-1.573-4.965c0-4.76 3.865-8.625 8.625-8.625 1.827 0 3.522.57 4.917 1.54 3.214-3.791 6.2-7.779 8.849-11.918l.012-.018c1.672-2.459 3.048-5.017 4.523-7.574l2.089-3.981.004-.007c.679-1.26 1.258-2.618 1.842-3.979l.002-.005c2.367-5.424 4.44-11.046 5.919-16.766a118.726 118.726 0 0 0 2.972-15.768c-3.812-.893-6.654-4.316-6.654-8.399 0-4.337 3.209-7.931 7.38-8.535-.678-21.889-7.764-43.532-20.414-61.378a8.574 8.574 0 0 1-4.531 1.287c-4.76 0-8.625-3.865-8.625-8.625 0-2.225.845-4.255 2.23-5.785-15.771-16.557-36.593-28.032-58.963-32.676l.636-3.06c23.098 4.796 44.588 16.68 60.823 33.826a8.628 8.628 0 0 1 12.524 7.695 8.587 8.587 0 0 1-1.763 5.224c13.181 18.46 20.552 40.912 21.213 63.609 3.855.861 6.74 4.305 6.74 8.418 0 4.368-3.254 7.982-7.467 8.548a121.826 121.826 0 0 1-3.075 16.401c-1.52 5.878-3.647 11.655-6.079 17.229-.616 1.438-1.235 2.876-1.954 4.212l-2.111 4.022-.016.027c-1.515 2.627-2.932 5.253-4.645 7.773-2.759 4.311-5.885 8.475-9.253 12.43a8.58 8.58 0 0 1 1.5 4.858c0 4.761-3.865 8.625-8.625 8.625a8.581 8.581 0 0 1-4.811-1.467c-8.706 7.565-18.389 13.852-28.878 18.525-10.695 4.861-22.043 7.951-33.686 9.358Zm-8.557-6.591a5.503 5.503 0 0 0-5.5 5.5c0 3.036 2.465 5.5 5.5 5.5 3.036 0 5.5-2.464 5.5-5.5 0-3.035-2.464-5.5-5.5-5.5Zm75.932-33.95a5.503 5.503 0 0 0-5.5 5.5c0 3.036 2.464 5.5 5.5 5.5 3.035 0 5.5-2.464 5.5-5.5 0-3.035-2.465-5.5-5.5-5.5Zm33.1-75.5a5.503 5.503 0 0 0-5.5 5.5c0 3.036 2.464 5.5 5.5 5.5 3.035 0 5.5-2.464 5.5-5.5 0-3.035-2.465-5.5-5.5-5.5Zm-26.19-77.251a5.503 5.503 0 0 0-5.5 5.5c0 3.035 2.465 5.5 5.5 5.5 3.036 0 5.5-2.465 5.5-5.5 0-3.036-2.464-5.5-5.5-5.5Z" style="fill:#d77526" transform="translate(0 .05)"/><path d="M453.5 117c-18.4-3.7-37.4-3.6-55.5 0s-35.3 10.9-50.4 21a137.1 137.1 0 0 0-37.9 38c-9.9 14.9-16.7 31.6-20 48.8-1.1 5.5-6.4 9-11.8 8-5.5-1.1-9-6.4-8-11.8.1-.3.1-.5.2-.8v-.1c5.4-19.4 14.7-37.7 27-53.3 12.3-15.6 27.6-28.7 44.7-38.2 17.1-9.6 35.9-15.7 55.1-18 19.2-2.3 38.6-.7 56.9 4.5.5.1.8.6.6 1.1 0 .6-.4.8-.9.8Z" style="fill:#fff;fill-rule:nonzero" transform="translate(0 .05)"/><path d="M386.6 74.9c-16.8 1.8-33.4 6.3-47.7 14.5-7.2 4.1-13.8 9-19.6 14.7-5.8 5.7-10.8 12.2-14.9 19.1-8.2 13.9-12.9 29.7-15.2 45.7-2.2 16.1-2 32.5-.2 48.8.6 5.5-3.4 10.5-8.9 11.1-5.5.6-10.5-3.4-11.1-8.9 0-.3-.1-.6-.1-.9-.3-17.7 1-35.5 5-52.9 4-17.3 10.8-34.3 21.3-48.9 5.2-7.3 11.4-13.9 18.2-19.5 6.9-5.7 14.5-10.3 22.5-13.9 16-7.3 33.4-10.3 50.5-10.6.5 0 .9.4.9.9.1.3-.2.7-.7.8Z" style="fill:#fff;fill-rule:nonzero" transform="translate(0 .05)"/><path d="M85.842 313.813c-2.435-.616-4.498-2.093-5.925-4.168l-.036-.058a14.195 14.195 0 0 1-1.548-3.47l-.043-.143-.03-.148c-.139-.695-.262-1.392-.262-2.226 0-.695.123-1.531.27-2.267l.01-.041c.691-3.042 2.37-5.378 4.618-6.924l.037-.023c2.138-1.384 4.607-1.895 7.117-1.503 3.992-13.39 10.327-26.094 18.84-37.205 9.032-11.918 20.372-22.004 33.217-29.644l1.565 2.71c-12.503 7.436-23.541 17.252-32.335 28.856l-.002.003c-8.282 10.81-14.443 23.169-18.325 36.196 1.87.911 3.346 2.354 4.409 4.055 1.431 2.289 1.986 5.01 1.418 7.729-.14.688-.387 1.252-.663 1.943l-.049.122-.726 1.452-.08.128c-.708 1.133-1.543 1.996-2.689 2.855l-.014.01c-1.587 1.164-3.572 1.867-5.689 2.008l-.144 2.044c-.098 1.792-.293 3.681-.393 5.47-.001 3.663-.198 7.326.095 10.996l.294 4.174.192 1.364.696 5.553.001.012c.093.849.282 1.698.474 2.574l.5 2.742.495 2.707c.195.878.481 1.755.675 2.633l1.364 5.243 1.78 5.217.013.047c.477 1.746 1.247 3.393 1.916 5.041l1.1 2.638.011.031a26.2 26.2 0 0 0 1.022 2.357l2.512 4.998.031.083c.263.712.712 1.419 1.163 2.152l2.81 4.889.022.045c.371.753.933 1.407 1.398 2.157l1.187 1.787c2.205-1.127 4.695-1.393 7.187-.77 2.825.706 4.966 2.511 6.378 4.771 1.43 2.289 1.985 5.01 1.417 7.728-.139.689-.386 1.253-.662 1.943l-.049.123-.727 1.452-.079.127c-.708 1.133-1.543 1.997-2.69 2.856l-.013.01c-2.081 1.526-4.846 2.259-7.695 1.974l-.075-.012c-2.872-.43-5.31-2.015-6.929-4.369l-.037-.059a14.209 14.209 0 0 1-1.548-3.469l-.043-.144-.029-.147c-.139-.695-.262-1.392-.262-2.226 0-.696.123-1.532.27-2.268l.009-.04c.521-2.293 1.603-4.184 3.067-5.639l-1.272-1.915-.014-.023c-.512-.832-1.116-1.566-1.532-2.393l-1.364-2.372-1.369-2.384c-.532-.863-1.053-1.732-1.383-2.593l-2.441-4.857-.003-.006a28.952 28.952 0 0 1-1.142-2.631l-1.081-2.592-.003-.007c-.71-1.751-1.514-3.504-2.026-5.356l-1.787-5.238-1.409-5.414-.006-.031c-.198-.904-.495-1.809-.699-2.741l-.501-2.741-.489-2.682c-.207-.948-.411-1.896-.515-2.843l-.691-5.508-.204-1.45-.103-1.462-.198-2.808c-.299-3.759-.103-7.517-.103-11.276v-.044l.002-.043c.099-1.809.297-3.719.397-5.541l.147-2.091Zm21.563 81.715c-.853.987-1.488 2.222-1.818 3.674-.1.5-.2 1.1-.2 1.6 0 .6.1 1.1.2 1.6.3 1 .7 1.9 1.2 2.7 1.1 1.6 2.8 2.7 4.8 3 2 .2 4-.3 5.5-1.4.8-.6 1.4-1.2 1.9-2l.6-1.2c.2-.5.4-.9.5-1.4.4-1.9 0-3.8-1-5.4-1-1.6-2.5-2.9-4.5-3.4-1.617-.405-3.234-.286-4.692.355l.115.174-2.566 1.755-.039-.058ZM90.3 296.1c-2-.5-4-.2-5.7.9-1.6 1.1-2.8 2.8-3.3 5-.1.5-.2 1.1-.2 1.6 0 .6.1 1.1.2 1.6.3 1 .7 1.9 1.2 2.7 1.1 1.6 2.8 2.7 4.8 3 2 .2 4-.3 5.5-1.4.8-.6 1.4-1.2 1.9-2l.6-1.2c.2-.5.4-.9.5-1.4.4-1.9 0-3.8-1-5.4-1-1.6-2.5-2.9-4.5-3.4Z" style="fill:#d77526" transform="matrix(1.00988 0 0 .99486 -.801 1.571)"/><path d="m119.7 224.9 20.1 5.1-8.4 19 35.6-32.3-47.3 8.2Z" style="fill:#d77526;fill-rule:nonzero" transform="translate(0 .05)"/><path d="m127.2 225.5 35.2-6.5-20.4 9.9-14.8-3.4Z" style="fill:#fff;fill-rule:nonzero" transform="translate(0 .05)"/><path d="M169.638 440.382c-11.905-3.859-23.158-9.562-33.266-17.025l1.856-2.514c9.822 7.251 20.754 12.794 32.32 16.549 1.336-2.1 3.918-3.175 6.515-2.43l.022.007c2.407.732 4.09 2.923 4.228 5.361 11.37 2.507 23.103 3.145 34.711 2.056.033-.186.076-.372.129-.558.877-3.082 4.033-4.897 7.212-3.984l.021.006a6.004 6.004 0 0 1 3.55 2.942 116.036 116.036 0 0 0 32.736-11.953 5.672 5.672 0 0 1-.01-3.125c.877-3.082 4.033-4.897 7.212-3.984l.021.006a5.943 5.943 0 0 1 2.213 1.241c9.376-6.421 17.88-14.326 24.917-23.317-1.248-1.447-1.777-3.455-1.231-5.376.877-3.082 4.034-4.897 7.212-3.984l.022.006c2.926.89 4.783 3.936 4.094 6.961-.71 3.117-3.911 5.286-7.263 4.22a5.044 5.044 0 0 1-.238-.075c-7.27 9.328-16.074 17.524-25.788 24.172a5.77 5.77 0 0 1 .157 3.113c-.71 3.117-3.912 5.286-7.263 4.221a5.94 5.94 0 0 1-2.432-1.405 119.158 119.158 0 0 1-33.679 12.33 5.782 5.782 0 0 1-.136.968c-.709 3.117-3.911 5.286-7.263 4.22a5.974 5.974 0 0 1-3.869-3.537c-11.943 1.124-24.014.467-35.711-2.113-1.225 2.292-3.921 3.659-6.721 2.769-2.616-.768-4.325-3.202-4.278-5.768Zm2.842.054c-.031 1.335.886 2.597 2.256 2.99 1.7.555 3.311-.555 3.669-2.128.359-1.572-.626-3.145-2.148-3.608a2.94 2.94 0 0 0-3.339 1.281l-.438 1.465Zm46.409 2.171c-.448 1.573.537 3.238 2.148 3.7 1.701.555 3.312-.555 3.67-2.127.358-1.573-.627-3.146-2.148-3.608a2.942 2.942 0 0 0-3.67 2.035Zm43.509-16.114c-.448 1.573.537 3.238 2.148 3.701 1.701.555 3.312-.556 3.67-2.128.358-1.573-.626-3.146-2.148-3.608a2.943 2.943 0 0 0-3.67 2.035Zm33.132-31.43c-.447 1.572.537 3.238 2.149 3.7 1.7.555 3.311-.555 3.669-2.128.359-1.572-.626-3.145-2.148-3.608a2.945 2.945 0 0 0-3.67 2.036Z" style="fill:#768293" transform="translate(0 .05)"/><path d="m142.6 438.7-2.7-14.9 15.1-.1-32.1-13.9 19.7 28.9Z" style="fill:#768293;fill-rule:nonzero" transform="translate(0 .05)"/><path d="m140.7 433.5-15-21.3 12.8 10.5 2.2 10.8Z" style="fill:#fff;fill-rule:nonzero" transform="translate(0 .05)"/></svg>