<svg viewBox="0 0 513 513" xmlns="http://www.w3.org/2000/svg" xml:space="preserve" style="fill-rule:evenodd;clip-rule:evenodd;stroke-miterlimit:10"><path style="fill:none" d="M0 0h512v512H0z" transform="translate(.2 .85)"/><path d="M85.883 313.802c-2.466-.609-4.556-2.093-5.997-4.188l-.036-.058a14.136 14.136 0 0 1-1.543-3.458l-.042-.141-.029-.144c-.138-.691-.261-1.384-.261-2.213 0-.691.123-1.522.269-2.253l.009-.04c.69-3.035 2.369-5.364 4.613-6.907l.036-.024c2.171-1.404 4.681-1.913 7.23-1.499 4.031-13.328 10.431-25.973 19.032-37.033 9.122-11.857 20.574-21.891 33.546-29.492l1.58 2.696c-12.626 7.398-23.774 17.163-32.654 28.708l-.003.003c-8.375 10.769-14.602 23.085-18.522 36.065 1.836.913 3.289 2.34 4.339 4.02 1.423 2.276 1.976 4.981 1.411 7.684-.139.685-.385 1.246-.66 1.933l-.048.12-.724 1.449-.079.126c-.708 1.132-1.543 1.995-2.688 2.854l-.014.01c-1.578 1.157-3.546 1.859-5.648 2.011L88.859 316c-.099 1.783-.296 3.662-.397 5.441-.001 3.645-.2 7.289.096 10.94l.297 4.153.193 1.357.704 5.524.001.012c.094.845.285 1.689.478 2.561l.505 2.727.5 2.694c.197.873.486 1.746.682 2.619l1.378 5.216 1.796 5.191.013.047c.483 1.737 1.261 3.374 1.936 5.015l1.111 2.624.011.03c.281.751.657 1.595 1.032 2.345l2.537 4.973.031.082c.266.709.719 1.412 1.175 2.141l2.837 4.864.023.045c.374.749.942 1.4 1.412 2.146l1.029 1.527a9.877 9.877 0 0 1 1.883-.625c1.228-.272 2.593-.391 3.821-.255 2.732.291 5.171 1.596 6.928 3.792l.029.039c.791 1.055 1.43 2.122 1.846 3.232l.019.055a9.34 9.34 0 0 1 .451 3.935c-.16 2.658-1.283 5.177-3.384 7.138-2.151 2.007-4.872 2.879-7.67 2.732l-.073-.008c-1.291-.129-2.459-.491-3.75-1.008l-.183-.073-.174-.096c-1.24-.689-2.454-1.547-3.413-2.768-1.95-2.381-2.755-5.326-2.478-7.984a10.837 10.837 0 0 1 1.114-3.778l.179-.358.264-.302c.646-.738 1.238-1.396 1.951-1.993l-1.01-1.498-.014-.023c-.517-.827-1.127-1.558-1.548-2.38l-1.377-2.361-1.383-2.371c-.536-.859-1.063-1.723-1.396-2.58l-2.466-4.832-.003-.005a29.27 29.27 0 0 1-1.153-2.618l-1.091-2.579-.003-.007c-.717-1.742-1.529-3.486-2.047-5.328l-1.804-5.211-1.423-5.387-.006-.03c-.2-.9-.5-1.8-.706-2.727l-.505-2.727-.494-2.668c-.21-.944-.416-1.887-.521-2.831l-.697-5.477-.207-1.443-.104-1.455-.199-2.793c-.303-3.739-.105-7.479-.105-11.218v-.043l.003-.044c.1-1.8.3-3.7.401-5.512l.142-1.999ZM108.2 393.9c-.9.6-1.5 1.3-2.2 2.1-.4.8-.7 1.7-.8 2.7-.2 1.9.4 4 1.8 5.7.7.9 1.6 1.5 2.5 2 1 .4 1.9.7 2.9.8 1.9.1 3.8-.5 5.3-1.9s2.3-3.2 2.4-5.1c.1-.9 0-1.8-.3-2.7-.3-.8-.8-1.6-1.4-2.4-1.2-1.5-2.9-2.4-4.8-2.6-.9-.1-1.9 0-2.8.2-.9.2-1.8.6-2.6 1.2Zm-17.9-97.8c-2-.5-4-.2-5.7.9-1.6 1.1-2.8 2.8-3.3 5-.1.5-.2 1.1-.2 1.6 0 .6.1 1.1.2 1.6.3 1 .7 1.9 1.2 2.7 1.1 1.6 2.8 2.7 4.8 3 2 .2 4-.3 5.5-1.4.8-.6 1.4-1.2 1.9-2l.6-1.2c.2-.5.4-.9.5-1.4.4-1.9 0-3.8-1-5.4-1-1.6-2.5-2.9-4.5-3.4Z" style="fill:#d77526" transform="translate(-58.666 12.28) scale(1.04912)"/><path d="m119.7 224.9 20.1 5.1-8.4 19 35.6-32.3-47.3 8.2Z" style="fill:#d77526;fill-rule:nonzero" transform="translate(-58.666 12.28) scale(1.04912)"/><path d="m127.2 225.5 35.2-6.5-20.4 9.9-14.8-3.4Z" style="fill:#fff;fill-rule:nonzero" transform="translate(-58.666 12.28) scale(1.04912)"/><path d="M169.371 440.296c-11.806-3.858-22.966-9.532-32.999-16.939l1.856-2.514c9.773 7.216 20.647 12.739 32.149 16.494 1.475-2.256 4.311-3.439 7.182-2.642l.023.007c2.7.794 4.558 3.188 4.714 5.839 10.773 2.271 21.859 2.872 32.845 1.925.448-2.668 2.584-4.772 5.445-5.248a6.417 6.417 0 0 1 6.821 3.478 116.031 116.031 0 0 0 31.794-11.601c-.598-2.613.537-5.343 2.927-6.936l.064-.039c2.263-1.357 5.207-1.137 7.237.362 5.293-4.271 17.99-14.863 24.185-22.33a6.563 6.563 0 0 1-.114-7.485c1.969-2.954 6.108-3.682 8.874-1.74 2.922 1.981 3.604 6.079 1.446 9.021l.242-.386-.814 1.178-1.034.927-1.175.645-1.251.364-1.278.095-1.271-.17-1.23-.435-.004-.003c-6.355 7.63-19.251 18.421-24.625 22.76 1.278 2.765.373 6.139-2.466 8.091l-.058.036c-2.729 1.706-6.206 1.011-8.213-1.181a119.203 119.203 0 0 1-32.577 11.882c-.102 2.981-2.336 5.524-5.579 6.036-3.213.507-6.191-1.414-7.119-4.204-11.267.967-22.636.348-33.685-1.977-1.276 2.63-4.34 4.284-7.553 3.296-3.05-.864-4.965-3.699-4.759-6.606Zm3.133.06c-.203 1.554.856 3.089 2.496 3.544 1.9.6 3.7-.6 4.1-2.3.4-1.7-.7-3.4-2.4-3.9-1.623-.451-3.246.318-3.916 1.72l-.28.936ZM296.8 399c1.4 1.1 3.6.8 4.5-.9 1.1-1.5.8-3.6-.7-4.6-1.4-1-3.5-.6-4.5.9s-.7 3.5.7 4.6Zm-34.2 30.3c.9 1.5 3 2.1 4.6 1.1 1.6-1.1 2.1-3.1 1.1-4.6-.9-1.5-3-1.9-4.5-1-1.5 1-2.1 2.9-1.2 4.5Zm-44.4 14.6c.1 1.8 1.9 3.1 3.8 2.8 1.9-.3 3.2-1.9 2.9-3.7-.3-1.8-2-3-3.8-2.7-1.8.3-3.1 1.8-2.9 3.6Z" style="fill:#768293" transform="translate(-58.666 12.28) scale(1.04912)"/><path d="m142.6 438.7-2.7-14.9 15.1-.1-32.1-13.9 19.7 28.9Z" style="fill:#768293;fill-rule:nonzero" transform="translate(-58.666 12.28) scale(1.04912)"/><path d="m140.7 433.5-15-21.3 12.8 10.5 2.2 10.8Z" style="fill:#fff;fill-rule:nonzero" transform="translate(-58.666 12.28) scale(1.04912)"/><path d="M87.318 123.091c-2.082 1.227-4.895.978-6.791-.918-2.242-2.241-2.182-5.765-.1-7.846 2.081-2.082 5.605-2.142 7.846.1 1.902 1.902 2.184 5.017.585 7.258l26.544 26.544c2.111-1.576 5.227-1.446 7.298.625l.027.028c1.884 2.03 2.089 5.119.543 7.214l27.232 27.233c2.111-1.577 5.225-1.448 7.271.598 2.038 2.038 2.174 5.136.616 7.246l26.538 26.538c2.11-1.558 5.208-1.422 7.246.616 2.03 2.03 2.27 5.105.655 7.227l28.409 28.409-1.474 1.474-28.483-28.484c-2.088 1.27-4.938 1.035-6.853-.88-1.926-1.926-2.153-4.798-.859-6.888l-26.653-26.653c-2.09 1.294-4.962 1.067-6.888-.859-1.896-1.896-2.145-4.709-.918-6.791l-27.391-27.391c-2.082 1.227-4.895.978-6.791-.918-1.896-1.896-2.145-4.709-.918-6.791l-26.691-26.691ZM121.3 155.2c1.3-1.3 1.2-3.5-.1-4.9-1.4-1.4-3.6-1.4-4.9-.1-1.3 1.3-1.3 3.5.1 4.9 1.4 1.4 3.6 1.4 4.9.1Zm-34.4-34.4c1.3-1.4 1.2-3.6-.1-4.9-1.4-1.4-3.6-1.4-4.9-.1-1.3 1.3-1.3 3.5.1 4.9 1.4 1.4 3.6 1.4 4.9.1Zm69.5 69.5c1.3-1.3 1.3-3.5-.1-4.9-1.4-1.4-3.6-1.4-4.9-.1-1.3 1.3-1.3 3.5.1 4.9 1.4 1.4 3.6 1.4 4.9.1Zm34.4 34.4c1.4-1.3 1.3-3.5-.1-4.9-1.4-1.4-3.6-1.4-4.9-.1-1.3 1.3-1.3 3.5.1 4.9 1.4 1.4 3.6 1.4 4.9.1Z" style="fill:#404751" transform="matrix(-1 0 0 1 514.858 107.005)"/><path d="M87.318 123.091c-2.082 1.227-4.895.978-6.791-.918-2.242-2.241-2.182-5.765-.1-7.846 2.081-2.082 5.605-2.142 7.846.1 1.902 1.902 2.184 5.017.585 7.258l26.544 26.544c2.111-1.576 5.227-1.446 7.298.625l.027.028c1.884 2.03 2.089 5.119.543 7.214l27.232 27.233c2.111-1.577 5.225-1.448 7.271.598 2.038 2.038 2.174 5.136.616 7.246l26.538 26.538c2.11-1.558 5.208-1.422 7.246.616 2.03 2.03 2.27 5.105.655 7.227l28.409 28.409-1.474 1.474-28.483-28.484c-2.088 1.27-4.938 1.035-6.853-.88-1.926-1.926-2.153-4.798-.859-6.888l-26.653-26.653c-2.09 1.294-4.962 1.067-6.888-.859-1.896-1.896-2.145-4.709-.918-6.791l-27.391-27.391c-2.082 1.227-4.895.978-6.791-.918-1.896-1.896-2.145-4.709-.918-6.791l-26.691-26.691ZM121.3 155.2c1.3-1.3 1.2-3.5-.1-4.9-1.4-1.4-3.6-1.4-4.9-.1-1.3 1.3-1.3 3.5.1 4.9 1.4 1.4 3.6 1.4 4.9.1Zm-34.4-34.4c1.3-1.4 1.2-3.6-.1-4.9-1.4-1.4-3.6-1.4-4.9-.1-1.3 1.3-1.3 3.5.1 4.9 1.4 1.4 3.6 1.4 4.9.1Zm69.5 69.5c1.3-1.3 1.3-3.5-.1-4.9-1.4-1.4-3.6-1.4-4.9-.1-1.3 1.3-1.3 3.5.1 4.9 1.4 1.4 3.6 1.4 4.9.1Zm34.4 34.4c1.4-1.3 1.3-3.5-.1-4.9-1.4-1.4-3.6-1.4-4.9-.1-1.3 1.3-1.3 3.5.1 4.9 1.4 1.4 3.6 1.4 4.9.1Z" style="fill:#404751" transform="matrix(-1 0 0 1 500.824 67.798)"/><path d="M680.782 1334.84a10.15 10.15 0 0 1-5.959 1.93c-5.618 0-10.179-4.56-10.179-10.18s4.561-10.18 10.179-10.18 10.179 4.56 10.179 10.18c0 2.35-.797 4.51-2.136 6.24l53.998 53.99a10.138 10.138 0 0 1 6.026-1.97c5.618 0 10.179 4.56 10.179 10.18 0 2.25-.732 4.33-1.97 6.01l51.921 51.92a10.117 10.117 0 0 1 6.016-1.97c5.618 0 10.178 4.56 10.178 10.18 0 2.25-.73 4.33-1.967 6.01l52.52 52.53a10.11 10.11 0 0 1 6.014-1.97c5.618 0 10.178 4.56 10.178 10.18 0 2.3-.766 4.43-2.057 6.13l51.239 51.24a10.142 10.142 0 0 1 6.134-2.06c5.618 0 10.179 4.56 10.179 10.18 0 2.27-.746 4.37-2.007 6.07l52.873 52.73c1.68-1.22 3.75-1.95 5.99-1.95 5.61 0 10.18 4.56 10.18 10.18 0 2.24-.73 4.31-1.95 5.99l55.1 55.11-2.11 2.11-55.09-55.08a10.135 10.135 0 0 1-6.13 2.05c-5.62 0-10.182-4.56-10.182-10.18 0-2.3.764-4.42 2.052-6.13l-52.852-52.72c-1.692 1.26-3.786 2-6.053 2-5.617 0-10.178-4.56-10.178-10.18 0-2.29.76-4.41 2.042-6.11l-51.244-51.25a10.086 10.086 0 0 1-6.114 2.05c-5.618 0-10.179-4.57-10.179-10.18 0-2.32.773-4.45 2.076-6.16l-52.484-52.48a10.141 10.141 0 0 1-6.158 2.07c-5.618 0-10.179-4.56-10.179-10.18 0-2.31.774-4.45 2.077-6.16l-51.884-51.88a10.147 10.147 0 0 1-6.16 2.07c-5.618 0-10.179-4.56-10.179-10.17 0-2.32.777-4.46 2.085-6.17l-54.014-54.02Zm321.778 321.29a7.18 7.18 0 0 0-1.44 4.31c0 3.97 3.22 7.19 7.19 7.19 3.96 0 7.18-3.22 7.18-7.19 0-3.96-3.22-7.18-7.18-7.18-1.63 0-3.13.54-4.33 1.45l-1.42 1.42ZM674.823 1319.4a7.19 7.19 0 0 0 0 14.38 7.19 7.19 0 0 0 7.185-7.19 7.19 7.19 0 0 0-7.185-7.19Zm134.213 134.59c-3.966 0-7.185 3.22-7.185 7.18a7.19 7.19 0 0 0 7.185 7.19 7.19 7.19 0 0 0 7.185-7.19c0-3.96-3.22-7.18-7.185-7.18Zm66.745 66.74a7.19 7.19 0 0 0-7.185 7.19c0 3.96 3.219 7.18 7.185 7.18 3.965 0 7.185-3.22 7.185-7.18a7.19 7.19 0 0 0-7.185-7.19ZM742.89 1387.84a7.19 7.19 0 0 0-7.185 7.19c0 3.96 3.219 7.18 7.185 7.18 3.965 0 7.185-3.22 7.185-7.18a7.19 7.19 0 0 0-7.185-7.19Zm198.385 198.39c-3.965 0-7.185 3.22-7.185 7.18a7.19 7.19 0 0 0 7.185 7.19 7.19 7.19 0 0 0 7.185-7.19c0-3.96-3.219-7.18-7.185-7.18Z" style="fill:#778394" transform="matrix(-.6959 0 0 .6959 921.429 -744.66)"/><path d="M680.782 1334.84a10.15 10.15 0 0 1-5.959 1.93c-5.618 0-10.179-4.56-10.179-10.18s4.561-10.18 10.179-10.18 10.179 4.56 10.179 10.18c0 2.35-.797 4.51-2.136 6.24l53.998 53.99a10.138 10.138 0 0 1 6.026-1.97c5.618 0 10.179 4.56 10.179 10.18 0 2.25-.732 4.33-1.97 6.01l51.921 51.92a10.117 10.117 0 0 1 6.016-1.97c5.618 0 10.178 4.56 10.178 10.18 0 2.25-.73 4.33-1.967 6.01l52.52 52.53a10.11 10.11 0 0 1 6.014-1.97c5.618 0 10.178 4.56 10.178 10.18 0 2.3-.766 4.43-2.057 6.13l51.239 51.24a10.142 10.142 0 0 1 6.134-2.06c5.618 0 10.179 4.56 10.179 10.18 0 2.27-.746 4.37-2.007 6.07l52.873 52.73c1.68-1.22 3.75-1.95 5.99-1.95 5.61 0 10.18 4.56 10.18 10.18 0 2.24-.73 4.31-1.95 5.99l55.1 55.11-2.11 2.11-55.09-55.08a10.135 10.135 0 0 1-6.13 2.05c-5.62 0-10.182-4.56-10.182-10.18 0-2.3.764-4.42 2.052-6.13l-52.852-52.72c-1.692 1.26-3.786 2-6.053 2-5.617 0-10.178-4.56-10.178-10.18 0-2.29.76-4.41 2.042-6.11l-51.244-51.25a10.086 10.086 0 0 1-6.114 2.05c-5.618 0-10.179-4.57-10.179-10.18 0-2.32.773-4.45 2.076-6.16l-52.484-52.48a10.141 10.141 0 0 1-6.158 2.07c-5.618 0-10.179-4.56-10.179-10.18 0-2.31.774-4.45 2.077-6.16l-51.884-51.88a10.147 10.147 0 0 1-6.16 2.07c-5.618 0-10.179-4.56-10.179-10.17 0-2.32.777-4.46 2.085-6.17l-54.014-54.02Zm321.778 321.29a7.18 7.18 0 0 0-1.44 4.31c0 3.97 3.22 7.19 7.19 7.19 3.96 0 7.18-3.22 7.18-7.19 0-3.96-3.22-7.18-7.18-7.18-1.63 0-3.13.54-4.33 1.45l-1.42 1.42ZM674.823 1319.4a7.19 7.19 0 0 0 0 14.38 7.19 7.19 0 0 0 7.185-7.19 7.19 7.19 0 0 0-7.185-7.19Zm134.213 134.59c-3.966 0-7.185 3.22-7.185 7.18a7.19 7.19 0 0 0 7.185 7.19 7.19 7.19 0 0 0 7.185-7.19c0-3.96-3.22-7.18-7.185-7.18Zm66.745 66.74a7.19 7.19 0 0 0-7.185 7.19c0 3.96 3.219 7.18 7.185 7.18 3.965 0 7.185-3.22 7.185-7.18a7.19 7.19 0 0 0-7.185-7.19ZM742.89 1387.84a7.19 7.19 0 0 0-7.185 7.19c0 3.96 3.219 7.18 7.185 7.18 3.965 0 7.185-3.22 7.185-7.18a7.19 7.19 0 0 0-7.185-7.19Zm198.385 198.39c-3.965 0-7.185 3.22-7.185 7.18a7.19 7.19 0 0 0 7.185 7.19 7.19 7.19 0 0 0 7.185-7.19c0-3.96-3.219-7.18-7.185-7.18Z" style="fill:#778394" transform="matrix(-.6959 0 0 .6959 864.032 -737.96)"/><path d="M113.2 40.3c-1.3 0-2.4-1-2.4-2.2 0-1.2 1.1-2.2 2.4-2.2 1.3 0 2.4 1 2.4 2.2 0 1.3-1.1 2.2-2.4 2.2ZM113.2 70.4c-1.3 0-2.4-1-2.4-2.2 0-1.2 1.1-2.2 2.4-2.2 1.3 0 2.4 1 2.4 2.2 0 1.2-1.1 2.2-2.4 2.2ZM113 40.1v26M113 70.4v26M113.2 101.1c-1.3 0-2.4-1-2.4-2.2 0-1.2 1.1-2.2 2.4-2.2 1.3 0 2.4 1 2.4 2.2 0 1.2-1.1 2.2-2.4 2.2ZM113.2 131.1c-1.3 0-2.4-1-2.4-2.2 0-1.2 1.1-2.2 2.4-2.2 1.3 0 2.4 1 2.4 2.2 0 1.2-1.1 2.2-2.4 2.2ZM113 100.9v26M113 131.1v26M113.2 161.8c-1.3 0-2.4-1-2.4-2.2 0-1.2 1.1-2.2 2.4-2.2 1.3 0 2.4 1 2.4 2.2 0 1.3-1.1 2.2-2.4 2.2ZM113.2 191.8c-1.3 0-2.4-1-2.4-2.2 0-1.2 1.1-2.2 2.4-2.2 1.3 0 2.4 1 2.4 2.2 0 1.3-1.1 2.2-2.4 2.2ZM113 161.6v26M113 191.9v25.9M104.5 70.1c-1.3 0-2.4-1-2.4-2.2 0-1.2 1.1-2.2 2.4-2.2 1.3 0 2.4 1 2.4 2.2 0 1.2-1.1 2.2-2.4 2.2ZM104.5 100.1c-1.3 0-2.4-1-2.4-2.2 0-1.2 1.1-2.2 2.4-2.2 1.3 0 2.4 1 2.4 2.2 0 1.2-1.1 2.2-2.4 2.2ZM104.3 69.9v25.9M104.3 100.1v26M104.5 130.8c-1.3 0-2.4-1-2.4-2.2 0-1.2 1.1-2.2 2.4-2.2 1.3 0 2.4 1 2.4 2.2 0 1.3-1.1 2.2-2.4 2.2ZM104.5 160.8c-1.3 0-2.4-1-2.4-2.2 0-1.2 1.1-2.2 2.4-2.2 1.3 0 2.4 1 2.4 2.2 0 1.3-1.1 2.2-2.4 2.2ZM104.3 130.6v26M104.3 160.9v25.9M104.5 191.6c-1.3 0-2.4-1-2.4-2.2 0-1.2 1.1-2.2 2.4-2.2 1.3 0 2.4 1 2.4 2.2 0 1.2-1.1 2.2-2.4 2.2ZM104.5 221.6c-1.3 0-2.4-1-2.4-2.2 0-1.2 1.1-2.2 2.4-2.2 1.3 0 2.4 1 2.4 2.2 0 1.2-1.1 2.2-2.4 2.2ZM104.3 191.4v25.9M104.3 221.6v26M95.8 100.1c-1.3 0-2.4-1-2.4-2.2 0-1.2 1.1-2.2 2.4-2.2 1.3 0 2.4 1 2.4 2.2.1 1.2-1 2.2-2.4 2.2ZM95.8 130.1c-1.3 0-2.4-1-2.4-2.2 0-1.2 1.1-2.2 2.4-2.2 1.3 0 2.4 1 2.4 2.2.1 1.2-1 2.2-2.4 2.2ZM95.6 99.9v25.9M95.6 130.1v26M95.8 160.8c-1.3 0-2.4-1-2.4-2.2 0-1.2 1.1-2.2 2.4-2.2 1.3 0 2.4 1 2.4 2.2.1 1.3-1 2.2-2.4 2.2ZM95.8 190.8c-1.3 0-2.4-1-2.4-2.2 0-1.2 1.1-2.2 2.4-2.2 1.3 0 2.4 1 2.4 2.2.1 1.3-1 2.2-2.4 2.2ZM95.6 160.6v26M95.6 190.9v25.9M95.8 221.6c-1.3 0-2.4-1-2.4-2.2 0-1.2 1.1-2.2 2.4-2.2 1.3 0 2.4 1 2.4 2.2.1 1.2-1 2.2-2.4 2.2ZM95.8 251.6c-1.3 0-2.4-1-2.4-2.2 0-1.2 1.1-2.2 2.4-2.2 1.3 0 2.4 1 2.4 2.2.1 1.2-1 2.2-2.4 2.2ZM95.6 221.4v25.9M95.6 251.6v26M87.1 130.6c-1.3 0-2.4-1-2.4-2.2 0-1.2 1.1-2.2 2.4-2.2 1.3 0 2.4 1 2.4 2.2.1 1.2-1 2.2-2.4 2.2ZM87.1 160.4c-1.3 0-2.4-1-2.4-2.2 0-1.2 1.1-2.2 2.4-2.2 1.3 0 2.4 1 2.4 2.2.1 1.2-1 2.2-2.4 2.2ZM86.9 130.4v25.8M86.9 160.4v25.8M87.1 190.9c-1.3 0-2.4-1-2.4-2.2 0-1.2 1.1-2.2 2.4-2.2 1.3 0 2.4 1 2.4 2.2.1 1.2-1 2.2-2.4 2.2ZM87.1 220.7c-1.3 0-2.4-1-2.4-2.2 0-1.2 1.1-2.2 2.4-2.2 1.3 0 2.4 1 2.4 2.2.1 1.2-1 2.2-2.4 2.2ZM86.9 190.7v25.8M86.9 220.7v25.8M87.1 251.2c-1.3 0-2.4-1-2.4-2.2 0-1.2 1.1-2.2 2.4-2.2 1.3 0 2.4 1 2.4 2.2.1 1.2-1 2.2-2.4 2.2ZM87.1 281c-1.3 0-2.4-1-2.4-2.2 0-1.2 1.1-2.2 2.4-2.2 1.3 0 2.4 1 2.4 2.2.1 1.2-1 2.2-2.4 2.2ZM86.9 251v25.8M86.9 281v25.8" style="fill:none;fill-rule:nonzero;stroke:#404851;stroke-width:.8px" transform="translate(53.261 -18.446) scale(1.04912)"/><path d="m77.7 292.7 9.4 11.1 9.5-11.1-9.5 32.4-9.4-32.4Z" style="fill:#404851;fill-rule:nonzero" transform="translate(53.261 -18.446) scale(1.04912)"/><path d="m80.4 297.3 6.7 24.2v-16l-6.7-8.2Z" style="fill:#fff;fill-rule:nonzero" transform="translate(53.261 -18.446) scale(1.04912)"/><path d="M78.4 100.1c-1.3 0-2.4-1-2.4-2.2 0-1.2 1.1-2.2 2.4-2.2 1.3 0 2.4 1 2.4 2.2.1 1.2-1 2.2-2.4 2.2ZM78.4 130.1c-1.3 0-2.4-1-2.4-2.2 0-1.2 1.1-2.2 2.4-2.2 1.3 0 2.4 1 2.4 2.2.1 1.2-1 2.2-2.4 2.2ZM78.3 99.9v25.9M78.3 130.1v26M78.4 160.8c-1.3 0-2.4-1-2.4-2.2 0-1.2 1.1-2.2 2.4-2.2 1.3 0 2.4 1 2.4 2.2.1 1.3-1 2.2-2.4 2.2ZM78.4 190.8c-1.3 0-2.4-1-2.4-2.2 0-1.2 1.1-2.2 2.4-2.2 1.3 0 2.4 1 2.4 2.2.1 1.3-1 2.2-2.4 2.2ZM78.3 160.6v26M78.3 190.9v25.9M78.4 221.6c-1.3 0-2.4-1-2.4-2.2 0-1.2 1.1-2.2 2.4-2.2 1.3 0 2.4 1 2.4 2.2.1 1.2-1 2.2-2.4 2.2ZM78.4 251.6c-1.3 0-2.4-1-2.4-2.2 0-1.2 1.1-2.2 2.4-2.2 1.3 0 2.4 1 2.4 2.2.1 1.2-1 2.2-2.4 2.2ZM78.3 221.4v25.9M78.3 251.6v26M69.8 70.1c-1.3 0-2.4-1-2.4-2.2 0-1.2 1.1-2.2 2.4-2.2 1.3 0 2.4 1 2.4 2.2 0 1.2-1.1 2.2-2.4 2.2ZM69.8 100.1c-1.3 0-2.4-1-2.4-2.2 0-1.2 1.1-2.2 2.4-2.2 1.3 0 2.4 1 2.4 2.2 0 1.2-1.1 2.2-2.4 2.2ZM69.6 69.9v25.9M69.6 100.1v26M69.8 130.8c-1.3 0-2.4-1-2.4-2.2 0-1.2 1.1-2.2 2.4-2.2 1.3 0 2.4 1 2.4 2.2 0 1.3-1.1 2.2-2.4 2.2ZM69.8 160.8c-1.3 0-2.4-1-2.4-2.2 0-1.2 1.1-2.2 2.4-2.2 1.3 0 2.4 1 2.4 2.2 0 1.3-1.1 2.2-2.4 2.2ZM69.6 130.6v26M69.6 160.9v25.9M69.8 191.6c-1.3 0-2.4-1-2.4-2.2 0-1.2 1.1-2.2 2.4-2.2 1.3 0 2.4 1 2.4 2.2 0 1.2-1.1 2.2-2.4 2.2ZM69.8 221.6c-1.3 0-2.4-1-2.4-2.2 0-1.2 1.1-2.2 2.4-2.2 1.3 0 2.4 1 2.4 2.2 0 1.2-1.1 2.2-2.4 2.2ZM69.6 191.4v25.9M69.6 221.6v26M61.1 40.3c-1.3 0-2.4-1-2.4-2.2 0-1.2 1.1-2.2 2.4-2.2 1.3 0 2.4 1 2.4 2.2 0 1.3-1.1 2.2-2.4 2.2ZM61.1 70.4c-1.3 0-2.4-1-2.4-2.2 0-1.2 1.1-2.2 2.4-2.2 1.3 0 2.4 1 2.4 2.2 0 1.2-1.1 2.2-2.4 2.2ZM60.9 40.1v26M60.9 70.4v26M61.1 101.1c-1.3 0-2.4-1-2.4-2.2 0-1.2 1.1-2.2 2.4-2.2 1.3 0 2.4 1 2.4 2.2 0 1.2-1.1 2.2-2.4 2.2ZM61.1 131.1c-1.3 0-2.4-1-2.4-2.2 0-1.2 1.1-2.2 2.4-2.2 1.3 0 2.4 1 2.4 2.2 0 1.2-1.1 2.2-2.4 2.2ZM60.9 100.9v26M60.9 131.1v26M61.1 161.8c-1.3 0-2.4-1-2.4-2.2 0-1.2 1.1-2.2 2.4-2.2 1.3 0 2.4 1 2.4 2.2 0 1.3-1.1 2.2-2.4 2.2ZM61.1 191.8c-1.3 0-2.4-1-2.4-2.2 0-1.2 1.1-2.2 2.4-2.2 1.3 0 2.4 1 2.4 2.2 0 1.3-1.1 2.2-2.4 2.2ZM60.9 161.6v26M60.9 191.9v25.9" style="fill:none;fill-rule:nonzero;stroke:#404851;stroke-width:.8px" transform="translate(53.261 -18.446) scale(1.04912)"/><path d="M113.2 40.3c-1.3 0-2.4-1-2.4-2.2 0-1.2 1.1-2.2 2.4-2.2 1.3 0 2.4 1 2.4 2.2 0 1.3-1.1 2.2-2.4 2.2ZM113.2 70.4c-1.3 0-2.4-1-2.4-2.2 0-1.2 1.1-2.2 2.4-2.2 1.3 0 2.4 1 2.4 2.2 0 1.2-1.1 2.2-2.4 2.2ZM113 40.1v26M113 70.4v26M113.2 101.1c-1.3 0-2.4-1-2.4-2.2 0-1.2 1.1-2.2 2.4-2.2 1.3 0 2.4 1 2.4 2.2 0 1.2-1.1 2.2-2.4 2.2ZM113.2 131.1c-1.3 0-2.4-1-2.4-2.2 0-1.2 1.1-2.2 2.4-2.2 1.3 0 2.4 1 2.4 2.2 0 1.2-1.1 2.2-2.4 2.2ZM113 100.9v26M113 131.1v26M113.2 161.8c-1.3 0-2.4-1-2.4-2.2 0-1.2 1.1-2.2 2.4-2.2 1.3 0 2.4 1 2.4 2.2 0 1.3-1.1 2.2-2.4 2.2ZM113.2 191.8c-1.3 0-2.4-1-2.4-2.2 0-1.2 1.1-2.2 2.4-2.2 1.3 0 2.4 1 2.4 2.2 0 1.3-1.1 2.2-2.4 2.2ZM113 161.6v26M113 191.9v25.9M104.5 70.1c-1.3 0-2.4-1-2.4-2.2 0-1.2 1.1-2.2 2.4-2.2 1.3 0 2.4 1 2.4 2.2 0 1.2-1.1 2.2-2.4 2.2ZM104.5 100.1c-1.3 0-2.4-1-2.4-2.2 0-1.2 1.1-2.2 2.4-2.2 1.3 0 2.4 1 2.4 2.2 0 1.2-1.1 2.2-2.4 2.2ZM104.3 69.9v25.9M104.3 100.1v26M104.5 130.8c-1.3 0-2.4-1-2.4-2.2 0-1.2 1.1-2.2 2.4-2.2 1.3 0 2.4 1 2.4 2.2 0 1.3-1.1 2.2-2.4 2.2ZM104.5 160.8c-1.3 0-2.4-1-2.4-2.2 0-1.2 1.1-2.2 2.4-2.2 1.3 0 2.4 1 2.4 2.2 0 1.3-1.1 2.2-2.4 2.2ZM104.3 130.6v26M104.3 160.9v25.9M104.5 191.6c-1.3 0-2.4-1-2.4-2.2 0-1.2 1.1-2.2 2.4-2.2 1.3 0 2.4 1 2.4 2.2 0 1.2-1.1 2.2-2.4 2.2ZM104.5 221.6c-1.3 0-2.4-1-2.4-2.2 0-1.2 1.1-2.2 2.4-2.2 1.3 0 2.4 1 2.4 2.2 0 1.2-1.1 2.2-2.4 2.2ZM104.3 191.4v25.9M104.3 221.6v26M95.8 100.1c-1.3 0-2.4-1-2.4-2.2 0-1.2 1.1-2.2 2.4-2.2 1.3 0 2.4 1 2.4 2.2.1 1.2-1 2.2-2.4 2.2ZM95.8 130.1c-1.3 0-2.4-1-2.4-2.2 0-1.2 1.1-2.2 2.4-2.2 1.3 0 2.4 1 2.4 2.2.1 1.2-1 2.2-2.4 2.2ZM95.6 99.9v25.9M95.6 130.1v26M95.8 160.8c-1.3 0-2.4-1-2.4-2.2 0-1.2 1.1-2.2 2.4-2.2 1.3 0 2.4 1 2.4 2.2.1 1.3-1 2.2-2.4 2.2ZM95.8 190.8c-1.3 0-2.4-1-2.4-2.2 0-1.2 1.1-2.2 2.4-2.2 1.3 0 2.4 1 2.4 2.2.1 1.3-1 2.2-2.4 2.2ZM95.6 160.6v26M95.6 190.9v25.9M95.8 221.6c-1.3 0-2.4-1-2.4-2.2 0-1.2 1.1-2.2 2.4-2.2 1.3 0 2.4 1 2.4 2.2.1 1.2-1 2.2-2.4 2.2ZM95.8 251.6c-1.3 0-2.4-1-2.4-2.2 0-1.2 1.1-2.2 2.4-2.2 1.3 0 2.4 1 2.4 2.2.1 1.2-1 2.2-2.4 2.2ZM95.6 221.4v25.9M95.6 251.6v26M87.1 130.6c-1.3 0-2.4-1-2.4-2.2 0-1.2 1.1-2.2 2.4-2.2 1.3 0 2.4 1 2.4 2.2.1 1.2-1 2.2-2.4 2.2ZM87.1 160.4c-1.3 0-2.4-1-2.4-2.2 0-1.2 1.1-2.2 2.4-2.2 1.3 0 2.4 1 2.4 2.2.1 1.2-1 2.2-2.4 2.2ZM86.9 130.4v25.8M86.9 160.4v25.8M87.1 190.9c-1.3 0-2.4-1-2.4-2.2 0-1.2 1.1-2.2 2.4-2.2 1.3 0 2.4 1 2.4 2.2.1 1.2-1 2.2-2.4 2.2ZM87.1 220.7c-1.3 0-2.4-1-2.4-2.2 0-1.2 1.1-2.2 2.4-2.2 1.3 0 2.4 1 2.4 2.2.1 1.2-1 2.2-2.4 2.2ZM86.9 190.7v25.8M86.9 220.7v25.8M87.1 251.2c-1.3 0-2.4-1-2.4-2.2 0-1.2 1.1-2.2 2.4-2.2 1.3 0 2.4 1 2.4 2.2.1 1.2-1 2.2-2.4 2.2ZM87.1 281c-1.3 0-2.4-1-2.4-2.2 0-1.2 1.1-2.2 2.4-2.2 1.3 0 2.4 1 2.4 2.2.1 1.2-1 2.2-2.4 2.2ZM86.9 251v25.8M86.9 281v25.8" style="fill:none;fill-rule:nonzero;stroke:#404851;stroke-width:.8px" transform="matrix(0 -.7656 .7656 0 238.567 465.823)"/><path d="m77.7 292.7 9.4 11.1 9.5-11.1-9.5 32.4-9.4-32.4Z" style="fill:#404851;fill-rule:nonzero" transform="matrix(0 -.7656 .7656 0 238.567 465.823)"/><path d="m80.4 297.3 6.7 24.2v-16l-6.7-8.2Z" style="fill:#fff;fill-rule:nonzero" transform="matrix(0 -.7656 .7656 0 238.567 465.823)"/><path d="M78.4 100.1c-1.3 0-2.4-1-2.4-2.2 0-1.2 1.1-2.2 2.4-2.2 1.3 0 2.4 1 2.4 2.2.1 1.2-1 2.2-2.4 2.2ZM78.4 130.1c-1.3 0-2.4-1-2.4-2.2 0-1.2 1.1-2.2 2.4-2.2 1.3 0 2.4 1 2.4 2.2.1 1.2-1 2.2-2.4 2.2ZM78.3 99.9v25.9M78.3 130.1v26M78.4 160.8c-1.3 0-2.4-1-2.4-2.2 0-1.2 1.1-2.2 2.4-2.2 1.3 0 2.4 1 2.4 2.2.1 1.3-1 2.2-2.4 2.2ZM78.4 190.8c-1.3 0-2.4-1-2.4-2.2 0-1.2 1.1-2.2 2.4-2.2 1.3 0 2.4 1 2.4 2.2.1 1.3-1 2.2-2.4 2.2ZM78.3 160.6v26M78.3 190.9v25.9M78.4 221.6c-1.3 0-2.4-1-2.4-2.2 0-1.2 1.1-2.2 2.4-2.2 1.3 0 2.4 1 2.4 2.2.1 1.2-1 2.2-2.4 2.2ZM78.4 251.6c-1.3 0-2.4-1-2.4-2.2 0-1.2 1.1-2.2 2.4-2.2 1.3 0 2.4 1 2.4 2.2.1 1.2-1 2.2-2.4 2.2ZM78.3 221.4v25.9M78.3 251.6v26M69.8 70.1c-1.3 0-2.4-1-2.4-2.2 0-1.2 1.1-2.2 2.4-2.2 1.3 0 2.4 1 2.4 2.2 0 1.2-1.1 2.2-2.4 2.2ZM69.8 100.1c-1.3 0-2.4-1-2.4-2.2 0-1.2 1.1-2.2 2.4-2.2 1.3 0 2.4 1 2.4 2.2 0 1.2-1.1 2.2-2.4 2.2ZM69.6 69.9v25.9M69.6 100.1v26M69.8 130.8c-1.3 0-2.4-1-2.4-2.2 0-1.2 1.1-2.2 2.4-2.2 1.3 0 2.4 1 2.4 2.2 0 1.3-1.1 2.2-2.4 2.2ZM69.8 160.8c-1.3 0-2.4-1-2.4-2.2 0-1.2 1.1-2.2 2.4-2.2 1.3 0 2.4 1 2.4 2.2 0 1.3-1.1 2.2-2.4 2.2ZM69.6 130.6v26M69.6 160.9v25.9M69.8 191.6c-1.3 0-2.4-1-2.4-2.2 0-1.2 1.1-2.2 2.4-2.2 1.3 0 2.4 1 2.4 2.2 0 1.2-1.1 2.2-2.4 2.2ZM69.8 221.6c-1.3 0-2.4-1-2.4-2.2 0-1.2 1.1-2.2 2.4-2.2 1.3 0 2.4 1 2.4 2.2 0 1.2-1.1 2.2-2.4 2.2ZM69.6 191.4v25.9M69.6 221.6v26M61.1 40.3c-1.3 0-2.4-1-2.4-2.2 0-1.2 1.1-2.2 2.4-2.2 1.3 0 2.4 1 2.4 2.2 0 1.3-1.1 2.2-2.4 2.2ZM61.1 70.4c-1.3 0-2.4-1-2.4-2.2 0-1.2 1.1-2.2 2.4-2.2 1.3 0 2.4 1 2.4 2.2 0 1.2-1.1 2.2-2.4 2.2ZM60.9 40.1v26M60.9 70.4v26M61.1 101.1c-1.3 0-2.4-1-2.4-2.2 0-1.2 1.1-2.2 2.4-2.2 1.3 0 2.4 1 2.4 2.2 0 1.2-1.1 2.2-2.4 2.2ZM61.1 131.1c-1.3 0-2.4-1-2.4-2.2 0-1.2 1.1-2.2 2.4-2.2 1.3 0 2.4 1 2.4 2.2 0 1.2-1.1 2.2-2.4 2.2ZM60.9 100.9v26M60.9 131.1v26M61.1 161.8c-1.3 0-2.4-1-2.4-2.2 0-1.2 1.1-2.2 2.4-2.2 1.3 0 2.4 1 2.4 2.2 0 1.3-1.1 2.2-2.4 2.2ZM61.1 191.8c-1.3 0-2.4-1-2.4-2.2 0-1.2 1.1-2.2 2.4-2.2 1.3 0 2.4 1 2.4 2.2 0 1.3-1.1 2.2-2.4 2.2ZM60.9 161.6v26M60.9 191.9v25.9" style="fill:none;fill-rule:nonzero;stroke:#404851;stroke-width:.8px" transform="matrix(0 -.7656 .7656 0 238.567 465.823)"/><path d="M0-108.326c-18.412-3.652-37.367-3.636-55.459.023a139.914 139.914 0 0 0-50.368 21.002c-15.08 10.126-28.022 23.146-37.887 38.024-9.888 14.87-16.658 31.577-20.01 48.837-1.062 5.47-6.357 9.045-11.828 7.982-5.47-1.061-9.045-6.357-7.982-11.828.051-.263.111-.521.181-.775l.026-.088c5.436-19.425 14.681-37.67 27.013-53.293a150.9 150.9 0 0 1 44.739-38.24c17.093-9.581 35.94-15.706 55.11-17.963 19.166-2.286 38.627-.66 56.885 4.524l.012.004A.921.921 0 0 1 0-108.326" style="fill:#fff;fill-rule:nonzero" transform="matrix(.73886 -.12024 .11595 .71249 334.439 320.305)"/><path d="M0-108.326c-18.412-3.652-37.367-3.636-55.459.023a139.914 139.914 0 0 0-50.368 21.002c-15.08 10.126-28.022 23.146-37.887 38.024-9.888 14.87-16.658 31.577-20.01 48.837-1.062 5.47-6.357 9.045-11.828 7.982-5.47-1.061-9.045-6.357-7.982-11.828.051-.263.111-.521.181-.775l.026-.088c5.436-19.425 14.681-37.67 27.013-53.293a150.9 150.9 0 0 1 44.739-38.24c17.093-9.581 35.94-15.706 55.11-17.963 19.166-2.286 38.627-.66 56.885 4.524l.012.004A.921.921 0 0 1 0-108.326" style="fill:#fff;fill-rule:nonzero" transform="matrix(-.57838 0 0 .55773 49.704 400.067)"/><path d="M0-152.664c-16.82 1.807-33.353 6.31-47.737 14.461-7.186 4.054-13.785 9.002-19.576 14.704-5.791 5.703-10.77 12.151-14.871 19.1-8.228 13.915-12.948 29.675-15.165 45.727-2.213 16.089-2.005 32.525-.224 48.783.605 5.54-3.393 10.524-8.934 11.13-5.54.607-10.523-3.392-11.13-8.932a10.674 10.674 0 0 1-.058-.887v-.045c-.34-17.68 1.021-35.516 5.03-52.908 4.002-17.34 10.787-34.329 21.288-48.909 5.227-7.278 11.368-13.895 18.249-19.547a100.67 100.67 0 0 1 22.49-13.947c16.041-7.262 33.435-10.263 50.511-10.568h.012A.921.921 0 0 1 0-152.664" style="fill:#fff;fill-rule:nonzero" transform="matrix(.73886 -.12024 .11595 .71249 285.288 329.967)"/><path d="M0-152.664c-16.82 1.807-33.353 6.31-47.737 14.461-7.186 4.054-13.785 9.002-19.576 14.704-5.791 5.703-10.77 12.151-14.871 19.1-8.228 13.915-12.948 29.675-15.165 45.727-2.213 16.089-2.005 32.525-.224 48.783.605 5.54-3.393 10.524-8.934 11.13-5.54.607-10.523-3.392-11.13-8.932a10.674 10.674 0 0 1-.058-.887v-.045c-.34-17.68 1.021-35.516 5.03-52.908 4.002-17.34 10.787-34.329 21.288-48.909 5.227-7.278 11.368-13.895 18.249-19.547a100.67 100.67 0 0 1 22.49-13.947c16.041-7.262 33.435-10.263 50.511-10.568h.012A.921.921 0 0 1 0-152.664" style="fill:#fff;fill-rule:nonzero" transform="matrix(-.57838 0 0 .55773 88.385 401.335)"/></svg>