<svg viewBox="0 0 512 512" xmlns="http://www.w3.org/2000/svg" xml:space="preserve" style="fill-rule:evenodd;clip-rule:evenodd;stroke-miterlimit:10"><path style="fill:none" d="M0 0h512v512H0z"/><path d="M435.1 116.4c19.1 24.3 33.5 52.6 41.9 82.9 8.4 30.3 10.8 62.5 7 94.1-3.9 31.7-14 62.8-30 91-15.9 28.2-37.7 53.4-63.6 73.6l-.1.1c-7.2 5.6-17.5 4.3-23.1-2.9-5.6-7.2-4.3-17.5 2.9-23.1.3-.3.7-.5 1.1-.8 23.9-15.7 44.9-36.2 61.2-60.3 16.3-24 28-51.6 33.9-80.6 6-29 6.2-59.3.6-88.8-5.7-29.5-17.3-58.1-34.2-83.6-.5-.7-.3-1.6.4-2.1.6-.3 1.5-.1 2 .5ZM43.4 272.7c-7.4-23.6-10.1-48.9-7.8-73.9 2.3-25 9.7-49.8 21.6-72.3 11.9-22.6 28.3-43 48.3-59.5 19.9-16.6 43.4-29.2 68.5-36.9h.1c6.9-2.1 14.3 1.8 16.4 8.7 2.1 6.9-1.8 14.3-8.7 16.4-.3.1-.7.2-1 .3-22.4 4.9-43.9 14.3-62.9 27.7-19 13.3-35.6 30.6-48.2 50.6C57 153.7 48.2 176.4 44 200c-4.2 23.7-3.6 48.3 1.8 72.2.1.6-.3 1.3-.9 1.4-.7.1-1.3-.3-1.5-.9Z" style="fill:#fff;fill-rule:nonzero"/><path d="M165.967 431.349a10.965 10.965 0 0 1-7.468 2.924c-6.075 0-11.007-4.932-11.007-11.007 0-6.075 4.932-11.008 11.007-11.008 6.075 0 11.008 4.933 11.008 11.008a10.96 10.96 0 0 1-1.562 5.652c16.791 11.609 35.834 19.974 55.706 24.56 20.598 4.753 42.186 5.447 63.081 1.983.001-6.075 4.933-11.006 11.008-11.006 4.271 0 7.978 2.439 9.802 5.999 20.117-6.154 38.956-16.2 55.164-29.56 16.343-13.47 30.012-30.11 40.016-48.83l2.756 1.472c-10.196 19.08-24.127 36.04-40.784 49.77-16.497 13.597-35.667 23.829-56.138 30.106.125.664.191 1.35.191 2.05 0 6.076-4.932 11.008-11.007 11.008-5.002 0-9.229-3.343-10.567-7.915-21.275 3.518-43.253 2.807-64.224-2.033-20.335-4.692-39.818-13.267-56.982-25.173Zm-7.468-15.966a7.886 7.886 0 0 0-7.882 7.883 7.886 7.886 0 0 0 7.882 7.882 7.886 7.886 0 0 0 7.883-7.882 7.886 7.886 0 0 0-7.883-7.883ZM297.74 447.58a7.886 7.886 0 0 0-7.883 7.882 7.886 7.886 0 0 0 7.883 7.883 7.886 7.886 0 0 0 7.882-7.883 7.886 7.886 0 0 0-7.882-7.882Z" style="fill:#d77526" transform="matrix(-1 0 0 1 507.113 -37.678)"/><path d="m376.1 388.5 24.1-11.5 7.3 25.6 8.7-61.1-40.1 47Z" style="fill:#d77526;fill-rule:nonzero" transform="matrix(-1 0 0 1 507.113 -37.678)"/><path d="m384.1 382.9 29.4-35.4-12 26.6-17.4 8.8Z" style="fill:#fff;fill-rule:nonzero" transform="matrix(-1 0 0 1 507.113 -37.678)"/><path d="M350.9 120.7c14.9 11.5 27.7 25.6 37.7 41.5m4.7 8c9.1 16.4 15.4 34.4 18.4 53M413 232.9c1.9 18.7.5 37.7-4.1 55.9m-2.5 8.9c-5.6 17.9-14.3 34.9-25.7 49.8" style="fill:none;fill-rule:nonzero;stroke:#768293;stroke-width:2.08px"/><path d="m404.4 340.3-21.1 3.6v-21.5L363 367.7l41.4-27.4Z" style="fill:#768293;fill-rule:nonzero"/><path d="m397 342.9-30.6 20.8 15.2-17.9 15.4-2.9Z" style="fill:#fff;fill-rule:nonzero"/><path d="M396.08 1329.49a7.308 7.308 0 0 1 7.306 7.31c0 4.03-3.274 7.3-7.306 7.3-4.033 0-7.307-3.27-7.307-7.3 0-4.04 3.274-7.31 7.307-7.31Zm0 2.31a4.999 4.999 0 0 0-4.994 5c0 2.75 2.237 4.99 4.994 4.99a4.997 4.997 0 0 0 4.994-4.99 5 5 0 0 0-4.994-5Z" style="fill:#768293" transform="translate(-11.06 -1087.16) scale(.90103)"/><path d="M396.08 1329.49a7.308 7.308 0 0 1 7.306 7.31c0 4.03-3.274 7.3-7.306 7.3-4.033 0-7.307-3.27-7.307-7.3 0-4.04 3.274-7.31 7.307-7.31Zm0 2.31a4.999 4.999 0 0 0-4.994 5c0 2.75 2.237 4.99 4.994 4.99a4.997 4.997 0 0 0 4.994-4.99 5 5 0 0 0-4.994-5Z" style="fill:#768293" transform="translate(33.745 -1038.07) scale(.90103)"/><path d="M396.08 1329.49a7.308 7.308 0 0 1 7.306 7.31c0 4.03-3.274 7.3-7.306 7.3-4.033 0-7.307-3.27-7.307-7.3 0-4.04 3.274-7.31 7.307-7.31Zm0 2.31a4.999 4.999 0 0 0-4.994 5c0 2.75 2.237 4.99 4.994 4.99a4.997 4.997 0 0 0 4.994-4.99 5 5 0 0 0-4.994-5Z" style="fill:#768293" transform="translate(55.23 -976.625) scale(.90103)"/><path d="M396.08 1329.49a7.308 7.308 0 0 1 7.306 7.31c0 4.03-3.274 7.3-7.306 7.3-4.033 0-7.307-3.27-7.307-7.3 0-4.04 3.274-7.31 7.307-7.31Zm0 2.31a4.999 4.999 0 0 0-4.994 5c0 2.75 2.237 4.99 4.994 4.99a4.997 4.997 0 0 0 4.994-4.99 5 5 0 0 0-4.994-5Z" style="fill:#768293" transform="translate(50.703 -910.998) scale(.90103)"/><path d="M82.671 258.664c-2.347-.325-4.147-2.351-4.147-4.815 0-2.356 1.607-4.214 3.788-4.661-.092-9.325.766-18.644 2.252-27.892a4.853 4.853 0 0 1-3.001-4.506c0-2.712 2.129-4.764 4.812-4.764h.008c2.047-9.153 4.987-18.073 8.557-26.694a4.866 4.866 0 0 1-2.167-4.065c0-2.712 2.129-4.764 4.812-4.764h.061l.061.004c.384.023.754.084 1.105.179a163.993 163.993 0 0 1 14.51-24.278 4.873 4.873 0 0 1-1.156-3.166c0-2.712 2.128-4.764 4.812-4.764h.061l.061.004a5.284 5.284 0 0 1 1.938.485 163.486 163.486 0 0 1 20.029-20.632 4.892 4.892 0 0 1-.479-2.121c0-2.712 2.129-4.764 4.812-4.764h.061l.061.004a5.162 5.162 0 0 1 2.808 1.006 163.532 163.532 0 0 1 23.854-15.194 4.916 4.916 0 0 1-.267-1.604c0-2.712 2.129-4.764 4.812-4.764h.061l.061.003c1.671.099 3.067.927 3.892 2.14 8.663-3.897 17.705-7.08 26.916-9.41.005-2.707 2.132-4.754 4.812-4.754h.061l.061.004c1.905.113 3.453 1.173 4.204 2.672 9.223-1.8 18.589-2.766 27.964-2.964.435-2.222 2.364-3.805 4.721-3.805h.061l.061.003c2.405.143 4.241 1.795 4.622 3.936a163.199 163.199 0 0 1 28.643 3.731c.763-1.624 2.416-2.7 4.359-2.7h.061l.061.004c2.768.164 4.782 2.327 4.693 4.933l1.431.404 1.916.504 1.943.614.02.007c2.508.903 5.116 1.607 7.625 2.609a213.252 213.252 0 0 1 14.865 6.328l-.886 1.886a210.49 210.49 0 0 0-14.735-6.272l-.009-.004c-2.482-.993-5.063-1.687-7.546-2.58l-1.857-.586-1.884-.496-1.376-.388c-.818 1.616-2.556 2.756-4.383 2.661-2.635-.033-4.751-2.189-4.751-4.86v-.031a161.124 161.124 0 0 0-28.257-3.681c-.534 2.092-2.573 3.714-4.738 3.601-2.253-.027-4.126-1.608-4.623-3.735-9.222.196-18.436 1.143-27.51 2.908.002.106 0 .212-.006.319v.011c-.046 2.544-2.376 4.721-4.872 4.591a4.802 4.802 0 0 1-4.316-2.832c-9.102 2.309-18.036 5.46-26.596 9.317.044.303.059.615.042.933v.011c-.046 2.545-2.376 4.722-4.872 4.592a4.774 4.774 0 0 1-3.395-1.474 161.36 161.36 0 0 0-23.588 14.999 4.67 4.67 0 0 1 .526 2.424v.012c-.046 2.544-2.376 4.721-4.872 4.591a4.767 4.767 0 0 1-2.988-1.095 161.343 161.343 0 0 0-19.656 20.253 4.658 4.658 0 0 1 1.094 3.268v.011c-.046 2.544-2.376 4.721-4.872 4.591a4.758 4.758 0 0 1-1.935-.434 161.973 161.973 0 0 0-14.314 23.965 4.67 4.67 0 0 1 1.728 3.892v.011c-.045 2.545-2.375 4.721-4.872 4.591a4.64 4.64 0 0 1-.638-.05c-3.537 8.534-6.45 17.365-8.475 26.426 1.755.812 2.878 2.555 2.775 4.544v.011c-.044 2.442-2.191 4.545-4.57 4.596-1.467 9.142-2.316 18.355-2.22 27.572 2.3.546 3.871 2.544 3.751 4.881l-.001.011c-.036 2.031-1.527 3.827-3.397 4.404.623 9.352 2.021 18.623 4.261 27.745.113-.007.227-.011.342-.011h.061l.061.004c2.798.165 4.826 2.374 4.69 5.017l-.001.011c-.045 2.545-2.375 4.722-4.871 4.592-2.635-.033-4.752-2.189-4.752-4.86 0-1.847.988-3.388 2.465-4.183-2.28-9.262-3.701-18.676-4.334-28.173Zm62.454-138.514a3.087 3.087 0 0 0-1.725-.635c-1.526 0-2.747 1.157-2.747 2.699 0 1.542 1.221 2.796 2.747 2.796 1.424.096 2.747-1.157 2.747-2.603.029-.44-.05-.857-.215-1.23l-.807-1.027ZM88.106 288.602a2.652 2.652 0 0 0-1.501 2.418c0 1.542 1.221 2.795 2.747 2.795 1.425.097 2.747-1.156 2.747-2.602.102-1.543-1.119-2.796-2.747-2.892-.061 0-.122.002-.183.005l-1.063.276ZM250.229 85.74c.101-1.542-1.12-2.795-2.747-2.892-1.527 0-2.748 1.157-2.748 2.699 0 1.543 1.221 2.796 2.748 2.796 1.424.096 2.747-1.157 2.747-2.603Zm-72.753 16.114c.102-1.542-1.119-2.795-2.747-2.892-1.526 0-2.747 1.157-2.747 2.7 0 1.542 1.221 2.795 2.747 2.795 1.424.097 2.747-1.157 2.747-2.603Zm110.499-11.143c.102-1.543-1.119-2.796-2.747-2.892-1.526 0-2.747 1.157-2.747 2.699 0 1.542 1.221 2.796 2.747 2.796 1.424.096 2.747-1.157 2.747-2.603Zm-74.757-.877c.101-1.542-1.119-2.796-2.747-2.892-1.526 0-2.747 1.157-2.747 2.699 0 1.543 1.221 2.796 2.747 2.796 1.424.096 2.747-1.157 2.747-2.603Zm-93.493 59.601c.101-1.542-1.119-2.796-2.747-2.892-1.526 0-2.747 1.157-2.747 2.699 0 1.543 1.221 2.796 2.747 2.796 1.424.096 2.747-1.157 2.747-2.603Zm-19.393 32.025c.102-1.542-1.119-2.795-2.747-2.892-1.526 0-2.747 1.157-2.747 2.699 0 1.543 1.221 2.796 2.747 2.796 1.424.096 2.747-1.157 2.747-2.603Zm-14.25 72.582c.102-1.542-1.119-2.795-2.747-2.892-1.526 0-2.747 1.157-2.747 2.699 0 1.543 1.221 2.796 2.747 2.796 1.425.096 2.747-1.157 2.747-2.603Zm3.04-37.06c.102-1.542-1.119-2.795-2.747-2.892-1.526 0-2.747 1.157-2.747 2.7 0 1.542 1.221 2.795 2.747 2.795 1.424.097 2.747-1.157 2.747-2.603Z" style="fill:#404751"/><path d="m307.1 83.2 6.7 17.4-18.2 3.7 42.1 9.4-30.6-30.5Z" style="fill:#404751;fill-rule:nonzero"/><path d="m310.6 89.1 23.1 22.4-17.9-9.8-5.2-12.6Z" style="fill:#fff;fill-rule:nonzero"/><path d="M165.967 431.349a10.965 10.965 0 0 1-7.468 2.924c-6.075 0-11.007-4.932-11.007-11.007 0-6.075 4.932-11.008 11.007-11.008 6.075 0 11.008 4.933 11.008 11.008a10.96 10.96 0 0 1-1.562 5.652c16.791 11.609 35.834 19.974 55.706 24.56 20.598 4.753 42.186 5.447 63.081 1.983.001-6.075 4.933-11.006 11.008-11.006 4.271 0 7.978 2.439 9.802 5.999 20.117-6.154 38.956-16.2 55.164-29.56 16.343-13.47 30.012-30.11 40.016-48.83l2.756 1.472c-10.196 19.08-24.127 36.04-40.784 49.77-16.497 13.597-35.667 23.829-56.138 30.106.125.664.191 1.35.191 2.05 0 6.076-4.932 11.008-11.007 11.008-5.002 0-9.229-3.343-10.567-7.915-21.275 3.518-43.253 2.807-64.224-2.033-20.335-4.692-39.818-13.267-56.982-25.173Zm-7.468-15.966a7.886 7.886 0 0 0-7.882 7.883 7.886 7.886 0 0 0 7.882 7.882 7.886 7.886 0 0 0 7.883-7.882 7.886 7.886 0 0 0-7.883-7.883ZM297.74 447.58a7.886 7.886 0 0 0-7.883 7.882 7.886 7.886 0 0 0 7.883 7.883 7.886 7.886 0 0 0 7.882-7.883 7.886 7.886 0 0 0-7.882-7.882Z" style="fill:#d77526" transform="scale(.73441 -.73441) rotate(45 1070.139 66.38)"/><path d="m376.1 388.5 24.1-11.5 7.3 25.6 8.7-61.1-40.1 47Z" style="fill:#d77526;fill-rule:nonzero" transform="scale(.73441 -.73441) rotate(45 1070.139 66.38)"/><path d="m384.1 382.9 29.4-35.4-12 26.6-17.4 8.8Z" style="fill:#fff;fill-rule:nonzero" transform="scale(.73441 -.73441) rotate(45 1070.139 66.38)"/><path d="M350.9 120.7c14.9 11.5 27.7 25.6 37.7 41.5m4.7 8c9.1 16.4 15.4 34.4 18.4 53M413 232.9c1.9 18.7.5 37.7-4.1 55.9m-2.5 8.9c-5.6 17.9-14.3 34.9-25.7 49.8" style="fill:none;fill-rule:nonzero;stroke:#768293;stroke-width:2.08px" transform="rotate(135 200.676 234.57) scale(.73441)"/><path d="m404.4 340.3-21.1 3.6v-21.5L363 367.7l41.4-27.4Z" style="fill:#768293;fill-rule:nonzero" transform="rotate(135 200.676 234.57) scale(.73441)"/><path d="m397 342.9-30.6 20.8 15.2-17.9 15.4-2.9Z" style="fill:#fff;fill-rule:nonzero" transform="rotate(135 200.676 234.57) scale(.73441)"/><path d="M396.08 1328.65c4.494 0 8.143 3.65 8.143 8.15 0 4.49-3.649 8.14-8.143 8.14-4.494 0-8.143-3.65-8.143-8.14 0-4.5 3.649-8.15 8.143-8.15Zm0 3.15a4.999 4.999 0 0 0-4.994 5c0 2.75 2.237 4.99 4.994 4.99a4.997 4.997 0 0 0 4.994-4.99 5 5 0 0 0-4.994-5Z" style="fill:#768293" transform="scale(-.66173) rotate(-45 -2306.126 1350.244)"/><path d="M396.08 1328.65c4.494 0 8.143 3.65 8.143 8.15 0 4.49-3.649 8.14-8.143 8.14-4.494 0-8.143-3.65-8.143-8.14 0-4.5 3.649-8.15 8.143-8.15Zm0 3.15a4.999 4.999 0 0 0-4.994 5c0 2.75 2.237 4.99 4.994 4.99a4.997 4.997 0 0 0 4.994-4.99 5 5 0 0 0-4.994-5Z" style="fill:#768293" transform="scale(-.66173) rotate(-45 -2265.224 1262.977)"/><path d="M396.08 1328.65c4.494 0 8.143 3.65 8.143 8.15 0 4.49-3.649 8.14-8.143 8.14-4.494 0-8.143-3.65-8.143-8.14 0-4.5 3.649-8.15 8.143-8.15Zm0 3.15a4.999 4.999 0 0 0-4.994 5c0 2.75 2.237 4.99 4.994 4.99a4.997 4.997 0 0 0 4.994-4.99 5 5 0 0 0-4.994-5Z" style="fill:#768293" transform="scale(-.66173) rotate(-45 -2194.829 1200.097)"/><path d="M396.08 1328.65c4.494 0 8.143 3.65 8.143 8.15 0 4.49-3.649 8.14-8.143 8.14-4.494 0-8.143-3.65-8.143-8.14 0-4.5 3.649-8.15 8.143-8.15Zm0 3.15a4.999 4.999 0 0 0-4.994 5c0 2.75 2.237 4.99 4.994 4.99a4.997 4.997 0 0 0 4.994-4.99 5 5 0 0 0-4.994-5Z" style="fill:#768293" transform="scale(-.66173) rotate(-45 -2104.397 1169.743)"/><path d="M82.671 258.664c-2.347-.325-4.147-2.351-4.147-4.815 0-2.356 1.607-4.214 3.788-4.661-.092-9.325.766-18.644 2.252-27.892a4.853 4.853 0 0 1-3.001-4.506c0-2.712 2.129-4.764 4.812-4.764h.008c2.047-9.153 4.987-18.073 8.557-26.694a4.866 4.866 0 0 1-2.167-4.065c0-2.712 2.129-4.764 4.812-4.764h.061l.061.004c.384.023.754.084 1.105.179a163.993 163.993 0 0 1 14.51-24.278 4.873 4.873 0 0 1-1.156-3.166c0-2.712 2.128-4.764 4.812-4.764h.061l.061.004a5.284 5.284 0 0 1 1.938.485 163.486 163.486 0 0 1 20.029-20.632 4.892 4.892 0 0 1-.479-2.121c0-2.712 2.129-4.764 4.812-4.764h.061l.061.004a5.162 5.162 0 0 1 2.808 1.006 163.532 163.532 0 0 1 23.854-15.194 4.916 4.916 0 0 1-.267-1.604c0-2.712 2.129-4.764 4.812-4.764h.061l.061.003c1.671.099 3.067.927 3.892 2.14 8.663-3.897 17.705-7.08 26.916-9.41.005-2.707 2.132-4.754 4.812-4.754h.061l.061.004c1.905.113 3.453 1.173 4.204 2.672 9.223-1.8 18.589-2.766 27.964-2.964.435-2.222 2.364-3.805 4.721-3.805h.061l.061.003c2.405.143 4.241 1.795 4.622 3.936a163.199 163.199 0 0 1 28.643 3.731c.763-1.624 2.416-2.7 4.359-2.7h.061l.061.004c2.768.164 4.782 2.327 4.693 4.933l1.431.404 1.916.504 1.943.614.02.007c2.508.903 5.116 1.607 7.625 2.609a213.252 213.252 0 0 1 14.865 6.328l-.886 1.886a210.49 210.49 0 0 0-14.735-6.272l-.009-.004c-2.482-.993-5.063-1.687-7.546-2.58l-1.857-.586-1.884-.496-1.376-.388c-.818 1.616-2.556 2.756-4.383 2.661-2.635-.033-4.751-2.189-4.751-4.86v-.031a161.124 161.124 0 0 0-28.257-3.681c-.534 2.092-2.573 3.714-4.738 3.601-2.253-.027-4.126-1.608-4.623-3.735-9.222.196-18.436 1.143-27.51 2.908.002.106 0 .212-.006.319v.011c-.046 2.544-2.376 4.721-4.872 4.591a4.802 4.802 0 0 1-4.316-2.832c-9.102 2.309-18.036 5.46-26.596 9.317.044.303.059.615.042.933v.011c-.046 2.545-2.376 4.722-4.872 4.592a4.774 4.774 0 0 1-3.395-1.474 161.36 161.36 0 0 0-23.588 14.999 4.67 4.67 0 0 1 .526 2.424v.012c-.046 2.544-2.376 4.721-4.872 4.591a4.767 4.767 0 0 1-2.988-1.095 161.343 161.343 0 0 0-19.656 20.253 4.658 4.658 0 0 1 1.094 3.268v.011c-.046 2.544-2.376 4.721-4.872 4.591a4.758 4.758 0 0 1-1.935-.434 161.973 161.973 0 0 0-14.314 23.965 4.67 4.67 0 0 1 1.728 3.892v.011c-.045 2.545-2.375 4.721-4.872 4.591a4.64 4.64 0 0 1-.638-.05c-3.537 8.534-6.45 17.365-8.475 26.426 1.755.812 2.878 2.555 2.775 4.544v.011c-.044 2.442-2.191 4.545-4.57 4.596-1.467 9.142-2.316 18.355-2.22 27.572 2.3.546 3.871 2.544 3.751 4.881l-.001.011c-.036 2.031-1.527 3.827-3.397 4.404.623 9.352 2.021 18.623 4.261 27.745.113-.007.227-.011.342-.011h.061l.061.004c2.798.165 4.826 2.374 4.69 5.017l-.001.011c-.045 2.545-2.375 4.722-4.871 4.592-2.635-.033-4.752-2.189-4.752-4.86 0-1.847.988-3.388 2.465-4.183-2.28-9.262-3.701-18.676-4.334-28.173Zm62.454-138.514a3.087 3.087 0 0 0-1.725-.635c-1.526 0-2.747 1.157-2.747 2.699 0 1.542 1.221 2.796 2.747 2.796 1.424.096 2.747-1.157 2.747-2.603.029-.44-.05-.857-.215-1.23l-.807-1.027ZM88.106 288.602a2.652 2.652 0 0 0-1.501 2.418c0 1.542 1.221 2.795 2.747 2.795 1.425.097 2.747-1.156 2.747-2.602.102-1.543-1.119-2.796-2.747-2.892-.061 0-.122.002-.183.005l-1.063.276ZM250.229 85.74c.101-1.542-1.12-2.795-2.747-2.892-1.527 0-2.748 1.157-2.748 2.699 0 1.543 1.221 2.796 2.748 2.796 1.424.096 2.747-1.157 2.747-2.603Zm-72.753 16.114c.102-1.542-1.119-2.795-2.747-2.892-1.526 0-2.747 1.157-2.747 2.7 0 1.542 1.221 2.795 2.747 2.795 1.424.097 2.747-1.157 2.747-2.603Zm110.499-11.143c.102-1.543-1.119-2.796-2.747-2.892-1.526 0-2.747 1.157-2.747 2.699 0 1.542 1.221 2.796 2.747 2.796 1.424.096 2.747-1.157 2.747-2.603Zm-74.757-.877c.101-1.542-1.119-2.796-2.747-2.892-1.526 0-2.747 1.157-2.747 2.699 0 1.543 1.221 2.796 2.747 2.796 1.424.096 2.747-1.157 2.747-2.603Zm-93.493 59.601c.101-1.542-1.119-2.796-2.747-2.892-1.526 0-2.747 1.157-2.747 2.699 0 1.543 1.221 2.796 2.747 2.796 1.424.096 2.747-1.157 2.747-2.603Zm-19.393 32.025c.102-1.542-1.119-2.795-2.747-2.892-1.526 0-2.747 1.157-2.747 2.699 0 1.543 1.221 2.796 2.747 2.796 1.424.096 2.747-1.157 2.747-2.603Zm-14.25 72.582c.102-1.542-1.119-2.795-2.747-2.892-1.526 0-2.747 1.157-2.747 2.699 0 1.543 1.221 2.796 2.747 2.796 1.425.096 2.747-1.157 2.747-2.603Zm3.04-37.06c.102-1.542-1.119-2.795-2.747-2.892-1.526 0-2.747 1.157-2.747 2.7 0 1.542 1.221 2.795 2.747 2.795 1.424.097 2.747-1.157 2.747-2.603Z" style="fill:#404751" transform="rotate(135 200.676 234.57) scale(.73441)"/><path d="m307.1 83.2 6.7 17.4-18.2 3.7 42.1 9.4-30.6-30.5Z" style="fill:#404751;fill-rule:nonzero" transform="rotate(135 200.676 234.57) scale(.73441)"/><path d="m310.6 89.1 23.1 22.4-17.9-9.8-5.2-12.6Z" style="fill:#fff;fill-rule:nonzero" transform="rotate(135 200.676 234.57) scale(.73441)"/></svg>