<svg viewBox="0 0 2434 534" xmlns="http://www.w3.org/2000/svg" xml:space="preserve" style="fill-rule:evenodd;clip-rule:evenodd;stroke-linejoin:round;stroke-miterlimit:2"><g transform="matrix(2.43333 0 0 .77108 0 .49)"><path style="fill:none" d="M0 0h1000v691.667H0z"/><clipPath id="a"><path d="M0 0h1000v691.667H0z"/></clipPath><g clip-path="url(#a)"><path d="M239.09 120c0 65.771-53.318 119.09-119.09 119.09S.91 185.771.91 120 54.228.91 120 .91 239.09 54.229 239.09 120" style="fill:#237dac;fill-rule:nonzero" transform="matrix(.92022 0 0 2.90396 -.837 -2.644)"/><path d="M119.998 179.52c22.714-.729 40.44-20.516 37.054-46.344-1.615-12.302-10.555-26.723-16.466-37.836-7.037-13.229-14.12-24.247-20.586-34.862-6.466 10.618-13.553 21.633-20.584 34.862-5.913 11.115-14.851 25.53-16.466 37.836-3.391 25.83 14.336 45.617 37.051 46.344" style="fill:#fff;fill-rule:nonzero" transform="matrix(.92022 0 0 2.90396 -.837 -2.644)"/><path d="M93.735 157.411c13.125-.458 23.37-12.896 21.411-29.127-.933-7.732-6.099-16.796-9.515-23.781-4.066-8.314-8.159-15.24-11.896-21.912-3.736 6.673-7.832 13.597-11.895 21.912-3.416 6.985-8.582 16.046-9.516 23.781-1.957 16.232 8.286 28.667 21.411 29.127" style="fill:#5ca9d6;fill-rule:nonzero" transform="matrix(.92022 0 0 2.90396 -.837 -2.644)"/><path d="M1715.59 2665.28c50.72-26.68 60.69-88.16 60.69-88.16h43.82s-3.16 20.33-14.46 42.93c0 0 52.87 31.17 52.87 94.43 0 18.07-9.04 98.5-95.79 98.5-23.04 0-32.99-5.42-32.99-5.42v-39.76s10.84 5.42 28.46 5.42c19.88 0 51.96-11.75 51.96-57.38.01-36.6-18.97-49.7-25.73-52.87v-.02c-.9-.45-2.71-1.35-3.61-1.35 0 0-.91 0-1.81 1.35 0 0-17.26 27.02-56.92 42.76v.62c0 18.98-1.35 104.84-95.79 104.84-18.53 0-33.89-6.33-33.89-6.33v127.42h-48.35V2692.78c0-.46 0-1.36-.45-1.36-.46 0-.91 0-1.36.45 0 0-12.84 12.04-36.63 18.34-.94 48.25-28.76 104.54-98.48 104.54-71.39 0-98.5-54.22-98.5-107.08 0-48.35 27.56-107.09 98.5-107.09 55.5 0 83.65 32.35 93.88 70.57 3.63-1.25 6.97-2.63 10.06-4.13 30.71-15.37 33.45-58.29 33.45-58.29h66.41c34.59 0 86.56 6.89 104.66 56.55Zm-1002.373 66.48c-1.323-7.93-1.954-16.03-1.954-24.09 0-48.35 27.561-107.09 98.503-107.09 72.746 0 98.5 55.58 98.5 107.09 0 48.79-27.562 107.08-98.5 107.08-39.751 0-65.773-16.81-81.029-40.83-11.688 18.06-40.11 41.77-92.488 41.77l.013-.02c-90.367 0-102.57-67.78-102.57-100.29 0-32.09 11.296-114.32 117.027-114.32 23.949 0 44.733 6.77 44.733 6.77v68.68h-41.569v-30.72s-5.423-2.71-15.371-2.71c-23.032 0-55.126 18.98-55.126 71.39 0 33.89 20.785 60.1 60.998 60.1 21.886 0 51.403-9.76 68.833-42.81Zm444.933 64.23c-11.55 9.42-27.72 16.97-48.79 16.97-35.24 0-45.63-31.18-45.63-31.18-.45-.9-.91-1.35-1.36-1.35-.9 0-1.35.9-1.35.9-12.65 22.14-36.6 33.43-63.707 33.43-70.944 0-79.076-66.42-79.076-91.73 0-57.83 30.273-122.45 123.353-122.45 4.07 0 8.59 0 13.11.45v-76.8h-18.98v-40.67h66.87v254.4c0 9.49 3.16 26.65 21.69 26.65 10.51.01 25.31-5.47 33.87-26.95v-128.94h45.63v34.34s0 1.81.9 1.81c.46 0 .91-.46 1.81-1.81.91-1.36 25.77-40.22 78.62-40.22 4.07 0 12.65.46 15.37 2.26v80.43h-40.66v-31.63c-17.18 0-29.37 10.85-37.51 22.14-14.45 20.34-15.81 48.8-15.81 57.84v73.65h-48.35v-11.54Zm292.43-117.29c-5.84-19.79-18.81-37-43.45-37-37.05 0-47.89 37.96-47.89 65.97 0 28.47 10.85 66.42 47.89 66.42 32.52 0 44.71-29.96 47.02-56.6-2.78.09-5.64.14-8.6.14-5.88 0-12.2 0-18.98-.45v-38.86c5.88.45 11.75.45 17.17.45 2.34 0 4.62-.03 6.84-.07Zm-640.814 95.39c36.597 0 47.442-37.96 47.442-66.42 0-28.01-10.845-65.97-47.442-65.97-37.053 0-47.895 37.96-47.895 65.97-.002 28.47 10.842 66.42 47.895 66.42Zm855.634-96.69c-8.9-19.52-28.5-28.42-59.89-28.42-4.52 0-9.04.45-13.1.45v108.89s9.94 12.2 31.63 12.2c34.2 0 44.92-28.26 46.7-54.02-3.01.15-6.08.23-9.22.23-10.39 0-10.85-.46-18.07-.91v-38.4h19.87c.7 0 1.39-.01 2.08-.02Zm-610.71-32.97s-6.33-2.71-22.59-2.71c-22.6 0-63.258 16.71-63.258 74.56 0 11.75.452 51.06 37.958 51.06 30.71 0 47.89-26.21 47.89-49.25v-73.66Z" style="fill:#fff;fill-rule:nonzero" transform="matrix(.36039 0 0 1.13729 -28.078 -2701.25)"/><path d="m636.239 2822.8.01.02 2.247-.01c46.876-.59 75.245-19.45 90.077-36.81 16.888 21.39 43.153 35.88 81.193 35.88 61.278 0 92.486-40.49 102.214-83.57 3.584 32.35 20.271 83.57 85.333 83.57 26.127 0 49.467-9.74 64.197-28.54 6.5 10.68 20.78 26.75 47.85 26.75 16.77 0 30.69-4.4 41.89-10.76.8 3.06 3.59 5.33 6.9 5.33h48.35c3.94 0 7.13-3.2 7.13-7.13v-73.65c0-8.39 1.08-34.83 14.48-53.69 5.74-7.96 13.71-15.89 24.58-18.37v23.71c0 3.94 3.19 7.13 7.13 7.13h40.66c.65 0 1.28-.09 1.88-.25-.57 5.14-.85 10.25-.85 15.26 0 33.75 10.65 67.92 35.37 89.94 16.62 14.8 39.61 24.27 70.25 24.27 72.03 0 102.51-55.93 105.4-106.25 10.43-3.29 18.61-7.51 24.39-11.09v227.72c0 3.93 3.2 7.12 7.13 7.12h48.35c3.94 0 7.13-3.19 7.13-7.12v-117.65c6.71 1.8 16.27 3.69 26.76 3.69 30.39 0 51.74-8.49 66.81-20.64 32.11-25.89 35.7-69.28 36.07-87.18 30.64-13.29 47.64-32.72 53.48-40.4 6.61 3.71 20.38 15.95 20.38 45.76 0 16.12-4.33 27.52-10.89 35.32-9.59 11.4-23.68 14.94-33.95 14.94-15.63 0-25.27-4.67-25.27-4.67a7.12 7.12 0 0 0-6.94.31 7.114 7.114 0 0 0-3.38 6.06v39.76c0 2.61 1.43 5.01 3.72 6.26 0 0 10.95 6.29 36.4 6.29 93.11 0 102.91-86.23 102.91-105.63 0-54.44-36.79-86.56-50.93-96.89 9.67-21.33 12.44-39.37 12.44-39.37.32-2.06-.27-4.15-1.63-5.73a7.095 7.095 0 0 0-5.41-2.5h-43.82a7.13 7.13 0 0 0-7.03 5.99s-8.38 52.34-50.21 79.06c-21.68-46.06-73.05-53.43-108.11-53.43h-66.41c-3.76 0-6.88 2.92-7.12 6.67 0 0-.93 14.16-7.73 28.53-4.32 9.13-11.03 18.43-21.74 23.81-.77.37-1.54.73-2.32 1.08-12.58-37.65-42.6-68.25-98.48-68.25-56.47 0-87.4 34.66-99.52 73.7v-62.05c0-2.38-1.19-4.61-3.18-5.93-1.38-.92-3.59-1.79-6.28-2.34-4.17-.84-9.84-1.11-13.04-1.11-37.28 0-61.6 18.01-74.2 30.84v-17.84c0-3.94-3.19-7.13-7.13-7.13h-45.63c-3.94 0-7.12 3.19-7.12 7.13v127.53c-7.04 16.53-18.38 21.24-26.75 21.24-13.13 0-14.56-12.81-14.56-19.53v-254.4c0-3.93-3.19-7.13-7.13-7.13h-66.87c-3.94 0-7.13 3.2-7.13 7.13v40.67c0 3.93 3.19 7.13 7.13 7.13h11.85v62.14c-2.06-.04-4.06-.05-5.98-.05-39.3 0-67.926 11.12-88.209 28.12-21.438 17.97-33.625 42.67-38.973 68.52-3.072-27.12-13.521-53.6-33.759-71.93-16.551-14.99-39.653-24.71-70.883-24.71-75.852 0-105.63 62.52-105.63 114.22 0 7.63.54 15.28 1.664 22.81h-.001c-15.966 28.42-41.976 36.96-61.415 36.96-17.787 0-31.362-5.57-40.406-15.12-9.036-9.53-13.465-22.87-13.465-37.85 0-46.61 27.517-64.26 47.999-64.26 3.453 0 6.223.38 8.244.8v25.5c0 3.94 3.191 7.13 7.127 7.13h41.569a7.127 7.127 0 0 0 7.127-7.13v-68.68c0-3.08-1.984-5.82-4.917-6.77 0 0-21.81-7.13-46.943-7.13-44.828 0-73.535 14.24-91.972 33.15-27.672 28.39-32.182 67.88-32.182 88.3 0 20.86 4.924 55.22 29.558 79.43 16.393 16.12 41.531 27.98 80.116 27.99Zm1143.511-160.71c.6-.49 1.06-.49 1.06-.49.9 0 2.71.9 3.61 1.35v.02c6.76 3.17 25.74 16.27 25.73 52.87 0 45.63-32.08 57.38-51.96 57.38-17.62 0-28.46-5.42-28.46-5.42v39.76s9.95 5.42 32.99 5.42c86.75 0 95.79-80.43 95.79-98.5 0-63.26-52.87-94.43-52.87-94.43 11.3-22.6 14.46-42.93 14.46-42.93h-43.82s-9.97 61.48-60.69 88.16c-18.1-49.66-70.07-56.55-104.66-56.55h-66.41s-2.74 42.92-33.45 58.29c-3.09 1.5-6.43 2.88-10.06 4.13-10.23-38.22-38.38-70.57-93.88-70.57-70.94 0-98.5 58.74-98.5 107.09 0 52.86 27.11 107.08 98.5 107.08 69.72 0 97.54-56.29 98.48-104.54 23.79-6.3 36.63-18.34 36.63-18.34.45-.45.9-.45 1.36-.45.45 0 .45.9.45 1.36V2932.26h48.35v-127.42s15.36 6.33 33.89 6.33c94.44 0 95.79-85.86 95.79-104.84v-.62c33.32-13.22 50.82-34.4 55.57-40.84.69 1.75 2.23 3.01 3.66 3.85.27-.02.64-.08 1.1-.2.22-.05.58-.11 1-.3-.97-1.76-2.44-4.38-3.66-6.13ZM632.897 2815.64c1.118.02 2.235.03 3.365.03l-.013.02c52.378 0 80.8-23.71 92.488-41.77 15.256 24.02 41.278 40.83 81.029 40.83 70.938 0 98.5-58.29 98.5-107.08 0-51.51-25.754-107.09-98.5-107.09-70.942 0-98.503 58.74-98.503 107.09 0 8.06.631 16.16 1.954 24.09-17.43 33.05-46.947 42.81-68.833 42.81-40.213 0-60.998-26.21-60.998-60.1 0-52.41 32.094-71.39 55.126-71.39 9.948 0 15.371 2.71 15.371 2.71v30.72h41.569v-68.68s-20.784-6.77-44.733-6.77c-105.731 0-117.027 82.23-117.027 114.32 0 31.64 11.557 96.68 95.476 100.14.223 4.59 6.595 7.09 7.067 7.27-.151-.36-1.46-3.44-2.853-6.21l-.485-.94Zm525.253-19.65c-11.55 9.42-27.72 16.97-48.79 16.97-35.24 0-45.63-31.18-45.63-31.18-.45-.9-.91-1.35-1.36-1.35-.9 0-1.35.9-1.35.9-12.65 22.14-36.6 33.43-63.707 33.43-70.944 0-79.076-66.42-79.076-91.73 0-57.83 30.273-122.45 123.353-122.45 4.07 0 8.59 0 13.11.45v-76.8h-18.98v-40.67h66.87v254.4c0 9.49 3.16 26.65 21.69 26.65 10.51.01 25.31-5.47 33.87-26.95v-128.94h45.63v34.34s0 1.81.9 1.81c.46 0 .91-.46 1.81-1.81.91-1.36 25.77-40.22 78.62-40.22 4.07 0 12.65.46 15.37 2.26v80.43h-40.66v-31.63c-17.18 0-29.37 10.85-37.51 22.14-14.45 20.34-15.81 48.8-15.81 57.84v73.65h-48.35v-11.54Zm292.43-117.29c-5.84-19.79-18.81-37-43.45-37-37.05 0-47.89 37.96-47.89 65.97 0 28.47 10.85 66.42 47.89 66.42 32.52 0 44.71-29.96 47.02-56.6-2.78.09-5.64.14-8.6.14-5.88 0-12.2 0-18.98-.45v-38.86c5.88.45 11.75.45 17.17.45 2.34 0 4.62-.03 6.84-.07Zm-640.814 95.39c36.597 0 47.442-37.96 47.442-66.42 0-28.01-10.845-65.97-47.442-65.97-37.053 0-47.895 37.96-47.895 65.97-.002 28.47 10.842 66.42 47.895 66.42Zm855.634-96.69c-8.9-19.52-28.5-28.42-59.89-28.42-4.52 0-9.04.45-13.1.45v108.89s9.94 12.2 31.63 12.2c34.2 0 44.92-28.26 46.7-54.02-3.01.15-6.08.23-9.22.23-10.39 0-10.85-.46-18.07-.91v-38.4h19.87c.7 0 1.39-.01 2.08-.02Zm-610.71-32.97s-6.33-2.71-22.59-2.71c-22.6 0-63.258 16.71-63.258 74.56 0 11.75.452 51.06 37.958 51.06 30.71 0 47.89-26.21 47.89-49.25v-73.66Zm-244.924 122.53c-15.5 0-25.489-7.99-31.632-18.9-6.753-12-9.137-27.3-9.136-40.39 0-12.87 2.385-28.05 9.13-39.98 6.144-10.87 16.135-18.86 31.638-18.86 15.281 0 25.145 7.99 31.229 18.84 6.698 11.94 9.086 27.13 9.086 40 0 13.1-2.388 28.4-9.093 40.41-6.083 10.89-15.944 18.88-31.222 18.88Zm630.604-95.32c-4.27-.01-8.76-.08-13.25-.43-1.98-.15-3.94.53-5.39 1.88a7.115 7.115 0 0 0-2.29 5.23v38.86c0 3.75 2.91 6.86 6.65 7.11 6.96.46 13.44.47 19.46.47h.52c-3.42 20.99-13.8 42.2-38.94 42.2-15.49 0-25.48-7.99-31.62-18.9-6.76-12-9.14-27.3-9.15-40.39 0-12.87 2.39-28.05 9.14-39.98 6.14-10.87 16.13-18.86 31.63-18.86 17.09 0 27.34 10 33.24 22.81Zm211.78-1.35h-8.7c-3.94 0-7.13 3.19-7.13 7.13v38.4c0 3.77 2.93 6.88 6.68 7.11 7.41.47 7.87.92 18.52.92h1.27c-2.95 19.93-12.61 39.55-38.75 39.54-13.31 0-21.32-5.35-24.51-8.05v-99.05c1.97-.09 3.97-.18 5.98-.18 21.57 0 37.1 4.21 46.64 14.18Zm-604.58-20.34v68.14c0 19.66-14.56 42.12-40.77 42.12-18.183 0-25.503-11.54-28.516-22.74-2.287-8.49-2.315-16.87-2.315-21.19 0-51.9 35.861-67.44 56.131-67.44 7.29 0 12.31.57 15.47 1.11Zm735.23 19.94-.01.02c.53.12 1.08.19 1.63.19l-.02-.02c-.54 0-1.08-.07-1.6-.19Zm.87-1.18c-.19.27-.4.55-.63.87l.54.21c.15.06.3.11.45.16l.37.12-.24-.46-.49-.9Zm-728.98-17.15Zm0 0v-.01l-7.12-7.12c0-1.66 6.91 6.87 7.12 7.13Z" style="fill:#247dac" transform="matrix(.36039 0 0 1.13729 -28.078 -2701.25)"/><g><text x="3658.41" y="1620.08" style="font-family:'Roboto-BoldItalic','Roboto';font-weight:700;font-style:italic;font-size:91.667px;fill:#5da8d6" transform="matrix(.41096 0 0 1.29687 -767.44 -1463.9)">CSS Ref<tspan x="3986.8px 4035.32px 4067.37px" y="1620.08px 1620.08px 1620.08px">ere</tspan>nce</text></g></g></g></svg>