<svg viewBox="0 0 2434 534" xmlns="http://www.w3.org/2000/svg" xml:space="preserve" style="fill-rule:evenodd;clip-rule:evenodd;stroke-linejoin:round;stroke-miterlimit:2"><g transform="scale(2.43333 .77108)"><path style="fill:none" d="M0 0h1000v691.667H0z"/><clipPath id="a"><path d="M0 0h1000v691.667H0z"/></clipPath><g clip-path="url(#a)"><path style="fill:#8a92bb" d="M2738 0h2433.33v533.333H2738z" transform="matrix(.41096 0 0 1.29687 -1125.21 0)"/><path style="fill:#515b8f" d="M2738 0h2433.33v533.333H2738z" transform="matrix(.41096 0 0 .26006 -1125.21 635.486)"/><path d="M7.579 10.123h14.204c4.169.035 7.19 1.237 9.063 3.604 1.873 2.367 2.491 5.6 1.855 9.699-.247 1.873-.795 3.71-1.643 5.512a16.385 16.385 0 0 1-3.392 4.876c-1.767 1.837-3.657 3.003-5.671 3.498a26.11 26.11 0 0 1-6.254.742h-6.36l-2.014 10.07H0l7.579-38.001m6.201 6.042-3.18 15.9c.212.035.424.053.636.053h.742c3.392.035 6.219-.3 8.48-1.007 2.261-.742 3.781-3.321 4.558-7.738.636-3.71 0-5.848-1.908-6.413-1.873-.565-4.222-.83-7.049-.795-.424.035-.83.053-1.219.053h-1.113l.053-.053M41.093 0h7.314L46.34 10.123h6.572c3.604.071 6.289.813 8.056 2.226 1.802 1.413 2.332 4.099 1.59 8.056l-3.551 17.649h-7.42L54.979 21.2c.353-1.767.247-3.021-.318-3.763s-1.784-1.113-3.657-1.113l-5.883-.053-4.346 21.783h-7.314L41.093 0M70.412 10.123h14.204c4.169.035 7.19 1.237 9.063 3.604 1.873 2.367 2.491 5.6 1.855 9.699-.247 1.873-.795 3.71-1.643 5.512a16.385 16.385 0 0 1-3.392 4.876c-1.767 1.837-3.657 3.003-5.671 3.498a26.11 26.11 0 0 1-6.254.742h-6.36L70.2 48.124h-7.367l7.579-38.001m6.201 6.042-3.18 15.9c.212.035.424.053.636.053h.742c3.392.035 6.219-.3 8.48-1.007 2.261-.742 3.781-3.321 4.558-7.738.636-3.71 0-5.848-1.908-6.413-1.873-.565-4.222-.83-7.049-.795-.424.035-.83.053-1.219.053H76.56l.053-.053" style="fill-rule:nonzero" transform="matrix(3.40433 0 0 10.7431 73.972 71.14)"/><g><text x="3658.41" y="1620.08" style="font-family:'Roboto-BoldItalic','Roboto';font-weight:700;font-style:italic;font-size:91.667px" transform="matrix(.41096 0 0 1.29687 -922.901 -1514.77)">Hyper<tspan x="3900.91" y="1620.08">t</tspan>ext Pr<tspan x="4168.53" y="1620.08">e</tspan>pr<tspan x="4298.82" y="1620.08">o</tspan>cessor</text></g></g></g></svg>