<svg viewBox="0 0 2434 534" xmlns="http://www.w3.org/2000/svg" xml:space="preserve" style="fill-rule:evenodd;clip-rule:evenodd;stroke-linejoin:round;stroke-miterlimit:2"><path style="fill:none" d="M0 0h1000v691.667H0z" transform="matrix(2.43333 0 0 .77108 0 .49)"/><path style="fill:#fff" d="M0 0h72v48H0z" transform="matrix(33.79624 0 0 11.07924 0 .49)"/><path d="M0 .49h2428.631v12.276H0zM0 521.547h2428.631v12.276H0z"/><path d="m20.149 8.815 5.759 19.58 5.759-19.58H47.28v1.946l-5.878 10.127c2.065.663 3.627 1.868 4.686 3.615 1.059 1.747 1.589 3.799 1.589 6.155 0 2.913-.774 5.362-2.323 7.348-1.549 1.986-3.555 2.978-6.017 2.978-1.854 0-3.469-.589-4.845-1.767-1.377-1.178-2.396-2.773-3.058-4.786l3.256-1.35c.477 1.218 1.106 2.178 1.887 2.879a3.993 3.993 0 0 0 2.76 1.052c1.112 0 2.052-.622 2.82-1.866.768-1.245 1.152-2.74 1.152-4.488 0-1.933-.411-3.429-1.231-4.488-.954-1.244-2.45-1.866-4.489-1.866h-1.588v-1.906l5.561-9.612H34.85l-.382.65-8.163 27.548h-.397L19.95 21.048l-5.958 19.937h-.397L4.064 8.815h4.17l5.759 19.58 3.893-13.185-1.906-6.395h4.169Z" style="fill:#005a9c;fill-rule:nonzero" transform="matrix(11.07924 0 0 11.07924 0 .49)"/><path d="M763.936 98.154c-9.074 0-17.217 3.268-23.388 9.539-6.548 6.647-10.193 15.245-10.193 24.13 0 8.886 3.468 17.118 9.827 23.577 6.46 6.548 14.78 10.104 23.765 10.104 8.786 0 17.306-3.556 23.942-10.004 6.36-6.171 9.817-14.414 9.817-23.677 0-8.985-3.557-17.394-9.728-23.665-6.46-6.548-14.88-10.004-24.042-10.004Zm29.282 33.957c0 7.767-3.002 14.968-8.52 20.298-5.794 5.617-12.995 8.608-20.95 8.608-7.479 0-14.869-3.08-20.386-8.697-5.518-5.606-8.609-12.819-8.609-20.486 0-7.666 3.18-15.156 8.886-20.95 5.329-5.43 12.53-8.32 20.386-8.32 8.043 0 15.245 3.002 20.862 8.696 5.429 5.418 8.331 12.72 8.331 20.851Zm-28.34-20.02h-14.403v38.168h7.201v-16.275h7.113l7.767 16.275h8.043l-8.52-17.405c5.518-1.12 8.697-4.864 8.697-10.282 0-6.924-5.24-10.48-15.898-10.48Zm-1.319 4.676c6.736 0 9.817 1.872 9.817 6.547 0 4.488-3.08 6.083-9.64 6.083h-6.082v-12.63h5.905Z"/><path d="m63.839 8.634.676 4.107-2.391 4.575s-.918-1.941-2.443-3.015c-1.285-.905-2.122-1.102-3.431-.832-1.681.347-3.587 2.357-4.419 4.835-.995 2.965-1.005 4.4-1.04 5.718-.056 2.113.277 3.362.277 3.362s-1.451-2.686-1.438-6.62c.009-2.808.451-5.354 1.75-7.867 1.143-2.209 2.842-3.535 4.35-3.691 1.559-.161 2.791.59 3.743 1.404.999.854 2.01 2.72 2.01 2.72l2.356-4.696ZM64.134 31.872s-1.057 1.889-1.715 2.617c-.659.728-1.837 2.01-3.292 2.651-1.456.641-2.218.762-3.656.624-1.437-.138-2.773-.97-3.241-1.317-.468-.347-1.664-1.369-2.339-2.322-.676-.954-1.733-2.859-1.733-2.859s.589 1.911.958 2.721c.212.466.864 1.894 1.79 3.136.862 1.159 2.539 3.154 5.086 3.604 2.547.451 4.297-.693 4.73-.971.433-.277 1.346-1.041 1.924-1.659.603-.645 1.174-1.468 1.49-1.962.231-.36.607-1.092.607-1.092l-.609-3.171Z" style="fill-rule:nonzero" transform="matrix(11.07924 0 0 11.07924 0 .49)"/><g><text x="3658.41" y="1620.08" style="font-family:'Roboto-Black','Roboto';font-weight:900;font-size:91.667px;fill:#105a9c" transform="matrix(1 0 0 1 -2636.513 -1187.296)">W<tspan x="3736.15" y="1620.08">A</tspan>I •</text><text x="3905.79" y="1620.08" style="font-family:'Roboto-BoldItalic','Roboto';font-weight:700;font-style:italic;font-size:91.667px;fill:#5da8d6" transform="matrix(1 0 0 1 -2636.513 -1187.296)">W<tspan x="3982.6" y="1620.08">e</tspan>b Accessibility Initiativ<tspan x="4946.35" y="1620.08">e</tspan></text></g></svg>