<svg viewBox="0 0 512 512" xmlns="http://www.w3.org/2000/svg" xml:space="preserve" style="fill-rule:evenodd;clip-rule:evenodd;stroke-miterlimit:10"><path style="fill:none" d="M0 0h512v512H0z"/><path d="M128.8 289.8c-.3-12.9 1.4-25.8 5.1-38.1M135.8 245.7c4.2-12.2 10.4-23.6 18.2-33.9M158.1 206.5c4.1-5 8.6-9.6 13.5-13.8 2.4-2.2 4.9-4.1 7.5-6.1 2.6-1.9 5.2-3.8 8-5.5M192.4 177.8c5.6-3.1 11.4-6 17.5-8.2 6-2.3 12.2-4.1 18.5-5.5" style="fill:none;fill-rule:nonzero;stroke:#768293;stroke-width:2.08px"/><path d="M56.781 286.287a5.613 5.613 0 0 1 4.56 5.51 5.611 5.611 0 0 1-5.609 5.609 5.611 5.611 0 0 1-5.608-5.609 5.614 5.614 0 0 1 4.573-5.513c.312-12.891 1.869-25.695 4.595-38.335a5.615 5.615 0 0 1-3.49-5.195 5.611 5.611 0 0 1 6.065-5.59c.713-2.653 1.553-5.305 2.334-7.958.504-1.716 1.109-3.331 1.715-5.047l1.706-5.018.009-.023c2.433-6.177 4.955-12.267 7.888-18.188a5.6 5.6 0 0 1-2.244-4.486 5.611 5.611 0 0 1 7.405-5.315c6.279-11.19 13.466-21.793 21.633-31.587a5.611 5.611 0 0 1 7.328-8.311c8.696-9.478 18.369-18.045 28.719-25.699a5.61 5.61 0 0 1 4.898-8.34c1.698 0 3.221.756 4.25 1.95 10.681-7.044 22.003-13.029 33.746-18.028a5.61 5.61 0 0 1 5.342-7.319 5.614 5.614 0 0 1 5.102 3.276c12.63-4.532 25.703-7.8 39.047-9.801l.31 2.06c-13.282 1.992-26.292 5.251-38.858 9.776a5.611 5.611 0 0 1-5.601 5.906 5.597 5.597 0 0 1-4.341-2.059c-11.731 4.981-23.04 10.954-33.702 17.995a5.611 5.611 0 0 1-5.295 7.461 5.586 5.586 0 0 1-3.56-1.276c-10.286 7.599-19.899 16.106-28.538 25.524a5.579 5.579 0 0 1 1.08 3.307 5.611 5.611 0 0 1-8.323 4.908c-8.088 9.699-15.204 20.199-21.423 31.281a5.596 5.596 0 0 1 1.998 4.291 5.61 5.61 0 0 1-7.104 5.406c-2.905 5.863-5.4 11.893-7.81 18.009l-1.694 4.982-.002.006c-.593 1.682-1.188 3.265-1.683 4.947-.776 2.641-1.614 5.281-2.323 7.922a5.612 5.612 0 0 1 3.144 5.038 5.612 5.612 0 0 1-5.609 5.609h-.077c-2.699 12.505-4.242 25.171-4.553 37.924Zm-1.451 2.008a3.528 3.528 0 0 0-3.123 3.502 3.528 3.528 0 0 0 3.525 3.526 3.528 3.528 0 0 0 3.526-3.526 3.527 3.527 0 0 0-3.023-3.489l-.905-.013Zm6.081-49.066a3.528 3.528 0 0 0-3.526 3.525 3.528 3.528 0 0 0 3.526 3.526 3.527 3.527 0 0 0 0-7.051Zm17.473-46.311a3.528 3.528 0 0 0-3.526 3.526 3.528 3.528 0 0 0 3.526 3.525 3.527 3.527 0 0 0 3.525-3.525 3.528 3.528 0 0 0-3.525-3.526Zm27.747-40.479a3.527 3.527 0 0 0-3.525 3.525 3.527 3.527 0 0 0 7.051 0 3.527 3.527 0 0 0-3.526-3.525Zm79.965-56.561a3.527 3.527 0 0 0-3.525 3.525 3.528 3.528 0 0 0 3.525 3.526 3.528 3.528 0 0 0 3.526-3.526 3.528 3.528 0 0 0-3.526-3.525Zm-43.338 23.397a3.527 3.527 0 0 0-3.525 3.525 3.528 3.528 0 0 0 3.525 3.526 3.528 3.528 0 0 0 3.526-3.526 3.528 3.528 0 0 0-3.526-3.525Z" style="fill:#c1c8d3"/><path d="M382.4 165.6c10.2 20.6 16.3 43.3 17.8 66.6 1.5 23.3-1.6 47-9.3 69.4-7.6 22.4-19.8 43.5-35.7 61.5-15.9 18.1-35.5 33.1-57.4 43.8h-.1c-6.1 3-13.4.5-16.3-5.6-3-6-.5-13.4 5.6-16.3.3-.1.6-.3.9-.4 19.8-7.8 38.2-19.5 53.7-34.5s28.2-33.2 36.9-53.4c8.8-20.1 13.6-42.2 13.9-64.5.4-22.3-3.7-44.8-12.1-65.9-.2-.6.1-1.2.6-1.4.6-.1 1.2.2 1.5.7Z" style="fill:#768293;fill-opacity:.6;fill-rule:nonzero"/><path d="M165.967 431.349a10.965 10.965 0 0 1-7.468 2.924c-6.075 0-11.007-4.932-11.007-11.007 0-6.075 4.932-11.008 11.007-11.008 6.075 0 11.008 4.933 11.008 11.008a10.96 10.96 0 0 1-1.562 5.652c16.791 11.609 35.834 19.974 55.706 24.56 20.598 4.753 42.186 5.447 63.081 1.983.001-6.075 4.933-11.006 11.008-11.006 4.271 0 7.978 2.439 9.802 5.999 20.117-6.154 38.956-16.2 55.164-29.56 16.343-13.47 30.012-30.11 40.016-48.83l2.756 1.472c-10.196 19.08-24.127 36.04-40.784 49.77-16.497 13.597-35.667 23.829-56.138 30.106.125.664.191 1.35.191 2.05 0 6.076-4.932 11.008-11.007 11.008-5.002 0-9.229-3.343-10.567-7.915-21.275 3.518-43.253 2.807-64.224-2.033-20.335-4.692-39.818-13.267-56.982-25.173Zm-7.468-15.966a7.886 7.886 0 0 0-7.882 7.883 7.886 7.886 0 0 0 7.882 7.882 7.886 7.886 0 0 0 7.883-7.882 7.886 7.886 0 0 0-7.883-7.883ZM297.74 447.58a7.886 7.886 0 0 0-7.883 7.882 7.886 7.886 0 0 0 7.883 7.883 7.886 7.886 0 0 0 7.882-7.883 7.886 7.886 0 0 0-7.882-7.882Z" style="fill:#d77526"/><path d="m376.1 388.5 24.1-11.5 7.3 25.6 8.7-61.1-40.1 47Z" style="fill:#d77526;fill-rule:nonzero"/><path d="m384.1 382.9 29.4-35.4-12 26.6-17.4 8.8Z" style="fill:#404751;fill-rule:nonzero"/><path d="M90.727 276.738c-3.336-.937-5.785-4.003-5.785-7.636a7.934 7.934 0 0 1 7.839-7.93c2.792-15.951 8.002-31.494 15.33-45.904.41-.806.827-1.609 1.25-2.408a7.915 7.915 0 0 1-2.906-6.134 7.934 7.934 0 0 1 10.81-7.391 164.074 164.074 0 0 1 35.3-38.614 7.934 7.934 0 0 1 7.179-11.303 7.933 7.933 0 0 1 7.93 7.93 7.934 7.934 0 0 1-7.93 7.931 7.902 7.902 0 0 1-5.316-2.047 160.935 160.935 0 0 0-34.533 37.791 7.907 7.907 0 0 1 2.421 5.703 7.934 7.934 0 0 1-10.196 7.602c-.414.782-.822 1.567-1.223 2.356-7.194 14.147-12.308 29.407-15.045 45.067a7.936 7.936 0 0 1 4.952 7.351c0 4.048-3.041 7.392-6.961 7.871-1.348 16.939.045 34.152 4.034 50.618a7.934 7.934 0 0 1 7.744 7.928 7.924 7.924 0 0 1-3.487 6.568c5.766 16.969 14.462 32.911 25.402 47.057l-2.472 1.912c-11.106-14.362-19.942-30.54-25.819-47.759a7.935 7.935 0 0 1-9.486-7.778 7.938 7.938 0 0 1 5.034-7.384c-4.029-16.723-5.433-34.199-4.066-51.397Zm6.963 53.976a4.808 4.808 0 0 0-4.806 4.805 4.808 4.808 0 0 0 4.806 4.806 4.808 4.808 0 0 0 4.806-4.806 4.808 4.808 0 0 0-4.806-4.805Zm-4.817-66.418a4.808 4.808 0 0 0-4.806 4.806 4.808 4.808 0 0 0 4.806 4.805 4.808 4.808 0 0 0 4.806-4.805 4.808 4.808 0 0 0-4.806-4.806Zm21.513-62.375a4.807 4.807 0 0 0-4.806 4.805 4.808 4.808 0 0 0 4.806 4.806 4.808 4.808 0 0 0 4.805-4.806 4.807 4.807 0 0 0-4.805-4.805Zm45.358-49.378a4.807 4.807 0 0 0-4.806 4.805 4.808 4.808 0 0 0 4.806 4.806 4.807 4.807 0 0 0 4.805-4.806 4.807 4.807 0 0 0-4.805-4.805Z" style="fill:#768293"/><path d="m124.2 366.6.3 19.8-19.6-3.1 38.4 24.9-19.1-41.6Z" style="fill:#768293;fill-rule:nonzero"/><path d="m125.5 373.7 14.6 30.9-14.1-16.5-.5-14.4Z" style="fill:#404751;fill-rule:nonzero"/><path d="m77.7 292.7 9.4 11.1 9.5-11.1-9.5 32.4-9.4-32.4Z" style="fill:#c1c8d3;fill-rule:nonzero" transform="translate(198.809 11.1)"/><path d="m80.4 297.3 6.7 24.2v-16l-6.7-8.2Z" style="fill:#404751;fill-rule:nonzero" transform="translate(198.809 11.1)"/><path d="M60.694 41.277c-1.708-.19-3.084-1.558-3.084-3.177 0-1.745 1.6-3.199 3.49-3.199 1.89 0 3.49 1.454 3.49 3.199 0 1.679-1.262 2.899-2.869 3.151v23.206c1.607.276 2.869 1.596 2.869 3.146 0 1.679-1.262 2.899-2.869 3.151v23.112c1.607.275 2.869 1.596 2.869 3.146 0 1.679-1.262 2.899-2.869 3.151v23.193c1.607.276 2.869 1.596 2.869 3.146 0 1.679-1.262 2.9-2.869 3.151v22.846c1.607.276 2.869 1.596 2.869 3.146 0 1.679-1.262 2.899-2.869 3.151v22.911c1.607.276 2.869 1.597 2.869 3.147 0 1.679-1.262 2.899-2.869 3.151v23.582h-1.027v-23.556c-1.708-.19-3.084-1.559-3.084-3.177 0-1.619 1.376-2.987 3.084-3.177v-22.855c-1.708-.19-3.084-1.558-3.084-3.177s1.376-2.987 3.084-3.177v-22.789c-1.708-.19-3.084-1.558-3.084-3.177 0-1.618 1.376-2.987 3.084-3.176v-23.137c-1.708-.19-3.084-1.559-3.084-3.177 0-1.619 1.376-2.987 3.084-3.177V70.78c-1.708-.19-3.084-1.558-3.084-3.177 0-1.618 1.376-2.987 3.084-3.177V41.277Zm.406-.977c1.3 0 2.4-.9 2.4-2.2 0-1.2-1.1-2.2-2.4-2.2-1.3 0-2.4 1-2.4 2.2 0 1.2 1.1 2.2 2.4 2.2Zm0 146.754c1.3 0 2.4-.9 2.4-2.2 0-1.2-1.1-2.2-2.4-2.2-1.3 0-2.4 1-2.4 2.2 0 1.2 1.1 2.2 2.4 2.2Zm0-29.209c1.3 0 2.4-.9 2.4-2.2 0-1.2-1.1-2.2-2.4-2.2-1.3 0-2.4 1-2.4 2.2 0 1.2 1.1 2.2 2.4 2.2Zm0-58.633c1.3 0 2.4-.9 2.4-2.2 0-1.2-1.1-2.2-2.4-2.2-1.3 0-2.4 1-2.4 2.2 0 1.2 1.1 2.2 2.4 2.2Zm0-29.409c1.3 0 2.4-.9 2.4-2.2 0-1.2-1.1-2.2-2.4-2.2-1.3 0-2.4 1-2.4 2.2 0 1.2 1.1 2.2 2.4 2.2Zm0 58.899c1.3 0 2.4-.9 2.4-2.2 0-1.2-1.1-2.2-2.4-2.2-1.3 0-2.4 1-2.4 2.2 0 1.2 1.1 2.2 2.4 2.2Z" style="fill:#c1c8d3" transform="matrix(1.04167 0 0 1.13636 192.89 -25.468)"/><path d="M60.694 41.277c-1.708-.19-3.084-1.558-3.084-3.177 0-1.745 1.6-3.199 3.49-3.199 1.89 0 3.49 1.454 3.49 3.199 0 1.679-1.262 2.899-2.869 3.151v23.206c1.607.276 2.869 1.596 2.869 3.146 0 1.679-1.262 2.899-2.869 3.151v23.112c1.607.275 2.869 1.596 2.869 3.146 0 1.679-1.262 2.899-2.869 3.151v23.193c1.607.276 2.869 1.596 2.869 3.146 0 1.679-1.262 2.9-2.869 3.151v22.846c1.607.276 2.869 1.596 2.869 3.146 0 1.679-1.262 2.899-2.869 3.151v22.911c1.607.276 2.869 1.597 2.869 3.147 0 1.679-1.262 2.899-2.869 3.151v23.582h-1.027v-23.556c-1.708-.19-3.084-1.559-3.084-3.177 0-1.619 1.376-2.987 3.084-3.177v-22.855c-1.708-.19-3.084-1.558-3.084-3.177s1.376-2.987 3.084-3.177v-22.789c-1.708-.19-3.084-1.558-3.084-3.177 0-1.618 1.376-2.987 3.084-3.176v-23.137c-1.708-.19-3.084-1.559-3.084-3.177 0-1.619 1.376-2.987 3.084-3.177V70.78c-1.708-.19-3.084-1.558-3.084-3.177 0-1.618 1.376-2.987 3.084-3.177V41.277Zm.406-.977c1.3 0 2.4-.9 2.4-2.2 0-1.2-1.1-2.2-2.4-2.2-1.3 0-2.4 1-2.4 2.2 0 1.2 1.1 2.2 2.4 2.2Zm0 146.754c1.3 0 2.4-.9 2.4-2.2 0-1.2-1.1-2.2-2.4-2.2-1.3 0-2.4 1-2.4 2.2 0 1.2 1.1 2.2 2.4 2.2Zm0-29.209c1.3 0 2.4-.9 2.4-2.2 0-1.2-1.1-2.2-2.4-2.2-1.3 0-2.4 1-2.4 2.2 0 1.2 1.1 2.2 2.4 2.2Zm0-58.633c1.3 0 2.4-.9 2.4-2.2 0-1.2-1.1-2.2-2.4-2.2-1.3 0-2.4 1-2.4 2.2 0 1.2 1.1 2.2 2.4 2.2Zm0-29.409c1.3 0 2.4-.9 2.4-2.2 0-1.2-1.1-2.2-2.4-2.2-1.3 0-2.4 1-2.4 2.2 0 1.2 1.1 2.2 2.4 2.2Zm0 58.899c1.3 0 2.4-.9 2.4-2.2 0-1.2-1.1-2.2-2.4-2.2-1.3 0-2.4 1-2.4 2.2 0 1.2 1.1 2.2 2.4 2.2Z" style="fill:#c1c8d3" transform="matrix(1.04167 0 0 1.13636 202.673 8.23)"/><path d="M60.694 41.277c-1.708-.19-3.084-1.558-3.084-3.177 0-1.745 1.6-3.199 3.49-3.199 1.89 0 3.49 1.454 3.49 3.199 0 1.679-1.262 2.899-2.869 3.151v23.206c1.607.276 2.869 1.596 2.869 3.146 0 1.679-1.262 2.899-2.869 3.151v23.112c1.607.275 2.869 1.596 2.869 3.146 0 1.679-1.262 2.899-2.869 3.151v23.193c1.607.276 2.869 1.596 2.869 3.146 0 1.679-1.262 2.9-2.869 3.151v22.846c1.607.276 2.869 1.596 2.869 3.146 0 1.679-1.262 2.899-2.869 3.151v22.911c1.607.276 2.869 1.597 2.869 3.147 0 1.679-1.262 2.899-2.869 3.151v23.582h-1.027v-23.556c-1.708-.19-3.084-1.559-3.084-3.177 0-1.619 1.376-2.987 3.084-3.177v-22.855c-1.708-.19-3.084-1.558-3.084-3.177s1.376-2.987 3.084-3.177v-22.789c-1.708-.19-3.084-1.558-3.084-3.177 0-1.618 1.376-2.987 3.084-3.176v-23.137c-1.708-.19-3.084-1.559-3.084-3.177 0-1.619 1.376-2.987 3.084-3.177V70.78c-1.708-.19-3.084-1.558-3.084-3.177 0-1.618 1.376-2.987 3.084-3.177V41.277Zm.406-.977c1.3 0 2.4-.9 2.4-2.2 0-1.2-1.1-2.2-2.4-2.2-1.3 0-2.4 1-2.4 2.2 0 1.2 1.1 2.2 2.4 2.2Zm0 146.754c1.3 0 2.4-.9 2.4-2.2 0-1.2-1.1-2.2-2.4-2.2-1.3 0-2.4 1-2.4 2.2 0 1.2 1.1 2.2 2.4 2.2Zm0-29.209c1.3 0 2.4-.9 2.4-2.2 0-1.2-1.1-2.2-2.4-2.2-1.3 0-2.4 1-2.4 2.2 0 1.2 1.1 2.2 2.4 2.2Zm0-58.633c1.3 0 2.4-.9 2.4-2.2 0-1.2-1.1-2.2-2.4-2.2-1.3 0-2.4 1-2.4 2.2 0 1.2 1.1 2.2 2.4 2.2Zm0-29.409c1.3 0 2.4-.9 2.4-2.2 0-1.2-1.1-2.2-2.4-2.2-1.3 0-2.4 1-2.4 2.2 0 1.2 1.1 2.2 2.4 2.2Zm0 58.899c1.3 0 2.4-.9 2.4-2.2 0-1.2-1.1-2.2-2.4-2.2-1.3 0-2.4 1-2.4 2.2 0 1.2 1.1 2.2 2.4 2.2Z" style="fill:#c1c8d3" transform="matrix(1.04167 0 0 1.13636 212.456 41.447)"/><path d="M60.694 41.277c-1.708-.19-3.084-1.558-3.084-3.177 0-1.745 1.6-3.199 3.49-3.199 1.89 0 3.49 1.454 3.49 3.199 0 1.679-1.262 2.899-2.869 3.151v23.206c1.607.276 2.869 1.596 2.869 3.146 0 1.679-1.262 2.899-2.869 3.151v23.112c1.607.275 2.869 1.596 2.869 3.146 0 1.679-1.262 2.899-2.869 3.151v23.193c1.607.276 2.869 1.596 2.869 3.146 0 1.679-1.262 2.9-2.869 3.151v22.846c1.607.276 2.869 1.596 2.869 3.146 0 1.679-1.262 2.899-2.869 3.151v22.911c1.607.276 2.869 1.597 2.869 3.147 0 1.679-1.262 2.899-2.869 3.151v23.582h-1.027v-23.556c-1.708-.19-3.084-1.559-3.084-3.177 0-1.619 1.376-2.987 3.084-3.177v-22.855c-1.708-.19-3.084-1.558-3.084-3.177s1.376-2.987 3.084-3.177v-22.789c-1.708-.19-3.084-1.558-3.084-3.177 0-1.618 1.376-2.987 3.084-3.176v-23.137c-1.708-.19-3.084-1.559-3.084-3.177 0-1.619 1.376-2.987 3.084-3.177V70.78c-1.708-.19-3.084-1.558-3.084-3.177 0-1.618 1.376-2.987 3.084-3.177V41.277Zm.406-.977c1.3 0 2.4-.9 2.4-2.2 0-1.2-1.1-2.2-2.4-2.2-1.3 0-2.4 1-2.4 2.2 0 1.2 1.1 2.2 2.4 2.2Zm0 146.754c1.3 0 2.4-.9 2.4-2.2 0-1.2-1.1-2.2-2.4-2.2-1.3 0-2.4 1-2.4 2.2 0 1.2 1.1 2.2 2.4 2.2Zm0-29.209c1.3 0 2.4-.9 2.4-2.2 0-1.2-1.1-2.2-2.4-2.2-1.3 0-2.4 1-2.4 2.2 0 1.2 1.1 2.2 2.4 2.2Zm0-58.633c1.3 0 2.4-.9 2.4-2.2 0-1.2-1.1-2.2-2.4-2.2-1.3 0-2.4 1-2.4 2.2 0 1.2 1.1 2.2 2.4 2.2Zm0-29.409c1.3 0 2.4-.9 2.4-2.2 0-1.2-1.1-2.2-2.4-2.2-1.3 0-2.4 1-2.4 2.2 0 1.2 1.1 2.2 2.4 2.2Zm0 58.899c1.3 0 2.4-.9 2.4-2.2 0-1.2-1.1-2.2-2.4-2.2-1.3 0-2.4 1-2.4 2.2 0 1.2 1.1 2.2 2.4 2.2Z" style="fill:#c1c8d3" transform="matrix(-1.04167 0 0 1.13636 378.88 -25.733)"/><path d="M60.694 41.277c-1.708-.19-3.084-1.558-3.084-3.177 0-1.745 1.6-3.199 3.49-3.199 1.89 0 3.49 1.454 3.49 3.199 0 1.679-1.262 2.899-2.869 3.151v23.206c1.607.276 2.869 1.596 2.869 3.146 0 1.679-1.262 2.899-2.869 3.151v23.112c1.607.275 2.869 1.596 2.869 3.146 0 1.679-1.262 2.899-2.869 3.151v23.193c1.607.276 2.869 1.596 2.869 3.146 0 1.679-1.262 2.9-2.869 3.151v22.846c1.607.276 2.869 1.596 2.869 3.146 0 1.679-1.262 2.899-2.869 3.151v22.911c1.607.276 2.869 1.597 2.869 3.147 0 1.679-1.262 2.899-2.869 3.151v23.582h-1.027v-23.556c-1.708-.19-3.084-1.559-3.084-3.177 0-1.619 1.376-2.987 3.084-3.177v-22.855c-1.708-.19-3.084-1.558-3.084-3.177s1.376-2.987 3.084-3.177v-22.789c-1.708-.19-3.084-1.558-3.084-3.177 0-1.618 1.376-2.987 3.084-3.176v-23.137c-1.708-.19-3.084-1.559-3.084-3.177 0-1.619 1.376-2.987 3.084-3.177V70.78c-1.708-.19-3.084-1.558-3.084-3.177 0-1.618 1.376-2.987 3.084-3.177V41.277Zm.406-.977c1.3 0 2.4-.9 2.4-2.2 0-1.2-1.1-2.2-2.4-2.2-1.3 0-2.4 1-2.4 2.2 0 1.2 1.1 2.2 2.4 2.2Zm0 146.754c1.3 0 2.4-.9 2.4-2.2 0-1.2-1.1-2.2-2.4-2.2-1.3 0-2.4 1-2.4 2.2 0 1.2 1.1 2.2 2.4 2.2Zm0-29.209c1.3 0 2.4-.9 2.4-2.2 0-1.2-1.1-2.2-2.4-2.2-1.3 0-2.4 1-2.4 2.2 0 1.2 1.1 2.2 2.4 2.2Zm0-58.633c1.3 0 2.4-.9 2.4-2.2 0-1.2-1.1-2.2-2.4-2.2-1.3 0-2.4 1-2.4 2.2 0 1.2 1.1 2.2 2.4 2.2Zm0-29.409c1.3 0 2.4-.9 2.4-2.2 0-1.2-1.1-2.2-2.4-2.2-1.3 0-2.4 1-2.4 2.2 0 1.2 1.1 2.2 2.4 2.2Zm0 58.899c1.3 0 2.4-.9 2.4-2.2 0-1.2-1.1-2.2-2.4-2.2-1.3 0-2.4 1-2.4 2.2 0 1.2 1.1 2.2 2.4 2.2Z" style="fill:#c1c8d3" transform="matrix(-1.04167 0 0 1.13636 369.097 7.72)"/><path d="M60.694 41.277c-1.708-.19-3.084-1.558-3.084-3.177 0-1.745 1.6-3.199 3.49-3.199 1.89 0 3.49 1.454 3.49 3.199 0 1.679-1.262 2.899-2.869 3.151v23.206c1.607.276 2.869 1.596 2.869 3.146 0 1.679-1.262 2.899-2.869 3.151v23.112c1.607.275 2.869 1.596 2.869 3.146 0 1.679-1.262 2.899-2.869 3.151v23.193c1.607.276 2.869 1.596 2.869 3.146 0 1.679-1.262 2.9-2.869 3.151v22.846c1.607.276 2.869 1.596 2.869 3.146 0 1.679-1.262 2.899-2.869 3.151v22.911c1.607.276 2.869 1.597 2.869 3.147 0 1.679-1.262 2.899-2.869 3.151v23.582h-1.027v-23.556c-1.708-.19-3.084-1.559-3.084-3.177 0-1.619 1.376-2.987 3.084-3.177v-22.855c-1.708-.19-3.084-1.558-3.084-3.177s1.376-2.987 3.084-3.177v-22.789c-1.708-.19-3.084-1.558-3.084-3.177 0-1.618 1.376-2.987 3.084-3.176v-23.137c-1.708-.19-3.084-1.559-3.084-3.177 0-1.619 1.376-2.987 3.084-3.177V70.78c-1.708-.19-3.084-1.558-3.084-3.177 0-1.618 1.376-2.987 3.084-3.177V41.277Zm.406-.977c1.3 0 2.4-.9 2.4-2.2 0-1.2-1.1-2.2-2.4-2.2-1.3 0-2.4 1-2.4 2.2 0 1.2 1.1 2.2 2.4 2.2Zm0 146.754c1.3 0 2.4-.9 2.4-2.2 0-1.2-1.1-2.2-2.4-2.2-1.3 0-2.4 1-2.4 2.2 0 1.2 1.1 2.2 2.4 2.2Zm0-29.209c1.3 0 2.4-.9 2.4-2.2 0-1.2-1.1-2.2-2.4-2.2-1.3 0-2.4 1-2.4 2.2 0 1.2 1.1 2.2 2.4 2.2Zm0-58.633c1.3 0 2.4-.9 2.4-2.2 0-1.2-1.1-2.2-2.4-2.2-1.3 0-2.4 1-2.4 2.2 0 1.2 1.1 2.2 2.4 2.2Zm0-29.409c1.3 0 2.4-.9 2.4-2.2 0-1.2-1.1-2.2-2.4-2.2-1.3 0-2.4 1-2.4 2.2 0 1.2 1.1 2.2 2.4 2.2Zm0 58.899c1.3 0 2.4-.9 2.4-2.2 0-1.2-1.1-2.2-2.4-2.2-1.3 0-2.4 1-2.4 2.2 0 1.2 1.1 2.2 2.4 2.2Z" style="fill:#c1c8d3" transform="matrix(-1.04167 0 0 1.13636 359.314 41.232)"/><path d="M60.694 41.277c-1.708-.19-3.084-1.558-3.084-3.177 0-1.745 1.6-3.199 3.49-3.199 1.89 0 3.49 1.454 3.49 3.199 0 1.679-1.262 2.899-2.869 3.151v23.206c1.607.276 2.869 1.596 2.869 3.146 0 1.679-1.262 2.899-2.869 3.151v23.112c1.607.275 2.869 1.596 2.869 3.146 0 1.679-1.262 2.899-2.869 3.151v23.193c1.607.276 2.869 1.596 2.869 3.146 0 1.679-1.262 2.9-2.869 3.151v22.846c1.607.276 2.869 1.596 2.869 3.146 0 1.679-1.262 2.899-2.869 3.151v22.911c1.607.276 2.869 1.597 2.869 3.147 0 1.679-1.262 2.899-2.869 3.151v23.582h-1.027v-23.556c-1.708-.19-3.084-1.559-3.084-3.177 0-1.619 1.376-2.987 3.084-3.177v-22.855c-1.708-.19-3.084-1.558-3.084-3.177s1.376-2.987 3.084-3.177v-22.789c-1.708-.19-3.084-1.558-3.084-3.177 0-1.618 1.376-2.987 3.084-3.176v-23.137c-1.708-.19-3.084-1.559-3.084-3.177 0-1.619 1.376-2.987 3.084-3.177V70.78c-1.708-.19-3.084-1.558-3.084-3.177 0-1.618 1.376-2.987 3.084-3.177V41.277Zm.406-.977c1.3 0 2.4-.9 2.4-2.2 0-1.2-1.1-2.2-2.4-2.2-1.3 0-2.4 1-2.4 2.2 0 1.2 1.1 2.2 2.4 2.2Zm0 146.754c1.3 0 2.4-.9 2.4-2.2 0-1.2-1.1-2.2-2.4-2.2-1.3 0-2.4 1-2.4 2.2 0 1.2 1.1 2.2 2.4 2.2Zm0-29.209c1.3 0 2.4-.9 2.4-2.2 0-1.2-1.1-2.2-2.4-2.2-1.3 0-2.4 1-2.4 2.2 0 1.2 1.1 2.2 2.4 2.2Zm0-58.633c1.3 0 2.4-.9 2.4-2.2 0-1.2-1.1-2.2-2.4-2.2-1.3 0-2.4 1-2.4 2.2 0 1.2 1.1 2.2 2.4 2.2Zm0-29.409c1.3 0 2.4-.9 2.4-2.2 0-1.2-1.1-2.2-2.4-2.2-1.3 0-2.4 1-2.4 2.2 0 1.2 1.1 2.2 2.4 2.2Zm0 58.899c1.3 0 2.4-.9 2.4-2.2 0-1.2-1.1-2.2-2.4-2.2-1.3 0-2.4 1-2.4 2.2 0 1.2 1.1 2.2 2.4 2.2Z" style="fill:#c1c8d3" transform="matrix(1.04167 0 0 1.13636 222.24 74.979)"/><path d="M821.314 133.734c4.862 0 8.81 3.948 8.81 8.81 0 4.863-3.948 8.811-8.81 8.811-4.863 0-8.811-3.948-8.811-8.811 0-4.862 3.948-8.81 8.811-8.81Zm0 4.005a4.807 4.807 0 0 0-4.806 4.805 4.808 4.808 0 0 0 4.806 4.806 4.807 4.807 0 0 0 4.805-4.806 4.807 4.807 0 0 0-4.805-4.805Z" style="fill:#768293" transform="translate(-237.57 105.167) scale(.52022)"/><path d="M821.314 133.734c4.862 0 8.81 3.948 8.81 8.81 0 4.863-3.948 8.811-8.81 8.811-4.863 0-8.811-3.948-8.811-8.811 0-4.862 3.948-8.81 8.811-8.81Zm0 4.005a4.807 4.807 0 0 0-4.806 4.805 4.808 4.808 0 0 0 4.806 4.806 4.807 4.807 0 0 0 4.805-4.806 4.807 4.807 0 0 0-4.805-4.805Z" style="fill:#768293" transform="translate(-271.02 134.625) scale(.52022)"/><path d="M821.314 133.734c4.862 0 8.81 3.948 8.81 8.81 0 4.863-3.948 8.811-8.81 8.811-4.863 0-8.811-3.948-8.811-8.811 0-4.862 3.948-8.81 8.811-8.81Zm0 4.005a4.807 4.807 0 0 0-4.806 4.805 4.808 4.808 0 0 0 4.806 4.806 4.807 4.807 0 0 0 4.805-4.806 4.807 4.807 0 0 0-4.805-4.805Z" style="fill:#768293" transform="translate(-292.443 174.27) scale(.52022)"/><path d="M821.314 133.734c4.862 0 8.81 3.948 8.81 8.81 0 4.863-3.948 8.811-8.81 8.811-4.863 0-8.811-3.948-8.811-8.811 0-4.862 3.948-8.81 8.811-8.81Zm0 4.005a4.807 4.807 0 0 0-4.806 4.805 4.808 4.808 0 0 0 4.806 4.806 4.807 4.807 0 0 0 4.805-4.806 4.807 4.807 0 0 0-4.805-4.805Z" style="fill:#768293" transform="translate(-298.229 218.803) scale(.52022)"/></svg>