<?xml version="1.0" encoding="UTF-8" standalone="no"?>
<!DOCTYPE svg PUBLIC "-//W3C//DTD SVG 1.1//EN" "http://www.w3.org/Graphics/SVG/1.1/DTD/svg11.dtd">
<svg width="100%" height="100%" viewBox="0 0 513 513" version="1.1" xmlns="http://www.w3.org/2000/svg" xmlns:xlink="http://www.w3.org/1999/xlink" xml:space="preserve" xmlns:serif="http://www.serif.com/" style="fill-rule:evenodd;clip-rule:evenodd;stroke-miterlimit:10;">
    <g transform="matrix(1,0,0,1,-1285,-1225)">
        <g id="self-study" transform="matrix(1,0,0,1,1285.7,1225.21)">
            <rect x="0" y="0" width="512" height="512" style="fill:none;"/>
            <g transform="matrix(1.04912,0,0,1.04912,-58.866,11.4297)">
                <g>
                    <path d="M85.883,313.802C83.417,313.193 81.327,311.709 79.886,309.614L79.85,309.556C79.209,308.531 78.691,307.38 78.307,306.098L78.265,305.957L78.236,305.813C78.098,305.122 77.975,304.429 77.975,303.6C77.975,302.909 78.098,302.078 78.244,301.347L78.253,301.307C78.943,298.272 80.622,295.943 82.866,294.4L82.902,294.376C85.073,292.972 87.583,292.463 90.132,292.877C94.163,279.549 100.563,266.904 109.164,255.844C118.286,243.987 129.738,233.953 142.71,226.352L144.29,229.048C131.664,236.446 120.516,246.211 111.636,257.756L111.633,257.759C103.258,268.528 97.031,280.844 93.111,293.824C94.947,294.737 96.4,296.164 97.45,297.844C98.873,300.12 99.426,302.825 98.861,305.528C98.722,306.213 98.476,306.774 98.201,307.461L98.153,307.581L97.429,309.03L97.35,309.156C96.642,310.288 95.807,311.151 94.662,312.01L94.648,312.02C93.07,313.177 91.102,313.879 89,314.031C88.941,314.854 88.859,316 88.859,316C88.76,317.783 88.563,319.662 88.462,321.441C88.461,325.086 88.262,328.73 88.558,332.381L88.855,336.534L89.048,337.891L89.752,343.415L89.753,343.427C89.847,344.272 90.038,345.116 90.231,345.988L90.736,348.715C90.736,348.715 91.231,351.386 91.236,351.409C91.433,352.282 91.722,353.155 91.918,354.028L93.296,359.244L95.092,364.435L95.105,364.482C95.588,366.219 96.366,367.856 97.041,369.497L98.152,372.121L98.163,372.151C98.444,372.902 98.82,373.746 99.195,374.496L101.732,379.469L101.763,379.551C102.029,380.26 102.482,380.963 102.938,381.692L105.775,386.556L105.798,386.601C106.172,387.35 106.74,388.001 107.21,388.747L108.239,390.274C108.856,389.998 109.489,389.79 110.122,389.649C111.35,389.377 112.715,389.258 113.943,389.394C116.675,389.685 119.114,390.99 120.871,393.186L120.9,393.225C121.691,394.28 122.33,395.347 122.746,396.457L122.765,396.512C123.203,397.827 123.349,399.142 123.216,400.447C123.056,403.105 121.933,405.624 119.832,407.585C117.681,409.592 114.96,410.464 112.162,410.317L112.089,410.309C110.798,410.18 109.63,409.818 108.339,409.301L108.156,409.228L107.982,409.132C106.742,408.443 105.528,407.585 104.569,406.364C102.619,403.983 101.814,401.038 102.091,398.38C102.232,396.982 102.645,395.721 103.205,394.602L103.384,394.244L103.648,393.942C104.294,393.204 104.886,392.546 105.599,391.949L104.589,390.451L104.575,390.428C104.058,389.601 103.448,388.87 103.027,388.048L101.65,385.687C101.65,385.687 100.272,383.325 100.267,383.316C99.731,382.457 99.204,381.593 98.871,380.736L96.405,375.904L96.402,375.899C95.984,375.061 95.566,374.121 95.249,373.281L94.158,370.702L94.155,370.695C93.438,368.953 92.626,367.209 92.108,365.367L90.304,360.156L88.881,354.769L88.875,354.739C88.675,353.839 88.375,352.939 88.169,352.012L87.664,349.285C87.664,349.285 87.171,346.622 87.17,346.617C86.96,345.673 86.754,344.73 86.649,343.786L85.952,338.309L85.745,336.866L85.641,335.411L85.442,332.618C85.139,328.879 85.337,325.139 85.337,321.4L85.337,321.357L85.34,321.313C85.44,319.513 85.64,317.613 85.741,315.801L85.883,313.802ZM108.2,393.9C107.3,394.5 106.7,395.2 106,396C105.6,396.8 105.3,397.7 105.2,398.7C105,400.6 105.6,402.7 107,404.4C107.7,405.3 108.6,405.9 109.5,406.4C110.5,406.8 111.4,407.1 112.4,407.2C114.3,407.3 116.2,406.7 117.7,405.3C119.2,403.9 120,402.1 120.1,400.2C120.2,399.3 120.1,398.4 119.8,397.5C119.5,396.7 119,395.9 118.4,395.1C117.2,393.6 115.5,392.7 113.6,392.5C112.7,392.4 111.7,392.5 110.8,392.7C109.9,392.9 109,393.3 108.2,393.9ZM90.3,296.1C88.3,295.6 86.3,295.9 84.6,297C83,298.1 81.8,299.8 81.3,302C81.2,302.5 81.1,303.1 81.1,303.6C81.1,304.2 81.2,304.7 81.3,305.2C81.6,306.2 82,307.1 82.5,307.9C83.6,309.5 85.3,310.6 87.3,310.9C89.3,311.1 91.3,310.6 92.8,309.5C93.6,308.9 94.2,308.3 94.7,307.5L95.3,306.3C95.5,305.8 95.7,305.4 95.8,304.9C96.2,303 95.8,301.1 94.8,299.5C93.8,297.9 92.3,296.6 90.3,296.1Z" style="fill:rgb(215,117,38);"/>
                </g>
                <g>
                    <path d="M119.7,224.9L139.8,230L131.4,249L167,216.7L119.7,224.9Z" style="fill:rgb(215,117,38);fill-rule:nonzero;"/>
                    <path d="M127.2,225.5L162.4,219L142,228.9L127.2,225.5Z" style="fill:white;fill-rule:nonzero;"/>
                </g>
            </g>
            <g transform="matrix(1.04912,0,0,1.04912,-58.866,11.4297)">
                <path d="M169.371,440.296C157.565,436.438 146.405,430.764 136.372,423.357L138.228,420.843C148.001,428.059 158.875,433.582 170.377,437.337C171.852,435.081 174.688,433.898 177.559,434.695L177.582,434.702C180.282,435.496 182.14,437.89 182.296,440.541C193.069,442.812 204.155,443.413 215.141,442.466C215.589,439.798 217.725,437.694 220.586,437.218C223.454,436.74 226.187,438.222 227.407,440.696C238.484,438.409 249.233,434.499 259.201,429.095C258.603,426.482 259.738,423.752 262.128,422.159L262.192,422.12C264.455,420.763 267.399,420.983 269.429,422.482C274.722,418.211 287.419,407.619 293.614,400.152C292.056,397.993 291.936,395.012 293.5,392.667C295.469,389.713 299.608,388.985 302.374,390.927C305.296,392.908 305.978,397.006 303.82,399.948L304.062,399.562L303.248,400.74L302.214,401.667L301.039,402.312L299.788,402.676L298.51,402.771L297.239,402.601L296.009,402.166L296.005,402.163C289.65,409.793 276.754,420.584 271.38,424.923C272.658,427.688 271.753,431.062 268.914,433.014L268.856,433.05C266.127,434.756 262.65,434.061 260.643,431.869C250.427,437.4 239.415,441.405 228.066,443.751C227.964,446.732 225.73,449.275 222.487,449.787C219.274,450.294 216.296,448.373 215.368,445.583C204.101,446.55 192.732,445.931 181.683,443.606C180.407,446.236 177.343,447.89 174.13,446.902C171.08,446.038 169.165,443.203 169.371,440.296ZM172.504,440.356C172.301,441.91 173.36,443.445 175,443.9C176.9,444.5 178.7,443.3 179.1,441.6C179.5,439.9 178.4,438.2 176.7,437.7C175.077,437.249 173.454,438.018 172.784,439.42L172.504,440.356ZM296.8,399C298.2,400.1 300.4,399.8 301.3,398.1C302.4,396.6 302.1,394.5 300.6,393.5C299.2,392.5 297.1,392.9 296.1,394.4C295.1,395.9 295.4,397.9 296.8,399ZM262.6,429.3C263.5,430.8 265.6,431.4 267.2,430.4C268.8,429.3 269.3,427.3 268.3,425.8C267.4,424.3 265.3,423.9 263.8,424.8C262.3,425.8 261.7,427.7 262.6,429.3ZM218.2,443.9C218.3,445.7 220.1,447 222,446.7C223.9,446.4 225.2,444.8 224.9,443C224.6,441.2 222.9,440 221.1,440.3C219.3,440.6 218,442.1 218.2,443.9Z" style="fill:rgb(118,130,147);"/>
                <g>
                    <path d="M142.6,438.7L139.9,423.8L155,423.7L122.9,409.8L142.6,438.7Z" style="fill:rgb(118,130,147);fill-rule:nonzero;"/>
                    <path d="M140.7,433.5L125.7,412.2L138.5,422.7L140.7,433.5Z" style="fill:white;fill-rule:nonzero;"/>
                </g>
            </g>
            <g transform="matrix(-1,0,0,1,507.517,108.466)">
                <g transform="matrix(1,0,0,1,-7.14087,-2.31131)">
                    <path d="M87.318,123.091C85.236,124.318 82.423,124.069 80.527,122.173C78.285,119.932 78.345,116.408 80.427,114.327C82.508,112.245 86.032,112.185 88.273,114.427C90.175,116.329 90.457,119.444 88.858,121.685L115.402,148.229C117.513,146.653 120.629,146.783 122.7,148.854L122.727,148.882C124.611,150.912 124.816,154.001 123.27,156.096L150.502,183.329C152.613,181.752 155.727,181.881 157.773,183.927C159.811,185.965 159.947,189.063 158.389,191.173L184.927,217.711C187.037,216.153 190.135,216.289 192.173,218.327C194.203,220.357 194.443,223.432 192.828,225.554L221.237,253.963L219.763,255.437L191.28,226.953C189.192,228.223 186.342,227.988 184.427,226.073C182.501,224.147 182.274,221.275 183.568,219.185L156.915,192.532C154.825,193.826 151.953,193.599 150.027,191.673C148.131,189.777 147.882,186.964 149.109,184.882L121.718,157.491C119.636,158.718 116.823,158.469 114.927,156.573C113.031,154.677 112.782,151.864 114.009,149.782L87.318,123.091ZM121.3,155.2C122.6,153.9 122.5,151.7 121.2,150.3C119.8,148.9 117.6,148.9 116.3,150.2C115,151.5 115,153.7 116.4,155.1C117.8,156.5 120,156.5 121.3,155.2ZM86.9,120.8C88.2,119.4 88.1,117.2 86.8,115.9C85.4,114.5 83.2,114.5 81.9,115.8C80.6,117.1 80.6,119.3 82,120.7C83.4,122.1 85.6,122.1 86.9,120.8ZM156.4,190.3C157.7,189 157.7,186.8 156.3,185.4C154.9,184 152.7,184 151.4,185.3C150.1,186.6 150.1,188.8 151.5,190.2C152.9,191.6 155.1,191.6 156.4,190.3ZM190.8,224.7C192.2,223.4 192.1,221.2 190.7,219.8C189.3,218.4 187.1,218.4 185.8,219.7C184.5,221 184.5,223.2 185.9,224.6C187.3,226 189.5,226 190.8,224.7Z" style="fill:rgb(64,71,81);"/>
                </g>
                <g transform="matrix(1,0,0,1,6.89264,-41.5181)">
                    <path d="M87.318,123.091C85.236,124.318 82.423,124.069 80.527,122.173C78.285,119.932 78.345,116.408 80.427,114.327C82.508,112.245 86.032,112.185 88.273,114.427C90.175,116.329 90.457,119.444 88.858,121.685L115.402,148.229C117.513,146.653 120.629,146.783 122.7,148.854L122.727,148.882C124.611,150.912 124.816,154.001 123.27,156.096L150.502,183.329C152.613,181.752 155.727,181.881 157.773,183.927C159.811,185.965 159.947,189.063 158.389,191.173L184.927,217.711C187.037,216.153 190.135,216.289 192.173,218.327C194.203,220.357 194.443,223.432 192.828,225.554L221.237,253.963L219.763,255.437L191.28,226.953C189.192,228.223 186.342,227.988 184.427,226.073C182.501,224.147 182.274,221.275 183.568,219.185L156.915,192.532C154.825,193.826 151.953,193.599 150.027,191.673C148.131,189.777 147.882,186.964 149.109,184.882L121.718,157.491C119.636,158.718 116.823,158.469 114.927,156.573C113.031,154.677 112.782,151.864 114.009,149.782L87.318,123.091ZM121.3,155.2C122.6,153.9 122.5,151.7 121.2,150.3C119.8,148.9 117.6,148.9 116.3,150.2C115,151.5 115,153.7 116.4,155.1C117.8,156.5 120,156.5 121.3,155.2ZM86.9,120.8C88.2,119.4 88.1,117.2 86.8,115.9C85.4,114.5 83.2,114.5 81.9,115.8C80.6,117.1 80.6,119.3 82,120.7C83.4,122.1 85.6,122.1 86.9,120.8ZM156.4,190.3C157.7,189 157.7,186.8 156.3,185.4C154.9,184 152.7,184 151.4,185.3C150.1,186.6 150.1,188.8 151.5,190.2C152.9,191.6 155.1,191.6 156.4,190.3ZM190.8,224.7C192.2,223.4 192.1,221.2 190.7,219.8C189.3,218.4 187.1,218.4 185.8,219.7C184.5,221 184.5,223.2 185.9,224.6C187.3,226 189.5,226 190.8,224.7Z" style="fill:rgb(64,71,81);"/>
                </g>
                <g transform="matrix(0.695894,0,0,0.695894,-413.712,-853.976)">
                    <path d="M680.782,1334.84C679.106,1336.05 677.048,1336.77 674.823,1336.77C669.205,1336.77 664.644,1332.21 664.644,1326.59C664.644,1320.97 669.205,1316.41 674.823,1316.41C680.441,1316.41 685.002,1320.97 685.002,1326.59C685.002,1328.94 684.205,1331.1 682.866,1332.83L736.864,1386.82C738.551,1385.58 740.635,1384.85 742.89,1384.85C748.508,1384.85 753.069,1389.41 753.069,1395.03C753.069,1397.28 752.337,1399.36 751.099,1401.04L803.02,1452.96C804.706,1451.72 806.786,1450.99 809.036,1450.99C814.654,1450.99 819.214,1455.55 819.214,1461.17C819.214,1463.42 818.484,1465.5 817.247,1467.18L869.767,1519.71C871.452,1518.47 873.532,1517.74 875.781,1517.74C881.399,1517.74 885.959,1522.3 885.959,1527.92C885.959,1530.22 885.193,1532.35 883.902,1534.05L935.141,1585.29C936.847,1584 938.973,1583.23 941.275,1583.23C946.893,1583.23 951.454,1587.79 951.454,1593.41C951.454,1595.68 950.708,1597.78 949.447,1599.48L1002.32,1652.21C1004,1650.99 1006.07,1650.26 1008.31,1650.26C1013.92,1650.26 1018.49,1654.82 1018.49,1660.44C1018.49,1662.68 1017.76,1664.75 1016.54,1666.43L1071.64,1721.54L1069.53,1723.65L1014.44,1668.57C1012.73,1669.86 1010.61,1670.62 1008.31,1670.62C1002.69,1670.62 998.128,1666.06 998.128,1660.44C998.128,1658.14 998.892,1656.02 1000.18,1654.31L947.328,1601.59C945.636,1602.85 943.542,1603.59 941.275,1603.59C935.658,1603.59 931.097,1599.03 931.097,1593.41C931.097,1591.12 931.857,1589 933.139,1587.3L881.895,1536.05C880.192,1537.34 878.075,1538.1 875.781,1538.1C870.163,1538.1 865.602,1533.53 865.602,1527.92C865.602,1525.6 866.375,1523.47 867.678,1521.76L815.194,1469.28C813.484,1470.58 811.349,1471.35 809.036,1471.35C803.418,1471.35 798.857,1466.79 798.857,1461.17C798.857,1458.86 799.631,1456.72 800.934,1455.01L749.05,1403.13C747.339,1404.43 745.204,1405.2 742.89,1405.2C737.272,1405.2 732.711,1400.64 732.711,1395.03C732.711,1392.71 733.488,1390.57 734.796,1388.86L680.782,1334.84ZM1002.56,1656.13C1001.66,1657.33 1001.12,1658.83 1001.12,1660.44C1001.12,1664.41 1004.34,1667.63 1008.31,1667.63C1012.27,1667.63 1015.49,1664.41 1015.49,1660.44C1015.49,1656.48 1012.27,1653.26 1008.31,1653.26C1006.68,1653.26 1005.18,1653.8 1003.98,1654.71L1002.56,1656.13ZM674.823,1319.4C670.858,1319.4 667.638,1322.62 667.638,1326.59C667.638,1330.56 670.858,1333.78 674.823,1333.78C678.789,1333.78 682.008,1330.56 682.008,1326.59C682.008,1322.62 678.789,1319.4 674.823,1319.4ZM809.036,1453.99C805.07,1453.99 801.851,1457.21 801.851,1461.17C801.851,1465.14 805.07,1468.36 809.036,1468.36C813.001,1468.36 816.221,1465.14 816.221,1461.17C816.221,1457.21 813.001,1453.99 809.036,1453.99ZM875.781,1520.73C871.815,1520.73 868.596,1523.95 868.596,1527.92C868.596,1531.88 871.815,1535.1 875.781,1535.1C879.746,1535.1 882.966,1531.88 882.966,1527.92C882.966,1523.95 879.746,1520.73 875.781,1520.73ZM742.89,1387.84C738.924,1387.84 735.705,1391.06 735.705,1395.03C735.705,1398.99 738.924,1402.21 742.89,1402.21C746.855,1402.21 750.075,1398.99 750.075,1395.03C750.075,1391.06 746.855,1387.84 742.89,1387.84ZM941.275,1586.23C937.31,1586.23 934.09,1589.45 934.09,1593.41C934.09,1597.38 937.31,1600.6 941.275,1600.6C945.241,1600.6 948.46,1597.38 948.46,1593.41C948.46,1589.45 945.241,1586.23 941.275,1586.23Z" style="fill:rgb(119,131,148);"/>
                </g>
                <g transform="matrix(0.695894,0,0,0.695894,-356.315,-847.276)">
                    <path d="M680.782,1334.84C679.106,1336.05 677.048,1336.77 674.823,1336.77C669.205,1336.77 664.644,1332.21 664.644,1326.59C664.644,1320.97 669.205,1316.41 674.823,1316.41C680.441,1316.41 685.002,1320.97 685.002,1326.59C685.002,1328.94 684.205,1331.1 682.866,1332.83L736.864,1386.82C738.551,1385.58 740.635,1384.85 742.89,1384.85C748.508,1384.85 753.069,1389.41 753.069,1395.03C753.069,1397.28 752.337,1399.36 751.099,1401.04L803.02,1452.96C804.706,1451.72 806.786,1450.99 809.036,1450.99C814.654,1450.99 819.214,1455.55 819.214,1461.17C819.214,1463.42 818.484,1465.5 817.247,1467.18L869.767,1519.71C871.452,1518.47 873.532,1517.74 875.781,1517.74C881.399,1517.74 885.959,1522.3 885.959,1527.92C885.959,1530.22 885.193,1532.35 883.902,1534.05L935.141,1585.29C936.847,1584 938.973,1583.23 941.275,1583.23C946.893,1583.23 951.454,1587.79 951.454,1593.41C951.454,1595.68 950.708,1597.78 949.447,1599.48L1002.32,1652.21C1004,1650.99 1006.07,1650.26 1008.31,1650.26C1013.92,1650.26 1018.49,1654.82 1018.49,1660.44C1018.49,1662.68 1017.76,1664.75 1016.54,1666.43L1071.64,1721.54L1069.53,1723.65L1014.44,1668.57C1012.73,1669.86 1010.61,1670.62 1008.31,1670.62C1002.69,1670.62 998.128,1666.06 998.128,1660.44C998.128,1658.14 998.892,1656.02 1000.18,1654.31L947.328,1601.59C945.636,1602.85 943.542,1603.59 941.275,1603.59C935.658,1603.59 931.097,1599.03 931.097,1593.41C931.097,1591.12 931.857,1589 933.139,1587.3L881.895,1536.05C880.192,1537.34 878.075,1538.1 875.781,1538.1C870.163,1538.1 865.602,1533.53 865.602,1527.92C865.602,1525.6 866.375,1523.47 867.678,1521.76L815.194,1469.28C813.484,1470.58 811.349,1471.35 809.036,1471.35C803.418,1471.35 798.857,1466.79 798.857,1461.17C798.857,1458.86 799.631,1456.72 800.934,1455.01L749.05,1403.13C747.339,1404.43 745.204,1405.2 742.89,1405.2C737.272,1405.2 732.711,1400.64 732.711,1395.03C732.711,1392.71 733.488,1390.57 734.796,1388.86L680.782,1334.84ZM1002.56,1656.13C1001.66,1657.33 1001.12,1658.83 1001.12,1660.44C1001.12,1664.41 1004.34,1667.63 1008.31,1667.63C1012.27,1667.63 1015.49,1664.41 1015.49,1660.44C1015.49,1656.48 1012.27,1653.26 1008.31,1653.26C1006.68,1653.26 1005.18,1653.8 1003.98,1654.71L1002.56,1656.13ZM674.823,1319.4C670.858,1319.4 667.638,1322.62 667.638,1326.59C667.638,1330.56 670.858,1333.78 674.823,1333.78C678.789,1333.78 682.008,1330.56 682.008,1326.59C682.008,1322.62 678.789,1319.4 674.823,1319.4ZM809.036,1453.99C805.07,1453.99 801.851,1457.21 801.851,1461.17C801.851,1465.14 805.07,1468.36 809.036,1468.36C813.001,1468.36 816.221,1465.14 816.221,1461.17C816.221,1457.21 813.001,1453.99 809.036,1453.99ZM875.781,1520.73C871.815,1520.73 868.596,1523.95 868.596,1527.92C868.596,1531.88 871.815,1535.1 875.781,1535.1C879.746,1535.1 882.966,1531.88 882.966,1527.92C882.966,1523.95 879.746,1520.73 875.781,1520.73ZM742.89,1387.84C738.924,1387.84 735.705,1391.06 735.705,1395.03C735.705,1398.99 738.924,1402.21 742.89,1402.21C746.855,1402.21 750.075,1398.99 750.075,1395.03C750.075,1391.06 746.855,1387.84 742.89,1387.84ZM941.275,1586.23C937.31,1586.23 934.09,1589.45 934.09,1593.41C934.09,1597.38 937.31,1600.6 941.275,1600.6C945.241,1600.6 948.46,1597.38 948.46,1593.41C948.46,1589.45 945.241,1586.23 941.275,1586.23Z" style="fill:rgb(119,131,148);"/>
                </g>
            </g>
            <g transform="matrix(1.04912,0,0,1.04912,53.061,-19.2955)">
                <g>
                    <g>
                        <g>
                            <path d="M113.2,40.3C111.9,40.3 110.8,39.3 110.8,38.1C110.8,36.9 111.9,35.9 113.2,35.9C114.5,35.9 115.6,36.9 115.6,38.1C115.6,39.4 114.5,40.3 113.2,40.3Z" style="fill:none;fill-rule:nonzero;stroke:rgb(64,72,81);stroke-width:0.8px;"/>
                            <path d="M113.2,70.4C111.9,70.4 110.8,69.4 110.8,68.2C110.8,67 111.9,66 113.2,66C114.5,66 115.6,67 115.6,68.2C115.6,69.4 114.5,70.4 113.2,70.4Z" style="fill:none;fill-rule:nonzero;stroke:rgb(64,72,81);stroke-width:0.8px;"/>
                            <path d="M113,40.1L113,66.1" style="fill:none;fill-rule:nonzero;stroke:rgb(64,72,81);stroke-width:0.8px;"/>
                            <path d="M113,70.4L113,96.4" style="fill:none;fill-rule:nonzero;stroke:rgb(64,72,81);stroke-width:0.8px;"/>
                        </g>
                        <g>
                            <path d="M113.2,101.1C111.9,101.1 110.8,100.1 110.8,98.9C110.8,97.7 111.9,96.7 113.2,96.7C114.5,96.7 115.6,97.7 115.6,98.9C115.6,100.1 114.5,101.1 113.2,101.1Z" style="fill:none;fill-rule:nonzero;stroke:rgb(64,72,81);stroke-width:0.8px;"/>
                            <path d="M113.2,131.1C111.9,131.1 110.8,130.1 110.8,128.9C110.8,127.7 111.9,126.7 113.2,126.7C114.5,126.7 115.6,127.7 115.6,128.9C115.6,130.1 114.5,131.1 113.2,131.1Z" style="fill:none;fill-rule:nonzero;stroke:rgb(64,72,81);stroke-width:0.8px;"/>
                            <path d="M113,100.9L113,126.9" style="fill:none;fill-rule:nonzero;stroke:rgb(64,72,81);stroke-width:0.8px;"/>
                            <path d="M113,131.1L113,157.1" style="fill:none;fill-rule:nonzero;stroke:rgb(64,72,81);stroke-width:0.8px;"/>
                        </g>
                        <g>
                            <path d="M113.2,161.8C111.9,161.8 110.8,160.8 110.8,159.6C110.8,158.4 111.9,157.4 113.2,157.4C114.5,157.4 115.6,158.4 115.6,159.6C115.6,160.9 114.5,161.8 113.2,161.8Z" style="fill:none;fill-rule:nonzero;stroke:rgb(64,72,81);stroke-width:0.8px;"/>
                            <path d="M113.2,191.8C111.9,191.8 110.8,190.8 110.8,189.6C110.8,188.4 111.9,187.4 113.2,187.4C114.5,187.4 115.6,188.4 115.6,189.6C115.6,190.9 114.5,191.8 113.2,191.8Z" style="fill:none;fill-rule:nonzero;stroke:rgb(64,72,81);stroke-width:0.8px;"/>
                            <path d="M113,161.6L113,187.6" style="fill:none;fill-rule:nonzero;stroke:rgb(64,72,81);stroke-width:0.8px;"/>
                            <path d="M113,191.9L113,217.8" style="fill:none;fill-rule:nonzero;stroke:rgb(64,72,81);stroke-width:0.8px;"/>
                        </g>
                    </g>
                </g>
                <g>
                    <g>
                        <g>
                            <path d="M104.5,70.1C103.2,70.1 102.1,69.1 102.1,67.9C102.1,66.7 103.2,65.7 104.5,65.7C105.8,65.7 106.9,66.7 106.9,67.9C106.9,69.1 105.8,70.1 104.5,70.1Z" style="fill:none;fill-rule:nonzero;stroke:rgb(64,72,81);stroke-width:0.8px;"/>
                            <path d="M104.5,100.1C103.2,100.1 102.1,99.1 102.1,97.9C102.1,96.7 103.2,95.7 104.5,95.7C105.8,95.7 106.9,96.7 106.9,97.9C106.9,99.1 105.8,100.1 104.5,100.1Z" style="fill:none;fill-rule:nonzero;stroke:rgb(64,72,81);stroke-width:0.8px;"/>
                            <path d="M104.3,69.9L104.3,95.8" style="fill:none;fill-rule:nonzero;stroke:rgb(64,72,81);stroke-width:0.8px;"/>
                            <path d="M104.3,100.1L104.3,126.1" style="fill:none;fill-rule:nonzero;stroke:rgb(64,72,81);stroke-width:0.8px;"/>
                        </g>
                        <g>
                            <path d="M104.5,130.8C103.2,130.8 102.1,129.8 102.1,128.6C102.1,127.4 103.2,126.4 104.5,126.4C105.8,126.4 106.9,127.4 106.9,128.6C106.9,129.9 105.8,130.8 104.5,130.8Z" style="fill:none;fill-rule:nonzero;stroke:rgb(64,72,81);stroke-width:0.8px;"/>
                            <path d="M104.5,160.8C103.2,160.8 102.1,159.8 102.1,158.6C102.1,157.4 103.2,156.4 104.5,156.4C105.8,156.4 106.9,157.4 106.9,158.6C106.9,159.9 105.8,160.8 104.5,160.8Z" style="fill:none;fill-rule:nonzero;stroke:rgb(64,72,81);stroke-width:0.8px;"/>
                            <path d="M104.3,130.6L104.3,156.6" style="fill:none;fill-rule:nonzero;stroke:rgb(64,72,81);stroke-width:0.8px;"/>
                            <path d="M104.3,160.9L104.3,186.8" style="fill:none;fill-rule:nonzero;stroke:rgb(64,72,81);stroke-width:0.8px;"/>
                        </g>
                        <g>
                            <path d="M104.5,191.6C103.2,191.6 102.1,190.6 102.1,189.4C102.1,188.2 103.2,187.2 104.5,187.2C105.8,187.2 106.9,188.2 106.9,189.4C106.9,190.6 105.8,191.6 104.5,191.6Z" style="fill:none;fill-rule:nonzero;stroke:rgb(64,72,81);stroke-width:0.8px;"/>
                            <path d="M104.5,221.6C103.2,221.6 102.1,220.6 102.1,219.4C102.1,218.2 103.2,217.2 104.5,217.2C105.8,217.2 106.9,218.2 106.9,219.4C106.9,220.6 105.8,221.6 104.5,221.6Z" style="fill:none;fill-rule:nonzero;stroke:rgb(64,72,81);stroke-width:0.8px;"/>
                            <path d="M104.3,191.4L104.3,217.3" style="fill:none;fill-rule:nonzero;stroke:rgb(64,72,81);stroke-width:0.8px;"/>
                            <path d="M104.3,221.6L104.3,247.6" style="fill:none;fill-rule:nonzero;stroke:rgb(64,72,81);stroke-width:0.8px;"/>
                        </g>
                    </g>
                </g>
                <g>
                    <g>
                        <g>
                            <path d="M95.8,100.1C94.5,100.1 93.4,99.1 93.4,97.9C93.4,96.7 94.5,95.7 95.8,95.7C97.1,95.7 98.2,96.7 98.2,97.9C98.3,99.1 97.2,100.1 95.8,100.1Z" style="fill:none;fill-rule:nonzero;stroke:rgb(64,72,81);stroke-width:0.8px;"/>
                            <path d="M95.8,130.1C94.5,130.1 93.4,129.1 93.4,127.9C93.4,126.7 94.5,125.7 95.8,125.7C97.1,125.7 98.2,126.7 98.2,127.9C98.3,129.1 97.2,130.1 95.8,130.1Z" style="fill:none;fill-rule:nonzero;stroke:rgb(64,72,81);stroke-width:0.8px;"/>
                            <path d="M95.6,99.9L95.6,125.8" style="fill:none;fill-rule:nonzero;stroke:rgb(64,72,81);stroke-width:0.8px;"/>
                            <path d="M95.6,130.1L95.6,156.1" style="fill:none;fill-rule:nonzero;stroke:rgb(64,72,81);stroke-width:0.8px;"/>
                        </g>
                        <g>
                            <path d="M95.8,160.8C94.5,160.8 93.4,159.8 93.4,158.6C93.4,157.4 94.5,156.4 95.8,156.4C97.1,156.4 98.2,157.4 98.2,158.6C98.3,159.9 97.2,160.8 95.8,160.8Z" style="fill:none;fill-rule:nonzero;stroke:rgb(64,72,81);stroke-width:0.8px;"/>
                            <path d="M95.8,190.8C94.5,190.8 93.4,189.8 93.4,188.6C93.4,187.4 94.5,186.4 95.8,186.4C97.1,186.4 98.2,187.4 98.2,188.6C98.3,189.9 97.2,190.8 95.8,190.8Z" style="fill:none;fill-rule:nonzero;stroke:rgb(64,72,81);stroke-width:0.8px;"/>
                            <path d="M95.6,160.6L95.6,186.6" style="fill:none;fill-rule:nonzero;stroke:rgb(64,72,81);stroke-width:0.8px;"/>
                            <path d="M95.6,190.9L95.6,216.8" style="fill:none;fill-rule:nonzero;stroke:rgb(64,72,81);stroke-width:0.8px;"/>
                        </g>
                        <g>
                            <path d="M95.8,221.6C94.5,221.6 93.4,220.6 93.4,219.4C93.4,218.2 94.5,217.2 95.8,217.2C97.1,217.2 98.2,218.2 98.2,219.4C98.3,220.6 97.2,221.6 95.8,221.6Z" style="fill:none;fill-rule:nonzero;stroke:rgb(64,72,81);stroke-width:0.8px;"/>
                            <path d="M95.8,251.6C94.5,251.6 93.4,250.6 93.4,249.4C93.4,248.2 94.5,247.2 95.8,247.2C97.1,247.2 98.2,248.2 98.2,249.4C98.3,250.6 97.2,251.6 95.8,251.6Z" style="fill:none;fill-rule:nonzero;stroke:rgb(64,72,81);stroke-width:0.8px;"/>
                            <path d="M95.6,221.4L95.6,247.3" style="fill:none;fill-rule:nonzero;stroke:rgb(64,72,81);stroke-width:0.8px;"/>
                            <path d="M95.6,251.6L95.6,277.6" style="fill:none;fill-rule:nonzero;stroke:rgb(64,72,81);stroke-width:0.8px;"/>
                        </g>
                    </g>
                </g>
                <g>
                    <g>
                        <path d="M87.1,130.6C85.8,130.6 84.7,129.6 84.7,128.4C84.7,127.2 85.8,126.2 87.1,126.2C88.4,126.2 89.5,127.2 89.5,128.4C89.6,129.6 88.5,130.6 87.1,130.6Z" style="fill:none;fill-rule:nonzero;stroke:rgb(64,72,81);stroke-width:0.8px;"/>
                        <path d="M87.1,160.4C85.8,160.4 84.7,159.4 84.7,158.2C84.7,157 85.8,156 87.1,156C88.4,156 89.5,157 89.5,158.2C89.6,159.4 88.5,160.4 87.1,160.4Z" style="fill:none;fill-rule:nonzero;stroke:rgb(64,72,81);stroke-width:0.8px;"/>
                        <path d="M86.9,130.4L86.9,156.2" style="fill:none;fill-rule:nonzero;stroke:rgb(64,72,81);stroke-width:0.8px;"/>
                        <path d="M86.9,160.4L86.9,186.2" style="fill:none;fill-rule:nonzero;stroke:rgb(64,72,81);stroke-width:0.8px;"/>
                    </g>
                    <g>
                        <path d="M87.1,190.9C85.8,190.9 84.7,189.9 84.7,188.7C84.7,187.5 85.8,186.5 87.1,186.5C88.4,186.5 89.5,187.5 89.5,188.7C89.6,189.9 88.5,190.9 87.1,190.9Z" style="fill:none;fill-rule:nonzero;stroke:rgb(64,72,81);stroke-width:0.8px;"/>
                        <path d="M87.1,220.7C85.8,220.7 84.7,219.7 84.7,218.5C84.7,217.3 85.8,216.3 87.1,216.3C88.4,216.3 89.5,217.3 89.5,218.5C89.6,219.7 88.5,220.7 87.1,220.7Z" style="fill:none;fill-rule:nonzero;stroke:rgb(64,72,81);stroke-width:0.8px;"/>
                        <path d="M86.9,190.7L86.9,216.5" style="fill:none;fill-rule:nonzero;stroke:rgb(64,72,81);stroke-width:0.8px;"/>
                        <path d="M86.9,220.7L86.9,246.5" style="fill:none;fill-rule:nonzero;stroke:rgb(64,72,81);stroke-width:0.8px;"/>
                    </g>
                    <g>
                        <path d="M87.1,251.2C85.8,251.2 84.7,250.2 84.7,249C84.7,247.8 85.8,246.8 87.1,246.8C88.4,246.8 89.5,247.8 89.5,249C89.6,250.2 88.5,251.2 87.1,251.2Z" style="fill:none;fill-rule:nonzero;stroke:rgb(64,72,81);stroke-width:0.8px;"/>
                        <path d="M87.1,281C85.8,281 84.7,280 84.7,278.8C84.7,277.6 85.8,276.6 87.1,276.6C88.4,276.6 89.5,277.6 89.5,278.8C89.6,280 88.5,281 87.1,281Z" style="fill:none;fill-rule:nonzero;stroke:rgb(64,72,81);stroke-width:0.8px;"/>
                        <path d="M86.9,251L86.9,276.8" style="fill:none;fill-rule:nonzero;stroke:rgb(64,72,81);stroke-width:0.8px;"/>
                        <path d="M86.9,281L86.9,306.8" style="fill:none;fill-rule:nonzero;stroke:rgb(64,72,81);stroke-width:0.8px;"/>
                    </g>
                    <g>
                        <path d="M77.7,292.7L87.1,303.8L96.6,292.7L87.1,325.1L77.7,292.7Z" style="fill:rgb(64,72,81);fill-rule:nonzero;"/>
                        <path d="M80.4,297.3L87.1,321.5L87.1,305.5L80.4,297.3Z" style="fill:white;fill-rule:nonzero;"/>
                    </g>
                </g>
                <g>
                    <g>
                        <g>
                            <path d="M78.4,100.1C77.1,100.1 76,99.1 76,97.9C76,96.7 77.1,95.7 78.4,95.7C79.7,95.7 80.8,96.7 80.8,97.9C80.9,99.1 79.8,100.1 78.4,100.1Z" style="fill:none;fill-rule:nonzero;stroke:rgb(64,72,81);stroke-width:0.8px;"/>
                            <path d="M78.4,130.1C77.1,130.1 76,129.1 76,127.9C76,126.7 77.1,125.7 78.4,125.7C79.7,125.7 80.8,126.7 80.8,127.9C80.9,129.1 79.8,130.1 78.4,130.1Z" style="fill:none;fill-rule:nonzero;stroke:rgb(64,72,81);stroke-width:0.8px;"/>
                            <path d="M78.3,99.9L78.3,125.8" style="fill:none;fill-rule:nonzero;stroke:rgb(64,72,81);stroke-width:0.8px;"/>
                            <path d="M78.3,130.1L78.3,156.1" style="fill:none;fill-rule:nonzero;stroke:rgb(64,72,81);stroke-width:0.8px;"/>
                        </g>
                        <g>
                            <path d="M78.4,160.8C77.1,160.8 76,159.8 76,158.6C76,157.4 77.1,156.4 78.4,156.4C79.7,156.4 80.8,157.4 80.8,158.6C80.9,159.9 79.8,160.8 78.4,160.8Z" style="fill:none;fill-rule:nonzero;stroke:rgb(64,72,81);stroke-width:0.8px;"/>
                            <path d="M78.4,190.8C77.1,190.8 76,189.8 76,188.6C76,187.4 77.1,186.4 78.4,186.4C79.7,186.4 80.8,187.4 80.8,188.6C80.9,189.9 79.8,190.8 78.4,190.8Z" style="fill:none;fill-rule:nonzero;stroke:rgb(64,72,81);stroke-width:0.8px;"/>
                            <path d="M78.3,160.6L78.3,186.6" style="fill:none;fill-rule:nonzero;stroke:rgb(64,72,81);stroke-width:0.8px;"/>
                            <path d="M78.3,190.9L78.3,216.8" style="fill:none;fill-rule:nonzero;stroke:rgb(64,72,81);stroke-width:0.8px;"/>
                        </g>
                        <g>
                            <path d="M78.4,221.6C77.1,221.6 76,220.6 76,219.4C76,218.2 77.1,217.2 78.4,217.2C79.7,217.2 80.8,218.2 80.8,219.4C80.9,220.6 79.8,221.6 78.4,221.6Z" style="fill:none;fill-rule:nonzero;stroke:rgb(64,72,81);stroke-width:0.8px;"/>
                            <path d="M78.4,251.6C77.1,251.6 76,250.6 76,249.4C76,248.2 77.1,247.2 78.4,247.2C79.7,247.2 80.8,248.2 80.8,249.4C80.9,250.6 79.8,251.6 78.4,251.6Z" style="fill:none;fill-rule:nonzero;stroke:rgb(64,72,81);stroke-width:0.8px;"/>
                            <path d="M78.3,221.4L78.3,247.3" style="fill:none;fill-rule:nonzero;stroke:rgb(64,72,81);stroke-width:0.8px;"/>
                            <path d="M78.3,251.6L78.3,277.6" style="fill:none;fill-rule:nonzero;stroke:rgb(64,72,81);stroke-width:0.8px;"/>
                        </g>
                    </g>
                </g>
                <g>
                    <g>
                        <g>
                            <path d="M69.8,70.1C68.5,70.1 67.4,69.1 67.4,67.9C67.4,66.7 68.5,65.7 69.8,65.7C71.1,65.7 72.2,66.7 72.2,67.9C72.2,69.1 71.1,70.1 69.8,70.1Z" style="fill:none;fill-rule:nonzero;stroke:rgb(64,72,81);stroke-width:0.8px;"/>
                            <path d="M69.8,100.1C68.5,100.1 67.4,99.1 67.4,97.9C67.4,96.7 68.5,95.7 69.8,95.7C71.1,95.7 72.2,96.7 72.2,97.9C72.2,99.1 71.1,100.1 69.8,100.1Z" style="fill:none;fill-rule:nonzero;stroke:rgb(64,72,81);stroke-width:0.8px;"/>
                            <path d="M69.6,69.9L69.6,95.8" style="fill:none;fill-rule:nonzero;stroke:rgb(64,72,81);stroke-width:0.8px;"/>
                            <path d="M69.6,100.1L69.6,126.1" style="fill:none;fill-rule:nonzero;stroke:rgb(64,72,81);stroke-width:0.8px;"/>
                        </g>
                        <g>
                            <path d="M69.8,130.8C68.5,130.8 67.4,129.8 67.4,128.6C67.4,127.4 68.5,126.4 69.8,126.4C71.1,126.4 72.2,127.4 72.2,128.6C72.2,129.9 71.1,130.8 69.8,130.8Z" style="fill:none;fill-rule:nonzero;stroke:rgb(64,72,81);stroke-width:0.8px;"/>
                            <path d="M69.8,160.8C68.5,160.8 67.4,159.8 67.4,158.6C67.4,157.4 68.5,156.4 69.8,156.4C71.1,156.4 72.2,157.4 72.2,158.6C72.2,159.9 71.1,160.8 69.8,160.8Z" style="fill:none;fill-rule:nonzero;stroke:rgb(64,72,81);stroke-width:0.8px;"/>
                            <path d="M69.6,130.6L69.6,156.6" style="fill:none;fill-rule:nonzero;stroke:rgb(64,72,81);stroke-width:0.8px;"/>
                            <path d="M69.6,160.9L69.6,186.8" style="fill:none;fill-rule:nonzero;stroke:rgb(64,72,81);stroke-width:0.8px;"/>
                        </g>
                        <g>
                            <path d="M69.8,191.6C68.5,191.6 67.4,190.6 67.4,189.4C67.4,188.2 68.5,187.2 69.8,187.2C71.1,187.2 72.2,188.2 72.2,189.4C72.2,190.6 71.1,191.6 69.8,191.6Z" style="fill:none;fill-rule:nonzero;stroke:rgb(64,72,81);stroke-width:0.8px;"/>
                            <path d="M69.8,221.6C68.5,221.6 67.4,220.6 67.4,219.4C67.4,218.2 68.5,217.2 69.8,217.2C71.1,217.2 72.2,218.2 72.2,219.4C72.2,220.6 71.1,221.6 69.8,221.6Z" style="fill:none;fill-rule:nonzero;stroke:rgb(64,72,81);stroke-width:0.8px;"/>
                            <path d="M69.6,191.4L69.6,217.3" style="fill:none;fill-rule:nonzero;stroke:rgb(64,72,81);stroke-width:0.8px;"/>
                            <path d="M69.6,221.6L69.6,247.6" style="fill:none;fill-rule:nonzero;stroke:rgb(64,72,81);stroke-width:0.8px;"/>
                        </g>
                    </g>
                </g>
                <g>
                    <g>
                        <g>
                            <path d="M61.1,40.3C59.8,40.3 58.7,39.3 58.7,38.1C58.7,36.9 59.8,35.9 61.1,35.9C62.4,35.9 63.5,36.9 63.5,38.1C63.5,39.4 62.4,40.3 61.1,40.3Z" style="fill:none;fill-rule:nonzero;stroke:rgb(64,72,81);stroke-width:0.8px;"/>
                            <path d="M61.1,70.4C59.8,70.4 58.7,69.4 58.7,68.2C58.7,67 59.8,66 61.1,66C62.4,66 63.5,67 63.5,68.2C63.5,69.4 62.4,70.4 61.1,70.4Z" style="fill:none;fill-rule:nonzero;stroke:rgb(64,72,81);stroke-width:0.8px;"/>
                            <path d="M60.9,40.1L60.9,66.1" style="fill:none;fill-rule:nonzero;stroke:rgb(64,72,81);stroke-width:0.8px;"/>
                            <path d="M60.9,70.4L60.9,96.4" style="fill:none;fill-rule:nonzero;stroke:rgb(64,72,81);stroke-width:0.8px;"/>
                        </g>
                        <g>
                            <path d="M61.1,101.1C59.8,101.1 58.7,100.1 58.7,98.9C58.7,97.7 59.8,96.7 61.1,96.7C62.4,96.7 63.5,97.7 63.5,98.9C63.5,100.1 62.4,101.1 61.1,101.1Z" style="fill:none;fill-rule:nonzero;stroke:rgb(64,72,81);stroke-width:0.8px;"/>
                            <path d="M61.1,131.1C59.8,131.1 58.7,130.1 58.7,128.9C58.7,127.7 59.8,126.7 61.1,126.7C62.4,126.7 63.5,127.7 63.5,128.9C63.5,130.1 62.4,131.1 61.1,131.1Z" style="fill:none;fill-rule:nonzero;stroke:rgb(64,72,81);stroke-width:0.8px;"/>
                            <path d="M60.9,100.9L60.9,126.9" style="fill:none;fill-rule:nonzero;stroke:rgb(64,72,81);stroke-width:0.8px;"/>
                            <path d="M60.9,131.1L60.9,157.1" style="fill:none;fill-rule:nonzero;stroke:rgb(64,72,81);stroke-width:0.8px;"/>
                        </g>
                        <g>
                            <path d="M61.1,161.8C59.8,161.8 58.7,160.8 58.7,159.6C58.7,158.4 59.8,157.4 61.1,157.4C62.4,157.4 63.5,158.4 63.5,159.6C63.5,160.9 62.4,161.8 61.1,161.8Z" style="fill:none;fill-rule:nonzero;stroke:rgb(64,72,81);stroke-width:0.8px;"/>
                            <path d="M61.1,191.8C59.8,191.8 58.7,190.8 58.7,189.6C58.7,188.4 59.8,187.4 61.1,187.4C62.4,187.4 63.5,188.4 63.5,189.6C63.5,190.9 62.4,191.8 61.1,191.8Z" style="fill:none;fill-rule:nonzero;stroke:rgb(64,72,81);stroke-width:0.8px;"/>
                            <path d="M60.9,161.6L60.9,187.6" style="fill:none;fill-rule:nonzero;stroke:rgb(64,72,81);stroke-width:0.8px;"/>
                            <path d="M60.9,191.9L60.9,217.8" style="fill:none;fill-rule:nonzero;stroke:rgb(64,72,81);stroke-width:0.8px;"/>
                        </g>
                    </g>
                </g>
            </g>
            <g transform="matrix(4.68798e-17,-0.765605,0.765605,4.68798e-17,238.367,464.973)">
                <g>
                    <g>
                        <g>
                            <path d="M113.2,40.3C111.9,40.3 110.8,39.3 110.8,38.1C110.8,36.9 111.9,35.9 113.2,35.9C114.5,35.9 115.6,36.9 115.6,38.1C115.6,39.4 114.5,40.3 113.2,40.3Z" style="fill:none;fill-rule:nonzero;stroke:rgb(64,72,81);stroke-width:0.8px;"/>
                            <path d="M113.2,70.4C111.9,70.4 110.8,69.4 110.8,68.2C110.8,67 111.9,66 113.2,66C114.5,66 115.6,67 115.6,68.2C115.6,69.4 114.5,70.4 113.2,70.4Z" style="fill:none;fill-rule:nonzero;stroke:rgb(64,72,81);stroke-width:0.8px;"/>
                            <path d="M113,40.1L113,66.1" style="fill:none;fill-rule:nonzero;stroke:rgb(64,72,81);stroke-width:0.8px;"/>
                            <path d="M113,70.4L113,96.4" style="fill:none;fill-rule:nonzero;stroke:rgb(64,72,81);stroke-width:0.8px;"/>
                        </g>
                        <g>
                            <path d="M113.2,101.1C111.9,101.1 110.8,100.1 110.8,98.9C110.8,97.7 111.9,96.7 113.2,96.7C114.5,96.7 115.6,97.7 115.6,98.9C115.6,100.1 114.5,101.1 113.2,101.1Z" style="fill:none;fill-rule:nonzero;stroke:rgb(64,72,81);stroke-width:0.8px;"/>
                            <path d="M113.2,131.1C111.9,131.1 110.8,130.1 110.8,128.9C110.8,127.7 111.9,126.7 113.2,126.7C114.5,126.7 115.6,127.7 115.6,128.9C115.6,130.1 114.5,131.1 113.2,131.1Z" style="fill:none;fill-rule:nonzero;stroke:rgb(64,72,81);stroke-width:0.8px;"/>
                            <path d="M113,100.9L113,126.9" style="fill:none;fill-rule:nonzero;stroke:rgb(64,72,81);stroke-width:0.8px;"/>
                            <path d="M113,131.1L113,157.1" style="fill:none;fill-rule:nonzero;stroke:rgb(64,72,81);stroke-width:0.8px;"/>
                        </g>
                        <g>
                            <path d="M113.2,161.8C111.9,161.8 110.8,160.8 110.8,159.6C110.8,158.4 111.9,157.4 113.2,157.4C114.5,157.4 115.6,158.4 115.6,159.6C115.6,160.9 114.5,161.8 113.2,161.8Z" style="fill:none;fill-rule:nonzero;stroke:rgb(64,72,81);stroke-width:0.8px;"/>
                            <path d="M113.2,191.8C111.9,191.8 110.8,190.8 110.8,189.6C110.8,188.4 111.9,187.4 113.2,187.4C114.5,187.4 115.6,188.4 115.6,189.6C115.6,190.9 114.5,191.8 113.2,191.8Z" style="fill:none;fill-rule:nonzero;stroke:rgb(64,72,81);stroke-width:0.8px;"/>
                            <path d="M113,161.6L113,187.6" style="fill:none;fill-rule:nonzero;stroke:rgb(64,72,81);stroke-width:0.8px;"/>
                            <path d="M113,191.9L113,217.8" style="fill:none;fill-rule:nonzero;stroke:rgb(64,72,81);stroke-width:0.8px;"/>
                        </g>
                    </g>
                </g>
                <g>
                    <g>
                        <g>
                            <path d="M104.5,70.1C103.2,70.1 102.1,69.1 102.1,67.9C102.1,66.7 103.2,65.7 104.5,65.7C105.8,65.7 106.9,66.7 106.9,67.9C106.9,69.1 105.8,70.1 104.5,70.1Z" style="fill:none;fill-rule:nonzero;stroke:rgb(64,72,81);stroke-width:0.8px;"/>
                            <path d="M104.5,100.1C103.2,100.1 102.1,99.1 102.1,97.9C102.1,96.7 103.2,95.7 104.5,95.7C105.8,95.7 106.9,96.7 106.9,97.9C106.9,99.1 105.8,100.1 104.5,100.1Z" style="fill:none;fill-rule:nonzero;stroke:rgb(64,72,81);stroke-width:0.8px;"/>
                            <path d="M104.3,69.9L104.3,95.8" style="fill:none;fill-rule:nonzero;stroke:rgb(64,72,81);stroke-width:0.8px;"/>
                            <path d="M104.3,100.1L104.3,126.1" style="fill:none;fill-rule:nonzero;stroke:rgb(64,72,81);stroke-width:0.8px;"/>
                        </g>
                        <g>
                            <path d="M104.5,130.8C103.2,130.8 102.1,129.8 102.1,128.6C102.1,127.4 103.2,126.4 104.5,126.4C105.8,126.4 106.9,127.4 106.9,128.6C106.9,129.9 105.8,130.8 104.5,130.8Z" style="fill:none;fill-rule:nonzero;stroke:rgb(64,72,81);stroke-width:0.8px;"/>
                            <path d="M104.5,160.8C103.2,160.8 102.1,159.8 102.1,158.6C102.1,157.4 103.2,156.4 104.5,156.4C105.8,156.4 106.9,157.4 106.9,158.6C106.9,159.9 105.8,160.8 104.5,160.8Z" style="fill:none;fill-rule:nonzero;stroke:rgb(64,72,81);stroke-width:0.8px;"/>
                            <path d="M104.3,130.6L104.3,156.6" style="fill:none;fill-rule:nonzero;stroke:rgb(64,72,81);stroke-width:0.8px;"/>
                            <path d="M104.3,160.9L104.3,186.8" style="fill:none;fill-rule:nonzero;stroke:rgb(64,72,81);stroke-width:0.8px;"/>
                        </g>
                        <g>
                            <path d="M104.5,191.6C103.2,191.6 102.1,190.6 102.1,189.4C102.1,188.2 103.2,187.2 104.5,187.2C105.8,187.2 106.9,188.2 106.9,189.4C106.9,190.6 105.8,191.6 104.5,191.6Z" style="fill:none;fill-rule:nonzero;stroke:rgb(64,72,81);stroke-width:0.8px;"/>
                            <path d="M104.5,221.6C103.2,221.6 102.1,220.6 102.1,219.4C102.1,218.2 103.2,217.2 104.5,217.2C105.8,217.2 106.9,218.2 106.9,219.4C106.9,220.6 105.8,221.6 104.5,221.6Z" style="fill:none;fill-rule:nonzero;stroke:rgb(64,72,81);stroke-width:0.8px;"/>
                            <path d="M104.3,191.4L104.3,217.3" style="fill:none;fill-rule:nonzero;stroke:rgb(64,72,81);stroke-width:0.8px;"/>
                            <path d="M104.3,221.6L104.3,247.6" style="fill:none;fill-rule:nonzero;stroke:rgb(64,72,81);stroke-width:0.8px;"/>
                        </g>
                    </g>
                </g>
                <g>
                    <g>
                        <g>
                            <path d="M95.8,100.1C94.5,100.1 93.4,99.1 93.4,97.9C93.4,96.7 94.5,95.7 95.8,95.7C97.1,95.7 98.2,96.7 98.2,97.9C98.3,99.1 97.2,100.1 95.8,100.1Z" style="fill:none;fill-rule:nonzero;stroke:rgb(64,72,81);stroke-width:0.8px;"/>
                            <path d="M95.8,130.1C94.5,130.1 93.4,129.1 93.4,127.9C93.4,126.7 94.5,125.7 95.8,125.7C97.1,125.7 98.2,126.7 98.2,127.9C98.3,129.1 97.2,130.1 95.8,130.1Z" style="fill:none;fill-rule:nonzero;stroke:rgb(64,72,81);stroke-width:0.8px;"/>
                            <path d="M95.6,99.9L95.6,125.8" style="fill:none;fill-rule:nonzero;stroke:rgb(64,72,81);stroke-width:0.8px;"/>
                            <path d="M95.6,130.1L95.6,156.1" style="fill:none;fill-rule:nonzero;stroke:rgb(64,72,81);stroke-width:0.8px;"/>
                        </g>
                        <g>
                            <path d="M95.8,160.8C94.5,160.8 93.4,159.8 93.4,158.6C93.4,157.4 94.5,156.4 95.8,156.4C97.1,156.4 98.2,157.4 98.2,158.6C98.3,159.9 97.2,160.8 95.8,160.8Z" style="fill:none;fill-rule:nonzero;stroke:rgb(64,72,81);stroke-width:0.8px;"/>
                            <path d="M95.8,190.8C94.5,190.8 93.4,189.8 93.4,188.6C93.4,187.4 94.5,186.4 95.8,186.4C97.1,186.4 98.2,187.4 98.2,188.6C98.3,189.9 97.2,190.8 95.8,190.8Z" style="fill:none;fill-rule:nonzero;stroke:rgb(64,72,81);stroke-width:0.8px;"/>
                            <path d="M95.6,160.6L95.6,186.6" style="fill:none;fill-rule:nonzero;stroke:rgb(64,72,81);stroke-width:0.8px;"/>
                            <path d="M95.6,190.9L95.6,216.8" style="fill:none;fill-rule:nonzero;stroke:rgb(64,72,81);stroke-width:0.8px;"/>
                        </g>
                        <g>
                            <path d="M95.8,221.6C94.5,221.6 93.4,220.6 93.4,219.4C93.4,218.2 94.5,217.2 95.8,217.2C97.1,217.2 98.2,218.2 98.2,219.4C98.3,220.6 97.2,221.6 95.8,221.6Z" style="fill:none;fill-rule:nonzero;stroke:rgb(64,72,81);stroke-width:0.8px;"/>
                            <path d="M95.8,251.6C94.5,251.6 93.4,250.6 93.4,249.4C93.4,248.2 94.5,247.2 95.8,247.2C97.1,247.2 98.2,248.2 98.2,249.4C98.3,250.6 97.2,251.6 95.8,251.6Z" style="fill:none;fill-rule:nonzero;stroke:rgb(64,72,81);stroke-width:0.8px;"/>
                            <path d="M95.6,221.4L95.6,247.3" style="fill:none;fill-rule:nonzero;stroke:rgb(64,72,81);stroke-width:0.8px;"/>
                            <path d="M95.6,251.6L95.6,277.6" style="fill:none;fill-rule:nonzero;stroke:rgb(64,72,81);stroke-width:0.8px;"/>
                        </g>
                    </g>
                </g>
                <g>
                    <g>
                        <path d="M87.1,130.6C85.8,130.6 84.7,129.6 84.7,128.4C84.7,127.2 85.8,126.2 87.1,126.2C88.4,126.2 89.5,127.2 89.5,128.4C89.6,129.6 88.5,130.6 87.1,130.6Z" style="fill:none;fill-rule:nonzero;stroke:rgb(64,72,81);stroke-width:0.8px;"/>
                        <path d="M87.1,160.4C85.8,160.4 84.7,159.4 84.7,158.2C84.7,157 85.8,156 87.1,156C88.4,156 89.5,157 89.5,158.2C89.6,159.4 88.5,160.4 87.1,160.4Z" style="fill:none;fill-rule:nonzero;stroke:rgb(64,72,81);stroke-width:0.8px;"/>
                        <path d="M86.9,130.4L86.9,156.2" style="fill:none;fill-rule:nonzero;stroke:rgb(64,72,81);stroke-width:0.8px;"/>
                        <path d="M86.9,160.4L86.9,186.2" style="fill:none;fill-rule:nonzero;stroke:rgb(64,72,81);stroke-width:0.8px;"/>
                    </g>
                    <g>
                        <path d="M87.1,190.9C85.8,190.9 84.7,189.9 84.7,188.7C84.7,187.5 85.8,186.5 87.1,186.5C88.4,186.5 89.5,187.5 89.5,188.7C89.6,189.9 88.5,190.9 87.1,190.9Z" style="fill:none;fill-rule:nonzero;stroke:rgb(64,72,81);stroke-width:0.8px;"/>
                        <path d="M87.1,220.7C85.8,220.7 84.7,219.7 84.7,218.5C84.7,217.3 85.8,216.3 87.1,216.3C88.4,216.3 89.5,217.3 89.5,218.5C89.6,219.7 88.5,220.7 87.1,220.7Z" style="fill:none;fill-rule:nonzero;stroke:rgb(64,72,81);stroke-width:0.8px;"/>
                        <path d="M86.9,190.7L86.9,216.5" style="fill:none;fill-rule:nonzero;stroke:rgb(64,72,81);stroke-width:0.8px;"/>
                        <path d="M86.9,220.7L86.9,246.5" style="fill:none;fill-rule:nonzero;stroke:rgb(64,72,81);stroke-width:0.8px;"/>
                    </g>
                    <g>
                        <path d="M87.1,251.2C85.8,251.2 84.7,250.2 84.7,249C84.7,247.8 85.8,246.8 87.1,246.8C88.4,246.8 89.5,247.8 89.5,249C89.6,250.2 88.5,251.2 87.1,251.2Z" style="fill:none;fill-rule:nonzero;stroke:rgb(64,72,81);stroke-width:0.8px;"/>
                        <path d="M87.1,281C85.8,281 84.7,280 84.7,278.8C84.7,277.6 85.8,276.6 87.1,276.6C88.4,276.6 89.5,277.6 89.5,278.8C89.6,280 88.5,281 87.1,281Z" style="fill:none;fill-rule:nonzero;stroke:rgb(64,72,81);stroke-width:0.8px;"/>
                        <path d="M86.9,251L86.9,276.8" style="fill:none;fill-rule:nonzero;stroke:rgb(64,72,81);stroke-width:0.8px;"/>
                        <path d="M86.9,281L86.9,306.8" style="fill:none;fill-rule:nonzero;stroke:rgb(64,72,81);stroke-width:0.8px;"/>
                    </g>
                    <g>
                        <path d="M77.7,292.7L87.1,303.8L96.6,292.7L87.1,325.1L77.7,292.7Z" style="fill:rgb(64,72,81);fill-rule:nonzero;"/>
                        <path d="M80.4,297.3L87.1,321.5L87.1,305.5L80.4,297.3Z" style="fill:white;fill-rule:nonzero;"/>
                    </g>
                </g>
                <g>
                    <g>
                        <g>
                            <path d="M78.4,100.1C77.1,100.1 76,99.1 76,97.9C76,96.7 77.1,95.7 78.4,95.7C79.7,95.7 80.8,96.7 80.8,97.9C80.9,99.1 79.8,100.1 78.4,100.1Z" style="fill:none;fill-rule:nonzero;stroke:rgb(64,72,81);stroke-width:0.8px;"/>
                            <path d="M78.4,130.1C77.1,130.1 76,129.1 76,127.9C76,126.7 77.1,125.7 78.4,125.7C79.7,125.7 80.8,126.7 80.8,127.9C80.9,129.1 79.8,130.1 78.4,130.1Z" style="fill:none;fill-rule:nonzero;stroke:rgb(64,72,81);stroke-width:0.8px;"/>
                            <path d="M78.3,99.9L78.3,125.8" style="fill:none;fill-rule:nonzero;stroke:rgb(64,72,81);stroke-width:0.8px;"/>
                            <path d="M78.3,130.1L78.3,156.1" style="fill:none;fill-rule:nonzero;stroke:rgb(64,72,81);stroke-width:0.8px;"/>
                        </g>
                        <g>
                            <path d="M78.4,160.8C77.1,160.8 76,159.8 76,158.6C76,157.4 77.1,156.4 78.4,156.4C79.7,156.4 80.8,157.4 80.8,158.6C80.9,159.9 79.8,160.8 78.4,160.8Z" style="fill:none;fill-rule:nonzero;stroke:rgb(64,72,81);stroke-width:0.8px;"/>
                            <path d="M78.4,190.8C77.1,190.8 76,189.8 76,188.6C76,187.4 77.1,186.4 78.4,186.4C79.7,186.4 80.8,187.4 80.8,188.6C80.9,189.9 79.8,190.8 78.4,190.8Z" style="fill:none;fill-rule:nonzero;stroke:rgb(64,72,81);stroke-width:0.8px;"/>
                            <path d="M78.3,160.6L78.3,186.6" style="fill:none;fill-rule:nonzero;stroke:rgb(64,72,81);stroke-width:0.8px;"/>
                            <path d="M78.3,190.9L78.3,216.8" style="fill:none;fill-rule:nonzero;stroke:rgb(64,72,81);stroke-width:0.8px;"/>
                        </g>
                        <g>
                            <path d="M78.4,221.6C77.1,221.6 76,220.6 76,219.4C76,218.2 77.1,217.2 78.4,217.2C79.7,217.2 80.8,218.2 80.8,219.4C80.9,220.6 79.8,221.6 78.4,221.6Z" style="fill:none;fill-rule:nonzero;stroke:rgb(64,72,81);stroke-width:0.8px;"/>
                            <path d="M78.4,251.6C77.1,251.6 76,250.6 76,249.4C76,248.2 77.1,247.2 78.4,247.2C79.7,247.2 80.8,248.2 80.8,249.4C80.9,250.6 79.8,251.6 78.4,251.6Z" style="fill:none;fill-rule:nonzero;stroke:rgb(64,72,81);stroke-width:0.8px;"/>
                            <path d="M78.3,221.4L78.3,247.3" style="fill:none;fill-rule:nonzero;stroke:rgb(64,72,81);stroke-width:0.8px;"/>
                            <path d="M78.3,251.6L78.3,277.6" style="fill:none;fill-rule:nonzero;stroke:rgb(64,72,81);stroke-width:0.8px;"/>
                        </g>
                    </g>
                </g>
                <g>
                    <g>
                        <g>
                            <path d="M69.8,70.1C68.5,70.1 67.4,69.1 67.4,67.9C67.4,66.7 68.5,65.7 69.8,65.7C71.1,65.7 72.2,66.7 72.2,67.9C72.2,69.1 71.1,70.1 69.8,70.1Z" style="fill:none;fill-rule:nonzero;stroke:rgb(64,72,81);stroke-width:0.8px;"/>
                            <path d="M69.8,100.1C68.5,100.1 67.4,99.1 67.4,97.9C67.4,96.7 68.5,95.7 69.8,95.7C71.1,95.7 72.2,96.7 72.2,97.9C72.2,99.1 71.1,100.1 69.8,100.1Z" style="fill:none;fill-rule:nonzero;stroke:rgb(64,72,81);stroke-width:0.8px;"/>
                            <path d="M69.6,69.9L69.6,95.8" style="fill:none;fill-rule:nonzero;stroke:rgb(64,72,81);stroke-width:0.8px;"/>
                            <path d="M69.6,100.1L69.6,126.1" style="fill:none;fill-rule:nonzero;stroke:rgb(64,72,81);stroke-width:0.8px;"/>
                        </g>
                        <g>
                            <path d="M69.8,130.8C68.5,130.8 67.4,129.8 67.4,128.6C67.4,127.4 68.5,126.4 69.8,126.4C71.1,126.4 72.2,127.4 72.2,128.6C72.2,129.9 71.1,130.8 69.8,130.8Z" style="fill:none;fill-rule:nonzero;stroke:rgb(64,72,81);stroke-width:0.8px;"/>
                            <path d="M69.8,160.8C68.5,160.8 67.4,159.8 67.4,158.6C67.4,157.4 68.5,156.4 69.8,156.4C71.1,156.4 72.2,157.4 72.2,158.6C72.2,159.9 71.1,160.8 69.8,160.8Z" style="fill:none;fill-rule:nonzero;stroke:rgb(64,72,81);stroke-width:0.8px;"/>
                            <path d="M69.6,130.6L69.6,156.6" style="fill:none;fill-rule:nonzero;stroke:rgb(64,72,81);stroke-width:0.8px;"/>
                            <path d="M69.6,160.9L69.6,186.8" style="fill:none;fill-rule:nonzero;stroke:rgb(64,72,81);stroke-width:0.8px;"/>
                        </g>
                        <g>
                            <path d="M69.8,191.6C68.5,191.6 67.4,190.6 67.4,189.4C67.4,188.2 68.5,187.2 69.8,187.2C71.1,187.2 72.2,188.2 72.2,189.4C72.2,190.6 71.1,191.6 69.8,191.6Z" style="fill:none;fill-rule:nonzero;stroke:rgb(64,72,81);stroke-width:0.8px;"/>
                            <path d="M69.8,221.6C68.5,221.6 67.4,220.6 67.4,219.4C67.4,218.2 68.5,217.2 69.8,217.2C71.1,217.2 72.2,218.2 72.2,219.4C72.2,220.6 71.1,221.6 69.8,221.6Z" style="fill:none;fill-rule:nonzero;stroke:rgb(64,72,81);stroke-width:0.8px;"/>
                            <path d="M69.6,191.4L69.6,217.3" style="fill:none;fill-rule:nonzero;stroke:rgb(64,72,81);stroke-width:0.8px;"/>
                            <path d="M69.6,221.6L69.6,247.6" style="fill:none;fill-rule:nonzero;stroke:rgb(64,72,81);stroke-width:0.8px;"/>
                        </g>
                    </g>
                </g>
                <g>
                    <g>
                        <g>
                            <path d="M61.1,40.3C59.8,40.3 58.7,39.3 58.7,38.1C58.7,36.9 59.8,35.9 61.1,35.9C62.4,35.9 63.5,36.9 63.5,38.1C63.5,39.4 62.4,40.3 61.1,40.3Z" style="fill:none;fill-rule:nonzero;stroke:rgb(64,72,81);stroke-width:0.8px;"/>
                            <path d="M61.1,70.4C59.8,70.4 58.7,69.4 58.7,68.2C58.7,67 59.8,66 61.1,66C62.4,66 63.5,67 63.5,68.2C63.5,69.4 62.4,70.4 61.1,70.4Z" style="fill:none;fill-rule:nonzero;stroke:rgb(64,72,81);stroke-width:0.8px;"/>
                            <path d="M60.9,40.1L60.9,66.1" style="fill:none;fill-rule:nonzero;stroke:rgb(64,72,81);stroke-width:0.8px;"/>
                            <path d="M60.9,70.4L60.9,96.4" style="fill:none;fill-rule:nonzero;stroke:rgb(64,72,81);stroke-width:0.8px;"/>
                        </g>
                        <g>
                            <path d="M61.1,101.1C59.8,101.1 58.7,100.1 58.7,98.9C58.7,97.7 59.8,96.7 61.1,96.7C62.4,96.7 63.5,97.7 63.5,98.9C63.5,100.1 62.4,101.1 61.1,101.1Z" style="fill:none;fill-rule:nonzero;stroke:rgb(64,72,81);stroke-width:0.8px;"/>
                            <path d="M61.1,131.1C59.8,131.1 58.7,130.1 58.7,128.9C58.7,127.7 59.8,126.7 61.1,126.7C62.4,126.7 63.5,127.7 63.5,128.9C63.5,130.1 62.4,131.1 61.1,131.1Z" style="fill:none;fill-rule:nonzero;stroke:rgb(64,72,81);stroke-width:0.8px;"/>
                            <path d="M60.9,100.9L60.9,126.9" style="fill:none;fill-rule:nonzero;stroke:rgb(64,72,81);stroke-width:0.8px;"/>
                            <path d="M60.9,131.1L60.9,157.1" style="fill:none;fill-rule:nonzero;stroke:rgb(64,72,81);stroke-width:0.8px;"/>
                        </g>
                        <g>
                            <path d="M61.1,161.8C59.8,161.8 58.7,160.8 58.7,159.6C58.7,158.4 59.8,157.4 61.1,157.4C62.4,157.4 63.5,158.4 63.5,159.6C63.5,160.9 62.4,161.8 61.1,161.8Z" style="fill:none;fill-rule:nonzero;stroke:rgb(64,72,81);stroke-width:0.8px;"/>
                            <path d="M61.1,191.8C59.8,191.8 58.7,190.8 58.7,189.6C58.7,188.4 59.8,187.4 61.1,187.4C62.4,187.4 63.5,188.4 63.5,189.6C63.5,190.9 62.4,191.8 61.1,191.8Z" style="fill:none;fill-rule:nonzero;stroke:rgb(64,72,81);stroke-width:0.8px;"/>
                            <path d="M60.9,161.6L60.9,187.6" style="fill:none;fill-rule:nonzero;stroke:rgb(64,72,81);stroke-width:0.8px;"/>
                            <path d="M60.9,191.9L60.9,217.8" style="fill:none;fill-rule:nonzero;stroke:rgb(64,72,81);stroke-width:0.8px;"/>
                        </g>
                    </g>
                </g>
            </g>
            <g transform="matrix(0.738865,-0.120238,0.115945,0.712485,334.239,319.455)">
                <path d="M0,-108.326C-18.412,-111.978 -37.367,-111.962 -55.459,-108.303C-73.555,-104.669 -90.756,-97.435 -105.827,-87.301C-120.907,-77.175 -133.849,-64.155 -143.714,-49.277C-153.602,-34.407 -160.372,-17.7 -163.724,-0.44C-164.786,5.03 -170.081,8.605 -175.552,7.542C-181.022,6.481 -184.597,1.185 -183.534,-4.286C-183.483,-4.549 -183.423,-4.807 -183.353,-5.061L-183.327,-5.149C-177.891,-24.574 -168.646,-42.819 -156.314,-58.442C-144.003,-74.086 -128.669,-87.113 -111.575,-96.682C-94.482,-106.263 -75.635,-112.388 -56.465,-114.645C-37.299,-116.931 -17.838,-115.305 0.42,-110.121L0.432,-110.117C0.922,-109.978 1.205,-109.469 1.066,-108.978C0.936,-108.514 0.467,-108.235 0,-108.326" style="fill:rgb(245,241,239);fill-rule:nonzero;"/>
            </g>
            <g transform="matrix(-0.578376,0,0,0.557726,49.5037,399.217)">
                <path d="M0,-108.326C-18.412,-111.978 -37.367,-111.962 -55.459,-108.303C-73.555,-104.669 -90.756,-97.435 -105.827,-87.301C-120.907,-77.175 -133.849,-64.155 -143.714,-49.277C-153.602,-34.407 -160.372,-17.7 -163.724,-0.44C-164.786,5.03 -170.081,8.605 -175.552,7.542C-181.022,6.481 -184.597,1.185 -183.534,-4.286C-183.483,-4.549 -183.423,-4.807 -183.353,-5.061L-183.327,-5.149C-177.891,-24.574 -168.646,-42.819 -156.314,-58.442C-144.003,-74.086 -128.669,-87.113 -111.575,-96.682C-94.482,-106.263 -75.635,-112.388 -56.465,-114.645C-37.299,-116.931 -17.838,-115.305 0.42,-110.121L0.432,-110.117C0.922,-109.978 1.205,-109.469 1.066,-108.978C0.936,-108.514 0.467,-108.235 0,-108.326" style="fill:rgb(245,241,239);fill-rule:nonzero;"/>
            </g>
            <g transform="matrix(0.738865,-0.120238,0.115945,0.712485,285.088,329.117)">
                <path d="M0,-152.664C-16.82,-150.857 -33.353,-146.354 -47.737,-138.203C-54.923,-134.149 -61.522,-129.201 -67.313,-123.499C-73.104,-117.796 -78.083,-111.348 -82.184,-104.399C-90.412,-90.484 -95.132,-74.724 -97.349,-58.672C-99.562,-42.583 -99.354,-26.147 -97.573,-9.889C-96.968,-4.349 -100.966,0.635 -106.507,1.241C-112.047,1.848 -117.03,-2.151 -117.637,-7.691C-117.669,-7.989 -117.688,-8.284 -117.695,-8.578L-117.695,-8.623C-118.035,-26.303 -116.674,-44.139 -112.665,-61.531C-108.663,-78.871 -101.878,-95.86 -91.377,-110.44C-86.15,-117.718 -80.009,-124.335 -73.128,-129.987C-66.247,-135.643 -58.642,-140.322 -50.638,-143.934C-34.597,-151.196 -17.203,-154.197 -0.127,-154.502L-0.115,-154.502C0.393,-154.512 0.812,-154.106 0.822,-153.597C0.83,-153.117 0.467,-152.716 0,-152.664" style="fill:rgb(245,241,239);fill-rule:nonzero;"/>
            </g>
            <g transform="matrix(-0.578376,0,0,0.557726,88.1849,400.485)">
                <path d="M0,-152.664C-16.82,-150.857 -33.353,-146.354 -47.737,-138.203C-54.923,-134.149 -61.522,-129.201 -67.313,-123.499C-73.104,-117.796 -78.083,-111.348 -82.184,-104.399C-90.412,-90.484 -95.132,-74.724 -97.349,-58.672C-99.562,-42.583 -99.354,-26.147 -97.573,-9.889C-96.968,-4.349 -100.966,0.635 -106.507,1.241C-112.047,1.848 -117.03,-2.151 -117.637,-7.691C-117.669,-7.989 -117.688,-8.284 -117.695,-8.578L-117.695,-8.623C-118.035,-26.303 -116.674,-44.139 -112.665,-61.531C-108.663,-78.871 -101.878,-95.86 -91.377,-110.44C-86.15,-117.718 -80.009,-124.335 -73.128,-129.987C-66.247,-135.643 -58.642,-140.322 -50.638,-143.934C-34.597,-151.196 -17.203,-154.197 -0.127,-154.502L-0.115,-154.502C0.393,-154.512 0.812,-154.106 0.822,-153.597C0.83,-153.117 0.467,-152.716 0,-152.664" style="fill:rgb(245,241,239);fill-rule:nonzero;"/>
            </g>
        </g>
    </g>
</svg>
