<svg viewBox="0 0 2134 2134" xmlns="http://www.w3.org/2000/svg" fill-rule="evenodd" clip-rule="evenodd" stroke-linejoin="round" stroke-miterlimit="2"><path fill="none" d="M0 0h2133.335v2133.335H0z"/><path d="M1760.014 939.676c94.87 64.779 169.254 166.033 207.046 282.146 38.062 116.13 39.712 246.917 2.025 368.417-18.917 60.679-47.138 119.05-83.813 171.958-18.25 26.221-39.12 51.796-60.425 74.621-24.187 25.725-48.775 46.6-76.354 66.488-109.054 78.991-249.638 114.47-384.175 96.92-67.4-8.116-133.309-29.237-192.938-61.966-29.792-16.275-58.267-35.013-84.367-56.696-13.016-10.746-25.608-22.075-37.545-33.996l-16.65-17.45c-6.3-7.192-13.088-14.742-18.655-21.712-44.358-54.746-74.72-120.342-89.254-188.38-13.883-68.104-12.596-138.912 5.425-204.992 17.258-66.2 51.104-127.133 95.417-176.808 11.612-12.538 22.467-23.23 36.2-35.38l8.183-6.733 10.734-8.516c7.529-5.984 14.095-10.084 21.225-15.059 28.52-18.445 59.65-32.162 91.562-41.312 63.992-18.142 131.413-16.23 190.834 3.97 29.7 10.15 57.337 24.472 81.92 42.088 24.276 18.175 45.517 39.317 62.338 63.088 1.525 2.2 1.042 5.154-1.137 6.725-1.684 1.191-3.88 1.116-5.463.112-47.43-30.4-99.48-47.416-150.304-49.45-50.725-2.283-99.7 9.159-140.734 31.375-41.075 21.675-74.1 54.713-97.983 93.384-24.842 38.95-40.23 82.183-46.254 126.008-12.096 87.98 15.841 176.938 71.8 239.434l9.133 9.883 12.946 12.583c8.292 7.567 16.98 14.688 25.858 21.455 17.875 13.429 36.417 25.9 56.134 36.112 39.516 20.375 82.258 34.3 126.404 40.563 44.18 5.791 89.492 4.32 133.358-4.792 43.709-9.496 86.155-26.117 124.567-50.033 18.892-11.7 37.992-26.509 53.875-40.234 18.567-16.762 34.85-33.558 50.375-52.25 31.038-36.867 57.367-78.112 77.492-122.846 40.562-89.354 57.117-192.212 44.867-295.33-5.938-51.537-19.384-102.928-39.117-153.066-20.275-49.938-47.733-97.904-81.3-143.546-1.554-2.18-1.054-5.167 1.058-6.75 1.75-1.196 4.059-1.117 5.692-.033" fill="#8bc6f2" fill-rule="nonzero"/><path d="M1019.48 1942.868c-100.454-55.75-183.967-149.662-232.313-261.796-48.562-112.03-62.408-242.138-36.166-366.638 13.175-62.125 35.845-122.929 67.441-178.975 15.713-27.816 34.096-55.187 53.242-80 21.73-27.808 44.3-50.858 69.958-73.183 101.255-88.692 237.917-137.159 373.56-132.113 67.782 1.817 135.416 16.754 197.808 43.875 31.179 13.446 61.32 29.513 89.283 48.646 13.954 9.554 27.558 19.683 40.517 30.42l18.087 15.738c6.946 6.534 14.43 13.455 20.638 19.855 49.279 50.4 85.629 112.92 106.396 179.275 20.191 66.608 25.45 137.233 13.604 204.7-11.067 67.5-39.163 131.358-78.767 184.875-10.375 13.542-20.258 25.246-32.692 38.48l-7.483 7.474-9.946 9.475c-6.912 6.692-13.05 11.375-19.746 16.988-26.666 21.029-56.346 37.637-87.291 49.725-61.984 23.962-129.334 28.37-190.326 13.796-30.529-7.384-59.462-19.042-85.512-34.334-25.838-15.812-48.963-34.941-67.888-57.029-1.72-2.054-1.475-5.104.513-6.879 1.604-1.283 3.737-1.454 5.429-.625 50.07 25.942 103.492 38.07 154.238 35.392 50.716-2.48 98.429-18.392 137.225-44.288 38.879-25.53 68.491-61.42 88.916-102.212 21.13-41.021 32.442-85.567 34.43-129.688 3.904-88.742-32.209-174.659-93.692-231.634l-10.038-9.008-14.166-11.396c-8.988-6.779-18.292-13.046-27.73-18.95-19.037-11.708-38.583-22.416-59.22-30.796-41.138-16.641-85.096-26.529-129.592-28.654-44.546-1.717-89.513 3.963-132.392 17.088-42.63 13.537-83.312 33.979-119.404 61.337-17.721 13.334-35.33 29.917-49.963 45.05-16.854 18.263-31.55 36.609-45.291 56.604-27.434 39.646-49.83 83.109-65.617 129.592-32.13 92.73-39.054 196.655-17.396 298.196 10.67 50.813 28.8 100.73 53.133 148.809 24.784 47.887 56.542 93.117 94.2 135.442 1.73 2.008 1.563 5.033-.425 6.804-1.554 1.37-3.845 1.496-5.562.562" fill="#455e6e" fill-rule="nonzero"/><path d="M742.16 1919.514s-188.513 126.21-290.582 71.245c-102.11-54.987-55.044-209.146 81.123-187.816-92.822-101.852 9.94-226.126 112.038-171.145 102.134 54.986 97.421 287.716 97.421 287.716" fill="#d77424" fill-rule="nonzero"/><g><path d="M1641.839 794.146l201.004-260.633-166.467 283.942c-5.829 9.941-18.62 13.279-28.562 7.45-9.95-5.834-13.284-18.621-7.45-28.567.429-.737.97-1.529 1.475-2.192M1463.718 702.296l146.767-446.355-98.509 459.425c-2.896 13.517-16.208 22.13-29.725 19.23-13.52-2.9-22.129-16.209-19.233-29.73.187-.866.429-1.741.7-2.57M1247.676 687.277l-7.025-587.222 73.538 582.638c2.308 18.296-10.655 35-28.946 37.309-18.296 2.308-34.996-10.65-37.309-28.946a35.255 35.255 0 01-.258-3.78M1002.576 758.556L757.526 75.659l321.737 650.292c10.221 20.659 1.763 45.696-18.895 55.917-20.663 10.221-45.696 1.758-55.917-18.9a43.093 43.093 0 01-1.875-4.412M795.496 907.966l-578.383-715.41 652.613 648.406c19.62 19.491 19.725 51.195.233 70.816-19.492 19.617-51.2 19.717-70.817.23a51.729 51.729 0 01-3.646-4.042M658.18 1103.55L72.27 726.889l626.701 303.996c20.742 10.063 29.4 35.034 19.338 55.775-10.063 20.742-35.033 29.4-55.775 19.338a46.997 46.997 0 01-4.354-2.446" fill="#d77424" fill-rule="nonzero"/></g></svg>