<?xml version="1.0" encoding="UTF-8" standalone="no"?>
<!DOCTYPE svg PUBLIC "-//W3C//DTD SVG 1.1//EN" "http://www.w3.org/Graphics/SVG/1.1/DTD/svg11.dtd">
<svg width="100%" height="100%" viewBox="0 0 2134 2134" version="1.1" xmlns="http://www.w3.org/2000/svg" xmlns:xlink="http://www.w3.org/1999/xlink" xml:space="preserve" xmlns:serif="http://www.serif.com/" style="fill-rule:evenodd;clip-rule:evenodd;stroke-linejoin:round;stroke-miterlimit:2;">
    <g transform="matrix(1,0,0,1,-9078.3,-2437.5)">
        <g id="webpeeps-aaftw" transform="matrix(4.16667,0,0,4.16667,9078.3,2437.5)">
            <rect x="0" y="0" width="512" height="512" style="fill:none;"/>
            <g id="swirl">
            </g>
            <g id="heart">
            </g>
            <g id="spikes">
            </g>
            <g transform="matrix(-0.89275,-0.130671,-0.130671,0.89275,71.6435,455.213)">
                <path d="M0,-258.465C22.769,-242.918 40.621,-218.617 49.691,-190.75C58.826,-162.879 59.222,-131.49 50.177,-102.33C45.637,-87.767 38.864,-73.758 30.062,-61.06C25.682,-54.767 20.673,-48.629 15.56,-43.151C9.755,-36.977 3.854,-31.967 -2.765,-27.194C-28.938,-8.236 -62.678,0.279 -94.967,-3.933C-111.143,-5.881 -126.961,-10.95 -141.272,-18.805C-148.422,-22.711 -155.256,-27.208 -161.52,-32.412C-164.644,-34.991 -167.666,-37.71 -170.531,-40.571L-174.527,-44.759C-176.039,-46.485 -177.668,-48.297 -179.004,-49.97C-189.65,-63.109 -196.937,-78.852 -200.425,-95.181C-203.757,-111.526 -203.448,-128.52 -199.123,-144.379C-194.981,-160.267 -186.858,-174.891 -176.223,-186.813C-173.436,-189.822 -170.831,-192.388 -167.535,-195.304L-165.571,-196.92L-162.995,-198.964C-161.188,-200.4 -159.612,-201.384 -157.901,-202.578C-151.056,-207.005 -143.585,-210.297 -135.926,-212.493C-120.568,-216.847 -104.387,-216.388 -90.126,-211.54C-82.998,-209.104 -76.365,-205.667 -70.465,-201.439C-64.639,-197.077 -59.541,-192.003 -55.504,-186.298C-55.138,-185.77 -55.254,-185.061 -55.777,-184.684C-56.181,-184.398 -56.708,-184.416 -57.088,-184.657C-68.471,-191.953 -80.963,-196.037 -93.161,-196.525C-105.335,-197.073 -117.089,-194.327 -126.937,-188.995C-136.795,-183.793 -144.721,-175.864 -150.453,-166.583C-156.415,-157.235 -160.108,-146.859 -161.554,-136.341C-164.457,-115.226 -157.752,-93.876 -144.322,-78.877L-142.13,-76.505L-139.023,-73.485C-137.033,-71.669 -134.948,-69.96 -132.817,-68.336C-128.527,-65.113 -124.077,-62.12 -119.345,-59.669C-109.861,-54.779 -99.603,-51.437 -89.008,-49.934C-78.405,-48.544 -67.53,-48.897 -57.002,-51.084C-46.512,-53.363 -36.325,-57.352 -27.106,-63.092C-22.572,-65.9 -17.988,-69.454 -14.176,-72.748C-9.72,-76.771 -5.812,-80.802 -2.086,-85.288C5.363,-94.136 11.682,-104.035 16.512,-114.771C26.247,-136.216 30.22,-160.902 27.28,-185.65C25.855,-198.019 22.628,-210.353 17.892,-222.386C13.026,-234.371 6.436,-245.883 -1.62,-256.837C-1.993,-257.36 -1.873,-258.077 -1.366,-258.457C-0.946,-258.744 -0.392,-258.725 0,-258.465" style="fill:rgb(139,198,242);fill-rule:nonzero;"/>
            </g>
            <g transform="matrix(-0.89275,-0.130671,-0.130671,0.89275,267.021,227.632)">
                <path d="M0,263.236C-24.109,249.856 -44.152,227.317 -55.755,200.405C-67.41,173.518 -70.733,142.292 -64.435,112.412C-61.273,97.502 -55.832,82.909 -48.249,69.458C-44.478,62.782 -40.066,56.213 -35.471,50.258C-30.256,43.584 -24.839,38.052 -18.681,32.694C5.62,11.408 38.419,-0.224 70.973,0.987C87.241,1.423 103.473,5.008 118.447,11.517C125.93,14.744 133.164,18.6 139.875,23.192C143.224,25.485 146.489,27.916 149.599,30.493L153.94,34.27C155.607,35.838 157.403,37.499 158.893,39.035C170.72,51.131 179.444,66.136 184.428,82.061C189.274,98.047 190.536,114.997 187.693,131.189C185.037,147.389 178.294,162.715 168.789,175.559C166.299,178.809 163.927,181.618 160.943,184.794L159.147,186.588L156.76,188.862C155.101,190.468 153.628,191.592 152.021,192.939C145.621,197.986 138.498,201.972 131.071,204.873C116.195,210.624 100.031,211.682 85.393,208.184C78.066,206.412 71.122,203.614 64.87,199.944C58.669,196.149 53.119,191.558 48.577,186.257C48.164,185.764 48.223,185.032 48.7,184.606C49.085,184.298 49.597,184.257 50.003,184.456C62.02,190.682 74.841,193.593 87.02,192.95C99.192,192.355 110.643,188.536 119.954,182.321C129.285,176.194 136.392,167.58 141.294,157.79C146.365,147.945 149.08,137.254 149.557,126.665C150.494,105.367 141.827,84.747 127.071,71.073L124.662,68.911L121.262,66.176C119.105,64.549 116.872,63.045 114.607,61.628C110.038,58.818 105.347,56.248 100.394,54.237C90.521,50.243 79.971,47.87 69.292,47.36C58.601,46.948 47.809,48.311 37.518,51.461C27.287,54.71 17.523,59.616 8.861,66.182C4.608,69.382 0.382,73.362 -3.13,76.994C-7.175,81.377 -10.702,85.78 -14,90.579C-20.584,100.094 -25.959,110.525 -29.748,121.681C-37.459,143.936 -39.121,168.878 -33.923,193.248C-31.362,205.443 -27.011,217.423 -21.171,228.962C-15.223,240.455 -7.601,251.31 1.437,261.468C1.852,261.95 1.812,262.676 1.335,263.101C0.962,263.43 0.412,263.46 0,263.236" style="fill:rgb(69,94,110);fill-rule:nonzero;"/>
            </g>
            <g id="spikes1" serif:id="spikes" transform="matrix(-0.89275,-0.130671,-0.130671,0.89275,511.987,78.3294)">
                <g transform="matrix(1,0,0,1,394.041,136.824)">
                    <path d="M0,53.771L48.241,-8.781L8.289,59.365C6.89,61.751 3.82,62.552 1.434,61.153C-0.954,59.753 -1.754,56.684 -0.354,54.297C-0.251,54.12 -0.121,53.93 0,53.771" style="fill:rgb(143,196,234);fill-rule:nonzero;"/>
                </g>
                <g transform="matrix(1,0,0,1,351.292,69.8738)">
                    <path d="M0,98.677L35.224,-8.448L11.582,101.814C10.887,105.058 7.692,107.125 4.448,106.429C1.203,105.733 -0.863,102.539 -0.168,99.294C-0.123,99.086 -0.065,98.876 0,98.677" style="fill:rgb(143,196,234);fill-rule:nonzero;"/>
                </g>
                <g transform="matrix(1,0,0,1,299.442,32.4213)">
                    <path d="M0,132.525L-1.686,-8.408L15.963,131.425C16.517,135.816 13.406,139.825 9.016,140.379C4.625,140.933 0.617,137.823 0.062,133.432C0.024,133.13 0.005,132.822 0,132.525" style="fill:rgb(143,196,234);fill-rule:nonzero;"/>
                </g>
                <g transform="matrix(1,0,0,1,240.618,26.2062)">
                    <path d="M0,155.847L-58.812,-8.048L18.405,148.022C20.858,152.98 18.828,158.989 13.87,161.442C8.911,163.895 2.903,161.864 0.45,156.906C0.279,156.56 0.128,156.201 0,155.847" style="fill:rgb(143,196,234);fill-rule:nonzero;"/>
                </g>
                <g transform="matrix(1,0,0,1,190.919,51.8606)">
                    <path d="M0,166.051L-138.812,-5.647L17.815,149.97C22.524,154.648 22.549,162.257 17.871,166.966C13.193,171.674 5.583,171.698 0.875,167.021C0.565,166.713 0.269,166.382 0,166.051" style="fill:rgb(143,196,234);fill-rule:nonzero;"/>
                </g>
                <g transform="matrix(1,0,0,1,157.963,177.455)">
                    <path d="M0,87.397L-140.618,-3.002L9.79,69.957C14.768,72.372 16.846,78.365 14.431,83.343C12.016,88.321 6.023,90.399 1.045,87.984C0.699,87.816 0.318,87.598 0,87.397" style="fill:rgb(143,196,234);fill-rule:nonzero;"/>
                </g>
            </g>
        </g>
    </g>
</svg>
