<?xml version="1.0" encoding="utf-8"?>
<!-- Generator: Adobe Illustrator 23.0.4, SVG Export Plug-In . SVG Version: 6.00 Build 0)  -->
<svg version="1.1" id="Layer_1" xmlns="http://www.w3.org/2000/svg" xmlns:xlink="http://www.w3.org/1999/xlink" x="0px" y="0px"
	 viewBox="0 0 512 512" style="enable-background:new 0 0 512 512;" xml:space="preserve">
<style type="text/css">
	.st0{fill:#FFFFFF;}
	.st1{fill:none;stroke:#C1C8D3;stroke-width:0.837;stroke-miterlimit:10;}
	.st2{fill:none;stroke:#D77526;stroke-width:2;stroke-miterlimit:10;}
	.st3{fill:none;stroke:#62676F;stroke-width:0.837;stroke-miterlimit:10;}
	.st4{fill:none;stroke:#768293;stroke-width:1.5;stroke-miterlimit:10;}
	.st5{fill:none;stroke:#D77526;stroke-miterlimit:10;}
	.st6{fill:#D77526;}
	.st7{fill:none;stroke:#C1C8D3;stroke-miterlimit:10;}
	.st8{fill:#C1C8D3;}
</style>
<g>
	<path class="st0" d="M385.6,37.6c-23.9,8.5-45.9,21.6-64.4,38.4c-18.5,16.7-33.5,37-44,59.2c-10.5,22.2-16.6,46.3-17.8,70.4
		c-1.2,24.1,2.5,48.2,10.5,70.6c2.5,7.1-1.1,14.9-8.2,17.5c-7.1,2.5-14.9-1.1-17.5-8.2c-0.1-0.3-0.2-0.7-0.3-1l0-0.1
		c-7.1-26.3-9-53.9-5.4-80.6c3.5-26.7,12.3-52.4,25.6-75.4c13.2-23,30.9-43.1,51.6-59c20.7-15.9,44.4-27.5,69.2-34.1l0,0
		c0.7-0.2,1.3,0.2,1.5,0.9C386.5,36.7,386.2,37.4,385.6,37.6z"/>
</g>
<g>
	<g>
		<g>
			<g>
				<path class="st1" d="M265.4,210.3c1.3,0.5,2,1.9,1.6,3.1c-0.4,1.2-1.7,2-3.1,1.7c-1.4-0.3-2.2-1.7-1.8-3.2
					C262.5,210.5,264.1,209.8,265.4,210.3z"/>
				<path class="st1" d="M288.4,185.9c0.7,1.2,0.3,2.8-0.8,3.4c-1.1,0.7-2.7,0.3-3.4-0.8c-0.8-1.2-0.5-2.8,0.8-3.5
					C286.2,184.3,287.7,184.7,288.4,185.9z"/>
				<path class="st1" d="M265.5,210.6c1.7-4.6,4.5-8.8,7.8-12.5c3.3-3.7,7.1-6.8,11.2-9.6"/>
				<path class="st1" d="M288.6,186c8.6-4.9,18.1-8.1,27.8-9.6"/>
			</g>
			<g>
				<path class="st1" d="M321.7,175.6c0.1,1.4-0.9,2.6-2.2,2.8c-1.3,0.2-2.6-0.8-2.8-2.2c-0.2-1.4,0.7-2.7,2.2-2.9
					C320.3,173.1,321.6,174.2,321.7,175.6z"/>
				<path class="st1" d="M355.1,181c-0.6,1.2-2.1,1.8-3.3,1.3c-1.2-0.5-1.8-2-1.3-3.3c0.5-1.3,2-2,3.3-1.4
					C355.2,178.2,355.7,179.7,355.1,181z"/>
				<path class="st1" d="M321.5,175.8c9.8-0.9,19.9-0.1,29.1,3.4"/>
				<path class="st1" d="M355,181.2c4.4,2.2,8.5,5.1,11.8,8.7c3.4,3.6,6.1,7.8,8,12.3"/>
			</g>
			<g>
				<path class="st1" d="M376.9,207.1c-1.3,0.4-2.8-0.3-3.2-1.5c-0.4-1.2,0.2-2.6,1.5-3.2c1.3-0.6,2.8,0.1,3.3,1.5
					C379,205.3,378.2,206.7,376.9,207.1z"/>
				<path class="st1" d="M377.5,241c-1.4-0.4-2.2-1.7-1.9-3c0.3-1.3,1.5-2.2,2.9-1.9c1.4,0.2,2.3,1.6,2,3
					C380.2,240.5,378.8,241.4,377.5,241z"/>
				<path class="st1" d="M376.6,207c1.4,4.7,2.2,9.6,2.4,14.5c0.2,4.9,0,9.9-0.8,14.7"/>
				<path class="st1" d="M377.3,241c-1.3,4.8-3.1,9.4-5.8,13.5c-2.6,4.2-5.9,7.9-9.6,11.2"/>
			</g>
			<g>
				<path class="st1" d="M357.9,269.2c-0.8-1.1-0.7-2.7,0.4-3.5c1-0.8,2.6-0.7,3.5,0.4c0.9,1,0.8,2.7-0.3,3.6
					C360.3,270.6,358.7,270.4,357.9,269.2z"/>
				<path class="st1" d="M327.7,285.3c-0.6-1.3,0-2.8,1.3-3.3c1.3-0.5,2.7,0.1,3.3,1.3c0.6,1.3,0,2.8-1.3,3.3
					C329.8,287.3,328.3,286.6,327.7,285.3z"/>
				<path class="st1" d="M357.9,268.9c-7.9,5.9-16.8,10.3-25.8,14.3"/>
				<path class="st1" d="M327.6,285.2c-9.1,3.9-18.3,7.6-27.1,12"/>
			</g>
			<g>
				<path class="st1" d="M295.8,299.8c-0.7-1.2-0.2-2.8,1-3.4c1.2-0.6,2.8-0.1,3.4,1.1c0.6,1.3,0.1,2.8-1.1,3.4
					C298,301.5,296.5,301,295.8,299.8z"/>
				<path class="st1" d="M269.1,320.9c-1.1-0.9-1.3-2.5-0.3-3.6c0.9-1.1,2.6-1.2,3.6-0.2c0.5,0.5,0.8,1.1,0.8,1.7
					c0.1,0.6-0.1,1.3-0.6,1.8C271.7,321.6,270.2,321.8,269.1,320.9z"/>
				<path class="st1" d="M295.9,299.5c-8.7,4.6-17,10.3-23.8,17.6"/>
				<path class="st1" d="M268.9,320.8c-6.3,7.7-10.3,17-12.4,26.7"/>
			</g>
		</g>
	</g>
</g>
<g>
	<g>
		<g>
			<g>
				<path class="st2" d="M251.9,199c1.6,0.5,2.9,1.5,3.7,2.8c0.4,0.6,0.7,1.3,0.9,2c0.2,0.7,0.2,1.4,0.1,2.1c-0.1,0.7-0.4,1.4-0.7,2
					c-0.4,0.6-0.9,1.1-1.5,1.6c-1.1,0.9-2.7,1.5-4.4,1.5c-1.7,0-3.2-0.8-4.2-2c-0.5-0.6-0.9-1.4-1.1-2.2c-0.2-0.8-0.3-1.8-0.1-2.7
					c0.2-0.9,0.5-1.8,0.9-2.5c0.5-0.7,1.1-1.3,1.8-1.8C248.6,198.7,250.3,198.5,251.9,199z"/>
				<path class="st2" d="M312.8,148.2c0.4,1.6,0.2,3.3-0.5,4.6c-0.7,1.4-1.9,2.4-3.4,2.9c-3,1-6.3-0.6-7.6-3.8
					c-1.2-3.1,0.4-6.7,3.8-7.8c1.7-0.5,3.4-0.3,4.8,0.4C311.4,145.2,312.4,146.5,312.8,148.2z"/>
				<path class="st2" d="M252.2,199.7c0.8-2.8,1.8-5.6,3.1-8.3c1.3-2.7,2.7-5.3,4.4-7.7c1.7-2.4,3.5-4.8,5.5-7
					c2-2.2,4.1-4.3,6.3-6.3c8.9-7.9,19.3-13.9,30.4-18.2"/>
				<path class="st2" d="M313,148.6c5.7-1.5,11.6-2.6,17.5-3.1c5.9-0.5,11.9-0.5,17.8,0.1c5.9,0.6,11.7,1.9,17.3,3.9
					c2.8,0.9,5.5,2.2,8.2,3.5c2.6,1.4,5.2,2.9,7.6,4.6"/>
			</g>
			<g>
				<path class="st2" d="M391.5,165.8c-1.2,1.1-2.8,1.7-4.3,1.7c-1.5,0.1-2.9-0.4-4.1-1.4c-1.1-1-1.7-2.4-1.9-3.9
					c-0.1-1.5,0.2-3.1,1.2-4.5c1-1.4,2.5-2.2,4-2.3c1.6-0.2,3.4,0.3,4.7,1.6c1.4,1.2,2.1,2.9,2.1,4.5
					C393.4,163.1,392.8,164.6,391.5,165.8z"/>
				<path class="st2" d="M408.8,243.4c-1.6-0.5-2.8-1.5-3.7-2.8c-0.4-0.6-0.7-1.3-0.8-2c-0.1-0.7-0.1-1.4,0-2.2
					c0.3-1.5,1.2-2.7,2.4-3.6c1.2-0.9,2.8-1.3,4.5-1.2c1.7,0.2,3.1,1,4.1,2.3c1,1.3,1.3,3,1,4.8c-0.1,0.9-0.5,1.7-1,2.4
					c-0.5,0.7-1.1,1.3-1.8,1.7C412.2,243.7,410.4,243.9,408.8,243.4z"/>
				<path class="st2" d="M390.8,165.7c8.1,8.7,13.7,19.5,16.8,31c1.6,5.7,2.6,11.6,3.2,17.5c0.6,5.9,0.6,11.9-0.1,17.8"/>
				<path class="st2" d="M408.4,243.3c-1.7,5.7-4.2,11.1-7.4,16.1c-3.2,5-7,9.6-11.2,13.8c-8.4,8.4-18.3,15.3-28.4,21.5"/>
			</g>
			<g>
				<path class="st2" d="M350.4,301.7c-1.6-2.9-0.7-6.6,2.2-8.3c2.8-1.6,6.5-0.7,8.3,2.2c1.8,2.9,0.8,6.6-2.1,8.4
					C355.8,305.7,352,304.7,350.4,301.7z"/>
				<path class="st2" d="M280.3,345.3c-2.3-2.5-2-6.4,0.7-8.7c2.7-2.2,6.6-1.7,8.6,1c2,2.7,1.6,6.4-0.9,8.4
					C286.3,348.1,282.6,347.8,280.3,345.3z"/>
				<path class="st2" d="M350.7,301.1c-10.4,5.9-21,11.4-31.4,17.2c-10.4,5.8-20.7,12-30.2,19.3"/>
				<path class="st2" d="M280,345c-8.9,8-16.6,17.5-21.7,28.4c-5.1,10.9-7.4,23-7.4,35"/>
			</g>
		</g>
	</g>
</g>
<g>
	<g>
		<g>
			<g>
				<path class="st3" d="M230.7,246.5c1-1,2.7-0.9,3.6,0.2c0.9,1.1,0.7,2.7-0.4,3.5c-1.1,0.9-2.7,0.7-3.5-0.3
					C229.6,248.9,229.7,247.4,230.7,246.5z"/>
				<path class="st3" d="M202.8,228.1c0.2-0.7,0.7-1.2,1.3-1.5c0.6-0.3,1.3-0.3,1.9,0c1.3,0.5,1.9,2,1.4,3.3c-0.6,1.3-2,1.9-3.2,1.5
					c-0.6-0.2-1.1-0.7-1.3-1.3C202.6,229.4,202.5,228.8,202.8,228.1z"/>
				<path class="st3" d="M231.1,246.5c-6.6-7.3-14.8-12.9-23.8-16.8"/>
				<path class="st3" d="M202.8,227.9c-9.2-3.3-19.1-4.7-28.9-3.8"/>
			</g>
			<g>
				<path class="st3" d="M168.7,225c-0.3-1.4,0.7-2.8,2.1-2.9c1.4-0.2,2.7,0.8,2.8,2.2c0.1,1.4-0.8,2.7-2.1,2.8
					C170.2,227.3,168.9,226.4,168.7,225z"/>
				<path class="st3" d="M139.5,240.9c-1.1-0.9-1.1-2.6-0.1-3.6c1.1-1,2.7-0.9,3.6,0.1c0.9,1.1,0.9,2.6,0,3.5
					C142.2,241.8,140.6,241.8,139.5,240.9z"/>
				<path class="st3" d="M168.9,224.8c-4.8,0.9-9.5,2.3-14,4.4c-4.4,2.1-8.5,4.9-12.1,8.2"/>
				<path class="st3" d="M139.4,240.8l-1.2,1.4l-1.1,1.4c-0.7,1-1.5,1.9-2.2,3c-0.7,1-1.3,2-2,3.1l-1.7,3.2l-0.4,0.8l-0.4,0.8
					l-0.7,1.7c-0.5,1.1-1,2.2-1.4,3.4l-1.2,3.5c-0.3,1.2-0.6,2.4-1,3.5"/>
			</g>
			<g>
				<path class="st3" d="M125,271.8c-1.4-0.2-2.3-1.6-2-3c0.3-1.4,1.7-2.2,3.1-1.9c1.4,0.4,2.1,1.7,1.9,2.9
					C127.7,271.2,126.4,272.1,125,271.8z"/>
				<path class="st3" d="M132.3,303.8c-1.1,0.8-2.7,0.6-3.5-0.6c-0.8-1.2-0.4-2.8,0.8-3.5c1.2-0.7,2.8-0.4,3.4,0.7
					C133.8,301.5,133.5,303,132.3,303.8z"/>
				<path class="st3" d="M124.9,271.6c-0.9,4.8-1,9.8-0.3,14.6c0.1,0.6,0.2,1.2,0.3,1.8c0.1,0.6,0.2,1.2,0.4,1.8
					c0.4,1.2,0.6,2.4,1.1,3.5c0.8,2.3,1.9,4.5,3.1,6.6"/>
				<path class="st3" d="M132.2,304c2.9,3.9,6.4,7.4,10.2,10.6c3.8,3.1,7.8,5.9,11.9,8.5"/>
			</g>
			<g>
				<path class="st3" d="M158.9,325.7c-0.7,1.2-2.3,1.6-3.4,0.9c-1.2-0.7-1.5-2.3-0.8-3.5c0.7-1.2,2.3-1.6,3.4-0.9
					C159.3,322.9,159.6,324.5,158.9,325.7z"/>
				<path class="st3" d="M188.9,341.4c-0.6,1.3-2.1,1.8-3.3,1.2c-1.2-0.6-1.7-2.1-1.1-3.4c0.6-1.3,2.1-1.8,3.4-1.2
					C189,338.6,189.5,340.1,188.9,341.4z"/>
				<path class="st3" d="M158.6,325.7c8.4,5,17.2,9.3,25.9,13.7"/>
				<path class="st3" d="M188.8,341.6c8.7,4.4,17.4,8.9,25.7,14"/>
			</g>
			<g>
				<path class="st3" d="M219.1,358.3c-0.8,1.2-2.3,1.5-3.4,0.8c-1.1-0.7-1.4-2.3-0.7-3.5c0.7-1.2,2.3-1.6,3.5-0.8
					C219.5,355.6,219.8,357.1,219.1,358.3z"/>
				<path class="st3" d="M243.3,381.5c-1.2,0.8-2.7,0.5-3.5-0.6c-0.8-1-0.5-2.6,0.6-3.5c1.1-0.9,2.7-0.6,3.6,0.5
					C244.8,379.2,244.5,380.8,243.3,381.5z"/>
				<path class="st3" d="M218.7,358.3c8.1,5.4,15.7,11.6,21.7,19.4"/>
				<path class="st3" d="M243.2,381.6c5.3,8.2,8,17.9,8,27.6"/>
			</g>
		</g>
	</g>
</g>
<g>
	<g>
		<g>
			<g>
				<path class="st4" d="M253.3,255.9c1.2-0.3,2.5,0,3.4,0.7c0.9,0.7,1.7,1.9,1.9,3.3c0.1,1.4-0.2,2.7-1,3.6
					c-0.8,0.9-1.9,1.5-3.2,1.5c-1.3,0-2.4-0.5-3.3-1.2c-0.8-0.7-1.5-1.7-1.6-2.9C249.3,258.8,250.9,256.5,253.3,255.9z"/>
				<path class="st4" d="M212.8,210.2c1.1-2.3,4-3.1,6.3-1.8c1.1,0.7,1.9,1.7,2.2,2.9c0.3,1.2,0.1,2.4-0.5,3.5
					c-0.7,1.1-1.7,1.8-2.8,2c-1.1,0.3-2.3,0.2-3.4-0.4C212.5,215.2,211.7,212.4,212.8,210.2z"/>
				<path class="st4" d="M253.8,256.3c-1.9-9-6.4-17.3-12.2-24.3c-5.9-7-13-12.9-20.8-17.7"/>
				<path class="st4" d="M212.9,209.8c-8.2-4.1-16.8-7.2-25.8-9.2c-8.9-1.9-18.1-2.8-27.2-2.2"/>
			</g>
			<g>
				<path class="st4" d="M150,200c-0.5-2.5,1.3-4.9,4-5.2c1.3-0.1,2.6,0.2,3.5,1c0.9,0.8,1.5,1.9,1.6,3.1c0.1,1.3-0.3,2.4-1.1,3.3
					c-0.7,0.9-1.8,1.5-2.9,1.7C152.8,204.2,150.5,202.5,150,200z"/>
				<path class="st4" d="M101.6,236.6c-1.1-0.5-1.9-1.5-2.3-2.7c-0.4-1.1-0.2-2.5,0.4-3.7c0.6-1.2,1.8-2,2.9-2.3
					c1.2-0.3,2.4-0.1,3.5,0.6c1.1,0.7,1.8,1.7,2,2.9c0.3,1.1,0.1,2.3-0.4,3.3c-0.6,1-1.5,1.7-2.6,2.1
					C104,237.2,102.8,237.1,101.6,236.6z"/>
				<path class="st4" d="M150.4,199.6c-9,1.6-17.8,4.8-25.5,9.7c-7.7,4.9-14.3,11.6-19.3,19.3"/>
				<path class="st4" d="M101.3,236.5c-1,2-1.9,4.2-2.7,6.3c-0.8,2.2-1.5,4.3-2.1,6.5c-0.7,2.2-1.1,4.4-1.7,6.6
					c-0.4,2.2-0.9,4.5-1.2,6.7c-1.4,9-1.6,18.3-0.1,27.3"/>
			</g>
			<g>
				<path class="st4" d="M96.2,299.6c-1.2,0.4-2.4,0.3-3.5-0.3c-1-0.6-1.9-1.6-2.2-3c-0.3-1.3-0.2-2.6,0.5-3.7c0.7-1,1.7-1.8,2.9-2
					c1.2-0.2,2.5,0.1,3.4,0.7c0.9,0.6,1.7,1.5,2,2.7c0.3,1.2,0.1,2.3-0.5,3.3C98.4,298.4,97.4,299.2,96.2,299.6z"/>
				<path class="st4" d="M136.8,346.4c-1.4,2.1-4.3,2.6-6.4,1.1c-2.1-1.5-2.6-4.4-1.1-6.4c1.5-2,4.3-2.4,6.4-1
					C137.7,341.5,138.2,344.3,136.8,346.4z"/>
				<path class="st4" d="M95.8,299.3c2.8,8.7,7.5,16.8,13.4,23.8c5.9,7,12.8,13.1,20.1,18.5"/>
				<path class="st4" d="M136.6,346.8c15.1,10.3,31.2,18.9,46.7,28.5"/>
			</g>
			<g>
				<path class="st4" d="M191.9,380.3c-1.4,2.1-4.2,2.7-6.3,1.4c-2.1-1.4-2.8-4.2-1.4-6.3c1.3-2.1,4.2-2.8,6.4-1.4
					C192.7,375.3,193.3,378.2,191.9,380.3z"/>
				<path class="st4" d="M237.3,423.4c-1.1,0.7-2.3,0.8-3.4,0.6c-1.1-0.2-2.1-0.9-2.8-1.9c-0.7-1-0.9-2.2-0.7-3.3
					c0.2-1.1,0.8-2.2,1.8-3c1-0.8,2.2-1,3.4-0.8c1.2,0.2,2.3,0.9,3,2c0.8,1.1,1,2.4,0.7,3.6C239.1,421.7,238.4,422.7,237.3,423.4z"
					/>
				<path class="st4" d="M191.3,380.3c7.6,5,15,10.3,21.9,16.2c3.5,2.9,6.8,6,9.9,9.3c3.1,3.3,6.1,6.7,8.8,10.4"/>
				<path class="st4" d="M237.1,423.6c4.8,7.7,8.3,16.2,10.6,25c0.3,1.1,0.6,2.2,0.8,3.3c0.2,1.1,0.5,2.2,0.7,3.3
					c0.4,2.2,0.8,4.5,1,6.7c0.6,4.5,0.7,9.1,0.8,13.6"/>
			</g>
		</g>
	</g>
</g>
<g>
	<g>
		<g>
			<path class="st5" d="M36.9,276.3c1.6-0.4,3.4,0.6,3.9,2.2c0.5,1.7-0.4,3.5-1.9,4c-1.6,0.6-3.3-0.4-3.9-2.2
				C34.4,278.6,35.3,276.8,36.9,276.3z"/>
			<path class="st5" d="M34.4,231.7c1.7,0.3,2.8,1.9,2.6,3.6c-0.3,1.7-1.7,3-3.4,2.9c-1.7-0.1-3-1.8-2.7-3.6
				C31.2,232.7,32.8,231.4,34.4,231.7z"/>
			<path class="st5" d="M37.2,276.6c-0.1-0.4-0.2-0.8-0.3-1.2l-0.3-1.2l-0.5-2.4c-0.3-1.6-0.8-3.2-1-4.8l-0.7-4.8
				c-0.1-0.8-0.3-1.6-0.3-2.4l-0.2-2.4l-0.4-4.9c0-1.6,0-3.2,0-4.9c-0.1-3.2,0.3-6.5,0.4-9.7"/>
			<path class="st5" d="M34.7,231.7c1.9-12.8,6.4-25.2,12.9-36.5"/>
		</g>
		<g>
			<path class="st5" d="M51.1,189.1c1.4,0.9,1.7,2.9,0.8,4.4c-0.5,0.7-1.2,1.2-1.9,1.5c-0.8,0.2-1.6,0.2-2.3-0.3
				c-0.7-0.4-1.2-1.1-1.4-1.9c-0.2-0.8-0.1-1.7,0.5-2.5C47.7,188.6,49.7,188.1,51.1,189.1z"/>
			<path class="st5" d="M83.2,158c0.9,1.4,0.4,3.3-1.1,4.3c-1.4,1-3.4,0.7-4.4-0.7c-1-1.4-0.5-3.3,1-4.4
				C80.3,156.2,82.3,156.6,83.2,158z"/>
			<path class="st5" d="M51.1,189.5c7.2-10.8,16.3-20.3,26.9-27.8"/>
			<path class="st5" d="M83.4,158.2c11-6.9,23.3-11.7,36-14.1"/>
		</g>
		<g>
			<path class="st5" d="M126.4,142.8c0.2,1.7-1.1,3.2-2.8,3.4c-1.7,0.3-3.4-0.8-3.7-2.5c-0.3-1.7,0.9-3.2,2.8-3.6
				C124.5,139.9,126.2,141.1,126.4,142.8z"/>
			<path class="st5" d="M170.9,146.9c-0.5,1.6-2.3,2.4-4,2c-1.7-0.4-2.8-2.1-2.4-3.8c0.4-1.6,2.2-2.6,4-2.1
				C170.4,143.5,171.4,145.3,170.9,146.9z"/>
			<path class="st5" d="M126.1,143.1c12.9-1.6,26-0.8,38.6,2.3"/>
			<path class="st5" d="M170.9,147.1c12.4,3.9,24,10,34.2,18.1"/>
		</g>
		<g>
			<polygon class="st6" points="186.7,162.8 202.4,163.3 200.3,147.7 219.4,178.7 			"/>
			<polygon class="st0" points="192.3,163.9 216.6,176.1 203.8,164.6 			"/>
		</g>
	</g>
</g>
<g>
	<g>
		<g>
			<path class="st7" d="M468.9,199.3c-1.7,0.2-3.2-0.8-3.4-2.3c-0.2-1.4,1-2.8,2.7-3.1c1.7-0.2,3.2,0.8,3.4,2.3
				C471.8,197.7,470.6,199.1,468.9,199.3z"/>
			<path class="st7" d="M468.7,236.3c-1.7-0.2-2.9-1.6-2.7-3c0.2-1.5,1.6-2.5,3.3-2.4c1.7,0.1,2.9,1.5,2.7,3
				C471.8,235.4,470.4,236.5,468.7,236.3z"/>
			<path class="st7" d="M468.7,199c1.2,10.6,1.4,21.4,0.4,32"/>
			<path class="st7" d="M468.5,236.3c-1.3,10.6-3.8,21.1-7.3,31.2"/>
		</g>
		<g>
			<path class="st7" d="M459.3,273c-1.6-0.6-2.4-2.2-1.9-3.6c0.5-1.4,2.2-2.1,3.7-1.5c1.6,0.6,2.5,2.2,2,3.6
				C462.6,273,460.9,273.6,459.3,273z"/>
			<path class="st7" d="M441.9,305.7c-1.4-1-1.8-2.7-1-3.9c0.8-1.2,2.6-1.5,4-0.6c1.4,0.9,1.9,2.7,1,3.9
				C445.1,306.4,443.3,306.6,441.9,305.7z"/>
			<path class="st7" d="M459.2,272.7c-3.9,10-8.8,19.5-14.5,28.5"/>
			<path class="st7" d="M441.7,305.6l-1.1,1.7l-1.2,1.6L437,312c-1.6,2.1-3.4,4.1-5.1,6.2c-1.8,2-3.5,4-5.4,5.9
				c-1.9,1.9-3.7,3.9-5.7,5.6"/>
		</g>
		<g>
			<path class="st7" d="M416.6,333.9c-1.1-1.3-1.1-3,0-4.1c1.1-1,2.9-0.8,4,0.4c1.2,1.2,1.2,3.1,0.1,4.1
				C419.6,335.5,417.8,335.2,416.6,333.9z"/>
			<path class="st7" d="M386.1,354.8c-0.8-1.5-0.4-3.3,0.9-3.9c1.3-0.7,3-0.1,3.8,1.3c0.8,1.4,0.5,3.3-0.9,4
				C388.6,357,386.9,356.3,386.1,354.8z"/>
			<path class="st7" d="M416.7,333.6c-8,7-16.8,13.3-26.1,18.6"/>
			<path class="st7" d="M386,354.7c-9.5,4.9-19.5,8.9-29.7,11.8"/>
		</g>
		<g>
			<polygon class="st8" points="368.7,352.9 359.3,365.5 373.4,372.6 337,370.8 			"/>
			<polygon class="st0" points="364.5,356.9 340.8,369.9 357.5,365.9 			"/>
		</g>
	</g>
</g>
</svg>
