<?xml version="1.0" encoding="utf-8"?>
<!-- Generator: Adobe Illustrator 23.0.4, SVG Export Plug-In . SVG Version: 6.00 Build 0)  -->
<svg version="1.1" id="Layer_1" xmlns="http://www.w3.org/2000/svg" xmlns:xlink="http://www.w3.org/1999/xlink" x="0px" y="0px"
	 viewBox="0 0 512 512" style="enable-background:new 0 0 512 512;" xml:space="preserve">
<style type="text/css">
	.st0{fill:none;stroke:#404751;stroke-width:0.8;stroke-miterlimit:10;}
	.st1{fill:#404751;}
	.st2{fill:#FFFFFF;}
	.st3{fill:none;stroke:#768293;stroke-width:1.1679;stroke-miterlimit:10;}
	.st4{fill:none;stroke:#C1C8D3;stroke-width:1.2678;stroke-miterlimit:10;}
	.st5{fill:none;stroke:#D77526;stroke-width:3.1;stroke-miterlimit:10;}
	.st6{fill:#D77526;}
	.st7{fill:none;stroke:#768293;stroke-width:1.394;stroke-miterlimit:10;}
	.st8{fill:#768293;}
</style>
<g>
	<g>
		<g>
			<g>
				<g>
					<path class="st0" d="M304,46.8c-1.3,0-2.4-1-2.4-2.2c0-1.2,1.1-2.2,2.4-2.2c1.3,0,2.4,1,2.4,2.2
						C306.5,45.8,305.4,46.8,304,46.8z"/>
					<path class="st0" d="M304,76.8c-1.3,0-2.4-1-2.4-2.2c0-1.2,1.1-2.2,2.4-2.2c1.3,0,2.4,1,2.4,2.2
						C306.5,75.8,305.4,76.8,304,76.8z"/>
					<line class="st0" x1="303.9" y1="46.6" x2="303.9" y2="72.6"/>
					<line class="st0" x1="303.9" y1="76.8" x2="303.9" y2="102.8"/>
				</g>
				<g>
					<path class="st0" d="M304,107.6c-1.3,0-2.4-1-2.4-2.2c0-1.2,1.1-2.2,2.4-2.2c1.3,0,2.4,1,2.4,2.2
						C306.5,106.6,305.4,107.6,304,107.6z"/>
					<path class="st0" d="M304,137.6c-1.3,0-2.4-1-2.4-2.2c0-1.2,1.1-2.2,2.4-2.2c1.3,0,2.4,1,2.4,2.2
						C306.5,136.6,305.4,137.6,304,137.6z"/>
					<line class="st0" x1="303.9" y1="107.3" x2="303.9" y2="133.3"/>
					<line class="st0" x1="303.9" y1="137.6" x2="303.9" y2="163.6"/>
				</g>
				<g>
					<path class="st0" d="M304,168.3c-1.3,0-2.4-1-2.4-2.2c0-1.2,1.1-2.2,2.4-2.2c1.3,0,2.4,1,2.4,2.2
						C306.5,167.3,305.4,168.3,304,168.3z"/>
					<path class="st0" d="M304,198.3c-1.3,0-2.4-1-2.4-2.2c0-1.2,1.1-2.2,2.4-2.2c1.3,0,2.4,1,2.4,2.2
						C306.5,197.3,305.4,198.3,304,198.3z"/>
					<line class="st0" x1="303.9" y1="168.1" x2="303.9" y2="194.1"/>
					<line class="st0" x1="303.9" y1="198.3" x2="303.9" y2="224.3"/>
				</g>
			</g>
		</g>
	</g>
	<g>
		<g>
			<g>
				<g>
					<path class="st0" d="M295.4,76.6c-1.3,0-2.4-1-2.4-2.2c0-1.2,1.1-2.2,2.4-2.2c1.3,0,2.4,1,2.4,2.2
						C297.8,75.6,296.7,76.6,295.4,76.6z"/>
					<path class="st0" d="M295.4,106.6c-1.3,0-2.4-1-2.4-2.2c0-1.2,1.1-2.2,2.4-2.2c1.3,0,2.4,1,2.4,2.2
						C297.8,105.6,296.7,106.6,295.4,106.6z"/>
					<line class="st0" x1="295.2" y1="76.3" x2="295.2" y2="102.3"/>
					<line class="st0" x1="295.2" y1="106.6" x2="295.2" y2="132.6"/>
				</g>
				<g>
					<path class="st0" d="M295.4,137.3c-1.3,0-2.4-1-2.4-2.2c0-1.2,1.1-2.2,2.4-2.2c1.3,0,2.4,1,2.4,2.2
						C297.8,136.3,296.7,137.3,295.4,137.3z"/>
					<path class="st0" d="M295.4,167.3c-1.3,0-2.4-1-2.4-2.2c0-1.2,1.1-2.2,2.4-2.2c1.3,0,2.4,1,2.4,2.2
						C297.8,166.3,296.7,167.3,295.4,167.3z"/>
					<line class="st0" x1="295.2" y1="137.1" x2="295.2" y2="163.1"/>
					<line class="st0" x1="295.2" y1="167.3" x2="295.2" y2="193.3"/>
				</g>
				<g>
					<path class="st0" d="M295.4,198c-1.3,0-2.4-1-2.4-2.2c0-1.2,1.1-2.2,2.4-2.2c1.3,0,2.4,1,2.4,2.2
						C297.8,197.1,296.7,198,295.4,198z"/>
					<path class="st0" d="M295.4,228c-1.3,0-2.4-1-2.4-2.2c0-1.2,1.1-2.2,2.4-2.2c1.3,0,2.4,1,2.4,2.2
						C297.8,227.1,296.7,228,295.4,228z"/>
					<line class="st0" x1="295.2" y1="197.8" x2="295.2" y2="223.8"/>
					<line class="st0" x1="295.2" y1="228.1" x2="295.2" y2="254"/>
				</g>
			</g>
		</g>
	</g>
	<g>
		<g>
			<g>
				<g>
					<path class="st0" d="M286.7,106.6c-1.3,0-2.4-1-2.4-2.2c0-1.2,1.1-2.2,2.4-2.2c1.3,0,2.4,1,2.4,2.2
						C289.1,105.6,288,106.6,286.7,106.6z"/>
					<path class="st0" d="M286.7,136.6c-1.3,0-2.4-1-2.4-2.2c0-1.2,1.1-2.2,2.4-2.2c1.3,0,2.4,1,2.4,2.2
						C289.1,135.6,288,136.6,286.7,136.6z"/>
					<line class="st0" x1="286.5" y1="106.3" x2="286.5" y2="132.3"/>
					<line class="st0" x1="286.5" y1="136.6" x2="286.5" y2="162.6"/>
				</g>
				<g>
					<path class="st0" d="M286.7,167.3c-1.3,0-2.4-1-2.4-2.2c0-1.2,1.1-2.2,2.4-2.2c1.3,0,2.4,1,2.4,2.2
						C289.1,166.3,288,167.3,286.7,167.3z"/>
					<path class="st0" d="M286.7,197.3c-1.3,0-2.4-1-2.4-2.2c0-1.2,1.1-2.2,2.4-2.2c1.3,0,2.4,1,2.4,2.2
						C289.1,196.3,288,197.3,286.7,197.3z"/>
					<line class="st0" x1="286.5" y1="167.1" x2="286.5" y2="193.1"/>
					<line class="st0" x1="286.5" y1="197.3" x2="286.5" y2="223.3"/>
				</g>
				<g>
					<path class="st0" d="M286.7,228c-1.3,0-2.4-1-2.4-2.2c0-1.2,1.1-2.2,2.4-2.2c1.3,0,2.4,1,2.4,2.2
						C289.1,227.1,288,228,286.7,228z"/>
					<path class="st0" d="M286.7,258c-1.3,0-2.4-1-2.4-2.2c0-1.2,1.1-2.2,2.4-2.2c1.3,0,2.4,1,2.4,2.2
						C289.1,257.1,288,258,286.7,258z"/>
					<line class="st0" x1="286.5" y1="227.8" x2="286.5" y2="253.8"/>
					<line class="st0" x1="286.5" y1="258.1" x2="286.5" y2="284"/>
				</g>
			</g>
		</g>
	</g>
	<g>
		<g>
			<g>
				<path class="st0" d="M278,137c-1.3,0-2.4-1-2.4-2.2c0-1.2,1.1-2.2,2.4-2.2c1.3,0,2.4,1,2.4,2.2C280.4,136.1,279.3,137,278,137z"
					/>
				<path class="st0" d="M278,166.8c-1.3,0-2.4-1-2.4-2.2c0-1.2,1.1-2.2,2.4-2.2c1.3,0,2.4,1,2.4,2.2
					C280.4,165.9,279.3,166.8,278,166.8z"/>
				<line class="st0" x1="277.8" y1="136.8" x2="277.8" y2="162.6"/>
				<line class="st0" x1="277.8" y1="166.9" x2="277.8" y2="192.7"/>
			</g>
			<g>
				<path class="st0" d="M278,197.4c-1.3,0-2.4-1-2.4-2.2c0-1.2,1.1-2.2,2.4-2.2c1.3,0,2.4,1,2.4,2.2
					C280.4,196.4,279.3,197.4,278,197.4z"/>
				<path class="st0" d="M278,227.1c-1.3,0-2.4-1-2.4-2.2c0-1.2,1.1-2.2,2.4-2.2c1.3,0,2.4,1,2.4,2.2
					C280.4,226.2,279.3,227.1,278,227.1z"/>
				<line class="st0" x1="277.8" y1="197.1" x2="277.8" y2="222.9"/>
				<line class="st0" x1="277.8" y1="227.2" x2="277.8" y2="253"/>
			</g>
			<g>
				<path class="st0" d="M278,257.7c-1.3,0-2.4-1-2.4-2.2c0-1.2,1.1-2.2,2.4-2.2c1.3,0,2.4,1,2.4,2.2
					C280.4,256.7,279.3,257.7,278,257.7z"/>
				<path class="st0" d="M278,287.5c-1.3,0-2.4-1-2.4-2.2c0-1.2,1.1-2.2,2.4-2.2c1.3,0,2.4,1,2.4,2.2
					C280.4,286.5,279.3,287.5,278,287.5z"/>
				<line class="st0" x1="277.8" y1="257.5" x2="277.8" y2="283.2"/>
				<line class="st0" x1="277.8" y1="287.5" x2="277.8" y2="313.3"/>
			</g>
			<g>
				<polygon class="st1" points="268.6,299.1 278,310.3 287.4,299.1 278,331.6 				"/>
				<polygon class="st2" points="271.3,303.7 278,328 278,312 				"/>
			</g>
		</g>
	</g>
	<g>
		<g>
			<g>
				<g>
					<path class="st0" d="M269.3,106.6c-1.3,0-2.4-1-2.4-2.2c0-1.2,1.1-2.2,2.4-2.2c1.3,0,2.4,1,2.4,2.2
						C271.8,105.6,270.7,106.6,269.3,106.6z"/>
					<path class="st0" d="M269.3,136.6c-1.3,0-2.4-1-2.4-2.2c0-1.2,1.1-2.2,2.4-2.2c1.3,0,2.4,1,2.4,2.2
						C271.8,135.6,270.7,136.6,269.3,136.6z"/>
					<line class="st0" x1="269.1" y1="106.3" x2="269.1" y2="132.3"/>
					<line class="st0" x1="269.1" y1="136.6" x2="269.1" y2="162.6"/>
				</g>
				<g>
					<path class="st0" d="M269.3,167.3c-1.3,0-2.4-1-2.4-2.2c0-1.2,1.1-2.2,2.4-2.2c1.3,0,2.4,1,2.4,2.2
						C271.8,166.3,270.7,167.3,269.3,167.3z"/>
					<path class="st0" d="M269.3,197.3c-1.3,0-2.4-1-2.4-2.2c0-1.2,1.1-2.2,2.4-2.2c1.3,0,2.4,1,2.4,2.2
						C271.8,196.3,270.7,197.3,269.3,197.3z"/>
					<line class="st0" x1="269.1" y1="167.1" x2="269.1" y2="193.1"/>
					<line class="st0" x1="269.1" y1="197.3" x2="269.1" y2="223.3"/>
				</g>
				<g>
					<path class="st0" d="M269.3,228c-1.3,0-2.4-1-2.4-2.2c0-1.2,1.1-2.2,2.4-2.2c1.3,0,2.4,1,2.4,2.2
						C271.8,227.1,270.7,228,269.3,228z"/>
					<path class="st0" d="M269.3,258c-1.3,0-2.4-1-2.4-2.2c0-1.2,1.1-2.2,2.4-2.2c1.3,0,2.4,1,2.4,2.2
						C271.8,257.1,270.7,258,269.3,258z"/>
					<line class="st0" x1="269.1" y1="227.8" x2="269.1" y2="253.8"/>
					<line class="st0" x1="269.1" y1="258.1" x2="269.1" y2="284"/>
				</g>
			</g>
		</g>
	</g>
	<g>
		<g>
			<g>
				<g>
					<path class="st0" d="M260.6,76.6c-1.3,0-2.4-1-2.4-2.2c0-1.2,1.1-2.2,2.4-2.2c1.3,0,2.4,1,2.4,2.2
						C263.1,75.6,262,76.6,260.6,76.6z"/>
					<path class="st0" d="M260.6,106.6c-1.3,0-2.4-1-2.4-2.2c0-1.2,1.1-2.2,2.4-2.2c1.3,0,2.4,1,2.4,2.2
						C263.1,105.6,262,106.6,260.6,106.6z"/>
					<line class="st0" x1="260.5" y1="76.3" x2="260.5" y2="102.3"/>
					<line class="st0" x1="260.5" y1="106.6" x2="260.5" y2="132.6"/>
				</g>
				<g>
					<path class="st0" d="M260.6,137.3c-1.3,0-2.4-1-2.4-2.2c0-1.2,1.1-2.2,2.4-2.2c1.3,0,2.4,1,2.4,2.2
						C263.1,136.3,262,137.3,260.6,137.3z"/>
					<path class="st0" d="M260.6,167.3c-1.3,0-2.4-1-2.4-2.2c0-1.2,1.1-2.2,2.4-2.2c1.3,0,2.4,1,2.4,2.2
						C263.1,166.3,262,167.3,260.6,167.3z"/>
					<line class="st0" x1="260.5" y1="137.1" x2="260.5" y2="163.1"/>
					<line class="st0" x1="260.5" y1="167.3" x2="260.5" y2="193.3"/>
				</g>
				<g>
					<path class="st0" d="M260.6,198c-1.3,0-2.4-1-2.4-2.2c0-1.2,1.1-2.2,2.4-2.2c1.3,0,2.4,1,2.4,2.2
						C263.1,197.1,262,198,260.6,198z"/>
					<path class="st0" d="M260.6,228c-1.3,0-2.4-1-2.4-2.2c0-1.2,1.1-2.2,2.4-2.2c1.3,0,2.4,1,2.4,2.2
						C263.1,227.1,262,228,260.6,228z"/>
					<line class="st0" x1="260.5" y1="197.8" x2="260.5" y2="223.8"/>
					<line class="st0" x1="260.5" y1="228.1" x2="260.5" y2="254"/>
				</g>
			</g>
		</g>
	</g>
	<g>
		<g>
			<g>
				<g>
					<path class="st0" d="M252,46.8c-1.3,0-2.4-1-2.4-2.2c0-1.2,1.1-2.2,2.4-2.2c1.3,0,2.4,1,2.4,2.2
						C254.4,45.8,253.3,46.8,252,46.8z"/>
					<path class="st0" d="M252,76.8c-1.3,0-2.4-1-2.4-2.2c0-1.2,1.1-2.2,2.4-2.2c1.3,0,2.4,1,2.4,2.2
						C254.4,75.8,253.3,76.8,252,76.8z"/>
					<line class="st0" x1="251.8" y1="46.6" x2="251.8" y2="72.6"/>
					<line class="st0" x1="251.8" y1="76.8" x2="251.8" y2="102.8"/>
				</g>
				<g>
					<path class="st0" d="M252,107.6c-1.3,0-2.4-1-2.4-2.2c0-1.2,1.1-2.2,2.4-2.2c1.3,0,2.4,1,2.4,2.2
						C254.4,106.6,253.3,107.6,252,107.6z"/>
					<path class="st0" d="M252,137.6c-1.3,0-2.4-1-2.4-2.2c0-1.2,1.1-2.2,2.4-2.2c1.3,0,2.4,1,2.4,2.2
						C254.4,136.6,253.3,137.6,252,137.6z"/>
					<line class="st0" x1="251.8" y1="107.3" x2="251.8" y2="133.3"/>
					<line class="st0" x1="251.8" y1="137.6" x2="251.8" y2="163.6"/>
				</g>
				<g>
					<path class="st0" d="M252,168.3c-1.3,0-2.4-1-2.4-2.2c0-1.2,1.1-2.2,2.4-2.2c1.3,0,2.4,1,2.4,2.2
						C254.4,167.3,253.3,168.3,252,168.3z"/>
					<path class="st0" d="M252,198.3c-1.3,0-2.4-1-2.4-2.2c0-1.2,1.1-2.2,2.4-2.2c1.3,0,2.4,1,2.4,2.2
						C254.4,197.3,253.3,198.3,252,198.3z"/>
					<line class="st0" x1="251.8" y1="168.1" x2="251.8" y2="194.1"/>
					<line class="st0" x1="251.8" y1="198.3" x2="251.8" y2="224.3"/>
				</g>
			</g>
		</g>
	</g>
</g>
<g>
	<g>
		<g>
			<g>
				<path class="st3" d="M128.5,289.5c2,0,3.5,1.4,3.7,3.1c0.1,1.7-1.4,3.3-3.4,3.4c-2,0.1-3.6-1.2-3.7-3.1
					C124.9,291.1,126.5,289.6,128.5,289.5z"/>
				<path class="st3" d="M135.5,245.6c1.8,0.7,2.9,2.5,2.4,4.2c-0.5,1.7-2.5,2.6-4.4,2c-1.9-0.5-3-2.4-2.4-4.2
					C131.6,245.8,133.7,245,135.5,245.6z"/>
				<path class="st3" d="M128.8,289.8c-0.3-12.9,1.4-25.8,5.1-38.1"/>
				<path class="st3" d="M135.8,245.7c4.2-12.2,10.4-23.6,18.2-33.9"/>
			</g>
			<g>
				<path class="st3" d="M158.1,206.1c1.5,1.3,1.8,3.4,0.7,4.7c-1.1,1.4-3.2,1.6-4.8,0.4c-1.6-1.2-1.9-3.3-0.8-4.8
					C154.4,204.9,156.6,204.8,158.1,206.1z"/>
				<path class="st3" d="M192.3,177.6c1,1.7,0.5,3.8-1,4.7c-1.5,0.9-3.5,0.4-4.6-1.3c-1.1-1.6-0.7-3.8,0.9-4.8
					C189.2,175.3,191.3,175.9,192.3,177.6z"/>
				<path class="st3" d="M158.1,206.5c4.1-5,8.6-9.6,13.5-13.8c2.4-2.2,4.9-4.1,7.5-6.1c2.6-1.9,5.2-3.8,8-5.5"/>
				<path class="st3" d="M192.4,177.8c5.6-3.1,11.4-6,17.5-8.2c6-2.3,12.2-4.1,18.5-5.5"/>
			</g>
		</g>
	</g>
</g>
<g>
	<g>
		<g>
			<g>
				<path class="st4" d="M55.4,288c2.1,0,3.9,1.6,3.9,3.6c0,1.9-1.7,3.5-3.9,3.6c-2.1,0-3.9-1.6-3.9-3.6
					C51.6,289.5,53.3,287.9,55.4,288z"/>
				<path class="st4" d="M62,239.7c2.1,0.5,3.3,2.5,2.9,4.4c-0.5,1.9-2.5,3-4.6,2.6c-2.1-0.5-3.5-2.4-3-4.4
					C57.9,240.2,60,239.1,62,239.7z"/>
				<path class="st4" d="M55.7,288.3c0.2-14.1,1.9-28.1,5-41.9"/>
				<path class="st4" d="M62.3,239.7c0.8-3.4,1.9-6.8,2.9-10.2c0.5-1.7,1.1-3.3,1.7-5l1.7-5c2.6-6.6,5.3-13.1,8.5-19.4"/>
			</g>
			<g>
				<path class="st4" d="M80.4,193.2c1.9,1,2.6,3.2,1.7,4.9c-0.9,1.7-3.1,2.3-5,1.4c-1.9-1-2.7-3.2-1.8-5
					C76.2,192.7,78.6,192.2,80.4,193.2z"/>
				<path class="st4" d="M108.7,153.4c1.6,1.4,1.8,3.8,0.5,5.2c-0.7,0.7-1.6,1.1-2.5,1.1c-0.9,0-1.9-0.3-2.7-1
					c-0.8-0.7-1.3-1.6-1.4-2.6c-0.1-1,0.1-1.9,0.8-2.7C104.8,152.1,107.1,152,108.7,153.4z"/>
				<path class="st4" d="M80.5,193.6c6.8-12.4,14.7-24.1,23.8-34.8"/>
				<path class="st4" d="M108.9,153.6c9.4-10.5,20-19.9,31.4-28.2"/>
			</g>
			<g>
				<path class="st4" d="M146.5,120.7c1.2,1.8,0.8,4.1-0.7,5.2c-1.6,1-3.8,0.6-5.1-1.1c-1.2-1.7-1-4.1,0.7-5.2
					C143,118.4,145.3,118.9,146.5,120.7z"/>
				<path class="st4" d="M189.9,98.5c0.7,2-0.1,4.2-1.9,4.8c-1.8,0.6-3.9-0.3-4.7-2.3c-0.8-2,0-4.2,1.9-4.9
					C187,95.5,189.2,96.5,189.9,98.5z"/>
				<path class="st4" d="M146.3,121.2c11.7-7.9,24.2-14.5,37.2-19.9"/>
				<path class="st4" d="M190,98.8c13.2-4.9,26.9-8.4,40.9-10.5"/>
			</g>
		</g>
	</g>
</g>
<g>
	<path class="st2" d="M382.4,165.6c10.2,20.6,16.3,43.3,17.8,66.6c1.5,23.3-1.6,47-9.3,69.4c-7.6,22.4-19.8,43.5-35.7,61.5
		c-15.9,18.1-35.5,33.1-57.4,43.8l-0.1,0c-6.1,3-13.4,0.5-16.3-5.6c-3-6-0.5-13.4,5.6-16.3c0.3-0.1,0.6-0.3,0.9-0.4
		c19.8-7.8,38.2-19.5,53.7-34.5c15.5-15,28.2-33.2,36.9-53.4c8.8-20.1,13.6-42.2,13.9-64.5c0.4-22.3-3.7-44.8-12.1-65.9
		c-0.2-0.6,0.1-1.2,0.6-1.4C381.5,164.8,382.1,165.1,382.4,165.6L382.4,165.6z"/>
</g>
<g>
	<g>
		<g>
			<path class="st5" d="M166.5,428.9c-1.5,2.1-3.9,3.4-6.5,3.6c-1.3,0.1-2.7-0.1-4.1-0.5c-1.4-0.5-2.7-1.2-3.9-2.2
				c-1.2-1-2.2-2.2-2.9-3.4c-0.7-1.3-1.2-2.5-1.4-3.9c-0.4-2.6,0.3-5.2,2.1-7.1c1.8-1.9,4.3-2.9,6.8-2.9c1.3,0,2.6,0.2,3.8,0.6
				c1.2,0.4,2.4,1.1,3.5,2c1.1,0.9,2,1.9,2.6,3c0.7,1.1,1.2,2.3,1.4,3.6C168.3,424.2,168,426.8,166.5,428.9z"/>
			<path class="st5" d="M307.2,451.5c0.8,2.5,0.3,5.1-1.2,7.3c-0.7,1.1-1.7,2.1-2.9,2.9c-1.2,0.8-2.6,1.5-4.1,1.8
				c-1.5,0.3-3.1,0.4-4.5,0.2c-1.4-0.2-2.8-0.7-3.9-1.3c-2.3-1.3-3.9-3.4-4.3-6c-0.4-2.6,0.4-5.1,1.9-7.1c0.8-1,1.7-1.9,2.8-2.6
				c1.1-0.7,2.3-1.3,3.7-1.6c1.4-0.3,2.7-0.4,4-0.2c1.3,0.2,2.5,0.5,3.7,1.1C304.6,447,306.4,449,307.2,451.5z"/>
			<path class="st5" d="M165.2,428.9c17.4,12.4,37.3,21.3,58.1,26.1c20.8,4.8,42.6,5.5,63.7,2"/>
			<path class="st5" d="M307.5,452.1c20.5-6.2,39.7-16.4,56.2-30c16.5-13.6,30.3-30.4,40.4-49.3"/>
		</g>
		<g>
			<polygon class="st6" points="376.1,388.5 400.2,377 407.5,402.6 416.2,341.5 			"/>
			<polygon class="st2" points="384.1,382.9 413.5,347.5 401.5,374.1 			"/>
		</g>
	</g>
</g>
<g>
	<g>
		<g>
			<path class="st7" d="M154.8,161.4c-1.4-1.8-0.9-4.7,1.3-6.3c2.2-1.6,5.1-1.3,6.4,0.6c1.3,1.9,0.7,4.7-1.4,6.2
				C159.1,163.4,156.3,163.2,154.8,161.4z"/>
			<path class="st7" d="M112.5,211c-2-1.1-2.7-4-1.3-6.3c1.4-2.3,4.1-3.2,6.1-1.9c2,1.3,2.5,4.1,1.2,6.3
				C117.1,211.2,114.6,212.2,112.5,211z"/>
			<path class="st7" d="M155,160.8c-15,11.6-28,25.9-38.1,42"/>
			<path class="st7" d="M112.2,210.9c-9.2,16.6-15.5,34.9-18.4,53.7"/>
		</g>
		<g>
			<path class="st7" d="M92.8,274.9c-2.3-0.2-4.1-2.6-3.7-5.3c0.4-2.7,2.6-4.6,4.9-4.2c2.3,0.4,3.9,2.7,3.6,5.3
				C97.2,273.2,95.2,275.1,92.8,274.9z"/>
			<path class="st7" d="M100.1,339.8c-1.1,0.4-2.3,0.2-3.3-0.4c-1-0.6-1.8-1.7-2.2-3c-0.4-1.3-0.3-2.6,0.2-3.7
				c0.5-1.1,1.4-1.9,2.6-2.1c1.1-0.3,2.3,0,3.3,0.6c1,0.6,1.8,1.6,2.1,2.8c0.4,1.2,0.2,2.5-0.3,3.5
				C102,338.6,101.2,339.4,100.1,339.8z"/>
			<path class="st7" d="M92.5,274.4c-1.8,18.9-0.2,38.2,4.6,56.5"/>
			<path class="st7" d="M99.8,340c5.8,18.1,14.9,35.1,26.5,50.1"/>
		</g>
		<g>
			<polygon class="st8" points="124.2,366.6 124.5,386.4 104.9,383.3 143.3,408.2 			"/>
			<polygon class="st2" points="125.5,373.7 140.1,404.6 126,388.1 			"/>
		</g>
	</g>
</g>
</svg>
