<?xml version="1.0" encoding="utf-8"?>
<!-- Generator: Adobe Illustrator 23.0.4, SVG Export Plug-In . SVG Version: 6.00 Build 0)  -->
<svg version="1.1" id="Layer_1" xmlns="http://www.w3.org/2000/svg" xmlns:xlink="http://www.w3.org/1999/xlink" x="0px" y="0px"
	 viewBox="0 0 512 512" style="enable-background:new 0 0 512 512;" xml:space="preserve">
<style type="text/css">
	.st0{fill:#FFFFFF;}
	.st1{fill:none;stroke:#404851;stroke-width:0.8;stroke-miterlimit:10;}
	.st2{fill:#404851;}
	.st3{fill:none;stroke:#778394;stroke-width:1.27;stroke-miterlimit:10;}
	.st4{fill:none;stroke:#C2C9D4;stroke-width:2.3116;stroke-miterlimit:10;}
	.st5{fill:none;stroke:#C2C9D4;stroke-width:1.1558;stroke-miterlimit:10;}
	.st6{fill:#FAF9F8;stroke:#D77425;stroke-width:2;stroke-miterlimit:10;}
	.st7{fill:#FAF9F8;stroke:#D77425;stroke-width:1.2643;stroke-miterlimit:10;}
	.st8{fill:#FAF9F8;stroke:#D77425;stroke-width:0.919;stroke-miterlimit:10;}
	.st9{fill:#FAF9F8;stroke:#D77425;stroke-width:1.9974;stroke-miterlimit:10;}
	.st10{fill:none;stroke:#C2C9D4;stroke-miterlimit:10;}
	.st11{fill:#C2C9D4;}
	.st12{fill:none;stroke:#D77425;stroke-width:1.4659;stroke-miterlimit:10;}
	.st13{fill:#D77425;}
</style>
<g>
	<path class="st0" d="M204.1,233c-9,17.7-14.5,36.9-16,56.4c-1.5,19.4,0.9,39,6.8,57.3c5.9,18.3,15.4,35.2,27.7,49.5
		c12.3,14.3,27.3,26.1,43.9,34.4c5.3,2.7,7.4,9.1,4.7,14.3c-2.7,5.3-9.1,7.4-14.3,4.7c-0.3-0.1-0.5-0.3-0.7-0.4l-0.1-0.1
		c-18.2-11.1-34.1-25.8-46.4-42.9c-12.3-17-21.2-36.4-26-56.5c-4.8-20.1-5.6-41.1-2.4-61.2c3.2-20.1,10.5-39.5,21-56.5l0,0
		c0.3-0.5,0.9-0.6,1.3-0.3C204.2,232,204.3,232.5,204.1,233z"/>
</g>
<g>
	<g>
		<g>
			<g>
				<path class="st1" d="M113.2,40.3c-1.3,0-2.4-1-2.4-2.2c0-1.2,1.1-2.2,2.4-2.2c1.3,0,2.4,1,2.4,2.2
					C115.6,39.4,114.5,40.3,113.2,40.3z"/>
				<path class="st1" d="M113.2,70.4c-1.3,0-2.4-1-2.4-2.2c0-1.2,1.1-2.2,2.4-2.2c1.3,0,2.4,1,2.4,2.2
					C115.6,69.4,114.5,70.4,113.2,70.4z"/>
				<line class="st1" x1="113" y1="40.1" x2="113" y2="66.1"/>
				<line class="st1" x1="113" y1="70.4" x2="113" y2="96.4"/>
			</g>
			<g>
				<path class="st1" d="M113.2,101.1c-1.3,0-2.4-1-2.4-2.2c0-1.2,1.1-2.2,2.4-2.2c1.3,0,2.4,1,2.4,2.2
					C115.6,100.1,114.5,101.1,113.2,101.1z"/>
				<path class="st1" d="M113.2,131.1c-1.3,0-2.4-1-2.4-2.2c0-1.2,1.1-2.2,2.4-2.2c1.3,0,2.4,1,2.4,2.2
					C115.6,130.1,114.5,131.1,113.2,131.1z"/>
				<line class="st1" x1="113" y1="100.9" x2="113" y2="126.9"/>
				<line class="st1" x1="113" y1="131.1" x2="113" y2="157.1"/>
			</g>
			<g>
				<path class="st1" d="M113.2,161.8c-1.3,0-2.4-1-2.4-2.2c0-1.2,1.1-2.2,2.4-2.2c1.3,0,2.4,1,2.4,2.2
					C115.6,160.9,114.5,161.8,113.2,161.8z"/>
				<path class="st1" d="M113.2,191.8c-1.3,0-2.4-1-2.4-2.2c0-1.2,1.1-2.2,2.4-2.2c1.3,0,2.4,1,2.4,2.2
					C115.6,190.9,114.5,191.8,113.2,191.8z"/>
				<line class="st1" x1="113" y1="161.6" x2="113" y2="187.6"/>
				<line class="st1" x1="113" y1="191.9" x2="113" y2="217.8"/>
			</g>
		</g>
	</g>
</g>
<g>
	<g>
		<g>
			<g>
				<path class="st1" d="M104.5,70.1c-1.3,0-2.4-1-2.4-2.2c0-1.2,1.1-2.2,2.4-2.2c1.3,0,2.4,1,2.4,2.2
					C106.9,69.1,105.8,70.1,104.5,70.1z"/>
				<path class="st1" d="M104.5,100.1c-1.3,0-2.4-1-2.4-2.2c0-1.2,1.1-2.2,2.4-2.2c1.3,0,2.4,1,2.4,2.2
					C106.9,99.1,105.8,100.1,104.5,100.1z"/>
				<line class="st1" x1="104.3" y1="69.9" x2="104.3" y2="95.8"/>
				<line class="st1" x1="104.3" y1="100.1" x2="104.3" y2="126.1"/>
			</g>
			<g>
				<path class="st1" d="M104.5,130.8c-1.3,0-2.4-1-2.4-2.2c0-1.2,1.1-2.2,2.4-2.2c1.3,0,2.4,1,2.4,2.2
					C106.9,129.9,105.8,130.8,104.5,130.8z"/>
				<path class="st1" d="M104.5,160.8c-1.3,0-2.4-1-2.4-2.2c0-1.2,1.1-2.2,2.4-2.2c1.3,0,2.4,1,2.4,2.2
					C106.9,159.9,105.8,160.8,104.5,160.8z"/>
				<line class="st1" x1="104.3" y1="130.6" x2="104.3" y2="156.6"/>
				<line class="st1" x1="104.3" y1="160.9" x2="104.3" y2="186.8"/>
			</g>
			<g>
				<path class="st1" d="M104.5,191.6c-1.3,0-2.4-1-2.4-2.2c0-1.2,1.1-2.2,2.4-2.2c1.3,0,2.4,1,2.4,2.2
					C106.9,190.6,105.8,191.6,104.5,191.6z"/>
				<path class="st1" d="M104.5,221.6c-1.3,0-2.4-1-2.4-2.2c0-1.2,1.1-2.2,2.4-2.2c1.3,0,2.4,1,2.4,2.2
					C106.9,220.6,105.8,221.6,104.5,221.6z"/>
				<line class="st1" x1="104.3" y1="191.4" x2="104.3" y2="217.3"/>
				<line class="st1" x1="104.3" y1="221.6" x2="104.3" y2="247.6"/>
			</g>
		</g>
	</g>
</g>
<g>
	<g>
		<g>
			<g>
				<path class="st1" d="M95.8,100.1c-1.3,0-2.4-1-2.4-2.2c0-1.2,1.1-2.2,2.4-2.2c1.3,0,2.4,1,2.4,2.2
					C98.3,99.1,97.2,100.1,95.8,100.1z"/>
				<path class="st1" d="M95.8,130.1c-1.3,0-2.4-1-2.4-2.2c0-1.2,1.1-2.2,2.4-2.2c1.3,0,2.4,1,2.4,2.2
					C98.3,129.1,97.2,130.1,95.8,130.1z"/>
				<line class="st1" x1="95.6" y1="99.9" x2="95.6" y2="125.8"/>
				<line class="st1" x1="95.6" y1="130.1" x2="95.6" y2="156.1"/>
			</g>
			<g>
				<path class="st1" d="M95.8,160.8c-1.3,0-2.4-1-2.4-2.2c0-1.2,1.1-2.2,2.4-2.2c1.3,0,2.4,1,2.4,2.2
					C98.3,159.9,97.2,160.8,95.8,160.8z"/>
				<path class="st1" d="M95.8,190.8c-1.3,0-2.4-1-2.4-2.2c0-1.2,1.1-2.2,2.4-2.2c1.3,0,2.4,1,2.4,2.2
					C98.3,189.9,97.2,190.8,95.8,190.8z"/>
				<line class="st1" x1="95.6" y1="160.6" x2="95.6" y2="186.6"/>
				<line class="st1" x1="95.6" y1="190.9" x2="95.6" y2="216.8"/>
			</g>
			<g>
				<path class="st1" d="M95.8,221.6c-1.3,0-2.4-1-2.4-2.2c0-1.2,1.1-2.2,2.4-2.2c1.3,0,2.4,1,2.4,2.2
					C98.3,220.6,97.2,221.6,95.8,221.6z"/>
				<path class="st1" d="M95.8,251.6c-1.3,0-2.4-1-2.4-2.2c0-1.2,1.1-2.2,2.4-2.2c1.3,0,2.4,1,2.4,2.2
					C98.3,250.6,97.2,251.6,95.8,251.6z"/>
				<line class="st1" x1="95.6" y1="221.4" x2="95.6" y2="247.3"/>
				<line class="st1" x1="95.6" y1="251.6" x2="95.6" y2="277.6"/>
			</g>
		</g>
	</g>
</g>
<g>
	<g>
		<g>
			<path class="st1" d="M87.1,130.6c-1.3,0-2.4-1-2.4-2.2c0-1.2,1.1-2.2,2.4-2.2c1.3,0,2.4,1,2.4,2.2
				C89.6,129.6,88.5,130.6,87.1,130.6z"/>
			<path class="st1" d="M87.1,160.4c-1.3,0-2.4-1-2.4-2.2c0-1.2,1.1-2.2,2.4-2.2c1.3,0,2.4,1,2.4,2.2
				C89.6,159.4,88.5,160.4,87.1,160.4z"/>
			<line class="st1" x1="86.9" y1="130.4" x2="86.9" y2="156.2"/>
			<line class="st1" x1="86.9" y1="160.4" x2="86.9" y2="186.2"/>
		</g>
		<g>
			<path class="st1" d="M87.1,190.9c-1.3,0-2.4-1-2.4-2.2c0-1.2,1.1-2.2,2.4-2.2c1.3,0,2.4,1,2.4,2.2
				C89.6,189.9,88.5,190.9,87.1,190.9z"/>
			<path class="st1" d="M87.1,220.7c-1.3,0-2.4-1-2.4-2.2c0-1.2,1.1-2.2,2.4-2.2c1.3,0,2.4,1,2.4,2.2
				C89.6,219.7,88.5,220.7,87.1,220.7z"/>
			<line class="st1" x1="86.9" y1="190.7" x2="86.9" y2="216.5"/>
			<line class="st1" x1="86.9" y1="220.7" x2="86.9" y2="246.5"/>
		</g>
		<g>
			<path class="st1" d="M87.1,251.2c-1.3,0-2.4-1-2.4-2.2c0-1.2,1.1-2.2,2.4-2.2c1.3,0,2.4,1,2.4,2.2
				C89.6,250.2,88.5,251.2,87.1,251.2z"/>
			<path class="st1" d="M87.1,281c-1.3,0-2.4-1-2.4-2.2c0-1.2,1.1-2.2,2.4-2.2c1.3,0,2.4,1,2.4,2.2C89.6,280,88.5,281,87.1,281z"/>
			<line class="st1" x1="86.9" y1="251" x2="86.9" y2="276.8"/>
			<line class="st1" x1="86.9" y1="281" x2="86.9" y2="306.8"/>
		</g>
		<g>
			<polygon class="st2" points="77.7,292.7 87.1,303.8 96.6,292.7 87.1,325.1 			"/>
			<polygon class="st0" points="80.4,297.3 87.1,321.5 87.1,305.5 			"/>
		</g>
	</g>
</g>
<g>
	<g>
		<g>
			<g>
				<path class="st1" d="M78.4,100.1c-1.3,0-2.4-1-2.4-2.2c0-1.2,1.1-2.2,2.4-2.2c1.3,0,2.4,1,2.4,2.2
					C80.9,99.1,79.8,100.1,78.4,100.1z"/>
				<path class="st1" d="M78.4,130.1c-1.3,0-2.4-1-2.4-2.2c0-1.2,1.1-2.2,2.4-2.2c1.3,0,2.4,1,2.4,2.2
					C80.9,129.1,79.8,130.1,78.4,130.1z"/>
				<line class="st1" x1="78.3" y1="99.9" x2="78.3" y2="125.8"/>
				<line class="st1" x1="78.3" y1="130.1" x2="78.3" y2="156.1"/>
			</g>
			<g>
				<path class="st1" d="M78.4,160.8c-1.3,0-2.4-1-2.4-2.2c0-1.2,1.1-2.2,2.4-2.2c1.3,0,2.4,1,2.4,2.2
					C80.9,159.9,79.8,160.8,78.4,160.8z"/>
				<path class="st1" d="M78.4,190.8c-1.3,0-2.4-1-2.4-2.2c0-1.2,1.1-2.2,2.4-2.2c1.3,0,2.4,1,2.4,2.2
					C80.9,189.9,79.8,190.8,78.4,190.8z"/>
				<line class="st1" x1="78.3" y1="160.6" x2="78.3" y2="186.6"/>
				<line class="st1" x1="78.3" y1="190.9" x2="78.3" y2="216.8"/>
			</g>
			<g>
				<path class="st1" d="M78.4,221.6c-1.3,0-2.4-1-2.4-2.2c0-1.2,1.1-2.2,2.4-2.2c1.3,0,2.4,1,2.4,2.2
					C80.9,220.6,79.8,221.6,78.4,221.6z"/>
				<path class="st1" d="M78.4,251.6c-1.3,0-2.4-1-2.4-2.2c0-1.2,1.1-2.2,2.4-2.2c1.3,0,2.4,1,2.4,2.2
					C80.9,250.6,79.8,251.6,78.4,251.6z"/>
				<line class="st1" x1="78.3" y1="221.4" x2="78.3" y2="247.3"/>
				<line class="st1" x1="78.3" y1="251.6" x2="78.3" y2="277.6"/>
			</g>
		</g>
	</g>
</g>
<g>
	<g>
		<g>
			<g>
				<path class="st1" d="M69.8,70.1c-1.3,0-2.4-1-2.4-2.2c0-1.2,1.1-2.2,2.4-2.2c1.3,0,2.4,1,2.4,2.2C72.2,69.1,71.1,70.1,69.8,70.1
					z"/>
				<path class="st1" d="M69.8,100.1c-1.3,0-2.4-1-2.4-2.2c0-1.2,1.1-2.2,2.4-2.2c1.3,0,2.4,1,2.4,2.2
					C72.2,99.1,71.1,100.1,69.8,100.1z"/>
				<line class="st1" x1="69.6" y1="69.9" x2="69.6" y2="95.8"/>
				<line class="st1" x1="69.6" y1="100.1" x2="69.6" y2="126.1"/>
			</g>
			<g>
				<path class="st1" d="M69.8,130.8c-1.3,0-2.4-1-2.4-2.2c0-1.2,1.1-2.2,2.4-2.2c1.3,0,2.4,1,2.4,2.2
					C72.2,129.9,71.1,130.8,69.8,130.8z"/>
				<path class="st1" d="M69.8,160.8c-1.3,0-2.4-1-2.4-2.2c0-1.2,1.1-2.2,2.4-2.2c1.3,0,2.4,1,2.4,2.2
					C72.2,159.9,71.1,160.8,69.8,160.8z"/>
				<line class="st1" x1="69.6" y1="130.6" x2="69.6" y2="156.6"/>
				<line class="st1" x1="69.6" y1="160.9" x2="69.6" y2="186.8"/>
			</g>
			<g>
				<path class="st1" d="M69.8,191.6c-1.3,0-2.4-1-2.4-2.2c0-1.2,1.1-2.2,2.4-2.2c1.3,0,2.4,1,2.4,2.2
					C72.2,190.6,71.1,191.6,69.8,191.6z"/>
				<path class="st1" d="M69.8,221.6c-1.3,0-2.4-1-2.4-2.2c0-1.2,1.1-2.2,2.4-2.2c1.3,0,2.4,1,2.4,2.2
					C72.2,220.6,71.1,221.6,69.8,221.6z"/>
				<line class="st1" x1="69.6" y1="191.4" x2="69.6" y2="217.3"/>
				<line class="st1" x1="69.6" y1="221.6" x2="69.6" y2="247.6"/>
			</g>
		</g>
	</g>
</g>
<g>
	<g>
		<g>
			<g>
				<path class="st1" d="M61.1,40.3c-1.3,0-2.4-1-2.4-2.2c0-1.2,1.1-2.2,2.4-2.2c1.3,0,2.4,1,2.4,2.2C63.5,39.4,62.4,40.3,61.1,40.3
					z"/>
				<path class="st1" d="M61.1,70.4c-1.3,0-2.4-1-2.4-2.2c0-1.2,1.1-2.2,2.4-2.2c1.3,0,2.4,1,2.4,2.2C63.5,69.4,62.4,70.4,61.1,70.4
					z"/>
				<line class="st1" x1="60.9" y1="40.1" x2="60.9" y2="66.1"/>
				<line class="st1" x1="60.9" y1="70.4" x2="60.9" y2="96.4"/>
			</g>
			<g>
				<path class="st1" d="M61.1,101.1c-1.3,0-2.4-1-2.4-2.2c0-1.2,1.1-2.2,2.4-2.2c1.3,0,2.4,1,2.4,2.2
					C63.5,100.1,62.4,101.1,61.1,101.1z"/>
				<path class="st1" d="M61.1,131.1c-1.3,0-2.4-1-2.4-2.2c0-1.2,1.1-2.2,2.4-2.2c1.3,0,2.4,1,2.4,2.2
					C63.5,130.1,62.4,131.1,61.1,131.1z"/>
				<line class="st1" x1="60.9" y1="100.9" x2="60.9" y2="126.9"/>
				<line class="st1" x1="60.9" y1="131.1" x2="60.9" y2="157.1"/>
			</g>
			<g>
				<path class="st1" d="M61.1,161.8c-1.3,0-2.4-1-2.4-2.2c0-1.2,1.1-2.2,2.4-2.2c1.3,0,2.4,1,2.4,2.2
					C63.5,160.9,62.4,161.8,61.1,161.8z"/>
				<path class="st1" d="M61.1,191.8c-1.3,0-2.4-1-2.4-2.2c0-1.2,1.1-2.2,2.4-2.2c1.3,0,2.4,1,2.4,2.2
					C63.5,190.9,62.4,191.8,61.1,191.8z"/>
				<line class="st1" x1="60.9" y1="161.6" x2="60.9" y2="187.6"/>
				<line class="st1" x1="60.9" y1="191.9" x2="60.9" y2="217.8"/>
			</g>
		</g>
	</g>
</g>
<g>
	<g>
		<g>
			<g>
				<g>
					<path class="st3" d="M288.3,446c2.1-0.4,4.1,0.8,4.5,2.7c0.4,1.9-1,3.9-3,4.3c-2.1,0.5-4.1-0.7-4.5-2.7
						C284.9,448.4,286.2,446.4,288.3,446z"/>
					<path class="st3" d="M283.6,397.2c2.1,0.1,3.8,1.7,3.8,3.6c-0.1,1.9-1.7,3.5-3.9,3.6c-2.1,0-4-1.6-3.9-3.6
						C279.7,398.8,281.5,397.2,283.6,397.2z"/>
					<path class="st3" d="M288.7,446.3c-2.9-13.9-4.8-28-4.8-42.1"/>
					<path class="st3" d="M283.9,397.2c0.3-14.1,2.3-28.3,6.1-41.9"/>
				</g>
				<g>
					<path class="st3" d="M292,347.8c1,0.3,1.8,1,2.2,1.8c0.5,0.8,0.7,1.8,0.4,2.7c-0.5,1.8-2.6,2.9-4.7,2.3
						c-2.1-0.6-3.3-2.6-2.7-4.6c0.3-1,1-1.7,1.8-2.1C289.9,347.5,291,347.4,292,347.8z"/>
					<path class="st3" d="M314.4,304.3c1.7,1.3,2.2,3.5,1.1,5.1c-1.1,1.6-3.4,2-5.2,0.8c-1.8-1.2-2.3-3.5-1.2-5.2
						C310.3,303.3,312.7,303,314.4,304.3z"/>
					<path class="st3" d="M292.2,348.2c4.5-13.4,10.7-26.3,18.6-38.1"/>
					<path class="st3" d="M314.7,304.4c8.3-11.5,18.1-21.9,28.7-31.1"/>
				</g>
				<g>
					<path class="st3" d="M349.2,268.1c1.3,1.7,1.2,4-0.3,5.3c-1.5,1.2-3.9,0.9-5.2-0.7c-1.4-1.6-1.3-4,0.3-5.3
						C345.5,266.1,347.9,266.4,349.2,268.1z"/>
					<path class="st3" d="M390.8,242.1c0.9,1.9,0.3,4.2-1.5,5c-1.8,0.8-3.9,0.1-4.9-1.8c-1-1.9-0.4-4.2,1.5-5.1
						C387.6,239.3,389.9,240.2,390.8,242.1z"/>
					<path class="st3" d="M349.1,268.6c11-8.9,23.1-16.5,35.6-23.1"/>
					<path class="st3" d="M390.9,242.4c6.4-3,12.9-5.9,19.6-8.3c6.7-2.4,13.4-4.6,20.3-6.2"/>
				</g>
			</g>
		</g>
	</g>
	<g>
		<g>
			<g>
				<g>
					<path class="st4" d="M291.4,444.1c3.5,1.6,5,5.9,3.2,9.5c-1.7,3.6-6,5.1-9.4,3.3c-3.5-1.8-4.9-6-3.2-9.5
						C283.7,443.9,287.9,442.4,291.4,444.1z"/>
					<path class="st4" d="M318.5,351.3c1.9,0.2,3.6,1.2,4.8,2.6c0.6,0.7,1,1.6,1.3,2.5c0.2,0.9,0.3,1.9,0.1,2.9
						c-0.6,4-4.2,6.7-8,6.1c-3.8-0.7-6.5-4.2-5.9-7.9c0.1-0.9,0.5-1.8,1-2.6c0.5-0.8,1-1.5,1.7-2
						C314.7,351.7,316.5,351.1,318.5,351.3z"/>
					<path class="st4" d="M291.6,444.9l1.2-2.4l1-2.4l2.1-4.8l2.1-4.8c0.7-1.6,1.4-3.2,2-4.9l3.7-9.9l0.9-2.5l0.5-1.2l0.4-1.3l1.6-5
						c4.5-13.3,7.7-27,10-40.9"/>
					<path class="st4" d="M319,351.3l0.5-5.2l0.2-2.6l0.1-1.3l0-1.3l0.4-10.5c-0.1-7-0.1-14.1-0.9-21c-1.3-14-3.9-27.9-8.1-41.3"/>
				</g>
				<g>
					<path class="st4" d="M305.7,253.6c1.8-0.7,3.7-0.6,5.4,0.1c1.7,0.8,3.1,2.2,3.7,4.1c1.3,3.9-0.7,7.9-4.4,9.1
						c-3.7,1.1-7.7-0.8-8.9-4.4c-0.6-1.8-0.5-3.6,0.2-5.3C302.5,255.7,303.9,254.3,305.7,253.6z"/>
					<path class="st4" d="M250.9,174.4c1.3-1.4,3.1-2.1,5-2.2c1.8,0,3.6,0.7,5.1,2.2c2.9,2.9,2.9,7.3,0,10c-2.8,2.6-7.3,2.6-10-0.1
						c-1.3-1.3-2-3.1-2-4.9C248.9,177.6,249.6,175.8,250.9,174.4z"/>
					<path class="st4" d="M306.4,254.1c-10.2-26.2-26.1-50-45.4-70.4"/>
					<path class="st4" d="M251.2,173.9c-20.4-19.3-43.8-35.4-68.7-48.2"/>
				</g>
			</g>
		</g>
	</g>
	<g>
		<g>
			<g>
				<g>
					<path class="st5" d="M283.3,449.8c1.9-0.6,3.8,0.4,4.3,2.1c0.5,1.7-0.6,3.6-2.4,4.2c-1.9,0.6-3.8-0.4-4.3-2.1
						C280.4,452.3,281.4,450.4,283.3,449.8z"/>
					<path class="st5" d="M271.6,406.3c1.9-0.4,3.7,0.7,4.1,2.4c0.4,1.7-0.7,3.5-2.6,4c-1.9,0.5-3.8-0.6-4.2-2.4
						C268.4,408.5,269.7,406.7,271.6,406.3z"/>
					<path class="st5" d="M283.7,450.1c-1.8-6.2-3.8-12.5-5.5-18.7l-4.8-18.9"/>
					<polyline class="st5" points="271.8,406.2 267.7,387.1 264.5,367.9 					"/>
				</g>
				<g>
					<path class="st5" d="M263.3,360.9c1.9-0.3,3.7,1,3.9,2.8c0.2,1.8-1.1,3.5-3,3.8c-1.9,0.3-3.8-0.9-4-2.8
						C260,362.8,261.3,361.1,263.3,360.9z"/>
					<path class="st5" d="M259.7,315.9c1.9,0,3.6,1.4,3.6,3.2c0,1.8-1.5,3.3-3.4,3.4c-1.9,0.1-3.6-1.3-3.6-3.2
						C256.2,317.5,257.7,316,259.7,315.9z"/>
					<path class="st5" d="M263.6,361.2l-1.2-9.7c-0.4-3.2-0.9-6.5-1-9.7l-0.7-9.7c-0.2-3.2-0.6-6.5-0.6-9.7"/>
					<path class="st5" d="M259.9,315.9c-0.1-3.3-0.2-6.5-0.2-9.8l0.3-9.8l0.1-4.9l0.1-2.4l0.2-2.4l0.8-9.7"/>
				</g>
				<g>
					<path class="st5" d="M261.6,269.8c1,0.1,1.8,0.6,2.3,1.2c0.5,0.7,0.8,1.5,0.8,2.4c-0.1,1.8-1.8,3.1-3.8,2.9
						c-1.9-0.2-3.4-1.8-3.2-3.6c0.1-0.9,0.6-1.7,1.3-2.2C259.7,269.9,260.6,269.7,261.6,269.8z"/>
					<path class="st5" d="M270.3,225.6c1.9,0.5,3,2.4,2.6,4.1c-0.4,1.7-2.3,2.7-4.2,2.3c-1.9-0.5-3-2.3-2.6-4.1
						C266.5,226,268.4,225,270.3,225.6z"/>
					<path class="st5" d="M261.8,270.2l1.3-9.7l0.7-4.8l0.9-4.8l1.9-9.6c0.7-3.2,1.6-6.3,2.4-9.5"/>
					<path class="st5" d="M270.5,225.6l3-9.3l1.5-4.6l1.7-4.6c1.2-3,2.3-6.1,3.5-9.1l4-8.9"/>
				</g>
				<g>
					<path class="st5" d="M287.2,182.7c1.7,0.9,2.5,2.9,1.6,4.5c-0.8,1.6-2.8,2.3-4.6,1.4c-1.7-0.8-2.6-2.9-1.8-4.5
						C283.4,182.4,285.5,181.8,287.2,182.7z"/>
					<path class="st5" d="M311.6,144.8c1.5,1.2,1.9,3.4,0.8,4.8c-1.1,1.4-3.2,1.6-4.8,0.4c-1.6-1.2-1.9-3.3-0.8-4.8
						C308,143.8,310.1,143.6,311.6,144.8z"/>
					<path class="st5" d="M287.3,183.1l4.6-8.6l5-8.4l1.3-2.1c0.4-0.7,0.9-1.3,1.4-2l2.7-4l2.7-4c0.9-1.3,2-2.6,2.9-3.9"/>
					<path class="st5" d="M311.8,145c8.2-10.1,17.2-19.5,27-28.1"/>
				</g>
				<g>
					<path class="st5" d="M344.1,112c1.2,1.5,1.1,3.7-0.2,4.8c-1.4,1.2-3.5,0.9-4.8-0.5c-1.3-1.5-1.2-3.6,0.2-4.8
						C340.7,110.3,342.8,110.5,344.1,112z"/>
					<path class="st5" d="M381.5,87c0.9,1.7,0.4,3.8-1.2,4.6c-1.6,0.9-3.6,0.3-4.6-1.4c-1-1.7-0.5-3.8,1.1-4.7
						C378.6,84.6,380.6,85.3,381.5,87z"/>
					<path class="st5" d="M344,112.4c10.1-8.2,20.8-15.6,32.1-22.1"/>
					<path class="st5" d="M381.7,87.3c11.5-6.1,23.5-11.3,35.8-15.3"/>
				</g>
			</g>
		</g>
	</g>
	<path class="st6" d="M297,448.8c1.1,4.5-1.7,9-6.2,10.2c-4.5,1.1-9-1.7-10.2-6.2c-1.1-4.5,1.7-9,6.2-10.2
		C291.3,441.5,295.9,444.3,297,448.8z"/>
</g>
<path class="st7" d="M435.9,226.3c0.7,2.8-1,5.7-3.9,6.4c-2.8,0.7-5.7-1-6.4-3.9c-0.7-2.8,1-5.7,3.9-6.4
	C432.3,221.7,435.2,223.5,435.9,226.3z"/>
<path class="st8" d="M421.2,70.8c0.5,2.1-0.8,4.2-2.8,4.7c-2.1,0.5-4.2-0.8-4.7-2.8c-0.5-2.1,0.8-4.2,2.8-4.7
	C418.6,67.5,420.7,68.7,421.2,70.8z"/>
<path class="st9" d="M189.5,123.6c1.1,4.5-1.7,9-6.2,10.1c-4.5,1.1-9-1.7-10.1-6.2c-1.1-4.5,1.7-9,6.2-10.1
	C183.9,116.3,188.4,119.1,189.5,123.6z"/>
<g>
	<g>
		<g>
			<path class="st10" d="M438.2,262.8c-1.7,0.3-3.2-0.6-3.5-2c-0.3-1.4,0.8-2.9,2.4-3.3c1.6-0.4,3.2,0.5,3.5,2
				C440.9,261.1,439.8,262.5,438.2,262.8z"/>
			<path class="st10" d="M440.7,299.8c-1.7-0.1-3-1.4-3-2.8c0-1.5,1.5-2.6,3.1-2.6c1.7,0,3,1.3,3,2.8
				C443.8,298.7,442.4,299.9,440.7,299.8z"/>
			<path class="st10" d="M437.9,262.6c2,10.5,3,21.2,2.7,31.9"/>
			<path class="st10" d="M440.5,299.8c-0.5,10.7-2.3,21.3-5,31.6"/>
		</g>
		<g>
			<path class="st10" d="M434.1,337.1c-1.6-0.5-2.5-2-2.1-3.4c0.4-1.4,2-2.2,3.6-1.8c1.6,0.4,2.6,2,2.2,3.5
				C437.4,336.8,435.7,337.6,434.1,337.1z"/>
			<path class="st10" d="M419.2,371c-1.4-0.9-2-2.6-1.3-3.8c0.7-1.3,2.5-1.6,4-0.9c1.5,0.8,2.1,2.5,1.3,3.9
				C422.4,371.4,420.7,371.8,419.2,371z"/>
			<path class="st10" d="M434,336.8c-3.1,10.2-7.3,20.1-12.4,29.5"/>
			<path class="st10" d="M419,370.9l-1,1.7l-1.1,1.7l-2.2,3.4c-1.5,2.2-3.1,4.4-4.6,6.6c-1.7,2.1-3.2,4.3-4.9,6.3
				c-1.7,2-3.4,4.1-5.3,6.1"/>
		</g>
		<g>
			<path class="st10" d="M396.1,401c-1.2-1.2-1.3-3-0.3-4c1-1.1,2.8-1,4,0.1c1.2,1.1,1.4,3,0.4,4.1
				C399.2,402.3,397.3,402.2,396.1,401z"/>
			<path class="st10" d="M367.2,424.2c-0.9-1.4-0.6-3.2,0.6-4c1.2-0.8,3-0.3,3.9,1.1c0.9,1.4,0.7,3.3-0.6,4.1
				C369.9,426.1,368.1,425.6,367.2,424.2z"/>
			<path class="st10" d="M396.1,400.7c-7.5,7.6-15.8,14.5-24.6,20.4"/>
			<path class="st10" d="M367.1,424c-9.1,5.6-18.7,10.3-28.8,14"/>
		</g>
		<g>
			<polygon class="st11" points="349.7,423.5 341.3,436.8 355.8,442.8 319.5,443.8 			"/>
			<polygon class="st0" points="345.9,427.8 323.1,442.6 339.5,437.4 			"/>
		</g>
	</g>
</g>
<g>
	<g>
		<g>
			<path class="st12" d="M91,349.7c-1.2,0-2.4-0.4-3.2-1.2c-0.8-0.8-1.3-1.9-1.2-3.1c0.1-2.4,2.1-4.3,4.6-4.2
				c2.5,0.1,4.4,2.1,4.4,4.3c0,1.1-0.6,2.1-1.4,2.9C93.3,349.2,92.2,349.7,91,349.7z"/>
			<path class="st12" d="M105.4,405.5c-2.2,1.2-4.8,0.4-5.9-1.8c-1.1-2.2-0.1-4.8,2.2-5.8c2.3-1,4.9-0.2,5.9,1.9
				C108.5,401.7,107.5,404.3,105.4,405.5z"/>
			<path class="st12" d="M90.6,349.3c0.2,8.4,1.2,16.8,2.9,25c1.9,8.2,4.6,16.2,7.9,23.9"/>
			<path class="st12" d="M105.1,405.7c4,7.4,8.7,14.4,14,20.9c5.4,6.4,11.5,12.3,18,17.6"/>
		</g>
		<g>
			<path class="st12" d="M144.8,449.4c-1.4,2.1-4.1,2.6-6.1,1.1c-2-1.4-2.3-4.2-0.8-6.1c1.5-1.9,4.2-2.4,6.1-1.1
				C145.8,444.6,146.2,447.3,144.8,449.4z"/>
			<path class="st12" d="M198.7,469.7c-0.3,2.4-2.5,4.2-4.9,3.8c-2.4-0.4-4-2.8-3.5-5.2c0.5-2.4,2.7-4,4.9-3.6
				C197.4,465,199,467.2,198.7,469.7z"/>
			<path class="st12" d="M144.3,449.4c13.9,9.4,29.7,16.1,46.3,19.3"/>
			<path class="st12" d="M198.7,470c16.7,2.1,33.8,0.7,50-4.1"/>
		</g>
		<g>
			<polygon class="st13" points="234.5,461.6 246.1,466.1 239.7,476.8 263.2,460.4 			"/>
			<polygon class="st0" points="239,462.6 260.3,461.3 247.5,465.7 			"/>
		</g>
	</g>
</g>
</svg>
