<?xml version="1.0" encoding="utf-8"?>
<!-- Generator: Adobe Illustrator 23.0.4, SVG Export Plug-In . SVG Version: 6.00 Build 0)  -->
<svg version="1.1" id="Layer_1" xmlns="http://www.w3.org/2000/svg" xmlns:xlink="http://www.w3.org/1999/xlink" x="0px" y="0px"
	 viewBox="0 0 512 512" style="enable-background:new 0 0 512 512;" xml:space="preserve">
<style type="text/css">
	.st0{fill:none;stroke:#768293;stroke-width:0.7381;stroke-miterlimit:10;}
	.st1{fill:none;stroke:#768293;stroke-width:0.9492;stroke-miterlimit:10;}
	.st2{fill:none;stroke:#768293;stroke-width:1.0601;stroke-miterlimit:10;}
	.st3{fill:none;stroke:#C1C8D3;stroke-width:1.0601;stroke-miterlimit:10;}
	.st4{fill:none;stroke:#E2E6ED;stroke-width:1.0601;stroke-miterlimit:10;}
	.st5{fill:none;stroke:#D77526;stroke-width:1.2327;stroke-miterlimit:10;}
	.st6{fill:#FFFFFF;}
	.st7{fill:none;stroke:#D77526;stroke-width:2.4121;stroke-miterlimit:10;}
	.st8{fill:#D77526;}
	.st9{fill:none;stroke:#768293;stroke-width:1.0634;stroke-miterlimit:10;}
	.st10{fill:#768293;}
</style>
<g>
	<g>
		<g>
			<g>
				<path class="st0" d="M86.9,120.8c-1.3,1.3-3.5,1.3-4.9-0.1c-1.4-1.4-1.4-3.6-0.1-4.9c1.3-1.3,3.5-1.3,4.9,0.1
					C88.1,117.2,88.2,119.4,86.9,120.8z"/>
				<path class="st0" d="M121.3,155.2c-1.3,1.3-3.5,1.3-4.9-0.1c-1.4-1.4-1.4-3.6-0.1-4.9c1.3-1.3,3.5-1.3,4.9,0.1
					C122.5,151.7,122.6,153.9,121.3,155.2z"/>
				<line class="st0" x1="86.4" y1="120.7" x2="116.2" y2="150.5"/>
				<line class="st0" x1="121.1" y1="155.4" x2="150.9" y2="185.2"/>
			</g>
			<g>
				<path class="st0" d="M156.4,190.3c-1.3,1.3-3.5,1.3-4.9-0.1c-1.4-1.4-1.4-3.6-0.1-4.9c1.3-1.3,3.5-1.3,4.9,0.1
					C157.7,186.8,157.7,189,156.4,190.3z"/>
				<path class="st0" d="M190.8,224.7c-1.3,1.3-3.5,1.3-4.9-0.1c-1.4-1.4-1.4-3.6-0.1-4.9c1.3-1.3,3.5-1.3,4.9,0.1
					C192.1,221.2,192.2,223.4,190.8,224.7z"/>
				<line class="st0" x1="156" y1="190.2" x2="185.8" y2="220"/>
				<line class="st0" x1="190.7" y1="224.9" x2="220.5" y2="254.7"/>
			</g>
		</g>
	</g>
</g>
<g>
	<g>
		<g>
			<g>
				<path class="st1" d="M72.2,73.4c-1.7,1.7-4.6,1.6-6.4-0.3c-1.8-1.8-2-4.7-0.3-6.4c1.7-1.7,4.6-1.6,6.4,0.3
					C73.7,68.9,73.9,71.8,72.2,73.4z"/>
				<path class="st1" d="M117.8,119.1c-1.7,1.7-4.6,1.6-6.4-0.3c-1.8-1.8-2-4.7-0.3-6.4c1.7-1.7,4.6-1.6,6.4,0.3
					C119.4,114.5,119.5,117.4,117.8,119.1z"/>
				<line class="st1" x1="71.6" y1="73.3" x2="111.1" y2="112.8"/>
				<line class="st1" x1="117.6" y1="119.3" x2="157.1" y2="158.8"/>
			</g>
			<g>
				<path class="st1" d="M164.3,165.6c-1.7,1.7-4.6,1.6-6.4-0.3c-1.8-1.8-2-4.7-0.3-6.4c1.7-1.7,4.6-1.6,6.4,0.3
					C165.9,161,166,163.9,164.3,165.6z"/>
				<path class="st1" d="M209.9,211.2c-1.7,1.7-4.6,1.6-6.4-0.3c-1.8-1.8-2-4.7-0.3-6.4c1.7-1.7,4.6-1.6,6.4,0.3
					C211.5,206.7,211.6,209.5,209.9,211.2z"/>
				<line class="st1" x1="163.8" y1="165.5" x2="203.3" y2="205"/>
				<line class="st1" x1="209.7" y1="211.5" x2="249.2" y2="251"/>
			</g>
			<g>
				<path class="st1" d="M256.5,257.8c-1.7,1.7-4.6,1.6-6.4-0.3c-1.8-1.8-2-4.7-0.3-6.4c1.7-1.7,4.6-1.6,6.4,0.3
					C258.1,253.2,258.2,256.1,256.5,257.8z"/>
				<path class="st1" d="M302.1,303.4c-1.7,1.7-4.6,1.6-6.4-0.3c-1.8-1.8-2-4.7-0.3-6.4c1.7-1.7,4.6-1.6,6.4,0.3
					C303.7,298.8,303.8,301.7,302.1,303.4z"/>
				<line class="st1" x1="255.9" y1="257.7" x2="295.4" y2="297.1"/>
				<line class="st1" x1="301.9" y1="303.6" x2="341.4" y2="343.1"/>
			</g>
		</g>
	</g>
</g>
<g>
	<g>
		<g>
			<g>
				<path class="st2" d="M90.4,76.1c-1.9,1.9-4.9,1.9-6.8,0.1c-1.8-1.8-1.8-4.9,0.1-6.8c1.9-1.9,4.9-1.9,6.8-0.1
					C92.3,71.1,92.3,74.2,90.4,76.1z"/>
				<path class="st2" d="M136.1,121.8c-1.9,1.9-4.9,1.9-6.8,0.1c-1.8-1.8-1.8-4.9,0.1-6.8c1.9-1.9,4.9-1.9,6.8-0.1
					C138,116.9,138,119.9,136.1,121.8z"/>
				<line class="st2" x1="89.8" y1="76" x2="129.4" y2="115.6"/>
				<line class="st2" x1="135.9" y1="122.1" x2="175.5" y2="161.6"/>
			</g>
			<g>
				<path class="st2" d="M182.8,168.4c-1.9,1.9-4.9,1.9-6.8,0.1c-1.8-1.8-1.8-4.9,0.1-6.8c1.9-1.9,4.9-1.9,6.8-0.1
					C184.7,163.5,184.7,166.5,182.8,168.4z"/>
				<path class="st2" d="M228.5,214.1c-1.9,1.9-4.9,1.9-6.8,0.1c-1.8-1.8-1.8-4.9,0.1-6.8c1.9-1.9,4.9-1.9,6.8-0.1
					C230.4,209.2,230.4,212.2,228.5,214.1z"/>
				<line class="st2" x1="182.2" y1="168.3" x2="221.8" y2="207.9"/>
				<line class="st2" x1="228.3" y1="214.4" x2="267.8" y2="254"/>
			</g>
		</g>
	</g>
</g>
<g>
	<g>
		<g>
			<g>
				<path class="st3" d="M108.6,78.7c-1.9,1.9-4.9,1.9-6.8,0.1c-1.8-1.8-1.8-4.9,0.1-6.8c1.9-1.9,4.9-1.9,6.8-0.1
					C110.5,73.7,110.5,76.8,108.6,78.7z"/>
				<path class="st3" d="M154.3,124.4c-1.9,1.9-4.9,1.9-6.8,0.1c-1.8-1.8-1.8-4.9,0.1-6.8c1.9-1.9,4.9-1.9,6.8-0.1
					C156.3,119.5,156.2,122.5,154.3,124.4z"/>
				<line class="st3" x1="108" y1="78.6" x2="147.6" y2="118.2"/>
				<line class="st3" x1="154.1" y1="124.7" x2="193.7" y2="164.2"/>
			</g>
			<g>
				<path class="st3" d="M201,171c-1.9,1.9-4.9,1.9-6.8,0.1c-1.8-1.8-1.8-4.9,0.1-6.8c1.9-1.9,4.9-1.9,6.8-0.1
					C202.9,166.1,202.9,169.1,201,171z"/>
				<path class="st3" d="M246.7,216.7c-1.9,1.9-4.9,1.9-6.8,0.1c-1.8-1.8-1.8-4.9,0.1-6.8c1.9-1.9,4.9-1.9,6.8-0.1
					C248.6,211.8,248.6,214.9,246.7,216.7z"/>
				<line class="st3" x1="200.4" y1="171" x2="240" y2="210.5"/>
				<line class="st3" x1="246.5" y1="217" x2="286" y2="256.6"/>
			</g>
		</g>
	</g>
</g>
<g>
	<g>
		<g>
			<g>
				<path class="st4" d="M110.5,75.6c0,2.7-2.1,4.8-4.7,4.8c-2.6,0-4.7-2.2-4.7-4.8c0-2.7,2.1-4.8,4.7-4.8
					C108.4,70.8,110.5,72.9,110.5,75.6z"/>
				<path class="st4" d="M175.1,75.6c0,2.7-2.1,4.8-4.7,4.8c-2.6,0-4.7-2.2-4.7-4.8c0-2.7,2.1-4.8,4.7-4.8
					C173,70.8,175.1,72.9,175.1,75.6z"/>
				<line class="st4" x1="110" y1="76" x2="166" y2="76"/>
				<line class="st4" x1="175.2" y1="76" x2="231.1" y2="76"/>
			</g>
			<g>
				<path class="st4" d="M241.1,75.6c0,2.7-2.1,4.8-4.7,4.8c-2.6,0-4.7-2.2-4.7-4.8c0-2.7,2.1-4.8,4.7-4.8
					C239,70.8,241.1,72.9,241.1,75.6z"/>
				<path class="st4" d="M305.8,75.6c0,2.7-2.1,4.8-4.7,4.8c-2.6,0-4.7-2.2-4.7-4.8c0-2.7,2.1-4.8,4.7-4.8
					C303.6,70.8,305.8,72.9,305.8,75.6z"/>
				<line class="st4" x1="240.6" y1="76" x2="296.6" y2="76"/>
				<line class="st4" x1="305.8" y1="76" x2="361.8" y2="76"/>
			</g>
		</g>
	</g>
</g>
<g>
	<g>
		<g>
			<g>
				<path class="st5" d="M302.2,432.6c-0.2-1.6-1-2.8-2.2-3.8c-1.2-0.9-2.7-1.5-4.3-1.3c-3.2,0.2-5.8,2.7-5.8,5.8
					c0,3.1,2.9,5.6,6.4,5.4c1.8-0.1,3.3-0.9,4.4-2C301.9,435.7,302.4,434.2,302.2,432.6z"/>
				<path class="st5" d="M375,395.1c-2.3-2-6-1.8-8.2,0.5c-2.3,2.2-2.5,5.9-0.5,8.2c2.1,2.4,5.8,2.2,8.4-0.2
					C377.3,401,377.4,397.2,375,395.1z"/>
				<path class="st5" d="M301.6,432.3c12-1.3,23.7-4.4,34.7-9.4c11-4.9,21.1-11.6,30.1-19.7"/>
				<path class="st5" d="M374.8,394.8c4-4.5,7.7-9.3,10.9-14.3c1.7-2.5,3.1-5.1,4.6-7.7l2.1-4c0.7-1.3,1.3-2.7,1.9-4.1
					c2.4-5.5,4.5-11.2,6-17c1.5-5.8,2.6-11.8,3.2-17.7"/>
			</g>
			<g>
				<path class="st5" d="M404.5,317c-1.6,0-2.9,0.7-4,1.8c-1,1.1-1.7,2.5-1.8,4.1c0,1.6,0.4,3.1,1.4,4.2c0.9,1.1,2.3,2,3.8,2.1
					c1.5,0.1,3-0.4,4.1-1.5c1.1-1.1,1.9-2.6,1.9-4.4c0-1.8-0.5-3.4-1.5-4.5C407.5,317.7,406,317,404.5,317z"/>
				<path class="st5" d="M374.6,240.8c-2.3,2.1-2.4,5.7-0.4,8.2c1,1.3,2.4,2,3.9,2.2c1.4,0.2,3,0,4.2-1c1.3-0.9,2-2.3,2.1-3.8
					c0.1-1.5-0.4-3.2-1.5-4.5C380.6,239.2,376.9,238.7,374.6,240.8z"/>
				<path class="st5" d="M404.1,317.6c-0.1-24.1-7.9-48.1-22.3-67.4"/>
				<path class="st5" d="M374.2,241.1c-16.2-17.9-38.1-30.3-61.7-35.2"/>
			</g>
		</g>
	</g>
</g>
<g>
	<path class="st6" d="M453.5,117c-18.4-3.7-37.4-3.6-55.5,0c-18.1,3.6-35.3,10.9-50.4,21c-15.1,10.1-28,23.1-37.9,38
		c-9.9,14.9-16.7,31.6-20,48.8c-1.1,5.5-6.4,9-11.8,8c-5.5-1.1-9-6.4-8-11.8c0.1-0.3,0.1-0.5,0.2-0.8l0-0.1
		c5.4-19.4,14.7-37.7,27-53.3c12.3-15.6,27.6-28.7,44.7-38.2c17.1-9.6,35.9-15.7,55.1-18c19.2-2.3,38.6-0.7,56.9,4.5l0,0
		c0.5,0.1,0.8,0.6,0.6,1.1C454.4,116.8,454,117,453.5,117z"/>
</g>
<g>
	<path class="st6" d="M386.6,74.9c-16.8,1.8-33.4,6.3-47.7,14.5c-7.2,4.1-13.8,9-19.6,14.7c-5.8,5.7-10.8,12.2-14.9,19.1
		c-8.2,13.9-12.9,29.7-15.2,45.7c-2.2,16.1-2,32.5-0.2,48.8c0.6,5.5-3.4,10.5-8.9,11.1c-5.5,0.6-10.5-3.4-11.1-8.9
		c0-0.3-0.1-0.6-0.1-0.9v0c-0.3-17.7,1-35.5,5-52.9c4-17.3,10.8-34.3,21.3-48.9c5.2-7.3,11.4-13.9,18.2-19.5
		c6.9-5.7,14.5-10.3,22.5-13.9c16-7.3,33.4-10.3,50.5-10.6h0c0.5,0,0.9,0.4,0.9,0.9C387.4,74.4,387.1,74.8,386.6,74.9z"/>
</g>
<g>
	<g>
		<g>
			<path class="st7" d="M108.2,393.9c0.8-0.6,1.7-1,2.6-1.2c0.9-0.2,1.9-0.3,2.8-0.2c1.9,0.2,3.6,1.1,4.8,2.6
				c0.6,0.8,1.1,1.6,1.4,2.4c0.3,0.9,0.4,1.8,0.3,2.7c-0.1,1.9-0.9,3.7-2.4,5.1c-1.5,1.4-3.4,2-5.3,1.9c-1-0.1-1.9-0.4-2.9-0.8
				c-0.9-0.5-1.8-1.1-2.5-2c-1.4-1.7-2-3.8-1.8-5.7c0.1-1,0.4-1.9,0.8-2.7C106.7,395.2,107.3,394.5,108.2,393.9z"/>
			<path class="st7" d="M90.3,296.1c2,0.5,3.5,1.8,4.5,3.4c1,1.6,1.4,3.5,1,5.4c-0.1,0.5-0.3,0.9-0.5,1.4c-0.2,0.4-0.4,0.8-0.6,1.2
				c-0.5,0.8-1.1,1.4-1.9,2c-1.5,1.1-3.5,1.6-5.5,1.4c-2-0.3-3.7-1.4-4.8-3c-0.5-0.8-0.9-1.7-1.2-2.7c-0.1-0.5-0.2-1-0.2-1.6
				c0-0.5,0.1-1.1,0.2-1.6c0.5-2.2,1.7-3.9,3.3-5C86.3,295.9,88.3,295.6,90.3,296.1z"/>
			<path class="st7" d="M109,394.2l-3.1-4.6c-0.5-0.8-1.1-1.5-1.5-2.3l-1.4-2.4l-1.4-2.4c-0.5-0.8-1-1.6-1.3-2.4l-2.5-4.9
				c-0.4-0.8-0.8-1.7-1.1-2.5l-1.1-2.6c-0.7-1.7-1.5-3.4-2-5.2l-1.8-5.2l-1.4-5.3c-0.2-0.9-0.5-1.8-0.7-2.7l-0.5-2.7l-0.5-2.7
				c-0.2-0.9-0.4-1.8-0.5-2.7l-0.7-5.5l-0.2-1.4l-0.1-1.4l-0.2-2.8c-0.3-3.7-0.1-7.4-0.1-11.1c0.1-1.8,0.3-3.7,0.4-5.5l0.2-2.8
				l0.4-2.7"/>
			<path class="st7" d="M90.8,296.2c3.9-14.2,10.5-27.7,19.6-39.4c9-11.7,20.3-21.6,33.1-29.1"/>
		</g>
		<g>
			<polygon class="st8" points="119.7,224.9 139.8,230 131.4,249 167,216.7 			"/>
			<polygon class="st6" points="127.2,225.5 162.4,219 142,228.9 			"/>
		</g>
	</g>
</g>
<g>
	<g>
		<g>
			<path class="st9" d="M296.8,399c-1.4-1.1-1.7-3.1-0.7-4.6c1-1.5,3.1-1.9,4.5-0.9c1.5,1,1.8,3.1,0.7,4.6
				C300.4,399.8,298.2,400.1,296.8,399z"/>
			<path class="st9" d="M262.6,429.3c-0.9-1.6-0.3-3.5,1.2-4.5c1.5-0.9,3.6-0.5,4.5,1c1,1.5,0.5,3.5-1.1,4.6
				C265.6,431.4,263.5,430.8,262.6,429.3z"/>
			<path class="st9" d="M296.8,398.6c-7.9,10.6-17.8,19.8-28.8,27"/>
			<path class="st9" d="M262.4,429.1c-11.5,6.6-24.1,11.2-37.1,13.6"/>
		</g>
		<g>
			<path class="st9" d="M218.2,443.9c-0.2-1.8,1.1-3.3,2.9-3.6c1.8-0.3,3.5,0.9,3.8,2.7c0.3,1.8-1,3.4-2.9,3.7
				C220.1,447,218.3,445.7,218.2,443.9z"/>
			<path class="st9" d="M172.6,439.9c0.5-1.7,2.3-2.7,4.1-2.2c1.7,0.5,2.8,2.2,2.4,3.9c-0.4,1.7-2.2,2.9-4.1,2.3
				C173.2,443.4,172.1,441.6,172.6,439.9z"/>
			<path class="st9" d="M218.5,443.7c-13.2,1.5-26.6,0.8-39.5-2.3"/>
			<path class="st9" d="M172.7,439.7c-12.7-3.8-24.7-9.7-35.4-17.6"/>
		</g>
		<g>
			<polygon class="st10" points="142.6,438.7 139.9,423.8 155,423.7 122.9,409.8 			"/>
			<polygon class="st6" points="140.7,433.5 125.7,412.2 138.5,422.7 			"/>
		</g>
	</g>
</g>
</svg>
