<?xml version="1.0" encoding="utf-8"?>
<!-- Generator: Adobe Illustrator 23.0.4, SVG Export Plug-In . SVG Version: 6.00 Build 0)  -->
<svg version="1.1" id="Layer_1" xmlns="http://www.w3.org/2000/svg" xmlns:xlink="http://www.w3.org/1999/xlink" x="0px" y="0px"
	 viewBox="0 0 512 512" style="enable-background:new 0 0 512 512;" xml:space="preserve">
<style type="text/css">
	.st0{fill:none;stroke:#768293;stroke-width:1.1139;stroke-linecap:round;stroke-linejoin:round;stroke-miterlimit:10;}
	.st1{fill:none;stroke:#C1C8D3;stroke-width:1.1139;stroke-linecap:round;stroke-linejoin:round;stroke-miterlimit:10;}
	.st2{fill:none;stroke:#E2E6ED;stroke-width:2.2278;stroke-linecap:round;stroke-linejoin:round;stroke-miterlimit:10;}
	.st3{fill:none;stroke:#768293;stroke-width:1.5595;stroke-miterlimit:10;}
	.st4{fill:none;stroke:#C1C8D3;stroke-width:2.2278;stroke-miterlimit:10;}
	.st5{fill:none;stroke:#768293;stroke-width:1.1139;stroke-miterlimit:10;}
	.st6{fill:#F9F8F7;stroke:#D77526;stroke-width:2;stroke-miterlimit:10;}
	.st7{fill:#FFFFFF;}
</style>
<ellipse class="st0" cx="273" cy="386.5" rx="46.8" ry="11.1"/>
<ellipse class="st1" cx="273" cy="386.5" rx="67.6" ry="16.1"/>
<path class="st0" d="M370.7,386.5c0,12.8-43.7,23.2-97.7,23.2c-54,0-97.7-10.4-97.7-23.2c0-12.8,43.7-23.2,97.7-23.2
	C326.9,363.3,370.7,373.7,370.7,386.5z"/>
<path class="st1" d="M414.2,386.5C414.2,405,351,420,273,420c-78,0-141.2-15-141.2-33.5C131.8,368,195,353,273,353
	C351,353,414.2,368,414.2,386.5z"/>
<path class="st2" d="M477,386.5c0,26.8-91.3,48.5-204,48.5c-112.7,0-204-21.7-204-48.5c0-26.8,91.3-48.5,204-48.5
	C385.7,338.1,477,359.7,477,386.5z"/>
<g>
	<g>
		<g>
			<g>
				<path class="st3" d="M99.4,205.6c0.2-2.6-2-4.9-5-5c-3-0.1-5.4,2-5.4,4.6c0,2.6,2.2,4.8,5,4.9C96.8,210.2,99.2,208.2,99.4,205.6
					z"/>
				<path class="st3" d="M168.1,222.4c1-2.4-0.3-5.3-3-6.4c-2.7-1.1-5.7,0.1-6.6,2.6c-0.9,2.5,0.5,5.3,3.1,6.3
					C164.2,225.8,167.1,224.8,168.1,222.4z"/>
				<path class="st3" d="M98.9,205.2c10.3,0.6,20.4,2.2,30.5,4.4c10,2.2,19.9,5.1,29.5,8.7"/>
				<path class="st3" d="M168.3,222.1c18.8,8.1,36.6,19.1,51.5,33.3"/>
			</g>
			<g>
				<path class="st3" d="M227.5,263.5c1.9-1.8,1.8-4.9-0.2-7.1c-1-1.1-2.3-1.7-3.6-1.7c-1.3,0-2.5,0.4-3.4,1.4
					c-0.9,1-1.3,2.2-1.2,3.5c0.1,1.2,0.6,2.5,1.5,3.5C222.4,265.1,225.6,265.3,227.5,263.5z"/>
				<path class="st3" d="M262.4,324.7c2.5-0.8,3.8-3.6,2.8-6.4c-0.9-2.8-3.7-4.3-6.2-3.4c-2.4,0.9-3.7,3.8-2.8,6.4
					C257.1,324,259.9,325.5,262.4,324.7z"/>
				<path class="st3" d="M227.4,262.9c7,7.5,13.2,15.7,18.7,24.5c5.3,8.8,9.7,18.1,13.4,27.7"/>
				<path class="st3" d="M262.7,324.7c5.9,19.7,8.5,40.3,8.5,60.8"/>
			</g>
		</g>
	</g>
</g>
<g>
	<g>
		<g>
			<g>
				<path class="st4" d="M270.6,369.7c3.7-0.2,6.9,2.8,6.9,6.7c0.1,3.9-2.9,7-6.6,7c-3.8,0-6.9-3-6.9-6.7
					C263.9,373,266.8,369.8,270.6,369.7z"/>
				<path class="st4" d="M252.9,278.2c1.7-0.7,3.6-0.6,5.2,0.2c0.8,0.4,1.6,0.9,2.2,1.6c0.6,0.7,1.1,1.5,1.4,2.4
					c1.2,3.7-0.6,7.6-4.2,8.7c-3.6,1.1-7.4-0.8-8.6-4.2c-0.3-0.9-0.4-1.8-0.3-2.6c0.1-0.9,0.2-1.7,0.6-2.5
					C249.8,280.2,251.1,278.9,252.9,278.2z"/>
				<path class="st4" d="M271.1,370.3l-0.1-2.5l-0.2-2.5l-0.3-5.1l-0.3-5.1c-0.1-1.7-0.2-3.4-0.4-5.1l-1.2-10.1l-0.3-2.5l-0.1-1.3
					L268,335l-0.8-5c-2-13.4-5.3-26.6-9.4-39.4"/>
				<path class="st4" d="M253.3,278l-1.9-4.7l-0.9-2.4l-0.5-1.2l-0.5-1.1l-4.3-9.2c-3.1-6-6.3-12-10-17.7
					c-7.2-11.4-15.6-22.1-25.1-31.8"/>
			</g>
			<g>
				<path class="st4" d="M198.9,200.1c1.2-1.4,2.9-2.2,4.7-2.3c1.8-0.1,3.7,0.5,5,1.9c2.8,2.7,2.9,7.1,0.2,9.7
					c-2.7,2.6-7,2.7-9.5,0.2c-1.3-1.3-2-2.9-2.1-4.6C197.1,203.3,197.7,201.6,198.9,200.1z"/>
				<path class="st4" d="M117.1,156.3c0.5-1.8,1.7-3.2,3.3-4.1c1.6-0.8,3.5-1,5.3-0.4c3.7,1.2,5.7,5,4.4,8.6
					c-1.3,3.5-5.1,5.4-8.6,4.3c-1.7-0.6-3.1-1.8-3.9-3.4C116.8,160,116.5,158.1,117.1,156.3z"/>
				<path class="st4" d="M199.8,200.2c-20.3-17.9-44.4-31.4-69.9-40.3"/>
				<path class="st4" d="M117.1,155.8c-26-7.6-53.1-11.1-80.1-11.1"/>
			</g>
		</g>
	</g>
</g>
<g>
	<g>
		<g>
			<g>
				<path class="st5" d="M270.8,376.3c1.9,0,3.4,1.4,3.5,3.2c0,1.8-1.5,3.2-3.3,3.2c-1.9,0-3.4-1.4-3.5-3.2
					C267.4,377.7,268.9,376.3,270.8,376.3z"/>
				<path class="st5" d="M268.8,332.9c1.9-0.2,3.5,1.1,3.7,2.9c0.1,1.8-1.3,3.3-3.2,3.4c-1.9,0.1-3.5-1.2-3.6-2.9
					C265.6,334.6,267,333,268.8,332.9z"/>
				<path class="st5" d="M271,376.6c-0.1-6.3-0.2-12.6-0.4-18.8l-1.1-18.8"/>
				<polyline class="st5" points="269.1,332.8 267.2,314.1 264.6,295.4 				"/>
			</g>
			<g>
				<path class="st5" d="M263.2,288.7c1.8-0.3,3.6,0.8,3.9,2.6c0.4,1.7-1,3.4-2.8,3.7c-1.9,0.3-3.5-0.9-3.9-2.6
					C260.1,290.7,261.3,289,263.2,288.7z"/>
				<path class="st5" d="M253.3,246.4c1.8-0.5,3.7,0.4,4.2,2.1c0.5,1.7-0.6,3.5-2.4,4c-1.8,0.5-3.7-0.5-4.2-2.1
					C250.5,248.7,251.5,246.9,253.3,246.4z"/>
				<path class="st5" d="M263.5,289l-1.8-9.3c-0.6-3.1-1.1-6.2-1.9-9.2l-2.2-9.2c-0.7-3-1.4-6.1-2.3-9.1"/>
				<path class="st5" d="M253.6,246.3c-0.9-3-1.7-6-2.7-9l-3.1-8.9l-1.6-4.4l-0.8-2.2l-0.9-2.2l-3.6-8.7"/>
			</g>
			<g>
				<path class="st5" d="M238.1,204.6c0.9-0.4,1.8-0.4,2.6-0.1c0.8,0.3,1.5,0.8,1.8,1.7c0.7,1.6-0.2,3.6-1.9,4.3
					c-1.7,0.7-3.7,0-4.3-1.6c-0.3-0.8-0.3-1.7,0-2.4C236.6,205.7,237.2,205,238.1,204.6z"/>
				<path class="st5" d="M217.2,166.5c1.6-1,3.6-0.7,4.5,0.8c0.9,1.5,0.4,3.5-1.2,4.5c-1.6,1-3.6,0.6-4.5-0.8
					C215.1,169.6,215.6,167.6,217.2,166.5z"/>
				<path class="st5" d="M238.4,204.8l-4-8.5l-2-4.3l-2.3-4.1l-4.5-8.3c-1.6-2.7-3.3-5.3-4.9-8"/>
				<path class="st5" d="M217.3,166.4l-5.4-7.7l-2.7-3.8l-2.9-3.7c-2-2.4-3.9-4.9-5.9-7.3l-6.3-7"/>
			</g>
			<g>
				<path class="st5" d="M189,132.1c1.3-1.3,3.4-1.4,4.7-0.1c1.3,1.3,1.1,3.4-0.3,4.7c-1.4,1.3-3.4,1.2-4.6,0
					C187.6,135.5,187.7,133.4,189,132.1z"/>
				<path class="st5" d="M155.6,104.5c1-1.6,3.1-2,4.5-1c1.5,1,1.8,3.1,0.7,4.6c-1.1,1.5-3.1,2-4.5,1
					C154.8,108.1,154.5,106,155.6,104.5z"/>
				<path class="st5" d="M189.4,132.1l-6.7-6.6l-7.1-6.2l-1.8-1.6c-0.6-0.5-1.2-1-1.8-1.5l-3.7-2.9l-3.7-2.9
					c-1.3-0.9-2.6-1.8-3.9-2.7"/>
				<path class="st5" d="M155.7,104.2c-10.5-6.9-21.6-12.9-33.1-18"/>
			</g>
			<g>
				<path class="st5" d="M116.2,83.8c0.7-1.7,2.6-2.6,4.2-1.9c1.6,0.7,2.4,2.7,1.6,4.4c-0.7,1.7-2.6,2.6-4.2,1.9
					C116.2,87.5,115.5,85.6,116.2,83.8z"/>
				<path class="st5" d="M74.5,71.9c0.3-1.8,2-3.1,3.8-2.8c1.7,0.4,2.8,2.2,2.4,4c-0.4,1.8-2.1,3-3.8,2.7
					C75.2,75.5,74.1,73.7,74.5,71.9z"/>
				<path class="st5" d="M116.6,83.7c-11.7-4.6-23.7-8.3-36-10.9"/>
				<path class="st5" d="M74.5,71.6C62.1,69.3,49.6,68.1,37,68"/>
			</g>
		</g>
	</g>
</g>
<path class="st6" d="M278.4,374.6c1.1,4.5-1.7,9-6.2,10.2c-4.5,1.1-9-1.7-10.2-6.2c-1.1-4.5,1.7-9,6.2-10.2
	C272.8,367.4,277.3,370.1,278.4,374.6z"/>
<g>
	<path class="st7" d="M281.5,389.9c-2.6-26.9,0.1-54.6,8.2-80.9c8.1-26.3,21.5-51.1,39.3-72.6c17.8-21.5,40-39.7,65-52.9
		c25.1-13.3,53-21.6,81.6-24.2l0.1,0c7.9-0.7,14.9,5.1,15.6,13c0.7,7.9-5.1,14.9-13,15.6c-0.4,0-0.8,0.1-1.2,0.1
		c-25,0.3-50.2,5.5-73.6,15.6c-23.4,10-44.9,24.8-63,43.4c-18.1,18.5-32.6,40.8-42.3,65.2c-9.8,24.4-14.6,51-14.2,77.7
		c0,0.7-0.6,1.3-1.3,1.3C282.2,391.2,281.6,390.6,281.5,389.9L281.5,389.9z"/>
</g>
<g>
	<path class="st7" d="M285.7,385c1.6-20.4,7.2-40.7,16.7-59.3c9.5-18.6,22.7-35.3,38.8-49.1c16.1-13.7,35-24.4,55.5-31
		c20.4-6.6,42.4-9.2,64.1-7.4l0.1,0c6,0.5,10.5,5.7,10,11.7c-0.5,6-5.7,10.5-11.7,10c-0.3,0-0.6-0.1-0.9-0.1
		c-18.7-3.1-38.2-2.5-56.9,2c-18.8,4.4-36.8,12.6-52.7,24.1c-15.9,11.5-29.7,26.2-40.1,43.1c-10.5,16.9-17.6,36.1-20.8,56.1
		c-0.1,0.5-0.6,0.9-1.1,0.8C286.1,386,285.7,385.5,285.7,385L285.7,385z"/>
</g>
<g>
	<path class="st7" d="M258.1,381.6c-5.4-15.2-13.7-29.2-24.4-41c-10.6-11.8-23.5-21.3-37.7-28c-14.1-6.7-29.4-10.5-44.7-11.3
		c-15.3-0.8-30.7,1.6-44.9,6.7c-4.5,1.6-9.5-0.7-11.1-5.2c-1.6-4.5,0.7-9.5,5.2-11.1c0.2-0.1,0.4-0.1,0.7-0.2l0.1,0
		c16.7-4.5,34.3-5.7,51.2-3.5c17,2.2,33.3,7.8,47.9,16.3c14.6,8.4,27.4,19.7,37.5,32.8c10.1,13.2,17.5,28.2,21.7,44l0,0
		c0.1,0.4-0.1,0.9-0.6,1C258.7,382.2,258.3,382,258.1,381.6z"/>
</g>
</svg>
