<svg version="1.1" id="Layer_1" xmlns="http://www.w3.org/2000/svg" x="0" y="0" viewBox="0 0 512 512" style="enable-background:new 0 0 512 512" xml:space="preserve"><style>.st0{fill:#fff}.st1{fill:none;stroke:#d77526;stroke-width:3.4208;stroke-miterlimit:10}.st2{fill:#d77526}.st3{fill:none;stroke:#768293;stroke-width:1.5081;stroke-miterlimit:10}.st4{fill:#768293}.st5{fill:none;stroke:#404751;stroke-width:.9196;stroke-miterlimit:10}.st6{fill:#404751}.st7,.st8,.st9{fill:none;stroke:#d77526;stroke-width:2.4121;stroke-miterlimit:10}.st8,.st9{stroke:#768293;stroke-width:1.0634}.st9{stroke:#404751;stroke-width:.6484}</style><path class="st0" d="M435.1 116.4c19.1 24.3 33.5 52.6 41.9 82.9 8.4 30.3 10.8 62.5 7 94.1-3.9 31.7-14 62.8-30 91-15.9 28.2-37.7 53.4-63.6 73.6l-.1.1c-7.2 5.6-17.5 4.3-23.1-2.9-5.6-7.2-4.3-17.5 2.9-23.1.3-.3.7-.5 1.1-.8 23.9-15.7 44.9-36.2 61.2-60.3 16.3-24 28-51.6 33.9-80.6 6-29 6.2-59.3.6-88.8-5.7-29.5-17.3-58.1-34.2-83.6-.5-.7-.3-1.6.4-2.1.6-.3 1.5-.1 2 .5zM43.4 272.7c-7.4-23.6-10.1-48.9-7.8-73.9 2.3-25 9.7-49.8 21.6-72.3 11.9-22.6 28.3-43 48.3-59.5 19.9-16.6 43.4-29.2 68.5-36.9h.1c6.9-2.1 14.3 1.8 16.4 8.7 2.1 6.9-1.8 14.3-8.7 16.4-.3.1-.7.2-1 .3-22.4 4.9-43.9 14.3-62.9 27.7-19 13.3-35.6 30.6-48.2 50.6C57 153.7 48.2 176.4 44 200c-4.2 23.7-3.6 48.3 1.8 72.2.1.6-.3 1.3-.9 1.4-.7.1-1.3-.3-1.5-.9z"/><path class="st1" d="M340.1 388.2c-1.6-2.3-2.2-5.1-1.8-7.8.2-1.3.6-2.6 1.2-3.7.6-1.2 1.5-2.2 2.5-3.1 1.1-.8 2.3-1.5 3.5-1.9 1.2-.4 2.6-.5 3.9-.4 2.6.2 5.2 1.3 7.2 3.4 2 2.1 2.8 4.8 2.6 7.6-.1 1.4-.6 2.7-1.2 4-.7 1.3-1.6 2.5-2.9 3.4-1.2 1-2.6 1.7-4 2.1-1.4.4-2.8.5-4.2.3-2.6-.1-5.1-1.5-6.8-3.9zM201.1 411.5c.8-2.8 2.7-4.9 4.9-6.3 1.1-.7 2.4-1.1 3.7-1.3 1.3-.2 2.6-.2 4 .1.7.2 1.3.4 1.9.7.6.3 1.2.6 1.7.9 1.1.7 2 1.7 2.7 2.8 1.5 2.2 2.3 4.9 1.8 7.7-.4 2.8-2 5.3-4.3 6.8-1.2.7-2.5 1.3-3.9 1.5-.7.1-1.5.2-2.2.2-.7 0-1.5-.1-2.3-.3-1.5-.4-2.9-.9-4.1-1.8-1.2-.9-2.2-1.9-2.9-3.1-1.4-2.3-1.8-5.2-1-7.9z"/><path class="st1" d="M340.5 387c-17.1 12.2-36.5 21-56.8 25.8-20.4 4.9-41.7 5.7-62.4 2.4M201.2 410.7c-20.1-5.9-39.1-15.5-55.5-28.6-16.4-13-30.2-29.3-40.5-47.5"/><g><path class="st2" d="m100.7 368.3 7.7-28.5 26.7 12.3L90.2 301z"/><path class="st0" d="m101.8 357.5-8.6-50 13.7 29.2z"/></g><g><path class="st3" d="M351.5 120.8c-1.6 2-4.4 2.3-6.5.8-2.1-1.5-2.6-4.4-1.2-6.5 1.4-2.1 4.4-2.5 6.6-.9 2.2 1.6 2.6 4.6 1.1 6.6zM393.6 170c-2.2 1.2-5 .4-6.3-1.8-1.3-2.2-.6-5.1 1.5-6.4 2.2-1.4 5-.6 6.4 1.7 1.4 2.3.6 5.2-1.6 6.5z"/><path class="st3" d="M350.9 120.7c14.9 11.5 27.7 25.6 37.7 41.5M393.3 170.2c9.1 16.4 15.4 34.4 18.4 53"/><g><path class="st3" d="M413.4 233.3c-1.3.1-2.5-.3-3.4-1-.5-.4-.8-.8-1.1-1.4-.3-.5-.5-1.1-.6-1.7-.3-2.5 1.4-4.9 3.9-5.3 2.5-.4 4.8 1.4 5.2 4.1.1.7.1 1.3-.1 1.9-.2.6-.5 1.2-.8 1.7-.7.9-1.8 1.6-3.1 1.7zM406.8 297.7c-2.4-.8-3.8-3.4-3.1-5.8.8-2.4 3.2-4 5.6-3.4 2.4.6 4 3.2 3.2 5.8-.7 2.7-3.3 4.2-5.7 3.4z"/><path class="st3" d="M413 232.9c1.9 18.7.5 37.7-4.1 55.9M406.4 297.7c-5.6 17.9-14.3 34.9-25.7 49.8"/></g><g><path class="st4" d="m404.4 340.3-21.1 3.6v-21.5L363 367.7z"/><path class="st0" d="m397 342.9-30.6 20.8 15.2-17.9z"/></g></g><g><path class="st5" d="M88.2 288.3c1.5-.4 3 .5 3.4 1.9.4 1.4-.5 2.9-2 3.4-1.5.4-3-.4-3.4-1.9-.4-1.5.5-3 2-3.4zM83.2 251.6c1.5 0 2.8 1.1 2.9 2.6.1 1.5-1.2 2.7-2.7 2.8-1.6.1-2.8-1.1-2.9-2.6-.1-1.5 1.1-2.8 2.7-2.8z"/><path class="st5" d="M88.5 288.5c-2.7-10.4-4.3-21-4.9-31.7M83.4 251.6c-.3-10.7.7-21.4 2.5-32M86.9 213.8c1.5.3 2.5 1.8 2.2 3.2-.3 1.4-1.8 2.4-3.3 2.1-1.5-.3-2.5-1.7-2.2-3.2.3-1.5 1.7-2.5 3.3-2.1zM98.8 178.7c1.4.7 2 2.3 1.4 3.6-.6 1.3-2.2 1.9-3.7 1.3-1.4-.6-2.1-2.2-1.4-3.6.6-1.4 2.3-2 3.7-1.3z"/><path class="st5" d="M87 214.1c2.2-10.5 5.6-20.7 9.8-30.5M99 178.7c4.6-9.7 10.1-18.9 16.5-27.5"/><g><path class="st5" d="M118.9 146.4c1.2 1 1.4 2.7.5 3.8-.9 1.1-2.6 1.4-3.9.4-1.2-.9-1.5-2.7-.6-3.9 1-1 2.8-1.2 4-.3zM145.2 120.3c1 1.2.8 2.9-.4 3.9-1.1.9-2.8.8-3.8-.4-1-1.2-.9-2.9.3-3.9 1.2-1.1 3-.8 3.9.4z"/><path class="st5" d="M118.9 146.8c6.7-8.4 14.2-16.1 22.4-23M145.4 120.5c8.4-6.6 17.5-12.4 27-17.2"/></g><g><path class="st5" d="M177.6 100.5c.3.7.3 1.5.1 2.1-.2.7-.7 1.3-1.3 1.6-1.3.7-2.9.1-3.6-1.3-.7-1.4-.2-3.1 1.2-3.7.7-.3 1.4-.4 2.1-.1.6.2 1.2.7 1.5 1.4zM212.8 88.8c.3 1.5-.6 3-2 3.3-1.4.3-2.9-.6-3.3-2.1-.4-1.5.5-3 2-3.3 1.5-.4 3 .6 3.3 2.1z"/><path class="st5" d="M177.4 100.8c9.7-4.5 19.9-8.1 30.3-10.6M212.9 89c10.5-2.2 21.2-3.3 31.9-3.4"/></g><g><path class="st5" d="M250.6 85.5c0 1.5-1.3 2.8-2.7 2.7-1.5 0-2.7-1.3-2.7-2.9 0-1.6 1.2-2.8 2.7-2.8 1.6.1 2.8 1.4 2.7 3zM287.3 90.8c-.4 1.5-1.9 2.4-3.3 2-1.4-.3-2.3-1.8-2-3.3.3-1.5 1.8-2.5 3.3-2.1 1.5.3 2.4 1.9 2 3.4z"/><path class="st5" d="M250.3 85.7c10.7.3 21.4 1.7 31.8 4.1M287.3 91l3.9 1.1 1.9.5 1.9.6c2.5.9 5.1 1.6 7.6 2.6 5 1.9 9.9 4 14.8 6.3"/></g><g><path class="st6" d="m307.1 83.2 6.7 17.4-18.2 3.7 42.1 9.4z"/><path class="st0" d="m310.6 89.1 23.1 22.4-17.9-9.8z"/></g></g><g><path class="st7" d="M132.3 261.3c1-.1 2 0 2.9.3.9.3 1.8.7 2.5 1.3 1.5 1.1 2.5 2.8 2.8 4.7.1 1 .1 1.9-.1 2.8-.2.9-.6 1.7-1.1 2.5-1 1.5-2.7 2.8-4.7 3.2-2 .5-3.9 0-5.5-1.1-.8-.6-1.5-1.3-2-2.2-.5-.9-1-1.9-1.1-3-.3-2.2.3-4.3 1.4-5.8.6-.8 1.3-1.4 2.1-1.9.8-.4 1.7-.7 2.8-.8zM166.9 168.1c1.4 1.5 2 3.3 2.1 5.2 0 1.9-.6 3.7-1.9 5.1-.3.4-.7.7-1.1.9-.4.3-.8.5-1.2.7-.8.4-1.7.6-2.6.7-1.8.1-3.8-.4-5.4-1.6-1.6-1.3-2.5-3.1-2.6-5-.1-1 .1-2 .4-3 .2-.5.4-1 .6-1.4.3-.4.6-.9 1-1.3 1.5-1.6 3.5-2.5 5.4-2.6 1.9.1 3.9.8 5.3 2.3z"/><path class="st7" d="m132.9 262-.4-5.5c0-.9-.1-1.8-.1-2.8v-5.6c0-.9 0-1.8.1-2.8l.4-5.5c0-.9.2-1.8.3-2.8l.4-2.7c.3-1.8.5-3.7.9-5.5l1.1-5.4 1.5-5.3c.3-.9.5-1.8.8-2.7l.9-2.6.9-2.6c.3-.9.6-1.7 1-2.6l2.2-5.1.6-1.3.6-1.2 1.3-2.5c1.6-3.3 3.7-6.4 5.6-9.6 1-1.5 2.1-3 3.2-4.5l1.6-2.3 1.8-2.1M167.3 168.5c10.6-10.2 23.2-18.5 37-23.9 13.7-5.5 28.5-8.2 43.3-8.1"/><g><path class="st2" d="m228.5 121.9 14.7 14.7-16.9 12 47.1-9.5z"/><path class="st0" d="m234.7 126.3 33.6 12.4-22.7-1.9z"/></g><g><path class="st8" d="M291.8 362.2c-.7-1.7.1-3.5 1.8-4.3 1.6-.7 3.6 0 4.4 1.6.8 1.6 0 3.6-1.7 4.4-1.9.7-3.9-.1-4.5-1.7zM246.9 370.6c0-1.8 1.5-3.2 3.3-3.2 1.8 0 3.3 1.4 3.4 3.2.1 1.8-1.4 3.3-3.3 3.3s-3.4-1.5-3.4-3.3z"/><path class="st8" d="M292 361.8c-12.2 5-25.4 7.9-38.6 8.5M246.9 370.4c-13.2-.2-26.5-2.7-38.9-7.3"/><g><path class="st8" d="M201.2 360.5c.8-1.6 2.6-2.3 4.3-1.7 1.7.7 2.5 2.6 1.9 4.3-.6 1.7-2.6 2.5-4.4 1.7-1.7-.6-2.5-2.7-1.8-4.3zM164.1 333.8c1.3-1.2 3.4-1.1 4.6.2 1.2 1.3 1.3 3.3.1 4.6-1.2 1.3-3.4 1.3-4.7-.1-1.3-1.4-1.3-3.5 0-4.7z"/><path class="st8" d="M201.6 360.4c-12.1-5.4-23.2-12.9-32.7-22.1M164.3 333.6c-9-9.7-16.3-21-21.4-33.2"/></g><g><path class="st4" d="m138.9 317.4 5.3-14.2 13.1 7.6-20.6-28.3z"/><path class="st0" d="m140 312-2-26 5.6 15.6z"/></g></g><g><path class="st9" d="M281.8 142.3c-.3 1.1-1.3 1.7-2.3 1.4-1-.3-1.6-1.3-1.4-2.4.3-1.1 1.3-1.7 2.3-1.4 1.1.3 1.7 1.4 1.4 2.4zM306 152.2c-.5 1-1.7 1.3-2.6.9-.9-.5-1.3-1.7-.8-2.6.5-1 1.7-1.4 2.6-.9 1 .4 1.3 1.6.8 2.6z"/><path class="st9" d="M281.6 142.4c7.3 2 14.3 4.8 21.1 8.1M306 152.3c6.6 3.6 12.9 7.9 18.7 12.8M327.8 167.7c-.7.8-2 .9-2.7.2-.8-.7-.8-1.9-.1-2.7.7-.8 1.9-1 2.7-.2.8.7.9 1.9.1 2.7zM345.1 187.3c-.9.6-2.1.4-2.7-.4-.6-.8-.4-2.1.5-2.7.9-.7 2.1-.5 2.7.4.6.9.4 2.1-.5 2.7z"/><path class="st9" d="M327.6 167.7c5.6 5 10.7 10.7 15.2 16.7M345 187.4c4.3 6.2 8 12.8 11 19.7"/><g><path class="st9" d="M357.8 210.9c-1 .4-2.2-.1-2.5-1-.4-1 .1-2.1 1.1-2.5 1-.4 2.2 0 2.6 1 .3 1-.2 2.1-1.2 2.5zM364.5 236.2c-1.1.2-2-.6-2.2-1.6-.2-1 .5-2 1.6-2.2 1.1-.2 2.1.5 2.3 1.6.2 1-.6 2-1.7 2.2z"/><path class="st9" d="M357.6 210.8c2.8 7 4.8 14.3 6.2 21.8M364.3 236.2c1.1 7.5 1.4 15.1 1 22.6"/></g><g><path class="st9" d="M365.3 263c-1.1-.1-1.9-1-1.8-2 .1-1 1-1.8 2.1-1.8 1.1.1 1.9 1 1.9 2.1-.2 1-1.1 1.8-2.2 1.7zM360 288.6c-1-.3-1.6-1.4-1.3-2.4.3-1 1.4-1.5 2.5-1.2 1 .3 1.6 1.4 1.3 2.4-.3 1-1.4 1.5-2.5 1.2z"/><path class="st9" d="M365.1 262.8c-.7 7.5-2.1 15-4.2 22.2M359.9 288.6c-2.3 7.2-5.4 14.1-9.1 20.7"/></g><g><path class="st9" d="M348.8 312.9c-.9-.6-1.2-1.8-.7-2.6.5-.9 1.7-1.2 2.7-.6 1 .5 1.3 1.7.7 2.6-.6.9-1.8 1.2-2.7.6zM332.6 333.5c-.8-.8-.8-2-.1-2.7.7-.8 1.9-.8 2.7 0 .8.7.9 2 .1 2.8-.6.7-1.9.6-2.7-.1z"/><path class="st9" d="M348.8 312.7c-3.9 6.4-8.5 12.5-13.7 18M332.5 333.4c-2.6 2.7-5.5 5.2-8.3 7.7-2.9 2.4-5.9 4.7-9.1 6.8"/></g><g><path class="st6" d="m330.3 348.2-13-2 4.2-12.4-20.5 22.4z"/><path class="st0" d="m325.5 348.3-21.8 6.2L316 347z"/></g></g></g></svg>