<?xml version="1.0" encoding="UTF-8" standalone="no"?><!DOCTYPE svg PUBLIC "-//W3C//DTD SVG 1.1//EN" "http://www.w3.org/Graphics/SVG/1.1/DTD/svg11.dtd"><svg width="100%" height="100%" viewBox="0 0 2138 2134" version="1.1" xmlns="http://www.w3.org/2000/svg" xmlns:xlink="http://www.w3.org/1999/xlink" xml:space="preserve" xmlns:serif="http://www.serif.com/" style="fill-rule:evenodd;clip-rule:evenodd;stroke-miterlimit:10;"><rect id="aaftw" x="3.926" y="0" width="2133.33" height="2133.33" style="fill:none;"/><g id="bg-col-as-page" serif:id="bg col as page"></g><g id="AAFTW"><path d="M1661.15,109.94c-99.7,35.355 -191.438,90.025 -268.521,159.859c-77.167,69.725 -139.633,154.296 -183.425,246.787c-43.863,92.471 -69.025,192.8 -73.958,293.267c-5.063,100.496 10.27,200.908 43.758,294.15c10.612,29.554 -4.738,62.112 -34.292,72.729c-29.55,10.613 -62.112,-4.737 -72.721,-34.292c-0.512,-1.42 -0.962,-2.85 -1.354,-4.283l-0.129,-0.496c-29.625,-109.725 -37.404,-224.716 -22.679,-335.9c14.558,-111.216 51.3,-218.475 106.517,-314.054c55.166,-95.629 128.808,-179.583 215.137,-245.729c86.238,-66.275 185.163,-114.454 288.525,-141.933l0.067,-0.017c2.775,-0.742 5.621,0.912 6.354,3.683c0.7,2.629 -0.763,5.329 -3.279,6.229" style="fill:#bfc8d2;fill-opacity:0.5;fill-rule:nonzero;"/><path d="M1160.23,829.578c5.454,2.22 8.258,7.975 6.712,12.979c-1.587,4.996 -7.129,8.137 -12.866,6.9c-5.738,-1.234 -9.317,-7.229 -7.438,-13.204c1.859,-5.984 8.171,-8.88 13.592,-6.675Z" style="fill:none;fill-rule:nonzero;stroke:#c1c8d3;stroke-width:3.49px;"/><path d="M1256.34,727.779c2.879,5.117 1.317,11.459 -3.371,14.359c-4.679,2.9 -11.041,1.454 -14.345,-3.409c-3.288,-4.854 -1.93,-11.521 3.175,-14.675c5.091,-3.158 11.662,-1.391 14.541,3.725Z" style="fill:none;fill-rule:nonzero;stroke:#c1c8d3;stroke-width:3.49px;"/><path d="M1160.61,830.831c7.325,-19.15 18.742,-36.571 32.359,-51.871c13.671,-15.304 29.571,-28.546 46.646,-39.921" style="fill:none;fill-rule:nonzero;stroke:#c1c8d3;stroke-width:3.49px;"/><path d="M1256.83,728.418c35.708,-20.317 75.266,-33.675 115.812,-40.163" style="fill:none;fill-rule:nonzero;stroke:#c1c8d3;stroke-width:3.49px;"/><path d="M1394.88,684.7c0.495,5.85 -3.571,10.975 -9.067,11.655c-5.5,0.666 -10.683,-3.338 -11.604,-9.138c-0.913,-5.8 3.116,-11.254 9.033,-11.971c5.925,-0.725 11.15,3.609 11.638,9.454Z" style="fill:none;fill-rule:nonzero;stroke:#c1c8d3;stroke-width:3.49px;"/><path d="M1533.94,707.312c-2.679,5.229 -8.725,7.471 -13.679,5.329c-4.95,-2.162 -7.421,-8.15 -5.396,-13.666c2.025,-5.5 8.3,-8.263 13.9,-5.817c5.608,2.425 7.854,8.929 5.175,14.154Z" style="fill:none;fill-rule:nonzero;stroke:#c1c8d3;stroke-width:3.49px;"/><path d="M1393.92,685.588c40.805,-3.755 82.805,-0.234 121.259,14.362" style="fill:none;fill-rule:nonzero;stroke:#c1c8d3;stroke-width:3.49px;"/><path d="M1533.69,708.073c18.325,9.158 35.196,21.329 49.3,36.208c14.137,14.854 25.383,32.359 33.446,51.196" style="fill:none;fill-rule:nonzero;stroke:#c1c8d3;stroke-width:3.49px;"/><path d="M1624.86,816.333c-5.633,1.646 -11.442,-1.238 -13.267,-6.313c-1.804,-5.075 0.854,-10.966 6.242,-13.283c5.404,-2.329 11.729,0.367 13.779,6.129c2.067,5.746 -1.112,11.821 -6.754,13.467Z" style="fill:none;fill-rule:nonzero;stroke:#c1c8d3;stroke-width:3.49px;"/><path d="M1627.27,957.402c-5.687,-1.521 -9.137,-7 -8.033,-12.321c1.116,-5.329 6.529,-8.958 12.304,-8.058c5.821,0.912 9.742,6.491 8.504,12.425c-1.242,5.937 -7.121,9.466 -12.775,7.954Z" style="fill:none;fill-rule:nonzero;stroke:#c1c8d3;stroke-width:3.49px;"/><path d="M1623.81,815.576c5.996,19.629 9.13,40.063 10.117,60.563c0.975,20.508 0.113,41.141 -3.271,61.391" style="fill:none;fill-rule:nonzero;stroke:#c1c8d3;stroke-width:3.49px;"/><path d="M1626.47,957.308c-5.15,19.85 -13.117,38.996 -24.055,56.354c-10.883,17.396 -24.537,32.971 -39.879,46.588" style="fill:none;fill-rule:nonzero;stroke:#c1c8d3;stroke-width:3.49px;"/><path d="M1545.61,1075.09c-3.5,-4.713 -2.742,-11.2 1.513,-14.671c4.275,-3.446 10.758,-2.833 14.658,1.55c3.904,4.387 3.408,11.192 -1.271,14.967c-4.662,3.795 -11.392,2.866 -14.9,-1.846Z" style="fill:none;fill-rule:nonzero;stroke:#c1c8d3;stroke-width:3.49px;"/><path d="M1420.06,1142.21c2.339,5.382 8.533,7.886 13.823,5.587c5.29,-2.299 7.687,-8.535 5.348,-13.918c-2.339,-5.382 -8.533,-7.885 -13.823,-5.586c-5.29,2.298 -7.687,8.535 -5.348,13.917Z" style="fill:none;stroke:#c1c8d3;stroke-width:3.49px;"/><path d="M1545.95,1073.84c-32.846,24.8 -70.134,42.909 -107.684,59.559" style="fill:none;fill-rule:nonzero;stroke:#c1c8d3;stroke-width:3.49px;"/><path d="M1419.66,1141.48c-37.825,16.2 -76.108,31.513 -113.054,49.83" style="fill:none;fill-rule:nonzero;stroke:#c1c8d3;stroke-width:3.49px;"/><path d="M1286.79,1202.34c2.698,5.213 9.076,7.279 14.235,4.609c5.159,-2.669 7.157,-9.069 4.46,-14.283c-2.698,-5.213 -9.077,-7.279 -14.236,-4.609c-5.159,2.669 -7.157,9.069 -4.459,14.283Z" style="fill:none;stroke:#c1c8d3;stroke-width:3.49px;"/><path d="M1175.72,1290.15c-4.592,-3.608 -5.329,-10.413 -1.375,-14.954c3.937,-4.559 10.733,-4.829 15.004,-0.784c4.258,4.025 4.658,10.542 1.075,14.692c-3.596,4.133 -10.067,4.696 -14.704,1.046Z" style="fill:none;fill-rule:nonzero;stroke:#c1c8d3;stroke-width:3.49px;"/><path d="M1287.46,1201.16c-36.271,19.412 -70.963,42.85 -99.138,73.179" style="fill:none;fill-rule:nonzero;stroke:#c1c8d3;stroke-width:3.49px;"/><path d="M1175.03,1289.74c-12.875,16.15 -23.787,33.854 -32.429,52.613c-8.612,18.775 -15,38.533 -19.387,58.695" style="fill:none;fill-rule:nonzero;stroke:#c1c8d3;stroke-width:3.49px;"/><path d="M1103.99,782.223c6.746,1.966 12.063,6.345 15.521,11.462c3.442,5.15 5.067,11.025 4.15,16.971c-0.921,5.946 -4.25,11.025 -9.075,14.883c-4.833,3.817 -11.213,6.413 -18.238,6.275c-7,-0.133 -13.329,-3.175 -17.62,-8.45c-4.305,-5.233 -6.48,-12.691 -5.275,-20.479c1.208,-7.792 5.533,-14.212 11.195,-17.892c5.671,-3.72 12.621,-4.729 19.342,-2.77Z" style="fill:none;fill-rule:nonzero;stroke:#d77526;stroke-width:8.33px;"/><path d="M1358,570.471c3.467,13.617 -3.921,27.238 -16.266,31.284c-12.355,4 -26.355,-2.675 -31.563,-15.721c-5.192,-13.017 1.75,-28.017 15.838,-32.592c14.079,-4.6 28.541,3.45 31.991,17.029Z" style="fill:none;fill-rule:nonzero;stroke:#d77526;stroke-width:8.33px;"/><path d="M1105.15,785.128c6.525,-23.779 17.496,-46.233 31.346,-66.654c13.871,-20.434 30.583,-38.9 49.033,-55.363c36.988,-32.921 80.592,-58.075 126.767,-75.85" style="fill:none;fill-rule:nonzero;stroke:#d77526;stroke-width:8.33px;"/><path d="M1358.74,572.249c47.842,-12.629 97.95,-17.604 147.183,-12.346c49.105,5.2 97.505,21.292 137.934,49.859" style="fill:none;fill-rule:nonzero;stroke:#d77526;stroke-width:8.33px;"/><path d="M1685.88,643.966c-5.15,4.762 -11.671,7.042 -17.904,7.246c-6.258,0.179 -12.263,-1.696 -16.933,-5.854c-4.671,-4.142 -7.246,-9.884 -7.805,-16.117c-0.537,-6.213 0.959,-12.954 5.075,-18.638c4.121,-5.675 10.2,-9.141 16.88,-9.795c6.658,-0.68 13.866,1.495 19.587,6.566c5.713,5.084 8.725,11.992 8.838,18.679c0.133,6.709 -2.588,13.155 -7.738,17.913Z" style="fill:none;fill-rule:nonzero;stroke:#d77526;stroke-width:8.33px;"/><path d="M1758.13,967.436c-6.73,-2.029 -11.996,-6.483 -15.325,-11.771c-3.33,-5.325 -4.73,-11.483 -3.475,-17.663c1.245,-6.187 4.941,-11.35 10.083,-14.966c5.146,-3.592 11.737,-5.625 18.717,-4.842c6.958,0.775 12.983,4.346 16.87,9.771c3.892,5.404 5.634,12.671 4.125,20.113c-1.504,7.441 -5.937,13.491 -11.641,16.962c-5.709,3.5 -12.659,4.417 -19.354,2.396Z" style="fill:none;fill-rule:nonzero;stroke:#d77526;stroke-width:8.33px;"/><path d="M1682.79,643.453c34.083,35.933 56.916,81.429 69.995,129.054c6.609,23.85 10.971,48.333 13.534,72.954c2.475,24.621 2.654,49.496 -0.263,74.046" style="fill:none;fill-rule:nonzero;stroke:#d77526;stroke-width:8.33px;"/><path d="M1756.23,967.143c-7.112,23.654 -17.546,46.275 -30.779,67.146c-13.192,20.904 -29.075,40.054 -46.558,57.562c-35.08,35.046 -76.105,63.6 -118.375,89.534" style="fill:none;fill-rule:nonzero;stroke:#d77526;stroke-width:8.33px;"/><path d="M1514.53,1210.52c-6.875,-12.241 -2.733,-27.591 9.05,-34.458c11.767,-6.846 27.075,-2.867 34.408,9.1c7.329,11.958 3.4,27.683 -8.837,34.804c-12.234,7.125 -27.754,2.784 -34.621,-9.446Z" style="fill:none;fill-rule:nonzero;stroke:#d77526;stroke-width:8.33px;"/><path d="M1222.48,1392.14c-9.488,-10.325 -8.359,-26.763 2.954,-36.033c11.287,-9.275 27.517,-7.171 35.887,4.075c8.392,11.254 6.538,26.816 -3.654,35.187c-10.187,8.342 -25.691,7.108 -35.187,-3.229Z" style="fill:none;fill-rule:nonzero;stroke:#d77526;stroke-width:8.33px;"/><path d="M1515.76,1207.63c-43.263,24.459 -87.396,47.429 -130.813,71.779c-43.383,24.355 -86.229,50.038 -126.017,80.188" style="fill:none;fill-rule:nonzero;stroke:#d77526;stroke-width:8.33px;"/><path d="M1221,1390.91c-37.054,33.325 -69.279,72.9 -90.413,118.392c-21.37,45.362 -30.916,95.716 -30.787,145.62" style="fill:none;fill-rule:nonzero;stroke:#d77526;stroke-width:8.33px;"/><path d="M1016.06,980.078c4.296,-3.983 11.063,-3.679 14.904,0.871c3.846,4.541 3.009,11.275 -1.65,14.841c-4.658,3.58 -11.1,2.996 -14.596,-1.125c-3.487,-4.129 -2.975,-10.587 1.342,-14.587Z" style="fill:none;fill-rule:nonzero;stroke:#8bc6f2;stroke-width:3.49px;"/><path d="M899.416,903.565c1.933,-5.538 8.033,-8.455 13.533,-6.271c5.5,2.171 7.963,8.458 5.592,13.825c-2.379,5.375 -8.342,7.946 -13.404,5.95c-5.059,-2.013 -7.655,-7.959 -5.721,-13.504Z" style="fill:none;fill-rule:nonzero;stroke:#8bc6f2;stroke-width:3.49px;"/><path d="M1017.34,980.298c-27.425,-30.221 -61.671,-53.988 -99.059,-70.167" style="fill:none;fill-rule:nonzero;stroke:#8bc6f2;stroke-width:3.49px;"/><path d="M899.582,902.775c-38.379,-13.633 -79.662,-19.629 -120.32,-15.946" style="fill:none;fill-rule:nonzero;stroke:#8bc6f2;stroke-width:3.49px;"/><path d="M757.295,890.625c-1.1,-5.762 2.771,-11.346 8.679,-12.158c5.909,-0.829 11.155,3.475 11.68,9.308c0.533,5.863 -3.4,10.996 -8.738,11.75c-5.342,0.733 -10.521,-3.125 -11.621,-8.9Z" style="fill:none;fill-rule:nonzero;stroke:#8bc6f2;stroke-width:3.49px;"/><path d="M635.845,956.885c-4.375,-3.909 -4.687,-10.721 -0.421,-14.971c4.275,-4.238 11.063,-3.95 14.967,0.446c3.892,4.383 3.846,10.841 0.054,14.608c-3.787,3.762 -10.216,3.829 -14.6,-0.083Z" style="fill:none;fill-rule:nonzero;stroke:#8bc6f2;stroke-width:3.49px;"/><path d="M758.156,889.661c-40.142,7.029 -78.629,24.896 -108.775,52.529" style="fill:none;fill-rule:nonzero;stroke:#8bc6f2;stroke-width:3.49px;"/><path d="M635.18,956.429c-27.579,30.25 -45.679,68.154 -55.829,107.529" style="fill:none;fill-rule:nonzero;stroke:#8bc6f2;stroke-width:3.49px;"/><path d="M575.354,1085.88c-5.784,-0.946 -9.692,-6.513 -8.421,-12.355c1.283,-5.833 7.083,-9.204 12.762,-7.741c5.692,1.458 9.167,7.008 8.013,12.262c-1.15,5.259 -6.55,8.784 -12.354,7.834Z" style="fill:none;fill-rule:nonzero;stroke:#8bc6f2;stroke-width:3.49px;"/><path d="M605.861,1219.22c-4.687,3.538 -11.425,2.496 -14.767,-2.558c-3.345,-5.059 -1.654,-11.7 3.442,-14.596c5.113,-2.904 11.371,-1.542 14.296,2.871c2.921,4.425 1.717,10.75 -2.971,14.283Z" style="fill:none;fill-rule:nonzero;stroke:#8bc6f2;stroke-width:3.49px;"/><path d="M574.747,1084.74c-3.562,20.067 -4.358,40.75 -1.208,60.959c3.1,20.204 10.246,39.741 20.633,57.32" style="fill:none;fill-rule:nonzero;stroke:#8bc6f2;stroke-width:3.49px;"/><path d="M605.283,1219.78c12.159,16.413 26.717,30.904 42.342,43.959c15.65,13.058 32.392,24.729 49.6,35.583" style="fill:none;fill-rule:nonzero;stroke:#8bc6f2;stroke-width:3.49px;"/><path d="M716.708,1310.32c3.044,-5.02 1.537,-11.507 -3.362,-14.478c-4.9,-2.971 -11.349,-1.308 -14.392,3.711c-3.044,5.02 -1.537,11.507 3.362,14.478c4.9,2.971 11.349,1.308 14.392,-3.711Z" style="fill:none;stroke:#8bc6f2;stroke-width:3.49px;"/><path d="M841.434,1375.6c2.633,-5.244 0.65,-11.57 -4.425,-14.119c-5.075,-2.548 -11.333,-0.36 -13.966,4.884c-2.633,5.244 -0.651,11.57 4.424,14.119c5.075,2.548 11.333,0.36 13.967,-4.884Z" style="fill:none;stroke:#8bc6f2;stroke-width:3.49px;"/><path d="M715.38,1310.38c35.092,20.638 71.546,38.75 107.875,56.992" style="fill:none;fill-rule:nonzero;stroke:#8bc6f2;stroke-width:3.49px;"/><path d="M841.162,1376.36c36.283,18.3 72.445,36.95 106.966,58.375" style="fill:none;fill-rule:nonzero;stroke:#8bc6f2;stroke-width:3.49px;"/><path d="M967.393,1446.1c3.184,-4.929 1.857,-11.457 -2.96,-14.569c-4.818,-3.112 -11.314,-1.636 -14.498,3.293c-3.184,4.929 -1.857,11.457 2.96,14.569c4.818,3.112 11.314,1.636 14.498,-3.293Z" style="fill:none;stroke:#8bc6f2;stroke-width:3.49px;"/><path d="M1068.33,1542.81c-4.983,3.129 -11.32,1.971 -14.425,-2.429c-3.095,-4.404 -2.02,-10.792 2.613,-14.396c4.633,-3.604 11.35,-2.708 14.783,2.175c3.45,4.887 1.992,11.542 -2.971,14.65Z" style="fill:none;fill-rule:nonzero;stroke:#8bc6f2;stroke-width:3.49px;"/><path d="M965.964,1446.21c33.684,22.495 65.63,48.475 90.305,80.762" style="fill:none;fill-rule:nonzero;stroke:#8bc6f2;stroke-width:3.49px;"/><path d="M1067.72,1543.33c10.913,17.062 19.459,35.65 25.017,55.125c5.6,19.471 8.179,39.754 8.179,60.012" style="fill:none;fill-rule:nonzero;stroke:#8bc6f2;stroke-width:3.49px;"/><path d="M1110.18,1019.6c5.125,-1.133 10.28,-0.021 14.363,2.996c4.079,2.996 7.075,7.892 7.75,13.696c0.683,5.796 -1.075,11.275 -4.354,15.137c-3.263,3.888 -8.025,6.167 -13.275,6.246c-10.546,-0.016 -19.092,-7.621 -20.204,-16.916c-1.075,-9.3 5.458,-18.717 15.72,-21.159Z" style="fill:none;fill-rule:nonzero;stroke:#8bc6f2;stroke-width:6.25px;"/><path d="M941.223,828.89c4.666,-9.412 16.554,-13.042 26.279,-7.562c9.733,5.47 12.817,17.52 7.171,26.395c-5.65,8.88 -17.096,11.73 -25.854,6.809c-8.755,-4.934 -12.28,-16.2 -7.596,-25.642Z" style="fill:none;fill-rule:nonzero;stroke:#768293;stroke-width:6.25px;"/><path d="M1111.98,1021.16c-7.829,-37.546 -26.675,-72.075 -51.009,-101.321c-24.425,-29.35 -54.229,-53.879 -86.55,-73.962" style="fill:none;fill-rule:nonzero;stroke:#768293;stroke-width:6.25px;"/><path d="M941.687,827.519c-34,-17.15 -70.163,-29.988 -107.355,-38.163c-37.179,-8.141 -75.475,-11.625 -113.525,-9.262" style="fill:none;fill-rule:nonzero;stroke:#768293;stroke-width:6.25px;"/><path d="M679.675,786.544c-2.013,-10.329 5.383,-20.429 16.592,-21.838c11.2,-1.416 20.841,6.542 21.487,17.025c0.65,10.521 -6.892,19.529 -16.729,20.779c-9.838,1.23 -19.338,-5.637 -21.35,-15.966Z" style="fill:none;fill-rule:nonzero;stroke:#768293;stroke-width:6.25px;"/><path d="M477.889,938.957c-9.53,-4.442 -13.363,-16.396 -7.792,-26.346c5.571,-9.963 17.8,-12.975 26.546,-7.129c8.758,5.841 11.483,17.175 6.704,25.737c-4.796,8.55 -15.913,12.188 -25.458,7.738Z" style="fill:none;fill-rule:nonzero;stroke:#768293;stroke-width:6.25px;"/><path d="M681.294,784.794c-37.5,6.646 -74.045,19.929 -106.237,40.517c-32.233,20.479 -59.683,48.271 -80.258,80.387" style="fill:none;fill-rule:nonzero;stroke:#768293;stroke-width:6.25px;"/><path d="M476.511,938.521c-16.492,34.425 -26.662,71.588 -32.321,109.196c-5.771,37.579 -6.833,76.2 -0.241,113.829" style="fill:none;fill-rule:nonzero;stroke:#768293;stroke-width:6.25px;"/><path d="M455.466,1201.56c-9.942,3.449 -21.021,-2.567 -23.871,-13.676c-2.866,-11.1 3.975,-21.7 14.317,-23.487c10.392,-1.8 20.142,4.575 22.587,14.004c2.413,9.446 -3.091,19.713 -13.033,23.159Z" style="fill:none;fill-rule:nonzero;stroke:#768293;stroke-width:6.25px;"/><path d="M624.495,1396.78c-5.892,8.709 -17.946,10.859 -26.808,4.546c-8.875,-6.308 -10.8,-18.458 -4.455,-26.842c6.359,-8.391 18.146,-10.17 26.559,-4.191c8.412,5.987 10.604,17.762 4.704,26.487Z" style="fill:none;fill-rule:nonzero;stroke:#768293;stroke-width:6.25px;"/><path d="M453.509,1200.2c11.721,36.366 31.438,69.866 55.967,98.983c24.516,29.229 53.416,54.408 83.85,77.158" style="fill:none;fill-rule:nonzero;stroke:#768293;stroke-width:6.25px;"/><path d="M623.858,1398.08c62.95,42.705 129.954,78.7 194.446,118.638" style="fill:none;fill-rule:nonzero;stroke:#768293;stroke-width:6.25px;"/><path d="M854.129,1537.77c-5.791,8.791 -17.533,11.275 -26.358,5.67c-8.817,-5.604 -11.571,-17.329 -6.037,-26.283c5.529,-8.95 17.408,-11.637 26.483,-5.867c9.083,5.763 11.7,17.696 5.912,26.48Z" style="fill:none;fill-rule:nonzero;stroke:#768293;stroke-width:6.25px;"/><path d="M1043.48,1717.25c-9.025,5.441 -20.521,2.904 -26.183,-5.363c-5.642,-8.283 -3.821,-19.946 4.546,-26.342c8.345,-6.391 20.62,-4.387 26.925,4.859c6.316,9.233 3.712,21.425 -5.288,26.846Z" style="fill:none;fill-rule:nonzero;stroke:#768293;stroke-width:6.25px;"/><path d="M851.755,1537.92c31.742,20.725 62.65,42.796 91.475,67.384c28.813,24.554 55.504,51.725 78.175,82.033" style="fill:none;fill-rule:nonzero;stroke:#768293;stroke-width:6.25px;"/><path d="M1042.37,1718.16c19.829,32.208 34.784,67.392 44.25,104.009c9.513,36.625 13.679,74.541 13.663,112.379" style="fill:none;fill-rule:nonzero;stroke:#768293;stroke-width:6.25px;"/><path d="M208.213,1104.7c6.766,-1.825 13.821,2.416 15.962,9.408c2.171,6.979 -1.25,14.454 -7.879,16.771c-6.617,2.316 -14.071,-1.8 -16.392,-9.275c-2.295,-7.484 1.53,-15.079 8.309,-16.904Z" style="fill:none;fill-rule:nonzero;stroke:#d77526;stroke-width:4.17px;"/><path d="M197.707,918.653c6.925,1.12 11.612,7.883 10.683,15.137c-0.883,7.258 -7.088,12.667 -14.075,12.05c-6.988,-0.612 -12.075,-7.429 -11.133,-15.196c0.991,-7.758 7.595,-13.116 14.525,-11.991Z" style="fill:none;fill-rule:nonzero;stroke:#d77526;stroke-width:4.17px;"/><path d="M209.494,1105.75c-14.525,-52.08 -19.304,-106.842 -14.15,-160.663" style="fill:none;fill-rule:nonzero;stroke:#d77526;stroke-width:4.17px;"/><path d="M198.671,918.656c8.333,-53.416 26.563,-105.287 53.604,-152.104" style="fill:none;fill-rule:nonzero;stroke:#d77526;stroke-width:4.17px;"/><path d="M267.116,740.906c5.8,3.933 7.191,12.046 3.316,18.246c-3.887,6.183 -11.791,8.475 -17.866,4.97c-6.079,-3.504 -7.821,-11.833 -3.663,-18.458c4.15,-6.637 12.404,-8.704 18.213,-4.758Z" style="fill:none;fill-rule:nonzero;stroke:#d77526;stroke-width:4.17px;"/><path d="M401.155,611.434c3.684,5.983 1.613,13.933 -4.466,17.991c-6.088,4.055 -14.221,2.913 -18.325,-2.783c-4.1,-5.683 -2.288,-14.012 4.229,-18.346c6.508,-4.346 14.891,-2.829 18.562,3.138Z" style="fill:none;fill-rule:nonzero;stroke:#d77526;stroke-width:4.17px;"/><path d="M267.147,742.558c29.983,-44.996 68.375,-84.329 112.458,-115.625" style="fill:none;fill-rule:nonzero;stroke:#d77526;stroke-width:4.17px;"/><path d="M401.782,612.166c45.887,-28.596 97.108,-48.575 150.237,-58.608" style="fill:none;fill-rule:nonzero;stroke:#d77526;stroke-width:4.17px;"/><path d="M581.142,548.08c0.8,6.97 -4.434,13.312 -11.663,14.412c-7.229,1.092 -14.117,-3.383 -15.425,-10.283c-1.308,-6.884 3.863,-13.663 11.6,-14.829c7.733,-1.18 14.688,3.733 15.488,10.7Z" style="fill:none;fill-rule:nonzero;stroke:#d77526;stroke-width:4.17px;"/><path d="M766.723,565.031c-2.129,6.687 -9.504,10.316 -16.55,8.358c-7.041,-1.979 -11.487,-8.875 -9.85,-15.708c1.634,-6.809 9.129,-10.879 16.663,-8.763c7.541,2.096 11.862,9.434 9.737,16.113Z" style="fill:none;fill-rule:nonzero;stroke:#d77526;stroke-width:4.17px;"/><path d="M579.913,549.194c53.654,-6.662 108.521,-3.387 161.004,9.621" style="fill:none;fill-rule:nonzero;stroke:#d77526;stroke-width:4.17px;"/><path d="M766.577,565.983c51.612,16.1 100.2,41.829 142.487,75.525" style="fill:none;fill-rule:nonzero;stroke:#d77526;stroke-width:4.17px;"/><path d="M832.452,631.58l65.525,2.154l-8.925,-64.95l79.833,128.858l-136.433,-66.062Z" style="fill:#d77526;fill-rule:nonzero;"/><path d="M855.969,636.288l101.016,50.629l-53.312,-48.05l-47.704,-2.579Z" style="fill:#272a31;fill-rule:nonzero;"/><path d="M2008.51,783.492c-6.967,0.763 -13.175,-3.529 -13.959,-9.571c-0.77,-6.037 4.105,-11.766 11.055,-12.808c6.925,-1.038 13.337,3.225 14.141,9.546c0.817,6.321 -4.262,12.071 -11.237,12.833Z" style="fill:none;fill-rule:nonzero;stroke:#c1c8d3;stroke-width:4.17px;"/><path d="M2007.45,937.724c-6.967,-0.909 -11.963,-6.529 -11.304,-12.588c0.658,-6.05 6.771,-10.462 13.754,-9.846c6.992,0.621 12.183,6.267 11.5,12.609c-0.692,6.337 -7,10.729 -13.95,9.825Z" style="fill:none;fill-rule:nonzero;stroke:#c1c8d3;stroke-width:4.17px;"/><path d="M2007.43,782.491c5.029,44.263 5.575,89.042 1.45,133.409" style="fill:none;fill-rule:nonzero;stroke:#c1c8d3;stroke-width:4.17px;"/><path d="M2006.49,937.724c-5.608,44.191 -15.854,87.796 -30.429,129.891" style="fill:none;fill-rule:nonzero;stroke:#c1c8d3;stroke-width:4.17px;"/><path d="M1968.53,1090.84c-6.517,-2.563 -10.017,-9.242 -7.909,-14.95c2.113,-5.708 9.096,-8.517 15.73,-6.217c6.625,2.296 10.312,9.042 8.095,15.017c-2.212,5.983 -9.383,8.716 -15.916,6.15Z" style="fill:none;fill-rule:nonzero;stroke:#c1c8d3;stroke-width:4.17px;"/><path d="M1895.94,1226.93c-5.754,-4.033 -7.567,-11.333 -4.175,-16.396c3.387,-5.054 10.85,-6.129 16.75,-2.342c5.908,3.792 7.891,11.205 4.337,16.5c-3.55,5.296 -11.175,6.259 -16.912,2.238Z" style="fill:none;fill-rule:nonzero;stroke:#c1c8d3;stroke-width:4.17px;"/><path d="M1968.05,1089.46c-16.096,41.542 -36.475,81.421 -60.709,118.804" style="fill:none;fill-rule:nonzero;stroke:#c1c8d3;stroke-width:4.17px;"/><path d="M1895.09,1226.49c-25.471,36.546 -54.679,70.496 -87.062,101.096" style="fill:none;fill-rule:nonzero;stroke:#c1c8d3;stroke-width:4.17px;"/><path d="M1790.63,1344.71c-4.613,-5.296 -4.621,-12.821 -0.113,-16.916c4.5,-4.096 12.004,-3.346 16.821,1.741c4.825,5.104 4.971,12.779 0.25,17.067c-4.717,4.287 -12.354,3.391 -16.958,-1.892Z" style="fill:none;fill-rule:nonzero;stroke:#c1c8d3;stroke-width:4.17px;"/><path d="M1663.4,1431.89c-3.238,-6.246 -1.467,-13.55 3.875,-16.475c5.354,-2.9 12.458,-0.417 15.941,5.679c3.475,6.087 1.813,13.592 -3.791,16.629c-5.592,3.067 -12.813,0.379 -16.025,-5.833Z" style="fill:none;fill-rule:nonzero;stroke:#c1c8d3;stroke-width:4.17px;"/><path d="M1790.84,1343.26c-33.437,29.437 -69.937,55.399 -108.7,77.35" style="fill:none;fill-rule:nonzero;stroke:#c1c8d3;stroke-width:4.17px;"/><path d="M1662.85,1431.1c-39.496,20.605 -81.137,37.084 -124.033,49.138" style="fill:none;fill-rule:nonzero;stroke:#c1c8d3;stroke-width:4.17px;"/><path d="M1590.6,1423.52l-38.958,52.729l58.537,29.513l-151.408,-7.404l131.829,-74.838Z" style="fill:#c1c8d3;fill-rule:nonzero;"/><path d="M1573.38,1440.21l-99.017,54.433l69.817,-16.621l29.2,-37.812Z" style="fill:#272a31;fill-rule:nonzero;"/></g></svg>