<?xml version="1.0" encoding="UTF-8" standalone="no"?><!DOCTYPE svg PUBLIC "-//W3C//DTD SVG 1.1//EN" "http://www.w3.org/Graphics/SVG/1.1/DTD/svg11.dtd"><svg width="100%" height="100%" viewBox="0 0 2138 2134" version="1.1" xmlns="http://www.w3.org/2000/svg" xmlns:xlink="http://www.w3.org/1999/xlink" xml:space="preserve" xmlns:serif="http://www.serif.com/" style="fill-rule:evenodd;clip-rule:evenodd;stroke-miterlimit:10;"><rect id="cm" x="3.926" y="0" width="2133.33" height="2133.33" style="fill:none;"/><g id="bg-col-as-page" serif:id="bg col as page"></g><g id="CM-3" serif:id="CM 3"><path d="M1179.13,157.572c-5.609,0 -10.159,-4.083 -10.159,-9.129c0,-5.037 4.55,-9.125 10.159,-9.125c5.612,0 10.162,4.088 10.162,9.125c0,5.046 -4.55,9.129 -10.162,9.129Z" style="fill:none;fill-rule:nonzero;stroke:#8bc6f2;stroke-width:3.33px;"/><path d="M1179.13,282.589c-5.609,-0 -10.159,-4.084 -10.159,-9.121c0,-5.046 4.55,-9.133 10.159,-9.133c5.612,-0 10.162,4.087 10.162,9.133c0,5.037 -4.55,9.121 -10.162,9.121Z" style="fill:none;fill-rule:nonzero;stroke:#8bc6f2;stroke-width:3.33px;"/><path d="M1178.37,156.669l-0,108.238" style="fill:none;fill-rule:nonzero;stroke:#8bc6f2;stroke-width:3.33px;"/><path d="M1178.37,282.686l-0,108.238" style="fill:none;fill-rule:nonzero;stroke:#8bc6f2;stroke-width:3.33px;"/><path d="M1179.13,410.665c-5.609,-0 -10.159,-4.083 -10.159,-9.121c0,-5.037 4.55,-9.125 10.159,-9.125c5.612,0 10.162,4.088 10.162,9.125c0,5.038 -4.55,9.121 -10.162,9.121Z" style="fill:none;fill-rule:nonzero;stroke:#8bc6f2;stroke-width:3.33px;"/><path d="M1179.13,535.681c-5.609,0 -10.159,-4.083 -10.159,-9.121c0,-5.037 4.55,-9.125 10.159,-9.125c5.612,0 10.162,4.088 10.162,9.125c0,5.038 -4.55,9.121 -10.162,9.121Z" style="fill:none;fill-rule:nonzero;stroke:#8bc6f2;stroke-width:3.33px;"/><path d="M1178.37,409.762l-0,108.237" style="fill:none;fill-rule:nonzero;stroke:#8bc6f2;stroke-width:3.33px;"/><path d="M1178.37,535.779l-0,108.237" style="fill:none;fill-rule:nonzero;stroke:#8bc6f2;stroke-width:3.33px;"/><path d="M1179.13,663.765c-5.609,0 -10.159,-4.083 -10.159,-9.129c0,-5.037 4.55,-9.125 10.159,-9.125c5.612,0 10.162,4.088 10.162,9.125c0,5.046 -4.55,9.129 -10.162,9.129Z" style="fill:none;fill-rule:nonzero;stroke:#8bc6f2;stroke-width:3.33px;"/><path d="M1179.13,788.782c-5.609,-0 -10.159,-4.084 -10.159,-9.121c0,-5.046 4.55,-9.134 10.159,-9.134c5.612,0 10.162,4.088 10.162,9.134c0,5.037 -4.55,9.121 -10.162,9.121Z" style="fill:none;fill-rule:nonzero;stroke:#8bc6f2;stroke-width:3.33px;"/><path d="M1178.37,662.862l-0,108.238" style="fill:none;fill-rule:nonzero;stroke:#8bc6f2;stroke-width:3.33px;"/><path d="M1178.37,788.88l-0,108.237" style="fill:none;fill-rule:nonzero;stroke:#8bc6f2;stroke-width:3.33px;"/><path d="M1142.95,281.49c-5.608,-0 -10.158,-4.083 -10.158,-9.121c-0,-5.037 4.55,-9.125 10.158,-9.125c5.617,0 10.162,4.088 10.162,9.125c0,5.038 -4.545,9.121 -10.162,9.121Z" style="fill:none;fill-rule:nonzero;stroke:#8bc6f2;stroke-width:3.33px;"/><path d="M1142.95,406.506c-5.608,0 -10.158,-4.083 -10.158,-9.121c-0,-5.037 4.55,-9.125 10.158,-9.125c5.617,0 10.162,4.088 10.162,9.125c0,5.038 -4.545,9.121 -10.162,9.121Z" style="fill:none;fill-rule:nonzero;stroke:#8bc6f2;stroke-width:3.33px;"/><path d="M1142.19,280.587l0,108.237" style="fill:none;fill-rule:nonzero;stroke:#8bc6f2;stroke-width:3.33px;"/><path d="M1142.19,406.604l0,108.238" style="fill:none;fill-rule:nonzero;stroke:#8bc6f2;stroke-width:3.33px;"/><path d="M1142.95,534.591c-5.608,-0 -10.158,-4.083 -10.158,-9.129c-0,-5.038 4.55,-9.125 10.158,-9.125c5.617,-0 10.162,4.087 10.162,9.125c0,5.046 -4.545,9.129 -10.162,9.129Z" style="fill:none;fill-rule:nonzero;stroke:#8bc6f2;stroke-width:3.33px;"/><path d="M1142.95,659.607c-5.608,0 -10.158,-4.083 -10.158,-9.121c-0,-5.046 4.55,-9.133 10.158,-9.133c5.617,-0 10.162,4.087 10.162,9.133c0,5.038 -4.545,9.121 -10.162,9.121Z" style="fill:none;fill-rule:nonzero;stroke:#8bc6f2;stroke-width:3.33px;"/><path d="M1142.19,533.688l0,108.237" style="fill:none;fill-rule:nonzero;stroke:#8bc6f2;stroke-width:3.33px;"/><path d="M1142.19,659.705l0,108.237" style="fill:none;fill-rule:nonzero;stroke:#8bc6f2;stroke-width:3.33px;"/><path d="M1142.95,787.683c-5.608,-0 -10.158,-4.083 -10.158,-9.121c-0,-5.037 4.55,-9.125 10.158,-9.125c5.617,0 10.162,4.088 10.162,9.125c0,5.038 -4.545,9.121 -10.162,9.121Z" style="fill:none;fill-rule:nonzero;stroke:#8bc6f2;stroke-width:3.33px;"/><path d="M1142.95,912.7c-5.608,-0 -10.158,-4.084 -10.158,-9.121c-0,-5.038 4.55,-9.125 10.158,-9.125c5.617,-0 10.162,4.087 10.162,9.125c0,5.037 -4.545,9.121 -10.162,9.121Z" style="fill:none;fill-rule:nonzero;stroke:#8bc6f2;stroke-width:3.33px;"/><path d="M1142.19,786.78l0,108.237" style="fill:none;fill-rule:nonzero;stroke:#8bc6f2;stroke-width:3.33px;"/><path d="M1142.19,912.797l0,108.238" style="fill:none;fill-rule:nonzero;stroke:#8bc6f2;stroke-width:3.33px;"/><path d="M1106.77,406.49c-5.608,-0 -10.158,-4.083 -10.158,-9.121c-0,-5.037 4.55,-9.125 10.158,-9.125c5.617,0 10.163,4.088 10.163,9.125c-0,5.038 -4.546,9.121 -10.163,9.121Z" style="fill:none;fill-rule:nonzero;stroke:#8bc6f2;stroke-width:3.33px;"/><path d="M1106.77,531.506c-5.608,0 -10.158,-4.083 -10.158,-9.121c-0,-5.037 4.55,-9.125 10.158,-9.125c5.617,0 10.163,4.088 10.163,9.125c-0,5.038 -4.546,9.121 -10.163,9.121Z" style="fill:none;fill-rule:nonzero;stroke:#8bc6f2;stroke-width:3.33px;"/><path d="M1106.01,405.587l0,108.237" style="fill:none;fill-rule:nonzero;stroke:#8bc6f2;stroke-width:3.33px;"/><path d="M1106.01,531.604l0,108.238" style="fill:none;fill-rule:nonzero;stroke:#8bc6f2;stroke-width:3.33px;"/><path d="M1106.77,659.591c-5.608,-0 -10.158,-4.083 -10.158,-9.129c-0,-5.038 4.55,-9.125 10.158,-9.125c5.617,-0 10.163,4.087 10.163,9.125c-0,5.046 -4.546,9.129 -10.163,9.129Z" style="fill:none;fill-rule:nonzero;stroke:#8bc6f2;stroke-width:3.33px;"/><path d="M1106.77,784.607c-5.608,0 -10.158,-4.083 -10.158,-9.121c-0,-5.046 4.55,-9.133 10.158,-9.133c5.617,-0 10.163,4.087 10.163,9.133c-0,5.038 -4.546,9.121 -10.163,9.121Z" style="fill:none;fill-rule:nonzero;stroke:#8bc6f2;stroke-width:3.33px;"/><path d="M1106.01,658.688l0,108.237" style="fill:none;fill-rule:nonzero;stroke:#8bc6f2;stroke-width:3.33px;"/><path d="M1106.01,784.705l0,108.237" style="fill:none;fill-rule:nonzero;stroke:#8bc6f2;stroke-width:3.33px;"/><path d="M1106.77,912.683c-5.608,-0 -10.158,-4.083 -10.158,-9.121c-0,-5.037 4.55,-9.125 10.158,-9.125c5.617,0 10.163,4.088 10.163,9.125c-0,5.038 -4.546,9.121 -10.163,9.121Z" style="fill:none;fill-rule:nonzero;stroke:#8bc6f2;stroke-width:3.33px;"/><path d="M1106.77,1037.7c-5.608,-0 -10.158,-4.084 -10.158,-9.121c-0,-5.038 4.55,-9.125 10.158,-9.125c5.617,-0 10.163,4.087 10.163,9.125c-0,5.037 -4.546,9.121 -10.163,9.121Z" style="fill:none;fill-rule:nonzero;stroke:#8bc6f2;stroke-width:3.33px;"/><path d="M1106.01,911.78l0,108.237" style="fill:none;fill-rule:nonzero;stroke:#8bc6f2;stroke-width:3.33px;"/><path d="M1106.01,1037.8l0,108.238" style="fill:none;fill-rule:nonzero;stroke:#8bc6f2;stroke-width:3.33px;"/><path d="M1070.59,533.525c-5.609,-0 -10.159,-4.055 -10.159,-9.059c0,-5.004 4.55,-9.058 10.159,-9.058c5.612,-0 10.162,4.054 10.162,9.058c0,5.004 -4.55,9.059 -10.162,9.059Z" style="fill:none;fill-rule:nonzero;stroke:#8bc6f2;stroke-width:3.33px;"/><path d="M1070.59,657.654c-5.609,-0 -10.159,-4.054 -10.159,-9.059c0,-5.004 4.55,-9.058 10.159,-9.058c5.612,0 10.162,4.054 10.162,9.058c0,5.005 -4.55,9.059 -10.162,9.059Z" style="fill:none;fill-rule:nonzero;stroke:#8bc6f2;stroke-width:3.33px;"/><path d="M1069.83,532.63l-0,107.462" style="fill:none;fill-rule:nonzero;stroke:#8bc6f2;stroke-width:3.33px;"/><path d="M1069.83,657.752l-0,107.462" style="fill:none;fill-rule:nonzero;stroke:#8bc6f2;stroke-width:3.33px;"/><path d="M1070.59,784.818c-5.609,0 -10.159,-4.054 -10.159,-9.058c0,-5.004 4.55,-9.058 10.159,-9.058c5.612,-0 10.162,4.054 10.162,9.058c0,5.004 -4.55,9.058 -10.162,9.058Z" style="fill:none;fill-rule:nonzero;stroke:#8bc6f2;stroke-width:3.33px;"/><path d="M1070.59,908.948c-5.609,-0 -10.159,-4.054 -10.159,-9.058c0,-5.005 4.55,-9.059 10.159,-9.059c5.612,0 10.162,4.054 10.162,9.059c0,5.004 -4.55,9.058 -10.162,9.058Z" style="fill:none;fill-rule:nonzero;stroke:#8bc6f2;stroke-width:3.33px;"/><path d="M1069.83,783.923l-0,107.463" style="fill:none;fill-rule:nonzero;stroke:#8bc6f2;stroke-width:3.33px;"/><path d="M1069.83,909.045l-0,107.463" style="fill:none;fill-rule:nonzero;stroke:#8bc6f2;stroke-width:3.33px;"/><path d="M1070.59,1036.11c-5.609,-0 -10.159,-4.055 -10.159,-9.059c0,-5.004 4.55,-9.058 10.159,-9.058c5.612,-0 10.162,4.054 10.162,9.058c0,5.004 -4.55,9.059 -10.162,9.059Z" style="fill:none;fill-rule:nonzero;stroke:#8bc6f2;stroke-width:3.33px;"/><path d="M1070.59,1160.24c-5.609,-0 -10.159,-4.063 -10.159,-9.059c0,-5.004 4.55,-9.058 10.159,-9.058c5.612,0 10.162,4.054 10.162,9.058c0,4.996 -4.55,9.059 -10.162,9.059Z" style="fill:none;fill-rule:nonzero;stroke:#8bc6f2;stroke-width:3.33px;"/><path d="M1069.83,1035.22l-0,107.463" style="fill:none;fill-rule:nonzero;stroke:#8bc6f2;stroke-width:3.33px;"/><path d="M1069.83,1160.34l-0,107.463" style="fill:none;fill-rule:nonzero;stroke:#8bc6f2;stroke-width:3.33px;"/><path d="M1031.34,1208.88l39.25,46.525l39.25,-46.525l-39.25,135.162l-39.25,-135.162Z" style="fill:#8bc6f2;fill-rule:nonzero;"/><path d="M1042.72,1228.02l27.875,101.146l0,-66.642l-27.875,-34.504Z" style="fill:#272a31;fill-rule:nonzero;"/><path d="M1034.41,406.49c-5.608,-0 -10.158,-4.083 -10.158,-9.121c-0,-5.037 4.55,-9.125 10.158,-9.125c5.617,0 10.163,4.088 10.163,9.125c-0,5.038 -4.546,9.121 -10.163,9.121Z" style="fill:none;fill-rule:nonzero;stroke:#8bc6f2;stroke-width:3.33px;"/><path d="M1034.41,531.506c-5.608,0 -10.158,-4.083 -10.158,-9.121c-0,-5.037 4.55,-9.125 10.158,-9.125c5.617,0 10.163,4.088 10.163,9.125c-0,5.038 -4.546,9.121 -10.163,9.121Z" style="fill:none;fill-rule:nonzero;stroke:#8bc6f2;stroke-width:3.33px;"/><path d="M1033.65,405.587l0,108.237" style="fill:none;fill-rule:nonzero;stroke:#8bc6f2;stroke-width:3.33px;"/><path d="M1033.65,531.604l0,108.238" style="fill:none;fill-rule:nonzero;stroke:#8bc6f2;stroke-width:3.33px;"/><path d="M1034.41,659.591c-5.608,-0 -10.158,-4.083 -10.158,-9.129c-0,-5.038 4.55,-9.125 10.158,-9.125c5.617,-0 10.163,4.087 10.163,9.125c-0,5.046 -4.546,9.129 -10.163,9.129Z" style="fill:none;fill-rule:nonzero;stroke:#8bc6f2;stroke-width:3.33px;"/><path d="M1034.41,784.607c-5.608,0 -10.158,-4.083 -10.158,-9.121c-0,-5.046 4.55,-9.133 10.158,-9.133c5.617,-0 10.163,4.087 10.163,9.133c-0,5.038 -4.546,9.121 -10.163,9.121Z" style="fill:none;fill-rule:nonzero;stroke:#8bc6f2;stroke-width:3.33px;"/><path d="M1033.65,658.688l0,108.237" style="fill:none;fill-rule:nonzero;stroke:#8bc6f2;stroke-width:3.33px;"/><path d="M1033.65,784.705l0,108.237" style="fill:none;fill-rule:nonzero;stroke:#8bc6f2;stroke-width:3.33px;"/><path d="M1034.41,912.683c-5.608,-0 -10.158,-4.083 -10.158,-9.121c-0,-5.037 4.55,-9.125 10.158,-9.125c5.617,0 10.163,4.088 10.163,9.125c-0,5.038 -4.546,9.121 -10.163,9.121Z" style="fill:none;fill-rule:nonzero;stroke:#8bc6f2;stroke-width:3.33px;"/><path d="M1034.41,1037.7c-5.608,-0 -10.158,-4.084 -10.158,-9.121c-0,-5.038 4.55,-9.125 10.158,-9.125c5.617,-0 10.163,4.087 10.163,9.125c-0,5.037 -4.546,9.121 -10.163,9.121Z" style="fill:none;fill-rule:nonzero;stroke:#8bc6f2;stroke-width:3.33px;"/><path d="M1033.65,911.78l0,108.237" style="fill:none;fill-rule:nonzero;stroke:#8bc6f2;stroke-width:3.33px;"/><path d="M1033.65,1037.8l0,108.238" style="fill:none;fill-rule:nonzero;stroke:#8bc6f2;stroke-width:3.33px;"/><path d="M998.229,281.49c-5.608,-0 -10.158,-4.083 -10.158,-9.121c0,-5.037 4.55,-9.125 10.158,-9.125c5.617,0 10.163,4.088 10.163,9.125c-0,5.038 -4.546,9.121 -10.163,9.121Z" style="fill:none;fill-rule:nonzero;stroke:#8bc6f2;stroke-width:3.33px;"/><path d="M998.229,406.506c-5.608,0 -10.158,-4.083 -10.158,-9.121c0,-5.037 4.55,-9.125 10.158,-9.125c5.617,0 10.163,4.088 10.163,9.125c-0,5.038 -4.546,9.121 -10.163,9.121Z" style="fill:none;fill-rule:nonzero;stroke:#8bc6f2;stroke-width:3.33px;"/><path d="M997.467,280.587l-0,108.237" style="fill:none;fill-rule:nonzero;stroke:#8bc6f2;stroke-width:3.33px;"/><path d="M997.467,406.604l-0,108.238" style="fill:none;fill-rule:nonzero;stroke:#8bc6f2;stroke-width:3.33px;"/><path d="M998.229,534.591c-5.608,-0 -10.158,-4.083 -10.158,-9.129c0,-5.038 4.55,-9.125 10.158,-9.125c5.617,-0 10.163,4.087 10.163,9.125c-0,5.046 -4.546,9.129 -10.163,9.129Z" style="fill:none;fill-rule:nonzero;stroke:#8bc6f2;stroke-width:3.33px;"/><path d="M998.229,659.607c-5.608,0 -10.158,-4.083 -10.158,-9.121c0,-5.046 4.55,-9.133 10.158,-9.133c5.617,-0 10.163,4.087 10.163,9.133c-0,5.038 -4.546,9.121 -10.163,9.121Z" style="fill:none;fill-rule:nonzero;stroke:#8bc6f2;stroke-width:3.33px;"/><path d="M997.467,533.688l-0,108.237" style="fill:none;fill-rule:nonzero;stroke:#8bc6f2;stroke-width:3.33px;"/><path d="M997.467,659.705l-0,108.237" style="fill:none;fill-rule:nonzero;stroke:#8bc6f2;stroke-width:3.33px;"/><path d="M998.229,787.683c-5.608,-0 -10.158,-4.083 -10.158,-9.121c0,-5.037 4.55,-9.125 10.158,-9.125c5.617,0 10.163,4.088 10.163,9.125c-0,5.038 -4.546,9.121 -10.163,9.121Z" style="fill:none;fill-rule:nonzero;stroke:#8bc6f2;stroke-width:3.33px;"/><path d="M998.229,912.7c-5.608,-0 -10.158,-4.084 -10.158,-9.121c0,-5.038 4.55,-9.125 10.158,-9.125c5.617,-0 10.163,4.087 10.163,9.125c-0,5.037 -4.546,9.121 -10.163,9.121Z" style="fill:none;fill-rule:nonzero;stroke:#8bc6f2;stroke-width:3.33px;"/><path d="M997.467,786.78l-0,108.237" style="fill:none;fill-rule:nonzero;stroke:#8bc6f2;stroke-width:3.33px;"/><path d="M997.467,912.797l-0,108.238" style="fill:none;fill-rule:nonzero;stroke:#8bc6f2;stroke-width:3.33px;"/><path d="M962.05,157.572c-5.608,0 -10.158,-4.083 -10.158,-9.129c-0,-5.037 4.55,-9.125 10.158,-9.125c5.612,0 10.162,4.088 10.162,9.125c0,5.046 -4.55,9.129 -10.162,9.129Z" style="fill:none;fill-rule:nonzero;stroke:#8bc6f2;stroke-width:3.33px;"/><path d="M962.05,282.589c-5.608,-0 -10.158,-4.084 -10.158,-9.121c-0,-5.046 4.55,-9.133 10.158,-9.133c5.612,-0 10.162,4.087 10.162,9.133c0,5.037 -4.55,9.121 -10.162,9.121Z" style="fill:none;fill-rule:nonzero;stroke:#8bc6f2;stroke-width:3.33px;"/><path d="M961.287,156.669l-0,108.238" style="fill:none;fill-rule:nonzero;stroke:#8bc6f2;stroke-width:3.33px;"/><path d="M961.287,282.686l-0,108.238" style="fill:none;fill-rule:nonzero;stroke:#8bc6f2;stroke-width:3.33px;"/><path d="M962.05,410.665c-5.608,-0 -10.158,-4.083 -10.158,-9.121c-0,-5.037 4.55,-9.125 10.158,-9.125c5.612,0 10.162,4.088 10.162,9.125c0,5.038 -4.55,9.121 -10.162,9.121Z" style="fill:none;fill-rule:nonzero;stroke:#8bc6f2;stroke-width:3.33px;"/><path d="M962.05,535.681c-5.608,0 -10.158,-4.083 -10.158,-9.121c-0,-5.037 4.55,-9.125 10.158,-9.125c5.612,0 10.162,4.088 10.162,9.125c0,5.038 -4.55,9.121 -10.162,9.121Z" style="fill:none;fill-rule:nonzero;stroke:#8bc6f2;stroke-width:3.33px;"/><path d="M961.287,409.762l-0,108.237" style="fill:none;fill-rule:nonzero;stroke:#8bc6f2;stroke-width:3.33px;"/><path d="M961.287,535.779l-0,108.237" style="fill:none;fill-rule:nonzero;stroke:#8bc6f2;stroke-width:3.33px;"/><path d="M962.05,663.765c-5.608,0 -10.158,-4.083 -10.158,-9.129c-0,-5.037 4.55,-9.125 10.158,-9.125c5.612,0 10.162,4.088 10.162,9.125c0,5.046 -4.55,9.129 -10.162,9.129Z" style="fill:none;fill-rule:nonzero;stroke:#8bc6f2;stroke-width:3.33px;"/><path d="M962.05,788.782c-5.608,-0 -10.158,-4.084 -10.158,-9.121c-0,-5.046 4.55,-9.134 10.158,-9.134c5.612,0 10.162,4.088 10.162,9.134c0,5.037 -4.55,9.121 -10.162,9.121Z" style="fill:none;fill-rule:nonzero;stroke:#8bc6f2;stroke-width:3.33px;"/><path d="M961.287,662.862l-0,108.238" style="fill:none;fill-rule:nonzero;stroke:#8bc6f2;stroke-width:3.33px;"/><path d="M961.287,788.88l-0,108.237" style="fill:none;fill-rule:nonzero;stroke:#8bc6f2;stroke-width:3.33px;"/><path d="M447.501,1168.85c8.192,-0.113 14.917,5.679 15.246,12.933c0.312,7.25 -5.867,13.612 -14.033,14.233c-8.167,0.609 -15.271,-5.17 -15.609,-12.916c-0.35,-7.755 6.209,-14.138 14.396,-14.25Z" style="fill:none;fill-rule:nonzero;stroke:#768293;stroke-width:4.87px;"/><path d="M476.851,985.877c7.721,2.75 12.008,10.52 9.792,17.433c-2.225,6.908 -10.25,10.717 -18.121,8.454c-7.875,-2.271 -12.5,-10.158 -10.121,-17.546c2.375,-7.387 10.738,-11.091 18.45,-8.341Z" style="fill:none;fill-rule:nonzero;stroke:#768293;stroke-width:4.87px;"/><path d="M448.642,1170.17c-1.166,-53.638 5.996,-107.446 21.184,-158.904" style="fill:none;fill-rule:nonzero;stroke:#768293;stroke-width:4.87px;"/><path d="M477.949,986.113c17.775,-50.625 43.434,-98.446 75.605,-141.384" style="fill:none;fill-rule:nonzero;stroke:#768293;stroke-width:4.87px;"/><path d="M570.947,821.016c6.246,5.292 7.512,14.079 2.992,19.767c-4.534,5.667 -13.38,6.404 -19.934,1.5c-6.562,-4.908 -8.112,-13.925 -3.271,-19.988c4.83,-6.07 13.963,-6.575 20.213,-1.279Z" style="fill:none;fill-rule:nonzero;stroke:#768293;stroke-width:4.87px;"/><path d="M713.384,702.478c4.005,7.146 2.121,15.821 -4.091,19.571c-6.221,3.737 -14.771,1.337 -19.209,-5.559c-4.437,-6.875 -2.741,-15.866 3.913,-19.862c6.642,-4.013 15.383,-1.296 19.387,5.85Z" style="fill:none;fill-rule:nonzero;stroke:#768293;stroke-width:4.87px;"/><path d="M570.939,822.758c34.383,-41.179 75.15,-77.025 120.454,-105.771" style="fill:none;fill-rule:nonzero;stroke:#768293;stroke-width:4.87px;"/><path d="M714.058,703.381c46.666,-26.475 97.446,-45.654 149.916,-56.812" style="fill:none;fill-rule:nonzero;stroke:#768293;stroke-width:4.87px;"/><path d="M143.194,1162.42c8.883,0.179 15.979,6.829 15.975,14.858c0.013,8.033 -7.067,14.7 -15.958,14.887c-8.888,0.188 -16.234,-6.47 -16.25,-14.862c0.008,-8.396 7.337,-15.054 16.233,-14.883Z" style="fill:none;fill-rule:nonzero;stroke:#c1c8d3;stroke-width:5.28px;"/><path d="M170.621,960.998c8.588,2.263 13.917,10.4 12.033,18.204c-1.904,7.805 -10.32,12.621 -19.025,10.709c-8.666,-1.913 -14.27,-10.104 -12.279,-18.267c1.971,-8.162 10.663,-12.916 19.271,-10.646Z" style="fill:none;fill-rule:nonzero;stroke:#c1c8d3;stroke-width:5.28px;"/><path d="M144.382,1163.91c0.867,-58.708 7.78,-117.333 20.634,-174.633" style="fill:none;fill-rule:nonzero;stroke:#c1c8d3;stroke-width:5.28px;"/><path d="M171.832,961.153c14.783,-56.829 35.475,-112.116 61.662,-164.67" style="fill:none;fill-rule:nonzero;stroke:#c1c8d3;stroke-width:5.28px;"/><path d="M247.294,767.403c7.783,4.28 10.983,13.467 7.258,20.58c-3.738,7.112 -13.083,9.733 -21.058,5.77c-7.95,-3.954 -11.38,-13.27 -7.475,-20.704c3.891,-7.437 13.475,-9.933 21.275,-5.646Z" style="fill:none;fill-rule:nonzero;stroke:#c1c8d3;stroke-width:5.28px;"/><path d="M365.024,601.664c6.596,5.996 7.53,15.658 2.263,21.721c-5.308,6.029 -14.988,6.421 -21.821,0.692c-6.796,-5.696 -7.987,-15.575 -2.442,-21.875c5.509,-6.334 15.438,-6.505 22,-0.538Z" style="fill:none;fill-rule:nonzero;stroke:#c1c8d3;stroke-width:5.28px;"/><path d="M247.646,769.267c28.066,-51.571 61.416,-100.275 99.337,-145.109" style="fill:none;fill-rule:nonzero;stroke:#c1c8d3;stroke-width:5.28px;"/><path d="M366.023,602.364c39.388,-43.554 83.254,-83.058 130.717,-117.633" style="fill:none;fill-rule:nonzero;stroke:#c1c8d3;stroke-width:5.28px;"/><path d="M522.397,465.304c4.93,7.387 3.534,17.025 -3.054,21.616c-6.6,4.571 -16.091,2.605 -21.337,-4.6c-5.225,-7.17 -3.988,-17.033 2.912,-21.816c6.892,-4.804 16.538,-2.604 21.479,4.8Z" style="fill:none;fill-rule:nonzero;stroke:#c1c8d3;stroke-width:5.28px;"/><path d="M703.454,372.888c3.042,8.334 -0.6,17.367 -8.083,20.263c-7.492,2.908 -16.259,-1.283 -19.642,-9.504c-3.387,-8.221 0.158,-17.479 7.988,-20.517c7.829,-3.025 16.687,1.383 19.737,9.758Z" style="fill:none;fill-rule:nonzero;stroke:#c1c8d3;stroke-width:5.28px;"/><path d="M521.85,467.127c48.7,-32.805 100.779,-60.605 155.184,-82.709" style="fill:none;fill-rule:nonzero;stroke:#c1c8d3;stroke-width:5.28px;"/><path d="M704.018,373.97c55.104,-20.295 112.308,-34.862 170.387,-43.529" style="fill:none;fill-rule:nonzero;stroke:#c1c8d3;stroke-width:5.28px;"/><path d="M1505.63,652.486c42.325,85.709 68.113,180.609 74.259,277.629c6.291,96.996 -6.863,195.938 -38.746,289.321c-31.813,93.384 -82.359,181.221 -148.621,256.446c-66.142,75.325 -148.083,137.754 -239.333,182.383l-0.317,0.155c-25.213,12.329 -55.646,1.879 -67.975,-23.334c-12.333,-25.204 -1.888,-55.637 23.325,-67.966c1.212,-0.596 2.537,-1.175 3.771,-1.663c82.437,-32.329 159.012,-81.096 223.65,-143.625c64.696,-62.429 117.387,-138.396 153.796,-222.308c36.458,-83.888 56.612,-175.675 58.12,-268.613c1.63,-92.941 -15.566,-186.841 -50.433,-274.712c-0.946,-2.388 0.221,-5.088 2.6,-6.034c2.263,-0.891 4.804,0.109 5.871,2.246l0.033,0.075Z" style="fill:#bfc8d2;fill-opacity:0.5;fill-rule:nonzero;"/><path d="M605.824,1749.65c-6.22,8.9 -16.058,14.071 -27.104,14.834c-11.021,0.791 -23.216,-2.875 -33.446,-11.101c-10.22,-8.224 -16.416,-19.349 -18.008,-30.287c-1.617,-10.954 1.321,-21.671 8.688,-29.654c7.375,-8 17.67,-11.867 28.208,-12.058c10.562,-0.159 21.4,3.329 30.475,10.637c9.087,7.304 14.817,17.142 16.921,27.492c2.075,10.333 0.5,21.216 -5.734,30.137Z" style="fill:none;fill-rule:nonzero;stroke:#d77526;stroke-width:12.92px;"/><path d="M1192.24,1843.67c3.171,10.387 1.175,21.316 -5.034,30.487c-6.17,9.167 -16.57,16.5 -29.345,19.488c-12.78,2.987 -25.363,1 -34.955,-4.488c-9.625,-5.471 -16.25,-14.396 -17.995,-25.116c-1.75,-10.734 1.545,-21.225 7.891,-29.646c6.379,-8.413 15.809,-14.792 27.159,-17.446c11.35,-2.654 22.633,-1.096 32.083,3.633c9.421,4.734 17.017,12.684 20.196,23.088Z" style="fill:none;fill-rule:nonzero;stroke:#d77526;stroke-width:12.92px;"/><path d="M600.48,1749.51c72.608,51.637 155.396,88.891 242.217,108.933c86.791,20.146 177.575,22.937 265.433,8.062" style="fill:none;fill-rule:nonzero;stroke:#d77526;stroke-width:12.92px;"/><path d="M1193.55,1846.36c85.233,-25.905 165.429,-68.492 234.279,-125.084c68.913,-56.496 126.404,-126.783 168.384,-205.371" style="fill:none;fill-rule:nonzero;stroke:#d77526;stroke-width:12.92px;"/><path d="M1479.38,1581.17l100.354,-47.984l30.375,107.013l36.283,-254.629l-167.012,195.6Z" style="fill:#d77526;fill-rule:nonzero;"/><path d="M1512.78,1557.86l122.425,-147.516l-50.112,110.983l-72.313,36.533Z" style="fill:#272a31;fill-rule:nonzero;"/><path d="M557.254,634.721c-6.05,-7.675 -3.695,-19.6 5.484,-26.329c9.179,-6.738 21.275,-5.371 26.766,2.708c5.505,8.087 2.788,19.529 -5.833,25.854c-8.629,6.329 -20.362,5.454 -26.417,-2.233Z" style="fill:none;fill-rule:nonzero;stroke:#768293;stroke-width:5.81px;"/><path d="M380.753,841.744c-8.575,-4.671 -11.129,-16.579 -5.329,-26.366c5.792,-9.796 17.425,-13.313 25.663,-8.055c8.241,5.263 10.275,16.855 4.829,26.067c-5.459,9.204 -16.567,13.042 -25.163,8.354Z" style="fill:none;fill-rule:nonzero;stroke:#768293;stroke-width:5.81px;"/><path d="M558.003,632.458c-62.641,48.484 -116.571,108.134 -158.704,175.2" style="fill:none;fill-rule:nonzero;stroke:#768293;stroke-width:5.81px;"/><path d="M379.488,841.284c-38.279,69.342 -64.367,145.392 -76.625,223.646" style="fill:none;fill-rule:nonzero;stroke:#768293;stroke-width:5.81px;"/><path d="M298.846,1108.06c-9.737,-0.842 -16.829,-10.717 -15.45,-22.017c1.375,-11.3 10.625,-19.191 20.283,-17.667c9.663,1.521 16.163,11.325 14.871,21.946c-1.3,10.621 -9.962,18.58 -19.704,17.738Z" style="fill:none;fill-rule:nonzero;stroke:#768293;stroke-width:5.81px;"/><path d="M329.107,1378.41c-9.27,3.058 -19.695,-3.217 -22.879,-14.142c-3.204,-10.92 2.213,-21.821 11.671,-24.233c9.488,-2.421 19.308,4.029 22.321,14.304c2.996,10.271 -1.813,21.004 -11.113,24.071Z" style="fill:none;fill-rule:nonzero;stroke:#768293;stroke-width:5.81px;"/><path d="M297.701,1105.96c-7.521,78.85 -0.954,159.008 19.225,235.6" style="fill:none;fill-rule:nonzero;stroke:#768293;stroke-width:5.81px;"/><path d="M327.907,1379.02c24.412,75.338 61.9,146.471 110.679,208.896" style="fill:none;fill-rule:nonzero;stroke:#768293;stroke-width:5.81px;"/><path d="M429.923,1489.86l0.896,82.575l-81.546,-13.037l160.071,104.112l-79.421,-173.65Z" style="fill:#768293;fill-rule:nonzero;"/><path d="M435.164,1519.64l61,128.584l-59.033,-68.463l-1.967,-60.121Z" style="fill:#272a31;fill-rule:nonzero;"/></g></svg>