<?xml version="1.0" encoding="UTF-8" standalone="no"?><!DOCTYPE svg PUBLIC "-//W3C//DTD SVG 1.1//EN" "http://www.w3.org/Graphics/SVG/1.1/DTD/svg11.dtd"><svg width="100%" height="100%" viewBox="0 0 2134 2134" version="1.1" xmlns="http://www.w3.org/2000/svg" xmlns:xlink="http://www.w3.org/1999/xlink" xml:space="preserve" xmlns:serif="http://www.serif.com/" style="fill-rule:evenodd;clip-rule:evenodd;stroke-miterlimit:10;"><rect id="dfwc" x="0" y="0" width="2133.33" height="2133.33" style="fill:none;"/><g id="dfwc1" serif:id="dfwc"><g id="bg-col-as-page" serif:id="bg col as page"></g><g id="DFWC-2" serif:id="DFWC 2"><path d="M800.318,974.98c-37.621,73.608 -60.359,153.916 -66.625,234.962c-6.38,81.025 3.57,162.592 28.366,238.621c24.75,76.062 64.334,146.546 115.488,206.237c51.087,59.784 113.712,108.563 182.796,143.53c21.895,11.079 30.666,37.812 19.583,59.708c-11.079,21.892 -37.813,30.658 -59.708,19.583c-1.055,-0.537 -2.076,-1.108 -3.067,-1.708l-0.342,-0.213c-75.742,-46.395 -141.908,-107.512 -193.25,-178.55c-51.454,-70.97 -88.187,-151.6 -108.154,-235.529c-20.029,-83.921 -23.292,-171.133 -9.792,-255.05c13.375,-83.941 43.675,-164.421 87.609,-235.525l0.029,-0.05c1.175,-1.904 3.679,-2.5 5.587,-1.316c1.809,1.116 2.425,3.441 1.479,5.3" style="fill:#bfc8d2;fill-opacity:0.5;fill-rule:nonzero;"/><path d="M421.588,172.286c-5.608,-0 -10.158,-4.079 -10.158,-9.121c0,-5.042 4.55,-9.129 10.158,-9.129c5.613,-0 10.163,4.087 10.163,9.129c-0,5.042 -4.55,9.121 -10.163,9.121Z" style="fill:none;fill-rule:nonzero;stroke:#8bc6f2;stroke-width:3.33px;"/><path d="M421.588,297.306c-5.608,0 -10.158,-4.083 -10.158,-9.121c0,-5.041 4.55,-9.129 10.158,-9.129c5.613,0 10.163,4.088 10.163,9.129c-0,5.038 -4.55,9.121 -10.163,9.121Z" style="fill:none;fill-rule:nonzero;stroke:#8bc6f2;stroke-width:3.33px;"/><path d="M420.825,171.383l0,108.237" style="fill:none;fill-rule:nonzero;stroke:#8bc6f2;stroke-width:3.33px;"/><path d="M420.825,297.4l0,108.242" style="fill:none;fill-rule:nonzero;stroke:#8bc6f2;stroke-width:3.33px;"/><path d="M421.588,425.383c-5.608,-0 -10.158,-4.084 -10.158,-9.121c0,-5.038 4.55,-9.129 10.158,-9.129c5.613,-0 10.163,4.091 10.163,9.129c-0,5.037 -4.55,9.121 -10.163,9.121Z" style="fill:none;fill-rule:nonzero;stroke:#8bc6f2;stroke-width:3.33px;"/><path d="M421.588,550.399c-5.608,-0 -10.158,-4.084 -10.158,-9.121c0,-5.038 4.55,-9.125 10.158,-9.125c5.613,-0 10.163,4.087 10.163,9.125c-0,5.037 -4.55,9.121 -10.163,9.121Z" style="fill:none;fill-rule:nonzero;stroke:#8bc6f2;stroke-width:3.33px;"/><path d="M420.825,424.479l0,108.238" style="fill:none;fill-rule:nonzero;stroke:#8bc6f2;stroke-width:3.33px;"/><path d="M420.825,550.496l0,108.238" style="fill:none;fill-rule:nonzero;stroke:#8bc6f2;stroke-width:3.33px;"/><path d="M421.588,678.479c-5.608,0 -10.158,-4.083 -10.158,-9.125c0,-5.037 4.55,-9.125 10.158,-9.125c5.613,0 10.163,4.088 10.163,9.125c-0,5.042 -4.55,9.125 -10.163,9.125Z" style="fill:none;fill-rule:nonzero;stroke:#8bc6f2;stroke-width:3.33px;"/><path d="M421.588,803.499c-5.608,0 -10.158,-4.087 -10.158,-9.125c0,-5.042 4.55,-9.129 10.158,-9.129c5.613,-0 10.163,4.087 10.163,9.129c-0,5.038 -4.55,9.125 -10.163,9.125Z" style="fill:none;fill-rule:nonzero;stroke:#8bc6f2;stroke-width:3.33px;"/><path d="M420.825,677.576l0,108.237" style="fill:none;fill-rule:nonzero;stroke:#8bc6f2;stroke-width:3.33px;"/><path d="M420.825,803.593l0,108.237" style="fill:none;fill-rule:nonzero;stroke:#8bc6f2;stroke-width:3.33px;"/><path d="M385.408,296.208c-5.608,-0 -10.158,-4.084 -10.158,-9.121c0,-5.042 4.55,-9.129 10.158,-9.129c5.613,-0 10.163,4.087 10.163,9.129c-0,5.037 -4.55,9.121 -10.163,9.121Z" style="fill:none;fill-rule:nonzero;stroke:#8bc6f2;stroke-width:3.33px;"/><path d="M385.408,421.224c-5.608,-0 -10.158,-4.084 -10.158,-9.121c0,-5.038 4.55,-9.125 10.158,-9.125c5.613,-0 10.163,4.087 10.163,9.125c-0,5.037 -4.55,9.121 -10.163,9.121Z" style="fill:none;fill-rule:nonzero;stroke:#8bc6f2;stroke-width:3.33px;"/><path d="M384.645,295.304l0,108.238" style="fill:none;fill-rule:nonzero;stroke:#8bc6f2;stroke-width:3.33px;"/><path d="M384.645,421.322l0,108.237" style="fill:none;fill-rule:nonzero;stroke:#8bc6f2;stroke-width:3.33px;"/><path d="M385.408,549.3c-5.608,-0 -10.158,-4.083 -10.158,-9.121c0,-5.037 4.55,-9.125 10.158,-9.125c5.613,0 10.163,4.088 10.163,9.125c-0,5.038 -4.55,9.121 -10.163,9.121Z" style="fill:none;fill-rule:nonzero;stroke:#8bc6f2;stroke-width:3.33px;"/><path d="M385.408,674.32c-5.608,0 -10.158,-4.083 -10.158,-9.125c0,-5.037 4.55,-9.125 10.158,-9.125c5.613,0 10.163,4.088 10.163,9.125c-0,5.042 -4.55,9.125 -10.163,9.125Z" style="fill:none;fill-rule:nonzero;stroke:#8bc6f2;stroke-width:3.33px;"/><path d="M384.645,548.397l0,108.237" style="fill:none;fill-rule:nonzero;stroke:#8bc6f2;stroke-width:3.33px;"/><path d="M384.645,674.414l0,108.238" style="fill:none;fill-rule:nonzero;stroke:#8bc6f2;stroke-width:3.33px;"/><path d="M385.408,802.401c-5.608,-0 -10.158,-4.083 -10.158,-9.125c0,-5.038 4.55,-9.129 10.158,-9.129c5.613,-0 10.163,4.091 10.163,9.129c-0,5.042 -4.55,9.125 -10.163,9.125Z" style="fill:none;fill-rule:nonzero;stroke:#8bc6f2;stroke-width:3.33px;"/><path d="M385.408,927.417c-5.608,0 -10.158,-4.083 -10.158,-9.121c0,-5.041 4.55,-9.129 10.158,-9.129c5.613,0 10.163,4.088 10.163,9.129c-0,5.038 -4.55,9.121 -10.163,9.121Z" style="fill:none;fill-rule:nonzero;stroke:#8bc6f2;stroke-width:3.33px;"/><path d="M384.645,801.497l0,108.238" style="fill:none;fill-rule:nonzero;stroke:#8bc6f2;stroke-width:3.33px;"/><path d="M384.645,927.515l0,108.237" style="fill:none;fill-rule:nonzero;stroke:#8bc6f2;stroke-width:3.33px;"/><path d="M349.227,421.208c-5.608,-0 -10.158,-4.084 -10.158,-9.121c-0,-5.042 4.55,-9.129 10.158,-9.129c5.613,-0 10.163,4.087 10.163,9.129c-0,5.037 -4.55,9.121 -10.163,9.121Z" style="fill:none;fill-rule:nonzero;stroke:#8bc6f2;stroke-width:3.33px;"/><path d="M349.227,546.224c-5.608,-0 -10.158,-4.084 -10.158,-9.121c-0,-5.038 4.55,-9.125 10.158,-9.125c5.613,-0 10.163,4.087 10.163,9.125c-0,5.037 -4.55,9.121 -10.163,9.121Z" style="fill:none;fill-rule:nonzero;stroke:#8bc6f2;stroke-width:3.33px;"/><path d="M348.464,420.304l-0,108.238" style="fill:none;fill-rule:nonzero;stroke:#8bc6f2;stroke-width:3.33px;"/><path d="M348.464,546.322l-0,108.237" style="fill:none;fill-rule:nonzero;stroke:#8bc6f2;stroke-width:3.33px;"/><path d="M349.227,674.304c-5.608,0 -10.158,-4.083 -10.158,-9.125c-0,-5.037 4.55,-9.125 10.158,-9.125c5.613,0 10.163,4.088 10.163,9.125c-0,5.042 -4.55,9.125 -10.163,9.125Z" style="fill:none;fill-rule:nonzero;stroke:#8bc6f2;stroke-width:3.33px;"/><path d="M349.227,799.325c-5.608,-0 -10.158,-4.084 -10.158,-9.125c-0,-5.042 4.55,-9.13 10.158,-9.13c5.613,0 10.163,4.088 10.163,9.13c-0,5.041 -4.55,9.125 -10.163,9.125Z" style="fill:none;fill-rule:nonzero;stroke:#8bc6f2;stroke-width:3.33px;"/><path d="M348.464,673.401l-0,108.237" style="fill:none;fill-rule:nonzero;stroke:#8bc6f2;stroke-width:3.33px;"/><path d="M348.464,799.418l-0,108.242" style="fill:none;fill-rule:nonzero;stroke:#8bc6f2;stroke-width:3.33px;"/><path d="M349.227,927.401c-5.608,-0 -10.158,-4.083 -10.158,-9.121c-0,-5.037 4.55,-9.129 10.158,-9.129c5.613,-0 10.163,4.092 10.163,9.129c-0,5.038 -4.55,9.121 -10.163,9.121Z" style="fill:none;fill-rule:nonzero;stroke:#8bc6f2;stroke-width:3.33px;"/><path d="M349.227,1052.42c-5.608,0 -10.158,-4.087 -10.158,-9.125c-0,-5.037 4.55,-9.125 10.158,-9.125c5.613,0 10.163,4.088 10.163,9.125c-0,5.038 -4.55,9.125 -10.163,9.125Z" style="fill:none;fill-rule:nonzero;stroke:#8bc6f2;stroke-width:3.33px;"/><path d="M348.464,926.497l-0,108.238" style="fill:none;fill-rule:nonzero;stroke:#8bc6f2;stroke-width:3.33px;"/><path d="M348.464,1052.52l-0,108.237" style="fill:none;fill-rule:nonzero;stroke:#8bc6f2;stroke-width:3.33px;"/><path d="M313.047,548.242c-5.608,0 -10.158,-4.058 -10.158,-9.062c-0,-5 4.55,-9.063 10.158,-9.063c5.613,0 10.163,4.063 10.163,9.063c-0,5.004 -4.55,9.062 -10.163,9.062Z" style="fill:none;fill-rule:nonzero;stroke:#8bc6f2;stroke-width:3.33px;"/><path d="M313.047,672.371c-5.608,0 -10.158,-4.062 -10.158,-9.062c-0,-5 4.55,-9.063 10.158,-9.063c5.613,0 10.163,4.063 10.163,9.063c-0,5 -4.55,9.062 -10.163,9.062Z" style="fill:none;fill-rule:nonzero;stroke:#8bc6f2;stroke-width:3.33px;"/><path d="M312.284,547.347l0,107.463" style="fill:none;fill-rule:nonzero;stroke:#8bc6f2;stroke-width:3.33px;"/><path d="M312.284,672.461l0,107.471" style="fill:none;fill-rule:nonzero;stroke:#8bc6f2;stroke-width:3.33px;"/><path d="M313.047,799.536c-5.608,0 -10.158,-4.058 -10.158,-9.058c-0,-5.004 4.55,-9.063 10.158,-9.063c5.613,0 10.163,4.059 10.163,9.063c-0,5 -4.55,9.058 -10.163,9.058Z" style="fill:none;fill-rule:nonzero;stroke:#8bc6f2;stroke-width:3.33px;"/><path d="M313.047,923.665c-5.608,0 -10.158,-4.062 -10.158,-9.062c-0,-5 4.55,-9.063 10.158,-9.063c5.613,0 10.163,4.063 10.163,9.063c-0,5 -4.55,9.062 -10.163,9.062Z" style="fill:none;fill-rule:nonzero;stroke:#8bc6f2;stroke-width:3.33px;"/><path d="M312.284,798.641l0,107.462" style="fill:none;fill-rule:nonzero;stroke:#8bc6f2;stroke-width:3.33px;"/><path d="M312.284,923.759l0,107.466" style="fill:none;fill-rule:nonzero;stroke:#8bc6f2;stroke-width:3.33px;"/><path d="M313.047,1050.83c-5.608,0 -10.158,-4.058 -10.158,-9.058c-0,-5.005 4.55,-9.063 10.158,-9.063c5.613,0 10.163,4.059 10.163,9.063c-0,5 -4.55,9.058 -10.163,9.058Z" style="fill:none;fill-rule:nonzero;stroke:#8bc6f2;stroke-width:3.33px;"/><path d="M313.047,1174.96c-5.608,0 -10.158,-4.062 -10.158,-9.058c-0,-5.004 4.55,-9.063 10.158,-9.063c5.613,0 10.163,4.059 10.163,9.063c-0,4.996 -4.55,9.058 -10.163,9.058Z" style="fill:none;fill-rule:nonzero;stroke:#8bc6f2;stroke-width:3.33px;"/><path d="M312.284,1049.93l0,107.463" style="fill:none;fill-rule:nonzero;stroke:#8bc6f2;stroke-width:3.33px;"/><path d="M312.284,1175.05l0,107.467" style="fill:none;fill-rule:nonzero;stroke:#8bc6f2;stroke-width:3.33px;"/><path d="M273.8,1223.59l39.25,46.533l39.25,-46.533l-39.25,135.167l-39.25,-135.167Z" style="fill:#8bc6f2;fill-rule:nonzero;"/><path d="M285.175,1242.73l27.875,101.146l-0,-66.638l-27.875,-34.508Z" style="fill:#272a31;fill-rule:nonzero;"/><path d="M276.868,421.208c-5.609,-0 -10.159,-4.084 -10.159,-9.121c0,-5.042 4.55,-9.129 10.159,-9.129c5.612,-0 10.162,4.087 10.162,9.129c0,5.037 -4.55,9.121 -10.162,9.121Z" style="fill:none;fill-rule:nonzero;stroke:#8bc6f2;stroke-width:3.33px;"/><path d="M276.868,546.224c-5.609,-0 -10.159,-4.084 -10.159,-9.121c0,-5.038 4.55,-9.125 10.159,-9.125c5.612,-0 10.162,4.087 10.162,9.125c0,5.037 -4.55,9.121 -10.162,9.121Z" style="fill:none;fill-rule:nonzero;stroke:#8bc6f2;stroke-width:3.33px;"/><path d="M276.105,420.304l-0,108.238" style="fill:none;fill-rule:nonzero;stroke:#8bc6f2;stroke-width:3.33px;"/><path d="M276.105,546.322l-0,108.237" style="fill:none;fill-rule:nonzero;stroke:#8bc6f2;stroke-width:3.33px;"/><path d="M276.868,674.3c-5.609,-0 -10.159,-4.083 -10.159,-9.121c0,-5.037 4.55,-9.125 10.159,-9.125c5.612,0 10.162,4.088 10.162,9.125c0,5.038 -4.55,9.121 -10.162,9.121Z" style="fill:none;fill-rule:nonzero;stroke:#8bc6f2;stroke-width:3.33px;"/><path d="M276.868,799.32c-5.609,0 -10.159,-4.083 -10.159,-9.125c0,-5.037 4.55,-9.125 10.159,-9.125c5.612,0 10.162,4.088 10.162,9.125c0,5.042 -4.55,9.125 -10.162,9.125Z" style="fill:none;fill-rule:nonzero;stroke:#8bc6f2;stroke-width:3.33px;"/><path d="M276.105,673.397l-0,108.237" style="fill:none;fill-rule:nonzero;stroke:#8bc6f2;stroke-width:3.33px;"/><path d="M276.105,799.414l-0,108.238" style="fill:none;fill-rule:nonzero;stroke:#8bc6f2;stroke-width:3.33px;"/><path d="M276.868,927.401c-5.609,-0 -10.159,-4.083 -10.159,-9.125c0,-5.038 4.55,-9.129 10.159,-9.129c5.612,-0 10.162,4.091 10.162,9.129c0,5.042 -4.55,9.125 -10.162,9.125Z" style="fill:none;fill-rule:nonzero;stroke:#8bc6f2;stroke-width:3.33px;"/><path d="M276.868,1052.42c-5.609,0 -10.159,-4.083 -10.159,-9.121c0,-5.041 4.55,-9.129 10.159,-9.129c5.612,0 10.162,4.088 10.162,9.129c0,5.038 -4.55,9.121 -10.162,9.121Z" style="fill:none;fill-rule:nonzero;stroke:#8bc6f2;stroke-width:3.33px;"/><path d="M276.105,926.497l-0,108.238" style="fill:none;fill-rule:nonzero;stroke:#8bc6f2;stroke-width:3.33px;"/><path d="M276.105,1052.52l-0,108.237" style="fill:none;fill-rule:nonzero;stroke:#8bc6f2;stroke-width:3.33px;"/><path d="M240.686,296.208c-5.608,-0 -10.158,-4.084 -10.158,-9.121c-0,-5.042 4.55,-9.129 10.158,-9.129c5.612,-0 10.162,4.087 10.162,9.129c0,5.037 -4.55,9.121 -10.162,9.121Z" style="fill:none;fill-rule:nonzero;stroke:#8bc6f2;stroke-width:3.33px;"/><path d="M240.686,421.224c-5.608,-0 -10.158,-4.084 -10.158,-9.121c-0,-5.038 4.55,-9.125 10.158,-9.125c5.612,-0 10.162,4.087 10.162,9.125c0,5.037 -4.55,9.121 -10.162,9.121Z" style="fill:none;fill-rule:nonzero;stroke:#8bc6f2;stroke-width:3.33px;"/><path d="M239.923,295.304l-0,108.238" style="fill:none;fill-rule:nonzero;stroke:#8bc6f2;stroke-width:3.33px;"/><path d="M239.923,421.322l-0,108.237" style="fill:none;fill-rule:nonzero;stroke:#8bc6f2;stroke-width:3.33px;"/><path d="M240.686,549.3c-5.608,-0 -10.158,-4.083 -10.158,-9.121c-0,-5.037 4.55,-9.125 10.158,-9.125c5.612,0 10.162,4.088 10.162,9.125c0,5.038 -4.55,9.121 -10.162,9.121Z" style="fill:none;fill-rule:nonzero;stroke:#8bc6f2;stroke-width:3.33px;"/><path d="M240.686,674.32c-5.608,0 -10.158,-4.083 -10.158,-9.125c-0,-5.037 4.55,-9.125 10.158,-9.125c5.612,0 10.162,4.088 10.162,9.125c0,5.042 -4.55,9.125 -10.162,9.125Z" style="fill:none;fill-rule:nonzero;stroke:#8bc6f2;stroke-width:3.33px;"/><path d="M239.923,548.397l-0,108.237" style="fill:none;fill-rule:nonzero;stroke:#8bc6f2;stroke-width:3.33px;"/><path d="M239.923,674.414l-0,108.238" style="fill:none;fill-rule:nonzero;stroke:#8bc6f2;stroke-width:3.33px;"/><path d="M240.686,802.401c-5.608,-0 -10.158,-4.083 -10.158,-9.125c-0,-5.038 4.55,-9.129 10.158,-9.129c5.612,-0 10.162,4.091 10.162,9.129c0,5.042 -4.55,9.125 -10.162,9.125Z" style="fill:none;fill-rule:nonzero;stroke:#8bc6f2;stroke-width:3.33px;"/><path d="M240.686,927.417c-5.608,0 -10.158,-4.083 -10.158,-9.121c-0,-5.041 4.55,-9.129 10.158,-9.129c5.612,0 10.162,4.088 10.162,9.129c0,5.038 -4.55,9.121 -10.162,9.121Z" style="fill:none;fill-rule:nonzero;stroke:#8bc6f2;stroke-width:3.33px;"/><path d="M239.923,801.497l-0,108.238" style="fill:none;fill-rule:nonzero;stroke:#8bc6f2;stroke-width:3.33px;"/><path d="M239.923,927.515l-0,108.237" style="fill:none;fill-rule:nonzero;stroke:#8bc6f2;stroke-width:3.33px;"/><path d="M204.506,172.286c-5.608,-0 -10.158,-4.079 -10.158,-9.121c-0,-5.042 4.55,-9.129 10.158,-9.129c5.613,-0 10.163,4.087 10.163,9.129c-0,5.042 -4.55,9.121 -10.163,9.121Z" style="fill:none;fill-rule:nonzero;stroke:#8bc6f2;stroke-width:3.33px;"/><path d="M204.506,297.306c-5.608,0 -10.158,-4.083 -10.158,-9.121c-0,-5.041 4.55,-9.129 10.158,-9.129c5.613,0 10.163,4.088 10.163,9.129c-0,5.038 -4.55,9.121 -10.163,9.121Z" style="fill:none;fill-rule:nonzero;stroke:#8bc6f2;stroke-width:3.33px;"/><path d="M203.743,171.383l0,108.237" style="fill:none;fill-rule:nonzero;stroke:#8bc6f2;stroke-width:3.33px;"/><path d="M203.743,297.4l0,108.242" style="fill:none;fill-rule:nonzero;stroke:#8bc6f2;stroke-width:3.33px;"/><path d="M204.506,425.383c-5.608,-0 -10.158,-4.084 -10.158,-9.121c-0,-5.038 4.55,-9.129 10.158,-9.129c5.613,-0 10.163,4.091 10.163,9.129c-0,5.037 -4.55,9.121 -10.163,9.121Z" style="fill:none;fill-rule:nonzero;stroke:#8bc6f2;stroke-width:3.33px;"/><path d="M204.506,550.399c-5.608,-0 -10.158,-4.084 -10.158,-9.121c-0,-5.038 4.55,-9.125 10.158,-9.125c5.613,-0 10.163,4.087 10.163,9.125c-0,5.037 -4.55,9.121 -10.163,9.121Z" style="fill:none;fill-rule:nonzero;stroke:#8bc6f2;stroke-width:3.33px;"/><path d="M203.743,424.479l0,108.238" style="fill:none;fill-rule:nonzero;stroke:#8bc6f2;stroke-width:3.33px;"/><path d="M203.743,550.496l0,108.238" style="fill:none;fill-rule:nonzero;stroke:#8bc6f2;stroke-width:3.33px;"/><path d="M204.506,678.479c-5.608,0 -10.158,-4.083 -10.158,-9.125c-0,-5.037 4.55,-9.125 10.158,-9.125c5.613,0 10.163,4.088 10.163,9.125c-0,5.042 -4.55,9.125 -10.163,9.125Z" style="fill:none;fill-rule:nonzero;stroke:#8bc6f2;stroke-width:3.33px;"/><path d="M204.506,803.499c-5.608,0 -10.158,-4.087 -10.158,-9.125c-0,-5.042 4.55,-9.129 10.158,-9.129c5.613,-0 10.163,4.087 10.163,9.129c-0,5.038 -4.55,9.125 -10.163,9.125Z" style="fill:none;fill-rule:nonzero;stroke:#8bc6f2;stroke-width:3.33px;"/><path d="M203.743,677.576l0,108.237" style="fill:none;fill-rule:nonzero;stroke:#8bc6f2;stroke-width:3.33px;"/><path d="M203.743,803.593l0,108.237" style="fill:none;fill-rule:nonzero;stroke:#8bc6f2;stroke-width:3.33px;"/><path d="M1150.95,1862.66c8.725,-1.788 17.121,3.2 18.888,11.108c1.758,7.913 -3.738,15.996 -12.396,18.071c-8.667,2.075 -17.275,-2.867 -19.096,-11.062c-1.833,-8.2 3.875,-16.325 12.604,-18.117Z" style="fill:none;fill-rule:nonzero;stroke:#768293;stroke-width:5.29px;"/><path d="M1131.41,1659.27c8.904,0.254 15.941,6.984 15.904,15.034c-0.038,8.058 -7.171,14.712 -16.071,14.858c-8.912,0.146 -16.233,-6.579 -16.192,-15.034c0.038,-8.449 7.455,-15.104 16.359,-14.858Z" style="fill:none;fill-rule:nonzero;stroke:#768293;stroke-width:5.29px;"/><path d="M1152.44,1863.86c-12.079,-57.758 -19.292,-116.617 -19.996,-175.638" style="fill:none;fill-rule:nonzero;stroke:#768293;stroke-width:5.29px;"/><path d="M1132.62,1659.15c1.421,-58.975 9.713,-117.846 25.634,-174.658" style="fill:none;fill-rule:nonzero;stroke:#768293;stroke-width:5.29px;"/><path d="M1166.56,1453.24c8.442,2.85 13.204,11.316 10.85,18.979c-2.367,7.662 -11.075,11.979 -19.654,9.579c-8.575,-2.396 -13.684,-10.971 -11.179,-19.083c2.495,-8.117 11.545,-12.325 19.983,-9.475Z" style="fill:none;fill-rule:nonzero;stroke:#768293;stroke-width:5.29px;"/><path d="M1259.87,1271.85c7.196,5.242 9.209,14.767 4.65,21.371c-4.57,6.6 -14.179,8.096 -21.637,3.221c-7.45,-4.875 -9.738,-14.583 -4.913,-21.554c4.821,-6.975 14.696,-8.288 21.9,-3.038Z" style="fill:none;fill-rule:nonzero;stroke:#768293;stroke-width:5.29px;"/><path d="M1167.25,1455.02c18.471,-56.029 44.6,-109.487 77.159,-158.679" style="fill:none;fill-rule:nonzero;stroke:#768293;stroke-width:5.29px;"/><path d="M1260.95,1272.43c34.562,-47.83 75.15,-91.209 119.837,-129.725" style="fill:none;fill-rule:nonzero;stroke:#768293;stroke-width:5.29px;"/><path d="M1404.89,1121.15c5.529,6.983 4.888,16.712 -1.329,21.854c-6.217,5.137 -15.896,3.929 -21.713,-2.817c-5.82,-6.746 -5.345,-16.683 1.163,-22.062c6.504,-5.375 16.35,-3.963 21.879,3.025Z" style="fill:none;fill-rule:nonzero;stroke:#768293;stroke-width:5.29px;"/><path d="M1578.19,1012.87c3.838,8.038 1.034,17.388 -6.196,21.004c-7.233,3.621 -16.395,0.263 -20.533,-7.625c-4.138,-7.895 -1.438,-17.458 6.092,-21.225c7.529,-3.766 16.8,-0.195 20.637,7.846Z" style="fill:none;fill-rule:nonzero;stroke:#768293;stroke-width:5.29px;"/><path d="M1404.5,1123.02c46.1,-36.85 95.979,-68.921 148.346,-96.125" style="fill:none;fill-rule:nonzero;stroke:#768293;stroke-width:5.29px;"/><path d="M1578.86,1013.89c53.208,-25.48 108.758,-46.404 166.112,-60.275" style="fill:none;fill-rule:nonzero;stroke:#768293;stroke-width:5.29px;"/><path d="M1164.5,1854.56c14.7,6.784 20.992,24.571 13.667,39.534c-7.304,14.962 -25.163,20.954 -39.575,13.545c-14.425,-7.416 -20.2,-24.958 -13.196,-39.304c7.021,-14.346 24.362,-20.583 39.104,-13.775Z" style="fill:none;fill-rule:nonzero;stroke:#c1c8d3;stroke-width:9.63px;"/><path d="M1277.23,1467.85c16.129,1.6 27.846,16.537 25.583,33.25c-2.254,16.725 -17.508,27.996 -33.475,25.283c-16.004,-2.717 -26.825,-17.525 -24.725,-33.137c2.117,-15.6 16.475,-27 32.617,-25.396Z" style="fill:none;fill-rule:nonzero;stroke:#c1c8d3;stroke-width:9.63px;"/><path d="M1165.26,1858.14c49.517,-105.825 87.704,-217.6 106.546,-333.208" style="fill:none;fill-rule:nonzero;stroke:#c1c8d3;stroke-width:9.63px;"/><path d="M1279.45,1467.77c6.092,-58.2 6.913,-117 1.675,-175.316c-5.204,-58.304 -16.487,-116.092 -33.825,-172.013" style="fill:none;fill-rule:nonzero;stroke:#c1c8d3;stroke-width:9.63px;"/><path d="M1223.93,1060.84c15.017,-6.075 32.367,1.771 38.067,17.787c5.708,16.004 -2.771,33.063 -18.246,37.846c-15.504,4.792 -31.821,-3.429 -37.075,-18.142c-5.233,-14.725 2.212,-31.408 17.254,-37.491Z" style="fill:none;fill-rule:nonzero;stroke:#c1c8d3;stroke-width:9.63px;"/><path d="M995.536,730.668c11.092,-11.812 30.038,-12.05 41.929,-0.125c11.905,11.913 11.63,30.875 -0.208,41.929c-11.858,11.076 -30.196,10.717 -41.354,-0.441c-11.142,-11.175 -11.475,-29.538 -0.367,-41.363Z" style="fill:none;fill-rule:nonzero;stroke:#c1c8d3;stroke-width:9.63px;"/><path d="M1227.06,1062.75c-42.75,-109.137 -108.967,-208.3 -189.45,-293.121" style="fill:none;fill-rule:nonzero;stroke:#c1c8d3;stroke-width:9.63px;"/><path d="M996.832,728.858c-85,-80.501 -182.421,-147.371 -286.387,-200.846" style="fill:none;fill-rule:nonzero;stroke:#c1c8d3;stroke-width:9.63px;"/><path d="M1130.04,1878.61c-7.736,2.416 -12.176,10.266 -9.91,17.518c2.265,7.251 10.385,11.177 18.12,8.76c7.735,-2.417 12.176,-10.266 9.91,-17.518c-2.266,-7.252 -10.385,-11.177 -18.12,-8.76Z" style="fill:none;stroke:#c1c8d3;stroke-width:4.82px;"/><path d="M1081.21,1697.12c-7.891,1.857 -12.882,9.373 -11.14,16.774c1.742,7.401 9.562,11.902 17.452,10.044c7.891,-1.857 12.883,-9.373 11.141,-16.774c-1.742,-7.401 -9.563,-11.902 -17.453,-10.044Z" style="fill:none;stroke:#c1c8d3;stroke-width:4.82px;"/><path d="M1131.54,1879.62c-15.95,-51.825 -30.413,-104.113 -43.121,-156.83" style="fill:none;fill-rule:nonzero;stroke:#c1c8d3;stroke-width:4.82px;"/><path d="M1082.3,1696.78c-12.096,-52.858 -22.371,-106.133 -30.433,-159.75" style="fill:none;fill-rule:nonzero;stroke:#c1c8d3;stroke-width:4.82px;"/><path d="M1046.52,1507.74c-8.027,1.14 -13.674,8.182 -12.605,15.717c1.07,7.534 8.456,12.726 16.482,11.586c8.027,-1.14 13.675,-8.182 12.605,-15.717c-1.07,-7.534 -8.455,-12.726 -16.482,-11.586Z" style="fill:none;stroke:#c1c8d3;stroke-width:4.82px;"/><path d="M1031.37,1320.44c-8.102,0.264 -14.477,6.662 -14.229,14.277c0.249,7.616 7.028,13.584 15.13,13.319c8.102,-0.265 14.477,-6.662 14.228,-14.278c-0.248,-7.615 -7.028,-13.583 -15.129,-13.318Z" style="fill:none;stroke:#c1c8d3;stroke-width:4.82px;"/><path d="M1047.87,1509c-7.267,-53.725 -12.254,-107.767 -14.463,-161.934" style="fill:none;fill-rule:nonzero;stroke:#c1c8d3;stroke-width:4.82px;"/><path d="M1032.54,1320.36c-1.267,-54.192 0.287,-108.467 5.275,-162.442" style="fill:none;fill-rule:nonzero;stroke:#c1c8d3;stroke-width:4.82px;"/><path d="M1039.71,1128.17c-8.062,-0.843 -15.252,4.633 -16.046,12.222c-0.793,7.588 5.108,14.433 13.17,15.276c8.063,0.844 15.253,-4.633 16.046,-12.221c0.794,-7.588 -5.107,-14.433 -13.17,-15.277Z" style="fill:none;stroke:#c1c8d3;stroke-width:4.82px;"/><path d="M1076.07,943.922c-7.82,-2.13 -15.799,2.124 -17.807,9.495c-2.008,7.37 2.71,15.084 10.53,17.214c7.821,2.131 15.8,-2.124 17.808,-9.494c2.008,-7.371 -2.711,-15.085 -10.531,-17.215Z" style="fill:none;stroke:#c1c8d3;stroke-width:4.82px;"/><path d="M1040.72,1129.76c6.175,-53.846 15.841,-107.309 29.475,-159.763" style="fill:none;fill-rule:nonzero;stroke:#c1c8d3;stroke-width:4.82px;"/><path d="M1077.23,944.23c14.937,-52.083 33.904,-103.038 57.071,-152.025" style="fill:none;fill-rule:nonzero;stroke:#c1c8d3;stroke-width:4.82px;"/><path d="M1146.41,765.096c7.204,3.712 10.292,12.079 7.004,18.754c-3.295,6.671 -11.82,9.313 -19.15,5.85c-7.329,-3.467 -10.6,-11.929 -7.183,-18.842c3.413,-6.925 12.117,-9.475 19.329,-5.762Z" style="fill:none;fill-rule:nonzero;stroke:#c1c8d3;stroke-width:4.82px;"/><path d="M1248.29,607.503c6.309,5.088 7.65,13.917 3.083,19.779c-4.566,5.867 -13.441,6.742 -19.925,1.884c-6.491,-4.867 -7.991,-13.817 -3.25,-19.913c4.742,-6.087 13.78,-6.841 20.092,-1.75Z" style="fill:none;fill-rule:nonzero;stroke:#c1c8d3;stroke-width:4.82px;"/><path d="M1146.77,766.805c24.6,-48.279 53.396,-94.417 86.059,-137.654" style="fill:none;fill-rule:nonzero;stroke:#c1c8d3;stroke-width:4.82px;"/><path d="M1249.24,608.081c33.909,-42.262 71.579,-81.496 112.367,-117.166" style="fill:none;fill-rule:nonzero;stroke:#c1c8d3;stroke-width:4.82px;"/><path d="M1383.53,470.89c5.125,6.284 4.608,15.188 -1.067,19.992c-5.679,4.8 -14.554,3.821 -19.891,-2.275c-5.342,-6.104 -4.955,-15.171 0.937,-20.15c5.888,-4.983 14.896,-3.846 20.021,2.433Z" style="fill:none;fill-rule:nonzero;stroke:#c1c8d3;stroke-width:4.82px;"/><path d="M1539.62,366.691c3.8,7.154 1.559,15.804 -4.954,19.4c-6.512,3.6 -15.021,0.896 -19.062,-6.125c-4.042,-7.033 -1.892,-15.846 4.858,-19.575c6.75,-3.729 15.354,-0.866 19.158,6.3Z" style="fill:none;fill-rule:nonzero;stroke:#c1c8d3;stroke-width:4.82px;"/><path d="M1383.18,472.607c41.842,-34.433 86.637,-65.258 133.708,-92.104" style="fill:none;fill-rule:nonzero;stroke:#c1c8d3;stroke-width:4.82px;"/><path d="M1540.27,367.595c47.809,-25.488 97.759,-47.055 149.371,-63.542" style="fill:none;fill-rule:nonzero;stroke:#c1c8d3;stroke-width:4.82px;"/><path d="M1187.31,1874.03c4.6,18.758 -6.896,37.7 -25.663,42.291c-18.762,4.592 -37.7,-6.891 -42.304,-25.658c-4.588,-18.767 6.908,-37.704 25.671,-42.296c18.766,-4.596 37.704,6.892 42.296,25.663" style="fill:#f9f8f7;fill-rule:nonzero;"/><path d="M1187.32,1874.03c-4.59,-18.754 -23.545,-30.253 -42.303,-25.662c-18.759,4.591 -30.262,23.543 -25.672,42.297c4.589,18.754 23.545,30.252 42.303,25.662c18.758,-4.591 30.262,-23.544 25.672,-42.297Z" style="fill:#272a31;stroke:#d77526;stroke-width:8.33px;"/><path d="M1766.17,947.176c2.909,11.867 -4.362,23.838 -16.225,26.738c-11.858,2.9 -23.829,-4.359 -26.741,-16.221c-2.9,-11.858 4.366,-23.829 16.229,-26.738c11.862,-2.904 23.833,4.359 26.737,16.221" style="fill:#f9f8f7;fill-rule:nonzero;"/><path d="M1766.17,947.177c-2.901,-11.855 -14.884,-19.124 -26.742,-16.222c-11.858,2.902 -19.13,14.884 -16.228,26.74c2.902,11.855 14.885,19.124 26.743,16.222c11.858,-2.903 19.129,-14.884 16.227,-26.74Z" style="fill:#272a31;stroke:#d77526;stroke-width:5.27px;"/><path d="M1704.92,299.178c2.112,8.625 -3.171,17.325 -11.796,19.433c-8.617,2.113 -17.317,-3.166 -19.434,-11.787c-2.108,-8.621 3.171,-17.321 11.792,-19.434c8.625,-2.112 17.329,3.171 19.438,11.788" style="fill:#f9f8f7;fill-rule:nonzero;"/><path d="M1704.92,299.178c-2.11,-8.616 -10.819,-13.899 -19.438,-11.789c-8.618,2.11 -13.902,10.819 -11.792,19.435c2.109,8.617 10.819,13.9 19.437,11.79c8.618,-2.11 13.902,-10.819 11.793,-19.436Z" style="fill:#272a31;stroke:#d77526;stroke-width:3.83px;"/><path d="M739.736,519.128c4.592,18.738 -6.892,37.654 -25.633,42.242c-18.734,4.583 -37.65,-6.887 -42.246,-25.629c-4.584,-18.742 6.896,-37.654 25.633,-42.238c18.746,-4.587 37.658,6.884 42.246,25.625" style="fill:#272a31;fill-rule:nonzero;"/><path d="M739.742,519.128c-4.584,-18.729 -23.515,-30.213 -42.248,-25.628c-18.733,4.585 -30.221,23.513 -25.637,42.242c4.584,18.729 23.514,30.212 42.247,25.628c18.734,-4.585 30.221,-23.513 25.638,-42.242Z" style="fill:none;stroke:#d77526;stroke-width:8.32px;"/><path d="M1775.92,1099.29c-6.888,1.279 -13.404,-2.537 -14.63,-8.504c-1.22,-5.967 3.217,-12.042 10.063,-13.6c6.829,-1.554 13.542,2.225 14.817,8.467c1.283,6.241 -3.342,12.35 -10.25,13.637Z" style="fill:none;fill-rule:nonzero;stroke:#c1c8d3;stroke-width:4.17px;"/><path d="M1786.38,1253.17c-7.004,-0.388 -12.412,-5.625 -12.208,-11.709c0.2,-6.083 5.975,-10.937 12.975,-10.846c7.025,0.092 12.625,5.338 12.416,11.709c-0.216,6.375 -6.179,11.229 -13.183,10.846Z" style="fill:none;fill-rule:nonzero;stroke:#c1c8d3;stroke-width:4.17px;"/><path d="M1774.78,1098.37c8.321,43.762 12.205,88.379 11.409,132.92" style="fill:none;fill-rule:nonzero;stroke:#c1c8d3;stroke-width:4.17px;"/><path d="M1785.43,1253.24c-2.288,44.491 -9.246,88.737 -20.638,131.804" style="fill:none;fill-rule:nonzero;stroke:#c1c8d3;stroke-width:4.17px;"/><path d="M1759.01,1408.77c-6.692,-2.067 -10.683,-8.463 -9.004,-14.317c1.683,-5.85 8.437,-9.171 15.225,-7.375c6.775,1.796 10.958,8.246 9.196,14.375c-1.759,6.129 -8.705,9.392 -15.417,7.317Z" style="fill:none;fill-rule:nonzero;stroke:#c1c8d3;stroke-width:4.17px;"/><path d="M1696.79,1549.89c-6.034,-3.587 -8.392,-10.733 -5.388,-16.033c3.004,-5.296 10.367,-6.925 16.529,-3.588c6.175,3.342 8.709,10.588 5.563,16.13c-3.142,5.545 -10.684,7.079 -16.704,3.491Z" style="fill:none;fill-rule:nonzero;stroke:#c1c8d3;stroke-width:4.17px;"/><path d="M1758.43,1407.42c-12.946,42.625 -30.292,83.916 -51.662,123.004" style="fill:none;fill-rule:nonzero;stroke:#c1c8d3;stroke-width:4.17px;"/><path d="M1695.91,1549.51c-22.671,38.354 -49.263,74.387 -79.267,107.316" style="fill:none;fill-rule:nonzero;stroke:#c1c8d3;stroke-width:4.17px;"/><path d="M1600.57,1675.21c-4.996,-4.934 -5.567,-12.434 -1.384,-16.859c4.188,-4.416 11.73,-4.229 16.909,0.484c5.196,4.729 5.912,12.371 1.529,16.996c-4.383,4.633 -12.071,4.308 -17.054,-0.621Z" style="fill:none;fill-rule:nonzero;stroke:#c1c8d3;stroke-width:4.17px;"/><path d="M1480.2,1771.65c-3.687,-5.983 -2.466,-13.404 2.638,-16.717c5.116,-3.295 12.391,-1.341 16.321,4.475c3.92,5.809 2.82,13.413 -2.542,16.867c-5.346,3.471 -12.742,1.333 -16.417,-4.625Z" style="fill:none;fill-rule:nonzero;stroke:#c1c8d3;stroke-width:4.17px;"/><path d="M1600.67,1673.75c-31.146,31.858 -65.6,60.466 -102.616,85.254" style="fill:none;fill-rule:nonzero;stroke:#c1c8d3;stroke-width:4.17px;"/><path d="M1479.6,1770.9c-37.85,23.496 -78.146,43.042 -120.017,58.263" style="fill:none;fill-rule:nonzero;stroke:#c1c8d3;stroke-width:4.17px;"/><path d="M1406.99,1768.74l-34.917,55.487l60.583,25.063l-151.537,3.921l125.871,-84.471Z" style="fill:#c1c8d3;fill-rule:nonzero;"/><path d="M1391.06,1786.67l-94.679,61.679l68.384,-21.796l26.295,-39.883Z" style="fill:#272a31;fill-rule:nonzero;"/><path d="M329.038,1461.18c-10.27,0.249 -18.816,-7.813 -18.625,-17.996c0.163,-10.192 8.963,-17.959 19.225,-17.363c10.267,0.592 18.159,8.646 18.013,17.988c-0.179,9.35 -8.325,17.125 -18.613,17.37Z" style="fill:none;fill-rule:nonzero;stroke:#d77526;stroke-width:6.11px;"/><path d="M389.152,1693.62c-9.037,4.879 -20.312,1.571 -24.762,-7.588c-4.471,-9.158 -0.155,-20.071 9.245,-24.196c9.43,-4.133 20.117,-0.545 24.221,7.863c4.079,8.404 0.354,19.033 -8.704,23.921Z" style="fill:none;fill-rule:nonzero;stroke:#d77526;stroke-width:6.11px;"/><path d="M327.604,1459.45c0.963,70.125 16.471,139.996 45.208,203.963" style="fill:none;fill-rule:nonzero;stroke:#d77526;stroke-width:6.11px;"/><path d="M388.003,1694.44c32.891,61.937 78.691,116.983 133.679,160.512" style="fill:none;fill-rule:nonzero;stroke:#d77526;stroke-width:6.11px;"/><path d="M553.402,1876.5c-5.713,8.537 -17.209,10.87 -25.434,4.858c-8.229,-6 -9.52,-17.663 -3.129,-25.708c6.396,-8.059 17.525,-9.884 25.079,-4.375c7.546,5.52 9.213,16.67 3.484,25.225Z" style="fill:none;fill-rule:nonzero;stroke:#d77526;stroke-width:6.11px;"/><path d="M777.997,1961.31c-1.205,10.212 -10.388,17.5 -20.45,15.891c-10.063,-1.608 -16.513,-11.4 -14.471,-21.475c2.037,-10.079 11.125,-16.771 20.35,-15.296c9.229,1.475 15.779,10.667 14.571,20.88Z" style="fill:none;fill-rule:nonzero;stroke:#d77526;stroke-width:6.11px;"/><path d="M551.164,1876.67c57.879,39.58 123.837,67.384 192.716,80.642" style="fill:none;fill-rule:nonzero;stroke:#d77526;stroke-width:6.11px;"/><path d="M778.007,1962.72c69.6,8.671 140.938,2.779 208.221,-16.979" style="fill:none;fill-rule:nonzero;stroke:#d77526;stroke-width:6.11px;"/><path d="M927.27,1927.55l48.13,18.896l-26.746,44.254l98.062,-68.4l-119.446,5.25Z" style="fill:#d77526;fill-rule:nonzero;"/><path d="M945.785,1931.51l88.962,-5.154l-53.617,18.154l-35.345,-13Z" style="fill:#272a31;fill-rule:nonzero;"/></g></g></svg>