<?xml version="1.0" encoding="UTF-8" standalone="no"?><!DOCTYPE svg PUBLIC "-//W3C//DTD SVG 1.1//EN" "http://www.w3.org/Graphics/SVG/1.1/DTD/svg11.dtd"><svg width="100%" height="100%" viewBox="0 0 2138 2134" version="1.1" xmlns="http://www.w3.org/2000/svg" xmlns:xlink="http://www.w3.org/1999/xlink" xml:space="preserve" xmlns:serif="http://www.serif.com/" style="fill-rule:evenodd;clip-rule:evenodd;stroke-miterlimit:10;"><rect id="mp" x="2.122" y="0" width="2133.33" height="2133.33" style="fill:none;"/><g id="bg-col-as-page" serif:id="bg col as page"></g><g id="MP"><path d="M357.621,524.087c5.476,-5.476 5.23,-14.612 -0.547,-20.39c-5.778,-5.778 -14.915,-6.023 -20.39,-0.548c-5.475,5.476 -5.23,14.612 0.548,20.39c5.778,5.778 14.914,6.023 20.389,0.548Z" style="fill:none;stroke:#8bc6f2;stroke-width:3.08px;"/><path d="M501.04,667.505c5.475,-5.475 5.23,-14.611 -0.547,-20.389c-5.777,-5.777 -14.913,-6.022 -20.389,-0.546c-5.475,5.475 -5.23,14.611 0.547,20.388c5.778,5.777 14.913,6.022 20.389,0.547Z" style="fill:none;stroke:#8bc6f2;stroke-width:3.08px;"/><path d="M355.837,523.792l124.167,124.166" style="fill:none;fill-rule:nonzero;stroke:#8bc6f2;stroke-width:3.08px;"/><path d="M500.405,668.359l124.171,124.167" style="fill:none;fill-rule:nonzero;stroke:#8bc6f2;stroke-width:3.08px;"/><path d="M647.402,813.863c5.476,-5.476 5.23,-14.612 -0.548,-20.39c-5.777,-5.778 -14.914,-6.023 -20.389,-0.548c-5.476,5.476 -5.23,14.612 0.548,20.39c5.778,5.778 14.914,6.023 20.389,0.548Z" style="fill:none;stroke:#8bc6f2;stroke-width:3.08px;"/><path d="M790.823,957.283c5.475,-5.475 5.23,-14.611 -0.548,-20.389c-5.778,-5.778 -14.914,-6.024 -20.39,-0.548c-5.475,5.475 -5.23,14.612 0.548,20.389c5.778,5.778 14.914,6.024 20.39,0.548Z" style="fill:none;stroke:#8bc6f2;stroke-width:3.08px;"/><path d="M645.62,813.57l124.167,124.167" style="fill:none;fill-rule:nonzero;stroke:#8bc6f2;stroke-width:3.08px;"/><path d="M790.188,958.138l124.166,124.167" style="fill:none;fill-rule:nonzero;stroke:#8bc6f2;stroke-width:3.08px;"/><path d="M296.375,326.959c7.041,-7.041 6.542,-18.974 -1.114,-26.63c-7.656,-7.656 -19.588,-8.155 -26.63,-1.114c-7.041,7.042 -6.542,18.975 1.114,26.631c7.656,7.656 19.588,8.155 26.63,1.113Z" style="fill:none;stroke:#8bc6f2;stroke-width:3.95px;"/><path d="M486.426,517.012c7.042,-7.041 6.544,-18.974 -1.112,-26.631c-7.656,-7.657 -19.589,-8.157 -26.631,-1.116c-7.043,7.041 -6.544,18.975 1.111,26.631c7.656,7.657 19.589,8.157 26.632,1.116Z" style="fill:none;stroke:#8bc6f2;stroke-width:3.95px;"/><path d="M294.041,326.542l164.538,164.538" style="fill:none;fill-rule:nonzero;stroke:#8bc6f2;stroke-width:3.95px;"/><path d="M485.614,518.115l164.538,164.538" style="fill:none;fill-rule:nonzero;stroke:#8bc6f2;stroke-width:3.95px;"/><path d="M680.374,710.958c7.041,-7.042 6.542,-18.975 -1.115,-26.631c-7.657,-7.657 -19.59,-8.156 -26.631,-1.115c-7.042,7.042 -6.542,18.975 1.114,26.631c7.657,7.657 19.59,8.156 26.632,1.115Z" style="fill:none;stroke:#8bc6f2;stroke-width:3.95px;"/><path d="M870.425,901.009c7.041,-7.041 6.542,-18.974 -1.114,-26.63c-7.656,-7.656 -19.588,-8.155 -26.63,-1.114c-7.041,7.042 -6.542,18.975 1.114,26.631c7.656,7.656 19.588,8.155 26.63,1.113Z" style="fill:none;stroke:#8bc6f2;stroke-width:3.95px;"/><path d="M678.042,710.539l164.537,164.537" style="fill:none;fill-rule:nonzero;stroke:#8bc6f2;stroke-width:3.95px;"/><path d="M869.611,902.112l164.538,164.537" style="fill:none;fill-rule:nonzero;stroke:#8bc6f2;stroke-width:3.95px;"/><path d="M1064.37,1094.96c7.042,-7.042 6.543,-18.974 -1.113,-26.631c-7.656,-7.656 -19.589,-8.155 -26.63,-1.113c-7.042,7.041 -6.543,18.974 1.113,26.63c7.656,7.656 19.589,8.155 26.63,1.114Z" style="fill:none;stroke:#8bc6f2;stroke-width:3.95px;"/><path d="M1254.42,1285.01c7.041,-7.042 6.542,-18.975 -1.114,-26.631c-7.656,-7.656 -19.589,-8.155 -26.63,-1.113c-7.042,7.041 -6.543,18.974 1.113,26.63c7.656,7.656 19.589,8.155 26.631,1.114Z" style="fill:none;stroke:#8bc6f2;stroke-width:3.95px;"/><path d="M1062.04,1094.54l164.533,164.537" style="fill:none;fill-rule:nonzero;stroke:#8bc6f2;stroke-width:3.95px;"/><path d="M1253.61,1286.11l164.538,164.538" style="fill:none;fill-rule:nonzero;stroke:#8bc6f2;stroke-width:3.95px;"/><path d="M372.329,337.866c7.865,-7.865 8.02,-20.48 0.346,-28.154c-7.674,-7.674 -20.29,-7.519 -28.154,0.346c-7.865,7.865 -8.02,20.48 -0.346,28.154c7.674,7.674 20.289,7.519 28.154,-0.346Z" style="fill:none;stroke:#8bc6f2;stroke-width:4.42px;"/><path d="M562.805,528.34c7.864,-7.865 8.019,-20.48 0.345,-28.153c-7.674,-7.673 -20.29,-7.517 -28.154,0.349c-7.864,7.865 -8.018,20.48 -0.344,28.153c7.674,7.673 20.289,7.517 28.153,-0.349Z" style="fill:none;stroke:#8bc6f2;stroke-width:4.42px;"/><path d="M369.879,337.557l164.905,164.904" style="fill:none;fill-rule:nonzero;stroke:#8bc6f2;stroke-width:4.42px;"/><path d="M561.88,529.557l164.904,164.9" style="fill:none;fill-rule:nonzero;stroke:#8bc6f2;stroke-width:4.42px;"/><path d="M757.18,722.717c7.865,-7.865 8.021,-20.479 0.348,-28.152c-7.673,-7.673 -20.287,-7.517 -28.152,0.348c-7.865,7.865 -8.021,20.479 -0.348,28.152c7.673,7.673 20.287,7.517 28.152,-0.348Z" style="fill:none;stroke:#8bc6f2;stroke-width:4.42px;"/><path d="M947.654,913.192c7.864,-7.864 8.019,-20.478 0.346,-28.15c-7.673,-7.673 -20.286,-7.518 -28.15,0.345c-7.863,7.864 -8.018,20.478 -0.346,28.15c7.673,7.673 20.287,7.518 28.15,-0.345Z" style="fill:none;stroke:#8bc6f2;stroke-width:4.42px;"/><path d="M754.735,722.408l164.9,164.904" style="fill:none;fill-rule:nonzero;stroke:#8bc6f2;stroke-width:4.42px;"/><path d="M946.731,914.408l164.904,164.904" style="fill:none;fill-rule:nonzero;stroke:#8bc6f2;stroke-width:4.42px;"/><path d="M448.212,348.706c7.865,-7.865 8.02,-20.48 0.346,-28.154c-7.674,-7.674 -20.29,-7.519 -28.154,0.346c-7.865,7.865 -8.02,20.48 -0.346,28.154c7.674,7.674 20.289,7.519 28.154,-0.346Z" style="fill:none;stroke:#c1c8d3;stroke-width:4.42px;"/><path d="M638.688,539.179c7.864,-7.864 8.019,-20.478 0.346,-28.151c-7.672,-7.672 -20.286,-7.517 -28.151,0.347c-7.864,7.864 -8.019,20.478 -0.347,28.151c7.673,7.673 20.287,7.518 28.152,-0.347Z" style="fill:none;stroke:#c1c8d3;stroke-width:4.42px;"/><path d="M445.762,348.397l164.904,164.904" style="fill:none;fill-rule:nonzero;stroke:#c1c8d3;stroke-width:4.42px;"/><path d="M637.763,540.397l164.904,164.9" style="fill:none;fill-rule:nonzero;stroke:#c1c8d3;stroke-width:4.42px;"/><path d="M833.066,733.558c7.865,-7.864 8.019,-20.479 0.346,-28.152c-7.673,-7.673 -20.288,-7.518 -28.152,0.346c-7.864,7.864 -8.019,20.479 -0.346,28.152c7.674,7.673 20.288,7.518 28.152,-0.346Z" style="fill:none;stroke:#c1c8d3;stroke-width:4.42px;"/><path d="M1023.54,924.032c7.864,-7.864 8.019,-20.478 0.346,-28.15c-7.672,-7.673 -20.286,-7.518 -28.15,0.346c-7.863,7.863 -8.018,20.477 -0.346,28.15c7.673,7.672 20.287,7.517 28.15,-0.346Z" style="fill:none;stroke:#c1c8d3;stroke-width:4.42px;"/><path d="M830.618,733.248l164.904,164.904" style="fill:none;fill-rule:nonzero;stroke:#c1c8d3;stroke-width:4.42px;"/><path d="M1022.62,925.248l164.904,164.905" style="fill:none;fill-rule:nonzero;stroke:#c1c8d3;stroke-width:4.42px;"/><path d="M455.992,335.901c-0,-11.121 -8.81,-20.15 -19.661,-20.15c-10.85,-0 -19.66,9.029 -19.66,20.15c0,11.121 8.81,20.15 19.66,20.15c10.851,-0 19.661,-9.029 19.661,-20.15Z" style="fill:none;stroke:#e2e6ed;stroke-width:4.42px;"/><path d="M725.364,335.901c0,-11.121 -8.81,-20.15 -19.662,-20.15c-10.852,-0 -19.663,9.029 -19.663,20.15c0,11.121 8.811,20.15 19.663,20.15c10.852,-0 19.662,-9.029 19.662,-20.15Z" style="fill:none;stroke:#e2e6ed;stroke-width:4.42px;"/><path d="M454.043,337.415l233.212,-0" style="fill:none;fill-rule:nonzero;stroke:#e2e6ed;stroke-width:4.42px;"/><path d="M725.568,337.415l233.213,-0" style="fill:none;fill-rule:nonzero;stroke:#e2e6ed;stroke-width:4.42px;"/><path d="M1000.25,335.901c-0,-11.121 -8.81,-20.15 -19.661,-20.15c-10.85,-0 -19.66,9.029 -19.66,20.15c-0,11.121 8.81,20.15 19.66,20.15c10.851,-0 19.661,-9.029 19.661,-20.15Z" style="fill:none;stroke:#e2e6ed;stroke-width:4.42px;"/><path d="M1269.62,335.901c0,-11.121 -8.81,-20.15 -19.662,-20.15c-10.852,-0 -19.663,9.029 -19.663,20.15c0,11.121 8.811,20.15 19.663,20.15c10.852,-0 19.662,-9.029 19.662,-20.15Z" style="fill:none;stroke:#e2e6ed;stroke-width:4.42px;"/><path d="M998.306,337.415l233.208,-0" style="fill:none;fill-rule:nonzero;stroke:#e2e6ed;stroke-width:4.42px;"/><path d="M1269.83,337.415l233.213,-0" style="fill:none;fill-rule:nonzero;stroke:#e2e6ed;stroke-width:4.42px;"/><path d="M1255.02,1823.69c-1.546,-12.867 -13.484,-21.992 -26.725,-21.25c-13.23,0.8 -24.038,11.246 -24.084,24.2c-0.05,12.929 11.963,23.471 26.8,22.583c14.846,-0.842 25.563,-12.708 24.009,-25.533Z" style="fill:none;fill-rule:nonzero;stroke:#d77526;stroke-width:5.14px;"/><path d="M1558.35,1667.42c-9.708,-8.554 -24.717,-7.445 -34.092,1.938c-9.366,9.379 -10.441,24.396 -1.879,34.087c8.579,9.705 24.529,9.542 35.042,-0.979c10.508,-10.525 10.637,-26.487 0.929,-35.046Z" style="fill:none;fill-rule:nonzero;stroke:#d77526;stroke-width:5.14px;"/><path d="M1252.34,1822.21c49.875,-5.259 98.904,-18.471 144.65,-39.038c45.767,-20.533 88.229,-48.375 125.379,-82.075" style="fill:none;fill-rule:nonzero;stroke:#d77526;stroke-width:5.14px;"/><path d="M1557.22,1666.05c33.512,-37.317 61.125,-79.933 81.412,-125.8c20.329,-45.854 33.267,-94.958 38.275,-144.867" style="fill:none;fill-rule:nonzero;stroke:#d77526;stroke-width:5.14px;"/><path d="M1681.07,1341.93c-12.962,0.254 -23.25,11.221 -23.821,24.479c-0.529,13.25 8.8,25.038 21.68,26.379c12.858,1.346 24.537,-9.57 25.141,-24.42c0.634,-14.855 -10.083,-26.696 -23,-26.438Z" style="fill:none;fill-rule:nonzero;stroke:#d77526;stroke-width:5.14px;"/><path d="M1556.36,1024.34c-9.487,8.8 -9.887,23.837 -1.504,34.112c8.396,10.25 23.217,12.85 33.721,5.3c10.516,-7.55 11.971,-23.45 2.558,-34.962c-9.408,-11.517 -25.287,-13.246 -34.775,-4.45Z" style="fill:none;fill-rule:nonzero;stroke:#d77526;stroke-width:5.14px;"/><path d="M1679.32,1344.46c-0.238,-50.154 -8.342,-100.275 -24.138,-147.888c-15.762,-47.616 -39.15,-92.683 -68.946,-133.037" style="fill:none;fill-rule:nonzero;stroke:#d77526;stroke-width:5.14px;"/><path d="M1554.88,1025.33c-33.766,-37.091 -73.371,-68.862 -116.946,-93.708c-43.55,-24.892 -91.075,-42.787 -140.212,-52.842" style="fill:none;fill-rule:nonzero;stroke:#d77526;stroke-width:5.14px;"/><path d="M1885.22,508.26c-76.717,-15.217 -155.696,-15.15 -231.08,0.096c-75.4,15.142 -147.07,45.283 -209.866,87.508c-62.834,42.192 -116.759,96.442 -157.863,158.434c-41.2,61.958 -69.408,131.57 -83.375,203.487c-4.425,22.792 -26.487,37.688 -49.283,33.258c-22.792,-4.42 -37.688,-26.487 -33.258,-49.283c0.212,-1.096 0.462,-2.171 0.754,-3.229l0.108,-0.367c22.65,-80.937 61.171,-156.958 112.554,-222.054c51.296,-65.183 115.188,-119.462 186.413,-159.333c71.221,-39.921 149.75,-65.446 229.625,-74.846c79.858,-9.525 160.946,-2.75 237.021,18.85l0.05,0.017c2.041,0.579 3.22,2.7 2.641,4.745c-0.541,1.934 -2.496,3.096 -4.441,2.717" style="fill:#bfc8d2;fill-opacity:0.5;fill-rule:nonzero;"/><path d="M1606.55,332.995c-70.084,7.53 -138.971,26.292 -198.905,60.255c-29.941,16.891 -57.437,37.508 -81.566,61.266c-24.129,23.763 -44.875,50.629 -61.963,79.584c-34.283,57.979 -53.95,123.645 -63.187,190.529c-9.221,67.037 -8.354,135.521 -0.934,203.262c2.521,23.084 -14.137,43.85 -37.225,46.375c-23.083,2.529 -43.845,-14.133 -46.375,-37.216c-0.133,-1.242 -0.212,-2.471 -0.241,-3.696l-0,-0.188c-1.417,-73.666 4.254,-147.983 20.958,-220.45c16.675,-72.25 44.946,-143.037 88.7,-203.787c21.779,-30.325 47.367,-57.896 76.038,-81.446c28.67,-23.567 60.358,-43.063 93.708,-58.113c66.837,-30.258 139.312,-42.762 210.462,-44.033l0.05,0c2.117,-0.042 3.867,1.65 3.905,3.771c0.033,2 -1.48,3.671 -3.425,3.887" style="fill:#bfc8d2;fill-opacity:0.5;fill-rule:nonzero;"/><path d="M446.296,1662.14c6.845,-4.954 15.062,-6.667 22.733,-5.7c7.696,0.971 14.842,4.608 20.021,10.8c5.141,6.217 7.396,13.917 6.954,21.654c-0.463,7.717 -3.633,15.483 -9.758,21.304c-6.138,5.838 -14.159,8.542 -22.246,7.9c-8.079,-0.621 -16.213,-4.608 -22.079,-11.696c-5.9,-7.058 -8.321,-15.791 -7.459,-23.841c0.854,-8.075 4.975,-15.454 11.834,-20.421Z" style="fill:none;fill-rule:nonzero;stroke:#d77526;stroke-width:10.05px;"/><path d="M371.739,1254.67c8.158,2.255 14.596,7.596 18.658,14.192c4.013,6.608 5.696,14.479 4.054,22.379c-1.65,7.904 -6.216,14.479 -12.558,18.959c-6.3,4.462 -14.354,6.833 -22.746,5.683c-8.371,-1.142 -15.483,-5.708 -20.054,-12.433c-4.533,-6.688 -6.537,-15.538 -4.658,-24.546c1.862,-9.009 7.116,-16.363 13.966,-20.713c6.821,-4.383 15.188,-5.766 23.338,-3.521Z" style="fill:none;fill-rule:nonzero;stroke:#d77526;stroke-width:10.05px;"/><path d="M449.97,1663.28c-36.467,-49.554 -63.288,-106.187 -78.388,-165.842c-15.158,-59.625 -18.596,-122.22 -9.879,-183.129" style="fill:none;fill-rule:nonzero;stroke:#d77526;stroke-width:10.05px;"/><path d="M374.046,1254.97c16.275,-59.333 44.025,-115.529 81.558,-164.291c37.467,-48.809 84.588,-90.138 137.78,-121.067" style="fill:none;fill-rule:nonzero;stroke:#d77526;stroke-width:10.05px;"/><path d="M494.241,958.016l83.925,21.179l-35.03,79.15l148.317,-134.367l-197.212,34.038Z" style="fill:#d77526;fill-rule:nonzero;"/><path d="M525.82,960.673l146.617,-27.425l-85.171,41.512l-61.446,-14.087Z" style="fill:#272a31;fill-rule:nonzero;"/><path d="M1232.55,1683.71c-5.933,-4.53 -7.07,-13.017 -2.75,-19.105c4.321,-6.087 12.705,-7.821 18.938,-3.716c6.225,4.104 7.712,12.837 3.092,19.345c-4.621,6.513 -13.346,8 -19.28,3.475Z" style="fill:none;fill-rule:nonzero;stroke:#768293;stroke-width:4.43px;"/><path d="M1089.82,1809.68c-3.692,-6.479 -1.429,-14.746 4.933,-18.662c6.363,-3.913 14.758,-2.225 18.883,3.991c4.13,6.213 2.08,14.825 -4.716,19.009c-6.8,4.187 -15.404,2.15 -19.1,-4.338Z" style="fill:none;fill-rule:nonzero;stroke:#768293;stroke-width:4.43px;"/><path d="M1232.58,1681.99c-33.1,44.171 -74.021,82.446 -120.221,112.65" style="fill:none;fill-rule:nonzero;stroke:#768293;stroke-width:4.43px;"/><path d="M1089.18,1808.88c-47.821,27.566 -100.434,46.808 -154.775,56.508" style="fill:none;fill-rule:nonzero;stroke:#768293;stroke-width:4.43px;"/><path d="M904.641,1870.76c-0.804,-7.425 4.563,-14.079 11.95,-15.154c7.392,-1.063 14.421,3.825 15.742,11.179c1.316,7.329 -3.992,14.425 -11.892,15.559c-7.904,1.149 -14.996,-4.18 -15.8,-11.584Z" style="fill:none;fill-rule:nonzero;stroke:#768293;stroke-width:4.43px;"/><path d="M715.005,1854.02c2.166,-7.15 9.716,-11.183 16.933,-9.271c7.221,1.925 11.775,9.18 10.104,16.45c-1.666,7.271 -9.325,11.713 -17.041,9.659c-7.713,-2.046 -12.155,-9.709 -9.996,-16.838Z" style="fill:none;fill-rule:nonzero;stroke:#768293;stroke-width:4.43px;"/><path d="M905.899,1869.6c-54.821,6.45 -110.755,3.154 -164.463,-9.587" style="fill:none;fill-rule:nonzero;stroke:#768293;stroke-width:4.43px;"/><path d="M715.151,1853c-52.904,-15.725 -103.116,-40.55 -147.558,-73.296" style="fill:none;fill-rule:nonzero;stroke:#768293;stroke-width:4.43px;"/><path d="M589.72,1848.9l-11.342,-61.966l62.992,-0.738l-133.796,-57.587l82.146,120.291Z" style="fill:#768293;fill-rule:nonzero;"/><path d="M581.936,1827.19l-62.479,-88.795l53.233,43.85l9.246,44.945Z" style="fill:#272a31;fill-rule:nonzero;"/></g></svg>