<?xml version="1.0" encoding="UTF-8" standalone="no"?><!DOCTYPE svg PUBLIC "-//W3C//DTD SVG 1.1//EN" "http://www.w3.org/Graphics/SVG/1.1/DTD/svg11.dtd"><svg width="100%" height="100%" viewBox="0 0 2138 2134" version="1.1" xmlns="http://www.w3.org/2000/svg" xmlns:xlink="http://www.w3.org/1999/xlink" xml:space="preserve" xmlns:serif="http://www.serif.com/" style="fill-rule:evenodd;clip-rule:evenodd;stroke-linecap:round;stroke-linejoin:round;stroke-miterlimit:10;"><rect id="sm-seo" x="2.122" y="0" width="2133.33" height="2133.33" style="fill:none;"/><g id="bg-col-as-page" serif:id="bg col as page"></g><g id="SMSEO"><path d="M1326.19,1550.09c0,-25.547 -87.342,-46.288 -194.922,-46.288c-107.581,0 -194.923,20.741 -194.923,46.288c-0,25.546 87.342,46.287 194.923,46.287c107.58,0 194.922,-20.741 194.922,-46.287Z" style="fill:none;stroke:#768293;stroke-width:4.64px;"/><path d="M1412.95,1550.09c-0,-36.921 -126.219,-66.896 -281.686,-66.896c-155.466,-0 -281.685,29.975 -281.685,66.896c-0,36.92 126.219,66.895 281.685,66.895c155.467,0 281.686,-29.975 281.686,-66.895Z" style="fill:none;stroke:#c1c8d3;stroke-width:4.64px;"/><path d="M1538.34,1550.09c0,-53.355 -182.401,-96.671 -407.068,-96.671c-224.668,-0 -407.069,43.316 -407.069,96.671c-0,53.354 182.401,96.67 407.069,96.67c224.667,0 407.068,-43.316 407.068,-96.67Z" style="fill:none;stroke:#768293;stroke-width:4.64px;"/><path d="M1719.52,1550.09c0,-77.104 -263.587,-139.702 -588.254,-139.702c-324.666,-0 -588.254,62.598 -588.254,139.702c0,77.103 263.588,139.702 588.254,139.702c324.667,-0 588.254,-62.599 588.254,-139.702Z" style="fill:none;stroke:#c1c8d3;stroke-width:4.64px;"/><path d="M1981.37,1550.09c0,111.5 -380.608,201.887 -850.104,201.887c-469.487,0 -850.092,-90.387 -850.092,-201.887c0,-111.5 380.605,-201.888 850.092,-201.888c469.496,0 850.104,90.388 850.104,201.888Z" style="fill:none;fill-rule:nonzero;stroke:#8bc6f2;stroke-width:9.28px;"/><path d="M408.169,796.26c0.796,-10.9 -8.5,-20.475 -20.821,-20.941c-12.321,-0.479 -22.362,8.379 -22.354,19.312c0.004,10.942 9.321,19.825 20.846,20.279c11.525,0.43 21.533,-7.733 22.329,-18.65Z" style="fill:none;fill-rule:nonzero;stroke:#768293;stroke-width:6.5px;stroke-linecap:butt;stroke-linejoin:miter;"/><path d="M694.456,866.044c4.375,-10.012 -1.187,-22.125 -12.575,-26.679c-11.37,-4.575 -23.758,0.325 -27.525,10.587c-3.775,10.275 2.005,21.846 12.775,26.175c10.775,4.317 22.942,-0.045 27.325,-10.083Z" style="fill:none;fill-rule:nonzero;stroke:#768293;stroke-width:6.5px;stroke-linecap:butt;stroke-linejoin:miter;"/><path d="M406.13,794.637c85.413,5.796 169.817,24.538 249.996,54.388" style="fill:none;fill-rule:nonzero;stroke:#768293;stroke-width:6.5px;stroke-linecap:butt;stroke-linejoin:miter;"/><path d="M695.254,864.77c78.533,33.859 152.179,79.963 214.683,138.596" style="fill:none;fill-rule:nonzero;stroke:#768293;stroke-width:6.5px;stroke-linecap:butt;stroke-linejoin:miter;"/><path d="M941.881,1037.61c8.075,-7.379 7.841,-20.75 -0.85,-29.542c-8.692,-8.787 -22.055,-9.171 -29.53,-1.183c-7.475,7.987 -6.729,20.854 1.359,29.037c8.096,8.184 20.946,9.067 29.021,1.688Z" style="fill:none;fill-rule:nonzero;stroke:#768293;stroke-width:6.5px;stroke-linecap:butt;stroke-linejoin:miter;"/><path d="M1087.16,1292.64c10.475,-3.145 16.084,-15.258 12.117,-26.929c-3.958,-11.679 -15.8,-17.871 -26.017,-13.979c-10.229,3.896 -15.195,15.792 -11.495,26.721c3.72,10.925 14.912,17.337 25.395,14.187Z" style="fill:none;fill-rule:nonzero;stroke:#768293;stroke-width:6.5px;stroke-linecap:butt;stroke-linejoin:miter;"/><path d="M941.514,1035.02c58.513,62.579 103.892,137.158 133.605,217.446" style="fill:none;fill-rule:nonzero;stroke:#768293;stroke-width:6.5px;stroke-linecap:butt;stroke-linejoin:miter;"/><path d="M1088.65,1292.43c25.095,81.937 35.479,167.845 35.47,253.324" style="fill:none;fill-rule:nonzero;stroke:#768293;stroke-width:6.5px;stroke-linecap:butt;stroke-linejoin:miter;"/><path d="M1121.45,1479.97c15.6,-0.655 28.817,11.825 29.125,27.875c0.325,16.045 -12.333,29.041 -27.962,29.041c-15.629,-0.008 -28.304,-12.5 -28.617,-27.887c-0.296,-15.388 11.825,-28.371 27.454,-29.029Z" style="fill:none;fill-rule:nonzero;stroke:#c1c8d3;stroke-width:9.28px;stroke-linecap:butt;stroke-linejoin:miter;"/><path d="M1047.8,1098.81c14.537,-5.738 31.15,1.904 36.571,17.237c5.433,15.329 -2.671,31.704 -17.559,36.413c-14.916,4.716 -30.716,-3.213 -35.787,-17.521c-5.058,-14.313 2.237,-30.4 16.775,-36.129Z" style="fill:none;fill-rule:nonzero;stroke:#c1c8d3;stroke-width:9.28px;stroke-linecap:butt;stroke-linejoin:miter;"/><path d="M1123.68,1482.71c-4.15,-112.529 -20.629,-225.163 -55.392,-332.571" style="fill:none;fill-rule:nonzero;stroke:#c1c8d3;stroke-width:9.28px;stroke-linecap:butt;stroke-linejoin:miter;"/><path d="M1049.67,1097.76c-20.405,-52.571 -45.592,-103.346 -75.767,-151.033c-30.138,-47.688 -65.254,-92.263 -104.742,-132.567" style="fill:none;fill-rule:nonzero;stroke:#c1c8d3;stroke-width:9.28px;stroke-linecap:butt;stroke-linejoin:miter;"/><path d="M822.874,773.364c10.205,-11.833 28.525,-12.737 40.463,-1.516c11.946,11.204 12.192,29.558 1.025,40.479c-11.179,10.933 -28.783,11.07 -39.767,0.77c-10.975,-10.312 -11.937,-27.9 -1.721,-39.733Z" style="fill:none;fill-rule:nonzero;stroke:#c1c8d3;stroke-width:9.28px;stroke-linecap:butt;stroke-linejoin:miter;"/><path d="M481.68,590.885c4.308,-15.02 20.437,-23.558 35.887,-18.579c15.454,4.975 23.571,21.342 18.288,36.042c-5.288,14.717 -21.167,22.483 -35.65,17.825c-14.471,-4.671 -22.838,-20.267 -18.525,-35.288Z" style="fill:none;fill-rule:nonzero;stroke:#8bc6f2;stroke-width:9.28px;stroke-linecap:butt;stroke-linejoin:miter;"/><path d="M826.398,773.625c-84.712,-74.742 -185.15,-130.592 -291.496,-167.863" style="fill:none;fill-rule:nonzero;stroke:#8bc6f2;stroke-width:9.28px;stroke-linecap:butt;stroke-linejoin:miter;"/><path d="M481.985,588.758c-108.317,-31.58 -221.275,-46.009 -333.954,-46.067" style="fill:none;fill-rule:nonzero;stroke:#8bc6f2;stroke-width:9.28px;stroke-linecap:butt;stroke-linejoin:miter;"/><path d="M1122.5,1507.52c-7.81,0.043 -14.118,6.022 -14.078,13.343c0.04,7.32 6.414,13.229 14.225,13.186c7.81,-0.043 14.118,-6.022 14.078,-13.343c-0.041,-7.321 -6.414,-13.229 -14.225,-13.186Z" style="fill:none;stroke:#8bc6f2;stroke-width:4.64px;stroke-linecap:butt;stroke-linejoin:miter;"/><path d="M1114.26,1326.56c-7.79,0.602 -13.657,7.021 -13.092,14.326c0.564,7.305 7.347,12.747 15.137,12.145c7.791,-0.602 13.657,-7.021 13.092,-14.326c-0.564,-7.305 -7.347,-12.747 -15.137,-12.145Z" style="fill:none;stroke:#8bc6f2;stroke-width:4.64px;stroke-linecap:butt;stroke-linejoin:miter;"/><path d="M1123.55,1508.85c-0.517,-52.3 -2.529,-104.592 -6.283,-156.762" style="fill:none;fill-rule:nonzero;stroke:#8bc6f2;stroke-width:4.64px;stroke-linecap:butt;stroke-linejoin:miter;"/><path d="M1115.27,1326.39c-4.359,-52.125 -10.509,-104.109 -18.8,-155.763" style="fill:none;fill-rule:nonzero;stroke:#8bc6f2;stroke-width:4.64px;stroke-linecap:butt;stroke-linejoin:miter;"/><path d="M1090.71,1142.5c-7.704,1.301 -12.968,8.229 -11.746,15.46c1.221,7.231 8.467,12.045 16.172,10.744c7.704,-1.301 12.968,-8.229 11.746,-15.46c-1.221,-7.231 -8.468,-12.045 -16.172,-10.744Z" style="fill:none;stroke:#8bc6f2;stroke-width:4.64px;stroke-linecap:butt;stroke-linejoin:miter;"/><path d="M1049.84,966.076c-7.517,2.127 -11.997,9.589 -9.998,16.653c1.998,7.064 9.724,11.073 17.241,8.946c7.517,-2.127 11.997,-9.589 9.999,-16.653c-1.999,-7.065 -9.725,-11.073 -17.242,-8.946Z" style="fill:none;stroke:#8bc6f2;stroke-width:4.64px;stroke-linecap:butt;stroke-linejoin:miter;"/><path d="M1091.94,1143.68c-9.05,-51.521 -20.295,-102.679 -34.129,-153.133" style="fill:none;fill-rule:nonzero;stroke:#8bc6f2;stroke-width:4.64px;stroke-linecap:butt;stroke-linejoin:miter;"/><path d="M1050.78,965.739c-14.709,-50.209 -32.038,-99.675 -52.442,-147.859" style="fill:none;fill-rule:nonzero;stroke:#8bc6f2;stroke-width:4.64px;stroke-linecap:butt;stroke-linejoin:miter;"/><path d="M985.942,791.945c-7.157,3.133 -10.574,11.145 -7.625,17.88c2.948,6.735 11.152,9.66 18.309,6.527c7.157,-3.133 10.573,-11.144 7.625,-17.88c-2.948,-6.735 -11.152,-9.66 -18.309,-6.527Z" style="fill:none;stroke:#8bc6f2;stroke-width:4.64px;stroke-linecap:butt;stroke-linejoin:miter;"/><path d="M898.651,633.385c-6.557,4.243 -8.633,12.706 -4.633,18.888c4.001,6.181 12.572,7.755 19.129,3.511c6.557,-4.243 8.632,-12.706 4.632,-18.888c-4,-6.181 -12.571,-7.755 -19.128,-3.511Z" style="fill:none;stroke:#8bc6f2;stroke-width:4.64px;stroke-linecap:butt;stroke-linejoin:miter;"/><path d="M987.417,792.826c-21.454,-47.721 -46.021,-94.079 -73.942,-138.35" style="fill:none;fill-rule:nonzero;stroke:#8bc6f2;stroke-width:4.64px;stroke-linecap:butt;stroke-linejoin:miter;"/><path d="M899.453,632.829c-29.017,-43.554 -61.408,-84.888 -97.096,-123.184" style="fill:none;fill-rule:nonzero;stroke:#8bc6f2;stroke-width:4.64px;stroke-linecap:butt;stroke-linejoin:miter;"/><path d="M781.749,489.738c5.533,-5.513 14.279,-5.717 19.429,-0.358c5.163,5.35 4.638,14.079 -1.083,19.404c-5.717,5.329 -14.313,5.383 -19.296,0.229c-4.967,-5.167 -4.583,-13.758 0.95,-19.275Z" style="fill:none;fill-rule:nonzero;stroke:#8bc6f2;stroke-width:4.64px;stroke-linecap:butt;stroke-linejoin:miter;"/><path d="M642.092,374.821c4.304,-6.517 12.825,-8.471 18.967,-4.263c6.133,4.204 7.371,12.863 2.837,19.229c-4.533,6.363 -12.941,8.155 -18.85,4.101c-5.908,-4.05 -7.258,-12.542 -2.954,-19.067Z" style="fill:none;fill-rule:nonzero;stroke:#8bc6f2;stroke-width:4.64px;stroke-linecap:butt;stroke-linejoin:miter;"/><path d="M783.425,489.925c-36.796,-37.233 -76.833,-71.258 -119.579,-101.479" style="fill:none;fill-rule:nonzero;stroke:#8bc6f2;stroke-width:4.64px;stroke-linecap:butt;stroke-linejoin:miter;"/><path d="M642.564,373.861c-43.608,-28.963 -89.787,-54.029 -137.787,-74.904" style="fill:none;fill-rule:nonzero;stroke:#8bc6f2;stroke-width:4.64px;stroke-linecap:butt;stroke-linejoin:miter;"/><path d="M477.936,288.932c2.867,-7.267 10.804,-10.946 17.671,-8.087c6.871,2.845 9.871,11.058 6.754,18.225c-3.121,7.162 -10.979,10.654 -17.596,7.904c-6.621,-2.75 -9.7,-10.771 -6.829,-18.042Z" style="fill:none;fill-rule:nonzero;stroke:#8bc6f2;stroke-width:4.64px;stroke-linecap:butt;stroke-linejoin:miter;"/><path d="M304.112,238.9c1.396,-7.688 8.458,-12.834 15.75,-11.384c7.292,1.45 11.842,8.913 10.187,16.55c-1.658,7.634 -8.679,12.6 -15.712,11.2c-7.033,-1.4 -11.621,-8.675 -10.225,-16.366Z" style="fill:none;fill-rule:nonzero;stroke:#8bc6f2;stroke-width:4.64px;stroke-linecap:butt;stroke-linejoin:miter;"/><path d="M479.547,288.428c-48.608,-19.421 -98.879,-34.658 -150.075,-45.575" style="fill:none;fill-rule:nonzero;stroke:#8bc6f2;stroke-width:4.64px;stroke-linecap:butt;stroke-linejoin:miter;"/><path d="M304.169,237.834c-51.475,-9.45 -103.775,-14.654 -156.142,-14.692" style="fill:none;fill-rule:nonzero;stroke:#8bc6f2;stroke-width:4.64px;stroke-linecap:butt;stroke-linejoin:miter;"/><path d="M1153.95,1500.58c4.6,18.767 -6.896,37.704 -25.663,42.292c-18.762,4.6 -37.7,-6.888 -42.304,-25.659c-4.588,-18.762 6.908,-37.7 25.671,-42.291c18.766,-4.596 37.704,6.891 42.296,25.658" style="fill:#272a31;fill-rule:nonzero;"/><path d="M1153.96,1500.58c-4.589,-18.755 -23.545,-30.254 -42.303,-25.664c-18.757,4.591 -30.26,23.544 -25.67,42.299c4.59,18.754 23.545,30.254 42.303,25.663c18.757,-4.591 30.26,-23.544 25.67,-42.298Z" style="fill:none;stroke:#d77526;stroke-width:8.33px;stroke-linecap:butt;stroke-linejoin:miter;"/><path d="M1166.86,1564.42c-10.816,-112.154 0.438,-227.525 34.221,-337.017c33.621,-109.533 89.479,-213.075 163.65,-302.658c74.104,-89.625 166.525,-165.288 271.008,-220.504c104.38,-55.359 220.792,-89.909 340.009,-100.942l0.412,-0.038c32.938,-3.045 62.121,21.184 65.171,54.125c3.05,32.942 -21.192,62.117 -54.125,65.159c-1.587,0.15 -3.287,0.233 -4.858,0.254c-104.354,1.171 -209.15,22.9 -306.521,64.796c-97.396,41.754 -187.229,103.446 -262.438,180.712c-75.25,77.2 -135.825,169.938 -176.337,271.734c-40.658,101.75 -60.958,212.42 -59.271,323.845c0.05,3.021 -2.362,5.509 -5.387,5.555c-2.863,0.045 -5.25,-2.125 -5.525,-4.93l-0.009,-0.091Z" style="fill:#bfc8d2;fill-opacity:0.5;fill-rule:nonzero;"/><path d="M1184.42,1543.75c6.592,-85.1 30.079,-169.712 69.6,-246.996c39.409,-77.337 94.625,-147.291 161.688,-204.446c67.012,-57.183 145.871,-101.554 231.041,-129.091c85.125,-27.663 176.505,-38.217 266.905,-30.863l0.316,0.025c24.975,2.029 43.579,23.929 41.546,48.904c-2.029,24.975 -23.929,43.579 -48.904,41.546c-1.196,-0.1 -2.475,-0.258 -3.646,-0.446c-78.025,-12.77 -159.067,-10.262 -237.2,8.271c-78.133,18.417 -153.229,52.704 -219.45,100.521c-66.242,47.771 -123.571,109.046 -167.108,179.708c-43.642,70.613 -73.263,150.534 -86.567,233.9c-0.358,2.259 -2.487,3.8 -4.746,3.438c-2.146,-0.342 -3.641,-2.271 -3.483,-4.396l0.008,-0.075Z" style="fill:#bfc8d2;fill-opacity:0.5;fill-rule:nonzero;"/><path d="M1069.44,1529.75c-22.475,-63.375 -57.229,-121.696 -101.621,-170.696c-44.321,-49.05 -98.083,-88.763 -156.875,-116.596c-58.783,-27.888 -122.562,-43.883 -186.425,-47.013c-63.883,-3.22 -127.717,6.53 -186.987,27.817c-18.788,6.746 -39.488,-3.012 -46.234,-21.8c-6.746,-18.783 3.017,-39.487 21.8,-46.233c0.9,-0.321 1.813,-0.609 2.721,-0.859l0.317,-0.083c69.75,-18.829 142.846,-23.771 213.525,-14.412c70.7,9.25 138.879,32.608 199.637,67.712c60.792,35.071 114.159,81.879 156.204,136.758c42.134,54.821 72.759,117.705 90.23,183.409l0.012,0.041c0.467,1.763 -0.583,3.575 -2.346,4.038c-1.666,0.446 -3.383,-0.488 -3.958,-2.083" style="fill:#bfc8d2;fill-opacity:0.5;fill-rule:nonzero;"/></g></svg>