<?xml version="1.0" encoding="UTF-8" standalone="no"?><!DOCTYPE svg PUBLIC "-//W3C//DTD SVG 1.1//EN" "http://www.w3.org/Graphics/SVG/1.1/DTD/svg11.dtd"><svg width="100%" height="100%" viewBox="0 0 2138 2134" version="1.1" xmlns="http://www.w3.org/2000/svg" xmlns:xlink="http://www.w3.org/1999/xlink" xml:space="preserve" xmlns:serif="http://www.serif.com/" style="fill-rule:evenodd;clip-rule:evenodd;stroke-miterlimit:10;"><rect id="UX" x="0.319" y="0" width="2133.33" height="2133.33" style="fill:none;"/><g id="bg-col-as-page" serif:id="bg col as page"></g><g id="UED"><path d="M1845.16,502.543c79.512,101.284 139.767,219.267 174.721,345.467c35.129,126.146 45.158,260.221 28.966,392.15c-16.1,131.925 -58.441,261.7 -124.979,379.221c-66.358,117.6 -157.116,222.571 -265.075,306.654l-0.371,0.292c-29.825,23.229 -72.837,17.883 -96.07,-11.942c-23.23,-29.825 -17.884,-72.838 11.945,-96.067c1.434,-1.116 3.021,-2.245 4.513,-3.229c99.733,-65.433 187.2,-150.912 255.112,-251.237c68.021,-100.2 116.471,-214.929 141.25,-335.638c24.859,-120.675 26.03,-247.258 2.3,-370.2c-23.562,-122.991 -72.216,-242.021 -142.495,-348.229c-1.909,-2.875 -1.117,-6.758 1.762,-8.662c2.729,-1.809 6.358,-1.192 8.354,1.333l0.067,0.087Z" style="fill:#bfc8d2;fill-opacity:0.5;fill-rule:nonzero;"/><path d="M213.075,1153.9c-30.634,-98.304 -42.125,-203.608 -32.367,-307.867c9.604,-104.258 40.221,-207.32 89.829,-301.316c49.538,-94.021 118.071,-178.967 201.213,-247.884c83.025,-69.029 180.696,-121.679 285.283,-153.829l0.363,-0.116c28.895,-8.88 59.52,7.341 68.404,36.237c8.883,28.896 -7.342,59.521 -36.238,68.404c-1.387,0.425 -2.896,0.821 -4.291,1.129c-93.138,20.55 -182.809,59.567 -262.084,115.242c-79.321,55.55 -148.15,127.525 -200.983,210.692c-52.883,83.121 -89.742,177.396 -106.958,276.025c-17.355,98.616 -14.834,201.408 7.5,300.762c0.608,2.696 -1.084,5.371 -3.78,5.975c-2.558,0.575 -5.095,-0.921 -5.866,-3.371l-0.025,-0.083Z" style="fill:#bfc8d2;fill-opacity:0.5;fill-rule:nonzero;"/><path d="M1449.34,1635.1c-6.892,-9.825 -9.121,-21.5 -7.604,-32.362c1.558,-10.871 6.841,-20.967 15.758,-28.142c8.908,-7.183 19.888,-10.208 30.846,-9.412c10.933,0.816 21.867,5.475 30.008,14.3c8.134,8.812 11.804,20.245 10.721,31.708c-1.05,11.446 -6.896,22.875 -17.05,31.062c-10.162,8.188 -22.571,11.467 -33.975,10.059c-11.429,-1.375 -21.817,-7.396 -28.704,-17.213Z" style="fill:none;fill-rule:nonzero;stroke:#d77526;stroke-width:14.25px;"/><path d="M869.947,1732.12c3.371,-11.525 11.092,-20.563 20.521,-26.15c9.467,-5.596 20.646,-7.746 31.825,-5.287c11.175,2.491 20.396,9.154 26.621,18.216c6.187,9.05 9.379,20.496 7.575,32.367c-1.804,11.85 -8.438,21.862 -18.063,28.175c-9.591,6.321 -22.175,8.921 -34.908,6.083c-12.746,-2.796 -23.05,-10.471 -29.079,-20.237c-6.058,-9.792 -7.854,-21.659 -4.492,-33.167Z" style="fill:none;fill-rule:nonzero;stroke:#d77526;stroke-width:14.25px;"/><path d="M1451.03,1629.91c-71.03,50.683 -151.938,87.467 -236.842,107.617c-84.875,20.254 -173.708,23.737 -259.896,10.1" style="fill:none;fill-rule:nonzero;stroke:#d77526;stroke-width:14.25px;"/><path d="M870.411,1728.86c-83.775,-24.396 -162.879,-64.913 -231.216,-119.188c-68.413,-54.171 -126.009,-121.879 -168.734,-197.962" style="fill:none;fill-rule:nonzero;stroke:#d77526;stroke-width:14.25px;"/><path d="M451.906,1552.05l31.825,-118.55l111.491,51.354l-187.366,-213.184l44.05,280.38Z" style="fill:#d77526;fill-rule:nonzero;"/><path d="M456.345,1507.32l-35.759,-208.496l57.046,121.663l-21.287,86.833Z" style="fill:#272a31;fill-rule:nonzero;"/><path d="M1496.73,520.617c-6.546,8.317 -18.604,9.759 -27.15,3.5c-8.534,-6.262 -10.813,-18.183 -4.863,-26.933c5.95,-8.746 18.367,-10.671 27.5,-3.975c9.134,6.692 11.054,19.1 4.513,27.409Z" style="fill:none;fill-rule:nonzero;stroke:#768293;stroke-width:6.28px;"/><path d="M1672.31,725.72c-9.267,5.096 -20.942,1.709 -26.359,-7.391c-5.412,-9.109 -2.833,-20.975 6.063,-26.696c8.9,-5.721 21.066,-2.633 26.854,7.096c5.787,9.729 2.717,21.891 -6.558,26.991Z" style="fill:none;fill-rule:nonzero;stroke:#768293;stroke-width:6.28px;"/><path d="M1494.29,520.552c61.925,47.888 115.33,106.721 157.167,172.88" style="fill:none;fill-rule:nonzero;stroke:#768293;stroke-width:6.28px;"/><path d="M1671.16,726.603c38.067,68.396 64.229,143.413 76.813,220.675" style="fill:none;fill-rule:nonzero;stroke:#768293;stroke-width:6.28px;"/><path d="M1754.97,989.608c-10.55,0.983 -19.866,-6.771 -21.237,-17.275c-1.342,-10.5 5.733,-20.363 16.187,-22.075c10.425,-1.708 20.375,5.967 21.813,17.2c1.462,11.225 -6.246,21.171 -16.763,22.15Z" style="fill:none;fill-rule:nonzero;stroke:#768293;stroke-width:6.28px;"/><path d="M1727.16,1258.15c-10.092,-3.221 -15.65,-14.012 -12.783,-24.216c2.883,-10.192 13.262,-16.492 23.541,-13.967c10.271,2.512 16.409,13.471 13.329,24.367c-3.066,10.895 -14.025,17.029 -24.087,13.816Z" style="fill:none;fill-rule:nonzero;stroke:#768293;stroke-width:6.28px;"/><path d="M1753.34,987.797c7.975,77.875 2.104,157.125 -17.109,233.008" style="fill:none;fill-rule:nonzero;stroke:#768293;stroke-width:6.28px;"/><path d="M1725.73,1257.93c-23.421,74.688 -59.68,145.371 -107.088,207.675" style="fill:none;fill-rule:nonzero;stroke:#768293;stroke-width:6.28px;"/><path d="M1717.23,1435.69l-88.116,14.767l0.304,-89.342l-84.517,188.496l172.329,-113.921Z" style="fill:#768293;fill-rule:nonzero;"/><path d="M1686.28,1446.27l-127.246,86.7l63.316,-74.55l63.93,-12.15Z" style="fill:#272a31;fill-rule:nonzero;"/><path d="M399.558,1218.85c-6.22,1.701 -9.919,8.022 -8.255,14.105c1.664,6.083 8.065,9.641 14.285,7.94c6.22,-1.702 9.919,-8.022 8.256,-14.105c-1.664,-6.084 -8.065,-9.641 -14.286,-7.94Z" style="fill:none;stroke:#8bc6f2;stroke-width:3.83px;"/><path d="M378.638,1065.72c-6.444,0.245 -11.481,5.562 -11.241,11.867c0.239,6.304 5.665,11.224 12.109,10.979c6.443,-0.245 11.48,-5.562 11.241,-11.866c-0.24,-6.305 -5.666,-11.225 -12.109,-10.98Z" style="fill:none;stroke:#8bc6f2;stroke-width:3.83px;"/><path d="M400.811,1219.81c-11.129,-43.221 -17.979,-87.55 -20.379,-132.117" style="fill:none;fill-rule:nonzero;stroke:#8bc6f2;stroke-width:3.83px;"/><path d="M379.614,1065.71c-0.946,-44.62 2.579,-89.333 10.483,-133.262" style="fill:none;fill-rule:nonzero;stroke:#8bc6f2;stroke-width:3.83px;"/><path d="M393.923,908.156c-6.322,-1.264 -12.459,2.733 -13.695,8.919c-1.236,6.185 2.894,12.233 9.216,13.497c6.323,1.263 12.459,-2.734 13.695,-8.919c1.236,-6.186 -2.893,-12.234 -9.216,-13.497Z" style="fill:none;stroke:#8bc6f2;stroke-width:3.83px;"/><path d="M443.641,761.816c-5.882,-2.651 -12.762,-0.135 -15.354,5.616c-2.592,5.75 0.079,12.571 5.96,15.223c5.882,2.651 12.762,0.134 15.354,-5.616c2.592,-5.751 -0.079,-12.572 -5.96,-15.223Z" style="fill:none;stroke:#8bc6f2;stroke-width:3.83px;"/><path d="M394.618,909.583c9.425,-43.63 23.129,-86.334 40.841,-127.3" style="fill:none;fill-rule:nonzero;stroke:#8bc6f2;stroke-width:3.83px;"/><path d="M444.516,762.235c19.013,-40.379 42.021,-78.883 68.633,-114.712" style="fill:none;fill-rule:nonzero;stroke:#8bc6f2;stroke-width:3.83px;"/><path d="M527.385,627.468c-5.105,-3.946 -12.382,-3.096 -16.239,1.896c-3.858,4.992 -2.845,12.247 2.26,16.193c5.105,3.945 12.382,3.096 16.239,-1.896c3.858,-4.992 2.845,-12.248 -2.26,-16.193Z" style="fill:none;stroke:#8bc6f2;stroke-width:3.83px;"/><path d="M637.155,518.685c-4.074,-5.005 -11.354,-5.834 -16.246,-1.851c-4.893,3.983 -5.557,11.279 -1.483,16.284c4.075,5.004 11.354,5.834 16.247,1.851c4.892,-3.983 5.556,-11.28 1.482,-16.284Z" style="fill:none;stroke:#8bc6f2;stroke-width:3.83px;"/><path d="M527.359,629.045c27.829,-34.896 59.154,-66.996 93.329,-95.705" style="fill:none;fill-rule:nonzero;stroke:#8bc6f2;stroke-width:3.83px;"/><path d="M637.754,519.458c35.087,-27.588 72.912,-51.692 112.716,-71.875" style="fill:none;fill-rule:nonzero;stroke:#8bc6f2;stroke-width:3.83px;"/><path d="M772.156,435.991c-2.805,-5.809 -9.694,-8.297 -15.375,-5.554c-5.681,2.744 -8.016,9.686 -5.211,15.494c2.805,5.809 9.694,8.297 15.375,5.554c5.681,-2.744 8.016,-9.686 5.211,-15.494Z" style="fill:none;stroke:#8bc6f2;stroke-width:3.83px;"/><path d="M918.87,387.409c-1.425,-6.292 -7.576,-10.269 -13.727,-8.877c-6.152,1.393 -9.99,7.632 -8.565,13.924c1.424,6.292 7.575,10.269 13.727,8.876c6.152,-1.393 9.99,-7.632 8.565,-13.923Z" style="fill:none;stroke:#8bc6f2;stroke-width:3.83px;"/><path d="M771.437,437.394c40.471,-18.816 82.8,-33.646 126.171,-44.187" style="fill:none;fill-rule:nonzero;stroke:#8bc6f2;stroke-width:3.83px;"/><path d="M919.064,388.363c43.688,-9.13 88.284,-13.925 132.917,-14.255" style="fill:none;fill-rule:nonzero;stroke:#8bc6f2;stroke-width:3.83px;"/><path d="M1076.43,373.495c-0.208,6.458 -5.329,11.508 -11.441,11.445c-6.113,-0.075 -11.113,-5.275 -11.163,-11.729c-0.05,-6.441 5.075,-11.708 11.446,-11.625c6.371,0.059 11.363,5.471 11.158,11.909Z" style="fill:none;fill-rule:nonzero;stroke:#8bc6f2;stroke-width:3.83px;"/><path d="M1229.51,395.563c1.541,-6.263 -2.18,-12.572 -8.306,-14.079c-6.125,-1.506 -12.349,2.355 -13.89,8.619c-1.541,6.263 2.181,12.572 8.306,14.079c6.126,1.507 12.35,-2.355 13.89,-8.619Z" style="fill:none;stroke:#8bc6f2;stroke-width:3.83px;"/><path d="M1075.29,374.341c44.617,1.208 89.108,6.891 132.604,16.9" style="fill:none;fill-rule:nonzero;stroke:#8bc6f2;stroke-width:3.83px;"/><path d="M1229.25,396.505c43.15,11.408 85.175,27.058 125.308,46.591" style="fill:none;fill-rule:nonzero;stroke:#8bc6f2;stroke-width:3.83px;"/><path d="M1311.87,364.364l28.034,72.45l-76.134,15.416l175.35,38.896l-127.25,-126.762Z" style="fill:#8bc6f2;fill-rule:nonzero;"/><path d="M1326.31,388.867l96.159,93.142l-74.592,-40.834l-21.567,-52.308Z" style="fill:#272a31;fill-rule:nonzero;"/><path d="M583.219,1106.27c8.412,-0.762 16.354,1.975 22.45,6.717c6.116,4.771 10.4,11.554 11.687,19.521c1.242,7.971 -0.754,15.742 -5.087,22.162c-4.346,6.4 -11.038,11.45 -19.28,13.325c-8.258,1.884 -16.533,0.109 -23.158,-4.579c-6.629,-4.658 -11.579,-12.25 -13,-21.333c-1.462,-9.083 0.925,-17.829 5.775,-24.304c4.867,-6.509 12.175,-10.742 20.613,-11.509Z" style="fill:none;fill-rule:nonzero;stroke:#d77526;stroke-width:10.05px;"/><path d="M727.4,717.948c5.862,6.109 8.662,13.988 8.783,21.734c0.071,7.733 -2.504,15.354 -7.954,21.308c-5.458,5.95 -12.742,9.271 -20.488,9.875c-7.695,0.617 -15.825,-1.463 -22.454,-6.738c-6.608,-5.262 -10.387,-12.824 -10.879,-20.937c-0.479,-8.071 2.321,-16.7 8.542,-23.479c6.208,-6.792 14.483,-10.429 22.591,-10.667c8.1,-0.279 16,2.804 21.859,8.904Z" style="fill:none;fill-rule:nonzero;stroke:#d77526;stroke-width:10.05px;"/><path d="M585.792,1109.13c-6.012,-61.229 -0.121,-123.617 17.392,-182.604c17.446,-59 46.483,-114.555 85.112,-162.45" style="fill:none;fill-rule:nonzero;stroke:#d77526;stroke-width:10.05px;"/><path d="M729.233,719.381c44.317,-42.679 96.892,-76.796 154.075,-99.521c57.15,-22.8 118.775,-34.242 180.3,-33.638" style="fill:none;fill-rule:nonzero;stroke:#d77526;stroke-width:10.05px;"/><path d="M984.321,525.586l61.308,61.1l-70.558,50.125l196.154,-39.679l-186.904,-71.546Z" style="fill:#d77526;fill-rule:nonzero;"/><path d="M1010.11,544.006l140.038,51.371l-94.425,-7.854l-45.613,-43.517Z" style="fill:#272a31;fill-rule:nonzero;"/><path d="M1247.99,1526.7c-2.787,-6.925 0.571,-14.809 7.396,-17.83c6.825,-3.02 14.912,-0.229 18.175,6.484c3.258,6.712 0.071,14.979 -7.229,18.208c-7.3,3.238 -15.563,0.054 -18.342,-6.862Z" style="fill:none;fill-rule:nonzero;stroke:#768293;stroke-width:4.43px;"/><path d="M1060.91,1562.02c0.142,-7.454 6.309,-13.409 13.779,-13.521c7.471,-0.112 13.821,5.629 14.192,13.088c0.371,7.445 -5.792,13.8 -13.771,13.92c-7.983,0.125 -14.341,-6.025 -14.2,-13.487Z" style="fill:none;fill-rule:nonzero;stroke:#768293;stroke-width:4.43px;"/><path d="M1248.89,1525.23c-51.033,21.046 -105.762,33.033 -160.908,35.375" style="fill:none;fill-rule:nonzero;stroke:#768293;stroke-width:4.43px;"/><path d="M1060.78,1561c-55.192,-0.75 -110.246,-11.1 -161.908,-30.541" style="fill:none;fill-rule:nonzero;stroke:#768293;stroke-width:4.43px;"/><path d="M870.534,1519.87c3.104,-6.796 11.112,-9.771 18.016,-6.917c6.896,2.863 10.442,10.655 7.817,17.65c-2.617,6.975 -10.804,10.363 -18.179,7.296c-7.379,-3.05 -10.75,-11.254 -7.654,-18.029Z" style="fill:none;fill-rule:nonzero;stroke:#768293;stroke-width:4.43px;"/><path d="M716.098,1408.54c5.517,-5.042 14.067,-4.646 19.296,0.687c5.221,5.342 5.425,13.905 0.275,19.3c-5.15,5.4 -14.004,5.3 -19.583,-0.408c-5.584,-5.7 -5.488,-14.554 0.012,-19.579Z" style="fill:none;fill-rule:nonzero;stroke:#768293;stroke-width:4.43px;"/><path d="M872.21,1519.5c-50.417,-22.479 -96.809,-53.9 -136.459,-92.3" style="fill:none;fill-rule:nonzero;stroke:#768293;stroke-width:4.43px;"/><path d="M716.743,1407.74c-37.433,-40.562 -67.9,-87.562 -89.362,-138.425" style="fill:none;fill-rule:nonzero;stroke:#768293;stroke-width:4.43px;"/><path d="M611.032,1340.1l21.925,-59.058l54.517,31.566l-85.563,-117.887l9.121,145.379Z" style="fill:#768293;fill-rule:nonzero;"/><path d="M615.435,1317.46l-8.317,-108.25l23.342,64.896l-15.025,43.354Z" style="fill:#272a31;fill-rule:nonzero;"/><path d="M1206.43,610.613c1.145,-4.401 -1.42,-8.883 -5.723,-10.003c-4.304,-1.119 -8.727,1.545 -9.872,5.946c-1.145,4.401 1.42,8.882 5.723,10.002c4.304,1.119 8.727,-1.545 9.872,-5.945Z" style="fill:none;stroke:#8bc6f2;stroke-width:2.7px;"/><path d="M1307.4,651.6c2.113,-4.025 0.632,-8.971 -3.306,-11.039c-3.939,-2.067 -8.851,-0.477 -10.965,3.548c-2.113,4.025 -0.631,8.972 3.307,11.039c3.938,2.067 8.851,0.478 10.964,-3.548Z" style="fill:none;stroke:#8bc6f2;stroke-width:2.7px;"/><path d="M1205.4,611.039c30.337,8.379 59.846,19.754 87.941,33.942" style="fill:none;fill-rule:nonzero;stroke:#8bc6f2;stroke-width:2.7px;"/><path d="M1307.07,652.201c27.617,15.096 53.721,32.954 77.8,53.217" style="fill:none;fill-rule:nonzero;stroke:#8bc6f2;stroke-width:2.7px;"/><path d="M1398.38,716.29c2.994,-3.422 2.708,-8.578 -0.639,-11.507c-3.347,-2.928 -8.496,-2.527 -11.49,0.895c-2.994,3.422 -2.708,8.578 0.639,11.507c3.347,2.928 8.495,2.527 11.49,-0.895Z" style="fill:none;stroke:#8bc6f2;stroke-width:2.7px;"/><path d="M1470.39,798.088c3.688,-2.665 4.567,-7.755 1.962,-11.36c-2.605,-3.605 -7.714,-4.368 -11.402,-1.703c-3.688,2.665 -4.567,7.756 -1.962,11.361c2.605,3.605 7.714,4.368 11.402,1.702Z" style="fill:none;stroke:#8bc6f2;stroke-width:2.7px;"/><path d="M1397.27,716.215c23.362,21.087 44.658,44.467 63.487,69.683" style="fill:none;fill-rule:nonzero;stroke:#8bc6f2;stroke-width:2.7px;"/><path d="M1469.83,798.478c18.013,25.804 33.471,53.396 46.034,82.255" style="fill:none;fill-rule:nonzero;stroke:#8bc6f2;stroke-width:2.7px;"/><path d="M1523.13,896.482c4.204,-1.735 6.239,-6.483 4.542,-10.597c-1.697,-4.114 -6.489,-6.045 -10.693,-4.31c-4.205,1.735 -6.24,6.483 -4.543,10.597c1.698,4.113 6.489,6.045 10.694,4.31Z" style="fill:none;stroke:#8bc6f2;stroke-width:2.7px;"/><path d="M1551.08,1001.81c4.491,-0.735 7.554,-4.896 6.836,-9.287c-0.718,-4.391 -4.946,-7.36 -9.437,-6.626c-4.491,0.734 -7.554,4.896 -6.836,9.287c0.717,4.391 4.946,7.36 9.437,6.626Z" style="fill:none;stroke:#8bc6f2;stroke-width:2.7px;"/><path d="M1522.17,895.911c11.558,29.271 20.188,59.7 25.733,90.679" style="fill:none;fill-rule:nonzero;stroke:#8bc6f2;stroke-width:2.7px;"/><path d="M1550.4,1001.9c4.546,31.146 5.996,62.734 4.358,94.167" style="fill:none;fill-rule:nonzero;stroke:#8bc6f2;stroke-width:2.7px;"/><path d="M1554.23,1113.39c4.537,0.324 8.478,-3.015 8.796,-7.452c0.317,-4.437 -3.108,-8.303 -7.645,-8.628c-4.537,-0.324 -8.478,3.014 -8.796,7.452c-0.317,4.437 3.108,8.303 7.645,8.628Z" style="fill:none;stroke:#8bc6f2;stroke-width:2.7px;"/><path d="M1532.4,1220.16c4.347,1.34 8.939,-1.024 10.249,-5.275c1.309,-4.251 -1.157,-8.79 -5.503,-10.129c-4.347,-1.339 -8.94,1.025 -10.249,5.276c-1.31,4.251 1.156,8.789 5.503,10.128Z" style="fill:none;stroke:#8bc6f2;stroke-width:2.7px;"/><path d="M1553.62,1112.46c-2.713,31.354 -8.509,62.442 -17.3,92.663" style="fill:none;fill-rule:nonzero;stroke:#8bc6f2;stroke-width:2.7px;"/><path d="M1531.75,1219.95c-9.763,29.921 -22.492,58.871 -37.967,86.275" style="fill:none;fill-rule:nonzero;stroke:#8bc6f2;stroke-width:2.7px;"/><path d="M1485.59,1321.5c3.916,2.315 8.933,1.086 11.197,-2.743c2.264,-3.829 0.923,-8.817 -2.993,-11.132c-3.915,-2.315 -8.932,-1.086 -11.196,2.743c-2.264,3.829 -0.923,8.817 2.992,11.132Z" style="fill:none;stroke:#8bc6f2;stroke-width:2.7px;"/><path d="M1418.31,1407.23c3.289,3.142 8.454,3.081 11.527,-0.136c3.073,-3.217 2.897,-8.379 -0.392,-11.521c-3.289,-3.141 -8.454,-3.08 -11.527,0.136c-3.073,3.217 -2.897,8.379 0.392,11.521Z" style="fill:none;stroke:#8bc6f2;stroke-width:2.7px;"/><path d="M1485.45,1320.39c-16.408,26.854 -35.512,52.063 -56.908,75.142" style="fill:none;fill-rule:nonzero;stroke:#8bc6f2;stroke-width:2.7px;"/><path d="M1417.83,1406.74c-22.138,22.375 -46.463,42.579 -72.496,60.258" style="fill:none;fill-rule:nonzero;stroke:#8bc6f2;stroke-width:2.7px;"/><path d="M1408.46,1468.55l-54.142,-8.305l17.312,-51.97l-85.37,93.554l122.2,-33.279Z" style="fill:#8bc6f2;fill-rule:nonzero;"/><path d="M1388.41,1468.77l-90.725,26.08l51.166,-31.267l39.559,5.187Z" style="fill:#272a31;fill-rule:nonzero;"/></g></svg>